<?xml version="1.0" encoding="UTF-8"?>
<svg id="uuid-6a30eeb7-f8f7-433a-9f5b-f1601ea9a6db" xmlns="http://www.w3.org/2000/svg" version="1.1" viewBox="0 0 177.7 170.1">
  <!-- Generator: Adobe Illustrator 30.5.0, SVG Export Plug-In . SVG Version: 2.1.4 Build 167)  -->
  <defs>
    <style>
      .st0 {
        fill: #e5e1e6;
      }
    </style>
  </defs>
  <g>
    <path class="st0" d="M.1,136.6v-25.1h8.1c7.5,0,12.5,5,12.5,12.5s-5,12.5-12.4,12.5H.1ZM3.6,114.7v18.8h4.6c5.5,0,9.1-3.7,9.1-9.4s-3.6-9.4-9.3-9.4H3.6Z"/>
    <path class="st0" d="M40.7,136.6v-25.1h9.5c5.3,0,8.6,2.8,8.6,7.5s-1.8,6-4.8,7l5.1,10.6h-3.8l-4.7-9.9h-6.4v9.9h-3.6ZM44.2,123.7h6.1c3.1,0,4.9-1.7,4.9-4.6s-1.9-4.5-5-4.5h-6.1v9.1h.1Z"/>
    <path class="st0" d="M79.1,136.6v-25.1h15.3v3.1h-11.9v7.8h10.8v3h-10.8v7.9h11.9v3.1h-15.3Z"/>
    <path class="st0" d="M112.4,136.6l9.2-25.1h3.8l9.2,25.1h-3.6l-2.3-6.3h-10.6l-2.2,6.3h-3.6ZM119.2,127.5h8.5l-3.9-10.4c-.2-.5-.3-1-.4-1.5,0,.3-.2.9-.4,1.5l-3.9,10.4h.1Z"/>
    <path class="st0" d="M153.4,136.6v-25.1h3.3l8.7,21.1,8.7-21.1h3.4v25.1h-3.3v-9.9c0-4.7,0-6.4.2-8.1l-7.3,18.1h-3.2l-7.3-18c.2,1.3.2,3.8.2,7.3v10.8h-3.3Z"/>
    <path class="st0" d="M0,145.7h9.1c4.7,0,7.5,2.4,7.5,6.3s-1.1,4.6-3.6,5.5c2.6.8,4,2.8,4,5.6s-2.9,6.4-7.6,6.4H0v-23.9h0ZM3.2,148.7v7.6h5.9c2.7,0,4.2-1.5,4.2-4s-1.6-3.8-4.4-3.8H3.2ZM3.2,159.1v7.6h6.2c2.8,0,4.3-1.5,4.3-3.9s-1.6-3.8-4.3-3.8H3.2Z"/>
    <path class="st0" d="M31,169.7v-23.9h14.5v2.9h-11.3v7.4h10.2v2.8h-10.2v7.5h11.3v3h-14.5v.2Z"/>
    <path class="st0" d="M57.7,145.7h3.7l5.3,9.5c.3.5.5,1,.8,1.6.3-.6.3-.8.8-1.6l5.3-9.5h3.6l-8,14.2v9.7h-3.2v-9.7l-8-14.2h-.2Z"/>
    <path class="st0" d="M98.4,170.1c-6.7,0-11.4-5.1-11.4-12.3s4.7-12.3,11.5-12.3,11.5,5.1,11.5,12.3-4.8,12.3-11.5,12.3h-.1ZM98.4,148.5c-4.8,0-8,3.7-8,9.2s3.2,9.3,8,9.3,8-3.8,8-9.3-3.2-9.2-8-9.2Z"/>
    <path class="st0" d="M123.9,169.7v-23.9h3.2l12.2,18.5v-18.5h3.2v23.9h-3.2l-12.2-18.5v18.5h-3.2Z"/>
    <path class="st0" d="M158.1,169.7v-23.9h7.7c7.1,0,11.9,4.8,11.9,11.9s-4.8,11.9-11.8,11.9h-7.9.1ZM161.3,148.8v17.9h4.4c5.3,0,8.7-3.4,8.7-8.9s-3.3-9-8.8-9h-4.3Z"/>
  </g>
  <g>
    <path class="st0" d="M27.5,59.3c-.1.2-.2.4,0,.6.1.2.3.4.6.4s.3,0,.4-.1l12.1-10.6,1.9,24.6c0,.3.3.5.6.5s.6-.2.6-.5l1.9-24.6,12.1,10.6c.1,0,.2.1.4.1s.5-.1.6-.4c.1-.2,0-.5,0-.6l-11-12.5,12.6-1.4c.3,0,.5-.3.5-.6s-.2-.6-.5-.6l-12.6-1.4,11-12.6c.1-.2.2-.4,0-.6-.1-.2-.3-.4-.6-.4s-.3,0-.4.1l-12.1,10.6-1.9-24.6c0-.3-.3-.5-.6-.5s-.6.2-.6.5l-1.9,24.6-12.1-10.6c-.1,0-.2-.1-.4-.1s-.5.1-.6.4c-.1.2,0,.5,0,.6l10.9,12.5-12.6,1.4c-.3,0-.5.3-.5.6s.2.6.5.6l12.6,1.4-11,12.6h.1Z"/>
    <path class="st0" d="M116,42.9c10.8-3.9,17.1-11.4,17.1-20.6s-2.8-11.7-7.9-15.9S113,0,105.5,0h-62.5v4.2s11-.1,12,0c4.2.2,8.3.8,12.1,2.4,10.6,4.3,17.9,13.8,20.7,26.1.1.8,1.7,9,1.1,16.2-.6,7.4-2.5,14.5-5.7,20-3.8,6.5-9.4,11.3-16.1,14-7.7,3.1-16,2.4-24.1,2.4v4.2h66.2c15.8,0,27.6-10.1,27.6-23.6s-8.1-19.5-20.9-22.9ZM74.9,4h27.5c10.7,0,17.7,7.4,17.7,18.9s-3.2,14-10.1,16.9c-2.3.9-4.9,1.6-7.6,1.9,0-1-.2-2.4-.4-3.8h0c-.1-.8-.3-1.7-.4-2.5v-.6c-.5-2.5-1.4-5.1-2.5-7.7h0c-4.4-10.3-12.7-18.6-23.8-23.2h-.2ZM106.1,85.5h-31.2c16.6-6.9,27.2-22.3,27.4-40h1.9c9.4,0,19.5,5.4,19.5,20.5s-6.9,19.5-17.7,19.5h.1Z"/>
  </g>
</svg>