<?xml version="1.0" encoding="UTF-8"?>
<svg id="uuid-2f02fb9b-6e26-4771-9340-7a9bf0a117a7" xmlns="http://www.w3.org/2000/svg" version="1.1" viewBox="0 0 326.5 170.1">
  <!-- Generator: Adobe Illustrator 30.5.0, SVG Export Plug-In . SVG Version: 2.1.4 Build 167)  -->
  <defs>
    <style>
      .st0 {
        fill: #e5e1e6;
      }
    </style>
  </defs>
  <g id="uuid-06001c1a-3464-4a3e-b4ca-f1ca3f4d5ec4">
    <g id="uuid-c716daaf-9ff0-4677-ab6f-bbcc075dc44a">
      <path class="st0" d="M179.3,7c-4.3-4.5-10.1-7-16.2-7h0c-6,0-11.9,2.6-16.2,7-4.6,4.7-6.9,11-6.6,17.6,0,1.7.3,3.3.7,4.9h0c.3,1.4.8,2.7,1.5,3.9.5.9,1,1.9,1.7,2.7h0c.1.2.2.3.3.5h0c.1.2.2.3.3.5h0c.4.4.7.8,1.2,1.2h.1c.1.2.2.3.3.4,0,0,.1,0,.2.1.1,0,.2.2.3.2h.2c0,.2.2.3.3.3h.2c.2.1.3.2.5.3h0s.2.1.3.2h.2s.2.1.3.2c0,0,.2,0,.3.1,0,0,.2,0,.3.1,0,0,.2,0,.3.1.1,0,.2,0,.4.1h.2c.1,0,.3,0,.4.1h.1c.2,0,.4.1.6.2h.2c.1,0,.3,0,.4.1h5.2s.2-.1.3-.1h0c.3-.2.6-.3.9-.5h0c.1,0,.3-.2.4-.3h0c.1-.2.3-.3.4-.4h0c.1-.2.3-.3.4-.4h0c.7-.7,1.3-1.6,1.8-2.5h0c.2-.4.3-.8.4-1.3h.2c.1.4.3.7.4,1.2h0c.4,1,1,1.9,1.8,2.5h0c.1.2.2.3.4.4h0c.1.2.3.3.4.4h0c.1.2.3.2.4.3h0c.3.2.6.4.9.5h0s.2,0,.3.1h.1s.1,0,.2.1h5.5c.2,0,.4-.1.6-.2h.1c.1,0,.3-.1.4-.2h.2c.1,0,.2,0,.3-.1,0,0,.2,0,.3-.1,0,0,.2,0,.3-.1,0,0,.2,0,.3-.1,0,0,.2,0,.3-.1h0s.1-.1.2-.1c0,0,.2-.1.3-.2h0c.2-.1.3-.2.5-.3h0s.1-.1.2-.1.2-.1.3-.2h0s.1,0,.2-.1c.1,0,.2-.2.3-.2,0,0,.1,0,.2-.1.1,0,.2-.2.3-.3h.1c.4-.4.8-.8,1.2-1.3h0c.1-.2.2-.3.3-.4h0c.1-.2.2-.4.3-.5h0c.6-.8,1.2-1.8,1.7-2.7.6-1.2,1.2-2.5,1.5-3.9h0c.4-1.6.6-3.2.7-4.9.3-6.6-2.1-12.9-6.6-17.6h1.6ZM166.2,33.8c.7-1.4,2.8-3.2,5.3-2.4,1.4.4,2,1.8,1.9,2.9,0,1.3-.8,2.2-2.1,2.4-.3,0-.6,0-.7-.1-.4-.3-.4-1.4-.4-2.2s0-1.2-.2-1.4h-.3c-.9.3-1.5.9-1.6,1.8s.3,1.8,1,2.4c.9.7,2.2.8,3.5.3,1.9-.7,2.8-2.5,2.4-4.3-.3-1.4-1.4-2.7-3.2-3.1,1.7-.3,3.3-.4,5-.4h.4c.4,0,.8,0,1.2-.2.3-.2.5-.6.4-1,0-.3-.2-.4-.4-.5-2.3-.5-8.4,1.4-12,3.3.5-.4,1-.8,1.2-.9,3-2.3,7.2-4.1,11.2-4.5h.5c.4,0,.9-.1,1.4-.5.3-.3.4-.8.3-1.3-.1-.3-.3-.4-.6-.4-.8,0-1.9.2-2.8.6h-.4c-1.5.6-6.5,2.5-11,6.6,2.9-3.3,6.5-5.8,9.1-7.6l.3-.2c1.8-1.3,3.5-2.1,5.1-2.6.5-.2.8-1,.7-1.7,0-.6-.5-1-1.2-1.2-.9-.1-3.2,1.3-6.1,3.7-2.9,2.4-5.8,5.4-8.3,8.6,4.1-7.9,9.9-13.5,11.7-15.1.7-.6.7-1.3.6-1.7-.1-.6-.6-1.3-1-1.4-2.7-.8-9,9.2-12.1,16.9,1.9-7.8,3.5-11.9,7.5-19.2.3-.5.2-1.2-.1-1.7-.5-.7-1.5-1.2-2.3-.9-.8.1-1.4.7-1.7,1.8,0,.1-2.9,11.3-4.4,19.6v-3.6c.2-3.1.4-6.4.6-9.5,0-.8.1-1.6.2-2.4.1-1.8.3-3.5.5-4.9v-.7h0c0-.2,0-.4-.1-.6-.2-.6-.7-.9-1.6-1h-.6c-.8,0-1.4.4-1.6,1,0,.2,0,.3-.1.5h0v.6c.2,1.5.3,3.1.5,4.9,0,.8.1,1.7.2,2.4.2,3.1.4,6.4.5,9.5v1.5c.1.7.1,1.4.2,2.1-1.5-8.3-4.3-19.5-4.4-19.6-.2-.9-.8-1.6-1.7-1.8-.8-.1-1.8.2-2.3.9-.4.5-.4,1.2-.1,1.7,4.1,7.2,5.6,11.3,7.5,19.2-3.1-7.7-9.4-17.8-12.1-16.9-.4.1-.9.7-1,1.4,0,.4,0,1,.6,1.7,1.8,1.6,7.6,7.1,11.7,15.1-2.5-3.1-5.4-6.2-8.3-8.6-2.8-2.3-5.1-3.8-6.1-3.7-.6,0-1,.5-1.2,1.2,0,.7.2,1.5.8,1.7,1.7.6,3.3,1.5,5.1,2.6l.3.2c2.6,1.8,6.2,4.2,9.1,7.6-4.5-4.1-9.5-6-11-6.4h-.4c-.9-.4-2-.8-2.8-.7-.3,0-.5.2-.6.5-.1.4,0,.9.3,1.3.4.3.8.4,1.4.5h.5c4,.5,8.2,2.2,11.2,4.5,0,0,.5.4,1.2.9-3.7-2-9.8-3.9-12-3.3-.2,0-.4.2-.5.5,0,.4.1.8.4,1,.4.2.8.2,1.2.2h.4c1.6,0,3.3,0,4.9.4-1.9.3-2.9,1.8-3.2,3.1-.4,1.9.5,3.6,2.4,4.3,1.3.5,2.5.4,3.5-.3.7-.6,1.2-1.6,1-2.4s-.6-1.4-1.6-1.8h-.3c-.2.2-.2.6-.2,1.4s0,1.8-.4,2.2c-.2.1-.4.2-.7.1-1.3-.3-2-1.2-2.1-2.4,0-1.2.6-2.6,1.9-2.9,2.5-.8,4.6,1,5.3,2.4.4.7.5,1.6.3,2.4-.4,1.5-1.6,2.6-3,3.3h0c-.1,0-.3.1-.4.2h-4.2c-.2,0-.5-.1-.7-.2h-.1c-.2,0-.4-.2-.6-.2h0c-.2-.1-.4-.2-.7-.3h-.1c-.2-.2-.5-.3-.7-.4h0c-.2-.1-.4-.3-.6-.4h-.1c-.2-.2-.4-.4-.6-.5h-.1c-.4-.4-.9-.8-1.3-1.3h-.1c-.2-.3-.4-.5-.6-.8h0c-.2-.3-.4-.5-.5-.8h0c-.2-.3-.3-.5-.5-.8h0c-.2-.4-.3-.7-.5-1-.1-.3-.3-.6-.4-.9h0c-.1-.4-.3-.8-.4-1.2h0c-.1-.5-.2-.9-.3-1.3-.4-1.6-.7-3.2-.7-4.9-.2-6.3,2-12.1,6.3-16.6,4.1-4.2,9.6-6.6,15.2-6.6h0c5.6,0,11.2,2.4,15.2,6.6,4.3,4.5,6.5,10.4,6.3,16.6,0,1.8-.3,3.3-.7,4.9,0,.3-.2.7-.3,1h0c-.1.5-.2.8-.4,1.2h0c-.1.5-.3.8-.4,1-.1.3-.3.6-.5.9h0c-.2.4-.3.7-.5.9h0c-.2.3-.3.5-.5.8h0c-.2.3-.4.5-.6.7h-.1c-.4.5-.8.9-1.3,1.4h-.1c-.2.3-.4.4-.6.6h-.1c-.2.2-.4.3-.6.5h0c-.2.2-.4.3-.7.4h-.1c-.2.2-.5.3-.7.3h0c-.2.1-.4.2-.6.2h-.1c-.2,0-.4.1-.7.2h-.1c-.3,0-.5,0-.7.1h-3.5c-.1,0-.3,0-.4-.1h0c-1.6-.6-2.7-1.9-3-3.3-.2-.8-.1-1.7.3-2.4h0l-2.6-.3ZM158.2,40.7h0Z"/>
      <path class="st0" d="M30.6,127c-.9.4-2.1.7-3.5.9-1.4.2-2.8.4-4.5.5s-3.6.2-5.6.2H5.9v-13.1h12.7c1.4,0,2.6,0,3.6.2.9.1,1.9.3,2.5.5.6.2,1.6.8,1.6.8l.5.3v-7.7l-.5.3s-.9.6-1.6.8c-.7.2-1.6.4-2.5.5-1,.1-2.2.2-3.6.2H5.9v-10.5h17c1,0,2,.2,3,.4.9.2,1.9.5,2.8.9.8.4,1.7.9,2.5,1.7l1.4,1.2v-8.2H0v.8c.1,1.6.2,3.3.3,5.1,0,1.8,0,3.8.1,5.6v11.9c0,2,0,3.9-.1,5.6,0,1.8-.1,3.6-.2,5.1v.8h32.8l2.1-8.7-1.9,1.7c-.6.5-1.4.9-2.3,1.4h0l-.2.3Z"/>
      <path class="st0" d="M80.6,118.1h0c-.5-1-1.2-2-2-2.7s-1.7-1.5-2.7-2-2.1-.9-3.3-1.4c-1.2-.3-2.4-.6-3.7-.7s-2.5-.2-3.8-.2h-1.6c-.9,0-1.9,0-2.8-.2-.9-.1-1.8-.3-2.6-.5s-1.6-.5-2.3-.8c-.6-.3-1.3-.7-1.8-1.2-.4-.4-.8-.9-1.2-1.5-.3-.5-.4-1.2-.4-1.8s0-.8.2-1.3c.2-.4.4-.8.8-1.3.3-.4.8-.8,1.4-1.2.5-.4,1.3-.7,1.9-1,.7-.3,1.6-.5,2.4-.7.9-.2,1.9-.3,2.9-.3,1.9-.1,3.6,0,5.3.5,1.4.3,2.6.8,3.9,1.6s2.4,1.6,3.7,2.6c1.2,1,2.3,2.4,3.5,3.9l1.5,1.9v-8.6l-.2-.2c-.9-.8-2.1-1.6-3.2-2.2s-2.5-1.3-3.9-1.7c-1.4-.4-2.8-.8-4.3-1-2-.3-4-.4-6.2-.3-1.6,0-3.1.3-4.5.6-1.4.3-2.6.7-3.8,1.3s-2.1,1.2-2.9,1.8c-.8.7-1.6,1.5-2.2,2.3-.6.8-1,1.7-1.3,2.5-.3.9-.4,1.8-.4,2.7s.2,2,.5,2.7c.3.8.7,1.6,1.3,2.3.5.6,1.2,1.3,1.9,1.8.7.5,1.5.9,2.3,1.4.8.4,1.7.7,2.6.9.9.2,1.9.5,2.8.6.9.2,1.9.3,2.9.3,2.1.2,4.1,0,6,.3,1,.1,2,.3,2.8.5.8.2,1.7.5,2.4.8.7.3,1.3.7,1.8,1.3.5.4.8.9,1.2,1.6.3.6.4,1.3.4,2s0,.9-.2,1.4-.4.9-.8,1.4c-.3.4-.8.8-1.4,1.3-.5.4-1.2.7-1.9,1-.7.3-1.6.5-2.4.7-.9.2-1.9.3-2.9.4-1.8,0-3.8,0-5.8-.5-1.6-.3-3-.8-4.5-1.6s-2.9-1.6-4.2-2.6c-1.4-1-2.5-2.3-3.7-3.8l-1.5-1.9v8.6l.2.2c.6.5,1.5,1,2.3,1.6.8.4,1.8.9,2.7,1.3.9.4,2,.7,3,1s2.1.5,3.2.7,2.2.4,3.3.5,2.3.2,3.5.2h1.5c1.6,0,3.1-.3,4.5-.6,1.4-.3,2.6-.8,3.8-1.4s2.1-1.2,2.9-1.9c.8-.7,1.6-1.5,2.2-2.3.6-.8,1-1.8,1.3-2.6.3-.9.4-1.9.3-2.8,0-1.3-.3-2.5-.8-3.6h0v-.2Z"/>
      <path class="st0" d="M127.8,118.1h0c-.5-1-1.2-2-2-2.7s-1.7-1.5-2.7-2-2.1-.9-3.3-1.4c-1.2-.3-2.4-.6-3.7-.7s-2.5-.2-3.8-.2h-1.7c-.9,0-1.9,0-2.8-.2-.9-.1-1.8-.3-2.6-.5s-1.6-.5-2.3-.8c-.6-.3-1.3-.7-1.8-1.2-.4-.4-.8-.9-1.2-1.5-.3-.5-.4-1.2-.4-1.8s0-.8.2-1.3c.2-.4.4-.8.8-1.3.3-.4.8-.8,1.4-1.2.5-.4,1.3-.7,1.9-1,.7-.3,1.6-.5,2.4-.7.9-.2,1.9-.3,2.9-.3,1.9-.1,3.6,0,5.3.5,1.4.3,2.6.8,3.9,1.6s2.4,1.6,3.7,2.6c1.2,1,2.3,2.4,3.5,3.9l1.5,1.9v-8.6l-.2-.2c-.9-.8-2.1-1.6-3.2-2.2s-2.5-1.3-3.9-1.7c-1.4-.4-2.8-.8-4.3-1-2-.3-4-.4-6.2-.3-1.6,0-3.1.3-4.5.6-1.4.3-2.6.7-3.8,1.3s-2.1,1.2-2.9,1.8c-.8.7-1.6,1.5-2.2,2.3-.6.8-1,1.7-1.3,2.5-.3.9-.4,1.8-.4,2.7s.2,2,.5,2.8c.3.8.7,1.6,1.3,2.3.5.6,1.2,1.3,1.9,1.8.7.5,1.5.9,2.3,1.4.8.4,1.7.7,2.6.9.9.2,1.9.5,2.8.6.9.2,1.9.3,2.9.3,2.1.2,4.1,0,6,.3,1,.1,2,.3,2.8.5.8.2,1.7.5,2.4.8.7.3,1.3.7,1.8,1.3.5.4.8.9,1.2,1.6.3.6.4,1.3.4,2s0,.9-.2,1.4-.4.9-.8,1.4c-.3.4-.8.8-1.4,1.3-.5.4-1.2.7-1.9,1-.7.3-1.6.5-2.4.7-.9.2-1.9.3-2.9.4-1.9,0-3.9,0-5.8-.5-1.6-.3-3-.8-4.5-1.6s-2.9-1.6-4.2-2.6c-1.4-1-2.5-2.3-3.7-3.8l-1.5-1.9v8.6l.2.2c.6.5,1.5,1,2.3,1.6.8.4,1.8.9,2.7,1.3.9.4,2,.7,3,1s2.1.5,3.2.7,2.2.4,3.3.5,2.3.2,3.5.2h1.5c1.6,0,3.1-.3,4.5-.6,1.4-.3,2.6-.8,3.8-1.4s2.1-1.2,2.9-1.9c.8-.7,1.6-1.5,2.2-2.3.5-.8,1-1.8,1.3-2.6.3-.9.4-1.9.3-2.8,0-1.3-.3-2.5-.8-3.6h0v-.3Z"/>
      <path class="st0" d="M175.2,125.7c-.6.5-1.4.9-2.3,1.4-.9.4-2.1.7-3.5.9-1.4.2-2.8.4-4.5.5-1.7.1-3.6.2-5.6.2h-11.2v-13.1h12.7c1.4,0,2.6,0,3.6.2.9.1,1.9.3,2.5.5s1.6.8,1.6.8l.5.3v-7.7l-.5.3s-.9.6-1.6.8c-.7.2-1.6.4-2.5.5-1,.1-2.2.2-3.6.2h-12.7v-10.5h17c1,0,2,.2,3,.4.9.2,1.9.5,2.8.9.8.4,1.7.9,2.5,1.7l1.4,1.2v-8.2h-32.6v.8c.1,1.6.2,3.3.3,5.1,0,1.8,0,3.8.1,5.6v11.9c0,2,0,3.9-.1,5.6,0,1.9-.1,3.6-.2,5.1v.8h32.8l2.1-8.6-1.9,1.7h0l-.2.2Z"/>
      <path class="st0" d="M218.8,128.3c1.8,1.6,3.6,3.3,5.3,5l1.5,1.5-.2-3c0-1.6-.2-3.2-.2-5.1s0-3.8-.1-5.6v-11.9c0-2,0-3.9.1-5.6,0-1.9.1-3.6.2-5.1v-.8h-5.3v.8c.1,1.3.2,2.6.2,4s0,2.8.1,4.4v15.3c-1.8-1.4-3.7-2.9-5.6-4.5-2.4-2-4.9-4.1-7.5-6.3-2.5-2.2-5.2-4.5-7.9-6.9-2.7-2.4-5.4-4.9-8.1-7.5l-1.5-1.4.2,2.9c0,1.6.2,3.3.2,5.1s0,3.8.1,5.6v11.9c0,2,0,3.9-.1,5.6,0,1.8-.1,3.6-.2,5.1v.8h5.3v-.8c-.1-1.3-.2-2.6-.2-4s0-2.8-.1-4.4v-15.3c1.3.9,2.5,2,3.8,2.9,1.7,1.4,3.3,2.7,5,4.1,1.7,1.4,3.3,2.7,4.9,4.2,1.7,1.4,3.3,2.9,5,4.4,1.7,1.5,3.5,3,5.1,4.7h0Z"/>
      <path class="st0" d="M274.9,98.8c-1.2-.7-2.4-1.4-3.8-1.9-1.4-.5-2.8-.8-4.4-1.2-2.8-.4-6-.5-9,0-1.4.2-2.8.5-4.2.8-1.4.4-2.6.8-3.9,1.5s-2.4,1.3-3.6,2.1c-1,.7-2.1,1.7-3,2.7s-1.7,2.1-2.3,3.3c-.6,1.2-1.2,2.5-1.5,4-.3,1.4-.5,2.9-.5,4.5s.2,3.1.5,4.5.8,2.7,1.5,4c.6,1.2,1.5,2.3,2.3,3.3.9.9,1.9,1.9,3,2.6,1,.7,2.3,1.5,3.6,2.1,1.3.6,2.5,1,3.9,1.5,1.4.4,2.7.6,4.1.8,1.4.2,2.8.3,4.3.3s3.2-.1,4.8-.4c1.6-.2,3-.6,4.4-1.2,1.4-.5,2.7-1.2,3.8-1.9,1.2-.7,2.2-1.6,2.9-2.6l.2-.2v-9l-1.5,2.6c-.5.9-1.2,1.8-1.8,2.6-.7.8-1.5,1.5-2.3,2.1-.8.6-1.8,1.2-2.7,1.7s-2,.9-2.9,1.3c-1,.3-2.1.5-3.1.7s-2.1.2-3.2.2h-.2c-1.4,0-2.6-.2-4-.4-1.3-.3-2.5-.7-3.7-1.3s-2.2-1.3-3.1-2.1-1.8-1.8-2.5-2.9c-.7-1.2-1.3-2.4-1.7-3.8-.4-1.5-.6-3-.6-4.7s.2-3.3.6-4.7.9-2.7,1.7-3.8c.7-1.2,1.6-2.1,2.5-2.9s2-1.6,3.1-2.1,2.4-.9,3.7-1.3c1.3-.3,2.6-.4,3.9-.4h.2c1,0,2.1,0,3.1.2s2.1.4,3.1.7c1,.3,2,.7,2.9,1.3s1.9,1,2.7,1.7c.8.6,1.6,1.4,2.3,2.1s1.3,1.7,1.8,2.6l1.5,2.6v-9l-.2-.2c-.8-.9-1.8-1.9-2.9-2.6h.2Z"/>
      <path class="st0" d="M324.4,125.7c-.6.5-1.4.9-2.3,1.4s-2.1.7-3.5.9c-1.4.2-2.8.4-4.5.5s-3.6.2-5.6.2h-11.2v-13.1h12.7c1.4,0,2.6,0,3.6.2.9.1,1.9.3,2.5.5.6.2,1.6.8,1.6.8l.5.3v-7.7l-.5.3s-.9.6-1.6.8c-.7.2-1.6.4-2.5.5-1,.1-2.2.2-3.6.2h-12.7v-10.5h17c1,0,2,.2,3,.4.9.2,1.9.5,2.8.9.8.4,1.7.9,2.5,1.7l1.4,1.2v-8.2h-32.6v.8c.1,1.7.2,3.3.3,5.1,0,1.8,0,3.8.1,5.6v11.9c0,2,0,3.9-.1,5.6,0,1.8-.1,3.6-.2,5.1v.8h32.8l2.1-8.7-1.9,1.7h0l-.2.3Z"/>
      <path class="st0" d="M99.7,157.9h0c-.4-.6-.9-1-1.5-1.5-.6-.4-1.3-.7-2-1-.7-.3-1.5-.5-2.3-.6-1.7-.3-3.6-.3-5.2,0-.8.1-1.6.3-2.3.6s-1.4.6-2,1-1,.9-1.5,1.5-.7,1.3-.9,2c-.2.7-.3,1.5-.3,2.4s.1,1.7.3,2.4c.2.7.5,1.4.9,2,.4.6.9,1,1.5,1.5.6.4,1.3.7,2,1,.7.3,1.5.5,2.3.6.8.1,1.7.2,2.6.2s1.8,0,2.6-.2c.8-.1,1.6-.3,2.3-.6s1.4-.6,2-1,1-.9,1.5-1.5c.4-.6.7-1.3.9-2,.2-.7.3-1.5.3-2.4s-.1-1.7-.3-2.4c-.2-.7-.5-1.4-.9-2ZM97.7,162.2c0,.9-.1,1.8-.4,2.5-.2.6-.6,1.3-1,1.7-.5.4-1.2.7-2,1-.8.2-1.9.3-3,.3s-2.2-.1-3-.3-1.5-.5-2-1c-.5-.4-.8-.9-1-1.7-.2-.7-.4-1.6-.4-2.5s.1-1.8.4-2.5c.2-.6.6-1.3,1-1.7.5-.4,1.2-.7,2-1,.8-.2,1.9-.3,3-.3s2.2.1,3,.3,1.5.5,2,1c.5.4.8.9,1,1.7.2.7.4,1.6.4,2.5h0Z"/>
      <path class="st0" d="M108.5,155.9v13.8h3.5v-.7c0-.4,0-.8-.1-1.4v-3.6h6.3c.4,0,.7.1,1,.2.2,0,.5.2.6.3l.5.3v-4l-.5.3-.6.3c-.3,0-.6.1-1,.2h-6.3v-4.3h7.5c.3,0,.6,0,.8.1.2,0,.4.1.6.2.2,0,.4.2.5.3.2,0,.3.2.5.3l1,.9v-4.2h-14.4v.7Z"/>
      <path class="st0" d="M156.6,161.5h0c-.3-.3-.8-.6-1.3-.9-.4-.2-.9-.4-1.5-.6-.5-.1-1-.2-1.7-.3h-3.6c-.4,0-.7-.1-1-.2-.3,0-.6-.2-.9-.3-.2-.1-.5-.3-.6-.4-.2-.2-.3-.3-.4-.5,0-.2-.1-.4-.1-.6v-.4c0-.1.1-.3.3-.4.1-.2.3-.3.5-.4.2-.1.5-.3.7-.4.3-.1.6-.2,1-.3.3,0,.7-.1,1.2-.1.7,0,1.5,0,2.2.2.5.1,1,.3,1.6.6s1,.6,1.5,1c.5.4.9.9,1.5,1.6l1.2,1.6v-4.8l-.2-.2c-.4-.3-.9-.7-1.5-.9-.5-.3-1-.5-1.7-.7s-1.3-.3-1.9-.5c-.8-.1-1.8-.2-2.7-.1-.7,0-1.4.1-2,.3-.6.1-1.2.3-1.7.5s-.9.5-1.4.8-.7.6-.9,1c-.3.4-.5.7-.6,1.2-.1.4-.2.8-.2,1.3s0,.9.2,1.3c.1.4.3.7.6,1,.2.3.5.6.8.8s.6.4,1,.6c.4.2.7.3,1.2.4.4.1.8.2,1.3.3.4,0,.8.1,1.3.2h2.6c.4,0,.8.1,1.2.2.3,0,.6.2.9.3s.5.3.7.4c.2.2.3.3.4.6,0,.2.1.4.2.7v.4c0,.2-.2.3-.3.5-.1.2-.3.3-.5.5s-.5.3-.7.4c-.3.1-.6.2-.9.3-.3,0-.7.1-1.2.2-.7,0-1.6,0-2.4-.2-.6-.1-1.3-.3-1.9-.6-.6-.3-1.2-.6-1.8-1-.5-.4-1-.9-1.5-1.6l-1.2-1.6v4.8l.2.2c.3.2.6.5,1,.7s.7.4,1.2.5c.4.2.8.3,1.4.4.4.1.9.2,1.5.3.5,0,.9.2,1.5.2h2.1c.7,0,1.4-.1,2-.3.6-.1,1.2-.3,1.7-.6.5-.2.9-.5,1.4-.8s.7-.7.9-1c.3-.4.4-.8.6-1.3.1-.4.2-.8.1-1.4,0-.6-.2-1.2-.4-1.7-.2-.5-.5-.9-.9-1.3h0Z"/>
      <path class="st0" d="M168.8,156.7h0c0-.7,0-1.5.1-2.2v-.7h-3.6v.7c0,.7,0,1.5.1,2.2v9.8c0,.7,0,1.5-.1,2.2v.7h3.6v-.7c-.1-.7-.2-1.5-.2-2.2v-9.8h.1Z"/>
      <path class="st0" d="M192.4,154.4c-.5-.3-1-.6-1.7-.8s-1.3-.4-2-.5c-1.3-.2-2.6-.2-4,0-.6,0-1.3.2-1.8.4-.6.2-1.2.4-1.7.6-.5.2-1,.5-1.6.9-.5.3-.9.7-1.4,1.2-.4.4-.7.9-1,1.5s-.5,1.2-.6,1.8c-.2.6-.2,1.4-.2,2s0,1.4.2,2c.1.6.4,1.3.6,1.8.3.5.6,1,1,1.5s.8.8,1.4,1.2,1,.6,1.6.9c.5.2,1.2.4,1.7.6.6.2,1.2.3,1.8.4.6,0,1.3.1,1.9.1s1.5,0,2.1-.2c.7-.1,1.4-.3,2-.5s1.2-.5,1.7-.8.9-.7,1.4-1.2v-.2c.1,0,.1-5.2.1-5.2l-1.3,2.2c-.2.4-.4.7-.7,1-.3.3-.6.6-.9.8-.3.3-.7.5-1.2.7s-.8.4-1.3.5c-.4.1-.8.2-1.3.3h-1.4c-.5,0-1,0-1.6-.2-.5-.1-1-.3-1.5-.5s-.9-.5-1.3-.8c-.4-.3-.7-.7-1-1.2-.3-.4-.5-.9-.6-1.6-.2-.6-.2-1.3-.2-2s0-1.4.2-2c.2-.6.4-1,.6-1.6.3-.4.6-.8,1-1.2s.8-.6,1.3-.8c.4-.2.9-.4,1.5-.5s1-.2,1.6-.2h1.4c.4,0,.8.2,1.3.3.4.1.8.3,1.3.5.4.2.7.4,1.2.7.3.2.6.5.9.8s.5.6.7,1l1.3,2.3v-5.4c-.5-.4-.9-.8-1.5-1.2h0v.4Z"/>
      <path class="st0" d="M204.7,156.7h0c0-.7,0-1.6.1-2.2v-.7h-3.6v.7c0,.7,0,1.5.1,2.2v9.8c0,.7,0,1.5-.1,2.2v.7h3.6v-.7c-.1-.6-.2-1.5-.2-2.2v-9.8h.1Z"/>
      <path class="st0" d="M225.9,166.4c-.4.2-.8.3-1.5.4-.5,0-1.3.2-1.9.2h-6.6v-13.5h-3.5v.7c0,.4,0,.9.1,1.5s0,1,0,1.6v12.1h14.4l1.2-5-1.6,1.5c-.2.2-.5.4-.8.5h.1Z"/>
      <path class="st0" d="M241.2,154c-.3.4-.7.8-1,1.4-.4.5-.7.9-1.2,1.5s-.8,1-1.3,1.6c-.3.3-.5.6-.8.9-.3-.3-.5-.6-.8-.9-.4-.5-.8-1-1.3-1.6-.4-.5-.8-.9-1.3-1.5-.4-.4-.7-.9-1-1.4l-.2-.2h-4.3l1,1.2c.4.5.9,1,1.4,1.6.5.5.9,1.2,1.5,1.7.5.6,1,1.2,1.6,1.8.5.5.9,1,1.5,1.7v5.6c0,.6,0,1.2-.1,1.7v.7h3.6v-.7c-.1-.5-.1-1-.2-1.7v-5.6h0c.5-.6,1-1.3,1.6-1.9s1-1.2,1.5-1.8.9-1.2,1.5-1.7.9-1,1.4-1.6l1-1.2h-3.3l-.2.2h0l-.3.2Z"/>
      <path class="st0" d="M62.8,65.4h-3v-1.8h8.2v1.8h-3v8.6h-2.2v-8.6h.1Z"/>
      <path class="st0" d="M72.1,63.6h4.3c.7,0,1.5.1,2,.4.5.3.9.6,1.3,1.2.3.5.4,1,.4,1.8h0c0,.7-.2,1.3-.5,1.8s-.8.9-1.4,1.2l2.2,4.1h-2.4l-1.9-3.8h-1.8v3.8h-2.2v-10.4h0ZM76,68.5c.5,0,.9-.1,1.3-.4.3-.3.4-.7.4-1.2h0c0-.5-.2-.9-.5-1.2-.3-.3-.7-.4-1.3-.4h-1.9v3.2h2Z"/>
      <path class="st0" d="M87.2,63.6h1.9v2h-.6l-2.6,8.4h-2.3l3.6-10.4h.1ZM86.2,69.8h4.8l.5,1.6h-5.9l.5-1.6ZM88.6,65.6v-2h1.3l3.6,10.4h-2.3l-2.6-8.4h.1Z"/>
      <path class="st0" d="M95.5,63.6h2.4l2.4,8.2h0l2.3-8.2h2.4l-3.5,10.4h-2.6s-3.5-10.4-3.5-10.4Z"/>
      <path class="st0" d="M109,63.6h6.8v1.8h-4.7v2.5h4.4v1.7h-4.4v2.6h4.7v1.8h-6.8s0-10.4,0-10.4Z"/>
      <path class="st0" d="M120.4,63.6h2.2v8.6h4.5v1.8h-6.7s0-10.4,0-10.4Z"/>
      <path class="st0" d="M132.8,73.7c-.6-.2-1-.6-1.5-1-.3-.4-.5-.9-.6-1.7h0c0-.1,2-.1,2-.1h0c0,.3.2.6.3.7.2.2.4.3.7.4.3.1.6.2,1,.2s.7,0,1-.2c.3-.1.5-.2.6-.4.1-.2.2-.4.2-.7h0c0-.3-.1-.6-.4-.8-.3-.2-.7-.3-1.4-.5l-1-.2c-1-.2-1.8-.5-2.3-1s-.7-1.2-.7-1.9h0c0-.6.2-1.2.5-1.7.3-.4.8-.8,1.4-1s1.3-.4,2-.4,1.5.1,2.1.4c.6.2,1,.6,1.4,1s.5.9.5,1.6h0c0,.1-2.1.1-2.1.1h0c0-.3-.1-.6-.3-.7-.2-.2-.4-.3-.6-.4-.3-.1-.6-.2-.9-.2s-.7,0-.9.2c-.3.1-.5.2-.6.4s-.2.4-.2.6h0c0,.3.1.6.4.8.3.2.7.3,1.3.5l1,.2c1,.2,1.9.5,2.4,1,.5.4.7,1.2.7,1.9h0c0,.6-.2,1.3-.5,1.8s-.8.8-1.5,1.2c-.6.3-1.4.4-2.2.4s-1.6-.1-2.1-.3h.3Z"/>
      <path class="st0" d="M152.2,63.6h1.9v2h-.6l-2.6,8.4h-2.3l3.6-10.4h.1ZM151,69.8h4.8l.5,1.6h-5.9l.5-1.6ZM153.4,65.6v-2h1.3l3.6,10.4h-2.3l-2.6-8.4h.1Z"/>
      <path class="st0" d="M162.3,63.6h1.9l5.6,8.1-1.8-1.4h.9v-6.7h2.2v10.4h-1.9l-5.6-8.2,1.8,1.4h-.9v6.8h-2.2s0-10.4,0-10.4Z"/>
      <path class="st0" d="M175.7,63.6h4c1,0,1.9.2,2.6.6.7.4,1.3.9,1.7,1.8.4.7.6,1.7.6,2.8h0c0,1.2-.2,2.1-.6,2.8s-.9,1.4-1.7,1.8-1.6.6-2.6.6h-4v-10.4h0ZM179.4,72.2c.6,0,1.2-.1,1.7-.4.4-.2.7-.6,1-1.2.2-.5.3-1.2.3-1.9h0c0-.7-.1-1.4-.3-1.9s-.5-.8-1-1.2-.9-.4-1.6-.4h-1.6v6.8h1.6-.1Z"/>
      <path class="st0" d="M194.8,63.6h2.2v10.4h-2.2s0-10.4,0-10.4ZM195.8,72.3h2.9c.6,0,1-.1,1.5-.4.3-.2.5-.6.5-1h0c0-.3,0-.6-.2-.8-.1-.2-.4-.4-.6-.5-.3-.1-.6-.2-1.2-.2h-2.8v-1.5h2.6c.6,0,1-.1,1.4-.3.3-.2.5-.6.5-1h0c0-.4-.1-.7-.4-.9s-.6-.3-1.2-.3h-2.8v-1.6h3.5c.6,0,1.3.1,1.7.3s.8.5,1,.9.4.8.4,1.4h0c0,.4,0,.7-.2,1-.2.3-.4.6-.7.8-.3.2-.6.3-1,.4h0c.5,0,.9.2,1.3.4.4.2.6.5.8.8.2.3.3.7.3,1.3h0c0,.6-.1,1.2-.4,1.6s-.7.7-1.3,1c-.5.2-1.2.3-1.9.3h-3.5v-1.6h-.2Z"/>
      <path class="st0" d="M207.1,63.6h6.8v1.8h-4.7v2.5h4.4v1.7h-4.4v2.6h4.7v1.8h-6.8s0-10.4,0-10.4Z"/>
      <path class="st0" d="M221.3,70.1l-3.6-6.5h2.3l2.3,4.4h0l2.3-4.4h2.3l-3.6,6.5v3.9h-2.2v-3.9h.1Z"/>
      <path class="st0" d="M232.2,73.4c-.7-.4-1.4-1-1.8-1.9-.4-.8-.6-1.8-.6-2.8h0c0-1.2.2-2.1.6-2.8.4-.8.9-1.4,1.8-1.9.7-.4,1.7-.6,2.6-.6s1.9.2,2.6.6,1.4,1,1.7,1.9c.4.8.6,1.8.6,2.8h0c0,1.2-.2,2.1-.6,2.8s-.9,1.5-1.7,1.9-1.7.6-2.6.6-1.9-.2-2.6-.6h0ZM236.3,71.9c.4-.3.7-.7.9-1.3.2-.5.3-1.2.3-1.9h0c0-.7-.1-1.4-.3-1.9-.2-.5-.5-.9-.9-1.3s-.9-.4-1.5-.4-1,.1-1.5.4c-.4.3-.7.7-.9,1.3-.2.5-.3,1.2-.3,1.9h0c0,.7.1,1.4.3,1.9.2.5.5.9.9,1.3.4.3.9.4,1.5.4s1-.1,1.5-.4h0Z"/>
      <path class="st0" d="M244.1,63.6h1.9l5.6,8.1-1.8-1.4h.9v-6.7h2.2v10.4h-1.9l-5.6-8.2,1.8,1.4h-.9v6.8h-2.2s0-10.4,0-10.4Z"/>
      <path class="st0" d="M257.5,63.6h4c1,0,1.9.2,2.6.6.7.4,1.3.9,1.7,1.8.4.7.6,1.7.6,2.8h0c0,1.2-.2,2.1-.6,2.8s-.9,1.4-1.7,1.8-1.6.6-2.6.6h-4v-10.4h0ZM261.2,72.2c.6,0,1.2-.1,1.7-.4.4-.2.7-.6,1-1.2.2-.5.3-1.2.3-1.9h0c0-.7-.1-1.4-.3-1.9s-.5-.8-1-1.2c-.4-.2-.9-.4-1.6-.4h-1.6v6.8h1.6-.1Z"/>
    </g>
  </g>
</svg>