<?xml version="1.0" encoding="UTF-8"?>
<svg id="uuid-58e95818-d1c5-4ba2-807a-4644b109f0e9" xmlns="http://www.w3.org/2000/svg" version="1.1" viewBox="0 0 191.6 170.1">
  <!-- Generator: Adobe Illustrator 30.5.0, SVG Export Plug-In . SVG Version: 2.1.4 Build 167)  -->
  <defs>
    <style>
      .st0 {
        fill: #e5e1e6;
      }
    </style>
  </defs>
  <g id="_x34_WYw7a.tif">
    <g>
      <path class="st0" d="M93.6,102.8c-.4-.1-.7-.4-1.3-.8l-1.2-.7-1-.5-.6-.4-1.3-.7-.7-.4-.8-.5-1-.5-.5-.4-1.3-.7c0,0-.3-.3-.4-.3l-1-.5-.6-.4-1-.5-.6-.4-1-.5-.6-.4-1.4-.7-1-.6-.4-.2-1.6-.9c0,0-.3-.2-.3-.3l-1.5-.8-1.1-.6-.6-.4-1.8-1-1.1-.6-.6-.4-1.1-.6-1.2-.7-.6-.4-1.1-.6-1.8-1-.6-.4-1.4-.8-1.2-.6-.3-.3-1.5-.8-1.4-.8-.7-.4-1.3-.7-.6-.4c-.4-.3-.7-.5-1-1l-.4-.6-.4-.8c0-.3,0-.4-.2-.6V27c.3-.3.1-.7.5-1.3l.5-.6,1.1-1.1c.2-.2.7-.3.9-.4s.4-.3.6-.4l.8-.4,1.7-1,1-.6.5-.3,1.7-.9.3-.3,1.5-.8.7-.4c.4-.2.7-.4,1.1-.6l.8-.4c.4-.2.6-.4,1-.6l1.5-.9,1-.6,1.7-1,1.1-.6c.2-.2.4-.3.7-.5l1.1-.6,1.1-.6.6-.4,1-.5.5-.3,1.2-.6.4-.3,1.5-.8,1.5-.9,1-.6,1.5-.9,1-.6,1.2-.6.6-.4,1-.5.3-.3c.7-.2,1.2-.6,1.8-.9l1.1-.6,1.6-.9.6-.4,1.1-.5.4-.3.7-.2.7-.2h2.5s.8.2.8.2c.8.3,1.5.7,2.2,1.1l1.2.7.7.4,1.4.7,1.5.9.7.5c.4.3.8.5,1.2.7l.5.3,1.1.6,1.2.6.6.4,1.1.6c.3.1.5.3.7.4l1.2.7,1,.5.6.4,1,.5.6.4,1,.5.7.4,1.3.7,1,.6.5.3,1.6.9c0,0,.3.2.3.3l1.5.8,1.1.6.6.4,1.8,1,1.1.6.7.4,1.1.6,1.1.6.7.4,1.1.6,1.8,1,1,.6.7.4,1.5.8,1.1.7c.4.2.9.7,1.1,1.1l.3.6.5,1,.3.7v48.8s-.3.7-.3.7l-.5,1-1.6,1.6-.9.5c-.2.1-.3.3-.5.4l-1.2.6-1.2.7-.6.4-1.1.6-1.7,1-1,.6-.7.4-1.5.8-.6.4-1.3.7-.5.3-1.1.6-1.3.7-.6.4-1,.5-.6.4-1,.5-.6.4-1,.5-1.2.7-.7.4-1.1.6-1.2.7-.5.3-1.3.7-.5.4-1.1.5-.4.3-1.3.7-1.5.9-.7.5c-.4.2-.7.4-1.1.6l-1.4.8-.7.4-1.2.7-1,.5-.6.4-1.3.7-.6.4-2.1,1.1h-3.5s-.7-.3-.7-.3ZM97.4,73.6l-.2.7c-.1.4-.3.8-.5,1.2l-.2.7-.2.7-.5,1.6-.4.8-.2.8-.2.6-.2.7c-.2.7-.4.9-.6,1.5l-.2.8-.2.6-.2.8-.2.6-.5,1.1-.2.7-.2.7-.2.7c-.2.5-.4,1.1,0,1.6s.4.1.6.2h.3c0,.1.2,0,.2,0,.9,0,1.8-1,2.1-1.9l.3-.8.2-.6.2-.7.2-.7.5-1.2.2-.6.2-.8.2-.6.5-1.2.2-.7.2-.7.2-.7.3-.7.5-1.2.2-.6.2-.7.2-.6.5-1.3.2-.6.2-.7.2-.7.2-.6.5-1.3.2-.6.2-.7.2-.7.5-1.2.2-.7.2-.7.2-.7.3-.7.5-1.2.2-.6.2-.7.2-.6.5-1.3.2-.6.2-.7.2-.7.2-.5.4-1,.2-.6.2-.7.2-.7.2-.8c0-.2,0-.4.2-.5s.3-.1.5-.1h21s.6-.4.6-.4c.2-.1.6-.5.7-.7l.2-.7-.5-1.1-1.2-.6h-19.7c0-.3,0-.6.1-.9l.2-.7.2-.7.2-.6.5-1.2.2-.7.2-.7.2-.6.5-1.3.2-.6.2-.7v-2.7s-.3-.7-.3-.7c0-.2-.4-.6-.5-.8l-1.1-1.1c-.4-.4-1.3-.5-1.6-.8h-2.7c-.3.3-1.1.3-1.6.5l-2,1.1-.6.4-1.1.9-.9.9-.2.4c-.4.3-.7.8-1,1.2l-.5.7-.3.6c-.2.4-.3.8-.5,1.2l-.2.7-.2.7-.2.6-.5,1.2-.2.6-.2.8-.2.6-.2.7c-.1.3-.3.7-.4,1h-6.5c0-.3,0-.6.1-.9l.2-.6.3-.8.3-.9.2-.7.2-.7.5-1.2.2-.7.2-.6.2-.7.2-.7.3-.7.4-1.2.2-.7.2-.7.2-.7.2-.7.2-.7c.2-.4.4-.8.5-1.2l.2-.6.2-.7.2-.8.2-.6.2-.7.4-1.1.8-1.6.5-.7.4-.6,2.3-2.3c.4-.2.6-.4.9-.7l.6-.4,1-.5,1.1-.5.6-.2.8-.3c.4,0,.8,0,1.2-.2h3.1c.2,0,.7.2.9.3l1.5.8.6.4c.1,0,.3.4.4.5.4.5.9,1,1,1.7s.2.6.7.8.6.2.9,0h.4s1.5-1.6,1.5-1.6l.2-.7-.2-.5-.6-1.2-.4-.6-1.8-1.8-1.2-.6c-.6-.3-1.4-.7-1.8-.6s-.5,0-.7-.2h-3.1c-.4.4-1,0-1.4.4h-.6c0,0-.7.3-.7.3l-.6.2c-.4.1-.8.3-1.2.6-.5,0-1,.3-1.4.7-.4.2-.8.4-1.1.6l-.7.5c-.2.1-.4.3-.6.5l-.6.4-2.9,2.9-.8,1-.4.7-.4.6-1.5,3-.2.6-.2.7-.2.7-.2.6-.2.7-.5,1.2-.2.7-.2.6-.2.7-.2.7-.2.7-.3.8-.3.8-.2.6-.3.8-.2.6-.2.8-.2.6-.5,1.2-.2.7-.2.7-.2.7-.2.7-.2.7-.5,1.1h-21.3s-1.2.7-1.2.7l-.5,1c.1.1.2.4.2.7.1.2.5.5.6.7l.6.4h20.2c0,.3,0,.6-.1.8l-.3.7-.2.7-.2.8-.2.6-.2.7-.5,1.2-.2.7-.2.7-.2.6-.2.8-.2.7-.3.7-.3.8-.2.6-.2.7-.2.7-.2.6-.3.7-.5,1.3-.2.6-.2.7-.2.7-.2.7-.3.7-.5,1.2-.2.6-.2.8-.2.6-.2.7-.2.7c-.2.4-.4.8-.5,1.2l-.2.7-.2.6-.2.7c0,.1-.3.4-.2.6s.2.3.3.5c.4.5.9.6,1.5.3,1-.5,1.8-1.1,2-2.2l.2-.6.2-.7.4-.8.2-.7.2-.7.2-.7.2-.7.2-.6.3-.8.3-.7.2-.7.2-.7.2-.6.2-.7.2-.7c.2-.4.4-.8.5-1.2l.2-.7.2-.6.2-.7.2-.7.2-.6.4-1,.5-1.6.2-.7.2-.7.2-.7.5-1.2.2-.7.2-.7.2-.8.2-.6.2-.7c.1-.3.3-.7.5-1.1h6.3s0,.9,0,.9l-.3.8-.2.6-.2.7-.2.7-.5,1.2-.2.6-.2.8-.2.6-.5,1.3c0,.2-.2.6,0,.7l.7.7c.5,0,1.1.1,1.4-.2l1-.9c.4-.3.7-1.1.8-1.7l.2-.7.2-.6.2-.8.2-.6.5-1.2.2-.6.2-.7.2-.7c0-.2.3-.3.2-.8h7.5c.2.3,0,.6-.1.8l-.2.7-.2.8-.2.6-.4,1.2-.2.7-.3.7-.2.6-.2.7-.5,1.1-.2.7-.2.7-.2.6-.5,1.2-.2.6-.2.7-.2.7-.2.6-.5,1.3-.2.6-.2.8-.2.6-.3.7-.2.6-.2.5-.2.8-.2.6Z"/>
      <path class="st0" d="M96.8,133.4l.4.7.5.7.5.7.5.7.4.7.7.9c.1.2,0,.6,0,.9h-7s-.4-.6-.4-.6l-.5-.7-.5-.7-.4-.6-.5-.7-.7-.9-.4-.7c-.1-.2-.4-.4-.5-.6h-2.4s0,5.5,0,5.5h-6.4s0-21.3,0-21.3h12.5c.2.2.4.3.7.2.2,0,.4,0,.6.2l1.7.8c.5.2.9.4,1.2.8.5.2.9.5,1.1,1.1.5.4.9,1,1,1.6l.2.6c0,.2.2.5.3.7v4.1c-.2.2-.2.4-.3.7-.1.6-.7,1.8-1.2,2.1-.2.5-.5.9-1,1l-.5.5c-.3.1-.5.3-.7.4.3.3.4.4.5.7l.5.6ZM92.7,124.6l-.2-.8c-.2-.2-.5-.6-.7-.7l-1.1-.6h-1.2s-.3-.2-.3-.2h-2.6s0,5.7,0,5.7h2.6c.2-.2.5-.2.8-.2.6.1,1,0,1.4-.3,1.3-.7,1.5-1.4,1.4-2.9Z"/>
      <path class="st0" d="M39.5,134.5h-7.9s-.5,1.3-.5,1.3l-.4,1-.5,1.2c0,.2,0,.7-.4.7h-6.5c0-.4,0-.7.1-1.1l.2-.6.7-1.4.3-.8c.3-.4.4-.9.6-1.3l.8-1.8.8-1.8.6-1.3.3-.7.9-1.9.7-1.6.2-.7.6-1.2.2-.6.6-1.3.2-.5.8-1.8c.1-.3.2-.7.4-1h6.6s.7,1.5.7,1.5l.2.5.5,1.1c.2.3.3.7.4,1l.7,1.7.6,1.4.2.6.8,1.9.8,1.7.2.6.5,1.1.4,1,.7,1.7.9,1.9.8,1.9.3.7c.2.4.3.8.2,1.2h-6.8s-.3-.9-.3-.9l-.5-1.3-.5-1.2c0-.2-.2-.5-.4-.8ZM33.6,129.7h4s-.5-1.2-.5-1.2l-.4-1.1-.3-.8-.5-1.3c0-.2-.2-.6-.4-.7l-.3.6-.3.8-.3.7-.5,1.2-.5,1.2c0,.1-.1.4,0,.6Z"/>
      <path class="st0" d="M117.6,135.7c0-.2-.2-.9-.6-1.2h-7.9s-.5,1.1-.5,1.1l-.3.8-.3.7-.4.8c0,.2-.1.7-.4.7h-6.5c0-.4,0-.7.1-1.1l.2-.6.6-1.4.7-1.7.4-1,.5-1.1.2-.6.8-1.6.5-1.1.2-.6.8-1.8.2-.6.8-1.7.6-1.4.5-1.1.4-.9.2-.6.7-1.4c.1-.3.1-.8.4-1h6.3c.1,0,.4.3.4.5l.7,1.7.8,1.6c.2.5.3.9.6,1.4l.2.7.9,1.9.5,1.1.5,1.3.8,1.6.3.7.6,1.3c.2.4.3.9.6,1.3l.3.8.7,1.4.2.6.8,1.8c0,.2.1.5.3.7.2.4.4.7.2,1.1h-6.7s-.2-.5-.2-.5l-.3-.8-.3-.7-.4-.8ZM115.2,129.7l-.4-.8-.4-1.2-.3-.7-.2-.4-.5-1.3c-.1-.3,0-.6-.4-.7l-.2.6-.5,1.2-.3.8-.3.7-.5,1.2-.2.3c0,0,0,.2,0,.3h4.1Z"/>
      <polygon class="st0" points="166 130.4 156.8 130.4 156.8 133.6 167.5 133.6 167.5 138.6 150.4 138.6 150.4 117.3 167.3 117.3 167.3 122.3 156.8 122.3 156.8 125.3 165.9 125.3 166 130.4"/>
      <path class="st0" d="M145.5,124.7l-.3.7-.7,1.5-.5,1.1c0,.2-.1.4-.2.6l-.5,1.1c0,.2-.1.4-.2.6l-.6,1.3c-.2.4-.3.7-.5,1.1s-.2.6-.3.9l-.6,1.2c-.1.2-.1.4-.2.6l-.5,1.1-.2.5-.5,1c0,.2,0,.8-.4.8h-6.4s-.8-1.7-.8-1.7l-.6-1.3-.7-1.7-.5-1.1-.3-.7-.4-.8-.8-1.7-.2-.5-.4-.9-.6-1.4-.2-.7-.6-1.2c-.2-.4-.4-.8-.5-1.2l-.3-.8-.5-1.2-.5-1.1c-.2-.4-.4-.8-.5-1.3l-.3-.7c-.1-.3-.3-.6-.2-1.1h7s.3,1,.3,1l.7,1.5.5,1.3.5,1.2v.4c.3.4.5.7.6,1.2l.4.8.7,1.6.5,1.1.3.7.3.7.5,1.2.7-1.4.2-.6.5-1.2.6-1.3c0-.2.1-.4.2-.5l.5-.9v-.4c0,0,.6-1.2.6-1.2l.6-1.3.2-.5.5-1.2.7-1.6c.1-.3.1-.6.5-.6h6.3c.2.2,0,.5,0,.7l-.7,1.5-.4.9-.2.6-.5,1.2-.7,1.7-.3.8Z"/>
      <polygon class="st0" points="21.8 126.5 21.8 131.5 12.6 131.5 12.6 138.6 6.2 138.6 6.2 117.3 23.2 117.3 23.2 122.3 12.6 122.3 12.6 126.5 21.8 126.5"/>
      <polygon class="st0" points="71.1 138.6 64.5 138.6 64.5 122.6 58.1 122.5 58.1 117.3 77.3 117.3 77.3 122.5 71.1 122.6 71.1 138.6"/>
      <polygon class="st0" points="188 133.4 188 138.6 171.5 138.6 171.5 117.3 177.9 117.3 177.9 133.4 188 133.4"/>
      <path class="st0" d="M68.4,148.5v21.4s-2.7,0-2.7,0c0-.3-.2-.6-.5-.8s-.4-.5-.7-.8l-.7-.9c-.5-.6-1.1-1.5-1.4-1.8s-.4-.5-.6-.8l-.7-.8c-.1-.3-.2-.5-.4-.7s-.4-.5-.6-.8l-.7-.8c-.2-.3-.3-.5-.6-.7s-.3-.5-.6-.7l-.7-.8c-.2-.3-.3-.5-.6-.7s-.3-.5-.5-.7l-.9-1.1-.8-.9c-.3-.4-.6-.7-1-1.1s-.1-.6-.5-.6v15.6s-2.9,0-2.9,0v-21.4s2.6,0,2.6,0l.5.6.6.8c.2.3.4.6.6.8s.3.5.5.7l.7.8c.2.3.4.5.6.7l.5.7.8,1,.7.8c.2.3.3.5.6.7s.3.5.6.7l.7.8.6.8c.2.3.4.6.7.9s.3.4.5.7l.7.8c.2.3.4.5.6.7l.5.7.8,1,.7.8c0,.2,0,.3.3.5v-16.1s2.8,0,2.8,0Z"/>
      <path class="st0" d="M37.9,169.6l-.7.3-1.2.2h-5.1s-.9-.2-.9-.2l-.7-.2c-.9-.3-1.8-.7-2.6-1.3l-.8-.6c-.5-.4-.9-.8-1.3-1.3l-.6-.8c-.4-.6-.8-1.4-1-2.1s-.1-.4-.3-.6v-.6c-.5-.6,0-1.1-.4-1.7v-2.6c.4-.6,0-1.1.4-1.7v-.6c.4-.8.8-2,1.4-2.7l.6-.8c.4-.5.8-.9,1.3-1.3l.8-.6c.7-.6,1.7-1,2.6-1.3l.7-.2.9-.3h5.2c.4.4.9,0,1.4.4l.6.2,2.3,1.2.8.6,1.1,1v.4c.5.3.7.6.9,1.1l.4.7c0,.1.3.4.3.5l.2.7.2.7c0,.3.1.5.3.8v1.7c.3.6.3,1,.1,1.6v1.7c-.3.3-.3.5-.4.8l-.2.7-.2.7-.3.5-.8,1.2-.7,1c-.3.3-.7.7-1,1l-.8.6c-.7.5-1.6,1-2.5,1.3ZM35.9,167.3c.8-.3,1.5-.7,2.2-1.1l.6-.4c.6-.5,1.2-1,1.6-1.6l.4-.6c.2-.3.4-.7.5-1l.3-.7.2-.8.2-1.1c0-.5,0-1.2,0-1.6l-.2-1.2-.2-.7-.2-.7c-.1-.3-.3-.8-.5-1l-.4-.6c-.4-.6-1-1.2-1.6-1.6l-.6-.4-2.1-1.1-.8-.2h-3.1s-.9.2-.9.2l-1.3.5c-.1,0-.4.2-.5.2l-.6.4-2,2c-.4.4-1,1.9-1.2,2.7l-.2.8c-.1.9-.1,1.8,0,2.7l.2.8c0,.2.1.6.2.8l1,1.9,2,2.1.7.4.5.3c.4.1.9.3,1.3.5l.8.2h3.1s.8-.2.8-.2Z"/>
      <path class="st0" d="M144.3,165.7l.7.9.4.6.5.7.7.9c.2.3.5.6.3,1h-3s-.7-.7-.7-.7l-.5-.7c-.1-.2-.2-.5-.4-.6s-.3-.4-.5-.6l-.5-.7-.5-.7-.7-.9-.3-.6-.6-.7-.2-.3c0,0-.3,0-.4.2h-6.1s0,6.5,0,6.5h-3s0-21.4,0-21.4h10.9c.2.2.5.3.8.3l.8.2.7.2c.1,0,.4.2.6.3l.6.4c1,.9,2,1.8,2.4,3.1l.2.9v3.8c0,.2-.1.6-.2.8l-.8,1.6-.5.5c0,.4-.3.6-.7.7l-.6.6-1.4.7.4.8.5.6.7.9.5.7ZM143.4,156.6c.3-.5.4-.9,0-1.4,0-.7-.3-1.5-.8-2.1-.2-.4-.5-.8-1-1-.3-.4-.8-.6-1.3-.7l-.6-.2-.4-.2h-6.9s0,9.9,0,9.9h4.6s.3-.2.3-.2h2s.3-.2.3-.2l.6-.2c.5-.1.9-.3,1.3-.7.5-.1.8-.5,1-1,.5-.6.9-1.3.8-2.1Z"/>
      <path class="st0" d="M165,167.1c.8-.3,1.2-.7,1.8-.9v-7.3s2.8,0,2.8,0v8.8s-.5.5-.5.5l-.7.4c-.4.2-.9.5-1.3.6l-1,.4-.9.2-.9.3h-5.4s-.9-.3-.9-.3l-.8-.2-.8-.3c-.3-.1-.4-.2-.7-.3l-1-.6-.6-.4-1.6-1.6-.6-.8c-.5-.6-.8-1.4-1-2.1s0-.4-.3-.6v-.6c-.2-.3-.3-.5-.2-.9s-.1-.6-.2-.8c0-.9-.1-1.8,0-2.7s.2-.6.2-.9,0-.5.2-.7v-.7c0,0,.3-.6.3-.6.3-.7.6-1.5,1-2l.6-.8c.3-.5.8-.9,1.3-1.3l.9-.7c.7-.6,1.7-.9,2.6-1.3l.6-.2.9-.2h5.4s.9.2.9.2l.8.2c.4,0,.8.3,1.1.5l1,.5.6.4,1,.9v.7s-1.4,1.4-1.4,1.4c-.1.1-.5.1-.6,0l-.8-.8-.6-.4-2.2-1.1c-.2,0-.5,0-.7-.2h-3.4s-.7.3-.7.3l-.6.2c-.6.2-1.1.5-1.6.8l-.6.4-1.6,1.6c-.1.1-.3.5-.4.6l-.8,1.5c0,.2-.2.6-.2.8l-.2.8c-.1.9-.1,1.8,0,2.7l.2.8c0,.2.1.6.2.8l.8,1.5.4.6,1.6,1.6c.2.2.5.4.7.5l1.5.7.6.2.7.3h3.3c.3-.2.6-.2.9-.3l.7-.2Z"/>
      <polygon class="st0" points="190 160.2 179.3 160.2 179.2 167.4 191.6 167.4 191.6 169.9 176.2 169.9 176.2 148.5 191.2 148.5 191.2 151 179.2 151 179.2 157.7 190 157.7 190 160.2"/>
      <polygon class="st0" points="122.1 160.2 111.3 160.2 111.3 167.4 123.7 167.4 123.7 169.9 108.3 169.9 108.3 148.5 123.2 148.5 123.2 151 111.3 151 111.3 157.7 122.1 157.7 122.1 160.2"/>
      <path class="st0" d="M16.1,166.1c.9-.5,1.3-1.4,1.7-.9l1.4,1.3c0,.2,0,.6,0,.8-.3.3-.7.7-1,.9l-.7.4c-.6.4-1.3.8-2,1l-.9.3-.9.3h-5.2s-.9-.3-.9-.3l-.8-.2-.6-.2c-.4-.1-.8-.4-1.1-.6l-.7-.4-.6-.4-1.9-1.9-.4-.6-.6-1.2c-.2-.4-.4-.8-.5-1.2l-.2-.8c0-.3-.3-.5-.2-.9s-.1-.6-.2-.8v-2.6c.2-.3.2-.6.2-1-.1-.3.2-.6.2-.8l.2-.9.3-.8.8-1.6c0-.1.3-.5.4-.6l1.9-1.9.6-.4.7-.5.5-.3,1.2-.4.7-.3.9-.3h5.2s1,.3,1,.3l.7.2c.7.2,1.4.6,2.1,1l.5.4,1,.9v.7s-1.3,1.3-1.3,1.3c-.1.1-.4.2-.5.2s-.3-.2-.5-.3l-.7-.6c-.3-.3-.6-.5-1-.7l-1.7-.8c-.2,0-.6-.1-.8-.2h-3.1c-.2.1-.6.1-.8.2l-2.2,1.1-.6.4c-.5.4-1.7,1.7-2,2.2l-.7,1.4c0,.2-.2.6-.3.8l-.2.8c-.1.9,0,1.8,0,2.7l.2.9c0,.2.2.6.2.8l.8,1.5.4.6,1.6,1.7.6.4c.7.4,1.4.8,2.2,1.1s.6,0,.8.2h3.1s.8-.2.8-.2l1.9-.9.6-.4Z"/>
      <path class="st0" d="M90.1,165.9l.6-.5c.1-.1.3-.3.4-.3s.4.1.5.2l1.3,1.3v.7s-1,.9-1,.9l-.5.4c-.6.4-1.4.8-2.1,1l-.9.2-.9.3h-5.2c-.2-.1-.6-.2-.9-.3l-.7-.2-.7-.2c-.3,0-.8-.4-1.1-.5l-.7-.5-.6-.3-1.9-1.9c0-.2-.2-.4-.3-.6l-1-1.8c0-.2-.2-.4-.2-.5l-.2-1c0-.2-.2-.6-.2-.8.1-.4-.2-.6-.2-.8v-2.7c.3-.3,0-.7.4-1.8l.2-.8c0-.2.1-.4.2-.6l.9-1.7c0-.2.4-.4.4-.6l1.8-1.8c.3,0,.5-.2.7-.4l.6-.4.5-.3,1.2-.5.7-.3c.2,0,.6,0,.9-.3h5.3c.3.3.7.2,1,.2l.7.3,2.1,1c.1,0,.5.3.6.4l.9.8v.8s-1.3,1.3-1.3,1.3c-.6.6-.8-.4-1.6-.6-.3-.3-.6-.6-1-.7l-1.6-.8c-.2,0-.6,0-.8-.2h-3.1c-.2.2-.5.2-.7.2l-2.2,1.1-.6.4c-.6.4-1.2,1-1.6,1.6l-.4.6-.8,1.5c-.3.5-.1,1.3-.5,1.6v2.7c.3.4.2,1.1.5,1.6l.8,1.5c0,.2.3.5.4.6l1.6,1.7.6.3,2.2,1.1c.2,0,.6,0,.7.2h3.1s.8-.2.8-.2l2.1-1.1.6-.4Z"/>
      <polygon class="st0" points="101 169.9 98 169.9 98 148.5 101 148.5 101 169.9"/>
      <path class="st0" d="M98.5,49.8c-.2-.7,0-.9.3-1.4l.2-.7.2-.7.2-.6.5-1.2.2-.6.2-.7.2-.7.2-.6.6-1.3.4-.6c.3-.4.5-.7,1-1l.6-.4,1.2-.6h2.5c.7.3,1.5.8,1.5,1.6v2s-.4.9-.4.9l-.2.6-.2.7-.2.7-.2.6-.5,1.2-.2.7-.2.7-.2.7c0,.2-.2.6-.4.7h-7.2Z"/>
    </g>
  </g>
</svg>