<?xml version="1.0" encoding="UTF-8"?><svg id="uuid-371ad429-0986-4324-9af7-5d12fbdf113b" xmlns="http://www.w3.org/2000/svg" viewBox="0 0 297.8 170.1"><g id="uuid-c5819d03-bbc3-4c87-9a34-79a808357c5d"><g id="uuid-a73faccd-e77a-4f1c-a9ef-78dbebac9195"><path d="M6.5,146.7c1.1,0,2,.1,2.6.4s1.1.5,1.6.8c.3.1.5.3.6.3.2,0,.3.1.5.1.2,0,.4-.1.5-.4,0-.2.2-.6.2-1.1h.7c0,.4,0,.8,0,1.4,0,.5,0,1.2,0,2.1s0,2,0,3.3h-.7c0-1-.3-2.1-.7-3-.4-1-1-1.8-1.7-2.4s-1.7-.9-2.9-.9-2,.3-2.7,1c-.7.6-1.1,1.5-1.1,2.6s.2,1.7.7,2.3c.5.6,1.1,1.2,1.9,1.8.8.5,1.7,1.1,2.8,1.8,1.1.7,2,1.4,2.9,2,.8.7,1.5,1.4,2,2.2s.7,1.8.7,2.9-.3,2.5-1,3.4c-.6.9-1.5,1.6-2.6,2-1.1.4-2.3.7-3.6.7s-2.1-.1-2.8-.4-1.3-.5-1.8-.8c-.5-.3-.8-.4-1.1-.4s-.4.1-.5.4-.2.6-.2,1.1h-.7c0-.5,0-1,0-1.6,0-.6,0-1.5,0-2.5,0-1,0-2.3,0-3.9h.7c0,1.3.3,2.6.7,3.7.4,1.1,1,2.1,1.8,2.8.8.7,1.9,1,3.3,1s1.4-.1,2-.4,1.1-.7,1.5-1.3c.4-.6.6-1.4.6-2.3s-.2-1.6-.6-2.3-1-1.3-1.7-1.8c-.7-.6-1.6-1.1-2.6-1.7-1-.6-1.9-1.3-2.8-1.9s-1.6-1.4-2.1-2.2c-.5-.9-.8-1.9-.8-3s.3-2.4.9-3.2,1.4-1.4,2.4-1.9c1-.4,2-.6,3.1-.6Z" fill="#e5e1e6"/><path d="M27.9,146.6c2.1,0,3.9.5,5.5,1.4,1.6.9,2.8,2.2,3.7,3.9s1.3,3.8,1.3,6.2-.4,4.5-1.3,6.3c-.9,1.8-2.1,3.2-3.7,4.2-1.6,1-3.4,1.5-5.5,1.5s-3.9-.5-5.5-1.4-2.8-2.2-3.7-4-1.3-3.8-1.3-6.2.5-4.5,1.4-6.3c.9-1.8,2.1-3.2,3.7-4.2s3.4-1.5,5.5-1.5ZM27.8,147.2c-1.3,0-2.5.5-3.4,1.4-1,1-1.7,2.3-2.3,4-.5,1.7-.8,3.6-.8,5.8s.3,4.2.9,5.9c.6,1.7,1.4,3,2.4,3.9,1,.9,2.2,1.4,3.4,1.4s2.5-.5,3.4-1.4,1.7-2.3,2.3-4c.5-1.7.8-3.6.8-5.8s-.3-4.2-.9-5.9c-.6-1.7-1.4-2.9-2.4-3.8-1-.9-2.2-1.4-3.4-1.4Z" fill="#e5e1e6"/><path d="M60.8,147.1v.6c-.7,0-1.2.2-1.6.4-.4.2-.6.6-.7,1-.1.5-.2,1.2-.2,2v9.2c0,1.4,0,2.7-.3,3.9-.2,1.1-.5,2.1-1,2.9-.5.9-1.3,1.6-2.3,2.2-1,.5-2.3.8-3.7.8s-2-.1-3-.4-1.8-.7-2.5-1.3c-.6-.6-1.1-1.2-1.5-1.9-.4-.7-.6-1.5-.7-2.5-.1-1-.2-2.2-.2-3.6v-10c0-.8,0-1.4-.2-1.7-.1-.4-.4-.6-.7-.8s-.9-.2-1.6-.2v-.6c.5,0,1.1,0,1.9,0,.8,0,1.6,0,2.5,0s1.6,0,2.4,0c.8,0,1.5,0,2,0v.6c-.7,0-1.3.1-1.6.2-.4.1-.6.4-.8.8-.1.4-.2,1-.2,1.7v11c0,1.1,0,2.1.2,3,.1.9.3,1.7.7,2.4.3.7.8,1.2,1.5,1.6.6.4,1.5.6,2.5.6,1.6,0,2.8-.4,3.7-1.1.9-.7,1.5-1.7,1.8-2.9.4-1.2.5-2.7.5-4.3v-9.4c0-.9,0-1.6-.3-2.1-.2-.5-.5-.8-.9-1.1s-1-.4-1.8-.4v-.6c.4,0,.9,0,1.6,0,.6,0,1.2,0,1.8,0s1.1,0,1.6,0c.5,0,1,0,1.3,0Z" fill="#e5e1e6"/><path d="M81,147.1c0,.9-.1,1.8-.2,2.6s0,1.5,0,1.9,0,1,0,1.4c0,.4,0,.8,0,1.1h-.7c-.2-1.6-.5-2.8-.8-3.8-.4-.9-.9-1.6-1.5-2-.7-.4-1.6-.6-2.8-.6h-1.4v18.2c0,.9,0,1.5.2,1.9s.5.7,1,.8c.5.1,1.2.2,2.1.3v.6c-.6,0-1.4,0-2.3,0s-1.9,0-2.9,0-2,0-2.9,0c-.9,0-1.6,0-2.2,0v-.6c.9,0,1.6-.1,2.1-.3.5-.1.8-.4,1-.8.2-.4.3-1.1.3-1.9v-18.2h-1.4c-1.2,0-2.1.2-2.8.6-.7.4-1.2,1.1-1.5,2-.3.9-.6,2.2-.8,3.8h-.7c0-.3,0-.7,0-1.1,0-.4,0-.9,0-1.4s0-1.1,0-1.9c0-.8,0-1.7-.2-2.6.9,0,1.9,0,3,0,1.1,0,2.2,0,3.3,0h6c1.1,0,2.2,0,3.3,0,1.1,0,2.1,0,3,0Z" fill="#e5e1e6"/><path d="M83.1,169.6v-.6c.7,0,1.3-.1,1.6-.3.4-.1.6-.4.7-.8.1-.4.2-1,.2-1.7v-15.8c0-.8,0-1.4-.2-1.7-.1-.4-.4-.6-.7-.8-.4-.1-.9-.2-1.6-.2v-.6c.5,0,1.1,0,1.9,0,.8,0,1.6,0,2.5,0s1.6,0,2.4,0c.8,0,1.4,0,1.9,0v.6c-.7,0-1.2.1-1.6.2s-.6.4-.7.8c-.1.4-.2,1-.2,1.7v15.8c0,.8,0,1.3.2,1.7.1.4.4.6.7.8.4.1.9.2,1.6.3v.6c-.5,0-1.2,0-1.9,0s-1.6,0-2.4,0-1.7,0-2.5,0-1.4,0-1.9,0ZM87.9,158.6v-.6h12.6v.6h-12.6ZM96.5,169.6v-.6c.7,0,1.3-.1,1.6-.3.4-.1.6-.4.7-.8.1-.4.2-1,.2-1.7v-15.8c0-.8,0-1.4-.2-1.7-.1-.4-.4-.6-.7-.8s-.9-.2-1.6-.2v-.6c.5,0,1.2,0,2,0,.8,0,1.6,0,2.4,0s1.7,0,2.5,0c.8,0,1.4,0,1.8,0v.6c-.7,0-1.2.1-1.6.2-.4.1-.6.4-.7.8-.1.4-.2,1-.2,1.7v15.8c0,.8,0,1.3.2,1.7.1.4.4.6.7.8.4.1.9.2,1.6.3v.6c-.5,0-1.1,0-1.8,0s-1.6,0-2.5,0-1.6,0-2.4,0c-.8,0-1.5,0-2,0Z" fill="#e5e1e6"/><path d="M124,147.1c0,.8-.1,1.6-.2,2.3s0,1.3,0,1.7,0,.8,0,1.1,0,.7,0,.9h-.7c-.1-1.4-.4-2.4-.7-3.2-.3-.8-.8-1.3-1.4-1.7s-1.5-.5-2.5-.5h-2.2c-.7,0-1.2,0-1.5.2-.3.1-.6.4-.7.7-.1.4-.2.9-.2,1.6v16.1c0,.7,0,1.3.2,1.6.1.4.4.6.7.7.4.1.9.2,1.5.2h2.1c1.2,0,2.2-.2,2.9-.6.7-.4,1.3-1,1.6-1.9.4-.9.7-2.1.8-3.6h.7c0,.6,0,1.4,0,2.4s0,1,0,1.8c0,.8,0,1.6.2,2.5-1.1,0-2.3,0-3.7,0s-2.6,0-3.6,0h-1.9c-.8,0-1.6,0-2.5,0-.9,0-1.8,0-2.7,0-.9,0-1.8,0-2.6,0v-.6c.7,0,1.3-.1,1.6-.3.4-.1.6-.4.7-.8.1-.4.2-1,.2-1.7v-15.8c0-.8,0-1.4-.2-1.7-.1-.4-.4-.6-.7-.8-.4-.1-.9-.2-1.6-.2v-.6c.8,0,1.7,0,2.6,0,.9,0,1.8,0,2.7,0,.9,0,1.7,0,2.5,0h1.9c1,0,2.1,0,3.3,0,1.2,0,2.4,0,3.3,0ZM118.7,158v.6h-5.8v-.6h5.8ZM119.7,153.7c0,1.2-.1,2.1-.1,2.8,0,.6,0,1.2,0,1.8s0,1.1,0,1.8c0,.6,0,1.6.2,2.8h-.7c-.1-.7-.2-1.4-.4-2-.2-.6-.5-1.2-.9-1.6s-1.1-.6-2-.6v-.6c.7,0,1.2-.1,1.6-.4.4-.3.7-.6.9-1.1.2-.4.4-.9.5-1.4,0-.5.2-.9.3-1.3h.7Z" fill="#e5e1e6"/><path d="M127.4,147.1c.5,0,1.1,0,1.9,0,.8,0,1.5,0,2.3,0s2,0,2.9,0c.9,0,1.6,0,2,0,1.8,0,3.3.2,4.5.7,1.2.5,2.1,1.1,2.7,2s.9,1.8.9,2.9-.1,1.4-.4,2.1c-.3.7-.7,1.4-1.4,2-.7.6-1.6,1.1-2.7,1.5-1.1.4-2.6.6-4.3.6h-3.1v-.6h2.7c1.4,0,2.5-.2,3.3-.7.8-.5,1.3-1.1,1.5-1.9.3-.8.4-1.7.4-2.7,0-1.7-.4-3-1.1-3.9-.7-.9-2-1.4-3.8-1.4s-1.5.2-1.8.5c-.3.4-.4,1.1-.4,2.2v15.8c0,.8,0,1.3.2,1.7.1.4.4.6.7.8.4.1.9.2,1.6.3v.6c-.5,0-1.2,0-1.9,0s-1.6,0-2.4,0-1.7,0-2.5,0-1.4,0-1.9,0v-.6c.7,0,1.3-.1,1.6-.3.4-.1.6-.4.7-.8.1-.4.2-1,.2-1.7v-15.8c0-.8,0-1.4-.2-1.7-.1-.4-.4-.6-.7-.8-.4-.1-.9-.2-1.6-.2v-.6ZM132.8,158.4c1.1,0,2,0,2.6.1.7,0,1.2.1,1.7.1.4,0,.9,0,1.2.2,1.6.2,2.8.6,3.5,1.3.7.6,1.2,1.6,1.5,2.9l.8,3.3c.2.9.4,1.6.6,1.9.2.4.6.6,1,.6.3,0,.6-.1.8-.3.2-.2.5-.4.7-.7l.4.4c-.5.7-1,1.2-1.5,1.5s-1.2.5-2.1.5-1.7-.2-2.3-.7c-.6-.5-1.1-1.4-1.4-2.7l-.6-3.2c-.2-.9-.4-1.7-.6-2.4-.2-.7-.6-1.2-1-1.6-.4-.4-1-.6-1.8-.6h-3.4v-.5Z" fill="#e5e1e6"/><path d="M168.9,147.1v.6c-.7,0-1.3.2-1.6.4-.4.2-.6.6-.7,1-.1.5-.2,1.2-.2,2v18.6h-1.1l-13.5-19.6v15.3c0,.9,0,1.6.2,2.1.1.5.4.9.8,1.1.4.2,1.1.4,1.9.4v.6c-.4,0-.9,0-1.5,0-.6,0-1.2,0-1.8,0s-1.1,0-1.6,0c-.5,0-1,0-1.3,0v-.6c.7,0,1.2-.2,1.6-.4.4-.2.6-.5.7-1,.1-.5.2-1.2.2-2v-15.1c0-.8,0-1.4-.2-1.7-.1-.4-.4-.6-.7-.8s-.9-.2-1.6-.2v-.6c.3,0,.8,0,1.3,0,.5,0,1.1,0,1.6,0s.9,0,1.4,0c.4,0,.8,0,1.2,0l11.6,16.6v-12.4c0-.9,0-1.6-.2-2.1-.1-.5-.4-.8-.8-1.1s-1.1-.4-1.9-.4v-.6c.4,0,.9,0,1.5,0,.6,0,1.2,0,1.8,0s1.1,0,1.6,0c.5,0,1,0,1.3,0Z" fill="#e5e1e6"/><path d="M195.4,147.1v.6c-.4.1-.9.4-1.4.9-.5.5-.9,1.2-1.3,2.3l-7.2,18.9h-1.1l-7.9-20c-.3-.8-.7-1.3-1.1-1.6-.4-.3-.7-.4-1.1-.4v-.6c.5,0,1.1,0,1.8,0,.7,0,1.4,0,2.1,0s1.7,0,2.5,0c.8,0,1.4,0,1.9,0v.6c-.7,0-1.2.1-1.6.3-.4.1-.6.4-.6.8,0,.4,0,.9.4,1.6l5.9,15.4-.6.6,5.2-13.6c.5-1.3.7-2.3.7-3s-.2-1.3-.7-1.6c-.5-.3-1.1-.5-2-.5v-.6c.7,0,1.3,0,1.9,0,.6,0,1.2,0,1.8,0s1,0,1.4,0c.4,0,.7,0,1.1,0Z" fill="#e5e1e6"/><path d="M205.1,147.1v.6c-.7,0-1.2.1-1.6.2s-.6.4-.7.8c-.1.4-.2,1-.2,1.7v15.8c0,.8,0,1.3.2,1.7.1.4.4.6.7.8.4.1.9.2,1.6.3v.6c-.5,0-1.2,0-1.9,0s-1.6,0-2.4,0-1.7,0-2.5,0-1.4,0-1.9,0v-.6c.7,0,1.3-.1,1.6-.3.4-.1.6-.4.7-.8.1-.4.2-1,.2-1.7v-15.8c0-.8,0-1.4-.2-1.7-.1-.4-.4-.6-.7-.8-.4-.1-.9-.2-1.6-.2v-.6c.5,0,1.1,0,1.9,0,.8,0,1.6,0,2.5,0s1.6,0,2.4,0c.8,0,1.4,0,1.9,0Z" fill="#e5e1e6"/><path d="M214.8,146.7c1.1,0,2,.1,2.6.4s1.1.5,1.6.8c.3.1.5.3.6.3.2,0,.3.1.5.1.2,0,.4-.1.5-.4,0-.2.2-.6.2-1.1h.7c0,.4,0,.8,0,1.4,0,.5,0,1.2,0,2.1s0,2,0,3.3h-.7c0-1-.3-2.1-.7-3-.4-1-1-1.8-1.7-2.4s-1.7-.9-2.9-.9-2,.3-2.7,1c-.7.6-1.1,1.5-1.1,2.6s.2,1.7.7,2.3c.5.6,1.1,1.2,1.9,1.8.8.5,1.7,1.1,2.8,1.8,1.1.7,2,1.4,2.9,2,.8.7,1.5,1.4,2,2.2s.7,1.8.7,2.9-.3,2.5-1,3.4c-.6.9-1.5,1.6-2.6,2-1.1.4-2.3.7-3.6.7s-2.1-.1-2.8-.4-1.3-.5-1.8-.8c-.5-.3-.8-.4-1.1-.4s-.4.1-.5.4-.2.6-.2,1.1h-.7c0-.5,0-1,0-1.6,0-.6,0-1.5,0-2.5,0-1,0-2.3,0-3.9h.7c0,1.3.3,2.6.7,3.7.4,1.1,1,2.1,1.8,2.8.8.7,1.9,1,3.3,1s1.4-.1,2-.4,1.1-.7,1.5-1.3c.4-.6.6-1.4.6-2.3s-.2-1.6-.6-2.3-1-1.3-1.7-1.8c-.7-.6-1.6-1.1-2.6-1.7-1-.6-1.9-1.3-2.8-1.9s-1.6-1.4-2.1-2.2c-.5-.9-.8-1.9-.8-3s.3-2.4.9-3.2,1.4-1.4,2.4-1.9c1-.4,2-.6,3.1-.6Z" fill="#e5e1e6"/><path d="M234,147.1v.6c-.7,0-1.2.1-1.6.2s-.6.4-.7.8c-.1.4-.2,1-.2,1.7v15.8c0,.8,0,1.3.2,1.7.1.4.4.6.7.8.4.1.9.2,1.6.3v.6c-.5,0-1.2,0-1.9,0s-1.6,0-2.4,0-1.7,0-2.5,0-1.4,0-1.9,0v-.6c.7,0,1.3-.1,1.6-.3.4-.1.6-.4.7-.8.1-.4.2-1,.2-1.7v-15.8c0-.8,0-1.4-.2-1.7-.1-.4-.4-.6-.7-.8-.4-.1-.9-.2-1.6-.2v-.6c.5,0,1.1,0,1.9,0,.8,0,1.6,0,2.5,0s1.6,0,2.4,0c.8,0,1.4,0,1.9,0Z" fill="#e5e1e6"/><path d="M247.1,146.6c2.1,0,3.9.5,5.5,1.4,1.6.9,2.8,2.2,3.7,3.9s1.3,3.8,1.3,6.2-.4,4.5-1.3,6.3c-.9,1.8-2.1,3.2-3.7,4.2-1.6,1-3.4,1.5-5.5,1.5s-3.9-.5-5.5-1.4-2.8-2.2-3.7-4-1.3-3.8-1.3-6.2.5-4.5,1.4-6.3c.9-1.8,2.1-3.2,3.7-4.2s3.4-1.5,5.5-1.5ZM247,147.2c-1.3,0-2.5.5-3.4,1.4-1,1-1.7,2.3-2.3,4-.5,1.7-.8,3.6-.8,5.8s.3,4.2.9,5.9c.6,1.7,1.4,3,2.4,3.9,1,.9,2.2,1.4,3.4,1.4s2.5-.5,3.4-1.4,1.7-2.3,2.3-4c.5-1.7.8-3.6.8-5.8s-.3-4.2-.9-5.9c-.6-1.7-1.4-2.9-2.4-3.8-1-.9-2.2-1.4-3.4-1.4Z" fill="#e5e1e6"/><path d="M280.5,147.1v.6c-.7,0-1.3.2-1.6.4-.4.2-.6.6-.7,1-.1.5-.2,1.2-.2,2v18.6h-1.1l-13.5-19.6v15.3c0,.9,0,1.6.2,2.1.1.5.4.9.8,1.1.4.2,1.1.4,1.9.4v.6c-.4,0-.9,0-1.5,0-.6,0-1.2,0-1.8,0s-1.1,0-1.6,0c-.5,0-1,0-1.3,0v-.6c.7,0,1.2-.2,1.6-.4.4-.2.6-.5.7-1,.1-.5.2-1.2.2-2v-15.1c0-.8,0-1.4-.2-1.7-.1-.4-.4-.6-.7-.8s-.9-.2-1.6-.2v-.6c.3,0,.8,0,1.3,0,.5,0,1.1,0,1.6,0s.9,0,1.4,0c.4,0,.8,0,1.2,0l11.6,16.6v-12.4c0-.9,0-1.6-.2-2.1-.1-.5-.4-.8-.8-1.1s-1.1-.4-1.9-.4v-.6c.4,0,.9,0,1.5,0,.6,0,1.2,0,1.8,0s1.1,0,1.6,0c.5,0,1,0,1.3,0Z" fill="#e5e1e6"/><path d="M290,146.7c1.1,0,2,.1,2.6.4s1.1.5,1.6.8c.3.1.5.3.6.3.2,0,.3.1.5.1.2,0,.4-.1.5-.4,0-.2.2-.6.2-1.1h.7c0,.4,0,.8,0,1.4,0,.5,0,1.2,0,2.1s0,2,0,3.3h-.7c0-1-.3-2.1-.7-3-.4-1-1-1.8-1.7-2.4s-1.7-.9-2.9-.9-2,.3-2.7,1c-.7.6-1.1,1.5-1.1,2.6s.2,1.7.7,2.3c.5.6,1.1,1.2,1.9,1.8.8.5,1.7,1.1,2.8,1.8,1.1.7,2,1.4,2.9,2,.8.7,1.5,1.4,2,2.2s.7,1.8.7,2.9-.3,2.5-1,3.4c-.6.9-1.5,1.6-2.6,2-1.1.4-2.3.7-3.6.7s-2.1-.1-2.8-.4-1.3-.5-1.8-.8c-.5-.3-.8-.4-1.1-.4s-.4.1-.5.4-.2.6-.2,1.1h-.7c0-.5,0-1,0-1.6,0-.6,0-1.5,0-2.5,0-1,0-2.3,0-3.9h.7c0,1.3.3,2.6.7,3.7.4,1.1,1,2.1,1.8,2.8.8.7,1.9,1,3.3,1s1.4-.1,2-.4,1.1-.7,1.5-1.3c.4-.6.6-1.4.6-2.3s-.2-1.6-.6-2.3-1-1.3-1.7-1.8c-.7-.6-1.6-1.1-2.6-1.7-1-.6-1.9-1.3-2.8-1.9s-1.6-1.4-2.1-2.2c-.5-.9-.8-1.9-.8-3s.3-2.4.9-3.2,1.4-1.4,2.4-1.9c1-.4,2-.6,3.1-.6Z" fill="#e5e1e6"/><path d="M180.5,93.9c2-1.3,5.7-1.7,7.9-1.7s.8,0,1.1,0c9.9.8,19.3,2.7,20.3,3.7s.4.5.4.8-.3.9-.6,1.2c-.3.2-.6.5-1,.8-2.3,2-18.1,5.3-21.4,4.4-2.4-.6-6.5-5.3-7-8-.1-.6,0-1.1.3-1.3M157.3,59.7c6.2,2.8,9.8,13.5,12.4,21.3.8,2.5,1.6,4.7,2.3,6.3,1.6,3.5,1.2,7.1-1.2,11.1-.1.2-.7.9-3.6,1.5-10.7,2-56.8-9.7-59-16.2-2.2-6.5-1.6-23.2-.1-24.5,2.2-2,41.1-3.1,49.3.6M185.8,84.1c0,.1-1.5,3.5-5.2,2.2-3.6-1.3-10.7-20.3-14.1-33,0-.2-1.5-3.9,3.7-6,6.1-2.5,17.4-4.9,22.3-2.1,4.6,2.7-1.8,27-6.7,38.8M124.1,21.4c3.3-4.5,12.6-5.3,22.4-5.3s4.8.1,7,.4c2.8.3,4.8,9.5,5.7,13.4.3,1.2.5,2.1.6,2.6.3.9.7,2,1.2,3.1,1,2.4,2.2,5.5,1.9,6.8,0,.3-.1.5-.2.9-.4,2.1-1,5.3-3.4,8-1.9,2.1-30.4,2.2-44.9-.4-5.2-.9-5.8-1.8-5.8-2-.9-2.2,2.6-7.4,6-13,3.1-5.1,4.8-7.4,7.6-11.7l1.8-2.9ZM158.1,108.5c.2-.3,1.1-1.2,6-2.3,7.2-1.6,17-2.1,18.2-1.3.5.3.6.6.6.7,0,0,1.2.9,0,1.8-2.5,1.7-5.8,3.7-8.7,6.3-3.5,3.3-7,5.5-8.8,5-4.1-1.1-6.9-3.3-7.9-4.2-1.4-1.2-1.2-3.3.5-6.1M194.5,82.3c-.5-11,5.9-37.3,8.3-39.1,1.7-1.3,5.7-2,9.3-2s5.4.4,6.6,1.2c2.2,1.5,5.3,13.6,5.3,18.9,0,2.9-1.2,7.6-1.3,8.2-1.6,6.2-7.4,17.9-9.8,20.1-2.1,2-15.3-2-17.1-3.2-.4-.2-1-1.1-1.1-4.1M100.5,73.2c-.4,1-1.6,1.8-3.4,2.3-1.6.4-3.2.2-3.9.2-4.7,0-10.8-18.2-8.4-23.4.5-1.2,10.9.9,14.9,2.3,2.2.8,1.9,15.7.8,18.6M97.4,106.2c-1.8-1.3-4.3-21.4-3.6-24.7.6-2.6,4.9-2.5,6.9-2.4h.3c3.3,2.4,1.9,15.1-.7,22.3-1.3,3.7-2.5,4.7-3,4.7M236,25.8l-.4-1.2c0-.2-.2-.3-.4-.4l-3.4-1.2c-.1,0-.3,0-.4,0l-.9.3c-.1,0-.2.1-.3.2-6,8.7-8.4,11.5-12.2,12.6-3.9,1.1-44.9,3.3-48.7,2.5-3.3-.7-6.3-18.1-7.4-25,0,0-.1-1.3.3-3.3s4.7-8.2,3.4-9.1c-2-1.4-3.5-2-4.5,0,0,.1-.4,1.5-1.8,3.9-1,1.7-4.3,3.7-4.3,3.7-4.1,1.3-10.9,2-14.7,2.3-11.3.9-15,3.8-23,6.5s-6,1.2-11.5,2.6c-4.1,1.1-4.3.7-7.8,2.9,0,0-2.3,1.5,1.9,5s3.3-.7,6.1-2.5,13.3-4.6,7.3,4c-5.1,7.2-10.2,16.7-13.1,18.5h0c-7.3-1.5-16.1-2.8-36.1-1.8-.1,0-.2,0-.3.1l-.7.5c0,0-.2.2-.2.3l-1.2,2.1c0,.2,0,.4,0,.5l.7,1c.1.2.3.2.5.2.9,0,1.8,0,2.7,0,3.1-.1,6.3-.3,10.2,1.1,4.8,1.7,17.1,55.6,16.6,59.4-.3,2.8,1.2,5,2.8,5.6.8.3,1.6.2,2.1-.4,3-3.8,5.5-10.1,7.5-15.2,1.4-3.5,2.6-6.4,3.4-7.3,2.3-1.5,35.8,11.3,41.9,15.3,1.6,1.1,2.5,2.2,2.7,3.4.2,1.4-.7,2.5-.7,2.5h0c-8.1,2.1-13.4.8-18.8,1.4-2.4.3-4.9.5-7.9,1.2-.2,0-.3.1-.4.3,0,0-.6,3.9,1.9,6.6,1.3,1.3,6.2-.5,7.7-.9,4.4-1.1,11.9-5.4,18.3-2.9,2.2.9,3.2,1.1,8.8,3.2l4.1,1.1s4.2,1,5.6-1.3c1.7-2.8,13.1-11.4,25.3-16.3.7-.3,11.3,3.5,16.7,9.8,1.1,1.3,4.8-1.2,4.6-1.8-.7-2.3-4.5-3.4-7.6-5.7-5.1-3.7-7.2-4.3-6.4-4.5,1.9-.4,4.4-.4,6.6-1.2s1.8-.9,3.1-2.7,13.6-29.1,14.9-32.7c2-9.7-.3-18.8-3-24-.8-1.5-1.6-3-2.2-4.4.9-3.2,2.6-4.6,4.9-6.5,2.1-1.7,4.7-3.9,7.6-8,.1-.1.1-.3,0-.5" fill="#e5e1e6"/></g></g></svg>