<?xml version="1.0" encoding="UTF-8"?>
<svg id="uuid-58e95818-d1c5-4ba2-807a-4644b109f0e9" xmlns="http://www.w3.org/2000/svg" version="1.1" viewBox="0 0 750 162.5">
  <!-- Generator: Adobe Illustrator 30.2.1, SVG Export Plug-In . SVG Version: 2.1.1 Build 1)  -->
  <defs>
    <style>
      .st0 {
        fill: #e5e1e6;
      }
    </style>
  </defs>
  <g>
    <g>
      <path class="st0" d="M113.602,55.024c-.245-2.137-1.326-4.437-3.159-5.486l-44.765-25.637c-2.749-1.975-6.138-1.984-8.917.004L12.173,49.459c-1.848,1.059-3.38,3.565-3.379,5.712l.005,52.709c0,1.876,1.577,4.117,3.047,5.236l46.447,26.603c1.815.71,4.292.882,6.369-.306l46.034-26.336c1.531-1.295,2.543-3.077,2.915-5.078l-.009-52.975ZM99.289,83.698l-24.043.068-14.561,40.89c-.296.831-1.494,1.723-1.853,2.154-.446.535-3.371-.618-3.052-1.529l14.368-41.051c-2.36-.524-5.296-.597-7.419-.322l-3.365,9.075c-.503,1.358-3.252,2.288-4.77,1.312l2.957-10.492-6.409.137-10.363,29.53c-.23.655-1.369,1.645-1.859,2.065-.49.421-2.732-.539-3.069-1.33l10.346-30.246-21.941-.291c-.857-.011-2.649-1.24-2.795-2.076-.146-.835,1.206-2.487,2.225-2.492l24.264-.114,7.939-22.119c2.671-7.443,10.187-12.53,17.728-13.614,4.519-.649,9.171,1.517,10.758,5.179.392.904.106,3.035-.291,3.734-.476.839-3.09,1.214-3.658.328-1.455-2.29-4.56-5.318-8.357-4.474-5.161,1.147-9.919,4.497-11.741,9.695l-7.101,20.257c11.504,7.046,4.25-14.851,20.747-16.046,1.522-.11,4.217.81,5.097,1.8.881.99,1.594,4.065,1.147,5.462l-3.129,9.767,21.917.127c.842.005,2.355.99,2.519,1.747.205.945-1.29,2.866-2.236,2.869Z"/>
      <path class="st0" d="M68.33,68.947c-1.481,3.117-2.545,6.11-3.72,9.558,1.761.613,6.38,1.191,7.318-.297,1.778-2.822,3.282-7.047,2.984-9.583-.378-3.219-5.559-1.831-6.582.323Z"/>
    </g>
    <path class="st0" d="M71.929,78.207c-.937,1.488-5.557.911-7.318.297,1.174-3.448,2.239-6.441,3.72-9.558,1.023-2.154,6.204-3.542,6.582-.323.298,2.536-1.206,6.761-2.984,9.583Z"/>
  </g>
  <g>
    <path class="st0" d="M280.266,97.341l-5.223-7.613c-.721-1.05-4.809-1.202-5.147-.051l-.406,7.652-8.976.004-.023-32.048,16.977.117c5.568.038,10.372,3.89,11.493,8.31,1.426,5.623-.535,10.728-5.578,13.686l6.395,9.846-9.511.096ZM278.716,80.551c2.086-1.301,1.809-5.966-.136-6.933-2.808-1.397-5.924-1.305-8.939-.945l.151,9.193c3.3.132,6.358.285,8.924-1.316Z"/>
    <path class="st0" d="M391.244,84.476l-14.077.174.003,5.662,16.487.169-.026,6.911-25.636-.004-.012-32.047,25.081-.041-.025,6.894-15.348.071c-.531.763-.659,3.464-.432,5.138l13.847.252.138,6.821Z"/>
    <path class="st0" d="M317.926,91.637l-13.481-.149-2.538,5.833-9.271-.091,13.805-31.655c2.905-.259,6.235-.255,9.366.005l13.866,31.636-9.379.227-2.368-5.807ZM315.079,84.434l-4.022-9.39-4.006,9.353,8.027.037Z"/>
    <path class="st0" d="M198.599,91.594l-13.255-.098-2.763,5.891-9.136-.155,13.815-31.686,9.203-.26,13.99,31.798-9.162.404-2.692-5.894ZM195.873,84.336l-4.027-9.404-3.895,9.484,7.923-.08Z"/>
    <path class="st0" d="M355.503,65.739c2.716-.515,5.951-.481,9.007-.144l-13.383,31.652-9.157.118-13.48-31.839,9.806-.032,8.532,20.33,8.675-20.085Z"/>
    <path class="st0" d="M170.207,79.51l-.042,6.905-14.075.083-.091,10.852-9.018-.049.016-31.96,24.474-.071c.678,1.757.698,4.513.403,6.926l-15.8.078.137,7.103,13.994.134Z"/>
    <polygon class="st0" points="245.886 97.319 236.753 97.329 236.715 72.666 227.029 72.274 227.092 65.315 255.376 65.276 255.728 72.304 245.936 72.573 245.886 97.319"/>
    <polygon class="st0" points="425.114 90.252 425.01 97.404 400.737 97.382 400.747 65.425 409.915 65.415 409.926 90.086 425.114 90.252"/>
    <path class="st0" d="M548.495,94.536c0,1.013-.395,2.334-.654,2.835-.254.492-2.346-.183-2.79-.734l-19.384-24.11c-1.667,5.996.872,22.199-1.514,24.935-.408.468-2.443-.695-2.442-1.589l.032-30.271c1.063-.143,3.028-.036,3.527.593l19.51,24.571.35-24.623c.014-.997,2.775-.801,3.365-.049l-.003,28.442Z"/>
    <path class="st0" d="M663.543,95.591l-5.724-8.291-11.131-.142-.151,7.532c-.015.73-.508,2.208-.724,2.677-.294.636-2.642-.236-2.641-1.242l.044-30.705,14.719.025c5.486.009,9.52,4.408,10.163,8.882.785,5.457-1.543,9.864-6.911,12.253l6.971,10.133c-1.261,1.207-3.537.439-4.615-1.122ZM658.227,83.927c4.943-.546,6.834-4.877,6.474-8.689-.815-8.624-11.419-7.151-18.131-7.083l.063,16.191c4.245-.005,7.695.012,11.594-.419Z"/>
    <path class="st0" d="M493.229,97.516c-9.665-1.069-15.254-8.793-14.712-17.396.553-8.778,7.678-15.089,16.854-15.09,9.854-.001,17.042,7.436,16.755,16.852-.292,9.559-8.376,16.797-18.897,15.634ZM491.961,68.4c-7.99,1.886-11.557,9.905-9.435,17.041,2.022,6.8,9.116,10.521,16.056,8.894,7.32-1.716,11.301-8.932,9.689-16.19-1.562-7.035-8.455-11.599-16.31-9.745Z"/>
    <path class="st0" d="M700.194,92.418l.142-8.371c.011-.661.524-2.157.717-2.665s2.492.497,2.484,1.033l-.174,11.598c-6.338,4.51-14.573,4.868-21.044.941-4.823-2.927-7.159-8.041-7.297-13.182-.14-5.191,1.958-10.349,6.556-13.564,9.801-6.852,23.48-.841,21.47,2.488-.338.56-2.019.59-2.58.155-5.918-4.582-14.711-3.672-19.275,2.241-4.302,5.573-3.705,14.236,2.434,18.843,4.851,3.64,11.198,3.557,16.568.483Z"/>
    <path class="st0" d="M733.904,82.576l-15.588.107.039,11.827,17.235.079c.536.002,1.656.475,1.998.602s-.548,2.168-.913,2.168l-21.742.021-.032-32.025,19.902-.09c.424-.002,1.692.571,2.004.729.478.243-.684,2.037-1.458,2.04l-16.974.048-.101,11.587,15.81.204c.755.01.602,2.699-.181,2.704Z"/>
    <path class="st0" d="M629.665,82.561l-15.407.13-.089,11.816,17.862.069c.345.067,1.258.418,1.237.757l-.125,2.043-22.391.034.006-32.087,20.227-.042c.346,0,1.475.496,1.8.65.482.23-.633,2.098-1.236,2.099l-17.251.045-.191,11.586,14.462.171c.49.006,1.764.49,2.174.668.398.173-.595,2.058-1.078,2.062Z"/>
    <path class="st0" d="M563.843,89.53c6.362,8.287,14.604,4.787,20.642,1.752.416-.209,1.446,1.992.893,2.513-4.305,4.048-15.321,5.548-21.485.496-8.149-6.677-8.48-19.135-.1-25.722,10.37-8.15,26.627.273,20.52,3.025-.477.215-1.225-.385-1.959-.953-5.422-4.197-13.095-3.343-17.719,1.553-4.361,4.618-4.738,12.196-.793,17.335Z"/>
    <path class="st0" d="M450.702,89.545c6.675,8.68,15.256,4.312,20.625,1.735.432-.208,1.47,1.998.886,2.552-4.017,3.815-14.859,5.47-20.982.841-8.414-6.362-9.174-18.835-1.026-25.749,10.183-8.642,23.808-.338,22.476,1.1l-1.575,1.701c-.356.385-1.181-.515-1.901-1.078-5.385-4.213-13.113-3.33-17.718,1.541-4.374,4.626-4.747,12.206-.784,17.359Z"/>
    <path class="st0" d="M598.673,96.415c0,.959-3.371,1.146-3.37.294l.009-30.647c0-.908,3.352-.742,3.352.403l.009,29.95Z"/>
  </g>
</svg>