<?xml version="1.0" encoding="UTF-8"?><svg id="uuid-ae759852-08f6-43d7-8c01-596698faa486" xmlns="http://www.w3.org/2000/svg" viewBox="0 0 750 162.5"><g id="uuid-c2dea8cf-d45a-43d1-ad79-58cefaf51c8e"><g id="uuid-e1e13685-83b4-436e-b899-6654176cb411"><path d="M524.3,94.8c0,3.8,3.6,24,7,25.2,1,.3,17.8.5,18.6,0,1.9-7.5,2.4-15.2,4.4-22.7l13.5-24.3c.8,0,1,.8,1.2,1.5,2.9,6.9,3.8,15.8,7.1,22.7.8.4,1.6-2.3,1.9-2.9.8-1.8,4.7-11.9,5.3-12.3.8-.6,1.5.7,2.1,2,.9,1.9,1.7,3.8,2.9-.2,2.4,2.4,7.1,17.7,9.1,18.4.3.1.7.1,1.1,0,.5,0,.9,0,1.3.1,1.7.9,6.7,14.4,9.7,16,1.5-11.9,2.5-23.9,4.2-35.8.4-3.2,1.4-6.3,1.2-9.5,2.1.4,5.5.2,8.9,0,3.9-.3,7.8-.5,9.8.2,1.3.4,2.8,6,3.2,7.5,9.4,37.1-23.5,68.8-60.1,61.3-2.9-.6-11.4-4.6-12.1-4.6h-20.6c-.4,1.4.4,1,.8,1.4,36.2,32.2,93.3,14.9,104.4-32.4,3.2-13.7,1.2-27.9-4.8-40.6h-35.1c-1,.2-1.3,11-1.5,12.6-.7,5.6-1.6,11.4-2.4,17,0,.6.2,1.3-.9.9-.5-.2-3.2-1.4-3.3-1.6-1.1-1.2-4.6-11.4-5.7-13.8-.8-1.7-1.6-3.5-2.4-5.3-1.4-3.1-2.8-6.3-4.6-9.1-.7.2-1.2,5.5-2.7,4.2-.2-.2-1.7-6.1-3-4.8-.3.3-2.2,7-3.1,8-.8.7-1.3,4.3-2.6,4-.8-.2-2.6-11.2-3.3-11.9-.4-.3-8.6-.2-9.5.2-2.2,1.1-13.2,25.1-16.2,28.5-2.2,5.2-1.7,13-3.6,17.9-.4,1.2-2.8,1.6-3.5.6-.8-1.1-2.8-7.5-3.1-9.3-8-36.8,25.7-67.5,61.7-59.3,2.7.6,10.9,4.6,11.5,4.6h20c.2-1-.3-1.2-.9-1.8-11.7-11.4-26.3-16.5-40.8-16.5-33,0-65.9,26.2-65,63.9" fill="#e5e1e6"/><path d="M365.1,137.3c3.8-18.6,7.1-37.6,11.6-56,1.4-5.8,1.9-12,8.2-14.4,4.8-1.8,22.3-1.5,28.2-1.1,18.9,1.3,18.9,17.7,15.2,32.6-6.1,25.1-21.6,21.6-43.5,21.7l-3.6,17.2h-16.1ZM387.8,108.1h14c.7,0,4.6-2.3,5.4-3,4.2-4.1,9.6-23.1,3.1-26.3-3-1.5-15.5-2.7-16.8,1.9l-5.7,27.4Z" fill="#e5e1e6"/><path d="M326.4,86.1c1-2.3.5-8.3-2.7-8.3h-30.1c.5-3.1.9-8.1,1.9-10.9.3-.7.6-1,1.4-1,11.2.9,24.2-1.2,35.1,0,6.1.7,10.9,4.7,11.6,11,.6,5.5-4.3,27.5-6.2,33.6-1.2,4.1-3.5,8.3-8,9.3-5.4,1.1-29.5.9-35.5.3-15.2-1.7-12.9-27.7-.9-32.5.8-.3,4.5-1.5,5.1-1.5h28.3,0ZM323.4,97.4h-18.8c-3.2,0-7.9,10.7-.6,11.4,2.4.2,15.3.2,16.6-.6,1.3-.8,3.3-10.3,2.8-10.8" fill="#e5e1e6"/><path d="M241.2,65.8l8,38.2,25-38.2h16.4l-.6,2.1-47.4,70h-16.4c.2-1.4,1.4-2.8,2.3-4,1.8-2.7,9.7-12.5,9.7-14.8l-13.1-53.4h16.1Z" fill="#e5e1e6"/><path d="M489.7,65.8l-2.4,11.9h-31.3c-2.4,0-4.4,2.9-2.5,5.2,1.8,2.1,18.2,6.5,22.5,8.8,8.8,4.7,9.7,14,4.9,22.2-1.6,2.7-6.2,6.1-9.4,6.1h-42c-.1-1.9,1.4-11.4,2.8-11.8l33-.4c1.4-.9,1.5-2.3.8-3.7-2.5-5.2-26.5-6.8-29.1-16.8-1.7-6.5,1.1-16.8,7.7-19.8,1.1-.5,5.1-1.7,6.1-1.7h39Z" fill="#e5e1e6"/><path d="M159.5,65.8l-2.4,11.9h-31.9c-1.9,0-3.6,3.2-1.9,5.2,3.4,4,21.8,5.6,27.5,12.7,4.9,6,2.3,18.8-4.3,22.6-.6.4-4.9,1.9-5.3,1.9h-42l2.5-11.8,33.9-.4c1.2-1.2,1.3-2,.5-3.5-3-5.4-21.9-6.8-27.3-13.8-4.9-6.3-1.6-19.6,5.7-22.9,1.3-.6,5.3-1.9,6.5-1.9h38.4Z" fill="#e5e1e6"/><polygon points="375.3 48.5 360.4 120.1 343.7 120.1 359.2 48.5 375.3 48.5" fill="#e5e1e6"/><polygon points="188.1 48.5 173.2 120.1 156.5 120.1 172 48.5 188.1 48.5" fill="#e5e1e6"/><path d="M223.9,65.8c-5.5,5.9-11.2,11.6-17,17.3-3.8,3.7-11.6,7.6-7.5,14l15.5,22.9h-18.2l-13.7-20.8c-2.3-5.2-1.2-9.1,2.1-13.4,5.3-6.9,14.3-13.2,20-20h18.8Z" fill="#e5e1e6"/></g><rect width="750" height="162.5" fill="none"/></g></svg>