<?xml version="1.0" encoding="UTF-8"?>
<svg id="uuid-6b42a59d-3700-4f59-bca0-9652b8a3c6a6" xmlns="http://www.w3.org/2000/svg" version="1.1" viewBox="0 0 205.6 170.1">
  <!-- Generator: Adobe Illustrator 30.5.0, SVG Export Plug-In . SVG Version: 2.1.4 Build 167)  -->
  <defs>
    <style>
      .st0 {
        fill: #e5e1e6;
      }
    </style>
  </defs>
  <g id="LPP25T.tif">
    <g>
      <path class="st0" d="M100.5,0c9,.9,16.8,6.5,20.6,14.7s2.3,9.1.9,13.6l-1.5,4c2.1-.3,3.8-.7,5.7-.7h5s0,4.1,0,4.1h-5.2c-10.3.5-19,8.3-19,18.8v9.9s-4.6,0-4.6,0v-11.1c0-3.1,1.1-5.8,2.4-8.8-2.9.5-5.4.9-8.2.7l-4.9-.8v7.2s-4.5,0-4.5,0v-13.5c5.6,3.2,11.8,4.3,17.8,1.7,6.2-2.8,12.3-8.3,13.1-15.3.6-5.6-1.6-11-5.6-14.9s-10.6-6.1-16.7-5.5c-10,1.1-17.6,9.3-17.6,19.4v28.1s-4.7,0-4.7,0v-29.4c0-5.5,2.3-10.5,6-14.4S88.8,1.1,94.6.2l1.4-.2h4.6Z"/>
      <path class="st0" d="M0,112.6v-22.5c.7-3.9,3-7.1,6.7-8.6s6.5-1.2,9.5,0,6.8,5.7,6.7,10.3-1.7,6.9-4.7,8.9c-4.4,2.9-10.7,2.6-14.8-.8v12.8s-3.6,0-3.6,0ZM14.8,98.7c3-1.2,4.7-4,4.7-7.1s-2.1-6.5-5.6-7.5-4.9-.4-7,1-3.5,4-3.4,6.8,1.8,5.7,4.6,6.8,4.4.9,6.6,0Z"/>
      <path class="st0" d="M75.4,90.1v12.4c0,0-3.6,0-3.6,0v-12.2c0-3-1.1-5.5-4-6.2s-3.3-.3-4.9.2c-2.7.9-4.3,3.4-4.3,6.2v12s-3.5,0-3.5,0v-21.7s3.4,0,3.4,0v2.7c1.5-1.4,3.3-2.3,5.2-2.6,4.1-.6,8.1,0,10.4,3.8,2.9-3.7,7.4-4.6,11.8-3.6,3.8.9,6.3,4.2,6.3,8.1v13.4s-3.5,0-3.5,0v-12.5c0-.8-.1-1.6-.4-2.4-1-3.4-4.6-4.3-8-3.5s-4.9,3-5,6Z"/>
      <path class="st0" d="M39.5,159.3l12.1-12.7,2.9-3.5c.9-1.1,1.3-2.6,1.3-4.1,0-2.3-1.2-4.3-3.4-5.2s-4.8-.5-6.7.9c-1.6,1.2-2.6,2.9-2.5,4.9h-3.8c-.1-5.7,4.8-9.6,10.5-9.7s4.1.4,5.9,1.5c4.5,2.8,5.3,8.2,2.4,12.6-1.2,1.9-2.7,3.5-4.3,5.2l-8.9,9.2h15.4s0,3.5,0,3.5h-20.8s0-2.7,0-2.7Z"/>
      <path class="st0" d="M72.3,133.5c-7.3.1-8.1,11.5-6.8,17.8s1,3.3,2,4.8c1.1,1.5,2.8,2.5,4.7,2.5v3.4c-3.4,0-6.3-1.6-8.2-4.3-3.1-4.5-3.5-11.6-2.5-17s4.6-10.6,10.8-10.6c10.9,0,12.8,13.6,10.7,22.4h-4c1-4,1-8,.2-12-.9-3.8-3.1-7-7-7Z"/>
      <path class="st0" d="M105.3,98.7c3.6,1.4,8.4.7,10.6-2.6l2.3,2.4c-3.3,4.2-9.7,5-14.5,3.1s-6.9-5.9-6.7-10.6,3.8-9.4,9-10.3c1.4-.2,2.8-.2,4.3,0,5.9.9,9.7,6.3,8.9,12h-18.6c.3,2.8,2.2,5,4.7,5.9ZM115.7,89.8c-.4-2.7-2.2-4.6-4.6-5.6-1.9-.7-4-.7-5.9,0-2.4.9-4.1,2.9-4.5,5.6h15.1Z"/>
      <path class="st0" d="M145.9,98.7c3.7,1.5,8.5.8,10.7-2.5l2.3,2.4c-3.3,4.2-9.7,5-14.5,3.1s-6.9-5.9-6.7-10.6,3.8-9.4,9-10.3c1.4-.2,2.8-.2,4.3,0,5.8.9,9.7,6.2,8.9,12h-18.6c.3,2.8,2.1,4.9,4.6,5.9ZM156.5,89.8c-.4-2.6-2.1-4.5-4.4-5.5-2-.8-4.1-.8-6.2,0-2.4.9-4.1,2.9-4.5,5.6h15.1Z"/>
      <path class="st0" d="M105.9,29.9c-4.6,4-11.5,3.7-15.8-.5s-3.8-9.3-.4-13.1,12.7-4.9,17.1,0,3.2,10-.9,13.5ZM103.1,26.4c1.9-2.2,1.8-5.3,0-7.4s-7.3-3-9.9,0-1.9,5.2,0,7.4,7.3,3.1,10,0Z"/>
      <path class="st0" d="M182.1,87.4c-1.1-3.6-5.4-4.3-8.9-3.2s-4.6,3.2-4.6,6.1v12.2s-3.6,0-3.6,0v-21.7s3.5,0,3.5,0v2.7c3-2.8,7.4-3.4,11.1-2.5s6,3.8,6.2,7.5v14c.1,0-3.4,0-3.4,0v-12.7c0-.8-.1-1.6-.4-2.3Z"/>
      <path class="st0" d="M203.9,98l1.7,2.6c-1.8,2-5,2.4-7.6,1.8s-4.4-2.7-4.4-5.4v-13.1c0,0-4,0-4,0v-3.1s4,0,4,0v-4.4s3.6,0,3.6,0v4.4s6.9,0,6.9,0v3.1s-6.9,0-6.9,0v12.9c0,1.6,1.2,2.7,2.7,2.7,1.5.2,2.9-.2,4.1-1.5Z"/>
      <path class="st0" d="M120.8,53.8v10.7s-4.6,0-4.6,0v-10.9c0-2.5,1.4-4.6,3.1-6.3,2.2-2,4.9-3,7.8-3h4.2s0,4.1,0,4.1h-4.6c-3,.3-5.5,2.4-5.9,5.4Z"/>
      <path class="st0" d="M132.3,84.3c-3,.7-4.5,3.4-4.5,6.3v11.8s-3.6,0-3.6,0v-12.5c0-4.7,3.7-8.6,8.3-9.2h3.4c0-.1,0,3.4,0,3.4-1.3,0-2.5,0-3.7.2Z"/>
      <path class="st0" d="M36.2,84.3c-3.1.6-4.7,3.4-4.7,6.6v11.5s-3.5,0-3.5,0v-12.1c0-4.7,3.2-8.7,7.9-9.5s2.5-.2,3.9-.2v3.5c-1.2,0-2.4,0-3.5.2Z"/>
      <polygon class="st0" points="47.6 102.4 44.1 102.4 44.1 80.7 47.6 80.7 47.6 102.4"/>
      <polygon class="st0" points="104 162.1 102.6 162.2 98.4 156.8 98.3 162.2 96.9 162.2 96.9 154.7 98.3 154.7 102.5 160.1 102.6 154.7 104 154.7 104 162.1"/>
      <polygon class="st0" points="112.4 162.1 110.9 162.1 106.8 156.8 106.7 162.2 105.2 162.2 105.2 154.7 106.7 154.7 110.8 159.9 110.9 154.7 112.4 154.7 112.4 162.1"/>
      <path class="st0" d="M134.8,162.2l-2-2.9c-.4,0-.7-.1-1.1,0v2.9s-1.5,0-1.5,0v-7.4s3.5,0,3.5,0c.8,0,1.6.3,2.1.8s.7,1.5.4,2.2-.9,1.1-1.8,1.3l2.1,3.1h-1.8ZM133.6,158.2c.8,0,1.2-.6,1.2-1.3s-.5-1.1-1.2-1.1h-2s0,2.4,0,2.4h1.9Z"/>
      <path class="st0" d="M157,162.2l-2-2.9c-.2-.2-.8-.1-1.1,0v2.9s-1.5,0-1.5,0v-7.4s3.6,0,3.6,0c.8,0,1.7.4,2.2,1.1s.5,1.4.1,2-.9,1.1-1.8,1.2l2.1,3.1h-1.7ZM155.9,158.1c.8,0,1.2-.6,1.2-1.3s-.5-1.1-1.1-1.1h-2s0,2.4,0,2.4h1.9Z"/>
      <path class="st0" d="M149.7,160.7h-3.6s-.6,1.5-.6,1.5h-1.6s3.1-7.4,3.1-7.4h1.7s3.1,7.4,3.1,7.4h-1.5s-.6-1.5-.6-1.5ZM149.2,159.5l-1.3-3.1-1.4,3.2c1,0,1.8.1,2.7,0Z"/>
      <path class="st0" d="M94.1,160.7h-3.6c0,0-.6,1.5-.6,1.5h-1.6s3.1-7.4,3.1-7.4h1.7s3.1,7.4,3.1,7.4h-1.5s-.6-1.5-.6-1.5ZM93.6,159.5l-1.3-3.2-1.4,3.2h2.7Z"/>
      <path class="st0" d="M142.3,161.7c-1.8,1-5,.4-5.1-1.7h1.6c.1.5.4.8.9,1s1.2.1,1.7-.1.5-.5.5-.9-.3-.7-.7-.8l-2.6-.7c-.7-.2-1.3-.8-1.4-1.4s.2-1.5.9-2c1.8-1,4.9-.6,5.1,1.6h-1.6c-.2-.9-1.1-1.1-2-1s-.8.4-.9.8.3.8.7,1l2.3.6c.8.2,1.4.8,1.5,1.6s-.3,1.6-1,2Z"/>
      <path class="st0" d="M122.2,154.8c.5-.1,1,0,1.6,0l-3.3,7.4h-1.7s-3.3-7.4-3.3-7.4h1.6s2.6,6,2.6,6l2.5-5.9Z"/>
      <polygon class="st0" points="128.8 158.9 125.8 158.9 125.8 161.1 129.2 161.1 129.2 162.2 124.3 162.2 124.3 154.7 129.2 154.7 129.2 155.7 125.8 155.7 125.8 157.9 128.8 157.9 128.8 158.9"/>
      <polygon class="st0" points="166.2 154.7 163.4 159.5 163.4 162.1 161.9 162.2 161.9 159.5 159 154.7 160.7 154.7 162.6 158.3 164.6 154.7 166.2 154.7"/>
      <path class="st0" d="M84.5,162.2v-3.5c0-1.1-.9-1.8-2-1.8s-2,.7-2,1.8v3.5s-.9,0-.9,0v-8.1s.9,0,.9,0v2.9c.8-.7,1.7-1,2.7-.9s2.2,1,2.2,2.3v3.7c-.3,0-.5,0-.9,0Z"/>
      <polygon class="st0" points="115.1 162.1 113.6 162.2 113.6 154.7 115.1 154.7 115.1 162.1"/>
      <path class="st0" d="M76,162.2c-.2,0-.5,0-.9,0v-6.9s-2.3,0-2.3,0v-.7s5.5,0,5.5,0v.7s-2.3,0-2.3,0v6.9Z"/>
      <path class="st0" d="M144.5,114.5c-.2,0-.4,0-.6,0l-2.6-3.2v3.3s-.7,0-.7,0v-4.5c.2,0,.5,0,.6,0l2.5,3v-3.1c0,0,.8,0,.8,0v4.5Z"/>
      <path class="st0" d="M156.6,113.4h-2.4c-.3.3-.3.7-.5,1.1-.3,0-.5,0-.7,0l2-4.5c0-.1.6-.1.7,0l2.1,4.5h-.7s-.5-1.1-.5-1.1Z"/>
      <path class="st0" d="M130,114.5l-.9-1.2c-.2-.3-.9-.1-1.4,0-.1.5,0,.9,0,1.3h-.7s0-4.6,0-4.6h2.2c.8,0,1.3.6,1.4,1.2s0,1.5-.9,1.8c.3.5.6,1,1.1,1.4-.3.2-.5,0-.8,0ZM129.2,112.5c.5-.1.8-.6.7-1s-.4-.8-.9-.8h-1.4s0,1.9,0,1.9c.5,0,1,0,1.5,0Z"/>
      <path class="st0" d="M112.8,113.4h-2.4s-.5,1-.5,1c0,.2-.6.1-.7,0l2-4.4c.2-.1.5,0,.8,0l2,4.6c-.3,0-.7,0-.7-.1-.2-.3-.3-.6-.4-1Z"/>
      <path class="st0" d="M119.9,114.4l-1-1.2c-.2-.3-.9-.1-1.3,0-.1.5,0,.8,0,1.3h-.7s0-4.5,0-4.5h2.2c.8,0,1.3.6,1.4,1.3s-.1,1.3-.9,1.7l1,1.5c-.2,0-.6.2-.7,0ZM119,112.5c.6,0,.8-.6.8-1s-.4-.9-1-.9h-1.3s0,1.9,0,1.9h1.5Z"/>
      <polygon class="st0" points="45.2 112.4 42.9 112.4 42.9 113.8 45.5 113.8 45.5 114.5 42.3 114.5 42.2 109.9 45.4 109.9 45.4 110.5 42.9 110.6 42.9 111.9 45.2 111.8 45.2 112.4"/>
      <path class="st0" d="M128,166.7c.7-.3,1.2-.5,1.9-.3s1,.5,1.1,1.2c.3,1.1-.2,2.1-1.2,2.4s-2.1-.3-2.3-1.4v-2c0-1.4,1.3-2.1,2.6-1.9s.4,0,.4,0,0,.3,0,.4c0,.2-2.4-.5-2.5,1.6ZM128.3,169c.5.7,1.5.6,2,.1s.5-1.4,0-1.9-1.4-.6-1.9,0-.5,1.3,0,1.8Z"/>
      <path class="st0" d="M95.9,112.4h-2.2c0,.5,0,.9,0,1.4h2.6s0,.7,0,.7h-3.3s0-4.5,0-4.5h3.2c0,.3,0,.5,0,.6h-2.5c0,.5,0,.8,0,1.3h2.2s0,.6,0,.6Z"/>
      <path class="st0" d="M161.9,166.8c.5-.5,1.1-.6,1.8-.5s1.1.6,1.2,1.2c.3,1.1-.2,2.1-1.2,2.4s-2-.2-2.3-1.2-.2-1.8,0-2.6c.4-1.8,2.9-1.5,3-1.4s0,.3,0,.4-1.2-.2-1.9.3-.7.7-.6,1.4ZM162.5,169.4c.7.4,1.5,0,1.8-.5s.2-1.3-.3-1.7-1.2-.5-1.7,0-.6,1.8.2,2.3Z"/>
      <path class="st0" d="M71.3,110c.2,0,.4,0,.7,0v2.7c0,1.2-.9,2-2,1.9s-1.8-.6-1.8-1.7v-2.9s.7,0,.7,0v2.8c0,.7.5,1.1,1.1,1.1s1.3-.2,1.3-.9v-3Z"/>
      <polygon class="st0" points="136.9 112.5 134.7 112.5 134.7 113.9 137.3 113.9 137.3 114.5 134 114.5 134 110 137.2 110 137.2 110.6 134.7 110.6 134.7 111.9 136.9 111.9 136.9 112.5"/>
      <path class="st0" d="M118.1,168.8c-.1.9-1,1.3-1.7,1.3s-1.7-.5-1.7-1.3v-2.9c0-.9.8-1.3,1.5-1.4s1.7.3,1.8,1.2.2,2,0,3.1ZM117.7,168.4v-2.3c0-.7-.6-1.1-1.2-1.1s-1.2.5-1.2,1.2v2.2c0,.7.5,1.2,1.2,1.2s1.2-.4,1.2-1.2Z"/>
      <path class="st0" d="M124.6,168.7c0,.9-.9,1.4-1.7,1.4s-1.7-.4-1.7-1.3v-2.9c0-.9.9-1.3,1.7-1.3s1.6.5,1.6,1.4v2.8ZM124.1,168.4v-2.2c0-.7-.6-1.2-1.2-1.2s-1.2.4-1.2,1.1v2.4c0,.7.6,1.1,1.2,1.1s1.2-.5,1.2-1.2Z"/>
      <path class="st0" d="M152,168.7c0,.9-.9,1.4-1.7,1.4s-1.7-.4-1.7-1.3v-2.9c0-.9.9-1.3,1.7-1.3s1.6.5,1.6,1.4v2.8ZM151.5,168.4v-2.2c0-.7-.6-1.2-1.2-1.2s-1.2.4-1.2,1.1v2.4c0,.7.6,1.1,1.2,1.1s1.2-.5,1.2-1.2Z"/>
      <path class="st0" d="M52.4,114.4c-.2,0-.7.2-.8,0l-1.3-1.7-1.3,1.7c-.1.2-.6.1-.8,0l1.7-2.3-1.5-2.2c.3,0,.5,0,.8,0l1.2,1.6,1.2-1.6c.1-.2.5-.1.8,0l-1.5,2.2,1.7,2.3Z"/>
      <path class="st0" d="M77.9,114.3c-1,.3-2,.2-2.8-.4,0-.2.2-.4.3-.5.7.6,1.6.7,2.5.5.2-.2.1-.7,0-.9s-.3-.3-.6-.4l-1.1-.3c-.6-.2-.9-.6-.9-1.1s.2-1,.8-1.2,1.7-.2,2.4.2c0,.1,0,.5-.2.6-.6-.4-1.4-.5-2-.2s-.3.4-.3.6.2.4.5.5l1.3.4c.6.2.9.5.9,1s-.2,1-.8,1.2Z"/>
      <path class="st0" d="M58.5,113.5c.2-.2.4,0,.4.2.1.2,0,.4-.2.6-.7.6-3.1.6-3.7-1.1s0-2.3,1-2.9,2.2-.4,2.9.3-.3.6-.4.5c-.7-.6-1.7-.7-2.4,0s-.7,1.7,0,2.4,1.7.8,2.5,0Z"/>
      <path class="st0" d="M106.3,113.5c.2-.2.4,0,.4.2.1.2,0,.4-.2.5-.7.6-3.1.6-3.7-1.1s0-2.3,1-2.9,2.2-.4,2.9.3-.3.6-.4.5c-.7-.6-1.7-.7-2.4,0s-.7,1.7,0,2.4,1.7.8,2.5,0Z"/>
      <path class="st0" d="M108.3,169.9c0-.2,0-.4.1-.5l2.4-2.2c.4-.4.6-.9.4-1.4s-.7-.8-1.3-.7-1,.4-1,1.1c-.2,0-.3,0-.5,0,0-.9.7-1.6,1.6-1.6s1.3.2,1.6.8.3,1.3-.2,1.8l-2.1,2.1h2.6c0,.2,0,.4,0,.5-1.3.1-2.4.1-3.5,0Z"/>
      <path class="st0" d="M142.2,169.9c0-.3,0-.4.2-.6l2.3-2.1c.4-.4.6-1,.3-1.5s-.7-.6-1.3-.5-1,.5-.9,1.1h-.5c0-1,.6-1.6,1.5-1.6s1.4.2,1.7.8.3,1.4-.3,1.9l-2.1,2.1h2.6c0,.2,0,.4,0,.5-1.2.1-2.4.1-3.5,0Z"/>
      <path class="st0" d="M155,169.8c-.1,0,0-.4,0-.5l2.4-2.3c.4-.4.5-1,.3-1.4s-.7-.7-1.2-.6-1,.4-1,1.1h-.5c0-.9.7-1.6,1.6-1.6s1.3.2,1.6.8.3,1.4-.2,1.8l-2.1,2.1h2.6c0,.2,0,.4,0,.5-1.2,0-2.3.1-3.4,0Z"/>
      <path class="st0" d="M89.4,110c.1-.1.5-.1.7,0l-1.9,4.4c0,.1-.6.2-.7,0l-2-4.4c.3,0,.7,0,.8,0l1.6,3.4,1.6-3.4Z"/>
      <polygon class="st0" points="149.7 114.5 149 114.5 149 110.6 147.5 110.6 147.5 110 151.2 110 151.2 110.6 149.7 110.6 149.7 114.5"/>
      <path class="st0" d="M163.3,113.9c0,.2,0,.4,0,.6h-3.1s0-4.5,0-4.5h.6s0,4,0,4h2.4Z"/>
      <path class="st0" d="M65.3,113.8c0,.2,0,.4,0,.7h-3.1s0-4.5,0-4.5h.7s0,3.9,0,3.9h2.4Z"/>
      <path class="st0" d="M82.6,114.4c-.2,0-.4,0-.7,0v-4.5s.7,0,.7,0v4.5Z"/>
    </g>
  </g>
</svg>