<?xml version="1.0" encoding="UTF-8"?>
<svg id="Livello_1" xmlns="http://www.w3.org/2000/svg" version="1.1" viewBox="0 0 1506.8 285.4">
  <!-- Generator: Adobe Illustrator 30.5.0, SVG Export Plug-In . SVG Version: 2.1.4 Build 167)  -->
  <g>
    <g>
      <g>
        <polygon points="823.7 215.5 820.5 215.5 820.5 238.5 836.1 238.5 836.1 235.8 823.7 235.8 823.7 215.5"/>
        <path d="M668.7,223.6c0-5.1-3.6-8-9.5-8h-8.9v23h3.4v-7h7.2l4.9,7h3.6l-5.5-7.8c3.2-1.1,5.1-3.8,5.1-7.2M659,228.8h-5.5v-10.4h5.5c4.2,0,6.3,1.9,6.3,5.1s-2.1,5.3-6.3,5.3"/>
        <polygon points="689.2 228.2 700.8 228.2 700.8 225.5 689.2 225.5 689.2 218.5 702 218.5 702 215.5 685.8 215.5 685.8 238.5 702.5 238.5 702.5 235.8 689.2 235.8 689.2 228.2"/>
        <polygon points="736.3 232.6 722.3 215.5 719.8 215.5 719.8 238.5 722.9 238.5 722.9 221.4 736.7 238.5 739.4 238.5 739.4 215.5 736.3 215.5 736.3 232.6"/>
        <polygon points="754.8 218.5 762.6 218.5 762.6 238.5 766 238.5 766 218.5 773.8 218.5 773.8 215.5 754.8 215.5 754.8 218.5"/>
        <path d="M793.7,215.5l-10.3,23h3.4l2.5-5.7h12.2l2.5,5.7h3.4l-10.3-23h-3.4,0ZM790.3,230.1l4.9-11.2,4.9,11.2h-9.9.2,0Z"/>
      </g>
      <g>
        <polygon points="219.4 228 231 228 231 225.2 219.4 225.2 219.4 218.3 232.3 218.3 232.3 215.3 216.2 215.3 216.2 238.3 232.9 238.3 232.9 235.4 219.4 235.4 219.4 228"/>
        <polygon points="267.3 215.3 263.7 215.3 257.4 224.2 250.8 215.3 247.3 215.3 255.3 226.5 246.6 238.3 250.4 238.3 257.2 228.8 264.1 238.3 267.9 238.3 259.3 226.5 267.3 215.3"/>
        <path d="M293.3,218.1c2.5,0,4.6.8,6.5,2.7l2.1-2.1c-2.1-2.3-5.3-3.6-8.7-3.6-7,0-12.2,4.9-12.2,11.8s5.3,11.8,12.2,11.8,6.8-1.3,8.9-3.6l-2.1-2.1c-1.7,1.9-4,2.7-6.5,2.7-5.3,0-9.1-3.8-9.1-8.9s3.8-8.9,9.1-8.9"/>
        <polygon points="321.6 215.3 318.4 215.3 318.4 238.3 334 238.3 334 235.4 321.6 235.4 321.6 215.3"/>
        <path d="M365.3,228.2c0,5.1-2.3,7.4-6.5,7.4s-6.5-2.3-6.5-7.4v-12.9h-3.4v13.1c0,6.8,3.6,10.1,9.7,10.1s9.7-3.6,9.7-10.1v-13.1h-3.2v12.9h.2Z"/>
        <path d="M388.7,221.4c0-1.9,1.7-3.6,5.5-3.6s4.2.6,6.3,1.9l1.1-2.5c-1.9-1.3-4.6-2.1-7.4-2.1-6.1,0-8.9,3-8.9,6.5,0,8.5,13.9,5.1,13.9,10.6s-1.7,3.6-5.7,3.6-5.9-1.1-7.6-2.7l-1.3,2.5c1.9,1.7,5.3,3,8.9,3,6.1,0,8.9-3,8.9-6.5,0-8.5-13.9-4.9-13.9-10.6"/>
        <rect x="419.3" y="215.3" width="3.4" height="23"/>
        <polygon points="449.3 234.1 441.1 215.3 437.5 215.3 447.6 238.3 450.8 238.3 460.9 215.3 457.8 215.3 449.3 234.1"/>
        <polygon points="478.9 228 490.5 228 490.5 225.2 478.9 225.2 478.9 218.3 492 218.3 492 215.3 475.7 215.3 475.7 238.3 492.4 238.3 492.4 235.4 478.9 235.4 478.9 228"/>
      </g>
      <g>
        <path d="M537.8,218.1c2.5,0,4.6.8,6.5,2.7l2.1-2.1c-2.1-2.3-5.3-3.6-8.7-3.6-7,0-12.2,4.9-12.2,11.8s5.3,11.8,12.2,11.8,6.8-1.3,8.9-3.6l-2.1-2.1c-1.7,1.9-4,2.7-6.5,2.7-5.3,0-9.1-3.8-9.1-8.9s3.8-8.9,9.1-8.9"/>
        <path d="M569.2,215.3l-10.3,23h3.4l2.5-5.7h12.2l2.5,5.7h3.4l-10.3-23h-3.4,0ZM565.9,229.9l4.9-11.2,4.9,11.2h-9.9.2,0Z"/>
        <path d="M616.8,223.3c0-5.1-3.6-8-9.5-8h-8.9v23h3.4v-7h7.2l4.9,7h3.6l-5.5-7.8c3.2-1.1,5.1-3.8,5.1-7.2M607,228.6h-5.5v-10.4h5.5c4.2,0,6.3,1.9,6.3,5.1s-2.1,5.3-6.3,5.3"/>
      </g>
    </g>
    <g>
      <path d="M186.2,65.8c-24.4,2.8-42.9,23.7-42.9,48.6v62.4h17.8v-57.6c0-11.8,3.2-21.1,9.5-27.6,5.8-5.9,13.9-8.6,26.5-8.6h6.1v-17.8h-3.6c-4.7,0-9.2.2-13.5.7"/>
      <path d="M423.7,65c-11.1,0-21,2.4-29.4,7.2-6.3,3.6-11.4,8.2-15.2,13.7-3.3-5.9-7.9-10.6-13.6-14-7.6-4.6-16.9-6.9-27.6-6.9s-20,2.2-27.9,6.5c-4.3,2.4-8.1,5.3-11.2,8.7v-14.4h-17.4v110.9h17.8v-58.8c0-11.4,3.2-20.2,10-26.9s15.6-9.9,27.3-9.9,17.6,2.6,23.1,8.1c5.4,5.4,8.1,13.5,8.1,24.1v63.4h17.8v-58.8c0-11.4,3.2-20.2,9.9-26.9,6.7-6.7,15.6-9.9,27.3-9.9s17.6,2.6,23.1,8.1c5.4,5.4,8.1,13.5,8.1,24.1v63.4h17.8v-64.2c0-15.1-4.4-27-13-35.2-8.5-8.2-20.3-12.3-35-12.3"/>
      <path d="M604.5,157l-11.2-11.8-2.6,3c-3.7,4.3-8.5,7.6-14.1,9.9-5.7,2.3-12.1,3.4-18.9,3.4s-15.7-1.6-22.2-4.8c-6.4-3.1-11.6-7.6-15.3-13.4-3.1-4.7-5-10.1-5.8-16h95.3l.5-6.1v-.3c0-10.7-2.5-20.4-7.4-28.8-4.9-8.5-11.8-15.2-20.4-19.9-8.5-4.7-18.3-7.1-29-7.1s-20.5,2.4-29.1,7.2c-8.7,4.8-15.5,11.6-20.5,20.1-4.9,8.5-7.4,18.3-7.4,28.9s2.7,20.6,7.9,29.1c5.2,8.5,12.6,15.2,21.8,20,9.2,4.8,19.7,7.2,31.3,7.2s17.4-1.6,25.1-4.6c7.8-3.1,14.4-7.6,19.6-13.5l2.2-2.5h0ZM514.8,112.3c.9-5.3,2.7-10.1,5.5-14.5,3.4-5.3,8-9.5,13.7-12.5,5.7-3,12.3-4.5,19.5-4.5s13.8,1.5,19.5,4.6c5.7,3,10.4,7.2,13.8,12.5,2.8,4.3,4.6,9.1,5.4,14.3h-77.4,0Z"/>
      <path d="M799.4,148.2c-3.7,4.3-8.5,7.6-14.1,9.9-5.7,2.3-12.1,3.4-18.9,3.4s-15.7-1.6-22.2-4.8c-6.4-3.1-11.6-7.6-15.3-13.4-3.1-4.7-5-10.1-5.8-16h95.3l.5-6.1v-.3c0-10.7-2.5-20.4-7.4-28.8-4.9-8.5-11.8-15.2-20.4-19.9-8.5-4.7-18.3-7.1-29-7.1s-20.5,2.4-29.1,7.2c-8.7,4.8-15.5,11.6-20.5,20.1-4.9,8.5-7.4,18.3-7.4,28.9s2.7,20.6,7.9,29.1c5.2,8.5,12.6,15.2,21.8,20,9.2,4.8,19.7,7.2,31.3,7.2s17.4-1.6,25.1-4.6c7.8-3.1,14.4-7.6,19.6-13.5l2.2-2.5-11.2-11.8-2.6,3h0ZM723.5,112.3c.9-5.3,2.7-10.1,5.5-14.5,3.4-5.3,8-9.5,13.7-12.5,5.7-3,12.3-4.5,19.5-4.5s13.8,1.5,19.5,4.6c5.7,3,10.4,7.2,13.8,12.5,2.8,4.3,4.6,9.1,5.4,14.3h-77.4,0Z"/>
      <path d="M902.9,65c-11,0-20.6,2.2-28.7,6.6-4.6,2.5-8.6,5.5-11.9,9.1v-14.9h-17.4v110.9h17.8v-58.8c0-11.4,3.3-20.2,10.2-26.8,6.8-6.6,16.4-9.9,28.5-9.9s18.5,2.7,24.1,8.1c5.6,5.4,8.4,13.5,8.4,24.1v63.4h17.8v-64.2c0-15.1-4.5-27-13.3-35.2-8.8-8.1-20.7-12.3-35.5-12.3"/>
      <path d="M1043.8,154.3l-3.1,2.6c-3.9,3.3-8.8,4.9-15,4.9s-10.2-1.4-12.9-4.2c-2.8-2.8-4.2-7.1-4.2-12.9v-63.2h35.4v-15.7h-35.4v-22.7h-17.8v22.7h-20.5v15.7h20.5v64.2c0,9.9,3,17.7,9,23.4,5.9,5.6,14.3,8.4,24.9,8.4s9.4-.7,13.8-2c4.5-1.4,8.4-3.5,11.4-6.2l2.3-2-8.4-13h0Z"/>
      <path d="M88.6,72.2h0c-8.9-4.8-18.9-7.2-29.9-7.2s-21,2.4-29.9,7.2c-8.9,4.8-16,11.5-21.1,20-5.1,8.5-7.7,18.3-7.7,29.1v107.3h17.8v-65.8c3.3,2.9,6.9,5.5,11,7.6,8.9,4.7,18.9,7.1,29.9,7.1s21-2.4,29.9-7.1c8.9-4.7,16.1-11.5,21.2-20,5.1-8.5,7.7-18.4,7.7-29.2s-2.6-20.6-7.7-29.1c-5.1-8.5-12.2-15.2-21.1-20M99.5,121.3c0,7.8-1.8,14.8-5.4,20.8-3.6,6-8.5,10.8-14.8,14.2-6.1,3.3-13.1,5-20.7,5.1-7.7,0-14.7-1.8-20.8-5.1-6.2-3.4-11.2-8.1-14.8-14.2-3.6-6-5.4-13.1-5.4-20.8s1.8-14.8,5.4-20.8c3.6-6,8.5-10.8,14.8-14.2,6.1-3.3,13.1-5,20.7-5.1,7.7,0,14.7,1.8,20.8,5.1,6.2,3.4,11.2,8.1,14.8,14.2,3.6,6,5.4,13,5.4,20.8"/>
      <rect x="225.6" y="65.8" width="17.8" height="110.9"/>
      <path d="M696.1,82.9v-17.8h-3.6c-4.7,0-9.2.2-13.5.7-24.4,2.8-42.9,23.7-42.9,48.6v62.4h17.8v-57.6c0-11.8,3.2-21.1,9.5-27.6,5.8-5.9,13.9-8.6,26.5-8.6h6.1Z"/>
    </g>
  </g>
  <g>
    <path d="M1158.7,236.4h-17.5l-3,7.3h-7.2l15-35.7h7.9l15,35.7h-7.2l-3-7.3h0ZM1156.8,231.6l-6.8-16.5-6.9,16.5h13.7Z"/>
    <path d="M1206.8,243.6h-6.9l-20.7-26.6v26.6h-6.9v-35.7h6.9l20.7,26.5v-26.5h6.9v35.7h0Z"/>
    <path d="M1247.2,243.6h-6.9l-20.7-26.6v26.6h-6.9v-35.7h6.9l20.7,26.5v-26.5h6.9v35.7h0Z"/>
    <path d="M1260.1,208v35.6h-6.9v-35.6h6.9Z"/>
    <path d="M1302.2,208l-15.7,35.6h-7.9l-15.8-35.6h7.3l12.4,29.6,12.5-29.6h7.2Z"/>
    <path d="M1311.7,212.7v10.5h14.4v4.8h-14.4v10.9h16.2v4.8h-23.1v-35.7h23.1v4.8h-16.2Z"/>
    <path d="M1355.1,243.6l-9.6-14.2h-5.2v14.2h-6.9v-35.6h14.4c3.2,0,5.9.5,8.2,1.4,2.2,1,3.9,2.2,5,3.8,1.1,1.6,1.7,3.4,1.7,5.4s-.8,4.4-2.4,6.3-4,3.2-7.3,3.9l10.3,14.8h-8.2ZM1340.3,224.7h7.6c2.6,0,4.5-.5,5.8-1.6,1.3-1.1,2-2.6,2-4.4s-.6-3.3-1.9-4.3c-1.3-1-3.2-1.6-5.8-1.6h-7.6v11.9Z"/>
    <path d="M1374.6,242.7c-2.2-.8-4-2-5.3-3.6-1.3-1.5-1.9-3.3-1.9-5.4h7.3c.2,1.5.9,2.8,2.1,3.8,1.3,1,3,1.5,5.3,1.5s4.2-.5,5.5-1.5c1.3-1,2-2.2,2-3.8s-.4-2.2-1.2-2.9-1.8-1.3-3.1-1.7-2.9-.9-5.1-1.3c-2.7-.6-4.9-1.2-6.7-1.9-1.7-.6-3.2-1.6-4.4-3-1.2-1.3-1.8-3.1-1.8-5.3s.6-3.8,1.8-5.4c1.2-1.5,2.9-2.7,5.1-3.5s4.7-1.2,7.5-1.2c4.1,0,7.4.9,10,2.6,2.6,1.7,4,4.1,4.3,7.1h-7.6c-.1-1.3-.8-2.4-2.2-3.3-1.3-.9-3.1-1.4-5.2-1.4s-3.6.4-4.8,1.3c-1.2.9-1.9,2.1-1.9,3.7s.4,2,1.2,2.7,1.8,1.3,3,1.7,2.8.9,4.9,1.3c2.8.6,5,1.3,6.8,2,1.8.6,3.2,1.6,4.4,3s1.8,3.1,1.8,5.4-.6,3.5-1.7,5.1c-1.1,1.6-2.8,2.9-5,3.9s-4.8,1.5-7.7,1.5-5.3-.4-7.6-1.3h0Z"/>
    <path d="M1427,236.4h-17.5l-3,7.3h-7.2l15-35.7h7.9l15,35.7h-7.2l-3-7.3h0ZM1425.1,231.6l-6.8-16.5-6.9,16.5h13.7Z"/>
    <path d="M1462.4,243.6l-9.6-14.2h-5.2v14.2h-6.9v-35.6h14.4c3.2,0,5.9.5,8.2,1.4,2.2,1,3.9,2.2,5,3.8,1.1,1.6,1.7,3.4,1.7,5.4s-.8,4.4-2.4,6.3-4,3.2-7.3,3.9l10.3,14.8h-8.2ZM1447.6,224.7h7.6c2.6,0,4.5-.5,5.8-1.6,1.3-1.1,2-2.6,2-4.4s-.6-3.3-1.9-4.3c-1.3-1-3.2-1.6-5.8-1.6h-7.6v11.9Z"/>
    <path d="M1506.8,208l-13.8,22.7v12.9h-6.9v-12.9l-13.9-22.7h7.6l9.7,17.5,9.7-17.5h7.6Z"/>
  </g>
  <g>
    <path d="M1176.9,282.7l8.9-8.1c4.4-4.1,5.8-6.1,5.8-8.7s-2.1-5.5-5.9-5.5-6.1,2.4-6.1,5.7h-2.3c0-4.5,3.1-7.9,8.4-7.9s8.2,3.4,8.2,7.6-1.1,5.3-6.7,10.5l-6.7,6.1h13.9v2h-17.5v-1.8h0Z"/>
    <path d="M1226.3,266.6v10c0,5.4-3.5,8.8-8.5,8.8s-8.6-3.5-8.6-8.8v-10c0-5.4,3.5-8.8,8.6-8.8s8.5,3.5,8.5,8.8ZM1211.4,266.8v9.5c0,4.2,2.6,7,6.3,7s6.3-2.8,6.3-7v-9.5c0-4.2-2.6-7-6.3-7s-6.3,2.8-6.3,7Z"/>
    <path d="M1258.4,266.6v10c0,5.4-3.5,8.8-8.5,8.8s-8.6-3.5-8.6-8.8v-10c0-5.4,3.5-8.8,8.6-8.8s8.5,3.5,8.5,8.8ZM1243.5,266.8v9.5c0,4.2,2.6,7,6.3,7s6.3-2.8,6.3-7v-9.5c0-4.2-2.6-7-6.3-7s-6.3,2.8-6.3,7Z"/>
    <path d="M1273.1,275.8v-5.2c0-7.5,3.6-11.9,10.9-11.9h4.5v2h-4.8c-5.1,0-8.2,3.8-8.2,9.2v.5c1.3-2.2,3.7-3.5,6.9-3.5,5.3,0,8.8,3.4,8.8,9.1s-3.8,9.1-9,9.1-9-3.6-9-9.3h0ZM1288.8,276c0-4.2-2.7-6.9-6.7-6.9s-6.7,2.7-6.7,6.9,2.7,6.9,6.7,6.9,6.7-2.7,6.7-6.9Z"/>
    <path d="M1325.9,273.2v1.8h-12.3v-1.8h12.3Z"/>
    <path d="M1346.7,282.7l8.9-8.1c4.4-4.1,5.8-6.1,5.8-8.7s-2.1-5.5-5.9-5.5-6.1,2.4-6.1,5.7h-2.3c0-4.5,3.1-7.9,8.4-7.9s8.2,3.4,8.2,7.6-1.1,5.3-6.7,10.5l-6.7,6.1h13.9v2h-17.5v-1.8h0Z"/>
    <path d="M1396.1,266.6v10c0,5.4-3.5,8.8-8.5,8.8s-8.6-3.5-8.6-8.8v-10c0-5.4,3.5-8.8,8.6-8.8s8.5,3.5,8.5,8.8ZM1381.2,266.8v9.5c0,4.2,2.6,7,6.3,7s6.3-2.8,6.3-7v-9.5c0-4.2-2.6-7-6.3-7s-6.3,2.8-6.3,7Z"/>
    <path d="M1410.8,282.7l8.9-8.1c4.4-4.1,5.8-6.1,5.8-8.7s-2.1-5.5-5.9-5.5-6.1,2.4-6.1,5.7h-2.3c0-4.5,3.1-7.9,8.4-7.9s8.2,3.4,8.2,7.6-1.1,5.3-6.7,10.5l-6.7,6.1h13.9v2h-17.5v-1.8h0Z"/>
    <path d="M1442.9,275.8v-5.2c0-7.5,3.6-11.9,10.9-11.9h4.5v2h-4.8c-5.1,0-8.2,3.8-8.2,9.2v.5c1.3-2.2,3.7-3.5,6.9-3.5,5.3,0,8.8,3.4,8.8,9.1s-3.8,9.1-9,9.1-9-3.6-9-9.3h0ZM1458.6,276c0-4.2-2.7-6.9-6.7-6.9s-6.7,2.7-6.7,6.9,2.7,6.9,6.7,6.9,6.7-2.7,6.7-6.9Z"/>
  </g>
  <g>
    <g>
      <path d="M1231.7,142.4l37.5-38.4c9.7-9.9,17.2-18.2,22.5-25,5.3-6.7,9.1-12.8,11.2-18.2,2.2-5.4,3.2-11,3.2-16.7v-.2c0-8.2-2.1-15.7-6.4-22.3-4.3-6.6-10.1-11.9-17.6-15.7-7.4-3.9-15.9-5.8-25.5-5.8s-18.7,2.1-26.7,6.2c-8.1,4.1-14.4,9.8-19.2,16.9s-7.1,15.3-7.1,24.4v.7h19v-.6c0-5.7,1.5-10.8,4.5-15.4,3-4.6,7.1-8.2,12.2-11,5.2-2.7,11-4.1,17.6-4.1s10.8,1.2,15.2,3.6c4.4,2.4,7.9,5.6,10.4,9.8,2.5,4.1,3.8,8.9,3.8,14.3v.2c0,4.4-.7,8.5-2.1,12.4s-4,8.2-7.8,13.1c-3.8,4.9-9.2,11-16.3,18.4l-55.5,57.9v13.6h104.1v-17.5h-77.1v-.5h0Z"/>
      <path d="M1349.1,135.9c-5.6-5.1-9.8-12.4-12.8-21.8s-4.4-20.6-4.4-33.6v-.2c0-12.9,1.5-24.1,4.4-33.5,2.9-9.4,7.2-16.6,12.8-21.7,5.6-5.1,12.3-7.6,20.2-7.6s14.6,2.5,20.2,7.6c5.6,5.1,9.9,12.3,12.9,21.7,3,9.4,4.4,20.6,4.4,33.5v.2c0,12.4-1.4,23.1-4.1,32.3h19.9c2.4-9.6,3.7-20.4,3.7-32.3v-.2c0-16.4-2.3-30.5-6.8-42.5s-11.1-21.1-19.6-27.6c-8.5-6.5-18.7-9.7-30.6-9.7s-22,3.2-30.5,9.7-15,15.7-19.5,27.6c-4.5,11.9-6.8,26.1-6.8,42.5v.2c0,16.4,2.2,30.5,6.8,42.5s11,21.2,19.5,27.7c8.2,6.3,18.1,9.5,29.5,9.7v-16.9c-7.4-.2-13.8-2.7-19.1-7.6h0Z"/>
    </g>
    <g>
      <path d="M1398.7,123.6v3.1h-11.6v34.8h-4.2v-34.8h-11.7v-3.1h27.5Z"/>
      <path d="M1427.7,132.8c2,.9,3.5,2.4,4.7,4.3s1.7,4.3,1.7,7.1v17.4h-4.1v-17c0-3.2-.9-5.7-2.7-7.4-1.8-1.7-4.2-2.5-7.3-2.5s-5.7.9-7.6,2.7-2.8,4.5-2.8,8v16.2h-4.2v-40.2h4.2v15.6c1-1.8,2.6-3.1,4.6-4.1,2-1,4.3-1.5,6.8-1.5s4.7.5,6.7,1.4h0Z"/>
    </g>
  </g>
</svg>