<?xml version="1.0" encoding="UTF-8"?><svg id="uuid-5e2d0414-5ebf-4b30-b969-d6c98f0e039c" xmlns="http://www.w3.org/2000/svg" viewBox="0 0 341.4 145"><g id="uuid-b3d7d220-d9ca-4a1f-a589-bd04a641fb09"><path d="M0,90.4v-.5s1.4-2.1,1.4-2.1l7.6-17.3L29.4,19.9h1.1s18,46.8,18,46.8l8.3,20,2,3.7h-8c.1-1.1,0-1.8,0-2.7l-3.5-9.7L29.8,31.6l-18.7,47-3.5,9.4c0,.8,0,1.4,0,2.4H0Z" fill="#1d1d1b"/><path d="M79.4,145h-3.4c-2.4-.8-4.5-2.2-5.9-4.6-2.4-4.3-2.1-9.9,1-13.8,2.1-2.6,5.2-3.8,8.5-3.2s5.3,2.4,6.6,5.3c2.9,6.4.1,14.6-6.8,16.4ZM82.8,128.3c-1-1.9-2.8-2.9-4.7-3s-3.6.9-4.7,2.6c-2.3,3.6-2.3,8.5,0,12.1,1.1,1.8,3,2.7,5,2.6,5.4-.4,7.3-8.8,4.4-14.4Z" fill="#1d1d1b"/><path d="M105.1,145h-3.1c-1.5-.5-2.8-1.2-4.1-2.2l.6-2.7c1.5,1.3,2.9,2.3,4.9,2.5,1.6.1,3-.8,3.5-2.2.4-1.3.1-2.9-1.2-3.7l-4.2-2.6c-1.2-.7-2.6-1.7-3.1-3.1-1.3-3.2.6-6.7,3.9-7.6,2.4-.7,4.8-.1,7,1.1l-.6,2.4c-3-1.9-6.7-2-7.4.4-1.6,5.5,10,4.8,8.7,12.5-.4,2.4-2.2,4.5-4.8,5Z" fill="#1d1d1b"/><polygon points="40.3 0 40.3 4.8 18.9 4.8 19.1 0 40.3 0" fill="#1d1d1b"/><path d="M153.7,35l-8.4,19-8.2,17.8-8.4,18.4c-.6.1-1.2.2-1.9,0l-11.1-24.4-8.2-17.5-5.8-13.3-3.1,32.2-1.4,19.8c0,1,.2,2.1.4,3.3h-7.7c.5-1.2,1-2.1,1.2-3.3,1.1-6.3,2.1-12.3,2.7-18.7l5-48.6c.6,0,.9.2,1.1.7l20.6,43.8,7.2,16.8,9.1-20.9,19-40.2h.8s5.1,49.3,5.1,49.3l2.5,17.5c.2,1.2.7,2.3,1.2,3.7h-7.7c.2-1,.5-2,.4-3l-1.3-18.9-3.2-33.4Z" fill="#1d1d1b"/><path d="M339.7,90.5c0,.5-.3.9-.8.8l-35.4-45-10.4-13.7v39.5s.5,15.4.5,15.4l.6,2.8h-7.7c.5-1.4.9-2.8,1-4.3.6-8,.7-15.8.7-23.9V19.9c.3-.1.9,0,1.2.4l33.4,42.5,12,15.7v-34.9s-.5-19.4-.5-19.4c0-1.1-.4-2.2-.7-3.2h7.6s-.8,3.7-.8,3.7l-.8,18.8v47.1Z" fill="#1d1d1b"/><path d="M244.3,78.7l-17.9-47.1-17.8,44.8-4.3,11.3c-.3.8-.2,1.8,0,2.7h-7.8s2-3.7,2-3.7l7.7-17.6,19.8-49.1h1.1c0,0,17.8,46.1,17.8,46.1l8.1,19.6,2.4,4.6h-8c.1-.7.3-1.7,0-2.4l-3.2-9.2Z" fill="#1d1d1b"/><polygon points="271.1 144.5 269.4 144.5 257.4 131.1 256.2 129.6 256.2 141.3 256.5 144.6 253.5 144.5 253.5 126.6 253.2 123.5 255.1 123.6 266.7 136.8 268.1 138.5 268.1 125.8 267.7 123.6 270.8 123.6 270.8 142.1 271.1 144.5" fill="#1d1d1b"/><path d="M55.3,144.6l-5.6-7.8h-2.7s.2,7.8.2,7.8h-3s0-17.4,0-17.4l-.4-3.6h6.2c1.9,0,3.8.8,5.1,2.2,1.4,1.6,1.8,3.6,1.2,5.8-.4,1.7-1.7,3.3-3.8,4.4l4.9,6.4,2.1,2.2h-4.3ZM52.7,132.3c.8-1.2,1-2.7.4-4-.4-.9-1.6-2-2.9-2.1h-3.1c0-.1,0,8,0,8,2,.6,4.4.1,5.7-1.8Z" fill="#1d1d1b"/><path d="M293.7,139.3h-7.7s-2.1,5.3-2.1,5.3h-2.8c0,0,8.1-21,8.1-21l2.1-.4,6.5,17.8,1.5,3.5h-3.5s-2-5.3-2-5.3ZM292.9,136.8l-2.9-8.3-3.1,8.4h6Z" fill="#1d1d1b"/><path d="M131.8,139.3h-7.7c0,0-2.1,5.2-2.1,5.2h-2.8c0,0,8-20.8,8-20.8l2.1-.5,6.6,18.2,1.4,3.2h-3.5s-1.9-5.2-1.9-5.2ZM130.9,136.8l-2.9-8.3-3.1,8.3h6Z" fill="#1d1d1b"/><path d="M173.6,139.3h-7.7c0,0-2.1,5.2-2.1,5.2h-2.8c0,0,8-20.8,8-20.8.7-.3,1.4-.5,2.1-.4l6.6,18.3,1.3,3h-3.5s-1.9-5.2-1.9-5.2ZM172.7,136.8l-2.9-8.2-3.1,8.3h6Z" fill="#1d1d1b"/><path d="M215.6,136.7v4.9s.2,3,.2,3h-3.2s0-16.8,0-16.8l-.3-4.2h6.9c2.4.1,4.6,1.7,5.4,3.6,1,2.3.7,4.9-1,6.8-1.9,2.2-4.6,3-7.9,2.8ZM221.8,131.2c.4-1.8,0-3.4-1.4-4.3-1.4-.9-3.1-.9-4.9-.8v8.2c3,.4,5.7-.6,6.3-3.1Z" fill="#1d1d1b"/><polygon points="201.6 142 201 144.6 190.4 144.6 190.4 126.9 190.1 123.6 193.3 123.6 193.3 142 201.6 142" fill="#1d1d1b"/><polygon points="240.1 144.6 236.9 144.5 236.9 126.6 236.5 123.5 239.8 123.6 239.8 141.3 240.1 144.6" fill="#1d1d1b"/></g></svg>