<?xml version="1.0" encoding="UTF-8"?>
<svg id="Livello_1" xmlns="http://www.w3.org/2000/svg" version="1.1" viewBox="0 0 705.8 401.6">
  <!-- Generator: Adobe Illustrator 30.5.0, SVG Export Plug-In . SVG Version: 2.1.4 Build 167)  -->
  <path d="M136.9,219.8c-4.8-2.2-9.2-3.4-14.4-3.3-9.1,0-14.7,5.6-14.7,15.1s5.9,17.9,15.9,27.9c13.5,13.5,18.1,20,18.1,32.6s-9.1,24.9-25.8,24.9-13.2-1.5-19.1-5.2l1.2-2.1c6.2,3.6,12.2,4.6,17.8,4.6,9.1,0,15.3-3.7,15.4-15,0-10.1-3.9-16.3-15.9-27.9-10.8-10.5-18.1-19.4-18.1-33.2s10.4-24.5,24.9-24.5,11.1,1.3,15.7,3.7l-1,2.2h0Z"/>
  <path d="M180.9,265.5c0-31.1,21.8-52.4,53.4-52.4s53.5,21.7,53.5,52.1-22.2,52.4-53.4,52.4-53.6-21.2-53.6-52.1h0ZM273.5,265.5c0-30.4-15.4-50-39.2-50s-39,19.7-39,49.5,15.3,50.1,39.2,50.1,39-19.7,39-49.7h0Z"/>
  <polygon points="376.7 315.6 332.8 315.6 332.8 215.2 345.6 215.2 345.6 312.9 376.7 312.9 376.7 315.6 376.7 315.6"/>
  <polygon points="462.1 315.6 417.7 315.6 417.7 215.2 459.3 215.2 459.3 217.8 430.4 217.8 430.4 263.2 453.7 263.2 453.7 265.9 430.4 265.9 430.4 312.9 462.1 312.9 462.1 315.6 462.1 315.6"/>
  <polygon points="503.4 315.6 503.4 215.2 516.1 215.2 516.1 315.6 503.4 315.6 503.4 315.6"/>
  <polygon points="609 315.6 565.1 315.6 565.1 215.2 577.8 215.2 577.8 312.9 609 312.9 609 315.6 609 315.6"/>
  <path d="M337.6,40.7v-4.6c-1.9,2.4-3.3,5.2-4.6,7.9-.4.7-.6,1.7-1,2.4-.1.2,0,.3-.5.2-.1-2.2-.2-4.3-.4-6.5-1.2-13.4-3.1-26.7-2.6-40.2,0,0-7.4,0-7.5.2-.3.8-.7,2.7-.7,2.9-.6,2.3-.2,17.6-.2,17.6.8,16.2,1.5,32.5,2,48.7l.2,6.7-2.6-4.9c-1.4-1.6-3.1-7.5-6-5.4-1.7,1.3,1.1,4.5,1.9,5.9,1.4,2.7,2.9,5.7,3.8,8.7,7,24.8,1.8,98.3,1.8,98.3h12.2c.4-2.4,1.2-28,1.3-30.4.7-23.8.2-47.6-1-71.3-.4-7.7-1.8-16-.5-23.6.7-4.4,2-9,4.4-12.8h0Z"/>
  <path d="M374.6,40.2c1.2-13.4,3.1-26.7,2.6-40.2,0,0,7.4,0,7.5.2.3.8.7,2.7.7,2.9.6,2.3.2,17.6.2,17.6-.8,16.2-1.5,32.5-2,48.7l-.2,6.7,2.6-4.9c1.4-1.6,3.1-7.5,6-5.4,1.7,1.3-1.1,4.5-1.9,5.9-1.4,2.7-2.9,5.7-3.8,8.7-7,24.8-1.8,98.3-1.8,98.3h-12.2c-.4-2.4-1.2-28-1.3-30.4-.7-23.8-.2-47.6,1-71.3.4-7.7,2.4-34.7,2.6-36.8h0Z"/>
  <path d="M364.8,87.4c0-1.4-1.7-1.6-2.6-.8-1.2,3.5-2.8,6.8-4.5,10.1-1.4,2.7-3,5.5-4.7,8l-1-24.9c0-.5-.2-.9-.2-1.4-.7-15.1-1.6-29.7-1.2-44.9.1-3.5.2-6.9.4-10.3h-5.8l-2.2,36.2s1.5,77.1-.2,102l-1.8,17.1h10.6l1.6-15.9c.1-2.1.1-4.1.2-6.2.6-13.7.8-27.5,0-41.2,2.2-7.6,6.3-14.5,9.3-21.8.5-1.2,2.1-5,2.1-6.1h0Z"/>
  <path d="M10.8,368.7c.2,0,.5,0,.9,0,.4,0,.7,0,1,0s.7,0,1,0c.4,0,.6,0,.8,0l10.8,32.3c-.2,0-.4,0-.8,0-.3,0-.6,0-.9,0s-.6,0-.9,0c-.3,0-.6,0-.8,0l-2.7-8.2H5.9l-2.6,8.2c-.2,0-.5,0-.8,0-.3,0-.6,0-.9,0s-.6,0-.9,0c-.3,0-.6,0-.7,0l10.8-32.3h0ZM18.3,389.9l-5.8-18-5.7,18h11.5Z"/>
  <path d="M40.8,368.7c.2,0,.4,0,.7,0,.3,0,.6,0,.9,0s.5,0,.8,0c.3,0,.5,0,.7,0v29.5h13.8c0,.2,0,.4,0,.7,0,.3,0,.5,0,.7s0,.5,0,.7c0,.3,0,.5,0,.6h-16.9v-32.3h0Z"/>
  <path d="M73.3,368.7c.3,0,.7,0,1.3-.2.5,0,1.1-.1,1.8-.2.6,0,1.3,0,2-.1.7,0,1.3,0,1.8,0,1.8,0,3.4.2,4.8.5,1.4.4,2.7.9,3.7,1.7,1,.8,1.8,1.8,2.4,3s.8,2.8.8,4.5-.3,3.5-1,4.9c-.6,1.4-1.5,2.4-2.6,3.3-1.1.8-2.4,1.5-3.8,1.8-1.4.4-3,.6-4.6.6s-1.3,0-1.8,0c-.5,0-1.1,0-1.8-.1v12.7c-.2,0-.4,0-.7,0-.3,0-.5,0-.8,0s-.6,0-.9,0c-.3,0-.5,0-.7,0v-32.3h0ZM76.3,385.5c.3,0,.6,0,.8,0,.2,0,.4,0,.7,0,.2,0,.5,0,.8,0,.3,0,.7,0,1.1,0,1.1,0,2.1,0,3.2-.3s2-.5,2.9-1.1c.8-.5,1.5-1.3,2.1-2.3s.8-2.3.8-4-.2-2.4-.6-3.3c-.4-.9-1-1.6-1.7-2.1s-1.7-.9-2.7-1.2c-1.1-.2-2.3-.4-3.6-.4s-1.5,0-2.1,0c-.6,0-1.1.1-1.5.2v14.2h0Z"/>
  <path d="M108.3,368.7c.2,0,.5,0,.8,0,.3,0,.6,0,.8,0s.5,0,.8,0c.3,0,.5,0,.7,0v32.3c-.2,0-.4,0-.7,0-.3,0-.5,0-.8,0s-.6,0-.9,0c-.3,0-.5,0-.7,0v-32.3h0Z"/>
  <path d="M130.6,368.7c.2,0,.5,0,.8,0,.4,0,.6,0,.9,0s.5,0,.9,0c.3,0,.6,0,.8,0l15.5,27v-27c.2,0,.4,0,.7,0,.3,0,.5,0,.8,0s.5,0,.8,0c.3,0,.5,0,.7,0v32.3c-.2,0-.4,0-.8,0-.4,0-.6,0-.9,0s-.5,0-.9,0c-.3,0-.6,0-.8,0l-15.5-26.8v26.8c-.2,0-.4,0-.7,0-.2,0-.5,0-.8,0s-.6,0-.9,0c-.3,0-.5,0-.7,0v-32.3h0Z"/>
  <path d="M171.6,368.7h17.3c0,.2,0,.4,0,.6,0,.3,0,.5,0,.7s0,.5,0,.7c0,.3,0,.5,0,.7h-14.2v10.9h11.4c0,.2,0,.4,0,.6,0,.3,0,.5,0,.7s0,.5,0,.7c0,.3,0,.5,0,.7h-11.4v12.9h14.6c0,.2,0,.4,0,.6,0,.2,0,.5,0,.7s0,.5,0,.7,0,.5,0,.7h-17.7v-32.3h0Z"/>
  <path d="M227.3,368.7c.2,0,.4,0,.7,0,.3,0,.6,0,.9,0s.5,0,.8,0c.3,0,.5,0,.7,0v29.5h13.8c0,.2,0,.4,0,.7,0,.3,0,.5,0,.7s0,.5,0,.7c0,.3,0,.5,0,.6h-16.9v-32.3h0Z"/>
  <path d="M259.8,368.7c.2,0,.5,0,.8,0,.3,0,.6,0,.8,0s.5,0,.8,0c.3,0,.5,0,.7,0v32.3c-.2,0-.5,0-.7,0-.3,0-.5,0-.8,0s-.6,0-.9,0c-.3,0-.5,0-.7,0v-32.3h0Z"/>
  <path d="M282,368.7h15.9c0,.2,0,.4,0,.6,0,.3,0,.5,0,.7s0,.5,0,.7,0,.5,0,.7h-12.8v10.9h11.1c0,.2,0,.4,0,.6,0,.3,0,.5,0,.7s0,.5,0,.7c0,.3,0,.5,0,.7h-11.1v15.7c-.2,0-.5,0-.7,0-.3,0-.5,0-.8,0s-.6,0-.9,0c-.3,0-.5,0-.7,0v-32.3h0Z"/>
  <path d="M314.7,368.7h17.3c0,.2,0,.4,0,.6,0,.3,0,.5,0,.7s0,.5,0,.7c0,.3,0,.5,0,.7h-14.2v10.9h11.4c0,.2,0,.4,0,.6,0,.3,0,.5,0,.7s0,.5,0,.7c0,.3,0,.5,0,.7h-11.4v12.9h14.6c0,.2,0,.4,0,.6,0,.2,0,.5,0,.7s0,.5,0,.7,0,.5,0,.7h-17.7v-32.3h0Z"/>
  <path d="M347.9,397.4c.4.1.9.2,1.3.4.5.1,1,.3,1.5.4s1.2.2,1.9.3c.7,0,1.5.1,2.4.1,1.4,0,2.7-.2,3.7-.5,1-.3,1.9-.8,2.6-1.4.7-.6,1.2-1.3,1.5-2.1.3-.8.5-1.6.5-2.6s-.1-1.7-.3-2.3c-.2-.6-.6-1.2-1.2-1.8-.6-.5-1.3-1.1-2.3-1.5s-2.2-1-3.7-1.6c-1-.4-2-.8-3-1.3-.9-.5-1.8-1-2.5-1.6-.7-.6-1.3-1.4-1.7-2.3-.4-.9-.6-2-.6-3.4,0-2.4.9-4.4,2.6-5.9s4.3-2.2,7.7-2.2,1.3,0,2,0,1.3.1,1.9.2c.6,0,1.1.2,1.6.3.5.1.9.2,1.2.3,0,.5-.1.9-.2,1.4s-.2.9-.4,1.3c-.7-.2-1.6-.5-2.8-.6-1.1-.2-2.2-.3-3.4-.3-2.5,0-4.3.5-5.4,1.5-1.1,1-1.6,2.3-1.6,3.9s.2,1.5.5,2.1c.3.6.8,1.1,1.4,1.6s1.3.9,2.1,1.2,1.7.7,2.6,1.1c1.3.5,2.4,1,3.5,1.6,1.1.5,2,1.2,2.8,1.9s1.4,1.6,1.8,2.5c.5,1,.7,2.1.7,3.5s-.3,2.9-.8,4.2c-.5,1.2-1.3,2.2-2.4,3.1-1,.8-2.3,1.5-3.7,1.9-1.5.4-3.1.6-5,.6s-3.2-.1-4.4-.4c-1.2-.2-2.3-.5-3.3-.9,0-.5.2-.9.3-1.5.1-.5.3-1,.5-1.4h0Z"/>
  <path d="M388.5,371.5h-8.7c0-.2,0-.4,0-.6,0-.3,0-.5,0-.7s0-.5,0-.7,0-.5,0-.7h20.5c0,.2,0,.4,0,.6,0,.2,0,.5,0,.7s0,.5,0,.7,0,.5,0,.7h-8.7v29.5c-.2,0-.5,0-.7,0-.3,0-.5,0-.8,0s-.6,0-.9,0c-.3,0-.5,0-.7,0v-29.5h0Z"/>
  <path d="M422.8,389l-10.4-20.3c.2,0,.4,0,.8,0,.3,0,.6,0,.9,0s.6,0,1,0c.4,0,.7,0,.9,0l8.5,17.1,8.3-17.1c.2,0,.5,0,.8,0,.3,0,.6,0,.8,0s.6,0,1,0c.3,0,.6,0,.8,0l-10.2,20.3v12c-.2,0-.5,0-.7,0-.3,0-.5,0-.8,0s-.6,0-.9,0c-.3,0-.5,0-.7,0v-12h0Z"/>
  <path d="M451.8,368.7c.2,0,.4,0,.7,0,.3,0,.6,0,.9,0s.5,0,.8,0c.3,0,.5,0,.7,0v29.5h13.8c0,.2,0,.4,0,.7,0,.3,0,.5,0,.7s0,.5,0,.7c0,.3,0,.5,0,.6h-16.9v-32.3h0Z"/>
  <path d="M484.2,368.7h17.3c0,.2,0,.4,0,.6,0,.3,0,.5,0,.7s0,.5,0,.7,0,.5,0,.7h-14.2v10.9h11.4c0,.2,0,.4,0,.6,0,.3,0,.5,0,.7s0,.5,0,.7c0,.3,0,.5,0,.7h-11.4v12.9h14.6c0,.2,0,.4,0,.6,0,.2,0,.5,0,.7s0,.5,0,.7c0,.3,0,.5,0,.7h-17.7v-32.3h0Z"/>
  <path d="M540,368.7c.2,0,.5,0,.8,0,.3,0,.6,0,.8,0s.5,0,.8,0c.3,0,.5,0,.7,0v13.8h15.9v-13.8c.2,0,.5,0,.7,0,.3,0,.5,0,.8,0s.5,0,.8,0c.3,0,.5,0,.8,0v32.3c-.2,0-.4,0-.7,0-.3,0-.6,0-.9,0s-.5,0-.8,0c-.3,0-.5,0-.7,0v-15.7h-15.9v15.7c-.2,0-.5,0-.7,0-.3,0-.5,0-.8,0s-.6,0-.9,0c-.3,0-.5,0-.7,0v-32.3h0Z"/>
  <path d="M592.9,401.6c-2.2,0-4.2-.4-5.9-1.2-1.7-.8-3.1-2-4.2-3.5-1.1-1.5-1.9-3.2-2.5-5.3s-.8-4.3-.8-6.7.3-4.7.8-6.7,1.4-3.8,2.5-5.3c1.1-1.5,2.5-2.6,4.2-3.5,1.7-.8,3.6-1.2,5.9-1.2s4.2.4,5.9,1.2c1.7.8,3.1,2,4.2,3.5,1.1,1.5,1.9,3.2,2.5,5.3s.8,4.3.8,6.7-.3,4.7-.8,6.7c-.6,2-1.4,3.8-2.5,5.3-1.1,1.5-2.5,2.6-4.2,3.5-1.7.8-3.6,1.2-5.9,1.2h0ZM592.9,398.7c1.7,0,3.2-.3,4.5-1s2.3-1.6,3.2-2.9,1.5-2.7,1.9-4.4c.4-1.7.6-3.6.6-5.6s-.2-3.9-.6-5.6c-.4-1.7-1-3.2-1.9-4.4-.8-1.2-1.9-2.2-3.2-2.8-1.3-.7-2.8-1-4.5-1s-3.2.3-4.5,1c-1.3.7-2.3,1.6-3.2,2.8-.8,1.2-1.4,2.7-1.8,4.4-.4,1.7-.6,3.6-.6,5.6s.2,3.9.6,5.6c.4,1.7,1,3.2,1.8,4.4.8,1.2,1.9,2.2,3.2,2.9,1.3.7,2.8,1,4.5,1h0Z"/>
  <path d="M627.1,371.5h-8.7c0-.2,0-.4,0-.6,0-.3,0-.5,0-.7s0-.5,0-.7,0-.5,0-.7h20.5c0,.2,0,.4,0,.6s0,.5,0,.7,0,.5,0,.7,0,.5,0,.7h-8.7v29.5c-.2,0-.5,0-.7,0-.3,0-.5,0-.8,0s-.6,0-.9,0c-.3,0-.5,0-.7,0v-29.5h0Z"/>
  <path d="M654.5,368.7h17.3c0,.2,0,.4,0,.6,0,.3,0,.5,0,.7s0,.5,0,.7,0,.5,0,.7h-14.2v10.9h11.4c0,.2,0,.4,0,.6,0,.3,0,.5,0,.7s0,.5,0,.7c0,.3,0,.5,0,.7h-11.4v12.9h14.6c0,.2,0,.4,0,.6,0,.2,0,.5,0,.7s0,.5,0,.7c0,.3,0,.5,0,.7h-17.7v-32.3h0Z"/>
  <path d="M688.8,368.7c.2,0,.4,0,.7,0,.3,0,.6,0,.9,0s.5,0,.8,0c.3,0,.5,0,.7,0v29.5h13.8c0,.2,0,.4,0,.7,0,.3,0,.5,0,.7s0,.5,0,.7c0,.3,0,.5,0,.6h-16.9v-32.3h0Z"/>
</svg>