<?xml version="1.0" encoding="UTF-8"?>
<svg id="Layer_1" xmlns="http://www.w3.org/2000/svg" version="1.1" viewBox="0 0 72.5 61.2">
  <!-- Generator: Adobe Illustrator 30.5.0, SVG Export Plug-In . SVG Version: 2.1.4 Build 167)  -->
  <g>
    <path d="M12.5,15.2c1.1.7,2.3,1.1,3.7,1.1s3.1-.5,4.5-1.4c.5-.4,1-.7,1.4-1.1.1.7.4,1.3.7,1.6.5.4,1,.7,1.8.7,1.1,0,2.1-.4,3-1.3.3-.3.6-.6.9-1,.1.6.4,1.1.8,1.5.5.6,1.1.8,1.9.8,1.4,0,2.6-.9,3.8-2.6,0,.9.3,1.5.8,1.9.5.4,1,.7,1.8.7,1.1,0,2.1-.4,3.1-1.3.8-.7,1.3-1.5,1.8-2.5,0,0,0,0,0,0,1.1-2.2,1.9-3.9,2.4-5.1.1.2.3.4.5.7.6.8,1,1.6,1.3,2.4.3.8.3,1.5.1,2.3-.1.7-.5,1.2-1,1.7-.5.5-1.1.7-1.8.7s-1.1-.3-1.7-.8c0,0-.2,0-.4.1-.2.2-.3.4-.4.6s0,.4,0,.5c.9.7,1.9,1.1,3,1.1.5,0,.8,0,1.1,0,1.8,0,3.3-.4,4.7-1.3.7-.4,1.3-.9,1.8-1.5.2.6.4,1.2.8,1.6.5.6,1.2.8,1.9.8,1.4,0,2.6-.9,3.8-2.6,0,.9.3,1.5.8,1.9.5.4,1,.7,1.8.7,1.1,0,2.1-.4,3.1-1.3,1-.9,1.7-2,2.1-3.2,0-.2,0-.4-.2-.4-.2-.1-.4-.1-.6,0s-.4.1-.5.3c-.4.9-.9,1.7-1.5,2.3-.5.6-1.1.9-1.6.9s-.8-.3-.9-.9c0-.6,0-1.4.4-2.3.3-.7.7-2,1.4-3.7.7-1.7,1.1-2.8,1.3-3.4,0-.1,0-.2,0-.3,0-.3-.4-.3-1.3.1-1,.5-1.7.9-2,1.2-.2-.7-.7-1.2-1.3-1.4-.9-.3-1.8-.2-2.7.3s-1.8,1.2-2.5,2.1c-.8,1-1.4,2.1-1.8,3.3-.2.6-.4,1.2-.5,1.7,0,0,0,0,0,0-.4.9-1,1.6-1.7,2.2-.7.6-1.5,1.1-2.3,1.4.7-.6,1.1-1.3,1.3-2.1,0-.3.1-.6.1-.9s0-.6,0-.9-.1-.6-.2-.8c0-.2-.2-.5-.4-.8s-.3-.6-.4-.7c-.1-.2-.3-.4-.5-.8-1.5-1.9-1.9-3.4-1.3-4.5,0-.1,0-.2-.2-.4-.3-.2-.7-.3-1.2-.3-.7,0-1.2.3-1.5.9-.2.5-.2,1.2,0,2-.5,1.4-1.4,3.5-2.7,6.2h0c-.4.8-.8,1.4-1.3,1.9-.5.6-1.1.9-1.6.9s-.8-.3-.9-.9c0-.6,0-1.4.4-2.3.3-.7.7-2,1.4-3.7.7-1.7,1.1-2.8,1.3-3.4,0-.1,0-.2,0-.3,0-.3-.4-.3-1.3.1-1,.5-1.7.9-2,1.2-.2-.7-.7-1.2-1.3-1.4-.9-.3-1.8-.2-2.7.3s-1.8,1.2-2.5,2.1c-.8,1-1.4,2.1-1.8,3.3-.2.6-.4,1.2-.5,1.7,0,0,0,0,0,0-.4.9-.9,1.7-1.4,2.3-.5.6-1.1.9-1.7.9s-.8-.3-.9-.9c0-.6,0-1.4.4-2.4.3-.9.7-1.9,1.2-3.1s.8-1.9.9-2c.2-.6.3-.9.2-1s-.4-.2-.9-.2-.5,0-.6,0c-.1,0-.3,0-.4,0s-.3,0-.4.1-.2.2-.3.3c-.1.1-.2.3-.3.4,0,.2-.2.4-.3.6-.1.2-.3.6-.5,1.2s-.4,1-.5,1.3c-.1.3-.3.7-.4,1-.2.5-.3.9-.4,1.4h0c-.5,1-1.2,1.9-2.2,2.5-1,.6-2,1-3.2,1s-1.9-.3-2.6-.9-1.1-1.4-1.3-2.4-.1-2.2.2-3.5c.5-1.9,1.4-3.5,2.6-4.8,1.2-1.3,2.4-1.9,3.6-1.9s.9.3,1.1.8c.1.5,0,1.3-.2,2.1-.3.9-.8,1.8-1.5,2.7,0,0,0,.2,0,.2.2.2.7.2,1.2.1.9-.1,1.5-.4,1.9-1,.6-.9.9-1.8,1-2.8,0-.9-.2-1.7-.7-2.4-.5-.6-1.3-1-2.2-1.2-.6,0-1.3,0-2,.2-.7.2-1.5.5-2.2,1-.7.5-1.4,1-2.1,1.6-.7.6-1.2,1.4-1.8,2.2-.5.9-.9,1.8-1.2,2.7-.5,1.7-.5,3.2-.1,4.4.4,1.3,1.1,2.3,2.2,3h0ZM54.6,12.1c.1-.8.3-1.6.7-2.5.5-1.3,1.1-2.4,1.8-3.3.7-.9,1.4-1.3,2-1.2.3,0,.6.3.7.7s.2.9.1,1.4c0,.5-.2,1.1-.4,1.7l-.2.7h0c-.3.9-.7,1.7-1.1,2.4s-.9,1.4-1.4,1.9-1,.8-1.5.8-.6-.2-.7-.6c-.1-.4-.1-1,0-1.8h0ZM30.9,12.1c.1-.8.4-1.6.7-2.5.5-1.3,1.1-2.4,1.8-3.3.7-.9,1.4-1.3,2-1.2.3,0,.6.3.7.7.1.4.2.9.1,1.4,0,.5-.2,1.1-.4,1.7l-.2.7h0c-.3.9-.7,1.7-1.1,2.4s-.9,1.4-1.4,1.9-1,.8-1.5.8-.6-.2-.7-.6c-.1-.4-.1-1,0-1.8h0Z"/>
    <path d="M26.6,2.9c.4.1.8,0,1.1,0,.4-.2.6-.4.8-.7s.1-.7,0-1c-.2-.3-.4-.6-.8-.7-.4-.1-.8,0-1.1,0-.4.1-.6.4-.8.7-.1.3-.1.7,0,1,.2.3.5.5.8.7Z"/>
    <path d="M10.8,25.6c.2.1.7.2,1.2.1.9-.1,1.5-.4,1.9-1,.3-.5.5-1,.6-1.6,0-.5,0-1-.1-1.5-.2-.5-.5-.8-1-1.2-.5-.3-1.1-.5-1.8-.6-.9-.1-1.9-.1-2.8,0-.9.2-1.7.5-2.4,1s-1.2,1.1-1.5,1.8c-.4,1-.4,1.9,0,2.8.4.9,1.2,1.6,2.3,2.3.7.4,1.2,1,1.5,1.8s.3,1.5,0,2.4c-.3,1.1-.9,2-1.8,2.5-.9.5-1.8.6-2.9.3-.4-.1-.8-.3-1-.7-.2-.3-.4-.8-.4-1.2,0-.5,0-.9.2-1.4.2-.5.5-1,1-1.4.5-.5,1.1-.8,1.8-1,.1,0,.1-.1.1-.2,0-.2-.4-.4-.9-.5-.9-.3-1.7-.2-2.3,0-.6.3-1.2.7-1.6,1.2-.4.5-.7,1-.9,1.5-.2.5-.2,1-.1,1.6s.2,1,.5,1.5.7.9,1.2,1.2c.5.3,1.1.6,1.8.7.8.2,1.7.2,2.5.2.8,0,1.6-.3,2.3-.5s1.3-.7,1.8-1.2.9-1.2,1.2-1.9c.4-1.1.4-2.1,0-3.1-.4-1-1.2-1.9-2.4-2.6-.8-.5-1.3-1-1.5-1.7-.3-.7-.3-1.4,0-2,.2-.5.4-.8.7-1.1.3-.3.6-.5.9-.7.3-.1.7-.2,1-.3s.7,0,1,.1c.6.2.9.7.8,1.5,0,.8-.5,1.7-1.2,2.6,0,0,0,.2,0,.2h0Z"/>
    <path d="M72.4,30.8c0-.3-.1-.6-.2-.8,0-.2-.2-.5-.4-.8-.2-.3-.3-.5-.4-.7s-.3-.5-.5-.8c-1.4-1.9-1.9-3.4-1.3-4.5,0-.1,0-.2-.2-.4-.3-.2-.7-.3-1.2-.3-.7,0-1.2.3-1.4.9-.2.5-.2,1.2,0,2-.4,1.4-1.3,3.4-2.6,6-.5.9-1,1.7-1.8,2.2-.8.6-1.7.9-2.7.9s-1.3-.2-1.7-.7c-.4-.5-.7-1.1-.7-2,1.5-.1,2.8-.5,4.1-1.2s2.1-1.6,2.5-2.8c.2-.6.3-1.1.2-1.6,0-.5-.3-1-.6-1.5-.3-.4-.8-.8-1.3-.9-.7-.2-1.4-.2-2.1,0-.7.2-1.4.6-2.1,1.1-.6.5-1.2,1.2-1.8,2-.5.8-1,1.6-1.3,2.6-.3.7-.4,1.4-.5,2-1,2-1.9,3-2.7,3s-.6-.2-.7-.5-.2-.7,0-1.1c.1-.9.5-2,1-3.3.5-1.3,1.2-2.5,2-3.8,0,0,0-.2-.3-.4-.2-.2-.4-.4-.7-.5-.2,0-.4-.1-.6,0s-.5,0-.9.1c-.4,0-.8,0-1.2,0-.4-.1-.7-.4-.7-.8,0-.4.2-1,.7-1.6,0-.1,0-.2-.1-.3-.3-.2-.8-.2-1.3-.1-.8.1-1.4.5-1.7,1-.4.8-.2,1.6.5,2.4-.5,1.5-1.2,3.4-2.3,5.8-.4.9-.9,1.7-1.5,2.3-.5.6-1.1.9-1.6.9s-.8-.3-.9-.9c0-.6,0-1.4.4-2.3.3-.7.7-2,1.4-3.7.7-1.7,1.1-2.9,1.3-3.4,0-.1,0-.2,0-.3,0-.3-.4-.3-1.3.1-1,.5-1.7.9-2,1.2-.2-.7-.7-1.2-1.3-1.4-.9-.3-1.8-.2-2.7.3s-1.8,1.2-2.5,2.1-1.4,2.1-1.8,3.3c-.2.6-.4,1.2-.5,1.7,0,0,0,0,0,0-.4.9-.9,1.7-1.5,2.3-.5.6-1.1.9-1.6.9s-.8-.3-.9-.9c0-.6,0-1.4.4-2.3.6-1.6,1.9-4.9,4-10,.2-.5.3-.9.2-1,0-.1-.4-.2-.9-.2s-1.2,0-1.4.2c-.2.2-.5.6-.8,1.3-2,4.7-3.1,7.5-3.3,8.3-.2.5-.3.9-.4,1.3,0,0,0,0,0,0-.4,1-.9,1.7-1.5,2.3-.5.6-1.1.9-1.6.9s-.8-.3-.9-.9c0-.6,0-1.4.4-2.3.3-.7.7-2,1.4-3.7.7-1.7,1.1-2.9,1.3-3.4,0-.1,0-.2.1-.3,0-.3-.4-.3-1.3.1-1,.5-1.7.9-2,1.2-.2-.7-.7-1.2-1.3-1.4-.9-.3-1.8-.2-2.7.3-.9.5-1.8,1.2-2.5,2.1-.8,1-1.4,2.1-1.8,3.3-.5,1.3-.6,2.4-.6,3.4,0,1,.4,1.7.9,2.3s1.1.8,1.9.8c1.4,0,2.6-.9,3.8-2.6,0,.8.4,1.5.8,1.9.5.4,1,.7,1.8.7,1.1,0,2.1-.5,3.1-1.3.3-.2.5-.5.7-.8.1.6.4,1.1.7,1.4.4.4,1,.7,1.8.7,1.1,0,2.1-.5,3.1-1.3.3-.3.6-.6.9-1,.2.6.4,1.1.8,1.5.5.6,1.2.8,1.9.8,1.4,0,2.6-.9,3.8-2.6,0,.8.3,1.5.8,1.9.5.4,1,.7,1.8.7,1.1,0,2.1-.5,3.1-1.3.8-.7,1.3-1.5,1.8-2.5,0,0,0,0,0,0,1-2,1.9-4,2.6-5.9.7.2,1.3.3,1.9.4-.5.9-1,1.9-1.4,3s-.7,2-.8,2.8c-.2,1.1,0,2,.5,2.7.5.7,1.1,1,2,1s1.1-.1,1.6-.4c.5-.2,1-.6,1.4-1,.3-.3.6-.7.8-1.1.3.7.8,1.3,1.5,1.7.8.5,1.7.8,2.8.8,1.5,0,2.8-.4,4-1.3,1-.7,1.8-1.7,2.2-2.8,1.1-2.1,1.8-3.8,2.3-4.9.1.2.3.4.5.7.6.8,1,1.6,1.3,2.4.3.8.3,1.5.1,2.3-.1.7-.5,1.2-1,1.7-.5.5-1.1.7-1.8.7s-1.1-.3-1.7-.8c0,0-.2,0-.4.1s-.3.3-.4.6c0,.2,0,.4,0,.5.9.7,1.9,1.1,3,1.1,2,0,3.5-1.5,3.5-1.5.7-.6,1.1-1.3,1.3-2.1,0-.3.1-.6.1-.9,0-.3,0-.6,0-.9h0ZM57.8,29.4c.5-1.3,1-2.4,1.7-3.2.7-.8,1.3-1.2,1.9-1.2s.5.2.5.7-.1,1-.4,1.7c-.4,1-1,1.8-1.8,2.4s-1.5,1-2.2,1c0-.3.2-.8.3-1.4h0ZM21.1,27c0,.5-.2,1.1-.4,1.7l-.2.7h0c-.3.9-.7,1.7-1.1,2.4s-.9,1.4-1.4,1.9-1,.8-1.5.8-.6-.2-.7-.7-.1-1,0-1.8.3-1.6.7-2.5c.5-1.3,1.1-2.4,1.8-3.3.7-.9,1.4-1.3,2-1.2.3,0,.6.3.7.7s.2.9.1,1.4h0ZM40.3,27c0,.5-.2,1.1-.4,1.7l-.2.7h0c-.3.9-.7,1.7-1.1,2.4s-.9,1.4-1.4,1.9-1,.8-1.5.8-.6-.2-.7-.7-.1-1,0-1.8.3-1.6.7-2.5c.5-1.3,1.1-2.4,1.8-3.3.7-.9,1.4-1.3,2-1.2.3,0,.6.3.7.7s.2.9.1,1.4h0Z"/>
  </g>
  <g>
    <path d="M14.7,57.7c.2,0,.3,0,.4,0,.1,0,.2-.1.2-.3s0-.2-.1-.3c-.1,0-.2,0-.4,0s-.4,0-.5.2c0,0-.1.2-.1.3h-.9c0-.3.1-.5.3-.8.2-.3.6-.5,1.2-.5s.7,0,1,.2.4.4.4.8v2c0,.1,0,.2,0,.2,0,0,0,0,.1,0h0c0,.1-1,.1-1,.1,0,0,0-.1,0-.2s0-.1,0-.2c-.1.1-.3.2-.4.3-.2.1-.4.2-.7.2s-.6,0-.8-.3c-.2-.2-.3-.4-.3-.8s.2-.7.5-.9c.2,0,.4-.2.8-.2h.3s0,0,0,0ZM15.3,58.1c0,0-.1,0-.2,0s-.1,0-.2,0h-.2c-.2,0-.3.1-.4.2-.1,0-.2.2-.2.4s0,.3.1.3.2,0,.3,0c.2,0,.4,0,.6-.2s.2-.3.3-.6v-.3h0Z"/>
    <path d="M19.2,59.8h-.9v-4.7h.9v4.7Z"/>
    <path d="M24.3,56.7c.3.3.4.7.4,1.3s-.1,1.1-.4,1.4-.6.5-1.1.5-.5,0-.7-.2c-.1,0-.2-.2-.3-.3v1.8h-.9v-4.8h.9v.5c.1-.2.2-.3.3-.4.2-.2.4-.2.7-.2.4,0,.8.2,1,.5h0ZM23.6,57.3c-.1-.2-.3-.3-.6-.3s-.6.2-.7.5c0,.2-.1.4-.1.6,0,.4.1.7.3.8.1,0,.3.1.5.1s.5,0,.6-.3.2-.5.2-.8,0-.5-.2-.7Z"/>
    <path d="M27.6,55.9h-.9v-.8h.9v.8ZM26.7,56.3h.9v3.5h-.9v-3.5Z"/>
    <path d="M32.6,56.5c.2.2.3.5.3.9v2.3h-.9v-2.1c0-.2,0-.3,0-.4,0-.2-.3-.3-.5-.3s-.5.1-.6.4c0,.1,0,.3,0,.5v1.9h-.9v-3.5h.9v.5c.1-.2.2-.3.3-.4.2-.1.4-.2.7-.2s.6,0,.9.3h0Z"/>
    <path d="M37.3,56.4c.2.1.4.3.6.5.1.2.2.4.3.7,0,.2,0,.4,0,.7h-2.5c0,.3.1.6.4.7.1,0,.3.1.5.1s.4,0,.5-.2c0,0,.1-.1.2-.2h.9c0,.2-.1.4-.3.6-.3.3-.8.5-1.3.5s-.9-.1-1.2-.4c-.3-.3-.5-.8-.5-1.4s.2-1.1.5-1.4.7-.5,1.2-.5.6,0,.8.2h0ZM36,57.2c-.1.1-.2.3-.2.5h1.6c0-.2,0-.4-.2-.5-.1-.1-.3-.2-.5-.2s-.4,0-.5.2Z"/>
    <path d="M43.8,58.7c0,.2,0,.3.1.3.1.1.3.2.6.2s.3,0,.4,0c.1,0,.2-.1.2-.2s0-.2-.1-.2-.4-.1-1-.3c-.4,0-.7-.2-.8-.4-.2-.1-.2-.3-.2-.6s.1-.6.4-.8c.2-.2.6-.3,1.1-.3s.8,0,1.1.3.4.5.5.9h-.9c0-.1,0-.2,0-.3,0-.1-.3-.2-.5-.2s-.3,0-.4,0-.1.1-.1.2,0,.2.1.2.4.1,1,.2c.4,0,.6.2.8.4.2.2.3.4.3.7s-.1.6-.4.8c-.3.2-.7.3-1.2.3s-1-.1-1.2-.3-.4-.5-.4-.9h.9,0Z"/>
    <path d="M50.9,59.4c-.3.4-.7.5-1.3.5s-1-.2-1.3-.5-.4-.8-.4-1.3.2-.9.4-1.3.7-.5,1.3-.5,1,.2,1.3.5.4.8.4,1.3-.2.9-.4,1.3ZM50.2,58.9c.1-.2.2-.5.2-.8s0-.6-.2-.8-.3-.3-.6-.3-.5,0-.6.3-.2.5-.2.8,0,.6.2.8.3.3.6.3.5,0,.6-.3Z"/>
    <path d="M54.2,56.3v2.1c0,.2,0,.3,0,.5,0,.2.2.3.5.3s.5-.1.6-.4c0-.1,0-.3,0-.5v-1.9h.9v3.5h-.9v-.5s0,0,0,0,0,0-.1.1c-.1.1-.3.2-.4.3s-.3,0-.5,0c-.5,0-.9-.2-1-.5,0-.2-.2-.5-.2-.9v-2.1h.9,0Z"/>
    <path d="M59.5,59.8h-.9v-4.7h.9v4.7Z"/>
  </g>
</svg>