<?xml version="1.0" encoding="utf-8"?>
<!-- Generator: Adobe Illustrator 30.5.0, SVG Export Plug-In . SVG Version: 9.03 Build 0)  -->
<svg version="1.0" id="Livello_1" xmlns="http://www.w3.org/2000/svg" xmlns:xlink="http://www.w3.org/1999/xlink" x="0px" y="0px"
	 viewBox="0 0 1596.8 1048.9" style="enable-background:new 0 0 1596.8 1048.9;" xml:space="preserve">
<g transform="translate(0.000000,1083.000000) scale(0.100000,-0.100000)">
	<path d="M5812.1,8925V7020h862h861v103l1,102l-680-3l-679-3l2,1806l3,1805h-185h-185V8925z"/>
	<path d="M9008.1,10778c-7-29-29-100-51-158c-35-94-78-215-250-700c-98-277-150-422-250-700c-56-157-126-352-155-435
		c-29-82-73-206-98-275c-75-210-302-846-360-1010c-93-261-143-393-166-437l-21-43h108h109l5,63c4,45,27,122,76,258
		c39,107,119,327,177,489c59,162,122,337,141,389s34,96,34,98s353,3,783,3h784l133-367c73-203,168-465,212-583s85-244,92-280l12-65
		l212-3c117-1,212,0,212,3s-11,22-24,43c-37,59-53,102-371,972c-13,36-75,205-139,375c-63,171-149,405-191,520
		c-42,116-102,278-132,360c-31,83-65,175-75,205c-11,30-72,195-135,365c-120,325-187,506-277,753c-30,81-57,162-61,180l-7,32h-158
		h-158L9008.1,10778z M9362.1,9375c158-423,290-778,293-787c4-17-27-18-585-18h-590l63,173c147,404,422,1155,477,1304
		c23,62,44,109,48,105C9071.1,10148,9204.1,9799,9362.1,9375z"/>
	<path d="M5904.1,5133c-4-3-7-15-7-26c0-23-60-202-170-507c-45-124-99-274-120-335c-21-60-68-191-103-290c-73-201-181-504-327-915
		c-54-151-107-300-118-330s-57-158-102-285c-96-269-266-744-320-895c-21-58-49-130-64-160l-26-55l101-3c56-1,104-1,106,2
		c2,2,8,34,14,70c8,61,23,108,129,396c21,58,84,231,139,385s114,316,130,360l29,80l783,2l784,3l179-498c99-273,194-537,213-587
		c18-49,39-118,45-153l13-62h212h212l-29,50c-17,28-59,130-95,228c-36,97-73,195-82,217c-8,22-37,101-63,175
		c-55,155-204,558-225,610c-8,19-89,240-181,490c-91,250-196,538-234,640s-108,291-155,420c-48,129-117,318-155,420
		c-127,344-179,492-186,526l-6,34h-157C5981.1,5140,5907.1,5137,5904.1,5133z M6251.1,3676c163-434,296-791,296-793c0-1-266-3-591-3
		c-559,0-591,1-584,18c4,9,38,103,77,207c38,105,93,255,123,335s108,294,173,475c66,182,127,348,135,370s27,73,42,113s29,72,30,70
		C5954.1,4466,6088.1,4110,6251.1,3676z"/>
	<path d="M607.1,5040c0-74-15-177-125-845c-19-115-53-322-75-460c-22-137-61-371-85-520c-67-411-213-1305-250-1535
		c-28-176-48-273-71-352c-5-16,4-18,90-18h96v86c0,53,13,164,35,288c30,176,61,358,160,941c301,1774,333,1956,339,1962
		c2,3,9-10,14-29c9-27,164-469,258-733c14-38,34-95,44-125s40-118,68-195c27-77,96-270,152-430c56-159,155-441,220-625
		s164-465,219-625c56-159,113-323,128-362c14-40,26-91,27-113l1-40h156h156l7,52c7,51,27,111,216,658c50,146,100,290,110,320
		s116,336,235,680s265,767,325,940c211,614,242,705,249,718s13-20,106-633c31-198,67-430,80-515c30-191,174-1123,186-1205
		c4-33,38-251,74-485c50-323,64-438,59-477l-6-53h186c102,0,186,3,186,8c0,4-7,34-14,67c-16,64-46,257-126,805
		c-28,190-65,435-81,545c-16,110-48,322-70,470c-22,149-44,297-49,330s-27,182-49,330c-38,254-68,461-141,943c-16,112-30,228-30,258
		v54h-169h-170l-6-47c-8-57,3-26-555-1628c-111-319-254-728-317-910c-63-181-129-373-148-425c-18-52-54-154-79-227
		c-26-73-51-145-57-160l-11-28l-10,25c-14,34-160,456-480,1385c-60,176-125,363-143,415s-67,194-109,315c-41,121-147,428-235,682
		s-167,494-177,532l-17,71h-163h-164V5040z"/>
	<path d="M8042.1,2973V825l-23-58c-27-66-76-120-130-143c-48-20-154-20-211,0c-63,23-153,80-215,137c-40,36-56,46-63,36
		c-6-6-38-70-72-140c-73-150-76-140,46-204c263-138,518-149,760-31c96,47,169,117,221,216c32,59,34,69,43,220c5,88,10,1061,12,2210
		l2,2052h-185h-185V2973z"/>
	<path d="M9303.1,5103c5-10,11-650,14-1423l6-1405l26-105c61-240,152-405,303-548c185-177,434-288,765-344c247-41,601-25,850,39
		c470,120,765,416,877,878c15,63,17,204,24,1420c4,743,11,1385,14,1428l7,77h-96h-97l6-47c15-112,9-2527-6-2699c-4-45-19-124-34-175
		c-110-380-352-616-727-710c-214-54-549-67-734-29c-372,75-648,298-763,616c-69,190-66,114-66,1589c0,732,3,1358,7,1393l8,62h-196
		C9308.1,5120,9295.1,5119,9303.1,5103z"/>
	<path d="M13065.1,5068c10-72,9-3628-1-3700l-7-58h96h97l-7,47c-6,43-9,3403-4,3409c2,1,68-91,148-204s193-273,252-356
		s178-252,265-375s184-261,215-305c32-45,79-112,106-151c26-38,99-142,162-230c62-88,139-196,170-240s173-244,315-445
		c142-201,278-394,303-430c24-36,73-105,109-155c209-292,350-496,368-528l20-37h148h148l-8,23c-4,12-8,869-8,1905v1882h-94
		c-93,0-93,0-85-22c12-34,17-3331,5-3323c-6,3-68,88-138,188c-70,100-164,233-208,294c-44,62-150,212-235,333
		c-224,319-282,402-563,800c-61,85-126,178-145,205c-19,28-42,60-51,71c-9,12-22,30-28,40c-7,11-81,116-164,234
		c-84,118-173,244-197,280c-25,36-75,107-111,157c-36,51-115,163-176,249c-60,86-152,215-202,287c-51,72-101,148-110,169l-17,38
		h-187h-188L13065.1,5068z"/>
</g>
</svg>
