<?xml version="1.0" encoding="utf-8"?>
<!-- Generator: Adobe Illustrator 30.3.0, SVG Export Plug-In . SVG Version: 9.03 Build 0)  -->
<svg version="1.0" id="Livello_1" xmlns="http://www.w3.org/2000/svg" xmlns:xlink="http://www.w3.org/1999/xlink" x="0px" y="0px"
	 viewBox="0 0 232.4 116.5" style="enable-background:new 0 0 232.4 116.5;" xml:space="preserve">
<g>
	<path d="M221.3,48.8c1.7-3.4,10.6-20.2,10.6-20.2s1.2-1.7,0.1-2.5c-2.8-1.6-7.8-1-11.3,0.2c-9.2,3.1-14.3,9.3-16.8,13.4
		c0,0-4.7,6.5-10.6,12.3c-1.1,1.1-2.3,2.2-3.6,3.1c-0.7,0.5-1.6,1-2.6,1.2c-0.8,0.2-2.1,0.4-2.7-0.2c-0.8-0.7-0.4-2.4-0.3-3.2
		c0.2-1.2,0.7-2.6,1.1-3.7c0.6-1.6,1.2-3.3,1.9-4.9c0.3-0.7,0.6-1.4,1-2.3c17.4-17.6,20.9-31.1,20.9-31.1s0.6-2.1-0.3-2.5
		c-1.1-0.5-1.9,0.3-1.9,0.3s-9.7,8.8-15.2,17.3c-6.2,9.8-8.2,17.3-8.2,17.3c-3.3,5.9-13.4,14.7-16.4,12.9c-3-1.7,0-7.1,0-7.1
		s4.8-8,6.3-13.4c1.4-5.4-2-8.3-3.1-9.3c-1-1-0.5-3.2-0.5-3.2c0-0.1,0-0.2,0-0.3c0-1.5-1-2.8-2.3-2.8c-1.2,0-2.3,1.2-2.3,2.8
		c0,1.2,0.6,2.2,1.4,2.6c0.7,0.3,0.7,0.7,0.7,0.8c-1.6,3.7-3.5,7.4-5.4,11c-1.5,2.8-3.3,5.1-5.2,7.6c-9.4,12.3-15.2,11.5-15.2,11.5
		c-2.7-0.1-3-0.6-3.2-1.2c-0.1-0.2,0-0.3,0-0.5c0.1-1.8,0.4-3.8,1.3-5.4c0.3-0.6,0.6-0.9,1.1-1.2c2.2-1.3,4.1-3,5.9-4.7
		c1.9-1.7,3.5-3.8,4.9-5.8c2.2-3.2,3.7-6,4.2-9.9c0-0.3,0-1-0.1-1.3c-0.2-0.5-0.7-0.7-1.2-0.7c-0.7,0-1.3,0.3-1.9,0.6
		c-4.2,1.5-7.3,4.6-10,8.1c-3.4,4.2-6.1,9-7.5,14.3c0,0.2-0.2,0.8-0.3,0.9c-2.4,2.1-15.8,6.6-15.8,6.6s-0.9,0.3-0.5,1.1
		c0.2,0.4,0.6,0.4,1.5,0.1c1.2-0.4,14.2-5.9,14.2-5.9s1-0.4,1,0.6s0.1,2.8,2.7,4.4c0,0,14,8.6,31.3-29c0.2,0.1,4.7,1.9,1.6,7.3
		c-3.2,5.4-6.9,11.8-6.9,11.8s-4.9,9.3,3.1,10.8c5.5,0.9,11.7-5.7,14.2-8.6c0.2-0.3,0.6-0.1,0.6,0.3c0.4,1.8-1.2,6.8,1.6,8.2
		c2.4,1.3,5.4,0.1,7.4-1.4c1.3-1,2.5-2.3,3.6-3.4c2.3-2.3,4.5-4.6,6.7-7c-1.1,3.7-2.9,11.3,0.6,11.9c4.8,0.9,10.6-5,15.7-9.3
		c0.1-0.1,0.2,0,0.2,0.1c-3.7,7.9,1.5,12,4.5,12.8c0.1,0,0.2-0.2,0.1-0.2C216.1,57.3,219.3,52.5,221.3,48.8z M189.3,38.4
		c2.3-4.7,7.7-15.7,17.4-27.1c0.2-0.2,0.5,0,0.4,0.3c-1.8,5-9.2,18.3-17.4,27.1C189.5,38.9,189.2,38.6,189.3,38.4z M148.6,32.4
		c1.7-2.1,3.4-3.7,5.2-5c0.2-0.2,0.6,0,0.6,0.3c-0.5,4.4-4.5,11-12.4,17.7c-0.3,0.2-0.7-0.1-0.6-0.4C142.1,43,144.5,37,148.6,32.4z
		 M217.5,46.1c-1,1.3-11.1,11.3-15.6,9.9c0,0-1.3-0.4,0.5-4.3c1.5-3.3,13.4-26.4,25.1-24.9c0.4,0,0.9,0.5,0.7,0.8
		C223.7,36.6,218.5,44.6,217.5,46.1z"/>
	<path d="M232.3,111.1c-0.2-0.4-0.4-0.7-0.8-1c-0.3-0.3-0.7-0.5-1.2-0.7c-0.5-0.2-1-0.4-1.5-0.6c-0.5-0.2-1-0.3-1.4-0.5
		c-0.4-0.1-0.7-0.3-0.9-0.5c-0.2-0.2-0.4-0.4-0.6-0.6c-0.1-0.2-0.2-0.5-0.2-0.9c0-0.5,0.2-0.9,0.6-1.2c0.4-0.3,0.9-0.5,1.5-0.5
		c0.8,0,1.5,0.3,2.1,0.8c0.6,0.5,0.9,1.2,1.1,2.2h0.8l-0.2-3.9h-0.9l-0.3,0.6c-0.3-0.2-0.7-0.3-1.2-0.4c-0.5-0.1-1-0.2-1.4-0.2
		c-1.2,0-2.3,0.3-3,1c-0.7,0.7-1.1,1.5-1.1,2.6c0,0.6,0.1,1,0.3,1.4c0.2,0.4,0.5,0.8,0.9,1c0.3,0.3,0.7,0.5,1.2,0.7
		c0.5,0.2,0.9,0.4,1.3,0.5c0.5,0.1,0.9,0.3,1.3,0.4c0.4,0.1,0.7,0.3,1,0.5c0.3,0.2,0.5,0.4,0.6,0.6c0.1,0.2,0.2,0.5,0.2,0.9
		c0,0.7-0.2,1.2-0.6,1.5c-0.4,0.4-1,0.5-1.8,0.5c-0.5,0-1-0.1-1.5-0.4c-0.4-0.2-0.8-0.5-1.1-0.9c-0.3-0.3-0.5-0.7-0.8-1.1
		c-0.2-0.4-0.3-0.8-0.4-1.1h-0.8l0.1,4.2h0.9l0.2-0.8c0.2,0.2,0.7,0.4,1.2,0.7c0.6,0.2,1.2,0.4,1.9,0.4c1.3,0,2.5-0.3,3.3-1
		c0.8-0.7,1.2-1.6,1.2-2.8C232.5,111.9,232.4,111.5,232.3,111.1z"/>
	<path d="M88.8,114.9c-0.2-0.1-0.4-0.3-0.5-0.5c-0.1-0.2-0.2-0.4-0.2-0.7c0-1,0-2.1,0-3s0-1.9,0-3.1c0-0.8-0.1-1.5-0.3-2.1
		c-0.2-0.5-0.5-0.9-0.9-1.2c-0.4-0.3-0.9-0.5-1.4-0.6c-0.5-0.1-1.1-0.1-1.8-0.1c-0.5,0-1,0.1-1.5,0.2c-0.5,0.2-0.9,0.3-1.3,0.6
		c-0.4,0.3-0.8,0.6-1,0.9c-0.3,0.3-0.4,0.7-0.4,1.1c0,0.4,0.1,0.7,0.3,1c0.2,0.3,0.5,0.4,0.9,0.4c0.4,0,0.8-0.1,1.1-0.3
		s0.4-0.5,0.4-0.8c0-0.3,0-0.6-0.1-0.9c-0.1-0.3-0.1-0.5-0.1-0.7c0.1-0.1,0.3-0.3,0.7-0.4c0.3-0.1,0.7-0.2,1-0.2
		c0.5,0,1,0.1,1.2,0.3c0.3,0.2,0.5,0.5,0.7,0.8c0.1,0.3,0.2,0.5,0.3,0.8c0.1,0.3,0.1,0.5,0.1,0.6v1.2c-0.4,0.2-1.1,0.5-2.3,0.9
		c-1.1,0.4-1.8,0.6-2.3,0.8c-0.3,0.1-0.6,0.3-0.9,0.5c-0.3,0.2-0.6,0.4-0.8,0.6c-0.3,0.3-0.4,0.6-0.6,1c-0.1,0.4-0.2,0.8-0.2,1.2
		c0,0.9,0.3,1.6,0.9,2.2c0.6,0.5,1.3,0.8,2.3,0.8c0.8,0,1.6-0.2,2.3-0.5c0.6-0.3,1.2-0.7,1.7-1.3h0.1c0.1,0.6,0.3,1,0.7,1.3
		c0.4,0.3,0.9,0.4,1.5,0.4c0.4,0,0.7,0,1-0.1c0.3-0.1,0.6-0.2,1-0.3v-0.8c-0.3,0-0.5,0-0.8,0C89.2,115,89,115,88.8,114.9z
		 M85.9,113.5c-0.3,0.4-0.7,0.7-1.1,1c-0.4,0.3-0.9,0.4-1.5,0.4c-0.5,0-1-0.2-1.3-0.5c-0.3-0.3-0.5-0.8-0.5-1.5c0-0.5,0.1-1,0.3-1.3
		c0.2-0.3,0.5-0.7,0.9-1c0.4-0.3,0.9-0.5,1.4-0.7c0.5-0.2,1.1-0.4,1.8-0.6V113.5z"/>
	<path d="M22.6,103.5c-1.7,0-3.3,0.6-4.3,1.8c-1.1,1.2-1.6,2.8-1.6,4.6c0,1,0.2,1.8,0.5,2.7c0.3,0.8,0.7,1.4,1.2,2.1
		c0.5,0.5,1.1,1,1.8,1.2c0.7,0.3,1.4,0.4,2.3,0.4c0.9,0,1.7-0.2,2.6-0.5c0.7-0.3,1.4-0.8,2-1.4c0.5-0.6,0.9-1.2,1.1-2.1
		c0.3-0.8,0.4-1.6,0.4-2.6c0-2-0.5-3.4-1.6-4.6C25.6,104.1,24.3,103.5,22.6,103.5z M25,113.9c-0.6,1-1.4,1.5-2.5,1.5
		c-0.6,0-1.1-0.1-1.5-0.4c-0.4-0.3-0.8-0.7-1-1.2c-0.3-0.5-0.5-1.1-0.6-1.7c-0.1-0.7-0.2-1.4-0.2-2.2c0-0.6,0.1-1.2,0.2-1.8
		c0.1-0.6,0.3-1.2,0.5-1.7c0.3-0.5,0.6-0.9,1.1-1.2c0.4-0.3,1-0.5,1.6-0.5c0.6,0,1.1,0.2,1.5,0.5c0.4,0.3,0.8,0.7,1,1.2
		c0.2,0.5,0.4,1,0.5,1.7c0.1,0.7,0.2,1.3,0.2,1.9C25.8,111.6,25.5,112.9,25,113.9z"/>
	<path d="M13.1,112.6c-0.3,0.4-0.7,0.8-1.1,1.2c-0.4,0.3-0.9,0.6-1.4,0.8c-0.5,0.2-1.1,0.3-1.8,0.3c-0.9,0-1.6-0.2-2.4-0.6
		c-0.7-0.4-1.3-0.9-1.8-1.6c-0.5-0.7-0.9-1.5-1.2-2.5s-0.4-1.9-0.4-3.1c0-1.2,0.1-2.5,0.4-3.5c0.3-1,0.6-1.8,1.1-2.6
		c0.5-0.7,1.1-1.2,1.7-1.5c0.7-0.3,1.4-0.5,2.3-0.5c0.7,0,1.3,0.2,1.8,0.5c0.5,0.3,1,0.7,1.4,1.3c0.3,0.5,0.6,1.1,0.9,1.8
		c0.3,0.7,0.4,1.3,0.6,1.9h1l-0.1-6.3h-1l-0.5,0.8c-0.6-0.4-1.3-0.7-1.9-0.9C9.9,98.2,9.2,98,8.3,98c-1.1,0-2.3,0.2-3.3,0.6
		s-1.9,1-2.7,1.8c-0.7,0.8-1.3,1.8-1.7,3c-0.4,1.1-0.6,2.4-0.6,3.8s0.2,2.7,0.6,3.8c0.4,1.1,1,2.1,1.7,2.9c0.7,0.8,1.5,1.3,2.6,1.7
		c0.9,0.4,1.9,0.6,3,0.6c1.6,0,3-0.4,4.2-1.1c1.2-0.7,2-1.9,2.8-3.7l-0.9-0.4C13.7,111.7,13.4,112.2,13.1,112.6z"/>
	<path d="M102.7,105.3c-0.9,0-1.6,0.3-2.3,0.9c-0.6,0.6-0.9,1.4-0.9,2.3c0,0.9,0.3,1.6,0.9,2.3c0.6,0.6,1.4,0.9,2.3,0.9
		c0.9,0,1.6-0.3,2.3-0.9c0.6-0.6,0.9-1.4,0.9-2.3c0-0.9-0.3-1.6-0.9-2.3C104.3,105.6,103.5,105.3,102.7,105.3z"/>
	<path d="M38.2,103.6c-0.5,0-1.1,0.2-1.7,0.5c-0.6,0.3-1.2,0.8-1.7,1.5h-0.1v-1.7l-0.2-0.2l-4,0.3v0.8c0.2,0,0.5,0,0.7,0.1
		c0.2,0,0.4,0.1,0.5,0.2c0.2,0.1,0.4,0.3,0.5,0.6c0.1,0.2,0.2,0.5,0.2,0.7v7.5c0,0.3-0.1,0.5-0.2,0.7c-0.1,0.2-0.3,0.3-0.5,0.4
		c-0.1,0-0.3,0.1-0.5,0.1c-0.2,0-0.4,0-0.6,0v0.8h6.4v-0.8c-0.2,0-0.5,0-0.8-0.1c-0.3,0-0.6-0.1-0.8-0.2c-0.2-0.1-0.4-0.2-0.5-0.4
		c-0.1-0.2-0.2-0.4-0.2-0.7v-7.1c0.4-0.6,0.8-1,1.3-1.3c0.5-0.3,0.9-0.5,1.3-0.5c0,0.1-0.1,0.3-0.1,0.4c0,0.1,0,0.3,0,0.5
		c0,0.3,0.1,0.5,0.4,0.8c0.2,0.2,0.6,0.3,1,0.3c0.4,0,0.7-0.2,0.9-0.5c0.2-0.3,0.3-0.7,0.3-1.1c0-0.6-0.2-1-0.5-1.3
		C39.2,103.7,38.8,103.6,38.2,103.6z"/>
	<path d="M136.1,7.4c0.7-0.9,2.6-2.9,5-1.7c8.8,4.1,2.6,16.9,2.6,16.9c-0.6,1.4-1.3,2.7-2.2,4c-0.7,1.2-1.5,2.5-2.6,3.5
		c-0.2,0.2-0.4,0.4-0.6,0.6c-0.8,0.6-2.5,1.4-3.4,0.6c-0.4-0.3-0.6-0.9-0.7-1.4c-0.2-0.7-0.2-1.3-0.2-2.1c0-1.4,0.4-2.8,0.9-4.1
		c0.6-2,1.4-4,2.5-5.8c1-1.7,2.4-3.2,3.4-4.9c0.2-0.4,0.3-0.9-0.1-1.1c-0.5-0.2-0.9,0.3-0.9,0.3c-2.4,2.9-4.3,6-5.6,9.5
		c-1,2.7-2,5.9-1.2,8.7c0.2,0.9,0.7,1.7,1.5,2.2c0.7,0.4,1.6,0.4,2.5,0.3c2.6-0.5,4.6-2.8,6.2-4.7c1.6-2.1,2.9-4.3,3.8-6.8
		c0.5-1.4,0.8-2.9,0.9-4.3c0.3-3.1-0.1-6.3-1.6-9c-1.5-2.7-4.1-4.2-7-4.9c0.6-0.7,1.2-1.3,1.8-1.8c0,0,0.4-0.8-0.2-1.1
		c-0.6-0.3-0.9,0.1-0.9,0.1c-0.7,0.8-1.4,1.6-2.1,2.6c-0.4-0.1-0.9-0.1-1.3-0.2c-4.8-0.5-9.9,0.3-14.6,1.9
		c-5.6,2-10.4,5.7-13.9,10.6c-2.8,3.7-5,7.8-6.4,12.2c-0.9,2.9-1.5,5.8-1.1,8.8c0.2,1.6,0.8,3.8,2.7,4.3c2.1,0.5,4.4-0.8,6.1-1.9
		c1.7-1.2,3.1-2.9,4.3-4.6c0.2-0.2,0.4-0.5,0.5-0.7c1.3-1.8,2.6-3.8,3.5-5.8c0.9-2.1,1.6-4.4,1.8-6.7c0.1-1-0.1-2.2-0.8-2.9
		c-1.1-0.9-2.9-0.6-3.9,0.1c-1.3,0.8-2.3,2.3-3.1,3.5c-2.3,3.1-3.8,6.7-4.3,10.4c0,0.3,0,0.7,0.3,0.7c0.3,0,0.5-0.6,0.6-0.8
		c1.4-3.5,2.8-7.1,4.9-10.2c0.5-0.7,1.2-1.3,1.9-1.9c0.6-0.5,1.3-1.1,2.3-0.9c0.7,0.2,0.8,0.9,0.8,1.5c0,2.2-0.9,4.4-1.7,6.4
		c-0.8,1.9-1.8,3.9-3.2,5.6c-1.1,1.5-2.4,3.1-3.8,4.4c-1.3,1.2-3,2.6-4.9,2.7c-1,0.1-1.9-0.9-2-1.8c-0.4-2.2-0.2-4.7,0.4-6.8
		c0.8-2.4,1.9-4.5,3.1-6.7c2.3-4,4.7-7.9,8-11.2c2.5-2.5,5.2-4.5,8.4-6.1c2.4-1.1,4.9-1.8,7.5-2.3c1.7-0.2,3.6-0.3,5.3-0.2
		c0.5,0,0.9,0.1,1.4,0.2c-7,9.7-12.9,23.9-17,30.7c-2.1,3.5-4.1,6.9-6.5,10c-1.8,2.5-3.8,4.8-6.2,6.9c-1.7,1.5-3.7,3-5.7,4
		c-1.3,0.7-3.2,1-4.7,1.3c-2.4,0.4-4.6,0.2-6.9-0.5c-2-0.6-3.9-1.9-4.9-3.8c-1.4-2.6-0.3-6.4,1.3-7.7c0,0,0.4-0.4,0.3,0.1
		c0,0.1-0.1,0.2-0.1,0.4c0,0.1,0,0.1,0,0.2c0,0.8,0.7,1.5,1.5,1.5c0.9,0,1.5-0.7,1.5-1.5c0-0.4-0.2-0.8-0.4-1
		c-0.2-0.2-0.4-0.3-0.6-0.4c-1.1-0.5-2.4,0.1-2.4,0.1c-0.9,0.6-2.1,1.9-2.5,3.1C83,49,82.9,50.3,83,51.4c0.9,6.6,9.5,7.1,9.5,7.1
		s15.2,1.9,25.4-13.5C123.3,37.2,129.3,18.3,136.1,7.4z"/>
	<path d="M219.1,114.5c-0.5,0.3-1.1,0.5-1.8,0.5c-0.7,0-1.3-0.1-1.8-0.4c-0.5-0.3-0.9-0.6-1.2-1.1c-0.3-0.5-0.6-1-0.7-1.7
		c-0.1-0.6-0.2-1.3-0.2-2.2h8v-0.8c0-0.7-0.1-1.4-0.3-2.1c-0.2-0.6-0.5-1.1-0.8-1.6c-0.4-0.5-0.9-0.8-1.5-1.1
		c-0.6-0.3-1.4-0.4-2.3-0.4c-0.8,0-1.6,0.2-2.4,0.5c-0.7,0.3-1.2,0.8-1.7,1.4c-0.5,0.6-0.8,1.3-1.1,2c-0.2,0.7-0.4,1.5-0.4,2.4
		c0,0.9,0.1,1.7,0.3,2.5c0.2,0.8,0.6,1.4,1,2.1c0.5,0.6,1.1,1,1.8,1.4c0.7,0.3,1.6,0.5,2.6,0.5c1.1,0,2.1-0.3,3-0.8
		c0.8-0.6,1.5-1.3,2.1-2.4l-0.8-0.5C220.2,113.5,219.7,114.1,219.1,114.5z M214.1,105.5c0.6-0.7,1.3-1,2.2-1c0.5,0,0.9,0.1,1.2,0.3
		c0.3,0.2,0.6,0.5,0.8,0.9c0.2,0.3,0.3,0.8,0.4,1.3c0.1,0.5,0.1,1,0.1,1.4h-5.6C213.2,107.3,213.5,106.2,214.1,105.5z"/>
	<path d="M77.2,59c-6.2-0.6-3.8-5.9-1.2-11c0.7-1.5,9.5-20,9.6-20.1c0,0,1.1-1.8,0-2.4c-16.4-4.9-29.2,17.7-29.3,17.9
		c-0.7,1.2-2,2.6-2,2.6c-1,1.2-2.3,2.4-3.5,3.3c-1,0.8-2.2,1.6-3.4,2.4c-2.7,1.5-5.6,1.7-8.6,1.5c-3.2-0.1-6.3-0.7-9.3-1
		c-0.9-0.1-1.7-0.2-2.7-0.3c1.6-1.2,3.3-2.7,4.8-4.2c2.4-2.4,4.6-5,6.7-7.7c2.1-2.7,4.3-5.3,6.2-8.2c0.2-0.4,0.5-0.8,0.8-1.2
		c0.3-0.2,0.7-0.4,1-0.6c1.2-0.7,2.5-1.5,3.6-2.4c1-0.8,2.2-1.6,3.1-2.6c2.3-2,4.2-4.4,5.9-6.9c1.4-2.1,2.8-4.1,4-6.5
		c1-2.1,1.9-4.2,1.6-6.6c-0.1-0.8-0.7-1.6-1.6-1.8c-1.9-0.5-4.1,1.5-5.4,2.8c-2.2,1.9-4,4.3-5.7,6.6c-1,1.4-2.1,2.8-3.1,4.2
		c-1.9,2.8-3.9,5.6-5.7,8.6c-1.3,2.1-2.6,4.1-3.9,6.2c-5.7,1.9-12.4,1.8-18.2,0.4c-2.4-0.6-4.7-1.4-6.9-2.5
		c-1.7-0.9-3.6-1.9-4.3-3.9c-0.6-1.5-0.3-3.2,0.4-4.6c0.7-1.4,1.5-2.7,2.7-3.8c3.2-3.2,6.6-4.8,11-5.6c4.7-0.9,10.9-1.2,15.2,0.9
		c1.9,0.9,4.1,2.5,3.6,4.8c-0.6,3-4.1,4.8-6.5,6c-8.4,4.3-18.3-0.1-18.3-0.1s-0.9-0.3-1.2-0.1c-0.5,0.4,0.3,0.9,0.3,0.9
		S25.4,30,37,24.8c1.9-0.8,3.8-2.4,5.2-3.9c1.3-1.4,2.5-3.4,1.8-5.3c-0.5-1.8-2.2-3.1-3.7-4.1c-4.8-3.2-14.5-2.3-14.5-2.3
		c-5.4,0.5-10.6,2.4-14.4,6.5c-2.1,2.4-4.1,5.3-3.9,8.6c0.3,3.4,3.9,6.2,6.4,7.3c3.7,1.6,8.2,2.7,12.2,2.9c3.7,0.2,8.2,0,11.5-0.7
		c-0.9,1.4-1.8,2.9-2.8,4.3c-1.9,3-3.9,6.1-6.3,8.8c-1.6,1.9-3.2,3.5-4.6,4.7C19,50.8,14.2,49.5,9,49.6c-3.2,0-8.7,0.5-8.9,3
		c0,2.1,4.6,4.2,7.7,4.7c4.6,0.8,9.8-0.2,13.9-2.2c0.3-0.1,0.6-0.3,0.8-0.4c0.2,0.1,0.5,0.1,0.7,0.2c3.1,0.9,6,1.7,9.2,2
		c5.2,0.6,10.9-0.6,15.3-3.5c2.8-1.7,4.9-4.2,7.4-6.4c-1,3.8-1.7,9.3,1.4,9.4c4.2,0.2,8.6-1.7,15.4-8.4c0.1-0.1,0.4,0,0.3,0.2
		c-2.7,8.7,1.3,11,4.3,11h0.6c0,0,0.2,0,0.2-0.2C77.4,58.9,77.2,59,77.2,59z M49.6,23c0.9-1.6,1.7-3.4,2.7-5
		c1.1-1.9,2.3-3.9,3.4-5.7c0.7-1.1,1.4-2.2,2.2-3.3c0.7-1.1,1.6-2.1,2.5-3.1c0.5-0.5,1.1-1.4,2-1.1c0.7,0.2,0.5,1.4,0.5,1.4
		c-0.1,1.2-1,3.6-2.1,5.6c-1,2.2-2.5,4.1-3.8,6c-2.6,3.6-5.2,7.5-8.9,10.1c-0.6,0.4-1.2,0.7-1.8,1C47.5,26.9,48.7,24.7,49.6,23z
		 M8.4,56.2c-0.1,0-0.1,0-0.2,0c-1.1-0.2-2.3-0.5-3.3-0.9c-1-0.4-2.9-1.2-3.5-2.2c-0.6-0.8,0.9-1.3,1.4-1.4c1.2-0.3,2.4-0.4,3.7-0.3
		c6.1,0.2,9.7,1.4,14.1,2.8C16.2,56.6,12.4,56.8,8.4,56.2z M71.5,46.9C70.3,48,69.2,49,68,50c-2.5,2.1-5.2,4.1-8.3,5.1
		c-1.1,0.4-2.7,0.7-3.6-0.1c-1-0.8-0.5-2.3,0-3.2c1.7-3.2,14.8-27.5,25.3-25.7c0.4,0.1,0.6,0.5,0.4,0.8c-4.2,9-7.8,16.1-8.5,17.6
		C72.9,45.4,72.1,46.3,71.5,46.9z"/>
	<path d="M49.8,104.7c0.1,0,0.3,0,0.4,0.1c0.2,0,0.4,0.1,0.5,0.2c0.2,0.1,0.3,0.2,0.5,0.3c0.1,0.1,0.2,0.2,0.2,0.4
		c0,0.2,0,0.4-0.1,0.6c-0.1,0.2-0.1,0.4-0.2,0.6c-0.5,1.3-1,2.5-1.4,3.5c-0.4,1-0.8,1.9-1.1,2.7c-0.4-0.9-0.9-2.2-1.5-3.6
		c-0.6-1.5-1.1-2.7-1.4-3.5c0-0.1-0.1-0.2-0.1-0.3c0-0.1-0.1-0.2-0.1-0.2c0-0.2,0.2-0.3,0.5-0.4c0.4-0.1,0.7-0.1,0.9-0.1v-0.8h-5.6
		v0.8c0.4,0.1,0.7,0.2,1.1,0.4c0.4,0.2,0.6,0.5,0.8,0.9c0.7,1.6,1.4,3.3,2.1,4.9c0.6,1.5,1.3,3.4,2.2,5.2h0.9
		c0.2-0.5,0.3-0.9,0.5-1.5c0.2-0.5,0.4-0.9,0.5-1.3c0.5-1.3,1.1-2.6,1.6-3.8c0.5-1.2,1-2.4,1.5-3.5c0.2-0.5,0.5-0.8,0.8-1
		c0.3-0.2,0.7-0.3,1-0.4v-0.7h-4.5V104.7z"/>
	<path d="M64.8,114.9c-0.2-0.1-0.4-0.3-0.5-0.5c-0.1-0.2-0.2-0.4-0.2-0.7c0-1,0-2.1,0-3s0-1.9,0-3.1c0-0.8-0.1-1.5-0.3-2.1
		c-0.2-0.5-0.5-0.9-0.9-1.2c-0.4-0.3-0.9-0.5-1.4-0.6c-0.5-0.1-1.1-0.1-1.8-0.1c-0.5,0-1,0.1-1.5,0.2c-0.5,0.2-0.9,0.3-1.3,0.6
		c-0.4,0.3-0.8,0.6-1,0.9c-0.3,0.3-0.4,0.7-0.4,1.1c0,0.4,0.1,0.7,0.3,1c0.2,0.3,0.5,0.4,0.9,0.4c0.4,0,0.8-0.1,1.1-0.3
		c0.3-0.2,0.4-0.5,0.4-0.8c0-0.3,0-0.6-0.1-0.9c-0.1-0.3-0.1-0.5-0.1-0.7c0.1-0.1,0.3-0.3,0.7-0.4c0.3-0.1,0.7-0.2,1-0.2
		c0.5,0,1,0.1,1.2,0.3c0.3,0.2,0.5,0.5,0.7,0.8c0.1,0.3,0.2,0.5,0.3,0.8c0,0.3,0.1,0.5,0.1,0.6v1.2c-0.4,0.2-1.1,0.5-2.3,0.9
		c-1.1,0.4-1.8,0.6-2.3,0.8c-0.3,0.1-0.6,0.3-0.9,0.5c-0.3,0.2-0.6,0.4-0.8,0.6c-0.3,0.3-0.4,0.6-0.6,1c-0.1,0.4-0.2,0.8-0.2,1.2
		c0,0.9,0.3,1.6,0.9,2.2c0.6,0.5,1.3,0.8,2.3,0.8c0.8,0,1.6-0.2,2.3-0.5c0.6-0.3,1.2-0.7,1.7-1.3h0.1c0.1,0.6,0.3,1,0.7,1.3
		c0.4,0.3,0.9,0.4,1.5,0.4c0.4,0,0.7,0,1-0.1s0.6-0.2,1-0.3v-0.8c-0.3,0-0.5,0-0.8,0C65.1,115,64.9,115,64.8,114.9z M61.8,113.5
		c-0.3,0.4-0.7,0.7-1.1,1c-0.4,0.3-0.9,0.4-1.5,0.4c-0.5,0-1-0.2-1.3-0.5c-0.3-0.3-0.5-0.8-0.5-1.5c0-0.5,0.1-1,0.3-1.3
		c0.2-0.4,0.5-0.7,0.9-1c0.4-0.3,0.9-0.5,1.4-0.7c0.5-0.2,1.1-0.4,1.8-0.6V113.5z"/>
	<path d="M75.5,103.6c-0.5,0-1.1,0.2-1.7,0.5c-0.6,0.3-1.2,0.8-1.7,1.5h-0.1v-1.7l-0.2-0.2l-4,0.3v0.8c0.2,0,0.5,0,0.7,0.1
		c0.2,0,0.4,0.1,0.5,0.2c0.2,0.1,0.4,0.3,0.5,0.6c0.1,0.2,0.2,0.5,0.2,0.7v7.5c0,0.3-0.1,0.5-0.2,0.7c-0.1,0.2-0.3,0.3-0.5,0.4
		c-0.1,0-0.3,0.1-0.5,0.1s-0.4,0-0.6,0v0.8h6.4v-0.8c-0.2,0-0.5,0-0.8-0.1c-0.3,0-0.6-0.1-0.8-0.2c-0.2-0.1-0.4-0.2-0.5-0.4
		c-0.1-0.2-0.2-0.4-0.2-0.7v-7.1c0.4-0.6,0.8-1,1.3-1.3c0.5-0.3,0.9-0.5,1.3-0.5c0,0.1-0.1,0.3-0.1,0.4c0,0.1,0,0.3,0,0.5
		c0,0.3,0.1,0.5,0.4,0.8c0.2,0.2,0.6,0.3,1,0.3c0.4,0,0.7-0.2,0.9-0.5c0.2-0.3,0.3-0.7,0.3-1.1c0-0.6-0.2-1-0.5-1.3
		C76.4,103.7,76,103.6,75.5,103.6z"/>
	<path d="M190.5,115c-0.2-0.1-0.4-0.2-0.5-0.4c-0.1-0.2-0.1-0.4-0.1-0.7v-6.2c0-1.4-0.3-2.5-0.9-3.1c-0.6-0.7-1.4-1-2.5-1
		c-0.5,0-1,0.1-1.4,0.2c-0.4,0.1-0.8,0.3-1.1,0.5c-0.4,0.2-0.6,0.5-0.9,0.7c-0.2,0.2-0.5,0.5-0.8,0.7c-0.2-0.6-0.6-1.1-1.2-1.5
		c-0.6-0.4-1.2-0.6-2-0.6c-0.5,0-0.9,0.1-1.4,0.2c-0.4,0.1-0.8,0.3-1.1,0.5c-0.2,0.2-0.5,0.4-0.8,0.7c-0.3,0.3-0.5,0.5-0.7,0.7h0.1
		V104l-0.2-0.2l-4.1,0.3v0.8c0.2,0,0.5,0.1,0.7,0.1c0.2,0.1,0.4,0.1,0.6,0.2c0.2,0.1,0.4,0.3,0.5,0.5c0.1,0.2,0.2,0.4,0.2,0.7v7.6
		c0,0.3-0.1,0.5-0.2,0.7c-0.1,0.2-0.3,0.3-0.5,0.4c-0.1,0-0.3,0.1-0.5,0.1c-0.2,0-0.4,0-0.6,0v0.8h5.9v-0.8c-0.2,0-0.4,0-0.6-0.1
		c-0.2,0-0.3-0.1-0.5-0.2c-0.2-0.1-0.4-0.2-0.5-0.4s-0.2-0.4-0.2-0.7v-7c0.1-0.1,0.2-0.3,0.4-0.5c0.2-0.2,0.4-0.4,0.6-0.6
		c0.3-0.2,0.6-0.4,1-0.5c0.3-0.1,0.7-0.2,1.1-0.2c0.6,0,1,0.2,1.4,0.7c0.4,0.5,0.6,1.1,0.6,1.9v6.3c0,0.3-0.1,0.5-0.2,0.7
		c-0.1,0.2-0.3,0.3-0.5,0.4c-0.1,0-0.3,0.1-0.5,0.1c-0.2,0-0.4,0-0.5,0v0.8h5.7v-0.8c-0.2,0-0.4,0-0.6-0.1c-0.1,0-0.3-0.1-0.5-0.2
		c-0.2-0.1-0.4-0.2-0.5-0.4c-0.1-0.2-0.1-0.4-0.1-0.7v-7c0.1-0.1,0.2-0.3,0.4-0.5c0.2-0.2,0.4-0.4,0.6-0.6c0.3-0.2,0.6-0.4,0.9-0.5
		c0.3-0.1,0.7-0.2,1.1-0.2c0.6,0,1,0.2,1.4,0.7c0.4,0.5,0.6,1.1,0.6,1.9v6.3c0,0.3-0.1,0.5-0.2,0.7s-0.3,0.3-0.5,0.4
		c-0.1,0-0.3,0.1-0.5,0.1c-0.2,0-0.4,0-0.6,0v0.8h5.9v-0.8c-0.2,0-0.4,0-0.6-0.1C190.8,115.1,190.6,115,190.5,115z"/>
	<path d="M198.4,114.9c-0.2-0.1-0.4-0.2-0.5-0.4c-0.1-0.2-0.2-0.4-0.2-0.7v-9.9l-0.2-0.2l-4.3,0.3v0.8c0.2,0,0.5,0.1,0.8,0.1
		c0.3,0.1,0.5,0.1,0.7,0.2c0.2,0.1,0.4,0.3,0.5,0.5c0.1,0.2,0.2,0.4,0.2,0.7v7.5c0,0.3-0.1,0.5-0.2,0.7c-0.1,0.2-0.3,0.3-0.5,0.4
		c-0.1,0-0.3,0.1-0.5,0.1c-0.2,0-0.4,0-0.6,0v0.8h5.8V115c-0.2,0-0.4,0-0.6-0.1C198.7,115.1,198.6,115,198.4,114.9z"/>
	<path d="M207.2,114.8c-0.4,0-0.8-0.1-1-0.2c-0.3-0.1-0.4-0.3-0.6-0.5c-0.1-0.2-0.2-0.5-0.3-0.9c0-0.3-0.1-0.7-0.1-1.2v-6.8h3.5
		v-1.2h-3.5v-3.8h-2.3v3.8h-2.3v1.2h2.2v8.2c0,0.9,0.2,1.6,0.6,2.2c0.4,0.5,1.1,0.8,2.2,0.8c0.7,0,1.2-0.1,1.7-0.2
		c0.5-0.1,1-0.3,1.5-0.5v-1c-0.2,0.1-0.4,0.1-0.8,0.1C207.8,114.8,207.5,114.8,207.2,114.8z"/>
	<path d="M197.5,100.1c0.3-0.3,0.5-0.7,0.5-1.2c0-0.4-0.1-0.8-0.4-1.1c-0.3-0.3-0.7-0.5-1.1-0.5c-0.4,0-0.8,0.2-1.1,0.5
		s-0.5,0.7-0.5,1.2c0,0.4,0.1,0.8,0.5,1.1c0.3,0.3,0.7,0.5,1.1,0.5C196.8,100.6,197.2,100.5,197.5,100.1z"/>
	<path d="M162.7,103.5c-1.7,0-3.3,0.6-4.3,1.8c-1.1,1.2-1.6,2.8-1.6,4.6c0,1,0.2,1.8,0.5,2.7c0.3,0.8,0.7,1.4,1.2,2.1
		c0.5,0.5,1.1,1,1.8,1.2c0.7,0.3,1.4,0.4,2.3,0.4c0.9,0,1.7-0.2,2.6-0.5c0.7-0.3,1.4-0.8,1.9-1.4c0.5-0.6,0.9-1.2,1.1-2.1
		c0.3-0.8,0.4-1.6,0.4-2.6c0-2-0.5-3.4-1.6-4.6C165.9,104.1,164.5,103.5,162.7,103.5z M165.2,113.9c-0.6,1-1.4,1.5-2.5,1.5
		c-0.6,0-1.1-0.1-1.5-0.4c-0.4-0.3-0.8-0.7-1-1.2c-0.3-0.5-0.5-1.1-0.6-1.7c-0.1-0.7-0.2-1.4-0.2-2.2c0-0.6,0.1-1.2,0.2-1.8
		c0.1-0.6,0.3-1.2,0.5-1.7c0.3-0.5,0.6-0.9,1.1-1.2c0.4-0.3,1-0.5,1.6-0.5c0.6,0,1.1,0.2,1.5,0.5c0.4,0.3,0.8,0.7,1,1.2
		c0.2,0.5,0.4,1,0.5,1.7c0.1,0.7,0.2,1.3,0.2,1.9C166.1,111.6,165.8,112.9,165.2,113.9z"/>
	<path d="M153.6,114.9c-0.2-0.1-0.4-0.2-0.5-0.4c-0.1-0.2-0.2-0.4-0.2-0.7V97.1l-0.2-0.2l-4.6,0.3V98c0.2,0,0.5,0.1,0.9,0.1
		c0.4,0.1,0.6,0.2,0.8,0.3c0.2,0.1,0.4,0.3,0.5,0.6c0.1,0.3,0.2,0.5,0.2,0.8v14.1c0,0.3-0.1,0.5-0.2,0.7c-0.1,0.2-0.3,0.3-0.5,0.4
		c-0.1,0-0.3,0.1-0.5,0.1c-0.2,0-0.4,0-0.6,0.1v0.8h5.9v-0.8c-0.2,0-0.4,0-0.6-0.1C154,115.1,153.8,115,153.6,114.9z"/>
	<path d="M129.3,100.3c-0.7-0.5-1.6-1-2.7-1.3c-1-0.3-2.1-0.5-3.1-0.5H116v0.9c0.2,0,0.5,0.1,0.7,0.1c0.3,0.1,0.6,0.1,0.8,0.3
		c0.3,0.1,0.5,0.3,0.5,0.5c0.1,0.2,0.1,0.5,0.1,0.7v12.6c0,0.3-0.1,0.5-0.2,0.7c-0.1,0.2-0.3,0.4-0.5,0.5c-0.1,0.1-0.4,0.1-0.7,0.2
		c-0.4,0-0.7,0.1-0.9,0.1v0.9h7.3c1.2,0,2.4-0.2,3.5-0.5c1.1-0.3,2.2-0.8,3.1-1.5c0.9-0.7,1.6-1.6,2.2-2.7c0.5-1.1,0.8-2.4,0.8-3.9
		c0-1.6-0.3-3-0.9-4.2C131.2,102,130.3,101,129.3,100.3z M129.2,110.5c-0.2,0.9-0.6,1.7-1.1,2.4c-0.5,0.6-1.1,1.1-1.9,1.5
		c-0.8,0.4-1.6,0.5-2.8,0.5c-0.9,0-1.5-0.1-2.1-0.4c-0.4-0.3-0.6-0.8-0.6-1.5V99.5c0.2,0,0.5,0,0.9,0c0.4,0,0.8,0,1.1,0
		c1,0,1.9,0.2,2.8,0.6c0.8,0.4,1.5,0.9,2,1.5c0.6,0.7,1,1.5,1.3,2.5c0.3,0.9,0.5,2,0.5,3.2C129.6,108.5,129.5,109.6,129.2,110.5z"/>
	<path d="M140.9,103.5c-1.7,0-3.3,0.6-4.3,1.8c-1.1,1.2-1.6,2.8-1.6,4.6c0,1,0.2,1.8,0.5,2.7c0.3,0.8,0.7,1.4,1.2,2.1
		c0.5,0.5,1.1,1,1.8,1.2c0.7,0.3,1.4,0.4,2.3,0.4c0.9,0,1.7-0.2,2.6-0.5c0.7-0.3,1.4-0.8,1.9-1.4c0.5-0.6,0.9-1.2,1.1-2.1
		c0.3-0.8,0.4-1.6,0.4-2.6c0-2-0.5-3.4-1.6-4.6C144.1,104.1,142.6,103.5,140.9,103.5z M143.4,113.9c-0.6,1-1.4,1.5-2.5,1.5
		c-0.6,0-1.1-0.1-1.5-0.4c-0.4-0.3-0.8-0.7-1-1.2c-0.3-0.5-0.5-1.1-0.6-1.7c-0.1-0.7-0.2-1.4-0.2-2.2c0-0.6,0.1-1.2,0.2-1.8
		c0.1-0.6,0.3-1.2,0.5-1.7c0.3-0.5,0.6-0.9,1.1-1.2c0.4-0.3,1-0.5,1.6-0.5c0.6,0,1.1,0.2,1.5,0.5c0.4,0.3,0.8,0.7,1,1.2
		c0.2,0.5,0.4,1,0.5,1.7c0.1,0.7,0.2,1.3,0.2,1.9C144.3,111.6,144,112.9,143.4,113.9z"/>
</g>
</svg>
