<?xml version="1.0" encoding="utf-8"?>
<!-- Generator: Adobe Illustrator 30.5.0, SVG Export Plug-In . SVG Version: 9.03 Build 0)  -->
<svg version="1.0" id="Livello_1" xmlns="http://www.w3.org/2000/svg" xmlns:xlink="http://www.w3.org/1999/xlink" x="0px" y="0px"
	 viewBox="0 0 1563.6 742.8" style="enable-background:new 0 0 1563.6 742.8;" xml:space="preserve">
<g transform="translate(0.000000,1176.000000) scale(0.100000,-0.100000)">
	<path d="M7510.3,11750.7c-1626-59-3001-623-3387-1389c-312-621,43-1269,941-1718c250-125,472-212,759-297c171-50,494-130,500-123
		c1,2,5,12,9,24c6,19-2,23-106,48c-368,87-740,223-1053,385c-295,152-478,281-665,470c-179,179-288,350-341,533
		c-30,105-37,288-14,399c156,773,1389,1444,2945,1603c381,39,950,46,1290,16c1166-104,2151-460,2699-976c547-515,550-1092,9-1610
		c-363-346-961-639-1665-814c-144-36-173-46-173-61c0-10,4-20,8-23c5-3,78,11,163,30c956,214,1688,613,2010,1095
		c320,479,221,1013-269,1453c-541,485-1522,829-2652,931c-168,15-641,36-745,33C7746.3,11759.7,7627.3,11754.7,7510.3,11750.7z"/>
	<path d="M6663.3,9411.7c-135-408-244-749-241-757s11-13,17-11c7,2,108,300,225,663c118,362,215,660,217,661c2,2,212-450,468-1005
		c255-555,467-1006,470-1003c3,4,196,449,429,990c233,540,426,982,430,982c3,0,104-291,224-647c120-357,220-650,222-652
		c3-3,104,19,104,23c0,0-112,332-248,736c-137,404-251,741-253,748c-2,6-65-131-140-305c-75-175-271-630-434-1010
		c-164-381-301-693-304-693s-53,103-110,228c-246,535-823,1787-826,1790C6911.3,10151.7,6799.3,9819.7,6663.3,9411.7z"/>
	<path d="M116.3,7175.7c112-16,132-26,132-62c0-15-7-299-16-632c-13-514-18-607-31-622c-18-20-95-38-160-38c-26,0-44-2-41-5
		c7-7,60-8,303-5c175,2,190,4,115,11c-89,8-165,32-172,52c-7,19,16,1215,23,1222c10,9,28-36,285-683c131-331,243-601,248-599
		s125,284,267,627c141,343,261,631,266,639c7,10,12-123,17-384c3-220,9-500,12-621c8-259,18-238-118-253c-65-6-24-8,187-8
		c246,0,262,1,185,11c-47,6-90,15-96,18c-8,5-13,128-18,390c-3,211-9,503-12,650l-7,266l39,11c21,6,71,14,109,19c58,8,41,9-104,8
		l-175-1l-240-587c-132-324-243-588-246-588s-111,265-240,590l-235,590l-185-1l-185-2L116.3,7175.7z"/>
	<path d="M2902.3,6816.7c-33-33-41-48-37-68c3-17-39-148-127-394c-184-509-189-518-284-534c-24-3,31-8,136-10c173-4,227,3,108,14
		c-78,7-104,27-96,77c3,19,31,108,63,198l58,162l159-2l159-3l59-175c32-96,58-186,58-201c0-36-23-53-84-60c-29-3,41-8,162-10
		c116-2,212-1,212,4c0,4-19,7-43,7c-51,0-81,19-106,68c-10,20-92,247-181,505c-90,257-166,466-169,465
		C2946.3,6859.7,2924.3,6839.7,2902.3,6816.7z M2963.3,6487.7c36-109,64-200,62-202c-2-3-69-3-149-2l-144,3l75,208
		c41,114,78,204,82,200C2893.3,6689.7,2926.3,6597.7,2963.3,6487.7z"/>
	<path d="M8298.3,6847.7c-182-51-347-219-395-401c-61-236,58-504,269-605c225-107,471-65,646,110c106,106,160,233,160,375
		c-1,242-143,440-365,511C8527.3,6864.7,8378.3,6869.7,8298.3,6847.7z M8579.3,6814.7c115-54,210-180,244-324c19-81,19-253,1-341
		c-48-226-206-359-411-346c-166,11-289,116-356,305c-29,81-37,279-15,383c38,181,149,314,293,350
		C8406.3,6858.7,8509.3,6847.7,8579.3,6814.7z"/>
	<path d="M11740.3,6815.7c-31-32-42-49-37-63c3-11-40-146-110-342c-203-565-206-570-296-588c-43-9-43-9-9-10c85-4,303-1,308,4
		c3,3-16,5-42,5c-25,0-63,7-83,15l-36,15l6,53c3,28,30,120,61,202l54,150l161,3l160,2l60-184c34-101,61-190,61-198c0-32-28-52-81-59
		c-38-4-8-7,96-8c83-2,176-4,207-4c32-1,58,1,58,6c0,4-15,7-34,7c-54,0-84,16-105,57c-10,21-92,247-181,503s-165,468-169,471
		C11786.3,6856.7,11764.3,6839.7,11740.3,6815.7z M11798.3,6487.7l69-206h-150c-82,0-149,2-149,5s105,295,145,404c3,8,8,12,11,9
		C11726.3,6696.7,11760.3,6601.7,11798.3,6487.7z"/>
	<path d="M15090.3,6814.7c-34-34-41-47-33-61c7-13-26-114-129-400c-76-211-150-408-165-438c-30-62-59-85-119-95c-22-3,40-6,139-6
		c143,0,166,1,110,8c-55,6-74,13-88,31c-24,29-21,44,50,246l58,162l159-2l158-3l59-170c32-93,59-184,59-202c0-41-30-63-89-63
		c-24,0-42-2-39-5c7-8,407-9,415-1c3,3-14,6-38,6c-51,0-82,18-105,61c-8,17-78,211-155,432c-191,549-191,547-198,545
		C15136.3,6859.7,15114.3,6838.7,15090.3,6814.7z M15152.3,6495.7c37-113,66-207,63-210c-2-2-69-3-149-2l-144,3l75,207
		c42,114,78,208,81,208S15114.3,6608.7,15152.3,6495.7z"/>
	<path d="M13113.3,6842.7c-110-6-110-6-51-14c33-5,65-11,73-14c19-7,20-955,0-971c-6-6-39-15-72-20c-48-8-12-10,178-11
		c263-1,330,8,446,60c219,99,336,313,301,553c-29,204-150,336-362,396C13544.3,6844.7,13316.3,6854.7,13113.3,6842.7z
		 M13549.3,6802.7c134-42,235-148,282-295c32-104,31-295-2-381c-87-221-287-332-511-284l-50,11v482c0,266,3,486,8,491
		C13289.3,6840.7,13481.3,6823.7,13549.3,6802.7z"/>
	<path d="M4213.3,6830.7c39-5,76-11,83-14c9-3,12-110,12-489c0-554,13-490-102-505c-45-6,4-8,167-8c161,0,208,2,158,7
		c-39,4-76,11-82,14c-7,5-11,89-11,260v252l72-18c39-10,72-19,73-20c1-2,71-113,155-248s154-246,155-248c4-5,246-4,251,1
		c3,2-16,7-41,10c-25,4-57,15-72,24c-21,14-274,380-314,454c-7,14,2,20,50,38c32,12,79,40,105,62c65,57,89,109,89,186
		c-1,107-60,181-178,225c-56,21-78,22-350,24C4220.3,6839.7,4161.3,6837.7,4213.3,6830.7z M4662.3,6807.7c67-20,114-61,142-120
		c56-119,10-266-100-323c-42-22-152-28-215-13l-51,12v229v229h88C4575.3,6821.7,4636.3,6815.7,4662.3,6807.7z"/>
	<path d="M5945.3,6830.7c105-13,106-15,99-127c-3-54-8-227-11-387c-3-159-8-329-11-378c-7-102-11-106-109-117c-38-5,8-7,130-7
		c150,0,176,1,124,8c-37,5-79,13-93,19l-26,10l1,227c1,126,5,334,8,463l6,235l21-45c11-25,97-242,190-482c93-241,174-438,179-438
		c6,0,96,214,200,474c135,337,192,468,196,453c3-12,9-218,13-459c5-327,4-438-4-443c-7-4-41-10-76-13c-35-2-64-7-64-11
		c0-6,410-5,416,2c3,2-26,7-63,10c-36,4-70,10-74,14c-4,5-10,225-14,490c-8,551-20,487,97,502c53,7,41,9-82,10l-145,1l-149-373
		c-82-204-160-397-174-427l-24-55l-17,40c-10,22-85,214-166,428l-149,387l-145-1C5907.3,6839.7,5893.3,6837.7,5945.3,6830.7z"/>
	<path d="M9778.3,6829.7c30-5,65-11,78-14l22-4v-484c0-411-2-485-14-489c-8-3-42-9-75-13c-34-3-61-9-61-13c0-6,740-4,746,2
		c4,3,64,286,64,300c0,19-13-3-40-67c-77-182-170-236-386-221l-104,7v489v489l23,4c12,3,54,9,92,14c56,7,22,9-165,9
		C9779.3,6838.7,9736.3,6836.7,9778.3,6829.7z"/>
	<path d="M2415.3,4704.7c-4-3-7-87-7-185v-178h85c93,0,123,10,167,57c51,54,64,143,29,211c-23,46-46,67-94,87
		C2559.3,4711.7,2428.3,4717.7,2415.3,4704.7z M2603.3,4652.7c64-36,86-147,42-212c-30-45-80-69-144-69h-53v148c0,82,3,152,8,156
		C2467.3,4687.7,2570.3,4671.7,2603.3,4652.7z"/>
	<path d="M3022.3,4692.7c-67-41-100-112-91-194c12-97,82-162,177-162c45,0,65,6,97,27c118,78,107,269-19,334
		C3147.3,4717.7,3059.3,4715.7,3022.3,4692.7z M3187.3,4654.7c68-52,87-124,52-197c-31-63-77-90-142-84c-122,12-176,153-97,253
		C3044.3,4682.7,3131.3,4695.7,3187.3,4654.7z"/>
	<path d="M3535.3,4704.7c-4-3-7-87-7-185v-178h100c82,0,100,3,100,15s-16,15-80,15h-80v170c0,135-3,170-13,170
		C3547.3,4711.7,3538.3,4708.7,3535.3,4704.7z"/>
	<path d="M4006.3,4691.7c-106-57-121-235-26-315c29-24,86-45,123-45c34,1,100,36,128,69c76,91,46,246-56,295
		C4128.3,4717.7,4052.3,4715.7,4006.3,4691.7z M4155.3,4665.7c106-51,113-212,11-274c-128-78-268,72-198,210
		C4003.3,4670.7,4084.3,4698.7,4155.3,4665.7z"/>
	<path d="M4549.3,4659.7c-45-226-57-313-43-316c7-2,16-1,19,1c3,3,14,64,26,136c11,72,23,129,26,125c3-3,26-65,51-137s50-132,55-134
		c6-2,30,56,54,129s47,137,51,141s12-25,19-65c32-198,32-198,53-198c14,0,18,5,14,18c-3,9-16,82-31,162c-33,188-34,192-47,188
		c-6-2-32-66-59-142c-26-76-50-140-53-143c-2-2-26,61-52,141c-27,81-54,146-61,146C4565.3,4711.7,4555.3,4687.7,4549.3,4659.7z"/>
	<path d="M5118.3,4527.7c0-180,1-186,20-186c20,0,20,5,18,182c-3,165-5,183-20,186C5119.3,4712.7,5118.3,4698.7,5118.3,4527.7z"/>
	<path d="M5378.3,4697.7c0-11,14-16,48-18l47-3l2-160c2-88,3-163,3-167c0-5,7-8,15-8c12,0,15,28,17,168l3,167l48,3c33,2,47,7,47,18
		s-21,14-115,14S5378.3,4708.7,5378.3,4697.7z"/>
	<path d="M5828.3,4526.7v-185h110c91,0,110,3,110,15s-17,15-90,15h-90v70v70h75c60,0,75,3,75,15s-15,15-75,15h-75v70v70h91
		c68,0,90,3,87,13c-3,8-37,13-111,15l-107,3V4526.7z"/>
	<path d="M6297.3,4682.7c-56-57-34-119,61-171c35-19,71-47,79-61c35-64-59-108-123-58c-27,21-46,18-46-7c0-18,74-53,111-54
		c38,0,92,40,102,77c14,46-9,82-73,120c-90,52-100,62-100,92c0,42,31,65,77,57c68-11,76-11,80,0c6,16-43,34-93,34
		C6335.3,4711.7,6321.3,4705.7,6297.3,4682.7z"/>
	<path d="M6988.3,4526.7v-185h95c78,0,95,3,95,15s-15,15-75,15h-75v170c0,163-1,170-20,170S6988.3,4704.7,6988.3,4526.7z"/>
	<path d="M7398.3,4526.7c0-178,1-185,20-185s20,7,20,185s-1,185-20,185S7398.3,4704.7,7398.3,4526.7z"/>
	<path d="M7708.3,4526.7c0-158,2-185,15-185c12,0,15,15,15,75v74l77,3c65,3,78,6,81,21s-6,17-78,17h-81l3,73l3,72l88,3
		c68,2,87,6,87,17c0,12-20,15-105,15h-105V4526.7z"/>
	<path d="M8158.3,4526.7v-185h105c85,0,105,3,105,15c0,11-19,15-87,17l-88,3v65v65l78,3c58,2,77,6,77,17s-19,15-77,17l-78,3l-3,44
		c-6,87-3,90,93,93c124,4,112,22-17,26l-108,3V4526.7z"/>
	<path d="M8627.3,4682.7c-33-34-39-83-13-119c8-12,42-36,74-52c57-29,90-61,90-87c0-7-9-22-20-33c-26-26-76-26-114-1
		c-17,11-33,18-38,15c-39-24,59-81,119-69c51,9,83,45,83,93c0,50-20,74-89,110c-30,15-63,39-74,54c-19,26-19,28-3,53
		c23,35,41,40,94,26s76-2,41,23c-14,9-43,16-72,16C8665.3,4711.7,8652.3,4706.7,8627.3,4682.7z"/>
	<path d="M9008.3,4696.7c0-11,12-15,45-15h45v-170c0-163,1-170,20-170s20,7,20,170v170h50c38,0,50,4,50,15c0,12-19,15-115,15
		S9008.3,4708.7,9008.3,4696.7z"/>
	<path d="M9418.3,4706.7c0-3,29-47,65-99l65-94v-86c0-70,3-86,15-86s15,16,15,86v86l65,93c36,52,65,96,65,99s-8,6-19,6
		c-12,0-37-27-70-75c-29-41-54-75-55-75c-2,0-27,34-55,75c-35,50-59,75-72,75C9427.3,4711.7,9418.3,4709.7,9418.3,4706.7z"/>
	<path d="M9925.3,4704.7c-4-3-7-87-7-185v-178h100c82,0,100,3,100,15s-16,15-80,15h-80v170c0,135-3,170-13,170
		C9937.3,4711.7,9928.3,4708.7,9925.3,4704.7z"/>
	<path d="M10338.3,4619.7c-1-51-1-133-2-183l-1-90l106-3c91-2,107,0,107,13c0,12-16,15-90,15h-90v70v70h80c63,0,80,3,80,15
		c0,11-18,15-77,17l-78,3v65v65l88,3c68,2,87,6,87,17c0,12-20,15-105,15h-105V4619.7z"/>
	<path d="M11058.3,4526.7c0-178,1-185,20-185c18,0,20,7,20,85v85h105h105v-86c0-73,2-85,16-82c13,3,16,26,15,178c0,96,0,178-1,183
		c0,4-7,7-15,7c-11,0-15-18-17-82l-3-83l-102-3l-103-3v86c0,78-2,85-20,85C11059.3,4711.7,11058.3,4704.7,11058.3,4526.7z"/>
	<path d="M11683.3,4692.7c-67-41-95-92-95-169c1-162,179-248,294-143c37,34,66,96,66,144c0,69-43,142-102,173
		C11807.3,4717.7,11719.3,4715.7,11683.3,4692.7z M11822.3,4667.7c41-17,73-57,86-107c35-129-110-238-219-166c-70,46-91,152-43,217
		C11693.3,4674.7,11756.3,4694.7,11822.3,4667.7z"/>
	<path d="M12138.3,4697.7c0-11,14-16,48-18l47-3l3-167c2-139,5-168,17-168s15,29,17,168l3,167l48,3c33,2,47,7,47,18s-21,14-115,14
		S12138.3,4708.7,12138.3,4697.7z"/>
	<path d="M12588.3,4526.7v-185h110c91,0,110,3,110,15s-17,15-90,15h-90v70v70h75c60,0,75,3,75,15s-15,15-75,15h-75v70v70h90
		c73,0,90,3,90,15s-19,15-110,15h-110V4526.7z"/>
	<path d="M13048.3,4526.7v-185h100c82,0,100,3,100,15s-16,15-80,15h-80v170c0,163-1,170-20,170S13048.3,4704.7,13048.3,4526.7z"/>
</g>
</svg>
