<?xml version="1.0" encoding="UTF-8"?><svg id="uuid-5871eb84-4c74-46f6-aa02-137e64d7103e" xmlns="http://www.w3.org/2000/svg" viewBox="0 0 750 162.5"><g id="uuid-d0f9cf60-0445-4e6f-b2b2-b031a620d72b"><path d="M464,139.8c-.4,0-.8.2-1.1.4.2.4.3,1,.4,1.7,0,.8,0,1.6,0,2.4v10.2c0,.6,0,1.2.1,1.6,0,.4.2.8.3,1.1.1.3.3.6.5.8.4,0,.9,0,1.3-.1.4,0,.7-.1,1-.2.3,0,.7-.2,1-.3-.2-.2-.3-.5-.4-.8-.1-.3-.2-.6-.3-1,0-.4-.1-.9-.1-1.4v-11.3c0-.7,0-1.3,0-1.7,0-.4-.1-.8-.2-1.1,0-.3-.2-.5-.3-.7-.3,0-.7,0-1,.1-.3,0-.6.1-1,.2M450.2,151.4c0-.7,0-1.4.3-2,.2-.6.4-1.1.8-1.6.3-.4.7-.8,1.2-1,.4-.2.9-.3,1.4-.3s.3,0,.5,0c0,0,.1,0,.1,0,0,0,0,.2,0,.4,0,.2,0,.3,0,.5,0,.2,0,.5,0,.8v4.1c0,.3,0,.5,0,.7,0,.2,0,.4,0,.5,0,0-.2.2-.4.3-.2.1-.4.3-.7.4-.3.1-.6.3-.9.4-.3.1-.6.2-.9.2s-.5-.1-.7-.3c-.2-.2-.4-.5-.5-.8-.1-.3-.3-.7-.3-1.1,0-.4-.1-.8-.1-1.3M447.4,149c-.4,1-.6,2.1-.6,3.2s.1,1.6.3,2.3c.2.7.5,1.3.8,1.8.3.5.7.9,1.1,1.2.4.3.8.4,1.2.4s1-.1,1.5-.3c.5-.2,1-.5,1.4-.7.4-.3.8-.5,1.1-.8.3-.2.5-.4.5-.5,0,.3,0,.6.2.9,0,.2.2.5.3.8.1.3.3.5.4.7.3,0,.7,0,1.1-.1.3,0,.7,0,1.1-.2.4,0,.8-.2,1.1-.3-.2-.3-.4-.7-.6-1.2-.2-.5-.3-1.1-.4-1.9-.1-.8-.2-1.8-.2-3v-4.3c0-.5,0-1,0-1.3,0-.4,0-.7-.1-.9,0-.3-.1-.5-.2-.7-.2,0-.4,0-.6-.1-.2,0-.5,0-.7-.1-.3,0-.6,0-1,0-1.3,0-2.5.2-3.5.7-1,.5-1.9,1.1-2.6,1.9-.7.8-1.3,1.7-1.7,2.7M433.7,145.3c0,.2,0,.5,0,.7s0,.4,0,.5c0,0,0,.1,0,.2h2.2c0,.8-.1,1.6-.2,2.4-.1.8-.2,1.8-.2,2.7s0,2.1.3,3.2c.2,1,.5,1.9,1,2.6.3.2.7.3,1.1.3.4,0,.7,0,1.1,0,1,0,1.9-.1,2.7-.3.9-.2,1.5-.4,2-.7,0-.4,0-.7,0-1.1,0-.3,0-.6-.1-.8,0-.2-.2-.5-.2-.7,0,0-.2,0-.4.2-.2,0-.4.2-.7.2-.3,0-.6.2-1,.2-.4,0-.8.1-1.2.1h-.3c0,0-.1,0-.1,0-.3-.6-.4-1.2-.5-1.9,0-.7-.1-1.3-.1-2.1s0-1.5.1-2.3c0-.8.2-1.5.2-2.3h3.6c0-.2.2-.4.2-.7,0-.2.1-.5.2-.7,0-.3,0-.6,0-1s0-.1,0-.2c0,0,0-.1,0-.1h0c0-.1-3.9,0-3.9,0,0-.4,0-.8-.1-1,0-.3-.1-.6-.2-.8,0-.2-.2-.4-.3-.6-.3,0-.7,0-1,.1-.3,0-.6.1-1,.2-.4,0-.8.2-1.1.4,0,.1.1.3.2.5,0,.2,0,.3.1.6,0,.2,0,.5.1.8h-1.8c0,.2-.1.4-.2.6,0,.2,0,.4-.1.6M426.5,140.6c-.4,0-.8.2-1.2.4.1.2.2.5.3.8,0,.3.2.6.2,1,0,.4.1.8.2,1.2,0,.4,0,.8,0,1.3v7.7c0,1,0,1.9.1,2.5,0,.6.2,1.2.3,1.6.1.4.2.8.4.9.4,0,.9,0,1.3-.1.4,0,.8-.1,1.1-.2.4,0,.7-.2,1.1-.3-.2-.2-.3-.6-.4-1,0-.4-.2-.8-.2-1.4,0-.6-.1-1.3-.1-2.3v-8.6c0-.7,0-1.3-.1-1.8,0-.5-.2-.9-.3-1.2-.1-.3-.3-.6-.5-.8-.4,0-.7,0-1.1.1-.3,0-.7.1-1.1.2M429.4,127.4l.2-62.2h-17.8v62.2h17.6ZM409.6,146.6c-.4.1-.9.3-1.3.5,0,.3,0,.6,0,1,0,.3.2.8.3,1.3.2.5.4,1.1.7,1.9.2,0,.5,0,.8,0,.3,0,.7,0,1-.2.3,0,.6-.1.9-.2.3,0,.5-.2.8-.3v-.7c0-.4,0-.8,0-1.2,0-.4-.1-.9-.2-1.3-.1-.4-.3-.8-.5-1-.4,0-.8,0-1.3,0-.4,0-.8.1-1.2.2M391.2,104.9c-.6,2.1-2.2,4.3-4.3,4.9-1.7.6-3.7.2-5.8.2v-25.8c2.8.2,6-.6,8.1,1.7l1.9,3,.2,16.1ZM392.5,127.4l5.4-1.3c5.8-2.1,10.7-8.1,11.4-14.2l.2-29-1.5-6.2c-2.6-5.6-8.1-9.9-14-10.7l-31.8-.2v61.6h30.3ZM387.4,155.5c-.1.5-.2,1-.3,1.5.5.3,1.1.6,1.8.8.7.2,1.4.3,2.1.3s1.1,0,1.6-.2c.5-.1,1-.3,1.5-.5.4-.2.8-.6,1.2-1,.3-.4.6-.9.8-1.4-.1-1-.4-1.9-.9-2.6-.5-.7-1-1.4-1.6-2-.6-.6-1.1-1.1-1.7-1.6-.5-.5-.8-1-.9-1.6.2-.3.4-.5.7-.6.3-.1.6-.2.9-.2s.5,0,.8,0c.3,0,.5.1.7.2.2,0,.4.2.6.2.2,0,.3.1.3.1.2-.3.3-.6.4-.9.1-.3.2-.6.3-.9,0-.3.1-.6.2-.9,0,0-.3,0-.9-.2-.6-.1-1.2-.2-2.1-.2s-1.1,0-1.7.2c-.5.1-1.1.3-1.5.6-.5.3-.9.6-1.3,1.1-.4.4-.6.9-.9,1.5.2,1,.5,1.8,1,2.5.5.7,1.1,1.3,1.6,1.9.6.6,1.1,1.1,1.6,1.6.5.5.8,1,.8,1.5,0,.2-.1.3-.3.4,0,0-.2.2-.4.3-.2,0-.4.1-.7.1-.6,0-1.2-.1-1.6-.4-.5-.2-1-.6-1.5-1-.4.4-.6.9-.7,1.4M376.2,149.7c0-1.1.3-2,.9-2.6.6-.6,1.5-.9,2.5-.8.5.5.7,1,.7,1.6s-.3,1.2-1,1.6c-.7.5-1.7.8-3.1.9,0,0,0-.1,0-.2,0,0,0-.3,0-.7M373.2,148.4c-.3.9-.4,1.8-.4,2.8s.1,1.7.3,2.5c.2.8.5,1.5.9,2.2.4.6.9,1.1,1.5,1.5.6.4,1.4.6,2.2.6s1.6,0,2.3-.2c.7-.1,1.2-.3,1.7-.4.5-.2,1-.4,1.4-.7,0-.3,0-.6,0-.8,0-.3,0-.5-.1-.8,0-.2-.1-.5-.2-.7-.3.2-.7.4-1.1.5-.3.2-.8.3-1.2.4-.5.1-1,.2-1.5.2s-1.1-.3-1.6-.8c-.4-.5-.7-1.2-.8-2,2.4-.2,4.3-.7,5.5-1.5,1.2-.8,1.8-1.8,1.8-3.1s-.2-1.4-.6-2.1c-.4-.8-.9-1.5-1.7-2.1-1.6,0-3,.1-4.1.6-1.1.4-2,1-2.7,1.7-.7.7-1.2,1.5-1.5,2.4M359.6,145.3c0,.2,0,.5,0,.7s0,.4,0,.5c0,0,0,.1,0,.2h2.2c0,.8-.1,1.6-.2,2.4-.1.8-.2,1.8-.2,2.7s0,2.1.3,3.2c.2,1,.5,1.9,1,2.6.3.2.7.3,1.1.3.4,0,.7,0,1.1,0,1,0,1.9-.1,2.7-.3.9-.2,1.5-.4,2-.7,0-.4,0-.7,0-1.1,0-.3,0-.6-.1-.8,0-.2-.2-.5-.2-.7,0,0-.2,0-.4.2-.2,0-.4.2-.7.2-.3,0-.6.2-1,.2-.4,0-.8.1-1.2.1h-.3c0,0-.1,0-.1,0-.3-.6-.4-1.2-.5-1.9,0-.7,0-1.3,0-2.1s0-1.5.1-2.3c0-.8.2-1.5.2-2.3h3.6c0-.2.2-.4.2-.7,0-.2.1-.5.2-.7,0-.3,0-.6,0-1s0-.1,0-.2c0,0,0-.1,0-.1h0c0-.1-3.9,0-3.9,0,0-.4,0-.8-.1-1,0-.3-.1-.6-.2-.8,0-.2-.2-.4-.3-.6-.3,0-.7,0-1,.1-.3,0-.6.1-1,.2-.4,0-.8.2-1.1.4,0,.1.1.3.2.5,0,.2,0,.3.1.6,0,.2,0,.5.1.8h-1.8c0,.2-.1.4-.2.6,0,.2,0,.4-.1.6M352.9,144.1c-.4,0-.8.2-1.2.3.1.2.2.5.3.9,0,.3.1.8.2,1.3,0,.5.1,1.2.1,2.1v9.1h3.4v-11c0-.5,0-.9,0-1.3,0-.4-.1-.7-.2-1,0-.3-.2-.5-.3-.7-.3,0-.7,0-1.1.1-.3,0-.7,0-1.1.2M354.1,141.4c.5-.1.9-.2,1.3-.4v-.6c0-.3,0-.6,0-1,0-.4,0-.7-.2-1.1,0-.4-.2-.7-.4-.9-.3,0-.6,0-.9,0-.3,0-.6.1-.9.2-.3,0-.7.2-1.1.4,0,.2,0,.5,0,.9,0,.3.1.7.3,1.1.1.4.4,1,.6,1.6.4,0,.8,0,1.3-.2M329.3,144.1c-.4,0-.8.2-1.2.3.1.2.2.5.3.9,0,.3.1.8.2,1.3,0,.5.1,1.2.1,2.1v9.1h3.4v-7.3c0-.3,0-.5,0-.8,0-.3,0-.5,0-.7.2-.7.5-1.2,1-1.6.5-.4,1.2-.6,2.1-.6.6.6.9,1.6.9,2.8v8.2h3.4v-7.4c0-.3,0-.5,0-.8,0-.3,0-.5,0-.7.2-.6.5-1.2,1-1.6.5-.4,1.3-.6,2.2-.5.6.6.9,1.5.9,2.8s0,.8,0,1.3c0,.4,0,.9,0,1.3,0,.5,0,.9,0,1.3,0,.4,0,.8,0,1.1,0,.6,0,1.2.1,1.6,0,.4.2.8.3,1.1.1.3.3.6.5.8.4,0,.9,0,1.2-.1.4,0,.7-.1,1-.2.3,0,.7-.2,1-.3-.2-.2-.3-.5-.4-.8-.1-.3-.2-.6-.3-1,0-.4-.1-.9-.1-1.4s0-.8,0-1.2c0-.4,0-.8,0-1.3,0-.4,0-.8,0-1.2,0-.4,0-.7,0-.9,0-1.2-.1-2.2-.4-3.3-.3-1-.8-1.9-1.5-2.7-.9,0-1.7,0-2.4.3-.7.2-1.4.5-1.9.8-.6.3-1.2.8-1.8,1.2-.2-.5-.3-.9-.6-1.3-.2-.4-.5-.7-.8-1.1-.8,0-1.6,0-2.3.3-.7.2-1.3.5-1.8.7-.6.3-1.1.7-1.6,1.1,0-.3,0-.6-.1-.9,0-.3-.1-.5-.2-.7,0-.2-.2-.4-.3-.5-.3,0-.7,0-1,.1-.3,0-.7,0-1.1.2M315.1,150.1c0-.5,0-1,.2-1.5.1-.5.3-.9.5-1.3.2-.4.5-.7.9-.9.4-.2.8-.3,1.3-.3s.3,0,.4,0c.1,0,.2,0,.3,0,0,0,.2,0,.3,0,.1.1.3.3.5.6.2.3.4.6.6,1.1.2.4.4,1,.5,1.6.1.6.2,1.3.2,2s0,1-.1,1.5c0,.5-.3.9-.5,1.3-.2.4-.5.7-.9.9-.4.2-.9.3-1.4.3s-.4,0-.6,0c0,0-.2,0-.2,0-.2-.1-.3-.4-.5-.7-.2-.3-.4-.7-.6-1.1-.2-.5-.3-1-.5-1.6-.1-.6-.2-1.2-.2-1.9M312,148.4c-.3.9-.4,1.8-.4,2.7s.1,2.1.4,2.9c.3.8.6,1.5.9,2.1.4.6.9,1.2,1.4,1.7.2,0,.4.1.7.1.2,0,.5,0,.8,0,.3,0,.7,0,1,0,1.2,0,2.3-.2,3.2-.6.9-.4,1.7-.9,2.3-1.5.6-.6,1.1-1.4,1.3-2.3.3-.9.4-1.8.4-2.7s-.1-2.1-.4-2.9c-.3-.8-.6-1.6-.9-2.2-.4-.7-.8-1.3-1.3-1.8-.2,0-.4,0-.7-.1-.2,0-.5,0-.8-.1-.3,0-.6,0-.9,0-1.3,0-2.5.2-3.4.6-.9.4-1.7,1-2.3,1.7-.6.7-1,1.5-1.3,2.4M304.2,139.8c-.4,0-.8.2-1.1.4.2.4.3,1,.4,1.7,0,.8.1,1.6.1,2.4v10.2c0,.6,0,1.2.1,1.6,0,.4.2.8.3,1.1.1.3.3.6.5.8.4,0,.9,0,1.2-.1.4,0,.7-.1,1-.2.3,0,.7-.2,1-.3-.2-.2-.3-.5-.4-.8-.1-.3-.2-.6-.3-1,0-.4-.1-.9-.1-1.4v-11.3c0-.7,0-1.3-.1-1.7,0-.4-.1-.8-.2-1.1,0-.3-.2-.5-.3-.7-.3,0-.7,0-1,.1-.3,0-.7.1-1,.2M290,150.1c0-.5,0-1,.2-1.5.1-.5.3-.9.5-1.3.2-.4.5-.7.9-.9.4-.2.8-.3,1.3-.3s.3,0,.4,0c.1,0,.2,0,.3,0,0,0,.2,0,.3,0,.1.1.3.3.5.6.2.3.4.6.6,1.1.2.4.4,1,.5,1.6.1.6.2,1.3.2,2s0,1-.1,1.5c0,.5-.3.9-.5,1.3-.2.4-.5.7-.9.9-.4.2-.9.3-1.4.3s-.4,0-.6,0c0,0-.2,0-.2,0-.2-.1-.3-.4-.5-.7-.2-.3-.4-.7-.6-1.1-.2-.5-.3-1-.5-1.6-.1-.6-.2-1.2-.2-1.9M286.9,148.4c-.3.9-.4,1.8-.4,2.7s.1,2.1.4,2.9.6,1.5.9,2.1c.4.6.9,1.2,1.4,1.7.2,0,.4.1.7.1.2,0,.5,0,.8,0,.3,0,.7,0,1,0,1.2,0,2.3-.2,3.2-.6.9-.4,1.7-.9,2.3-1.5.6-.6,1.1-1.4,1.3-2.3.3-.9.4-1.8.4-2.7s-.1-2.1-.4-2.9c-.3-.8-.6-1.6-.9-2.2-.4-.7-.8-1.3-1.3-1.8-.2,0-.4,0-.7-.1-.2,0-.5,0-.8-.1-.3,0-.6,0-.9,0-1.3,0-2.5.2-3.4.6-.9.4-1.7,1-2.3,1.7-.6.7-1,1.5-1.3,2.4M271.7,144.3c.2-.1.7-.3,1.4-.5.7-.2,1.5-.4,2.4-.4,1.1.5,1.9,1.3,2.4,2.3.5,1,.8,2.1.8,3.3s-.1,1.7-.4,2.5c-.3.8-.7,1.5-1.2,2.1-.5.6-1.2,1-2,1.4-.8.3-1.8.4-2.9.3,0-.1-.2-.3-.2-.6,0-.3-.1-.6-.2-.9,0-.3-.1-.7-.1-1,0-.3,0-.6,0-.9v-7.5ZM268.6,140.6c-.4,0-.8.2-1.2.4.1.2.2.5.3.8,0,.3.2.6.2,1,0,.4.1.8.2,1.2,0,.4,0,.8,0,1.3v6.8c0,1.1,0,2,.2,2.7.1.7.3,1.3.5,1.7.2.5.4.9.7,1.1.2,0,.4.1.7.1.2,0,.5,0,.9.1.4,0,.8,0,1.3,0,1.8,0,3.4-.3,4.7-.8,1.3-.5,2.3-1.2,3.2-2.1.8-.9,1.4-1.9,1.8-3.1.4-1.2.6-2.4.6-3.7s-.1-1.7-.4-2.5c-.3-.9-.7-1.7-1.2-2.4-.5-.7-1.2-1.4-2-1.9-.8-.6-1.6-.9-2.6-1.2-.5,0-1,.2-1.5.3-.5.2-1,.3-1.4.5-.4.2-.8.3-1.2.5-.3.2-.6.3-.8.4-.1-.6-.2-1-.4-1.3,0-.2-.2-.3-.2-.4-.4,0-.7,0-1.1.1-.3,0-.7.1-1.1.2M291.6,109.9c-1.1,1.3-3.4,1.3-4.9.9v-7.7c2.2-.2,4.7.2,5.6,2.4.6,1.3.2,3-.7,4.3M292.4,88.8c-1.1,2.1-3.4,2.4-5.4,2.4l-.2-8.1c1.9,0,3.7,0,4.7,1.3,1.5.9,1.3,3,.9,4.3M361.5,127.4L326.3,0h-16.3l-18.4,62.2h18.4c2.6-7.1,4.9-15.2,7.5-22.1l8.1,28.8c-4.1,13.7-8.1,28.1-12.4,41.4.2-5.6-1.7-10.5-4.9-14.6l2.4-3c3.2-4.9,3.2-11.8.9-16.9-2.4-5.1-7.3-8.4-12.5-9.2l-31.8-.2v60.9c10.3-.2,20.8.2,30.9-.4,5.2-1.1,10.7-5.1,13.3-9.7l-3,10.1h18.5c2.8-8.2,5.1-17.2,8.1-25.1l6.6,25.1h19.8ZM380.7,44.6l-18.7-.2V0h-17.6v62.2h36.3v-17.6ZM404.3,18.6h16.5V0h-52.2v18.5h16.3v43.6h19.3l.2-43.6ZM457.5,3.9h-1.1v-1.6h1.1c.5,0,.9.3.9.8s-.4.8-.9.8M458.9,6.2l-1-1.9c.6-.1.9-.5.9-1.2s-.5-1.2-1.3-1.2h-1.6v4.3h.5v-1.9h1l1,1.9h.5ZM460.7,4c0,1.9-1.6,3.5-3.5,3.5s-3.5-1.6-3.5-3.5,1.6-3.5,3.5-3.5,3.5,1.6,3.5,3.5M461.2,4c0-2.2-1.8-4-4-4s-4,1.8-4,4,1.8,4,4,4,4-1.8,4-4M462.9,127.2l19.7-.2L447.6,0h-16.3l-18.4,62.2h18.5c2.2-7.5,4.9-15.2,7.3-22.1l8.1,28.8-17,58.4h18.5l7.5-24.3.6-.6c2.1,8.2,4.5,16.5,6.6,24.7M482.7,146.3c0-.5,0-.9,0-1.2,0-.3,0-.6-.1-.8,0-.2-.1-.4-.2-.5-.3,0-.7,0-1,.1-.3,0-.7,0-1.1.2-.4,0-.8.2-1.2.3,0,.2.1.5.2.7,0,.2,0,.5.1.7,0,.3,0,.6,0,.9s0,.6,0,1.2c0,.5-.1,1.2-.3,1.9-.1.7-.3,1.5-.6,2.4-.3.9-.6,1.8-1,2.7-.2-.2-.4-.5-.5-.9-.2-.4-.3-.8-.5-1.2-.1-.4-.3-.9-.4-1.3-.1-.4-.2-.9-.3-1.2-.3-1.1-.6-2.2-1-3.4-.4-1.2-.9-2.2-1.5-3.1-.3,0-.6.1-1,.2-.3,0-.6.2-1,.3-.4.1-.8.3-1.1.5.6.9,1.1,1.9,1.5,3,.3,1.1.7,2.3,1,3.6.3,1.4.7,2.5,1,3.3.3.8.8,1.4,1.3,1.9.2,0,.5,0,.9-.1.4,0,.7-.1.9-.2-.5.7-1.1,1.5-1.8,2.3-.7.8-1.4,1.5-2.2,2.2.2.2.5.5.7.7.2.2.5.4.8.6.3.2.7.3,1.1.4,1.1-1,2.1-2.1,3-3.3.9-1.2,1.7-2.5,2.3-3.8.7-1.4,1.2-2.8,1.5-4.3.4-1.5.5-3.1.5-4.8" fill="#e5e1e6"/><rect width="750" height="162.5" fill="none"/></g></svg>