<?xml version="1.0" encoding="UTF-8"?>
<svg id="uuid-ff3c17b6-9361-4f95-809e-e4cc49d4b2c8" xmlns="http://www.w3.org/2000/svg" version="1.1" viewBox="0 0 750 162.5">
  <!-- Generator: Adobe Illustrator 30.1.0, SVG Export Plug-In . SVG Version: 2.1.1 Build 136)  -->
  <defs>
    <style>
      .st0 {
        fill: #e5e1e6;
      }
    </style>
  </defs>
  <rect class="st0" x="111" y="62.6" width="528" height="4.1"/>
  <path class="st0" d="M142.4,82l5.1-12.4h-5l-7,16.8c-2,4.6-4.6,5.8-9.6,6.5v2.5h25.4v-2.5c-11.1-.8-11.9-3.7-8.9-10.8h0ZM198.1,86.9l-7.2-17.4h-11.5l5.2,12.6c2.7,6.5,1.6,9.8-9.2,10.6v2.5h31.5v-2.5c-5.2-.7-7.2-2-8.8-5.9Z"/>
  <polygon class="st0" points="175.5 59.9 186.9 59.9 169.2 17 164.2 17 146.4 59.9 151.4 59.9 163.5 30.5 175.5 59.9"/>
  <path class="st0" d="M249.6,50.2v9.7h9.8v-24.1h-2.2l-15.8,4.6v2.4h1.2c5.5.4,7,2.9,7,7.4h0ZM222.8,59.9v-24.1h-2.2l-15.8,4.6v2.4h1.2c5.5.4,7,2.9,7,7.4v9.7h9.8ZM267.7,89.6h-1.4c-5.4,0-6.9-2.7-6.9-7.3v-12.8h-9.8v11c-5.4,6.6-10.3,9.2-15.6,9.2s-11.2-3.9-11.2-12.8v-7.5h-9.8v8.1c0,12.9,7.7,19.3,17.2,19.3s13-3.8,19.4-12.9v12.9h2.2l15.9-4.8v-2.5h0Z"/>
  <polygon class="st0" points="280.5 59.9 290.1 59.9 290.1 41.5 305.4 41.5 305.4 37.4 290.1 37.4 290.1 21.2 288 21.2 280.5 25.7 280.5 37.4 270.4 37.4 270.4 41.5 280.5 41.5 280.5 59.9"/>
  <path class="st0" d="M298.8,91c-5,0-8.8-2.9-8.8-11v-10.5h-9.6v10.3c0,11.6,5,17.1,13.6,17.1s10.4-4.1,13.5-7l-1.2-2c-2.3,1.8-4.4,3-7.6,3h0ZM321,59.2c.9-11.3,5.9-19.1,15.7-19.1s12.8,8.8,13.5,19.8h10.4c-1.1-13.2-8.3-24.1-21.9-24.1s-24.1,8.9-26.8,24.1h9v-.7c0,0,0,0,0,0ZM360.3,79.8l-2.1-.9c-3.7,5.2-9.2,9.9-17.3,9.9s-17.3-7.3-19.4-19.2h-10.3c.7,15,10.4,27.4,25.7,27.4s20.4-7.7,23.4-17.2h0ZM384.4,85.8v-16.2h-9.7v16.2c0,5.1-3.6,6.2-8.3,7v2.5h26.2v-2.5c-4.6-.8-8.2-2-8.2-7ZM411.3,55.8v4.1h9.8v-4.8c0-12.9-7.8-19.3-17.2-19.3s-13.2,3.9-19.5,13v-13h-2.1l-15.9,4.6v2.4h1.3c5.5.4,7,2.9,7,7.4v9.7h9.7v-7.5c5.3-6.8,10.4-9.5,15.6-9.5s11.3,3.9,11.3,12.8h0ZM421.1,85.8v-16.2h-9.8v16.2c0,5.1-3.5,6.2-7.8,7v2.5h25.8v-2.5c-4.6-.8-8.2-2-8.2-7h0ZM459.9,91c-5,0-8.8-2.9-8.8-11v-10.5h-9.6v10.3c0,11.6,5,17.1,13.6,17.1s10.4-4.1,13.5-7l-1.2-2c-2.3,1.8-4.4,3-7.6,3h0Z"/>
  <polygon class="st0" points="441.5 59.9 451.1 59.9 451.1 41.5 466.4 41.5 466.4 37.4 451.1 37.4 451.1 21.2 449 21.2 441.5 25.7 441.5 37.4 431.5 37.4 431.5 41.5 441.5 41.5 441.5 59.9"/>
  <path class="st0" d="M490.9,85.8v-16.2h-9.7v16.2c0,5.1-3.6,6.2-8.3,7v2.5h26.2v-2.5c-4.6-.8-8.2-2-8.2-7ZM486.2,27.1c3.9,0,6.9-3,6.9-7s-3-6.9-6.9-6.9-7.2,3-7.2,6.9,3,7,7.2,7ZM481.2,50.2v9.7h9.7v-24.1h-2.1l-15.9,4.6v2.4h1.3c5.5.4,7,2.9,7,7.4h0ZM534.8,89c-11.5,0-18.3-7.9-20.1-19.5h-10.1c.9,15.6,10.3,27.4,26.3,27.4s19-6.7,23-18.6l-2.1-.9c-3.7,7-10.6,11.5-17,11.5h0ZM530.2,40.1c6.8,0,10.7,5.8,12.3,13.6l9.2-4.5c-1.5-6.9-9-13.4-20.1-13.4s-23.9,10.5-26.5,24.1h9.1c.9-11.3,6.6-19.8,15.9-19.8h0ZM613.8,69.5h-10c-.1,13.3-6.2,22.8-15.6,22.8s-16.2-11.9-17.6-22.8h-10.7c.8,16,11.1,27.4,26.6,27.4s25.6-10.8,27.3-27.4h0ZM585.8,40.3c9.9,0,15.1,9.7,17.1,19.6h10.8c-2-14.2-12-24.1-26.5-24.1s-23.7,9.3-26.6,24.1h9.8c1-11.6,6.8-19.6,15.4-19.6h0ZM136.3,143.4c0,1.8-1,3-2.9,3s-3-1.2-3-3v-7.6h-2.8v7.7c0,3.1,1.8,5.3,5.7,5.3s5.7-2.2,5.7-5.3v-7.6h-2.8v7.6h0Z"/>
  <polygon class="st0" points="171.4 144.1 165.5 135.9 162.7 135.9 162.7 148.6 165.4 148.6 165.4 140 171.5 148.6 174.1 148.6 174.1 135.9 171.4 135.9 171.4 144.1"/>
  <rect class="st0" x="197.8" y="135.9" width="2.7" height="12.7"/>
  <path class="st0" d="M230.1,135.7c-3.8,0-6.6,2.8-6.6,6.6s2.8,6.6,6.6,6.6,2.1-.2,3-.7l1,1.2,1.9-1.6-.9-1.1c1.1-1.1,1.7-2.7,1.7-4.5,0-3.8-2.8-6.6-6.7-6.6h0ZM233.4,144.7l-1.4-1.7-1.9,1.5,1.4,1.7c-.4.2-.9.2-1.3.2-2.3,0-3.9-1.8-3.9-4.2s1.5-4.2,3.9-4.2,3.9,1.8,3.9,4.2-.2,1.8-.7,2.4h0ZM268.5,143.4c0,1.8-1,3-2.9,3s-3-1.2-3-3v-7.6h-2.8v7.7c0,3.1,1.8,5.3,5.7,5.3s5.7-2.2,5.7-5.3v-7.6h-2.8v7.6h0Z"/>
  <polygon class="st0" points="294.9 148.6 303.9 148.6 303.9 146.3 297.6 146.3 297.6 143.3 303.8 143.3 303.8 141 297.6 141 297.6 138.2 303.9 138.2 303.9 135.9 294.9 135.9 294.9 148.6"/>
  <polygon class="st0" points="329.8 135.9 327.1 135.9 327.1 148.6 335.2 148.6 335.2 146.2 329.8 146.2 329.8 135.9"/>
  <polygon class="st0" points="360.7 141 357.5 135.9 354.4 135.9 359.4 143.4 359.4 148.6 362.1 148.6 362.1 143.4 366.9 135.9 363.8 135.9 360.7 141"/>
  <rect class="st0" x="415.2" y="135.9" width="2.7" height="12.7"/>
  <polygon class="st0" points="440.8 138.3 444.5 138.3 444.5 148.6 447.3 148.6 447.3 138.3 451 138.3 451 135.9 440.8 135.9 440.8 138.3"/>
  <path class="st0" d="M476.2,135.9l-4.9,12.7h3l.8-2.2h5.7l.8,2.2h3l-4.9-12.7h-3.4ZM475.8,144.1l2.1-5.9,2.1,5.9h-4.2Z"/>
  <polygon class="st0" points="509.5 135.9 506.8 135.9 506.8 148.6 514.9 148.6 514.9 146.2 509.5 146.2 509.5 135.9"/>
  <rect class="st0" x="537.9" y="135.9" width="2.7" height="12.7"/>
  <path class="st0" d="M567.8,135.9l-4.9,12.7h3l.8-2.2h5.7l.8,2.2h3l-4.9-12.7h-3.4ZM567.4,144.1l2.1-5.9,2.1,5.9h-4.2Z"/>
  <polygon class="st0" points="607.1 144.1 601.2 135.9 598.4 135.9 598.4 148.6 601.1 148.6 601.1 140 607.2 148.6 609.8 148.6 609.8 135.9 607.1 135.9 607.1 144.1"/>
</svg>