<?xml version="1.0" encoding="UTF-8"?><svg id="uuid-ff3c17b6-9361-4f95-809e-e4cc49d4b2c8" xmlns="http://www.w3.org/2000/svg" viewBox="0 0 750 162.5"><g id="uuid-07eef926-23c4-4675-aef2-cb1be87c34c3"><path d="M570.3,35.2c3,.3,7.1,1.9,9.6,3.6,1.5.9,6.5,5.2,6.6,6.8,0,1.3-3.9,6.3-4.4,8-.5.8-1,.7-1.5,0-1.1-1.4-1.7-3.7-3-5.3-6.1-7.7-19.5-5.8-21.5,4.2-4,19.8,30.1,21.5,31.9,41.7,1.4,15.9-9.5,27.6-25.6,26.8-7.7-.4-15.5-4.7-19.4-11.3l4.5-10.7c.6-.1.4.3.6.6,2.8,5.1,4.2,9.3,10.2,11.8,12.9,5.5,24.9-6.4,19.7-19.3-3-7.5-20.2-15-26.3-22-10.7-12.3-2.8-33.1,13.3-34.8,1.3-.1,4-.1,5.3,0Z" fill="#e5e1e6"/><path d="M624.3,35.2c4.4.8,8.2,2.3,11.7,5.2.9.7,4,3.8,4.3,4.7s.2.6,0,.9l-4.6,8h-1.2c-1.7-5-5.4-9.8-11.1-10.4-9.9-1-15.7,6.6-13.2,16,2.8,10.6,22.7,16.3,28.8,26.4,1.6,2.7,2.3,5.6,3,8.6-.1,1.7.2,3.6,0,5.3-.1,1.2-.7,3.4-1.1,4.6-5.9,19.9-33.2,21.8-44.1,5.3l4.2-10.9c.6-.1.6.2.9.5.9,1.2,1.7,3.7,2.7,5.3,10.1,15.6,33.7,6.2,27.5-12.2-3.2-9.3-24.1-15.8-29.5-26.9-6.1-12.5,2.3-29,16.4-30.4h5.3Z" fill="#e5e1e6"/><path d="M321.6,35.2c3.3.4,8.2,2.5,10.8,4.5.9.7,5.3,4.9,5.3,5.8,0,.5-3.9,7.1-4.6,8.1-.1.2,0,.5-.5.4-.8-.1-2.4-3.8-3-4.7-6.7-9.9-22.2-6.8-22.6,5.5-.6,16.8,27.1,19.6,31.6,36.3,6.4,23.9-22.2,39.1-40,23.7-1-.8-4.4-4.2-4.4-5.3s3.4-9,3.8-9.8c.2-.3.4-.6.7-.8.4,0,2.2,4.3,2.7,5,8.6,14.4,30.4,10.1,28.8-7.6-1.2-13.6-25.5-18.3-30.9-32.1-4.8-12.4,3.3-27.6,16.9-29.1,1.3-.1,4-.1,5.3,0Z" fill="#e5e1e6"/><path d="M422.2,36.8l46.4,64.9,1.4,1V37.2l.5-.5h8.2v82.6h-7.9l-47.4-66.1c-.6-.4-1.2.2-1.2.7v65.4h-8.4V36.8h8.4Z" fill="#e5e1e6"/><path d="M108.4,36.8h22.4c0,0,.5.3.9.3,16.2,1.7,22.6,20.8,12.1,32.5-.7.8-4.3,3.6-4.2,4.1,1.6,1.4,3.6,2.1,5.4,3.3,15.7,11.3,8.4,37.5-10.6,41.6-5.4,1.2-19.8,1.4-25.3.8-.5,0-.8,0-1.1-.5V37.2l.5-.5ZM117.4,44.8l-.5.5v24.7l.5.5h8.1c9.9,0,14.6-7.2,13.5-16.5-.5-4.3-4.5-9.2-9.1-9.2h-12.4ZM117.4,79.1l-.5.5v31.2l.5.5h12.4c1.5,0,4.9-1.3,6.3-2.1,12.3-7.2,9.3-30-6.3-30h-12.4Z" fill="#e5e1e6"/><path d="M278.7,119.3l-27.8-67.7-17.9,46.1h16.5l2.8,8h-22.5l-5.6,13.6h-10.1l.2-1.2,33.4-81.2c.4-.2,5.4-.3,6.1-.1.3,0,.6.1.7.5l34.1,81.4-.4.7h-9.5Z" fill="#e5e1e6"/><polygon points="502.6 44.8 502.6 72.9 515.8 72.9 516.3 73.4 516.3 80.5 515.8 81 503.1 81 502.6 81.4 502.6 111.3 535.7 111.3 536.1 111.8 536.1 119.3 493.6 119.3 493.6 36.8 531.6 36.8 532.1 37.2 532.1 44.3 531.6 44.8 502.6 44.8" fill="#e5e1e6"/><polygon points="402.6 36.8 402.6 44.3 402.1 44.8 370.8 44.8 370.3 45.3 370.3 119.3 361.3 119.3 361.3 44.8 345.9 44.8 345.5 44.3 345.5 37.2 345.9 36.8 402.6 36.8" fill="#e5e1e6"/><polygon points="174.4 111.3 206.8 111.3 207.3 111.8 207.3 119.3 165.5 119.3 165.1 118.9 165.1 37.2 165.5 36.8 173.9 36.8 174.4 37.2 174.4 111.3" fill="#e5e1e6"/><polygon points="265 97.7 268 105.1 267.7 105.7 257.6 105.7 254.6 98.3 255 97.7 265 97.7" fill="#e5e1e6"/><rect width="750" height="162.5" fill="none"/></g></svg>