<?xml version="1.0" encoding="UTF-8"?><svg id="uuid-36a1322e-2c16-4388-afc3-7b55ab20081d" xmlns="http://www.w3.org/2000/svg" viewBox="0 0 750 162.5"><g id="uuid-a5f90bc4-52a5-4409-8f5b-a2ab4b01f66c"><path d="M437.4,149.8c-1,.4-1.6,1.2-2.5,1.8-1.7-2.7-5-2.6-7-.4-.2-.2,0-1.4,0-1.5,0,0-2.6,0-2.6.3v12.1h2.6v-9c0-.2,1.5-1.2,1.8-1.3.7-.2,2-.2,2.5.3.2.2.8,1.4.8,1.7v8.2h2.6v-9c0-.6,2.3-1.4,2.9-1.4.8,0,2.1,1,2.1,1.8v8.6h2.6v-9.2c0,0-.4-1.2-.5-1.3-1-1.9-3.3-2.6-5.2-1.8Z" fill="#e5e1e6"/><path d="M294.4,153.5c-.5-6.5,5.6-9,11.2-7.1,1,.3,1.8.8,2.7,1.2v-2.9c-7.6-4.5-18.7.5-16.6,10.1,1.6,7.6,10.7,9.1,16.8,5.9v-3c-.8.1-1.5.7-2.4,1.1-4.8,1.9-11.3.7-11.7-5.4Z" fill="#e5e1e6"/><path d="M384.2,145.5c-.6-.8-2.5-2.1-3.5-2.1h-7.3v18.7h2.8v-8h3.6c4.5,0,7.1-5.1,4.4-8.7ZM381.1,151.1c-.1,0-.9.5-1,.5h-4v-5.7h3.4c0,0,1,.3,1.2.3,2,.8,2.2,3.8.4,4.9Z" fill="#e5e1e6"/><path d="M358.5,143.7v6.2c-5.9-2.1-10.5,3.6-7.9,9.1.6,1.2,2.6,3.1,4,3.1h6.6v-18.7c-.4,0-2.6-.2-2.6.3ZM358.7,160.1h-3.2c-.3,0-1.5-.5-1.8-.8-2.3-1.9-1.3-6.9,1.9-7.5.5,0,3.2,0,3.2.6v7.7Z" fill="#e5e1e6"/><path d="M450.7,149.6c-7.7,1.1-6.9,12.8,1.1,12.9,9.4.1,9-14.3-1.1-12.9ZM450.7,160c-3-.6-3.7-5.1-1.8-7.1,1.2-1.2,3-1.4,4.5-.8,4.2,1.5,3.2,9.1-2.7,7.9Z" fill="#e5e1e6"/><path d="M402,157c.5,4.8,5.3,6.4,9.4,4.8,2-.8,1.5-1.1,1.5-3.2-1.9.9-3.5,1.7-5.8,1.2-1.3-.3-2.7-2.1-2.6-3.4h8.5c.6-9.5-12.1-9.2-11.1.6ZM404.6,154.7c.1-3.9,6.1-4.1,5.9,0h-5.9Z" fill="#e5e1e6"/><path d="M394.1,160.2v-7.6c0,0-.5-1.1-.6-1.3-1.5-2.2-5.4-2.3-7.4-.8-1.2,1-.7,1.8-.8,3.2.8-.4,1.4-1.1,2.3-1.5,2-.8,4.4-.3,3.8,2.3,0,.2-3.6,1.3-4.2,1.6-4.1,2.1-1.9,7.5,2.6,5.9.4-.2,1.4-.8,1.6-.8.1,0,.2.5.5.7,1.4,1.1,4.5,0,3.9-2.1-.1-.1-1.6,1.1-1.9.3ZM391.7,159.6c0,.4-2.5,1.8-3.5.4-1.6-2.1,1.9-3.7,3.5-3.8v3.4Z" fill="#e5e1e6"/><path d="M343.2,160.2v-7.6c0,0-.5-1.1-.6-1.3-1.5-2.2-5.4-2.3-7.4-.8-1.2,1-.7,1.8-.8,3.2.8-.4,1.4-1.1,2.3-1.5,2-.8,4.4-.3,3.8,2.3-.1.4-5.1,1.2-6,3.5-.8,2.1.6,4.4,2.8,4.4,1,0,3.2-1.2,3.4-1.1,0,0,.1.4.4.6,1.4,1.1,4.5,0,3.9-2.1-.1-.1-1.6,1.1-1.9.3ZM340.7,159.6c0,.4-2.4,1.8-3.5.4-1.6-2.1,1.9-3.6,3.5-3.8v3.4Z" fill="#e5e1e6"/><path d="M323.7,159.3c-1.3.1-2.5,1.3-3.9.5-.2-.1-.7-.8-.7-.9v-6.8h3.9v-2.4h-3.9v-2.4s-.4,0-.4,0c-.6,1-4,3.5-4.2,4.3,0,.1,0,.3,0,.4h2v7.1c0,1.1,1.4,2.6,2.4,3,1,.3,3.9.2,4.6-.5.4-.4.2-1.8.2-2.4Z" fill="#e5e1e6"/><path d="M333,159.3c-.2-.2-2.5,1.4-3.9.5-.1,0-.6-.6-.6-.7v-6.9h3.6c.4,0,.4-2.4,0-2.4h-3.6v-2.4s-.4,0-.4,0l-4.4,4.5c0,.4.2.3.5.3.6,0,1.2,0,1.8,0v7.5c0,.1.4.9.5,1.1,1.2,1.9,3.6,2,5.6,1.3,1.5-.6.8-1.3.9-2.7Z" fill="#e5e1e6"/><path d="M397.2,143.9v18.1c.3.4,2.1,0,2.6.2v-18.7c-.7.1-2.4-.4-2.6.5Z" fill="#e5e1e6"/><path d="M423.1,150c-2.7-1.4-3.8.5-5.3,2.3v-2.6h-2.4v12.4h2.4v-6.9c0-.9.9-2.3,1.6-2.8,2-1.2,3.2.8,3.6.7.9-1.4,2-2,0-3Z" fill="#e5e1e6"/><rect x="363.7" y="149.7" width="2.6" height="12.4" fill="#e5e1e6"/><path d="M310.4,150v12.1h2.6v-12.4c-.4,0-2.6-.2-2.6.3Z" fill="#e5e1e6"/><path d="M340.6,148.1c-.1-1.2-1.4-2.7-1.7-4h-2.8c.2.7,2.8,4.1,3.1,4.2.2,0,1.4.2,1.4-.2Z" fill="#e5e1e6"/><path d="M311.4,144.5c-1.8.3-1.5,3.2.3,3.1,2.1,0,1.8-3.5-.3-3.1Z" fill="#e5e1e6"/><path d="M364.8,144.5c-1.8.3-1.5,3.2.3,3.1,2.1,0,1.8-3.5-.3-3.1Z" fill="#e5e1e6"/><path d="M343.5,79.6c1.3,1.5,3.3,2.7,3.7,4.7,1.6-.7,2.2-2.7,1.6-4.3-.4-1.1-1.7-1.9-2.4-2.8-9-10.8-12.9-27.8-6.1-40.7.5-1,1.2-1.9,1.7-.3-5.5,11.3-4.6,24.9,2,35.5,1.1,1.8,3.2,3.6,3.2,5.8.8-.2,1.6-1,1.9-1.7,1.2-2.7-.7-3.9-2-5.9-5.1-8.2-6.6-17.9-3.8-27.2.1-.4,1-2.8,1.1-2.9.6-.4,1.1,0,1.1.8,0,1-1.1,3.4-1.4,4.7-1.6,7.4-.5,14.5,2.7,21.2.7,1.5,2.2,2.9,1.7,4.7,1.5-.3,2.8-2.1,2.8-3.6,0-1.1-2.2-4.8-2.7-6.4-1.7-5-2-10.6-.7-15.8.2-.8.4-2.3,1.4-2.1,1,.2-.1,3-.3,3.8-.7,4.2-.6,8.1.5,12.3.6,2.1,1.8,3.9,1.6,6.1.9,0,2.1-.8,2.6-1.6,1.1-1.9-.2-3.6-.7-5.4-.8-2.8-1-5.8-.8-8.6,0-.6.4-3.3.9-3.4,1.7-.6.7,2.2.6,3-.2,2.5-.2,4.4.2,6.8.3,1.6,1.1,3,.5,4.8,2,0,3.7-1.8,3.5-3.8-.2-2.3-1-3.9-.7-6.5,0-.6.1-1.7.7-1.9,1.4-.5.8,1,.8,1.7,0,1.7.4,4.2.2,5.8,0,.5-.4.9-.4,1.4,1.2,0,2.4-.4,3.1-1.4,1.6-1.9,0-3.7.8-5.3.3-.6.6-.7,1.1-.2.3,1.8.2,3.8.4,5.8.2,2,.7,4.1,1.1,6.1-3.1,1.9-5.6,4.7-7.2,8-1.1,2.3-1,5.8-4.3,5.6-.2,1.6,1.6,2.5,2.9,2.6.7,0,1.2-.2,1.9-.3.2,0,.3,0,.2.2l-6.9,12c-1.3,1.3-2.8.3-4,1-1.1.7-.5,1.7-.8,2.3,0,.2-2.7,1.9-3.1,2.2-.8.6-1.5,1.4-2.3,1.9,0,.2,1,1.4,1.2,1.6.2.3.6.3.7.4l3.7-2.9,1.6-1.3h0l2,.3s0-.3-.1-.6c0,0,0-.2,0-.3,0,0,0-.2,0-.3,0,0,0,.2,0,.3,0,.1,0,.2,0,.3,0,.3.2.6.1.6h0l-2-.3-1.6,1.3-3.7,2.9c1.4,1.9,2.4,3.1,3.9,4.8,7.6-7.3,17.8-10.9,28.1-10.9,5.1,0,10.2.9,15,2.7-4.8-1.8-9.9-2.7-15-2.7-10.2,0-20.5,3.6-28.1,10.9.4.4,1,2,1.8,2,.6,0,2.1-.4,2.8-.5,1.7-.2,3.5-.2,5.3-.4l-.4-2.6c-1,.1-2,.3-3.1.4,0,0-1.3.3-.8,0,5.2-3.6,11.4-6,17.8-6.8-.3,3.6-1,7.2-1.8,10.7-.2.7-1.5,5.2-1.4,5.4,5.3,1.2,10.6,1.1,15.9,0-1.8-5.2-2.9-10.6-3.3-16.1,4.5.5,8.9,1.9,13,3.9,1.6.8,3.3,1.7,4.6,2.9l-3.9-.2-.2,2.4c1.7.2,3.5.2,5.3.4.7,0,2.2.6,2.8.5.6,0,1.4-1.6,1.8-2h0c-1.3-1.3-2.8-2.4-4.3-3.5-1.7-1.2-3.4-2.3-5.2-3.2,1.8.9,3.6,2,5.2,3.2,1.5,1.1,2.9,2.2,4.3,3.5,1.4-1.6,2.6-3.1,3.9-4.8l-2.7-2.1-2.7-2.1-2.2.3,2.2-.3,2.7,2.1,2.7,2.1s.3,0,.5-.2c.4-.4,1.3-1.4,1.1-1.9-.2-.4-2.1-1.8-2.6-2.2-.4-.3-2.5-1.7-2.6-1.9-.3-.5,0-1.4-.7-2.1-1.1-1-2.9.2-4.3-1.4l-6.9-12c2,.5,5.1.3,5.2-2.3-3.2,0-3.1-2.7-4-4.9-1.2-2.9-3.3-5.6-5.8-7.5-.4-.3-1.6-.9-1.7-1.3.4-2.1.9-4.2,1.1-6.3,0-.8,0-5.2.2-5.4.2-.3,1.1-.3,1.2.3.3,1-.1,2.9,0,4,.2,1.5,2.4,2.9,3.9,2.7-.8-2.1-.1-4.3-.2-6.6,0-.8-.8-2.8.8-2.3.7.2.7,3.6.7,4.3,0,1.7-1,3.9-.6,5.4.3,1.3,2,2.5,3.4,2.4-.6-2.3.6-4.5.7-6.8,0-1.2,0-3.2,0-4.4,0-.8-.9-3-.2-3.3,1-.5,1,.3,1.2,1,.7,2.9.6,6.6,0,9.5-.3,1.3-1.6,4.3-1.6,5.3,0,1.6,1.6,3.1,3.1,3.4-.4-2.1,1-4.2,1.6-6.3,1.1-3.9,1.3-7.9.6-11.9-.1-.8-1.2-3.6-.6-4,1.1-.7,1.5,1.7,1.7,2.4,1.4,6,.7,12.3-1.8,17.9-.9,2.2-2.7,3.7-1,6.1.2.3,1.5,1.6,1.9,1.2,0-2.1,1.5-3.8,2.4-5.7,2.9-6.5,3.6-13.8,1.9-20.8-.2-.8-1.4-3.9-1.3-4.2,0-.9,1.1-.9,1.6.1,3.9,7.9,2.1,20.4-2.1,27.9-.6,1-3,4.1-3.1,4.8-.4,1.8.3,3.8,2.2,4.3,0-.3,0-.7,0-1,.4-1.5,3.3-4.9,4.2-6.7,4.7-8.6,5.8-18.8,3-28.2-.3-.9-2.1-5.2-2.1-5.5,0-.5.6-.8,1.1-.6.4.2,1.8,3.8,2,4.5,4.1,12.4,1.6,26.2-6.6,36.2-1.7,2.1-4.7,3.8-3,6.9,0,.2.7,1,.8,1,.7.4.5-.2.7-.6.7-1.5,1.9-2.2,2.9-3.4,8.6-10,12.3-21.9,10.2-35.1-1-6.4-3.8-12.5-7.6-17.8,0-.2,1.6-.7,1.5-1.4-3.5.8-4.7-3.4-7.7-4.8-7.4-3.3-14.3,4.7-10,11.5.4.6,1.1,1.2,1.4,1.7,2.4,3.8-1,8.2-5.3,6.6-2.8-1.1-3-4.3-3.4-6.9,2.7,0,1.4-.2.6-1.2-1.2-1.5-.8-4.3-.9-6.1-.3-3.8-1.3-8.2-3.1-11.5-.2-.3-1.1-1.6-1.1-1.6-.1-.5,1.4-.7,1.3-1.4-3,.2-4.7-2.3-7.4-3.3-2.1-.8-6-1.5-7.7.1-.4.4-.9,1.3-1,1.4-.3.2-1.2,0-1.7.1-1.9.3-3.2,2.4-2.4,4.2l.5-1.3c.8-1.1,4.3-.6,4.9.7-1.5.3-2.6.2-3.9-.6,2.1,4.9,8.7,0,11.8,4.3,1.5,2,1,7.6-.8,9.2-1.1,1-3,.8-.2,1.7.1.6-1.9,5.1-2.4,5.9-1,2-2.3,4.8-5,4.3l.3.6,1.2.8c-1.2,1.2-2,3-3.8,3.6-4.8,1.8-9-3.5-6.1-7.6,1.3-1.9,2.2-2.2,3-4.8,0-.3.1-1.4.3-1.5,0,0,2.1,0,1.6-.6,0,0-.3,0-.5-.2-1.7-1.6-1.5-3.2-2.7-5.1-3.1-4.9-9.8-6-14.2-2.1-1.7,1.5-2.7,4-5.6,3.4,0,.9,1.5.9,1.3,1.5-11.6,15.9-10.6,37.3,2.1,52.3ZM371.4,111c-.3,0-1.5-2.9-.3-3.3,1.9-.5,1.1,2.5.3,3.3ZM373,105.8c-.2-.8-1.3-3.4.5-3.2,1.5.2,0,3.6-.5,3.2ZM375.1,111.2c-.6-.5-1.4-3-.3-3.3.3,0,.8,0,.9.2.6.6,0,2.5-.6,3.1ZM375.4,100.4c-.6.4-1.9-2.9-.5-3.2,1.7-.3.8,2.9.5,3.2ZM377.2,105.8c-.5.4-1.9-2.9-.4-3.2,1.8-.2.7,3,.4,3.2ZM379.1,110.8c-.6.4-1-1.4-1.1-1.9-.1-1.6,1.5-1.5,1.7-.5,0,.4-.3,2.3-.6,2.5ZM368.6,12.5c-.5-.8.7-1.6,1.2-.7.3.7-.9,1.2-1.2.7ZM355,92.3c-.4.2-.8.4-1.3.6-1.2.6-2.5,1.2-3,1.6,0,0-.1.1-.2.2,0,0,.1-.2.2-.2.5-.4,1.8-1.1,3-1.6.5-.2.9-.4,1.3-.6s.3-.2.5-.2c4.5-2,9.2-3.3,14.1-3.9-4.8.6-9.6,1.9-14.1,3.9-.1,0-.3.1-.5.2ZM370.8,71c1.6-.1.7,3,.3,3.3s-.3,0-.4-.2c-.4-.7-1.2-3,.1-3.1ZM368.6,67.9c-.2-1.1.4-2.5,1.4-1.5.8.8-.9,4.9-1.4,1.5ZM362.4,94.6c-.3,1.2-3.1,1.9-2.9,0,.3.3,2,.1,1.5-.4-.3-.3-2.4.1-2-1.7.2-1,2.1-1.4,2.5-1,0,0,.3,1,.2,1.1-.5-.1-1.3-.5-1.3.4,1.1,0,2.3.3,2,1.7ZM369.7,92.1c-.1.2,0,1.4,0,1.5,0,0-1.2,0-1.5.2l-.6-4.3c1.2-.1,4.1-.9,4.1,1,0,1.5-1.9,1.3-2,1.6ZM381.9,93.6c-1.1.5-1.4,0-2.2-.3-1-.3-2-.1-2.4-1.5-1-3.7,5-4,4.5-.3,0,.8-.7,1.2-.7,1.3,0,.2.9.4.7.8ZM389.1,94c-.4.4.5,1.9-1.9.9l1.3-4.1c1.2.4,4.1.9,3.2,2.8-.6,1.4-2.6.3-2.7.4ZM399.6,94.7c0,0,0,.1.1.2,0,.1.1.3.1.4,0-.1,0-.2-.1-.4,0,0,0,0-.1-.2-.1-.1-.3-.2-.5-.4.2.1.4.3.5.4ZM398.3,93.9c-.3-.2-.6-.3-1-.5.3.2.7.4,1,.5ZM393.3,91.5c-5.3-2.2-11-3.4-16.6-3.6-1.6,0-3.2,0-4.8,0,1.6-.1,3.2-.1,4.8,0,5.6.2,11.3,1.4,16.6,3.6.3.1,1,.4,1.9.8-.8-.4-1.5-.7-1.9-.8ZM373.2,69.7c-.6-.6-1.4-3-.3-3.3,1.9-.6,1,2.5.3,3.3ZM373.9,76.6c0,.4-.4,2.4-.6,2.5-.5.4-1.1-1.9-1.1-2.2-.1-1.5,1.5-1.6,1.7-.3ZM373.2,60.1c-.3.3-.3,0-.4-.2-.4-.7-1-3,.1-3.1,1.6-.1.7,2.9.3,3.3ZM375.4,55.4c-.6.4-1-1.3-1.1-1.8-.2-1.8,1.5-1.7,1.7-.7,0,.4-.4,2.4-.6,2.5ZM375.1,64.7c-.3,0-1.5-2.8-.3-3.1,1.8-.5,1.1,2.4.3,3.1ZM375.3,71.2c1.4.2.1,3.6-.5,3.2-.4-.3-1.3-3.4.5-3.2ZM375.9,81.6c0,.3-.6,2.7-1.1,2.3-.2-.2-.6-2.3-.6-2.7.2-1,1.6-.8,1.7.4ZM377,56.8c1.7-.2.9,2.6.1,3.3-.3,0-1.7-3.1-.1-3.3ZM377.1,47.3c1.7-.2.8,2.9.4,3.2-.5.4-1.9-2.9-.4-3.2ZM377.8,67c0,.3-.4,2.4-.6,2.5-.6.4-1-1.3-1.1-1.8-.2-1.9,1.5-1.6,1.7-.7ZM377.2,79.2c-.3.3-.3,0-.4-.2-.4-.7-1.1-3,.1-3.1,1.5-.1.7,2.9.3,3.3ZM381.5,50.3c0,0-.5-1.3-.5-1.4-.4-2.3,1.6-2.2,1.6-.8,0,.3-.6,2.6-1.1,2.2ZM383.9,52.4c0,.4-.4,2.4-.6,2.5-.6.4-1-1.3-1.1-1.8-.2-1.8,1.5-1.7,1.7-.7ZM381.1,56.6c1.8-.1.7,3.1.4,3.3-.6.4-1.9-3.2-.4-3.3ZM380,64.5c-.5.4-1.8-2.9-.5-3.2,1.9-.3.8,2.9.5,3.2ZM379.4,74.2c-.5.4-1.9-2.9-.4-3.2,1.7-.2.8,2.9.4,3.2ZM380.5,66.2c1.9-.5,1.1,2.5.3,3.3-.3,0-1.5-2.9-.3-3.3ZM379.6,45.6c-.4-.3-1.3-3.4.5-3.2,1.3.2,0,3.6-.5,3.2ZM379.2,55.4c-.3,0-1.5-3-.3-3.3,1.9-.5,1.1,2.5.3,3.3ZM385.7,82.3c.1.1,1.8-.7,2-.8.4-.3,1.6-1.8,1.8-1.7l3.9,6.7c.4,1.3-.2,2-1.5,1.5-1.4-.5-2-2.8-3.7-1.9-.4.2-.4.6-.6.7-.4.3-3.8-.6-4.6-.8-1.1-.2-2.3-.2-3.4-.4l1.5-10.7c.7.9,1,1.9,1.7,2.9,1.2,1.6,3.5,2.2,3,4.7ZM384.2,42.3c1.4.2.1,3.6-.5,3.2-.4-.3-1.3-3.4.5-3.2ZM382.5,37.5c1.5.2,0,3.6-.4,3.2-.3-.2-1.3-3.4.4-3.2ZM381.3,32.9c.6.6,0,2.5-.7,3.1-.5-.6-1.2-2.5-.6-3.1.3-.3,1-.3,1.3,0ZM378.5,27.9c.3-.3,1-.3,1.3,0,.6.6,0,2.5-.6,3.1-.6-.6-1.2-2.4-.7-3.1ZM378.4,37.7c1.4.2,0,3.6-.5,3.2-.4-.3-1.3-3.4.5-3.2ZM375.7,33.3c.2-1,1.6-.8,1.7.4,0,.3-.6,2.7-1.1,2.3-.2-.2-.6-2.3-.6-2.7ZM375.5,42.5c1.7-.3.8,2.9.5,3.2-.5.4-1.8-2.9-.5-3.2ZM373.8,37.7c1.7-.3.8,2.9.5,3.2-.5.4-1.8-2.9-.5-3.2ZM373.4,47.3c1.5.2,0,3.6-.4,3.2-.2-.2-1.3-3.4.4-3.2ZM372.4,43c0,.4-.4,2.4-.6,2.5-.6.4-1-1.3-1.1-1.8-.2-1.8,1.5-1.7,1.7-.7ZM371.2,52.1c1.4.2.1,3.6-.5,3.2-.4-.3-1.3-3.4.5-3.2ZM371.2,62c0,.3-.6,2.4-.7,2.5-.5.4-1.1-2-1.1-2.3,0-1.2,1.6-1.3,1.8-.2ZM368.1,47.4c0-.4,1.1-.4,1.4,0,.4.4-.2,2.2-.5,2.7,0,.2-.1.5-.4.2-.3-.3-.7-2.3-.6-2.8ZM368.8,56.6c1.5-.1.7,2.9.3,3.3-.3.3-.3,0-.4-.2-.5-.7-1.2-3,.1-3.1ZM366.3,52.2c.2-.6,1-.6,1.4-.3.6.7-.4,3.3-.9,2.9-.3-.2-.7-2.2-.5-2.6ZM367.2,77.8c.7-.9,1-1.8,1.5-2.8,0-.2,0-.3.4-.3l1.5,10.7c-1.5.2-3,.4-4.5.6-.8.1-2.6.7-3.2.7-.7,0-.7-1.2-2-.9-.9.2-1.8,2.3-3.3,2.2-.7,0-1.1-.7-.9-1.3l4-6.9c.2-.2.2-.2.4,0,.9,1.1,1.8,2.3,3.3,2.3-.2-2.3,1.8-2.9,3-4.4Z" fill="#e5e1e6"/><path d="M350.7,121.4c-1-2.6.1-5.9-2.4-7.9l-1.9-1.4v3.4c0,1.9,2.4,3.8,3.6,5,.3.2.4.8.4.9,0,0,.2,0,.2,0h0Z" fill="#e5e1e6"/><path d="M344.1,117.5s.2,0,.4.2h0c0,0,.1.1.2.2,0,0,0,0,0,0,0,0,0,0,0,0,0,0,0,0,0,0,0,0,.4.2.6.4,0,0,0,0,0,0h0c0,0,.2,0,.4.2.2,0,.6.3.7,0l-1.2-1.8c.4.6.9,1.1,1.4,1.6,0,0,.5.9.6.4,0-.3-1.1-3.9-1.3-4.3-.6-1.4-2.3-2.5-3.7-3.1-.2,0-.5-.2-.5,0,.3,1.6.4,3.2,1.3,4.6.1.2,1,1.3,1.1,1.4h0ZM344.7,116.2l.5.5h0c0,0-.5-.4-.5-.4h0ZM344.5,115.8c.1,0,.1.1,0,.2v-.2Z" fill="#e5e1e6"/><path d="M423,98.6s.1-.7-.5-.7c-.4,0-.6.7-.9.9-1.3-1.9-1.6.8-1.8.9-.2.2-.8-.4-1.2-.4-.5.1-.5.8-.9.9,0-.8,0-3.8,1-3.8.5,0,1.4.6,2.1.2.4-.3,0-.8,0-.8.2-.2,1.7.4.9-1.1,1.7.2,1-.8,1.2-1.3.2-.5,1.1-.4.8-1.2-.2-.6-.8,0-1.2,0-.2,0-.5-1.5-1.3.4-.9-1.8-1.4,1.1-1.7,1.1-.1,0-.3-.6-.9-.2-1.1.8.3,2.5-.7,3.3-.5-1.1,0-2.3-.6-3.3-.1-.3,0-.5-.5-.4.2,2,.7,4.1.2,6.1-1.2-.9.3-1.8,0-2.8-.2-.5-.8-.2-.9-.3-.1-.1.1-2.2-1.1-1.1,0-1.3-1.1-.4-2-.7-.2.5.3.9.4,1.2,0,.2-.2.5-.2.7,0,.3.9.3.9.6,0,.1-1.1.8.6.8l-.4.6c.3.7,1.9.2,2,.3,0,0,.7,1.5.7,1.6,0,.4-.6,3.5-.9,3.7-.1,0-.3,0-.4-.1.2.8-.3,2.5-.8,3.1-.3.3-.5-.3-1-.2.5-.7,1.1-1.9-.2-1.7.7-1.7-.7-.3-.9-1.5.5.2,2.5-.2,2.8,0-.1-.7.9-1.6.7-2.6,0-.3-.4-.8-.6-.9-.4,0-.7.6-.9.2-.2-1.5,0-2.2-1.8-1.5,0-1.9-.9-.5-1.2-.4-.3,0-.8-.6-1.2-.3-.7.5.5,1.2.5,1.5.2.8-.9,1.3,1.1,1.5,0,0-1.5,1.2.7,1.3,0,.7-.9,1-.9,1,0,.3.1,1.2,0,1.3,0,0-.6,0-.7.3-.1.5.5.7.6.9,0,0-1.3.4,0,1.3h-.6c-.5,1.1,1.4,1.4,1.5,1.7.4,1.5-1.5,3.6-2.6,4.5-.6-1.6.5-1.4,1.2-2.4.7-1,.6-2.1-.8-1.7-.1-.1,1.6-3-.7-2.2.5-2.1-.5-.9-1.2-1.1-.3,0-.5-1.1-1.2-.6-.5.3.3,1.3.2,1.9,0,.1-.8,0-.7.8,0,.5,1,.5.9,1.2-1.9.2.3,1.4.2,1.5-.7,0-.4.6-.6.9,0,.1-.3.1-.5.4-.1.2-.1.7-.2.8-.2.1-.7,0-.7,0,0,0,.1.9,0,1.1-.2.2-1.2-.1-.3,1.1-1.6,0,0,1.3.2,2l.4-.7c.3,0,0,.3.3.4.3,0,.6-.2.8-.1-.2.3-1.3,1.2-1.5,1,0,0,.1-.4-.2-.4,0,.4-.4.8-.7,1.1-.9.8-2.2,1.4-3.2,2.1,0-1.2,1.9-.8,2.4-1.9.4-.9.3-.8-.3-1.2-.7-.4.2-.5.5-.9.5-.7.3-1.6-.7-1.4,1.4-1.6-.1-1-.5-1.3-.1,0,0-1.2-.8-1.1-.4,0-.3,1.4-.5,1.6-.3.3-1.2-.2-.8,1,0,.3.4.4.3.7-1.3,0-1.1.8-.4,1.5-2.2.5.7,2,.8,2.2.2,1-1.7,2.3-2.5,2.1-.9-.2.9-.8,1-1,.2-.5-.7-.4-.4-.8.1-.1.7,0,.6-.7,0,0-.3,0-.4-.2,0-.3.1-.7-.3-1-.4,0-.4.6-.8.7-.3,0-.9,0-1,0,0,0,0,.8,0,.9,0,0-1.2-.7-.9.9l-.7-.2c-.3.5.3,1.6.3,1.8,0,.2-1.3,1.3-1.5,1.6-.5-.6.4-1-.6-1.4.6-.6,1.8-.5,1.5-1.6,0-.2-.8-.3-.6-.7,0,0,.8-.2.7-.6,0-.4-.8-.4-.9-.5-.1-.2.3-1.5-.7-1.2-.4,0-.5,1.2-.9,1.4-.3.2-1.7-.7-.9,1.4-2-.4-1,1.2-1.1,1.3,0,0-.8-.1-.9.3-.1.4.6,1.8.9,2l1.8.3c-.5,0-.9.4-1.4.5-.3,0-.6-.1-.8-.1-.3,0-1.1.7-1.7.8-.3,0-1.1.3-1-.3.4,0,1.2.1,1.4-.2-.1-1.2,0-.5.4-.8.3-.2,0-1.3.2-1.8-.5-.2-1.1.5-1.4.5-.3,0-.4-.7-.9,0-.1.2,0,.5-.1.5-.3.3-.4-.3-.4-.3-.8-.4-.6.7-.7.9,0,0-.6-.4-.8,0,0,1.6-.4,2.1-1.9,2.3.8-.4-.1-1.2,0-1.4.1-.2,3-.4,1.1-1.6,2-.9.2-1.3.2-1.5,0-.2.3-.8.2-1.2-.9-.3-1,.8-1.4.9-.9.3-1.6-.5-1.4,1.3h-1.1c-.3.1-.1.9-.2.9-.2.2-1.3-.8-.9,1.4.2.9.7,1.3,1.4.5l-.3.7.7.4c-1.1-.4-5.9.7-6.4.3,0,0-.1-.4-.4-.6-1.1-.8-1.5.6-2.1.6-.2,0-2.1-.2-2.4-.2-2.7-.5-2.8-3.4-4.3-5.1-1.1-1.3-2.7-1.4-4.2-2l1.1,3.1c-.6,0-1-.5-1.6-.7-.9-.3-2-.2-3-.3-.4-2.9-2.2-4.2-4.6-5.4-.2,3.3,2,6.5,5.1,7.5l.3.5c-.1-.8-.9-1.6-.6-2.4,1.1,1.8,2.3,3.2,4.5,3.7.8.2,1.7.1,2.5.2,0,0,0-.2,0-.3-.4-.4-1.5-.9-1.3-1.5,1.3,1.3,3.4,1.3,4.7,2.6-1,0-2.1-.2-3-.6,0,0,.3.4,0,.4-1.7-.3-3.5-.5-5.2-.9-.3,0-.6-.4-.8-.5-.5-.1-1.1,0-1.8-.2-.7-.3-.8-.8-1.7-.4l.4-.5c-1.7-1.5-2.3-4.4-4.7-5.1-.5-.2-1.7-.4-2.3-.5-.3,0-.4,0-.3.3.4,1.3,1.7,3.1,2.8,4-.6,0-1.3-.4-1.8-.7,0,0-.7-.6-.8-.6h0v.2c-.2,0-.2-.2-.2-.2-1.5-.4-2.3-1-3.2-2.2l.2.7c-.7-.2-1.2-.9-1.8-1.3-.2,0-.2-.1-.4-.2h0s0,0,0,0c-.3-.2-.4-.3-.6-.4,0,0,0,0,0,0,0,0,0,0,0,0,0,0,0,0,0,0,0,0-.1-.1-.2-.2,0,0,0,0,0,0,0,0-.2,0-.4-.2h0c0,0-.3,0-.5-.2-.4-.4-2.8-2.5-2.9-2.9-.6-2.9,2.3-4.9,1.8-8.1-.1-.9-1-1.9-.9-2.9-.3-.3-1.2,1.3-1.3,1.5-1.4,2.4-1.5,4.8-.3,7.3l.6-3.9-.2,5.7c-3.8-2.3-.2-6.2-2.3-9.3-.2-.2-1.4-1.8-1.6-1.6-.6,2.3-.8,4.1.2,6.3-.6-.6-1.1-1.5-1.5-2.3-.3-.5-.9-1.9-.8-2.3.5-1.9,3.5-2.8,4.6-4.5.7-1,.7-2.3,1-3.5-2.1.4-4,2.2-4.8,4.2-.4,1-.3,2.2-.9,3.1,0,.1-.1.5-.4.2-.1-.1-.5-2.1-.4-2.5.6-2.3,3.3-3.7,3.7-5.8.1-.7,0-1.6-.1-2.4,0-.2.1-.6-.3-.5-.7.3-2.6,2.8-2.9,3.6-.6,1.7,0,2.5-.2,3.7,0,.1-.3,1-.5,1.1-.1-1.8-1.1-5.6,0-7.1.9-1.3,4.5-1.8,5.9-3,.9-.8,1.1-2.1,1.9-3,0-.4-.1-.2-.4-.2-1.8.2-4,1.1-5.2,2.4-1,1.1-1.4,2.8-2.6,3.8.3-1.2.7-2.8,1.4-3.9.8-1.2,4.3-3.3,4.3-4.5v-2.7c-2.1.8-4.4,2.5-4.8,5-.1.7.1,1.6,0,2,0,.3-.8,1.5-1,2-.2.7-.5,1.5-.5,2.2-.3,0-.2-1-.2-1.2.2-3,.3-4.5-1.7-7-.2-.2-1.4-1.9-1.7-1.6.3,1-.2,2.1-.2,3.1,0,2.8,3.3,5.4,3.3,7v3.1c0,.1.5.9,0,1-.4-3.8-2.6-6.6-6.3-7.6.4,1.3.4,2.7,1.2,3.9,1.3,1.9,4.2,2.6,5.1,4.3.7,1.4.6,3.2,1.3,4.7-.1.8-.5-.8-.6-.9-1.5-3.3-3.5-5.1-7.2-5.7.5,1.3.8,2.8,1.8,3.9,1.5,1.6,4.1,2,5.9,3.3l2.4,4.2c-1.2,0-1.3-1-1.9-1.6-1.1-1.1-3.2-2.6-4.8-2.6h-3.2l1.5,1.8c2.1,3,6.4,1.1,9,3.3,1.2,1,1.8,3,3.3,3.9,0,.4-.8,0-.9-.1-2-1.3-2.7-2.7-5.4-3.2-.8-.1-4.8-.1-5.2.3-.3.3.1.3.2.4.7.6,2.2,1.9,2.9,2.3,2.5,1.1,5.5-.1,8.1.8,1.6.6,2.6,2.1,4,3.1-.7.1-1.6.1-2.3,0-.9,0-2.3-.1-3.1-.2-.2,0-.6,0-.5-.3,1.6-.1,3.1.2,4.6.4-2.8-2.2-6.6-2.1-9.8-.6-.2,0-1.4.5-1.1.8,1.5.2,2.6,1.5,4.2,1.7,3.1.4,6-1.6,8.7-1.1,1.1.2,3.5,2.6,4.8,3-1.4.2-2.7-.7-4.1-.9-2.7-.5-6.1.2-8.2,2-.2.2-.4.2-.3.5,2,.3,3.2,1.3,5.3,1.1,2.8-.2,5.5-2.9,8.4-2.1.7.2,2,1.1,2.8,1.4.2,0,1.7.3,1.2.7l-5.6.7c0-.4.4-.3.6-.4.9-.3,2-.3,2.9-.4.2,0,.9,0,.9-.3-3.9-1.4-7.1,0-10.2,2.2v.4c1.8,0,3.1.9,4.9.7,2.5-.3,5.4-3.1,7.5-2.7,1,.2,2.1,1,3.1,1,0,.3-.6.2-.8.2-4.6-.2-6.1-.1-9.4,3.1-.2.2-.4.2-.3.6,1.1-.2,2.4.4,3.4.4,3.2,0,5.1-3.2,8-3.9l3.2.9h-2.9c-.3,0-1.9.7-2.3.8-1.1.6-2.1,1.7-3,2.7,1.6,0,2.8.5,4.4,0,2-.6,3.9-3,5.5-3.2.9-.1,2.2.2,3.1.4.2,0,.8-.2.7.3,0,.2-2.9.2-3.5.4-2.2.5-3.9,2.1-5,4h2.7c2.8,0,4.5-4.4,7.4-4.4.6.3,4,.2,4.2.4.4.3-.1.3-.3.4-2.2,1.1-4.4,2-5.8,4.2-.8,1.3-1.8,3.5.5,3.6,0-1.3.6-2.7,1.3-3.8.3-.4,2.8-2.8,3.1-2.5.3.3-1.1.9-1.3,1-.8.7-1.9,2.5-2.1,3.6-.4,1.8-.6,2.5,1.4,3-.5-2.1.6-4.5,2-6,.2-.3,1.8-1.5,2-1.5.3,0,.6.3.9.3.4,0,.7-.4,1.1-.3.7,0,2.8,2.4,3.2,3.1,1,1.7.7,2.5,1,4.2,0,.2,0,.4.3.3,1.8-.6,1.3-2.6.7-4-.3-.7-.9-1.2-1.1-1.9.2-.2.8.5.9.6,1,1.1,1.5,2.5,1.7,4,0,0,1.4-.5,1.5-.6.1-.1-.3-1.4-.4-1.7-1.1-2.8-3.7-4.2-6.2-5.5-.3-.1-.5.1-.4-.4.9.1,1.8-.2,2.7-.2,1,0,1.9.2,2.7.2,0-.2-.7-.3-.2-.5.5-.2,1,0,1.5,0-.2.4-.9.6-1.3.6.1.9-.3,3.3,1.3,2.2l.5,1.1c1.6-.9.8.3,1.5.5.5.2.8-.4,1-.3.3,0,1.3,1.3,1.6.4.1-.5-.3-.7-.3-.9,0-.4,1-1.3-.6-1.2,0-.4.5-.5.3-.9-.3-.6-1.4-.3-2-.4.6-1.1-.5-.9-.3-1.5.5.1,1-.2,1.5-.2,1.9,0,1.2.9,1.4,2.1.3,1.2,1.4.4,1.4.5,0,0-.1.9.5,1.1.4,0,.8-.5,1-.4,0,0,0,1,.5,1.1.5.2.8-.4,1.2-.3.5,0,.8.9,1.5.7.7-.2,0-1,0-1.4,0-.5,1.2-1.3-.7-1.2.3-1.2.5-.7,1-.8.2,0,.6-.6.7-.5,0,.5.5,1.4,1.1,1,.2-.1,0-.6.6-.5.2,0,.1.9.7.9.6,0,.7-.6,1.1-.6.4,0,1.2.6,1.8.4.2-.6-.5-.9-.5-1.2,0-.3.5-1.2-.1-1.3-.1,0-1,.4-1-.1,0-.3,1.2-.6,1.4-1,.3.9,1.2,1.7,1.5.4.6,0,.6,1.2,1.6.9.2,0,.1-.5.6-.6.5,0,1.1.6,1.8.4.3-.9-.5-1-.5-1.2-.2-.6.9-1.8-1.1-1.2.7-1.9-1-1.2-2.2-1.1,0-.8,0-1.2-.9-1.1.8-.9,2.1-1.1,3.2-1.3.3.7,1.8,3.5,2.2,1.5.3-.3.8,1.1,1.4.9.3,0,.3-.8.6-.9.3.4,1.1,1,1.6.7.2-.2,0-.6.3-.7.5-.1,1.5.3,1.7.1.8-1-.6-1.1-.7-1.2-.1-.2,1-1.7-1.3-1.1.7-2.3-2.3-.2-2.4-.4.1-2.3-2.1-.4-2.8.5,0,.4.2.2.5.3.7,0,1.3.1,2,.3.2,0,.9,0,.9.3l-4.6-.5c1-.7,4.8-3.9,5.9-3.2.2.2.6,1.8,1.6,2,.7.1.3-.4.7-.7,0,0,.4.9.9.9.6,0,.4-.7.5-.7.3-.3.8.4,1.1.5,1.1.3.9-.7,1.1-.7.4-.1,2.7.6,1.8-.7-.3-.6-1.1.2-.7-1.5l-1.5.2v-1.1c-.5-.4-2.3.7-2.4.6-.2-.2.4-1.1-1-.9-.6,0-2.1,1.5-1.8,1.8h1.9s2,.6,2,.6l-5.6-.5c1.6-1.1,2.6-3,4.6-3.6h.2c.3,1,2.5,2.8,2.4.7.5.4,1,.7,1.7.6v-.9c.4,0,.6.3.9.3,1.2.3.8-.7,1.3-1,.2-.1,2.3,0,1.5-.9-.5-.5-1.4,0-1.1-1.4-.4-.3-1.4.5-1.5.4,0,0,0-.9-.7-.9-.9,0-1.2,1-1.7,1.1-.4.1-.3-.5-.5-.8-.4-.3-1.1,0-1.4.3-.2.2-.8,1.4-.7.7.8-.9,1.2-2.4,2.4-2.8.9-.3,1.1.6,1.9.9,1.8.9,1.2-.6,1.3-.6.2-.1,2.3,1.3,1.7-.7.4,0,.6.3.9.3,1.4.3.8-.7,1-1.1.2-.3,2.3-.2,1.7-1.1-.2-.4-1-.3-1.2-.4-.3-.2,0-1.9-1.6-.3-1-2.3-1.8.1-2.4.4-.4.1-.3-.6-.8-.7-1.6-.5-1.8,2.7-1.9,2.9,0,0-1.1.5-.9,0,.1-.4.6-1,.8-1.5.4-1,.9-3.1,1.9-3.7.8-.4,1.7.8,2.7.3v-.9c1,.2,1.8.2,1.3-1,2,.2,1.2-.4,1.6-1.3.3-.5,1.2-.3,1-1-.2-.9-1.2,0-1.5-.3ZM406.7,116c0,.1-.3-.1-.2-.4,0-.1.3.1.2.4ZM406.9,115.4c0,.1-.3-.1-.2-.4,0-.1.3.1.2.4ZM406.9,114.9c0-.8.3-.8.2,0h-.2ZM364.4,123.6c-.2-.2-.3-.3-.3-.6,0-.2.4.4.3.6ZM329.5,95.5l1.3,1.8c-.4-.6-1.1-1.1-1.3-1.8ZM331,97.5c.2.2.5.4.5.7,0,.2-.5-.5-.5-.7ZM337,110.4c-.2-.2.2-.6.4-.4s-.2.6-.4.4ZM337.4,110.6c.3-.3,1,1,.9,1.3-.2,0-1.1-1.2-.9-1.3ZM372.2,129.6c.2-.2.3-.3.6-.3.2,0-.4.4-.6.3ZM379.4,130.8l-2.2-1.5c.3,0,2.6,1.1,2.2,1.5ZM382.3,125.4h0c0,0,.5-.5.5-.5h0c0,0-.5.5-.5.5ZM383.2,128c.2-.1.6.3.6.4-.2.1-.6-.3-.6-.4ZM383.9,127.3c-.1,0,.1-.3.4-.2.1,0-.1.3-.4.2ZM402.8,124.3c.1,0-.1.3-.4.2-.1,0,.1-.3.4-.2ZM402.2,124.3c-.3,0-.6,0-.7-.4.3,0,.6,0,.7.4ZM399.4,122.5c.1,0,.1.1,0,.2v-.2ZM397.6,122.3c.2.1-.9.7-1.1.6.2-.5.6-.6,1.1-.6ZM389.4,127.1l1.9,1.4c-.6-.3-1.6-.8-1.9-1.4ZM391.6,128.8v-.2c.1,0,.1.1,0,.2ZM394.3,125.8c-.1,0,.1-.3.4-.2.1,0-.1.3-.4.2ZM394,125.3c-.2.3.5.3-.5.4,0,.7.1,1.3.4,2l-2-.2c-.1-.1.7-1.2-.5-1.4-.5,0-2.5.4-2.4,1.1-.3-.2-1.7-.5-.7-.7,2.1-.5,3.1-.6,5.3-.7,0-.5-1.1.2-.9-.6l2.6-.7c-.2.4-1,.6-1.2.9ZM396,126.4c-.3-.1-1-.3-1.2-.6l1.7.6c0,.4-.3,0-.5,0ZM396.8,126.7v-.2c.1,0,.1.1,0,.2ZM397.1,126.9v-.2c.1,0,.1.1,0,.2ZM401.3,124l-2.7-.7c0,.7.2,1.4.5,2-.4-.2-2.1.3-2.2.2,0,0,.3-.6.1-.9-.3-.5-.9-.2-1-.6.5,0,3-1.4,3.1-1.3,0,0,0,.3.2.4.5.3,1.7.2,2,.8ZM407.8,115c.4-.2,1.3-1,.9-1.4,0-.1-.9.2-.4-.4,0,0,.4,0,.3-.6,0-.2-1,0-.8-.8.3.2,2.1.6,2.1.7.6.9-1.1,3.8-2.1,2.5ZM411.9,112.9c.2-.1,1-1.5,1.3-1.2,0,.9-.4,1.2-1.3,1.2ZM413.2,110.1c0-.9,0-1.8,0-2.7,0-.1-.2-.4-.2-.7,0-.2-.1-1,.2-1l.2,3,1.1-.5-1.3,1.9ZM417.2,102.9l.4-2.4.3,2s-.6.3-.7.4Z" fill="#e5e1e6"/><path d="M365.2,3.3c0,.2.6,3.6.8,3.8,3.1-.5,6.3-.6,9.3,0,.1-.7.9-3.4.6-3.9-1.4-.9-1.9,1.5-2.8,1.6-1.3.1-1.2-2.1-2.2-2.2-1.3-.2-1.2,1.3-1.9,2-1.2,1.1-1.8-1.2-2.5-1.5-.3-.1-1.2-.1-1.3.2Z" fill="#e5e1e6"/><path d="M416.8,89.7c.2.7.8,1.1.5,1.8l-1-1.9v.9c-.5-.6-1.2.2-1.3.2-.3,0-.2-1.4-1.1-1.3-.6,0-.5.7-1.5-.2-.6.9-.5.6-1.3.7-1.4.3.5,1,.6,1.1.4.7-.6,1.1,1.4.9l-.2.9,1.2-.2c-.4,1.8,1.6.5,2.5.2l-.6-.6c.9.2.5-.7.6-1.3.4,0,.2,1.2.6.9.3-.2.4-.8.5-.9.2-.1,1.6,0,1.8-.2.2-.3-.2-.9-.2-.9.2-.2,1.4.1.4-1.1,1.6-.3.5-1,.6-1.4,0-.3.7-.6.5-1.1-.2-.6-.8,0-1,0-.3,0-.5-.4-.8-.4-.1,1.6-.7.4-1.1.8-.3.2,0,1.3,0,1.6,0,.1-1.5-.9-1,1.1Z" fill="#e5e1e6"/><path d="M414,83.5c-.2-.7-.7,0-1,0-.3,0-1.2-.8-1.2.1,0,.5.6.8.6,1.3,0,0-1.3.9.5,1l-.4,1.1.9.2c-1,1.3.9,1.1,1.9,1.1l-.2-.7c.7.4,1,0,1.1-.8.3-2.1-1-1.1-1.1-1.2.6-2.3-1-1.4-1.1-1.5,0,0,0-.4,0-.6ZM413.6,85.3v-.2c.1,0,.1.1,0,.2ZM415,86.7s0,.6,0,.7c-.6-.3-.5-1.1,0-.7ZM414.6,86.2c.2.2-.2.6-.4.4-.2-.2.2-.6.4-.4ZM414.3,85.9h0c0,0-.5-.4-.5-.4h0c0,0,.5.4.5.4Z" fill="#e5e1e6"/><path d="M365.7.9c-.8-.9-2.5,0-1.9,1.2.7,1.5,3-.1,1.9-1.2Z" fill="#e5e1e6"/><path d="M377.2,2.4c.8-1.1-.7-2.4-1.6-1.5-1.2,1.1.8,2.7,1.6,1.5Z" fill="#e5e1e6"/><path d="M371.4.3c-1-1-2.8.7-1.5,1.6,1.2.9,2.4-.8,1.5-1.6Z" fill="#e5e1e6"/><path d="M389.6,92.1l-.2,1.1c1.4.3,1.5-1.1.2-1.1Z" fill="#e5e1e6"/><path d="M369.3,90.1s0,1.1,0,1.1c.2.2,1.2,0,.9-.8,0-.3-.8-.4-.9-.3Z" fill="#e5e1e6"/><path d="M378.9,90.3c-.7.7.2,2.2,1.2,1.5.9-.8-.3-2.3-1.2-1.5Z" fill="#e5e1e6"/><rect y="0" width="750" height="162.5" fill="none"/></g></svg>