<?xml version="1.0" encoding="UTF-8"?><svg id="uuid-474c809d-9261-4ba1-bc45-db12beacbea8" xmlns="http://www.w3.org/2000/svg" viewBox="0 0 750 162.2"><g id="uuid-20ab2003-690a-49a4-9842-8dd78b281265"><path d="M558.3,4v1.2l-46.7,114.5-97.7-.2c-2.9-6.7-5.5-13.6-8.2-20.4-10.5-25.9-21-52-31.5-78.1-1.9-4.8-4.1-9.5-5.9-14.4-.3-.8-1-1.4-.7-2.6h55.1l40.6,111.2L503.7,4.3l54.6-.2Z" fill="#e5e1e6"/><path d="M211.8,162.1c.1-.7-.3-.5-.8-.6-1.2-.2-2.5-.2-3.7-.5s-4.4-1.2-4.6-1.3-1.5-1.2-1.9-1.5c-5.3-3.9-7.9-8.3-9.1-14.9s1.5-9.5,3.1-12.3c6.7-11.6,23.6-12.8,33.5-4.4v.6c-1.2,1.6-2.8,2.9-4.2,4.4s-1.1,1.9-2.5,2.3c-2.1-.9-3.9-2.2-6.3-2.6-7.2-1.2-12.3,4-12.1,11.1.1,4,3.3,8.4,7.3,9.3s7.6.4,8.9-1-.3-3.8.6-5c2.7-2.7,5.5-5.4,8.3-8s.6-1.4,1.6-1.2v19.1c-1.9,1.7-4.1,3.1-6.5,4s-5.9,1.5-9.3,1.9-.9-.1-1.1.5h-1.2Z" fill="#e5e1e6"/><path d="M251.9,162.1h-2.7c.1-.8-.4-.4-.9-.5-9.5-1.4-15-5.6-15.5-15.7s.1-8.6.1-12.8c3.3-3.8,7-7.3,10.6-10.6l.5.3v22.4c0,.2.5,2.5.6,2.8.7,1.6,2.9,3.4,4.7,3.6s2.2,0,2.9,0c1.9,0,3.9-1.5,4.7-3.1s.8-1.8.8-1.9v-24.1l.4-.4h10.5c.8,0,.4,2,.4,2.3,0,6.9.4,14.7,0,21.5s-3.7,12.3-9.8,14.6-4.1.7-6.2,1.1-.9,0-1.1.5Z" fill="#e5e1e6"/><polygon points="558.3 159.4 557.4 160.7 546.6 160.6 546.6 133 555.9 123.5 557.6 122.4 557.6 157.6 558.3 158.5 558.3 159.4" fill="#e5e1e6"/><path d="M195.4,119.7c0-.4,0-.9,0-1.3-10.5-38.8,4.9-81.6,39.1-103.1,11.7-7.4,23.1-11.1,36.6-13.5,2.3-.4,4.7-1,6.9-1.4,3.3-.6,18.5-.4,22.3,0s2.3.6,3.6.8c19.7,2.5,38.3,9.8,53.9,22.3.9.8,1.8,2,2.9,2.6l.2.7-32.3,32.2c-6.2-4.4-12.6-8.6-19.9-11.1-10.2-3.5-24.7-4.4-35-.5-27,10.2-37.4,43.1-26,68.8.5,1.2,1.5,2.3,1.6,3.6h-53.8Z" fill="#e5e1e6"/><path d="M367.2,119.7h-47.2v-10.9c0,0,1-1,1.2-1.2,1.1-1.3,1.8-1.8,3.2-3.2,11-11.1,22.3-22.3,33.5-33.4s5.9-6,8.9-8.9c1,1.1.3,2.5.4,3.5,0,1.8,0,3.6,0,5.4,0,16.2,0,32.5,0,48.7Z" fill="#e5e1e6"/><path d="M290,122.1c5.6.3,11.5-.4,17,0,10.1.7,19,6.6,19.7,17.4.8,13-7.8,20.7-20.4,21.4-4.6.2-9.3-.2-13.9,0s-2.3.6-2.3-.1v-38.7ZM306.3,131.9h-5.1l-.4.4v18.3c0,0,.3.4.2.6h6.5c.1,0,2.4-.8,2.7-.9,1.9-.9,4-2.5,4.7-4.6,2.2-6.9-1.2-13-8.6-13.7Z" fill="#e5e1e6"/><path d="M543.6,155.4c-7.3,6.9-20.4,8.3-28.9,3-12.4-7.8-12-26.6.5-34.1,4.2-2.5,8.7-3.3,13.6-3,4.9.4,9.7,2.4,13.3,5.8,0,.6-6,6.1-6.7,6.9-1,.2-2.8-1.5-3.9-2-3-1.2-7.4-1.1-10.1.7-.5.3-2.1,1.9-2.5,2.4-.9,1.1-1.8,3.1-1.9,4.4-.9,8.6,4.7,13.8,13.3,12.3s2.6-2.8,3.1-5.5,8.2-8.6,9.3-9.5.6-.5,1-.6v19.1Z" fill="#e5e1e6"/><path d="M503.3,155.6c-2,1.8-4.4,3.1-6.8,4.1-13.6,5.5-29.9-1.1-31-16.8-1.3-18.2,20-27.6,34.2-17.8.6.4,2.4,1.6,2.2,2.4-2.6,1.7-4.3,4.6-6.8,6.4-.2,0-1.5-.6-1.8-.7-3.6-1.9-7.5-3.1-11.5-.9-8.4,4.6-6.1,19,4.4,19.7,1.5,0,5.4-.3,6.5-1.2s0-3.8.5-4.9c3.2-2.6,6.2-6.9,9.4-9.4s.3-.5.7-.4v19.4Z" fill="#e5e1e6"/><path d="M409.6,122.1c.2,0,.5.5.3.8-1.1,3.2-2.7,6.3-4,9.5-3.3,8.3-6.4,16.8-9.9,25-.3.6-1.2,3.1-1.5,3.4s-.7.3-1.1.4c-1.9.2-6.7.2-8.6,0s-.5,0-.7-.3l-15.5-38.4c.8-.9,1.9-.4,2.8-.4,2.6,0,6.3-.3,8.8,0s.5,0,.7.3c2.1,5.6,3.8,11.3,5.9,16.8s1.3,3.7,2.1,5.5.2.7.6.6l8.8-23.2h11.2Z" fill="#e5e1e6"/><path d="M468.9,160.9c-.8.5-1.5,0-2.3,0-1.2,0-2.5,0-3.7,0s-4.6.8-5.5,0c-1.7-3.9-3.5-7.8-5-11.8-1.6-4-2.7-8.2-4.5-12.1s-.1-.7-.6-.6l-10.2,24.7c-.8.6-2.1,0-2.9,0-2.7,0-5.5,0-8.2,0-.5-.5,2.2-5.8,2.6-6.8,3-7.3,6.4-15,9.5-22.4,1.1-2.6,2.1-6.5,3.4-8.8s.6-.6.8-.9h10.4c0,.1,16.2,38.9,16.2,38.9Z" fill="#e5e1e6"/><path d="M350.3,121.9l16.4,38.6c-.9,1-1.8.4-2.8.4-3,0-6,0-8.9.2l-9.4-24.3-.7-.5-10,24.4-.5.4c-3.6-.5-7.1.4-10.7-.3-.4-.2,0-1.2.1-1.6,2.3-6.2,5.5-12.1,7.9-18.2s.9-2.2,1.5-3.4c2.2-5.1,4.1-10.3,6.4-15.3.2-.4.5-.4.8-.4,3-.4,6.8.3,9.9,0Z" fill="#e5e1e6"/><path d="M412.5,122.1h10.5l.4.4v38.1c-1.3,1-2.9.4-4.3.4s-3,0-4.4,0-2.3.6-2.3-.4v-37.8c0,0-.4-.3.1-.6Z" fill="#e5e1e6"/><path d="M273.9,160.9v-38.4l.4-.4h10c.8,0,.4,2.1.4,2.6,0,12,0,24,0,35.9l-.3.4c-2.4,0-4.8-.2-7.2-.1s-2.1.5-3.3,0Z" fill="#e5e1e6"/><rect y="0" width="750" height="162.2" fill="none"/></g></svg>