<?xml version="1.0" encoding="UTF-8"?><svg id="uuid-01f08b10-c7e1-4260-94e9-8f100a3c3000" xmlns="http://www.w3.org/2000/svg" viewBox="0 0 750 162.2"><g id="uuid-d302f0b8-0c94-4c8f-9729-b87e5f4a8db4"><path d="M28.2,109V0h-5.2L0,10.9v3.3l5.8,5.7v89.1c0,5.1-.3,7.3-5.8,7.7v5.5h33.8v-5.5c-5.3-.4-5.6-2.6-5.6-7.7Z" fill="#e5e1e6"/><path d="M93.1,106.5v-39.8c0-17.1-10.1-25.7-29.6-25.7s-25.5,7.7-25.5,18.4c-.2,6.1,4.5,11.2,10.6,11.4.2,0,.3,0,.5,0,4.9.5,9.3-3.1,9.8-8,0-.4,0-.8,0-1.3,0-6.5-5.8-8.3-5.8-10.3s2.9-3.4,6.6-3.4c7.9,0,11,3.7,11,13.1v11.3l-13.5,6.3c-15,6.8-21.3,13.2-21.3,25.7-.7,10.1,6.9,18.8,17,19.5.8,0,1.7,0,2.5,0,7-.2,13.3-4.1,16.7-10.2,1.3,6.3,7,10.7,13.4,10.2,5.4.2,10.6-2.1,14.3-6.1v-5.5c-.9.6-2,1-3.2,1-2.2,0-3.4-2-3.4-6.6ZM70.5,103.1c0,5-2.8,9-7.1,9s-6.6-3.7-6.6-11.7,2.7-13.4,7.8-17.1l5.9-4.2v24Z" fill="#e5e1e6"/><path d="M206.1,93.5c-3.1-20.8-10.1-28.3-25.3-31.5,18.7-3.7,27.1-13.6,27.1-27.7s-13.1-30.9-39.5-30.9h-39.9v5.5c8.1.7,9,3.3,9,11.1v85.5c0,7.6-2,10.4-9,11.1v5.5h43.4v-5.4c-7.1-.7-9-3.5-9-11.1v-40.8h2.5c5.1-.7,10,2.4,11.6,7.3,2.3,8.3,2.4,26.1,5.6,37.5,3.2,11.4,10.7,13.5,20.8,13.5,5.3.2,10.6-1.1,15.2-3.8l-.3-5.5c-6.7,1.5-9.5-1.3-12.3-20.3ZM164.4,57.7h-1.5V10.6h2c13.6,0,17,7.2,17,24.7s-3.4,22.4-17.5,22.4h0Z" fill="#e5e1e6"/><path d="M255.4,109.1c-10.2,0-17.2-10.7-18-33.3h36.1v-2.5c0-20.5-11.2-32.2-26.4-32.2s-31.7,16.2-31.7,42.7,13.3,40.2,31.3,40.2,22-6.9,27.5-20.5l-4.8-3.5c-3.9,6.1-7.5,9.3-13.9,9.3ZM245.8,47.9c4.2,0,7.1,5.1,7.1,18.4v2.4h-15.4c.2-16.2,3.9-20.8,8.3-20.8Z" fill="#e5e1e6"/><path d="M322.5,41.1c-7.5,0-14.5,3.9-18.4,10.3v-10.3h-5l-23,9.3v3.2l5.8,5.7v76.6c0,5.1-.3,7.3-6,7.6v5.5h34.5v-5.5c-5.8-.3-6.2-2.5-6.2-7.6v-13.9c3.3,1.2,6.8,1.9,10.3,1.8,18.9,0,30.7-17.2,30.7-45.5s-9.4-37.3-22.9-37.3ZM312.5,116.7c-5.7,0-8.3-4.2-8.3-12.1v-40.2c0-6.5,3.5-11.1,8.3-11.1s8.8,10.1,8.8,34.5c.2,19.5-1,28.9-8.8,28.9Z" fill="#e5e1e6"/><path d="M412,103.7v-62.5h-5.1l-22.2,5.3v4.6c4.5,1.8,5,5.5,5,12v38.1c.6,5.1-3.1,9.7-8.2,10.2,0,0-.1,0-.2,0-4.6,0-6.5-3.1-6.5-8.3v-61.9h-5.2l-23.1,5.3v4.6c5,.8,5.9,4.7,5.9,12v34.7c0,18.3,7.9,26.4,19.5,26.4,7.4-.2,14.2-4.3,17.8-10.8v9.6h4.6l23-3.4v-5.5c-4.7-1-5.2-2.4-5.2-10.3Z" fill="#e5e1e6"/><path d="M462.9,41.1c-7.4,0-14.2,4-18.1,10.3V0h-5.2l-23,10.9v3.3l5.7,5.7v92.6c8.5,7.7,19.8,11.8,31.3,11.2,20.3,0,32.1-17.2,32.1-45.5,0-25-9.3-37.2-22.9-37.2ZM452.8,116.7c-5.6,0-8-3.8-8-10.2v-42c0-6.5,3.5-11.1,8.3-11.1s8.8,10.1,8.8,34.5c0,19.5-1.1,28.9-9.2,28.9Z" fill="#e5e1e6"/><path d="M531.7,41.1c-7.4,0-14.2,4-18,10.3V0h-5.3l-22.9,10.9v3.3l5.8,5.7v92.6c8.5,7.7,19.8,11.8,31.3,11.2,20.2,0,32.1-17.2,32.1-45.5.1-25-9.3-37.2-22.9-37.2ZM521.7,116.7c-5.6,0-8-3.8-8-10.2v-42c0-6.5,3.5-11.1,8.3-11.1s8.9,10.1,8.9,34.5c0,19.5-1.2,28.9-9.2,28.9Z" fill="#e5e1e6"/><path d="M585.2,109V0h-5.2l-22.9,10.9v3.3l5.8,5.7v89.1c0,5.1-.3,7.3-5.7,7.6v5.5h33.8v-5.4c-5.4-.4-5.7-2.6-5.7-7.7Z" fill="#e5e1e6"/><path d="M610.9,30c6.8.4,12.6-4.8,13-11.6.4-6.8-4.8-12.6-11.6-13-.5,0-1,0-1.4,0-6.9,0-12.5,5.6-12.5,12.5.2,6.7,5.8,12,12.5,12Z" fill="#e5e1e6"/><path d="M621.8,109V41.1h-5.2l-23,9.3v3.2l5.8,5.7v49.6c0,5.1-.3,7.3-5.7,7.6v5.5h33.8v-5.4c-5.4-.4-5.7-2.6-5.7-7.7Z" fill="#e5e1e6"/><path d="M663.5,61.6c-.3,4.8,3.4,9,8.3,9.3.4,0,.8,0,1.2,0,6.1,0,11-5.1,11-11.2,0-.3,0-.5,0-.8,0-10.8-9-17.9-21.8-17.9-18.5,0-33.8,14.4-33.8,44s12.5,38.9,30.7,38.9,19.6-9,23.9-20l-7.5-3.8c-3.4,8-6.3,12.5-12.3,12.5-9.3,0-13.1-12.3-13.1-38s5.1-26.5,12.5-26.5,6.3,1.3,6.3,3.4-5.3,3.5-5.3,10.2Z" fill="#e5e1e6"/><path d="M746.8,113.1c-2.3,0-3.5-2-3.5-6.6v-39.8c0-17.1-10.1-25.7-29.6-25.7s-25.5,7.7-25.5,18.4c-.2,6.1,4.5,11.2,10.6,11.4.2,0,.4,0,.6,0,4.9.5,9.2-3.1,9.7-7.9,0-.4,0-.9,0-1.3,0-6.5-5.8-8.3-5.8-10.3s2.9-3.4,6.6-3.4c7.8,0,11,3.7,11,13.1v11.3l-13.4,6.1c-15,6.8-21.3,13.3-21.3,25.7-.7,10.1,6.9,18.8,17,19.5.8,0,1.7,0,2.5,0,7-.2,13.3-4.1,16.7-10.3,1.3,6.3,7,10.7,13.4,10.2,5.4.2,10.6-2,14.3-6v-5.5c-.9.6-2,1-3.2,1ZM720.8,103.1c0,5-2.8,9-7.1,9s-6.6-3.7-6.6-11.7,2.6-13.4,7.8-17.1l5.9-4.1v24Z" fill="#e5e1e6"/><rect width="750" height="162.2" fill="none"/></g></svg>