<?xml version="1.0" encoding="UTF-8"?>
<svg id="uuid-30cddec3-6708-4f73-bf56-18554ae7322f" xmlns="http://www.w3.org/2000/svg" version="1.1" viewBox="0 0 750 139.6">
  <!-- Generator: Adobe Illustrator 30.5.0, SVG Export Plug-In . SVG Version: 2.1.4 Build 167)  -->
  <defs>
    <style>
      .st0 {
        fill: #e5e1e6;
      }
    </style>
  </defs>
  <path class="st0" d="M729,111.3c9.3,0,15.5-4.8,21-14.7l-2.6-1.9c-4,6.2-8.2,9.5-12.6,9.5-6.4,0-9.3-3.7-9.3-12.7v-47.1h22.4v-5.6h-22.4V13l-12.9,5.6v19.7l-14.1,3.3v3h14v47.1c0,13,5.4,19.7,16.6,19.7M641.9,109.8h37.4v-3.4c-10.1-.2-13-1.2-13-5.7v-43.9c4-6.5,8.7-11.2,15.7-11.6-.3,1.1-.6,2.3-.6,3.4,0,5.3,3.9,8.2,8.5,8.2s8.1-3.7,8.1-8.7-3.4-10.4-11.3-10.4-15.1,6.1-20.7,14.6v-14l-24.1.6v3.3c9,.2,11.3,3.1,11.3,7.8v50.8c0,4.5-2.3,5.6-11.3,5.7v3.4ZM607.5,107.1c-12.4,0-21-9.5-21-33.1s7.3-33.1,19.6-33.1,21,9.3,21,33.1-7.5,33.1-19.6,33.1M606.8,111c19.6,0,34.8-15.5,34.8-37.3s-14.4-36.5-34.8-36.5-35.1,15.5-35.1,37.1,14.4,36.6,35.1,36.6M532,107c-8.7,0-14.4-3.9-17.4-13.4v-41c4.5-5,9.9-8.8,17.6-8.8,12.3,0,19.4,12.4,19.4,29.5s-7.8,33.7-19.6,33.7M490.2,139.6h39.1v-3.3c-11.5-.2-14.7-1.2-14.7-5.9v-24.7c5.7,3.1,11.3,5.1,19.3,5.1,20,0,32.1-16.9,32.1-38.4s-10.1-35.2-28.1-35.2-16.9,4.7-23.6,11.2v-10.2l-24.1.6v3.3c9,.2,11.3,3.1,11.3,7.8v80.6c0,4.7-2.3,5.7-11.3,5.9v3.3ZM460.1,41c12,0,16.9,10.6,15.5,25.5l-33.5.5c1.2-18,8.2-25.9,18-25.9M461.2,111c15.7,0,23.8-8.8,29.5-18.5l-2.3-2c-6.4,7.9-12.7,13.3-22.1,13.3-16,0-24.4-13.3-24.4-30.6v-2.8h48c1.2-17.1-8.4-33.2-28.7-33.2s-33.5,16.3-33.5,37.6,12.6,36.2,33.5,36.2M361.8,59.3h12.6c17.2,0,22.5,3.4,24.1,18.8l1.2,13.4c1.4,14.1,4.8,19.4,23,19.4s7.5-.5,10.4-1.2v-3.4c-12.3-.3-15.4-2.5-17.4-14.3l-1.6-10.6c-2.2-14-5.9-22.7-26.7-24.2v-.5c21.3-3.7,29.3-13.7,29.3-26.6s-10.9-25.6-42.2-25.6h-44.4v3.4c13.5.5,16.9,3.3,16.9,9v80.4c0,5.7-3.4,8.4-16.9,8.8v3.6h48.1v-3.6c-14.1-.5-16.5-2.8-16.5-8.8v-38ZM361.8,55V8.8h11.6c20.3,0,27,7.8,27,21.7s-4.5,24.4-25.3,24.4h-13.4ZM277.2,107.1c-7.6,0-14.6-4.3-17.9-13.5v-42.1c4.7-4.8,9.9-7.8,17.2-7.8,12.3,0,20.3,12.1,20.3,29s-6.2,34.3-19.7,34.3M245.8,111.6h2.6l6.5-8.2c7.6,5.4,15.2,7.6,23.5,7.6,20.3,0,32.9-18.2,32.9-39s-10.9-34.8-29.2-34.8-16.5,3.7-22.8,10.1V0l-25.6.6v3.3c10.2.3,12.6,2.6,12.6,7.8v86.3l-.5,13.7ZM205.1,107.1c-7.6,0-14.6-4.3-17.9-13.5v-42.1c4.7-4.8,9.9-7.8,17.2-7.8,12.3,0,20.3,12.1,20.3,29s-6.2,34.3-19.7,34.3M173.8,111.6h2.6l6.5-8.2c7.6,5.4,15.2,7.6,23.5,7.6,20.3,0,32.9-18.2,32.9-39s-10.9-34.8-29.2-34.8-16.5,3.7-22.8,10.1V0l-25.6.6v3.3c10.2.3,12.6,2.6,12.6,7.8v86.3l-.5,13.7ZM132.5,107.1c-12.4,0-21-9.5-21-33.1s7.3-33.1,19.6-33.1,21,9.3,21,33.1-7.5,33.1-19.6,33.1M131.8,111c19.6,0,34.8-15.5,34.8-37.3s-14.4-36.5-34.8-36.5-35.1,15.5-35.1,37.1,14.4,36.6,35.1,36.6M31.7,59.3h12.6c17.2,0,22.5,3.4,24.1,18.8l1.2,13.4c1.4,14.1,4.8,19.4,23,19.4s7.5-.5,10.4-1.2v-3.4c-12.3-.3-15.4-2.5-17.4-14.3l-1.6-10.6c-2.2-14-5.9-22.7-26.7-24.2v-.5c21.3-3.7,29.3-13.7,29.3-26.6S75.8,4.5,44.4,4.5H0v3.4c13.5.5,16.9,3.3,16.9,9v80.4c0,5.7-3.4,8.4-16.9,8.8v3.6h48.1v-3.6c-14.1-.5-16.5-2.8-16.5-8.8v-38ZM31.7,55V8.8h11.6c20.3,0,27,7.8,27,21.7s-4.5,24.4-25.3,24.4h-13.4Z"/>
</svg>