<?xml version="1.0" encoding="UTF-8"?><svg id="uuid-92dfe0fb-aa09-4603-9d76-a6151c2c458b" xmlns="http://www.w3.org/2000/svg" viewBox="0 0 750 162.2"><g id="uuid-84fb8b5d-8636-4491-b6a6-c3703c53b18b"><g id="uuid-ed3b7cac-9494-47f7-9390-124a61ca09df"><path d="M232.3,47.5c15.5-9,28.6,9.5,12.2,14.1-2.8.9-5.9,1.5-8.7.3l-.6-.5c-4.1-3.4-5.3-9.1-2.9-13.8h0Z" fill="#e5e1e6"/><path d="M227.4,57.1c0,.8-.4,1.5-1.2,1.8-1.3.6-2.4,1.7-3.2,2.9-2,3-3,7.3-4.3,10.9-.8,2-1.7,3.8-2.3,5.7-3.7,13.3-7.1,27.3-12.7,40.1-.6,1.4-1.4,2.7-2.7,3.3-2.5,1-6.4.9-8.2-.9-.9-.8-1.4-2-1.9-3.2-3-8-6.4-15.8-8.2-24.2-1.5-4.9-5.4-3-7,1.1-.9,2.3-1.2,4.7-2,7-2.3,6.1-5.1,19.7-11.1,20.6-4.1.7-7.5-.5-9.1-4.5-8-20-15.7-42-23.5-61.3-1.6-3.7-.2-4.5,3.8-5.1,5.7-.8,17.3-1.1,21.1,2,1.8,2.2.6,5.6,1.3,8.2,2.1,10.1,7.2,20.4,10.8,30,.7,2.1,2.4,3.9,4.6,2.2,2.9-2.2,3.3-6.8,4.4-10.2,5.3-13.5-13.8-29.3-4.8-31.7,5.7-1.7,16.6-.2,22.7-.1,2.6.5,1.2,3.9.9,5.7-.3,1.3-.5,2.7-.4,4,.3,4.5,2.6,8.8,4,13.1,1.5,4.4,2.5,9.1,3.7,13.6.7,2.1,1.3,5.5,3.6,5.8,3-.8,4.9-6,5.6-8.9,1.6-9,7.7-19.4,2.3-27.3-.9-1.4-2.7-3.3-2-5,1.6-2.8,8.8-.6,13.3-1.3s0,0,0,0c1.2-.2,2.2.7,2.3,1.9v3.5Z" fill="#e5e1e6"/><path d="M749.9,121c-.4.7-1.6.8-2.4.9-3.9.5-8.4.6-13.1.5-6.9,0-14-.4-20.9-.4-3.4,0-6.5.4-9-1.9-15.4-13.1-12.6-49.4,10.6-50.9,3.3-.5,8.1,1.2,10.8-.9,2.7-2.7,2.2-9,1.5-12.4-.5-2.4-2.2-4.4-2.9-6.7-.7-3.4,3.8-3.4,6.2-3.6,5-.2,14.3-1.7,15,4.5.8,12.8-3.8,51.2,3.8,68.5.3.7.7,1.6.4,2.2h0ZM721.9,74.1c-5.5,1.8-6.6,15.3-6.9,21.3-.1,6.5.2,18,5.8,20.5,2,.7,4.2-.6,5.4-2.3,1.3-1.8,1.7-4,1.7-6.1-.3-8,4.8-35.1-5.9-33.4h0Z" fill="#e5e1e6"/><path d="M315.6,120.9c-.6,1.3-3.9,1.3-6,1.5-5.4.3-12-.1-16.5-.3-1.6,0-3.5-.5-2.8-2.5.3-1.2,1.2-2.8,1.6-4.3.6-1.9.5-3.8.5-5.8.2-9,.8-20.9-.1-28.8-.3-2.4-2.8-4.6-4.9-4.6-8.4,0-6.3,28.3-4.8,39,1.3,5,1.1,7.6-5.5,7.5-4.2-.1-8.6-.6-12.8-.3-6,.2-4.7-2.8-3.3-7.2,2.5-10.1,3.4-31.2-1.2-40.7-.5-1-.8-2.4.3-3,1.5-.8,3-.6,4.8-.7,1.7,0,3.9,0,5.8-.1,40-2.8,43.3-2.1,42.8,33.4,0,3.4-.7,7.5.5,11,.6,2.1,2.5,4.3,1.9,5.9h0Z" fill="#e5e1e6"/><path d="M49.1,71.9c-3.8,7.1-9.1-20.3-20.9-17.2-1.9.4-3.8,1.6-5.2,3-4.3,4.6-3.1,9,.3,13,6.2,7.2,18.9,12.6,24.6,19.9,8,10.1,3.8,25.6-8,30.6-7.9,3.2-17.4.4-25.3,1.1-2.5.2-4.8-1.4-7.2-1.8-1.5-.2-2.9.4-4,.2-4.8-1-3.7-17.6-2.4-21.1.7-2.4,2.3-2.6,3.3.2.8,2,1,4.2,1.6,6.2,2,7.1,8.2,13.1,15.7,12.4,4.3-.5,8.9-4.2,9.7-8.4.6-3.8-2-7.5-5.9-11.2-7.5-7.5-22.7-14.6-24.6-25.1-3.7-14.9,12.9-25.1,27.2-23.6,4.8.6,9.2,2.8,13.9,3.6,3,.7,6.2.8,7.2,3.7,1.2,3.6.9,8.1.5,11.8-.1.8-.3,1.7-.6,2.4h0Z" fill="#e5e1e6"/><path d="M439.3,55.1c1.3.9,1.3,2.4,1.6,4.6,1.2,10.4-.8,19.3-5.7,7.4-5.6-13-21.4-18.9-23.1-3.4.6,6.7,10.9,13.2,16.2,17.4,10.6,7.8,20.9,15.9,13.7,29.9-1.7,3.7-4.6,6.5-7.7,8.9-1.4,1.2-3.1,2.2-5,2.4-1.2.2-2.5.1-3.8.1-6.6-.2-15.7,1.4-21.6-.5-1.7-.6-3.5-1.6-5.3-1.4-1.6,0-3.1,1.1-4.1.6-1.9-1-2-3.6-2.3-5.6-.3-4.1-1.5-16.2,1.7-18.5,2-.1,3,5.3,3.7,7.2,1.1,3.6,2.2,7.5,4.9,10.2,3.4,3.2,8.6,5,13.1,3.8,4.4-1.1,7.9-5.3,7.4-10-1.1-7.9-9-12.9-15.2-17.1-5.9-3.9-11.8-7.7-14.3-14.6-5.5-15,7.4-25.7,21.9-26.2,5.2-.2,10.3,1.3,15.3,2.6,2.5.8,6.4,1.1,8.4,2.2h0Z" fill="#e5e1e6"/><path d="M97,121.3c-5.3,2.4-12.5.6-18.4.8-3.8,0-7.8.6-10.8-2.1-16.4-12.4-13.5-47.3,8.6-50.5,3.2-.4,6.7-.8,9.8-.8,9.6.3,17,6.4,20.5,15.1,5,12.4,2.1,29.5-9.5,37.4h-.1ZM83.2,73.5c-9.2,4.2-6.2,31-4.4,40.1.4,1.5,1.4,2.8,2.6,3.7,5.7,3.5,7.5-7,8.1-11.7,1-7.6.7-18-1.1-25-1.2-4.7-2.9-7.7-5.2-7.1h0Z" fill="#e5e1e6"/><path d="M488.9,121.4c-5,2.4-12.6.5-18.4.8-7.4.3-8.9,0-14.1-5.5-13.3-13.5-8.2-47,13.5-47,7.5-.4,16.2-.9,22.2,4.4,13.2,12.1,11.2,36.9-3.1,47.3h-.1ZM474.5,73.7c-8.1,4.9-4.8,19.8-5.1,28.5,0,2.3,0,4.2.2,6.6.2,2.6.6,5.5,1.8,7.4,12.7,13.9,14.2-44.9,3.1-42.5h0Z" fill="#e5e1e6"/><path d="M623.5,120.4c-5,3.7-13,1.5-19.3,1.7-8,.7-14.7-4.4-17.8-11.7-6.4-14-2-38.5,15-40.6,4.3-.5,9.2-1.2,13.5-.6,23.3,3,27.8,36.8,8.7,51.1h-.1ZM609,73.7c-2.8,0-4,3.6-5,8-.8,3.8-1.2,8.6-1.3,13.4-.2,6.6,1.5,29.9,9.5,21,1.1-1.3,2-3,2.2-4.7.6-10.2,5.6-33.5-5.3-37.7h0Z" fill="#e5e1e6"/><path d="M678.6,121.2c-5.4,2.6-12.5.6-18.7.9-3.1,0-6.4.2-9-1.9-13.2-9.7-15.2-31.7-4.6-44,1.5-1.7,3.1-3.2,5.4-4.3,33.7-16,54.2,28.5,27,49.4h-.1ZM665.4,72.9c-2.3-.2-4,3.1-5.1,7.9-1.6,7.1-1.8,17.4-.9,25,.6,4.9,2.8,17.1,8.6,10.5,6-5.5,5.7-42.3-2.6-43.3h0Z" fill="#e5e1e6"/><path d="M556,52.5c1.4.7,1.3,2.3.8,3.7-3.1,7.3-2.3,17-1.4,24.6,2.3,9.7,9.1-3.2,12.6-5.3,3.4-2.3,4,3.9,3.7,6.6-.6,4.1,0,8,0,12.1-.1,3.8-2,5.5-4.5,2.4-2.3-3.5-7.6-8.9-10.6-6.3-1.5,1.4-1.7,4.1-1.8,6.2.1,5.7-1.2,14.4,2.3,19,1.4,1.7,4.3,2.5,6,3.9,2.1,2-.7,2.8-2.4,2.7-8.7.2-22.6,0-28.7,0-.9,0-2,0-2.4-.9-.2-.4-.2-1.1.1-1.9,1.2-2.9,3.9-6.3,3.7-9.8.2-17,.7-35.8-1.9-52.5-.2-1-.3-2.2,0-3,.7-3.7,21-2.9,24.2-1.6h.1Z" fill="#e5e1e6"/><path d="M351.9,121.4c-3.6,1.7-8.9,1.3-13.1,1.2-2.9-.2-6,0-8.3-1.3-13.9-9.3-15.1-34.9-3.4-46.3,8.1-6.6,23.2-8.9,31.4-1.5,3.1,3.1,5.1,7.8,5.4,12.1.3,6.7-6.4,7.4-11.9,6.5-6.2-.9-2.9-8-3.9-12.5-.3-3.9-5.1-6.6-7.3-2.6-1.4,2.8-2.1,6.6-1.2,9.4.3,1.1.8,2.1,1.1,3.2,1.1,2.9-1,5.6-1.3,8.5-.8,10.6,9.9,15.2,18.6,10.1,1.8-.6,3.2-.6,3.6.8.8,3-6.4,10.1-9.7,12.5h-.1Z" fill="#e5e1e6"/><path d="M253.3,121.3c-.4.6-1.4.8-2.2.9-7.1.6-16.5.2-22.8-.1-3.8-1.2,1.4-5.5,1.9-7.8.3-1,.4-1.9.5-2.9.4-9.1,2.5-25.1-1.3-34.1-.6-1.3-1.7-2.8-2.2-4-.3-.7-.3-1.3,0-1.7.6-.8,3.4-1.1,5.3-1.3,5.2-.4,16.4-1.3,17.7,2.1,1.3,10.9-2.3,32.9,2.7,46.1.3.8.8,2,.4,2.6h0Z" fill="#e5e1e6"/><path d="M581.9,74c-4.1,1.8-6.6-8.6-9.2-11.8-1.6-2.2-4.2-3.5-6.4-4.9-3.8-2.4-5.3-5.1.6-5.8,4.4-.4,9.8-.4,13.9,1.6,2.6,1.6,2.2,5.5,1.9,8.5-.7,3.6,1.9,9.7-.7,12.4h0Z" fill="#e5e1e6"/></g><rect width="750" height="162.2" fill="none"/></g></svg>