<?xml version="1.0" encoding="UTF-8"?>
<svg id="uuid-01f08b10-c7e1-4260-94e9-8f100a3c3000" xmlns="http://www.w3.org/2000/svg" version="1.1" viewBox="0 0 752 122.4">
  <!-- Generator: Adobe Illustrator 30.5.0, SVG Export Plug-In . SVG Version: 2.1.4 Build 167)  -->
  <defs>
    <style>
      .st0 {
        fill: #e5e1e6;
      }
    </style>
  </defs>
  <polygon class="st0" points="22.1 120.9 22.1 16.4 0 16.4 0 1.6 60.5 1.6 60.5 16.4 38.3 16.4 38.3 120.9 22.1 120.9"/>
  <path class="st0" d="M58.9,120.9L86.9,1.6h15.1l28,119.3h-16.3l-5.7-23.5h-27.2l-5.6,23.5h-16.3ZM94.5,32.4l-10.8,51.7h21.5l-10.7-51.7Z"/>
  <polygon class="st0" points="142 120.9 142 1.6 158.1 1.6 158.1 106 192.6 106 192.6 120.9 142 120.9"/>
  <polygon class="st0" points="204.6 120.9 204.6 1.6 252.3 1.6 252.3 15.9 220.7 15.9 220.7 51.4 249.6 51.4 249.6 65.6 220.7 65.6 220.7 106 252.3 106 252.3 120.9 204.6 120.9"/>
  <path class="st0" d="M292.2,120.9L320.1,1.6h15.1l28,119.3h-16.3l-5.7-23.5h-27.2l-5.6,23.5h-16.3ZM327.7,32.4l-10.8,51.7h21.5l-10.7-51.7Z"/>
  <path class="st0" d="M472.3,56.8c.2,2.5.3,5,.4,7.4,0,2.4.1,4.7.1,6.9,0,17.5-2.8,30.4-8.5,38.8-5.7,8.4-14.5,12.5-26.3,12.5s-21-4.7-26.5-14.2c-5.4-9.5-8.2-25.1-8.2-46.8s2.7-37.7,8.2-47.2C417,4.7,426,0,438.5,0s15.9,2.1,21.3,6.3c5.4,4.2,9.1,10.5,11.1,18.9l-14.2,6.9c-1.1-5.8-3.2-10.2-6.2-13-3-2.8-6.9-4.2-11.8-4.2-7,0-11.9,3.3-14.8,10-2.9,6.7-4.3,18.7-4.3,36.2s1.4,29.3,4.3,36c2.9,6.8,7.8,10.1,14.8,10.1s10.9-2.6,14-7.7c3.1-5.1,4.7-12.8,4.7-23s0-2.7,0-3.5c0-.8,0-1.5-.1-2.2h-17.1v-14.1h32.2Z"/>
  <path class="st0" d="M488.6,89.1V1.6h15.9v88.8c0,5.7,1.3,9.9,3.8,12.7,2.6,2.7,6.5,4.1,11.8,4.1s9.2-1.4,11.7-4.1c2.5-2.7,3.8-6.9,3.8-12.7V1.6h15.9v87.5c0,11.6-2.5,20-7.6,25.3-5,5.3-13,8-23.9,8s-18.9-2.7-23.9-8c-5-5.3-7.6-13.7-7.6-25.3"/>
  <polygon class="st0" points="571.5 120.9 571.5 1.6 619.2 1.6 619.2 15.9 587.6 15.9 587.6 51.4 616.5 51.4 616.5 65.6 587.6 65.6 587.6 106 619.2 106 619.2 120.9 571.5 120.9"/>
  <path class="st0" d="M633.2,100c3.8,2.3,7.3,4.1,10.5,5.2,3.2,1.1,6.2,1.7,9.1,1.7,4.9,0,8.8-1.4,11.7-4.3,2.9-2.9,4.3-6.7,4.3-11.5,0-7-5.5-15.1-16.6-24.1-1.3-1.1-2.3-1.9-2.9-2.4-7.1-5.8-12-11.2-14.9-16.2-2.8-5-4.3-10.6-4.3-16.8,0-9,2.9-16.5,8.6-22.5,5.7-6,12.8-9,21.2-9s7.3.4,10.7,1.3c3.4.9,6.8,2.2,10.2,4.1v16c-3.1-2.2-6.1-3.8-9.1-4.9-3-1.1-5.9-1.6-8.8-1.6-5.1,0-9.1,1.5-12.2,4.4-3,3-4.6,6.9-4.6,11.9s5.9,15,17.6,24.4c1.1.9,1.9,1.5,2.5,2,6.8,5.5,11.6,10.8,14.5,15.9,2.8,5.1,4.3,10.9,4.3,17.4s-2.9,16.7-8.7,22.6c-5.8,5.9-13.3,8.9-22.4,8.9s-6.7-.5-10.1-1.5c-3.4-1-7-2.5-10.6-4.5v-16.4Z"/>
  <polygon class="st0" points="713.7 120.9 713.7 16.4 691.5 16.4 691.5 1.6 752 1.6 752 16.4 729.9 16.4 729.9 120.9 713.7 120.9"/>
</svg>