<?xml version="1.0" encoding="UTF-8"?><svg id="uuid-b8d28c12-352f-4ae6-a804-79e23a0e2386" xmlns="http://www.w3.org/2000/svg" viewBox="0 0 750 162.2"><g id="uuid-d3288241-25d8-46f2-8572-9fcb27a37ba9"><g id="uuid-bbabb827-fe46-4daa-92dc-61ffa8b22343"><path d="M58.7,94.9c0,7.5,0,14.9,0,22.3,0,1.9,1.4,2.9,3.3,3.3,1,.2,1.8,1.1,2.6,1.7l-.4.8h-18.4s-.4-.5-.5-.7c.8-.6,1.5-1.7,2.4-1.8,3.4-.3,4.1-2.7,4.1-5.4v-44.8c0-3.9-.8-4.8-4.6-5.9-.7-.2-1.3-.9-1.9-1.4.1-.2.4-.5.5-.7h18.6c-.4.8-.6,2-.8,2-5.3.2-5.3,4.4-5.5,7.9-.3,6,0,12,0,18.2h44.5v-20.4c0-4.3-1.1-5.3-6.9-5.9,1.1-1,1.6-2,2.2-2,5.4-.1,10.9-.1,16.3,0,.6,0,1.2.8,2.2,1.6-2.9,1.1-5.9.5-6.6,3.7-.1.8-.4,1.7-.4,2.5v45.4c0,2.7.7,4.8,4,5.1.8,0,1.4,1.1,2.1,1.7-.8.4-1.5.9-2.3.9-5,0-9.9,0-14.9,0-.7,0-1.3-.6-2-1,.6-.5,1.1-1.2,1.7-1.4,4.3-1.5,4.5-1.7,4.5-6.4v-19.3h-43.9,0Z" fill="#e5e1e6"/><path d="M589.8,121.1c5-.5,6-1.5,6-6.3v-43.7c0-5.3-.8-6.2-6.4-7.5.6-.5,1.3-1.4,1.9-1.4,12.5,0,25.2-.5,37.6.7,13.5,1.3,23.2,9,26.1,23,3.3,16.1-4.8,32.7-24,36.1-3.9.7-7.9,1-11.8,1.1-9,.1-18.1,0-27.1,0s-2.9.4-2.2-2.1h0ZM602.6,118.6c8.7,0,17,.5,25.3-.1,6-.5,11.2-3.4,14.9-8.6,5.2-7.1,6.4-15.2,4.8-23.7-1.8-9-6.7-15.4-15.7-18.5-5.7-2-11.6-1.5-17.5-1.6h-12v52.5h0Z" fill="#e5e1e6"/><path d="M515.3,111.4v-39.6c0-6.3-.7-7.1-8.1-7.6,1.1-1,1.6-2,2.2-2,5.3-.1,10.4-.1,15.7,0,.6,0,1.3.8,2.2,1.3-.8.6-1,.8-1.1.8-5.7-.2-6.9,2.1-6.9,7.5v51c-2.7.7-4.3.1-6.1-1.9-9-10.1-18.2-19.8-27.3-29.8-5.1-5.6-10.2-11.2-15.2-16.9-.7-.8-1.3-1.7-1.9-2.5-.2.1-.5.3-.7.4,0,.9-.1,1.8-.1,2.7v38.2c0,5.7,1.5,7.4,8.2,8.1-1.2,1-1.8,1.9-2.4,1.9-5.3.1-10.4.1-15.7,0-.6,0-1.2-.9-2.2-1.7,1.9-.5,2.9-.8,3.9-.9,3.4-.2,4.2-2.4,4.2-5.3,0-12.8,0-25.7,0-38.6,0-1.8-.1-3.6,0-5.4.2-2.7-.3-5-2.6-6.9-.6-.4-.8-1.2-1.5-2.3h8.6c.6,0,1.2.5,1.6,1,6.6,7.1,13.2,14.4,19.8,21.5,6.9,7.4,13.7,14.6,20.6,22,1.5,1.6,2.8,3.3,4.2,5,.2,0,.4-.1.7-.2h0Z" fill="#e5e1e6"/><path d="M702.5,61.6c10.3.6,20.6.8,30.9,1.8,2.7.2,5.5,1.9,7.9,3.5,6.7,4.7,6.1,17-3.4,19.8-2.5.8-2.7,2-2.1,4.3,2,7.8,3.7,15.6,5.8,23.4.9,3.5,3.5,5.7,7.1,6.6.6.1.9.8,1.4,1.2-.6.4-1.3,1-1.9.9-8.3-.9-12.8-4.9-14.6-13.2-1.4-6.2-2.7-12.4-4-18.6-.4-1.6-1-2.2-2.6-2.2-3.8,0-7.6,0-11.7,0v25c0,4.2.9,5.5,4.7,7,.5.2.8.7,1.3,1.1-.6.4-1.1,1.1-1.6,1.1-5.7,0-11.4,0-17.7-.6.5-.6.8-1.4,1.4-1.6,4.5-1.5,5-2,5-6.8v-43.7c0-4.4-.7-5-5-6.1-.6-.1-1-1-1.5-1.5.2-.4.5-.8.7-1.2h0ZM715.2,85.7c5.3-.3,10.2-.4,15.2-.9,4.1-.4,7.8-3.9,8.1-6.9.6-6-.9-9.3-6.4-10.6-5.4-1.3-11.1-1.2-16.9-1.8v20.2h0Z" fill="#e5e1e6"/><path d="M313.4,123.1h-19c1.1-1.3,1.5-2.2,2.2-2.6,3.1-1.4,3.6-2.4,2.3-5.4-.9-2.2-2-4.3-3.2-6.2-.5-.8-1.7-1.5-2.5-1.5-11.6,0-23.2,0-34.9,0-1.3,2.3-2.5,4.6-3.6,6.9-2.1,4.3-.8,6.4,5.1,6.9-1.1,1-1.6,2-2.2,2-5,.1-10.1,0-15.8,0,.5-1,.7-2.1,1.1-2.2,5.6-.6,6.8-5.5,8.9-9.3,4.5-8.2,8.7-16.6,12.9-25,4.1-8.2,8.3-16.4,12.4-24.6.2-.4.5-.8,1.1-1.5,1.1,2,1.9,3.6,2.8,5.4,7.6,14.9,15.1,29.8,22.8,44.6,1.3,2.6,2.7,5.2,4.4,7.4,1,1.3,2.9,1.9,4.3,2.8.6.4,1.2,1,1.8,1.5-.3.3-.5.5-.8.8h0ZM276.9,71.5c-5.7,10.9-11,21.2-16.5,31.7h32.5c-5.3-10.5-10.5-20.8-16-31.7Z" fill="#e5e1e6"/><path d="M656,62.3h40.7v12.6c-1.1-1.1-1.9-1.6-2-2.3-1.1-4.6-3.6-6-7.9-6.3-6-.4-12,0-18.2,0v15.4c4.8,0,9.7.2,14.4,0,2.5-.1,4.1-1.9,5.1-4.3.3-.7,1.1-1.2,1.5-1.8.2.1.5.3.7.5v16.5c-1-.9-1.9-1.3-2.2-2-1.3-3.4-3.1-4.8-6.8-4.8h-13v33.6c6.7,0,13.2.2,19.7,0,4.3-.2,7.3-3.7,8.1-8.3.1-.8.9-1.5,1.3-2.2.3.1.5.3.8.4v13.9c-.8,0-1.6.1-2.5.1h-37.6c-.5,0-1,.1-1.4,0-.5-.2-.9-.7-1.3-1.1.4-.4.8-1.1,1.3-1.1,4.7-.5,5-4,5-7.4,0-13.9.1-27.8,0-41.7,0-3.2-.1-6.9-4.8-7.5-.4,0-.6-1.1-1.1-2.1h.1Z" fill="#e5e1e6"/><path d="M159.6,62.3v11.6s-.4.4-.6.5c-.6-.6-1.3-1-1.5-1.7-1.4-4.6-3.4-6.4-7.9-6.6-6-.2-12,0-18.2,0v15.4c4.8,0,9.7.1,14.5,0,2.7-.1,4.3-2,5.3-4.5.3-.6,1-1.1,1.5-1.5.2.1.4.3.6.4v15.8s-.4.4-.6.5c-.5-.6-1.3-1.1-1.5-1.7-.8-2.8-2.6-4.7-5.5-4.8-4.7-.2-9.5,0-14.4,0v33.6h18.1c5.7,0,8.9-2.9,9.7-8.5.1-.7.9-1.3,1.4-2,.3.1.5.3.8.4v13.8h-43.5c1.1-1.1,1.5-1.8,2.1-2.1,3.9-1.5,4.8-2.5,4.9-6.7,0-14.2.1-28.3,0-42.5,0-3.1-.3-6.6-4.6-7.3-.5,0-.8-1.1-1.5-2,0,0,40.9,0,40.9,0Z" fill="#e5e1e6"/><path d="M563.9,76.6c-2.6,1.1-2.5-1.1-2.9-2.2-2.4-7-9-9.8-14.3-9.4-4.8.4-8.8,2.2-10.9,6.7-1.8,3.6-1.7,7.6.9,10.4,2.5,2.7,6,4.3,9.2,6.2,4.6,2.6,9.5,4.5,13.7,7.5,9.3,6.7,6,19.8-1.9,24.5-8.1,4.8-16.5,4.6-24.7.9-7.8-3.4-6.1-1.6-6.2-9.7v-5.4c.3-.2.6-.4.9-.6.6.8,1.5,1.5,2,2.5,2.1,4.9,5,9,10.2,11.1,6,2.5,14.4,0,17.5-5,3.5-6,1-12.1-4.8-14.9-4.9-2.4-10-4.4-14.8-7-5.3-2.9-9-7.2-9.1-13.5-.1-6.4,2.5-11.5,8.4-14.6,8.8-4.6,17.3-3.2,25.8.8.6.3,1.1,1.1,1.1,1.7.1,3.3,0,6.7,0,9.9h0Z" fill="#e5e1e6"/><path d="M341.8,62.3h19.3c-.6,1-.8,1.8-1.4,2.2-2.7,1.5-3.2,2.4-1.5,5,3,4.8,6.2,9.6,9.4,14.4,3.9,5.9,7.6,11.8,11.7,18.1,4.3-7.4,8.3-14.3,12.4-21.2,2.3-3.9,4.7-7.7,6.9-11.6,1.1-1.9,2.1-3.9-1.3-4.7-.4,0-.6-1.1-1.1-2.2h13.3c.4,0,1,.6,1.3,1.1.1.1-.3,1.1-.6,1.1-4.9.6-6.8,4.7-8.9,8.1-6.7,10.9-13,21.9-19.1,33.2-2.2,4.1-1.5,8.8,0,13.2.3.8,1.9,1.1,2.9,1.8s3.2.1,2,2.7h-17c-.5,0-1-.6-1.5-.8.4-.5.8-1.3,1.3-1.3,4.3-.8,4.9-4.1,5-7.6.1-3.6-.6-6.7-2.8-10-7.5-10.9-14.4-22.2-21.5-33.4-1.8-2.7-3.6-5.2-7.2-5.7-.5,0-.8-1.1-1.5-2.1h-.1Z" fill="#e5e1e6"/><path d="M330.5,119.2c6.4,0,12.7.2,18.8,0,5.4-.3,8.1-3.2,9-10,.2-1.5.5-2.3,2.2-1.6v15.5h-43s-.4-.4-.5-.7c.6-.5,1.1-1.2,1.7-1.3,4.2-1.2,4.8-1.8,4.8-6.3v-43.3c0-5.5-.7-6.3-6.4-7.7.6-.5,1.3-1.3,2-1.3,5.6-.1,11.2,0,17.5.6-.6.6-1,1.4-1.7,1.5-3.6,1.1-4.3,1.8-4.3,5.5v47.3c0,.6,0,1.1.1,2h0Z" fill="#e5e1e6"/><path d="M17.5,65.1c-3.9.8-7.7.7-10.7,2.3-2.7,1.5-4.4,4.8-6.9,7.6v-12.8h41.9v13c-.9-.8-1.9-1.2-2-1.8-1.1-3.9-3.6-6.2-7.3-7.1-2.1-.6-4.3-.5-6.5-.7-1.8-.2-2.2.7-2.2,2.4v43c0,2,0,4.1.7,5.8.6,1.3,2.1,2.3,3.3,3.4.8.7,1.7,1.2,2.6,1.8-.1.4-.3.7-.4,1.1H12.4c-.4,0-1-.6-1-1s.5-1.1.8-1.1c5.4-.8,5.4-4.7,5.4-8.9-.1-14.4,0-28.7,0-43v-3.9h0Z" fill="#e5e1e6"/><path d="M218.8,122.3c.6-.6,1.1-1.3,1.9-1.6,4.3-1.6,4.6-2,4.6-6.7v-48.3c-4.6,0-9,0-12.8,2.8-1.3,1.1-1.8,3.2-2.7,4.8-.4.6-1.1,1.1-2.1,2.2v-13.2h41.8v13c-1-1-1.8-1.4-2-2.1-1.3-3.4-3.2-6-6.9-6.7-2.9-.5-5.7-.8-8.8-1.2,0,1.3-.2,2.1-.2,2.9v44.8c.2,3.7.8,7.2,5.5,7.8.5,0,.8.8,1.3,1.3-.5.3-1,.8-1.5.8h-17.7c-.1-.3-.4-.6-.5-.8h0Z" fill="#e5e1e6"/><path d="M204.5,121.9c-.6.4-1.2,1.2-1.8,1.2-5.9,0-11.8,0-17.6,0l-.5-.8c.6-.5,1-1.3,1.6-1.5,4.5-1.3,4.9-1.8,4.9-6.4v-43.9c0-4.6-.5-5-5-6.2-.6-.1-1-1-1.5-1.5.1-.2.3-.5.4-.7h17.9c.6,0,1.1.8,2.3,1.8-1.8.3-2.7.3-3.4.5-2.4.6-3.8,1.9-3.8,4.5,0,10.7-.3,21.2-.4,31.9,0,4.5-.1,9,.2,13.4.4,5.5.8,5.7,6.7,7.6h-.1Z" fill="#e5e1e6"/><path d="M567.1,122.3c.6-.5,1.1-1.2,1.7-1.4,4.3-1.3,4.8-1.8,4.8-6.3v-44.2c0-4.6-1.2-5.7-6.9-6.2,1-1,1.5-2,2.1-2,5.7-.1,11.4,0,17.7,0-.5,1-.7,2.2-1.1,2.2-5.9.3-5.3,5-5.4,8.5-.3,13.2-.1,26.4,0,39.7,0,1.7.3,3.4.6,5,.4,2.1,2.2,2.6,3.9,3.2.7.3,1.2,1.1,1.8,1.6-.7.3-1.3.8-2,.8h-16.5c-.1-.3-.4-.6-.5-.8h-.1Z" fill="#e5e1e6"/><path d="M452.7,123h-18.2s-.4-.5-.5-.7c.6-.5,1.1-1.2,1.7-1.4,3.6-1.2,4.8-2.4,4.8-6.2v-44.5c0-3.4-1.4-4.8-4.6-5.7-.7-.2-1.2-1-1.8-1.5l.5-.7h19.2c-1,1.1-1.4,2-2,2.1-3.8.9-4.8,1.4-4.9,6.6-.2,14.4-.2,28.9,0,43.4,0,4.5.7,5.6,5,6.6.6.1,1,1,1.5,1.5-.2.2-.5.4-.7.6Z" fill="#e5e1e6"/></g><rect width="750" height="162.2" fill="none"/></g></svg>