<?xml version="1.0" encoding="UTF-8"?><svg id="uuid-9cb647a5-af9e-494c-89e0-4b699a7a0495" xmlns="http://www.w3.org/2000/svg" viewBox="0 0 750 162.2"><g id="uuid-48454b87-7ef2-482f-ace6-12ecc60f5205"><polygon points="516.7 0 533.1 75.1 532.4 0 546 0 546 123.4 532.9 123.4 515 47.8 515.7 123.4 501.9 123.4 501.1 0 516.7 0" fill="#e5e1e6"/><path d="M112.2,0v40.8c2.7-3.3,4.1-6,8.8-6.5,7.2-.8,14.3,1.3,16.2,9,.2.6.7,3.9.7,4.3v75l-.8.8h-13.9V50.1c0-1.8-1.1-4.5-3-5.1-7-2.1-7.8,6.8-8.1,11.6v66.8s-13.8,0-13.8,0L97.6,0h14.6Z" fill="#e5e1e6"/><polygon points="94.1 0 94.1 13.6 77.4 13.6 77.4 123.4 61 123.4 60.3 122.6 60.3 13.6 43.6 13.6 43.6 0 94.1 0" fill="#e5e1e6"/><path d="M271.1,0v13.6h-17.1v109.8h-16.6V13.6h-16.4c-.5-.3-.7-.7-.8-1.3C219.5,8.9,220.6,3.7,220.2,0h50.9Z" fill="#e5e1e6"/><path d="M317,124.9c-9.9-2.1-12.6-12.5-13.1-21.4s.2-22.3,8.9-28.4c6-4.2,13.4-2.3,15.2-11s1-17.7-1.2-20.3-4.4-1.4-5.8-.2c-3.5,2.9-1.6,16-1.5,20.4l-11.6.4c-3.7-12.3-2.4-28.7,13.3-30.2,9.2-.9,19.6,1,20.9,11.8v66c.8,4,3.7,4.7,7,2.8v8.1l-6.1,2h-5.5c-3.2-1.4-5.8-3-6.8-6.6-1.6,3.6-4.3,5.2-7.8,6.6h-6.1ZM328.1,77.6c-6,2.4-9,8.2-9.6,14.4-.4,4.1-.5,18.1,1.4,21.3s5.9,3,7.3,0,.9-3,.9-3.1v-32.5Z" fill="#e5e1e6"/><path d="M162.1,124.9c-5.6-.7-10.4-4.2-12.7-9.2-6.2-13.2-5.3-56.4.2-70,3.6-9,9.5-12.6,19.3-11.5,10.9,1.2,14.3,16,15.3,25,.9,7.4.9,15.5,0,22.9h-24.2v23.4c0,1.1,1.1,5.8,1.6,6.9,2.2,5.1,8.1,4.7,9.7-.6.8-2.6,1.2-8.9,1.3-11.8s-.2-7.6-.5-11.4h9.8c.5,0,2.1.7,2,1.5,1.1,11.6,2.4,32.8-13.4,34.8s-6.6.2-8.6,0ZM171.7,73c-.4-6.1.8-25.2-2.8-29.7-1.1-1.4-4.3-1.5-5.6-.4-3.8,3.1-3.7,24.8-3.7,30.1h12.1Z" fill="#e5e1e6"/><path d="M573.7,124.9l-5.6-1.8c-7.4-3.1-9.6-12.6-10.5-19.7-1.9-14.6-2.3-49.5,5.4-62,5.4-8.7,19.1-10.2,25.8-2.4,8.2,9.5,7.9,31.2,7.1,43.1h-24.7c.2,5.6-.3,11.3,0,16.9s.6,10.9,2.1,14c2,4.3,7.7,4,9.4-.6,2.4-6.7.5-16.7,1.1-23.8,3.9,0,7.8-.3,11.6.5.9,12.9,3.3,32.2-13.1,35.7h-8.6ZM571.5,73h11.1c.5-.3.7-.7.8-1.3.4-2,.1-6.8,0-9.1-.2-4.5-.7-11.7-1.7-16s-2.1-5.5-6.1-4.3-2.9,5.2-3.2,6.8c-1,5.1-1.5,12.7-1.7,18,0,1.2-.3,5.5.8,5.8Z" fill="#e5e1e6"/><path d="M414.8,124.9c-11.6-1.3-14.8-11.6-16.1-21.5-2-14.9-2.4-49.2,5.4-62,5.3-8.7,19.1-10.2,25.8-2.4,8.2,9.5,7.8,31.2,7.1,43.1h-24.7c.2,8-.5,16.4.6,24.4.4,2.8,1,8.5,4.3,9.3s6-1,7-4.9c1.7-6.8.2-15.1.7-22.2l11.6.5c1.1,12,2.9,33.7-13.6,35.7-1.9.2-6.2.2-8.1,0ZM411.8,73h12.1c.7-3.2.7-7,.5-10.3-.2-4.4-.7-11.8-1.7-16s-1.3-4.6-4.7-4.5-3.9,3.7-4.5,6.6c-1.6,7.7-1.4,16.4-1.7,24.2Z" fill="#e5e1e6"/><path d="M681.7,124.9c-17.1-1.9-16.9-21.9-14.1-34.7l12.6-1c-1.1,6-5,28.2,7.1,24.5,5.7-1.8,4.5-18.3,2.4-22.6-4.1-8.6-16.2-9.4-20.7-17.1-7.1-12.1-3.7-38.1,13.4-39.7,16.7-1.6,21.5,10.3,20.4,24.9-.1,1.5-.5,6.3-2.3,6.3h-10.8c.2-4.6,2.6-20.5-4.3-21.2-6.1-.6-6.1,9.7-5.7,13.8.9,10.2,9.1,10.5,15.8,15.5,6.2,4.6,10.2,12.4,10.9,20.1v10.1c-1.1,5.3-2,10.6-5.6,14.8-3.2,3.8-7,5-11.6,6.3-2.4-.2-5.2.3-7.6,0Z" fill="#e5e1e6"/><rect x="445.1" y="0" width="15.1" height="123.4" fill="#e5e1e6"/><polygon points="614.1 34.8 619.9 81.1 624.2 34.8 636.3 35 641.1 80.6 646.4 34.8 661 34.8 648.1 122.4 647.5 123.4 635.3 123.3 630.5 80.6 625.7 123.4 612.6 123.4 600 34.8 614.1 34.8" fill="#e5e1e6"/><polygon points="365.4 34.8 372.2 91.7 378 34.8 392.1 34.8 379 123.4 364.6 123.4 350.8 34.8 365.4 34.8" fill="#e5e1e6"/><path d="M279.2,44.3l1.9-4.9c2.1-5.6,10.2-7.2,14.5-3.2,7.2,6.8,4.7,28.1,3.1,37.1-.5,0-1.4.6-1.6.6h-10.1c-.2,0-.7.7-1.3.5.3-6.5,2.3-13.4,2-19.9s-.5-6.9-2.8-7.2-3.5,2-4.1,3.8-1.2,4.6-1.2,5.4v66.7h-14.6V34.8h14.1v9.6Z" fill="#e5e1e6"/><rect width="750" height="162.2" fill="none"/></g></svg>