<?xml version="1.0" encoding="UTF-8"?><svg id="uuid-af60d8b8-d09f-4144-963d-6275bd64ad2e" xmlns="http://www.w3.org/2000/svg" viewBox="0 0 750 162.2"><g id="uuid-1e2a7b4b-cc16-4d02-afae-49f538acad6f"><path d="M286.9,1c.1,7.1-.1,21.3-.1,26.1-.4,1.7-4.5.5-6.5.9-23.9-.3-15.4-2.3-16.9,28.5-.2,26.6.4,63-.2,66.2-5.5.2-16.3,0-22.8,0-2.3-5.1-.8-68.2-1.7-88.5-.3-3.4.5-5.3-.4-6.2-5.3-.4-17.6.5-22.1-.3-.6-2.6-.2-7.1-.5-12.9.4-5.8-1.4-10.4.7-13.7,6.7-.5,63.5-.4,70.6,0h0Z" fill="#e5e1e6"/><path d="M356.8,122c-1.3-1.1-.9-5.7-3.2-4.5-1.4.8-2.5,2.1-3.9,3-2,1.4-4.1,2.4-6.3,3-35.3,8.3-40.4-56,3.1-58.3,1.8-.1,3.6,0,4.8-.9.9-.8.9-2,.3-3.1-1-1.8-2.9-2.8-4.8-3.4-6.4-1.7-13.3.8-18.9,3.7-1,.4-2.6,1.3-3.5.5-.8-.8-.9-2.6-1.2-3.7-.8-3.9-1.6-7.7-2.4-11.6-.6-2.8,1.2-4.2,3.5-5.4,7-3.7,14.8-5.3,22.8-5.2,39.2.9,28.4,49.2,29.6,76.5,0,2.2.4,4.2.6,6.5.1,1.1.1,2.9-.7,3.4-.5.3-1.1.4-1.7.4-3.5,0-11.9,0-15.6,0-.9,0-1.9,0-2.5-.7ZM352.8,84.9c-.6-.5-1.7-.7-2.6-.6-6.2.3-10.9,3.7-11.3,10-.8,10,9.8,11.1,13.7,3,1.1-2.3,1.2-4.4,1.1-6.8-.2-1.8.5-4.1-.9-5.5h0Z" fill="#e5e1e6"/><path d="M454.6,90.7c.3,3.2,3.6,5.9,6.5,7.2,7.3,3.3,15.7,1.8,23.1-.3,1.4-.3,2.9-.7,3.1,1,.6,3.7,1.7,11.8,2.2,15.6.3,1.7,0,2.8-1.7,3.7-7.9,4-17.4,5.6-26.1,4.4-13.2-2-23.4-10.6-27.3-23.4-8.4-26.4,4-70.5,37.7-62.3,18.4,5.4,22,30.9,21.1,47.3-.1,1.6-.4,3.3-1,4.8-.5,1.1-1.1,1.4-2.1,1.3-5.7,0-29.4,0-34.6,0-.6,0-1.1.1-1.1.8ZM461.8,56.1c-3.2.5-5.4,3.1-6.7,5.9-.7,1.7-1.6,3.7-.9,5.5.6,1.4,2.6,1.3,4.3,1.4,2.8,0,6.6.1,9.1,0,1.3,0,2.8,0,3.8-.9,1.5-1.6,0-5.4-.8-7.3-1.6-3.4-5-5.3-8.8-4.6Z" fill="#e5e1e6"/><path d="M497.7.5c6.7-.4,14.9-.6,21.5-.3,1.3.1,2.7.1,3.6,1,1.2,1.3.8,3.7.8,5.5.6,34.1-2.2,69.1,2,102.8,1.3,3,3.1,5.7,5.3,8.1,1.1,1.4,4,2.8,3.2,4.8-8.2.9-21.3,0-29,.3-3.6.1-5.1.2-6.4-3.8-4-14-.8-55.1-1.8-93.9.4-12.1-.9-24.2.7-24.5h0Z" fill="#e5e1e6"/><path d="M373.4,38.5c.4-.7,1.3-.6,2.8-.6,6,.1,14.2-.3,18.8.2,1,.3,1.3,2.1,1.5,3.2,1.7,13.8,5.7,27.3,7.4,41.2.2,1.8.2,4.5,1,6.1,1.1,1,2-6.8,2.1-7.7,1.4-13.6,4.6-27.1,6.6-40.6.4-2,1.3-2.6,3.2-2.5,3.8,0,13.3,0,16.9,0,.6,0,1.3,0,1.7.4,1.3,1.2-.4,5-.8,6.7-6.3,24.6-12.3,49.3-18.7,73.8-.4,1.6-1.1,3.1-2.8,3.7-.7.2-1.5.3-2.3.4-3.8.2-9.3.2-13.1,0-2.8,0-4.5-.8-5.2-3.7-6.3-22.7-10.9-45.9-16.9-68.8-.7-2.3-1.4-4.5-2-6.9-.3-1.6-.8-3.6-.3-4.9h0Z" fill="#e5e1e6"/><path d="M272,121.8c-.6-4.6-.6-75.5-.8-80.6.2-.7.7-.3,2.2-.4,4.2,0,13.7,0,17.7,0,2.4.3,2.2,3,2.3,5.4.1,1.5-.6,4.8,1.4,5.1.7-.1,1.4-1.2,1.8-1.9,3.8-7.3,11.5-11.8,19.7-10.5,1.6.1,1.9.8,1.9,2.1,0,4.4,0,18.9,0,23.6.2,3.9-4.9,1.4-7.2,1.8-5.6.2-11.5,3.4-13,9.1-1.7,3.8-.8,6.5-1,10.7,0,10.9,0,30.3,0,34.2,0,.7-.2,1.1-.9,1.4-6.8.4-17.2.1-24.1.1h0Z" fill="#e5e1e6"/><path d="M534.7,124.9c0,2.2-2.2,3.2-3.8,4.9-2.7,2.4-5.3,5-7.9,7.4-2.1,2-4.1,3.5-6.6,1.9-1.8-.7-19.7-14.9-12.6-14.9,9,0,19.2,0,28.2,0,1.5,0,2.4-.3,2.7.7h0Z" fill="#e5e1e6"/><path d="M307.9,3.7c14.3-2.3,9.9,13,3.9,20.4-1.5,2-4,3.2-5,5.6-.7,1.7-.2,3.4,1.4,2.8,1.1-.4,2.6-1.7,3.3-1.8.6-.1.6.6.2,1.5-.6,1.2-1.6,2.2-2.8,2.7-1.4.6-3.1.2-3.8-1-.8-1.2-.5-3-1.5-4.1-1.1-1.1-3.1-1.2-4.3-2.2-1.5-1.1-2-3-2.2-4.8-.5-5.7,4.5-18,10.8-19.1h0ZM313.9,6.4c-1.2-1.2-3-1.4-4.6-1.1-6.4,1.3-9.6,9.2-10,15.2,0,2.5,1.8,1.1,2.9.3.8-.6,1.7-1.1,2.7-1.4,4-1.1,3.9.8,4.1,3.8.2,1.1.9.6,1.5,0,2.2-2.3,3.7-5.4,4.3-8.4.5-2.8,1.2-6.1-.8-8.4h0ZM306.9,20.9c-.5-.3-1.4-.2-2,0-3.3.9-5,4.8-2.6,6,1.1.4,2.5.6,3.5-.1.6-.5.9-1.9,1.2-2.9.2-.8.6-2.4,0-2.8h0Z" fill="#e5e1e6"/><path d="M396.1,4.5c1.3,1.6-.7,4.6-1.1,6.4-.7,2.1-1,4-1.7,6.1-.6,2.2-1.8,4.4-2.3,6.6-.8,3.2,3.8,3,5.8,2.3,1.8-.7,2.3-2.4,3-4.3.5-1.4,1.1-2.7,1.7-4.1.7-1.5,1.3-2.9.9-4.3-.1-.7-.5-1.4-.4-2,.3-1.1,2-.7,2.5,0,1.7,2.6-.3,5.4-1.4,8-.8,1.7-2.2,4.1-1.9,5.8.2,1.1,1,1.9,1,2.3-.2,1.1-4,.6-5,.6-3.4,0-6.7,0-10.1,0-3.1.2-7.3,1.1-8.9-2.3-2.3-5.6,3.9-15.9,10-16.4,1.8-.2,3.5.9,5,0,1.3-1,.9-2.8.4-4.1-.8-1.7,1.6-1.7,2.3-.9ZM387.7,11.7c-3.4.7-5.6,4.4-6.8,7.5-.7,2.2-1.7,5.4.4,6.7,1.7.8,4.9,1,6.2-.7,1-1.4,1.8-3.1,2.7-4.8.6-1.2,1.1-2.3,1.4-3.5.9-3.3-.5-5.8-4-5.2Z" fill="#e5e1e6"/><path d="M423.9,22.7c.2.2.2.6.1.9-.3,1.8-2.1,4.3-4.2,4.6-1.5.3-2.9-.7-4.5-.6-1.3,0-2.7.6-4,.8-4.2.5-6.7-2.5-4.4-6.1,1.1-1.9,3.1-2.9,5.2-3.4,2.6-.6,6.3-.7,7.6-3.5.7-1.2.4-3-1-3.4-1.2-.4-2.5,0-3.5.7-1.1.7-1.9,1.8-2.8,2.3-.7.4-1.4.3-1.5-.5,0-.9.8-1.8,1.5-2.4,2.3-2.1,7.6-3.6,9.3-.4,1,3.2-1.4,7-2.2,10-.4,1.4-.7,2.7-.2,3.7.2.5.8.6,1.2.3,1-.5,2.3-3.5,3.2-3.1h0ZM417.6,20.4c-1.1-1.1-4.7,0-6.2.4-2.4.7-4.8,3.4-2.3,5.3,3,1.7,6.8-.6,8.2-3.5.3-.6.7-1.6.2-2.2h0Z" fill="#e5e1e6"/><path d="M424.7,28.1c-1.6-.3-.8-.7.7-1.6,1.1-.6,1.7-1.7,2.1-2.9.6-1.7,1.5-4.2,2.2-6,.4-1,.8-2.1.7-3.1,0-1.4-2-3.8.5-3.8,1.1,0,2.3,0,3.5,0,3.5-.3,7.9-2.7,9.3,1.9,1,3.6-2.4,8.2-3,12.1,0,.8.2,1.3.5,1.8.3.5,1,1.1.2,1.4-.8.3-2.9.5-4.3.3-2.5-.3-.8-1.3.2-2.4,1.1-1.1,1.6-2.5,2.3-4.2.6-1.5,1.3-3.1,1.7-4.5.9-2.9.3-5.8-3.1-5.2-2,.4-4,2.2-5.2,3.9-1.7,2.5-2.6,5.8-3.4,8.6-.3,1.1,0,2.1.5,3,.5,1.3-4.5,1-5.3.9Z" fill="#e5e1e6"/><path d="M332.3,26.7c.5,1,.9,1.4-.7,1.6-1.5,0-3.3-.1-4.8,0-4.2.7-8,.8-7.9-4.6.1-2.9,1.4-5.6,2.2-8.3.1-.5.3-.9.3-1.4,0-1-.4-1.7-.7-2.5-.5-1.3,2.1-1.3,2.7-.7,1.6,1.2.2,3.8-.5,5.9-.8,2-1.7,4.4-2,6.3-.9,5.1,4.4,4.1,7.1,2.2,1.3-.9,1.9-2.1,2.6-3.8.7-1.8,1.5-4.2,2.1-5.9.2-.6.4-1.3.4-2,0-.9-.7-2,0-2.7.9-.7,2.1.6,2.2,1.5.5,3.2-1.7,6.1-2.6,9.2-.4,1.6-1.2,3.5-.4,5.1h0Z" fill="#e5e1e6"/><path d="M450.9,12.8c3.3-3.4,10.3-4.7,11.2,1.4.6,4.4-1.9,8.6-4.8,11.8-.9,1.1-2,2-3.5,2.2-4.1.4-7.1.2-7.3-4.7,0-3.7,1.9-8,4.4-10.7h0ZM456.4,11.6c-3.5.6-6,4.2-7.2,7.5-.8,2.5-1.3,6.1,1.4,7.4,2.4,1,5.1-.7,6.3-2.8,2.8-4.2,6-12.8-.5-12.1h0Z" fill="#e5e1e6"/><path d="M338.6,26.9c-.9-1.2-.8-2.9-.8-4.6,0-1.8.6-3.5,1.5-5.1,1.4-2.7,3.2-5.7,6.2-6.5,4.6-1.5,9.5.8,8.1,6.2-1.2,4.1-4.2,10.8-8.9,11.4-1.9.2-4.7.3-6-1.3h0ZM340.6,25.1c1.1.9,3,.8,4.3.6,2-.2,3.5-1.3,4.4-3,1.7-3.1,4.2-8.9.9-10.6-1.5-.6-3.3-.4-4.8.1-1.8.7-2.7,2.1-3.7,4.2-1.1,2.4-3.1,6.7-1.1,8.7h0Z" fill="#e5e1e6"/><path d="M363.8,5.4c.6,1.1-.2,2.8.4,3.8.5,1,1.8,1.2,2.3,1.9.2.4-.2.6-.9.9-2.5.7-3.7,1.1-4.6,3.7-.8,2.4-4.4,8.3-3,10.3,1.5,1.7,4-.1,5-1.6.7-.7,2.8-4.7,3.5-3.2.2,3.1-4.4,7.9-7.7,7.7-2.8,0-3.6-2.7-3.2-5,.3-2.2,1.2-4.2,2.1-6.4.4-1.1.9-2.4.8-3.5,0-.6-.2-1.2-.3-1.8-.3-1.9,1.7-2.4,2.9-4,.5-.5,1.9-3.5,2.6-2.9h0Z" fill="#e5e1e6"/><path d="M373.5,27.3c.8,1.3-8.6,1.3-7.3-.2.6-.8,1.6-1.4,2.1-2.3,1.4-2.3,3.2-6.1,4.3-8.7.4-1.1,1.2-2.5.4-3.6-.3-.5-1-1.2-.5-1.7.4-.3,1.1-.5,1.7-.4,2.9.3,1.8,3.5.8,5.5-.4.8-.7,1.6-1.1,2.4-.9,2.2-2.7,4.7-2.2,6.9.3.9,1.4,1.6,1.7,2.1h0Z" fill="#e5e1e6"/><path d="M406.6,7.1c-.5.4-1.9.7-2.3,0,0-.3.4-.8.8-1.3.4-.6.9-1,1.2-.9,1,.2.9,1.8.2,2.3Z" fill="#e5e1e6"/><path d="M377.3,7.1c-.6.4-1.8.2-2.2-.4-.5-1,1.3-2.3,2.1-1.4.3.5.5,1.3.1,1.8h0Z" fill="#e5e1e6"/><rect width="750" height="162.2" fill="none"/></g></svg>