<?xml version="1.0" encoding="UTF-8"?><svg id="uuid-ce37f5fa-2d16-419b-8cff-5692478a1939" xmlns="http://www.w3.org/2000/svg" viewBox="0 0 750 162.2"><g id="uuid-87e22aa1-cd39-4a46-a90c-34e198dd819a"><g id="uuid-27ef0144-20f6-4cc7-b8a1-5a29ac7885ae"><path d="M383.6,75.1c.2.6,0,1.1-.2,1.6s-5.7,8.9-6.2,9.4-.4.7-.9.8c-9.6-3.4-19.6-5.6-29.9-4.9-2.2.2-7.4.7-7.6,3.5,0,1.7,2.5,2.7,4,2.9,11.7,1.8,38.5-.9,43.5,12.3,8.2,21.8-26.6,23.8-39.9,22.6s-26.4-4.2-26.5-5.9c2.5-2.9,4.7-8.7,7.2-11.2s.5-.8,1.2-.9,10,3,12.1,3.5c7.3,1.7,15.3,2.8,22.8,2.3,2.4-.2,10.1-1.1,7.5-5.1s-6.4-2.1-8.4-2.3c-10.5-1.2-34.9.3-38.4-12.5-3.5-13,8.6-19.5,19.5-21,13.4-1.9,27.3.4,39.9,4.9Z" fill="#e5e1e6"/><path d="M245.4.1c1.4.1,4,.7,5.5,1.1,16.9,4.6,18.9,25,2.1,31.1l14.8,19.5h-16.6l-13.5-16.8h-21.6c.1.4-.4.9-.4,1v15.8h-14.6l-.6-.6V.7l.6-.6h44.3ZM216.3,13.2l-.6.6v7.8l.6.6h28.3c.4,0,2.3-1,2.7-1.4,1.9-1.7,1.7-4.7-.2-6.4-.3-.2-1.9-1.2-2.1-1.2h-28.7Z" fill="#e5e1e6"/><path d="M561,122.6h-16.2l-13.2-16.7h-22.3c0,0,0,16.1,0,16.1l-.6.6h-14l-.6-.6v-51h45.8c14.7.1,25.5,18.9,12.5,28.9s-5.8,2.8-5.7,3.7c3.9,5.9,9.4,10.8,13.3,16.7s1.2,1.4,1.1,2.4ZM509.9,83.7l-.6.6v8.2l.6.6h27.5c.2,0,2.7-1.1,3.1-1.4,3.4-2.8.7-8-3.1-8h-27.5Z" fill="#e5e1e6"/><path d="M496.1,12.8c-.4-.1-.9.4-1,.4h-41.3v5.9l.6.6h33.3l.6.6v10.2c0,0-1,1-1,1h-33.5v7c.4-.1.9.4,1,.4h41.9l.6.6v11.5l-.6.6h-57.9l-.6-.6V.7l.6-.6h56.7l.6.6v12.1Z" fill="#e5e1e6"/><path d="M216.1,83.7c-.4,1.5-1.2,6.3.7,6.9l32.7-.2c.3,0,1.1.8,1.1.9v10.2l-.6.6h-33.9l-.2,7,42.9.6c.7.4.7.9.8,1.6.2,1.3.1,9.7-.2,10.5s-.7.8-.8.8h-57.5l-.6-.6v-51l57.9.6v11.5l-.6.6h-41.7Z" fill="#e5e1e6"/><path d="M638.6,71v12.1l-.6.6h-41.1l-.6.6v5.9l34.5.4v11.5h-33.9l-.6.6v6.1l.6.6h42.3l.6.6v11.9l-.6.6h-57.5c-.1,0-.9-.8-.9-1.1l.3-50.4,57.5-.2Z" fill="#e5e1e6"/><path d="M422.2,71v31.3c0,1,2.4,4.1,3.3,4.9,5.2,4.1,21.6,4.1,26.8-.2s2.9-4.8,3.1-7.5c.7-8.9-.4-19-.2-28.1l1.3-.7,14.1.3v32.6c0,3.1-2.7,8.9-4.7,11.3-8.4,9.8-29.1,10.3-40.8,7.5-25.8-6.2-17-30.5-18.5-50.3l1.1-1.4,14.5.3Z" fill="#e5e1e6"/><path d="M337,51.8l-4.9-8.2-1.2-.4h-31.1c0,.1-1,.5-1,.5l-4.8,8.1h-15.8l.7-2.3L308.5.7c.4-.5.9-.5,1.4-.6,1.4-.2,11.7-.1,12.5.2l31,50.6-.4.8h-16ZM306.8,30.9h17.2l-.6-2.1-7.8-13.1c-.6,0-.7.4-1,.7-1.1,1.2-2.9,4.8-3.8,6.4s-4.5,7.6-4,8.1Z" fill="#e5e1e6"/><path d="M424.7.1c.4.3-1.4,3.3-1.7,3.8-8.5,14.8-18.2,31.2-27.5,45.5-1,1.6-.9,2.2-3,2.4s-8.5.3-11.1,0-1.3-.1-1.7-.5L349.1.1h16.6c.9.8,1.5,1.8,2.2,2.7,6.8,10.2,12.2,21.9,19.2,32.1L408.4.1h16.2Z" fill="#e5e1e6"/><path d="M180.4,12.8c-.4-.1-.9.4-1,.4h-26.5v37.9l-.6.6h-14.4l-.6-.6V13.2h-26.9l-.6-.6V.1h70l.6.6v12.1Z" fill="#e5e1e6"/><polygon points="137.3 71 137.3 108.9 137.9 109.5 179.7 109.5 180.4 110.1 180.4 122 179.7 122.6 122.7 122.6 122.1 122 122.1 71 137.3 71" fill="#e5e1e6"/><path d="M535.9.1v38.5c.4-.1.9.4,1,.4h41.5l.6.6v11.1c0,.1-.5.6-.4,1h-57.3l-.6-.6V.1h15.2Z" fill="#e5e1e6"/><path d="M609,46v-14.8h-16.6l-.6-.6v-10.7l.6-.6h16.6V4.8l.6-.6h11.1l.6.6v13.9l.6.6h16l.6.6v10.7l-.6.6h-16l-.6.6v13.9l-.6.6h-10.7c-.1,0-.6-.5-1-.4Z" fill="#e5e1e6"/><path d="M298.2,71v51.2c-4,.3-9.8,1-13.8.4-.5,0-1.8-.5-1.8-1v-50c0-.2,1.1-.9,1.5-.9l14.1.3Z" fill="#e5e1e6"/><path d="M585.1,133c.5.4,5.7,9.8,5.8,10.4.3,2.1-2.1.6-3.4,1.2-2-2.5-4.7-2.9-7.8-2.3s-1.6,1.9-2.2,2-3.5.4-3.8,0l6.3-11.4c.8-.8,4.2-.7,5.1,0ZM584,139.9c.3-.3-1.1-4.1-2.4-3.3l-1.2,3.3h3.7Z" fill="#e5e1e6"/><path d="M634.4,133c.6,1.6,6.4,10.6,5.8,11.4h-4.2c-.8-2.5-5.4-2.6-7.4-2s-1.2,2-2.3,2.2-2.4-.2-3.3-.2c-.2-.3,3.1-6.1,3.6-6.8,2-3.3,3-6.6,7.8-4.5ZM631.9,136.7c-.3-.2-.8-.1-1.1,0l-1.3,3.2h3.7c.3-.3-1.1-3.1-1.3-3.2Z" fill="#e5e1e6"/><path d="M566.3,144.4h-4.1v-8.4c-1-1.4-4.8,0-5.6-1-1.1-1.5.7-2.4,2.1-2.5s11.4-.2,12.3,0,.8.9,1,1.4l-.5,1c-1.5,1.1-3.9-.4-5.2,1v8.4Z" fill="#e5e1e6"/><path d="M596.3,133.1l.7-.5h2.7c.3,0,.7.8.7,1v7.8l.6.6h7.4c.6,0,1.2,2,0,2.4h-12.1c0,0,0-11.2,0-11.2Z" fill="#e5e1e6"/><path d="M551.5,144.4h-4.1v-11.3c.9-1,3.2-1,4.1,0v11.3Z" fill="#e5e1e6"/><path d="M618.1,144.4c-1.2.2-3.6.8-4-.7s-.2-9.7.1-10.4c.5-1.1,2.2-.9,3.2-.8l.7.5v11.3Z" fill="#e5e1e6"/></g><rect width="750" height="162.2" fill="none"/></g></svg>