<?xml version="1.0" encoding="UTF-8"?>
<svg id="uuid-6b5948ab-cb2d-4e9e-b7b3-184ce749f2cc" xmlns="http://www.w3.org/2000/svg" version="1.1" viewBox="0 0 514.5 217.5">
  <!-- Generator: Adobe Illustrator 30.5.0, SVG Export Plug-In . SVG Version: 2.1.4 Build 167)  -->
  <defs>
    <style>
      .st0 {
        fill: #1d1d1b;
      }
    </style>
  </defs>
  <polygon class="st0" points="261 216.4 275.3 216.4 275.3 215.4 272 211 274.3 178.3 294.8 216.2 297 216.2 318.9 177.2 320.9 211.2 317.5 215.4 317.5 216.4 332.1 216.4 332.1 215.4 329 211.2 325.5 160.4 319.8 160.4 297 202.1 274.5 160.4 269.1 160.4 265 211 261.1 215.4 261 216.4"/>
  <path class="st0" d="M511.5,214.9c-2.3-1.4-18-17.1-18-17.1l-5.6-6h.8c1.3,0,13.9-1.5,13.9-16s-17.5-15.3-17.5-15.3c-1.4,0-17.6,0-17.6,0v1l3.1,4.3v45.4l-3.1,4.2v1h14.3v-1l-3.1-4.2v-19s16.3,17.6,22.3,22.8c1.6,1.4,4.2,2.2,6.6,2.4,2.5.3,6.9,0,6.9,0v-1.4s-1.5-.2-3-1.2M478.7,187.5v-21.2h4.6c6.1,0,11,4.8,11,10.6s-4.9,10.5-11,10.5h-4.6Z"/>
  <polygon class="st0" points="426.5 160.4 426.5 161.4 429.6 165.7 429.6 211.2 426.5 215.4 426.5 216.4 440.8 216.4 440.8 215.4 437.7 211.2 437.7 165.7 440.8 161.4 440.8 160.4 426.5 160.4"/>
  <polygon class="st0" points="225.5 216.4 225.5 215.4 222 211.2 222 165.7 233.6 165.7 238.7 171.5 239.9 171.5 239.9 159.8 236 160.5 222.2 160.4 214.4 160.4 200.7 160.5 196.7 159.8 196.7 171.5 197.9 171.5 203.1 165.7 214.6 165.7 214.6 211.2 211.1 215.4 211.1 216.4 225.5 216.4"/>
  <polygon class="st0" points="17.6 186 39.2 165.7 43.6 161.4 43.6 160.4 29.1 160.4 29.1 161.4 31.1 164.7 11.2 182.6 11.2 165.7 14.3 161.4 14.3 160.4 0 160.4 0 161.4 3.1 165.7 3.1 211.2 0 215.4 0 216.4 14.3 216.4 14.3 215.4 11.2 211.2 11.2 190.8 37.4 215.1 37.8 216.4 48.5 216.4 48.5 215.4 17.6 186"/>
  <polygon class="st0" points="161.5 216.4 161.5 215.4 158.1 211.2 158.1 165.7 169.6 165.7 174.7 171.5 175.9 171.5 175.9 159.8 172 160.5 158.2 160.4 150.5 160.4 136.7 160.5 132.8 159.8 132.8 171.5 134 171.5 139.1 165.7 150.6 165.7 150.6 211.2 147.2 215.4 147.2 216.4 161.5 216.4"/>
  <polygon class="st0" points="73.2 216.4 107.1 216.4 107.1 207.1 105.9 207.1 102.5 211.1 84.3 211.1 84.3 210.2 84.3 190.4 98.1 190.4 101.5 194.4 102.5 194.4 102.5 190.4 102.5 180.5 101.5 180.5 98.1 184.6 84.3 184.6 84.3 165.7 102.5 165.7 105.9 169.7 107.2 169.7 107.2 160.4 73.2 160.4 73.2 161.4 76.3 165.7 76.3 211 73.1 215.4 73.1 216.4 73.2 216.4"/>
  <polygon class="st0" points="362 216.4 396 216.4 396 207.1 394.7 207.1 391.3 211.1 373.2 211.1 373.2 210.2 373.2 190.4 387 190.4 390.4 194.4 391.4 194.4 391.4 190.4 391.4 180.5 390.4 180.5 387 184.6 373.2 184.6 373.2 165.7 391.3 165.7 394.8 169.7 396 169.7 396 160.4 362 160.4 362 161.4 365.1 165.7 365.1 211 362 215.4 362 216.4 362 216.4"/>
  <polygon class="st0" points="213.5 25.4 213.5 25.4 213.5 25.4 213.5 25.4"/>
  <path class="st0" d="M302,27.9l-2.9-2.8h-10.6s-.7,0-.9.2l-2,1.6c-.2.2-.4.5-.4.8v.3c0,.4-.8,1-1.9,1h-51.9c-1.1,0-1.9-.6-1.9-1v-.3c0-.3-.1-.6-.4-.8l-2-1.6c-.3-.2-.9-.2-.9-.2h-10.6l-2.9,2.8,2.7,80.9-1.2,1.2c0,5.2,4.1,9,9.1,9.4l28.3,3.1,5.2,3.1h1.2l5.2-3.1,28.3-3.1c5-.4,9.1-4.2,9.1-9.4l-1.2-1.2,2.7-80.9ZM297.1,109.5s0,.6,0,.6c-.3,3.2-2.9,5.4-6.2,5.7l-28.8,3-4.8,2.8-4.8-2.8-28.8-3c-3.3-.3-5.9-2.5-6.2-5.7,0,0,0-.6,0-.6l-2.7-81.3,2.3-2.1h9.4v1c0,2,2,4.6,4.6,4.6h52.8c2.5,0,4.6-2.6,4.6-4.6v-1h9.4l2.3,2.1-2.7,81.3Z"/>
  <path class="st0" d="M275.4,22.1c-.2.7-.9,1-1.5.9-10.9-2.8-22.3-2.8-33.2,0-.7.2-1.4-.2-1.5-.9-.2-.7.2-1.4.9-1.5,11.3-2.9,23.1-2.9,34.4,0,.7.2,1.1.9.9,1.5"/>
  <path class="st0" d="M277.2,3.9c-1.5-.5-3.1.2-3.7,1.7-.3.9-.2,1.8.3,2.5l-3.8,6.8c-.6-.1-1.3-.2-1.9-.3l.2-7.9c.7-.4,1.3-1.1,1.5-2,.3-1.6-.8-3.1-2.3-3.3-1.6-.3-3.1.8-3.3,2.3-.2.9.1,1.8.7,2.4l-2.7,7.9c-.5,0-1.1,0-1.6,0l-1.4-8.8c.6-.5,1.1-1.3,1.1-2.2,0-1.6-1.3-2.9-2.9-2.9s-2.9,1.3-2.9,2.9.4,1.7,1.1,2.2l-1.4,8.8c-.5,0-1.1,0-1.6,0l-2.7-7.9c.6-.6.9-1.5.7-2.4-.3-1.6-1.8-2.6-3.3-2.3-1.6.3-2.6,1.8-2.3,3.3.2.9.7,1.6,1.5,2l.2,7.9c-.7,0-1.3.2-1.9.3l-3.8-6.8c.4-.7.6-1.6.3-2.5-.5-1.5-2.2-2.3-3.7-1.7-1.5.6-2.3,2.2-1.7,3.7.3.9,1,1.5,1.8,1.7l1.4,6.9c-.6.3-.9.9-.7,1.5.2.7.9,1.1,1.6.9,11.6-2.9,23.7-2.9,35.2,0,.7.2,1.5-.2,1.6-.9.2-.6-.2-1.2-.7-1.5l1.4-6.9c.8-.3,1.5-.9,1.8-1.7.5-1.5-.2-3.1-1.7-3.7M240.7,15.7l-1.1-5.5,2.8,5.2c-.6.1-1.2.2-1.7.4M249.4,14.3c-.3,0-.7,0-1,.1v-6.4c-.1,0,2,6.2,2,6.2l-1,.2ZM256.2,13.9l1.1-6.8,1,6.8h-2.1ZM266.1,14.4c-.3,0-.7,0-1-.1l-1-.2,2.1-6.1v6.4ZM273.8,15.7c-.6-.1-1.2-.3-1.7-.4l2.8-5.1-1.1,5.5Z"/>
  <path class="st0" d="M339.2,22.8c.7.4,1.8.2,2,.2.7-.3.2-.4-.1-1.2-.3-.6.5-1.2-.3-1.4-1-.3-2-.2-2.4.4-.3.5-.2,1.5.8,2M349,30c.1-.9,1.7-1.5,3.2-.8-.4-.7-1-.9-1.5-1.3-.5-.4-.9-.7-.5-1.5-.3-1.8-3.1-.7-3.4-.6-.7.3-1.1.8-.7.8.6,0,.8.2,1.2.4.5.4.9.8,1.2.8-.2,0-.7,0-1,0-.8.1-1.7.4-1.6.6,0,0,2.3.1,3.2,1.5M371.1,58.7c-.4-2.7-2.2-5.6-2.6-6.2-1.9-2.5-4.5-3.9-7.7-3.9-2,0-3.9.7-5.6,1.8-1.9,1.3-3.6,2.8-4.7,4.9-1.4,2.6-2.2,5.1-2.3,8,0,2.2.5,4.9,1.3,7,.9,2.4,2,4.7,3,7.1,1.6,3.8,2.8,7.8,2.6,12-.2,2.8-2.7,4.6-4.8,4.8-.9,0-1.8-.2-2.2-.8-.1-.2-.2-.5-.2-.8,0-.3.2-.5.3-.7,1.6-2.8,1.8-5.6.4-8.4-.1-.3.5-1.1.4-3.7-.2-4.6-2.8-9.5-4.9-11.6-1-1-1.7-3-2-4.3-.5-2-.5-4.1-1-6.1-.2-.9-.4-1.9.2-2.8.2-.2.4-.8.5-1.2,0-1.1-.1-3-.6-3.4,1.1.5,2,0,2.3-1.1-.3.2-1.9-.4-.7-1.7.9-.8,1.4-1.9,1.6-3.2.3,1.5,1.7,1.3,2.3,1.1.7-.2,1.2-.7,1.2-1-.5,0-1-.7-.2-1,.5-.2,1.1-.6,1.3-.9.2-.2.2-.6.2-.9-.3-.9-.2-1.3.5-2,.3-.3.3-.4.5-.7.3-.6-.1-1-.7-1.1-.2,0-1.5.7-1.8.4-.3-.2-.4-1.6.2-2.5.6-.8,1.8-1.1,2.2-.9.6.6.3,1.8.4,2.7,1.3-.2,2-1,2.2-1.8,1.1.2,1.6-.6,2.3-1.3.3,0,.5-.2.9-.4.6-.4,1.4-1.4,1.2-2.1,0-.4-.3-.6-.2-.9.2-1.4,0-1.8-1.1-2.6-.3-.2-.3-.6-.1-1,.4-.7-.5-1.5-1-2.1-1-1.3-2.5-2.2-3.2-3.3.4-.4.8-1.9-.9-2.4-1.5-.4-.1-4.7-4.2-3.5-.5.2-1.6.5-1.8-.2-.2-.5.5-.8.7-.7-.8-1.1-1.8,0-1.8,0,0-1.3-.7-1.8-2.3-1.4-.3,0-.6-.2-.8-.4-.5-.5-1.2-1-1.8-1-1.1-.1-2.1.8-3,1.4-1.6,1-2.7,1.1-3.2,0,0,1.2.7,2.4,2.6,1.7,6.1-2.4,8,1.8,7.5,2.5,0-.2-.9-.6-1.9-.5-1.3,0-1.7.3-2,.5,0-1.1-1.6-1.9-4.2-1-1.2.4-2.6-.1-2.9-.8-.8-1.5.4-2.5,1-2.4-1.1-.5-2.3.2-2.8,1.3h0c-1.3.4-2,1.2-2.6,2.1-.3,0-1.6,0-2.6.4-1.2.5-4.3,2-3,6.1-.4,1.1-2.5,2.2-4.1-.2-.8.7-.9,2.5.6,4.2,1.3,1.4,3.9,2.6,8.6-.8,1.6-1.1,5.5-2.7,7.2,2.4-.6-.4-2.6-1.8-4.4-.7-9.5,5.9-13.4.9-13.7-2.8-1.8,2-.5,4.8.5,6.2,2.3,3.3,7.3,5.5,11,1.5,3.5-3.8,4.7-4.1,6.7-3,0,0-1.7.2-3.3,2.4-1.4,2.1-4.5,5.2-8.5,5-2.9-.1-7.4-2.7-7.8-7.9h0c-.6.6-2.5,2.4-1.1,4.7,1.1,1.8-.6,2.5-.5,3.4-.6-.9-1.3-2-2-3.2-1.5-2.7-.3-6.6-.6-8.1-.3-1.1-.9-.7-1.2-1.8-.2-.5-.2-.2-.3-.8-.2-1.5-.3-2.7-1.1-4.3-.6-1.1-1.5-1.5-2.6-1.6-.3,0-.6,0-.8,0-.3,0-.7-.1-.8-.3-.3-.7-.9-.8-1.5-.9-.4,0-.8-.2-1.2-.3-1.3-.5-2.6-.8-4,0-.5.3-1,.5-1.4,1-.2.3-1,.2-1.3.3-1.1.3-1.7,1-2.2,2-.7,1.4-.7,3.3.6,4,0-.8,0-1.2.5-1.2.4,0,.6.3.6.5-.3,1.9.3,2.6,1.4,3.1.5-.4.3-1.2,1.4-.8,0,0,.9.8,2.2.8.1,0,.2.1.3.2,1.1.6,2.1.3,2.2.3.3.2.2.4.4.7.2.2.4.1.5.4.2.7.6.7.2,1.1-.5.6-.7,1.4-.4,2.2.2.7.6,1.1,1.2,1.6,1.4,1.1,1.8,2,1.8,4.3,0,3-1.1,7.8-1.4,9.3-.6,2.5-.2,4.8,1.2,6.9.8,1.3,1.4,2.7,2,4,.4.9,1.3,1.4,2.2,1.3,1.3-.2,2.3-.9,3.5-1.6.6-.3,1-.8,1.7-.7,0,.1,0,.2,0,.2-.2,1-.2,1.9.5,2.7.4.6.4,1.4,0,2.1-.2.4-.3.8-.5,1.2-.3.9-1.4,3.1-1.8,3.9-.8,1.7-1.6,2.5-3.4,2.9.3-.4.5-1.6.1-2.3-.1-.2-.5-.2-.6-.3-.3-.4.1-1.1-.4-1.5-.5-.5-1-.6-1.7-.6-.5,0-1.1,0-1.5-.2-.9-.5-3.2-1-3.5.8,0,0-.6.2-1.1,1.1,1,.2.8,2,.7,2.4-.5,1.9-.3,2.7,1.4,3.8.6.4,1,.9,1.1,1.6.2,1.1.8,2,1.8,2.4,1,.5,2.1.7,3-.4,0,0,.9.1,1.2.3.7.3,1.2,0,1.7-.5.3-.3.9-.8.8-.7.2,0,.4.2.6.3.9.3,1.7,0,2.2-.9.6-.8,2.9-3.3,3.7-4,1-1,2.4-1,3.6-1.5.9-.4.2-.3,1.1.1,1,.5,1.8,1.2,2.5,2.1,1.2,1.6,3.3,3.1,4.6,4.7,1,1.2,1.3,2.6.3,4.2-.9,1.4-5.5,3.5-6.9,4.2-.9.5-1.9,1.1-2.6,2-.6.8-.9,1.7-1,2.7-.1,2.3,0,1.4-1.3,2.6-.9.8-1.4,1.7-1.1,3,0,.3.2.7.1,1,0,1.8-1.1,2.1-1.5,2.3,1.2.3.9,1.9,3.3,1.1-.3.2-.2.5-.2,1.1,0,1.1-1.9,1-2.3.5.9,2.3,3.9,1.9,4.7,1.2-.8,3.2,1.3,4.2,2.5,4-1-.8-1-2.4.5-3.1-.1.7.9,1.7,1.5,1.4-2.4,3.2.7,5.1,1.7,4.9-.2-.2-.4-.9,0-1.4.3-.6,1.1-.4,1.1-1.6.6.7,1.1,1.4,1.2,2.2.5,2.7.3,5.2-1.7,7.4-1.2-1.5-3,0-4.3-.6-.2,0-.5.2-.6.4-.4.8-.8.7-1.6.6-.8,0-1.7,0-2,.9-.2.7-.8,1-1.2,1.5-.7.8,0,1.8.6,2.3.2-.9.4-1.2.6-1.4-.2.9.2,1.6,1,2,0-.7.1-1,.3-1.3.1-.1.3-.2.3,0,0,.7.4,1.4,1.2,1.5.4-1.1,1.4-.4,1.7-.3.3.2.8,0,1.1,0,1.3.2,2.4-.3,3.4-1.1.5-.4.6-.5,1.3-.3-.5,1.8,0,2.4,1.1,3.5.2-1,1.3-.4,1.9-1.2-.1.6.5,1.5.7,1.6.3-1.2,1.2-.6,1.6-1.3,0,.9.5,1.3,1.3,1.7,0-.9.5-1.5,1-1.3-.2.4.4,1.2.7,1.4.7-.5,1.3-.1,1.6,0,.8.1,1.5.2,2.1-.4.2-.1.5-.2.7-.2,1.1-.1,3.5-.7,3.4-.9-.3-.7,0-1.3.3-1.9.5-.9,1-1.4,1.7-2,1-.9,2.7-1.6,2.4-3.9,0-.3,0-.8.4-.9.6-.2,1,.1,1.2.4.2,0,.3-.3.3-.7,0-.5-.3-.4-.2-.5,0,0,.6-.1,1-.7.5-.8,1-1.9,1.4-1.3.5-.1.3-1,.3-1,.2-.2.2-.5.5-.4,0-.3,0-.8-1.1-.9-.5-1.5-1.3-2.1-2.7-1.6-.6-.4-1.1-.9-1.7-1.2-3.1-1.4-3.5-4-3.6-4.2-.1-.7-.2-1.4.1-1.9.6-1.3,4.2-1,5,.6.4.8,1,1.4,2,1.5.8,0,1.7.2,2.4-.6.7-.8,1.8.6,1.7.9,1.5-.1,1.7-2.1.9-3.6.2,0,.3-.9.3-1,.6-.7,1.3-1.3,1.7-2.1.5-1,.9-2.2,1.1-3.3.3-2.9,0-5.7-.9-8.5-1-3.2-2.7-6-4.2-9-1-2.1-2.2-4.2-2.8-6.4-.6-2.2-1.2-4.4-1-6.8.2-2.5,1-4.9,2.8-6.7,5.3-5.9,10.5-2.1,11.9.7.7,1.4.5,2-1.1,2.1-1.3,0-3.2.7-4.2,1.7-1.3,1.4-1.7,3-2.1,4.8-.1.6-.5,1.6-1.3,1,0,.2-.3,1.7,1.6,1.6-.3,1.5,1.5,3.4,0,3.8-.4.1-.9-.3-1-.7-.6,4.7,4.6,4.9,5.5,1.6.3-1.2,1-1.8,2.3-1.7.7,0,1-.4,1-1.2-1.2,0-1.3-1.1,0-1.4,1.2-.2,2.2-1.3,2.8-2.2.7-1.2,1.1-3.8.7-6.6M348.8,38.5c.2.2-.9,1.4-1.2,1.4-.9.1-1.4-2.1-1.1-1.6.5.8,2.1,0,2.2.1M350.4,37c.3-.7.2-1.6,0-2.1.3,0,.8.2.8.4.1.5-.3,1.3-.8,1.6M338,19.5c.6-.3,2.1-.9,3.5-.3.3.1.6.3.9.5.5.4.5,2,1.1,1.7.5-.4,1.1-1.2.6-1.8-.4-.5-.5-.9-.3-1.6,0,0,0-.4,0-.4,0,0,.2.1.3.2,1.2.7,2.4,0,3.2,1.1.5.7.7,1,.6,1.4,0,0,0,.1,0,.2h0c0,.2.3.4.8.7.7.4,1,1.4,1.6,2,.4.4.9.7,1.3,1.1.5.5.9,1.1,1.3,1.7,1,1.2-.6,1.1-1.1,1.4-.6.3,1.4.8,1.7,1.1,1,.9,1.6,1.4,1.3,2.6,0,.1.2.3.2.5.2.7-.4,1.6-.8,1.7-.3-.7-1.2-1.3-.6-2.4-.7.2-.8.5-.7,1,0,.2.5,1.8,0,2.3-.4.6-1.7.2-1.7-.7-.4.4-1.8.4-2.3-.1-2.7.3-4.2-1.1-4.7-2-.2-.3,0,0,0,.3-.4,1.3.2,2.1.3,3.7,0,.6,0,1.2,0,2.1-.4,1.9.8,3.2,2.7,3.6.1,0,.3,0,.4.1,0,.6-.3.8-.7,1-.4.2-.3.3-.6,0-.3-.4-1.7-.6-1.3-.3.3.2-.3,1.4-1,.2-.9-1.6-1.7-2-2.3-2-.9-.8-.3-2.6-1.6-3.8-2.8-2.4-3.1-3.4-3.1-5h0c0,0,0-.2,0-.3,0,0,0,0,0-.1.1-1.4.8-2.6,1.4-3.2,1.2-.9,1.6-3.9-.9-4.8-1.2-.7-.8-2.9.4-3.5M340.1,42.5c-.5,1.4-2,4.5-.6,5.9,0,0-2.4-1.5-1.5-4.6,1.1-3.9,0-6.5-1-7.9,2.1,1.2,3.9,4.5,3.2,6.5M328.2,23.5c-4.3.3-4.3-4.9-1.9-5.5-.9,1.3-.6,3.6,2.7,3.4,9.3-.5,9.6,6.4,5.2,8.1,2.3-4.8-.9-6.4-5.9-6M334.9,34.4s2.9,5.9.4,10c-1.6,2.5-4.1,1.6-4.6.7,3.3-1.9,5.4-4.9,4.2-10.7M330.5,37.9c0-2.8,2.9-5.2,2.9-5.2,0,0,.7,6.6-4.2,9.8,0,0,1.4-1.8,1.3-4.6M327.9,38.7s.5,3.6-4,4.6c-6.1,1.4-8.1-4.9-8.1-4.9,6.8,6.5,11.7.7,12.1.3M328.3,83.7c.8-1,2.3-2.5,3.8-3.2-1.7,1.6-3.7,4.1-3.8,7.3,0,.5,0,1,0,1.4,0,.9-.1,1.7-.8,2.3-.7.6-1.6,0-1.6-1.3,0-2.2,1.1-4.8,2.4-6.5M340.6,117.9c-.4.5-.8.5-1.3.2-.5-.3-1-.6-1.5-1-.7-.6-1.3-.5-2,0-.7.5-.9.7-1.4.4.3-.3.4-.7.7-1,.4-.4.7-.8.3-1.1-.5-.5-.6-1.1-.6-1.7.1-1,.2-2,.3-3,.2-1.2.6-2.4,1.5-3.4.5-.1,2.9.4,4.1,2.4,2.2,3.8.9,6.8-.2,8.2M346.4,82.4c0,.7-.3,1.1-.6,1.4-.2.2,1.2,3.3-1.1,5.6-1.1,1.1-2.8,1.4-3.2,3.1-.2,1.3-1.3,1.5-1.4,1.7-1,1.6-2.9,1.3-3.9.7-.1,0-.2.2-.1.5,0,.5.4.9.9,1.1,0,0,1.3.5,1.8.7,1.4.7,1.9,1.6,2,2.6h0s1.1,3.5,4.3,5.6c2.4,1.6,3.6,3.1,4.2,3.7.2.2.6.3.6.3,0,0-.4,1.6-1.6.7-1.8-1.3-.2,4.3-3,7.5-1.4,1.6-2.3,1.3-2.3,1.3,0,0,1.6-2.4,1.6-5.3s-1.1-4.7-2.8-6.3c-1.8-1.5-4.3-3.2-4.9-3.4h0c-.2,0-.4,0-.6-.1-.3,0-.4-.2-.5-.5-.1-.4,0-.8,0-.9,0,0,.2-.2.3-.3.3-.3.9-.7.8-1.6v-.9c0,0-4.8,2.9-4.9-2,0-.4-.3-.7-.8-.7h-.8s.4,1.4-.9,1.4c-.4,0-.8-.3-1.3-.2-.4,0-1,0-1.1.6-.4-.3,0-.8-.6-1.6-.1-.1-.4-.4-.4-.5-.2-.4-.3-.9-.2-1.2,0-.2.1-.4.3-.5,0,.1.3.2.4.2.3,0,.9-.2,1.6-1.2.5-.7.9-1.4,1.7-1.2.9.4.8-.3.8-.3,0-.1,0-5.4.4-7.4.3-1.5,1.9-4.1,3.7-4.8h0s0,0,0,0c1.6-.9,2.1-2.6,2-3.9,0-2.8-6.9-6.7-10.3-7.4-.4,0-1.3-.3-1.2-.8.7,0,1.4.1,2,.1.4,0,.9,0,1.3,0,0,0,.1,0,.2,0,.8,0,.9-.6.9-.7,0-.6-.2-1-3.6-2.1-.7-.2-3-1.4-3.7-1.8-3.3-2-4.6-6.1-4.8-6.4,1.5.9,3,1.1,3.9,1.1,1.5,0,3-.5,3.6-1.1.2-.3.4-.3.7-.3s.1,0,.1,0c.9,0,1.6-.9,1.7-2.1v-1.5c.1,0-.5.6-1.2.8-.3.1-1.6.6-3.5.6s-2.8-.2-4-.7h-.1c-.5-.2-.9-.4-1.9-1.2-.2-.1-.4-.3-.5-.4-.7-.5-1-.8-1.1-1.3-.4-2.5-2.4.8-2.9,1.3-1.6,1.6-3.1,1-3.3,2-.4,1.7-1.3.8-1.8-.2-.3-.6-.3-1.3-.3-1.3-3.3-3.3-.6-12.2-.3-14.1.3-2.3-.3-4.6-1.2-6.5-.2-.5-.6-.8-.9-1-2.4-1.3,0-1.8-1-3.1-1.1-1.4,0-1.9-1.7-2.1,0,0,0,0,0,0-.1-.3-.2-.5-.3-.8-.1-.3-1-2-1.8-1.4-2.2,1.5-2.1,0-1.9-.4,0-.3-.9-2-3-1.3-.3-1.6-1.6-1.2-1.6-1.2.2-.5.3-1.7,2.4-2.3,1.1-1.3,3.3-.9,5.6-.1.4.1.7.6,1.1.8.5.2,1.3,0,1.8.1.2,0,.3.2.3.3.2.2.5.4.6.7.6.9.8,1.8.7,2.7,0,1,0,.9.5,1.6,0,0,0,.2.1.2,0,.1,0,.2.2.3,0,.2.2.5.2.8.1.6.9,1.3.9,2,0,1.1,0,2.1-.2,3.2-.2,1.4.3,2.6.8,3.7.2.4.3.7.5,1.1.8,1.8,1.9,4,2.1,5.6,0,.5,0,.7,0,1,0,.2,0,.5,0,1,0,.7.6,1.1,1.1,1.1s.5,0,.7-.2c.7-.4,1.4-1.2,1.9-1.2s1.1.4,1.6.7c.8.4,6.5,3.9,10.9.6.4,1.6,2.3.8,2.6.7.1.7.4,1.4.8,1.9.9,1,2.3,1.5,4.4,1.5s0,0,.1,0c.9.4,1.9.4,2.6.3.6,1,1.3,2.6.9,3.3-.2.4-.5,1-.5,1.6,0,0,0,.2,0,.3,0,0,0,0,0,0-1.5-1.1-3.5-.2-3.6.2,1,.4,1.1.8,1.6,1.2.6.6,2.1,2.4,2.8,4.6.3,1,.9,4.1,1.3,5.7.2.7.9,2.7.9,3.1,0,1.1,0,2.3.9,2.9,1.8,1.3,2.8,3.5,3.5,5.5.7,1.8.9,3.5.7,5.1"/>
  <path class="st0" d="M176.1,20.8c-.4-.6-1.3-.7-2.4-.4-.8.2,0,.8-.3,1.4-.3.8-.9.9-.1,1.2.2,0,1.3.2,2-.2,1-.6,1.1-1.5.8-2M223.2,19.8c-.5-1-1.1-1.7-2.2-2-.3,0-1.1,0-1.3-.3-.4-.5-.9-.7-1.4-1-1.4-.8-2.7-.4-4,0-.4.1-.8.3-1.2.3-.6.1-1.2.2-1.5.9,0,.2-.5.3-.8.3-.3,0-.5,0-.8,0-1.1,0-2,.5-2.6,1.6-.8,1.6-.9,2.8-1.1,4.3,0,.6,0,.2-.3.8-.3,1.1-.9.7-1.2,1.8-.3,1.5.9,5.4-.6,8.1-.7,1.1-1.4,2.2-2,3.2,0-.9-1.6-1.6-.5-3.4,1.4-2.3-.5-4.1-1.1-4.7h0c-.4,5.3-5,7.8-7.8,7.9-3.9.2-7.1-3-8.5-5-1.5-2.1-3.3-2.4-3.3-2.4,2-1,3.3-.8,6.7,3,3.7,4,8.7,1.8,11-1.5.9-1.4,2.3-4.2.5-6.2-.3,3.7-4.2,8.7-13.7,2.8-1.8-1.1-3.8.3-4.4.7,1.8-5,5.6-3.5,7.2-2.3,4.8,3.3,7.4,2.1,8.6.8,1.5-1.7,1.5-3.5.6-4.2-1.5,2.4-3.7,1.4-4.1.2,1.2-4.1-1.9-5.6-3-6.1-.9-.4-2.3-.4-2.6-.4-.6-.9-1.3-1.7-2.6-2.1h0c-.5-1.1-1.7-1.8-2.8-1.2.5,0,1.7,1,1,2.4-.3.7-1.7,1.2-3,.8-2.6-.9-4.3-.1-4.2,1-.3-.2-.7-.4-2-.5-.9,0-1.8.3-1.9.5-.5-.7,1.4-5,7.5-2.5,1.9.7,2.7-.5,2.6-1.7-.5,1.2-1.7,1.1-3.2,0-.9-.6-1.9-1.5-3-1.4-.7,0-1.3.6-1.8,1-.2.2-.6.5-.8.4-1.6-.5-2.2,0-2.3,1.4,0,0-1-1.1-1.8,0,.1,0,.8.2.7.7-.2.7-1.3.4-1.8.2-4-1.2-2.7,3.1-4.2,3.5-1.7.5-1.3,2-.9,2.4-.7,1-2.2,2-3.2,3.3-.5.6-1.4,1.3-1,2.1.2.4.2.8-.1,1-1,.8-1.2,1.2-1.1,2.6,0,.4-.1.5-.2.9-.2.7.6,1.7,1.2,2.1.3.2.6.4.9.4.7.7,1.2,1.5,2.3,1.3.2.8.9,1.6,2.2,1.8,0-.9-.2-2,.4-2.7.4-.2,1.6.1,2.2.9.6.9.5,2.3.2,2.5-.3.2-1.6-.4-1.8-.4-.6,0-1.1.5-.7,1.1.2.3.2.5.5.7.7.6.8,1.1.5,2,0,.3,0,.7.1.9.2.3.8.7,1.3.9.8.3.3,1.1-.2,1,0,.3.5.8,1.2,1,.7.2,2.1.4,2.3-1.1.2,1.3.7,2.4,1.6,3.2,1.2,1.3-.4,1.9-.7,1.7.2,1.2,1.2,1.6,2.3,1.1-.5.4-.7,2.3-.6,3.4,0,.4.3.9.5,1.2.7.9.5,1.8.2,2.8-.5,2.1-.4,4.1-1,6.1-.4,1.3-1,3.3-2,4.3-2,2.1-4.6,7-4.9,11.6-.1,2.6.5,3.5.4,3.7-1.4,2.9-1.2,5.7.4,8.4.1.2.3.5.3.7,0,.3,0,.6-.2.8-.4.7-1.3.9-2.2.8-2.1-.2-4.6-2-4.8-4.8-.1-4.2,1-8.1,2.6-12,1-2.4,2.1-4.7,3-7.1.8-2,1.4-4.8,1.3-6.9-.1-2.9-.9-5.4-2.3-8-1.1-2-2.8-3.5-4.7-4.9-1.7-1.2-3.7-1.8-5.6-1.8-3.3,0-5.8,1.4-7.7,3.9-.4.6-2.2,3.4-2.6,6.2-.4,2.8,0,5.4.7,6.6.6.9,1.5,2,2.8,2.2,1.3.2,1.2,1.4,0,1.4,0,.8.3,1.2,1,1.2,1.3,0,2,.5,2.3,1.7.8,3.3,6,3.2,5.5-1.6-.2.4-.6.8-1,.7-1.5-.4.3-2.3,0-3.8,1.9,0,1.7-1.4,1.6-1.6-.8.6-1.2-.4-1.3-.9-.4-1.8-.8-3.4-2.1-4.8-.9-1-2.8-1.6-4.2-1.7-1.5,0-1.7-.7-1.1-2.1,1.4-2.8,6.6-6.7,11.9-.7,1.8,1.8,2.6,4.1,2.8,6.7.2,2.3-.4,4.5-1,6.8-.6,2.3-1.8,4.3-2.8,6.4-1.4,3-3.2,5.8-4.2,9-.8,2.8-1.2,5.6-.9,8.5.1,1.1.6,2.3,1.1,3.3.4.7,1.1,1.3,1.7,2.1,0,.1,0,.9.3,1-.8,1.5-.6,3.5.9,3.6,0-.3,1-1.7,1.7-.9.7.8,1.5.7,2.4.6,1,0,1.6-.7,2-1.5.8-1.6,4.4-1.9,5-.6.3.5.2,1.2.1,1.9,0,.1-.5,2.8-3.6,4.2-.6.3-1,.7-1.6,1.2-1.5-.4-2.3,0-2.7,1.6-1.1.1-1.1.6-1.1.9.2,0,.3.2.5.4,0,0-.2.9.3,1,.4-.5.9.6,1.4,1.3.4.6,1,.7,1,.7,0,.1-.2,0-.2.5,0,.3.1.6.3.7.2-.3.6-.6,1.2-.4.4.1.5.6.4.9-.3,2.3,1.4,3,2.4,3.9.6.6,1.2,1.1,1.7,2,.3.6.6,1.2.3,1.9,0,.2,2.3.8,3.4.9.3,0,.6,0,.7.2.6.6,1.3.6,2.1.4.4,0,.9-.5,1.6,0,.3-.2.9-1,.7-1.4.5-.2,1,.4,1,1.3.7-.4,1.2-.8,1.2-1.7.4.7,1.3.1,1.6,1.3.1-.2.8-1,.7-1.6.6.8,1.6.2,1.9,1.2,1-1.1,1.6-1.7,1.1-3.5.6-.2.8,0,1.3.3,1,.8,2.1,1.3,3.4,1.1.3,0,.8,0,1.1,0,.2-.1,1.3-.8,1.7.3.8,0,1.3-.8,1.2-1.5,0-.1.2-.1.3,0,.2.3.4.6.3,1.2.8-.4,1.2-1.1,1-2,.2.3.4.5.6,1.4.6-.5,1.3-1.5.6-2.3-.4-.5-1-.9-1.2-1.5-.3-.8-1.2-1-2-.9-.8,0-1.2.2-1.6-.6,0-.2-.4-.4-.6-.4-1.3.6-3.1-1-4.3.6-2-2.2-2.2-4.7-1.7-7.4.1-.8.6-1.5,1.2-2.2,0,1.2.8,1,1.1,1.6.3.4,0,1.1,0,1.3,1,.2,4.1-1.7,1.7-4.9.7.2,1.7-.7,1.5-1.4,1.6.8,1.5,2.3.5,3.1,1.2.2,3.3-.8,2.5-4,.8.7,3.8,1.1,4.7-1.2-.4.4-2.2.6-2.3-.5,0-.6,0-.9-.2-1.1,2.4.8,2.1-.8,3.3-1.1-.4-.2-1.4-.5-1.5-2.3,0-.3,0-.7.1-1,.3-1.2-.2-2.2-1.1-3-1.4-1.3-1.2-.4-1.3-2.6,0-1-.4-1.8-1-2.7-.6-.9-1.6-1.5-2.6-2-1.3-.7-6-2.9-6.9-4.2-1-1.6-.7-3,.3-4.2,1.3-1.6,3.4-3.1,4.6-4.7.7-.9,1.5-1.6,2.5-2.1.9-.4.2-.5,1.1-.1,1.2.5,2.6.5,3.6,1.5.7.7,3.1,3.2,3.7,4,.6.8,1.3,1.2,2.2.9.2,0,.4-.2.6-.3,0,0,.6.4.8.7.5.6,1,.8,1.7.5.3-.1,1.2-.3,1.2-.3.9,1,2,.9,3,.4,1-.5,1.6-1.4,1.8-2.4.1-.8.5-1.2,1.1-1.6,1.7-1.1,1.8-1.9,1.3-3.8,0-.4-.3-2.2.7-2.4-.5-.9-1.1-1.1-1.1-1.1-.3-1.8-2.6-1.3-3.5-.8-.4.2-1,.2-1.5.2-.7,0-1.2.1-1.7.6-.5.5,0,1.1-.4,1.5-.1.2-.5.1-.6.3-.4.7-.2,1.9.1,2.3-1.8-.4-2.6-1.2-3.4-2.9-.4-.9-1.5-3-1.8-3.9-.1-.4-.3-.8-.5-1.2-.3-.7-.4-1.5,0-2.1.7-.9.7-1.8.5-2.7,0,0,0-.1,0-.2.7-.1,1.2.4,1.8.7,1.1.6,2.1,1.4,3.5,1.6,1,.1,1.8-.4,2.2-1.3.6-1.3,1.2-2.7,2-4,1.4-2.1,1.8-4.4,1.2-6.9-.3-1.4-1.4-6.2-1.4-9.3,0-2.3.4-3.2,1.8-4.3.5-.4,1-.9,1.2-1.6.3-.8.1-1.6-.4-2.2-.3-.4,0-.4.2-1.1,0-.3.3-.2.5-.4.2-.2.2-.4.4-.7,0,0,1,.3,2.2-.3.1,0,.2-.2.3-.2,1.3,0,2.2-.8,2.2-.8,1.1-.4.9.4,1.4.8,1.1-.4,1.7-1.1,1.4-3.1,0-.2.2-.5.6-.5.4,0,.5.5.5,1.2,1.3-.7,1.4-2.6.6-4M186.6,38.7c.4.4,5.3,6.2,12.1-.3,0,0-2,6.3-8.1,4.9-4.4-1-4-4.6-4-4.6M184,37.9c0,2.8,1.3,4.6,1.3,4.6-4.9-3.2-4.2-9.8-4.2-9.8,0,0,3,2.4,2.9,5.2M183.8,45.1c-.5.9-3,1.9-4.6-.7-2.5-4.1.4-10,.4-10-1.2,5.8.9,8.8,4.2,10.7M185.6,21.4c3.2.2,3.5-2.1,2.6-3.4,2.4.6,2.4,5.8-1.9,5.5-5-.4-8.2,1.2-5.9,6-4.4-1.7-4.1-8.6,5.2-8.1M176.5,43.9c.9,3-1.5,4.6-1.5,4.6,1.4-1.4-.1-4.6-.6-5.9-.8-2.1,1.1-5.4,3.2-6.5-1,1.4-2.2,4-1,7.9M164.1,37c-.5-.4-1-1.2-.8-1.6,0-.3.6-.3.9-.4-.2.5-.3,1.4,0,2.1M165.7,38.5c.1-.2,1.7.7,2.2-.1.3-.5-.2,1.7-1.1,1.6-.3,0-1.3-1.2-1.2-1.4M172.6,40.2c-.6,0-1.4.4-2.3,2-.6,1.2-1.2,0-1-.2.4-.3-1,0-1.3.3-.3.3-.2.2-.6,0-.4-.2-.8-.5-.7-1,.2,0,.3,0,.4-.1,1.9-.4,3.1-1.7,2.7-3.6-.1-.8-.1-1.5,0-2.1.2-1.6.7-2.4.3-3.7,0-.3,0-.6,0-.3-.4.8-2,2.3-4.7,2-.5.6-1.9.6-2.3.1,0,.8-1.3,1.3-1.7.7-.4-.5,0-2.1,0-2.3,0-.5,0-.8-.7-1,.6,1.1-.3,1.6-.6,2.4-.4,0-1-1-.8-1.7,0-.2.3-.4.2-.5-.3-1.2.3-1.7,1.3-2.6.3-.3,2.3-.8,1.7-1.1-.5-.3-2.2-.2-1.1-1.4.4-.6.8-1.1,1.4-1.7.4-.4.9-.7,1.3-1.1.6-.6.9-1.6,1.6-2,.6-.3.8-.5.8-.7h0c0,0,0-.1,0-.2,0-.4.1-.7.6-1.4.8-1.2,2-.5,3.2-1.1.1,0,.2-.1.3-.2,0,0,0,.4,0,.4.2.6,0,1.1-.3,1.6-.5.6,0,1.4.6,1.8.5.3.5-1.3,1.1-1.7.2-.2.5-.3.9-.5,1.4-.6,3,0,3.5.3,1.1.7,1.5,2.9.4,3.5-2.5,1-2.1,3.9-.9,4.8.6.5,1.3,1.8,1.4,3.2,0,0,0,0,0,.1,0,0,0,.2,0,.3h0c0,1.6-.3,2.6-3,5-1.3,1.2-.7,3-1.6,3.8M178.7,117.1c-.7-.5-1.3-.6-2,0-.5.4-1,.7-1.5,1-.5.2-.9.2-1.3-.2-1-1.3-2.4-4.3-.2-8.2,1.2-2,3.6-2.5,4.1-2.4.9,1,1.3,2.2,1.5,3.4.1,1,.2,2,.3,3,0,.7,0,1.2-.6,1.7-.4.4,0,.8.3,1.1.3.4.4.7.7,1-.4.2-.6,0-1.4-.4M186.2,83.7c1.3,1.7,2.5,4.3,2.4,6.5,0,1.3-.9,1.8-1.6,1.3-.7-.6-.9-1.4-.8-2.3,0-.5,0-1,0-1.4-.2-3.1-2.2-5.6-3.8-7.3,1.5.7,3,2.2,3.8,3.2M219.6,22.3c-2.1-.8-3,1-3,1.3.1.4.3,1.9-1.9.4-.8-.6-1.7,1.1-1.8,1.4-.1.3-.2.5-.3.8,0,0,0,0,0,0-1.6.1-.6.7-1.7,2.1-1,1.2,1.4,1.8-1,3.1-.3.2-.7.5-.9,1-.9,2-1.5,4.2-1.2,6.5.2,1.9,2.9,10.8-.3,14.1,0,0,0,.7-.3,1.3-.5,1-1.4,1.9-1.8.2-.3-1-1.7-.4-3.3-2-.5-.5-2.5-3.8-2.9-1.3,0,.4-.4.8-1.1,1.2-.2.1-.4.3-.5.4-1.1.8-1.4.9-1.9,1.1h-.1c-1.3.5-2.6.8-4,.8s-3.1-.5-3.5-.6c-.7-.3-1.3-.8-1.3-.8v1.5c.2,1.2.9,2.1,1.8,2.1,0,0,.1,0,.1,0,.3,0,.5,0,.7.3.6.7,2.1,1.1,3.6,1.1s2.4-.2,3.9-1.1c-.1.3-1.5,4.3-4.8,6.4-.7.4-2.9,1.6-3.7,1.8-3.4,1.1-3.7,1.4-3.6,2.1,0,0,.1.7.9.7s.1,0,.2,0c.4,0,.9,0,1.3,0,.7,0,1.4,0,2-.1,0,.5-.8.7-1.2.8-3.5.8-10.3,4.6-10.3,7.4,0,1.3.4,3,2,3.9h0s0,0,0,0c1.7.7,3.3,3.3,3.7,4.8.4,2,.3,7.3.4,7.4,0,0,0,.8.8.3.8-.3,1.2.5,1.7,1.2.7,1,1.3,1.2,1.6,1.2s.4-.1.4-.2c.1.2.2.3.3.5.1.4,0,.8-.2,1.2,0,.1-.3.4-.4.5-.6.8-.2,1.2-.6,1.6-.1-.5-.7-.6-1.1-.6-.5,0-.8.2-1.3.2-1.4,0-.9-1.4-.9-1.4h-.8c-.5,0-.8.4-.8.8-.1,4.9-4.9,2-4.9,2v.9c-.1.9.4,1.3.8,1.6.1.1.2.2.3.3,0,.1.2.5,0,.9,0,.2-.2.4-.5.5-.2,0-.4.1-.6.1h0c-.6.2-3.1,1.8-4.9,3.4-1.8,1.5-2.8,3.4-2.8,6.3s1.6,5.3,1.6,5.3c0,0-1,.3-2.3-1.3-2.8-3.2-1.2-8.8-3-7.5-1.3.9-1.6-.7-1.6-.7,0,0,.4,0,.6-.3.6-.6,1.8-2.2,4.2-3.7,3.2-2.1,4.3-5.6,4.3-5.6h0c.2-1,.7-1.9,2-2.6.5-.3,1.8-.7,1.8-.7.5-.2.8-.6.9-1.1,0-.3,0-.6-.1-.5-1,.6-2.9.9-3.9-.7-.1-.2-1.2-.5-1.4-1.7-.4-1.6-2.2-2-3.2-3.1-2.2-2.3-.9-5.5-1.1-5.6-.3-.3-.5-.7-.6-1.4-.2-1.6,0-3.2.7-5.1.7-2,1.7-4.2,3.5-5.5.8-.6.8-1.8.9-2.9,0-.4.8-2.4.9-3.1.4-1.6,1-4.8,1.3-5.7.7-2.2,2.2-4.1,2.8-4.6.4-.4.6-.8,1.6-1.2-.2-.4-2.1-1.3-3.6-.2,0,0,0,0,0,0,0,0,0-.2,0-.3,0-.6-.2-1.2-.5-1.6-.4-.6.3-2.3.9-3.3.7.1,1.7,0,2.6-.3h.1c2,0,3.5-.5,4.4-1.5.4-.5.7-1.2.8-1.9.3.1,2.2.9,2.6-.7,4.5,3.4,10.2-.2,10.9-.6.4-.2.9-.7,1.6-.7s1.2.8,1.9,1.2c.3.1.5.2.7.2.5,0,1-.3,1.1-1.1,0-.5,0-.7,0-1,0-.3,0-.5,0-1,.2-1.6,1.3-3.8,2.1-5.6.2-.4.4-.8.5-1.1.5-1.1,1-2.3.8-3.7-.2-1-.2-2.1-.2-3.2,0-.7.7-1.3.9-2,0-.3.1-.6.2-.8,0-.1.1-.2.1-.3,0,0,0-.2.1-.2.6-.7.6-.6.5-1.6,0-.9.1-1.8.7-2.7.2-.3.4-.5.6-.7,0-.1.2-.3.3-.3.5-.2,1.3,0,1.8-.1.4-.2.7-.6,1.1-.8,2.3-.8,4.5-1.2,5.6.1,2.1.6,2.2,1.9,2.4,2.3,0,0-1.3-.4-1.6,1.2M167.1,28c-.3,0-.8,0-1,0,.3,0,.6-.5,1.2-.8.3-.2.6-.4,1.2-.4.4,0,0-.6-.7-.8-.2,0-3.1-1.2-3.4.6.4.8,0,1.1-.5,1.5-.5.4-1.2.5-1.5,1.3,1.5-.7,3.1-.2,3.2.8.9-1.4,3.2-1.5,3.2-1.5.1-.2-.8-.4-1.6-.6"/>
  <path class="st0" d="M298.1,31.4"/>
  <path class="st0" d="M259,57.6c1.9,0,3.5-1.6,3.5-3.5s-1.6-3.5-3.5-3.5-3.5,1.6-3.5,3.5,1.6,3.5,3.5,3.5M257.3,65c1.2,0,2.1-1,2.1-2.1s-1-2.1-2.1-2.1-2.1,1-2.1,2.1.9,2.1,2.1,2.1M250.1,58.4c0,1.4,1.1,2.5,2.6,2.5s2.5-1.1,2.5-2.5-1.1-2.6-2.5-2.6-2.6,1.1-2.6,2.6M249.8,54.7c1.9,0,3.5-1.6,3.5-3.5s-1.6-3.5-3.5-3.5-3.5,1.6-3.5,3.5,1.6,3.5,3.5,3.5M251.4,67.4c0,1,.8,1.9,1.9,1.9s1.9-.8,1.9-1.9-.8-1.9-1.9-1.9-1.9.8-1.9,1.9M274.6,90.1c-5.1-5.3-10.6-8-22.1-6.8,2.3-2.7,18.6-7.6,25.2-17.6,3.1-4.6,4.2-9.8,2.7-14.6h0s0,0,0,0c-1.7-5.7-7.1-9.7-13.3-9.4-4.5.2-8.4,2.6-10.7,6.1,0,0-.2.2,0,.3.1,0,.2,0,.3,0,3.2-2.8,8.1-2.8,11.3,0,0,0,0,0,0,0,4.4,4.4,3.7,11.3-2.5,18.6-2.5,2.9-16.3,15.9-17.5,16.6v-8l1.6-3.3h-14.5l1.5,3.3v22l-1.5,3.3h14.5l-1.6-3.3v-10.5c7.2.6,10.8,3.7,14.3,8.5,0,0,0,0,0,0,4.7,6.1,11.8,7.7,18.3,3.6.2-.2.5-.3.7-.5,2.1-1.5,3.7-3.5,4.7-5.7-5,1.5-8.7.3-11.6-2.7"/>
  <path class="st0" d="M283.3,35.3c2.9,0,5.3-1.6,6-3.9h8.8v-1.9h-8.7c-.7,2.2-3.1,3.9-6,3.9h-52.2c-2.9,0-5.3-1.6-6-3.9h-8.7v1.9h8.8c.7,2.2,3.1,3.9,6,3.9h52Z"/>
  <line class="st0" x1="296.6" y1="33" x2="222.3" y2="113.9"/>
  <path class="st0" d="M234.4,97.5l-14.1,15.2c.6.7,1.5,1.1,1.9,1.2l9.8-10.6,2.3-5.8Z"/>
  <path class="st0" d="M280.9,46.8c.5,1,.8,1.5,1.1,2.1l16.1-17.5h-3.1l-14.1,15.4Z"/>
</svg>