<?xml version="1.0" encoding="UTF-8"?><svg id="uuid-60f87bd6-f85c-4592-a4ae-1612d059a418" xmlns="http://www.w3.org/2000/svg" viewBox="0 0 384 79"><g id="uuid-8b62a2a0-a023-49e0-86a8-29dd26305aff"><polygon points="0 14.6 0 .2 61.8 .2 61.8 14.6 39.6 14.6 39.6 78 22.3 78 22.3 14.6 0 14.6" fill="#dad4db"/><path d="M178.4,75.6v2.3h-19.1l-17.2-25.7h-14.9v25.7h-17.9V0C121.3,0,133.1,0,145,0c19.1,0,29.5,12.9,29.5,26.7s-5.4,18.6-14.9,22.9l18.8,25.9ZM144.9,38.5c7.5,0,12.4-5.5,12.3-12.1,0-6.6-4.6-11.8-12.3-11.8h-17.9v23.9h17.9Z" fill="#dad4db"/><path d="M216.9,52.1V.2h17.9v51.6c0,8.3,7.3,12.6,15.5,12.6s15.4-4.2,15.4-12.6V.2h17.6v51.9c0,17.5-15.4,26.9-33,26.9s-33.4-9.5-33.4-26.9" fill="#dad4db"/><polygon points="383 14.7 349.9 14.7 349.9 30.5 380.9 30.5 380.9 45.1 349.9 45.1 349.9 62.9 384 62.9 384 78 331.9 78 331.9 .2 383 .2 383 14.7" fill="#dad4db"/></g></svg>