<?xml version="1.0" encoding="UTF-8"?>
<svg id="uuid-ff3c17b6-9361-4f95-809e-e4cc49d4b2c8" xmlns="http://www.w3.org/2000/svg" version="1.1" viewBox="0 0 659.3 170.1">
  <!-- Generator: Adobe Illustrator 30.5.0, SVG Export Plug-In . SVG Version: 2.1.4 Build 167)  -->
  <defs>
    <style>
      .st0 {
        fill: #e5e1e6;
      }
    </style>
  </defs>
  <rect class="st0" y="61.7" width="659.3" height="5.1"/>
  <path class="st0" d="M39.2,85.9l6.4-15.5h-6.2l-8.7,21c-2.5,5.7-5.7,7.2-12,8.1v3.1h31.7v-3.1c-13.9-1-14.9-4.6-11.1-13.5h0ZM108.8,92l-9-21.7h-14.4l6.5,15.7c3.4,8.1,2,12.2-11.5,13.2v3.1h39.3v-3.1c-6.5-.9-9-2.5-11-7.4h0Z"/>
  <polygon class="st0" points="80.5 58.3 94.8 58.3 72.7 4.7 66.4 4.7 44.2 58.3 50.4 58.3 65.6 21.6 80.5 58.3"/>
  <path class="st0" d="M173.1,46.2v12.1h12.2v-30.1h-2.7l-19.7,5.7v3h1.5c6.9.5,8.7,3.6,8.7,9.2h0ZM139.6,58.3v-30.1h-2.7l-19.7,5.7v3h1.5c6.9.5,8.7,3.6,8.7,9.2v12.1s12.2,0,12.2,0ZM195.7,95.4h-1.7c-6.7,0-8.6-3.4-8.6-9.1v-16h-12.2v13.7c-6.7,8.2-12.9,11.5-19.5,11.5s-14-4.9-14-16v-9.4h-12.2v10.1c0,16.1,9.6,24.1,21.5,24.1s16.2-4.7,24.2-16.1v16.1h2.7l19.9-6v-3.1h0Z"/>
  <polygon class="st0" points="211.7 58.3 223.6 58.3 223.6 35.3 242.8 35.3 242.8 30.2 223.6 30.2 223.6 10 221 10 211.7 15.6 211.7 30.2 199 30.2 199 35.3 211.7 35.3 211.7 58.3"/>
  <path class="st0" d="M234.5,97.2c-6.2,0-11-3.6-11-13.7v-13.1h-12v12.9c0,14.5,6.2,21.4,17,21.4s13-5.1,16.9-8.7l-1.5-2.5c-2.9,2.2-5.5,3.7-9.5,3.7h.1ZM262.2,57.4c1.1-14.1,7.4-23.9,19.6-23.9s16,11,16.9,24.7h13c-1.4-16.5-10.4-30.1-27.3-30.1s-30.1,11.1-33.5,30.1h11.2v-.9h.1ZM311.3,83.2l-2.6-1.1c-4.6,6.5-11.5,12.4-21.6,12.4s-21.6-9.1-24.2-24h-12.9c.9,18.7,13,34.2,32.1,34.2s25.5-9.6,29.2-21.5h0ZM341.4,90.7v-20.2h-12.1v20.2c0,6.4-4.5,7.7-10.4,8.7v3.1h32.7v-3.1c-5.7-1-10.2-2.5-10.2-8.7ZM375,53.2v5.1h12.2v-6c0-16.1-9.7-24.1-21.5-24.1s-16.5,4.9-24.4,16.2v-16.2h-2.6l-19.9,5.7v3h1.6c6.9.5,8.7,3.6,8.7,9.2v12.1h12.1v-9.4c6.6-8.5,13-11.9,19.5-11.9s14.1,4.9,14.1,16h0ZM387.2,90.7v-20.2h-12.2v20.2c0,6.4-4.4,7.7-9.7,8.7v3.1h32.2v-3.1c-5.7-1-10.2-2.5-10.2-8.7h0ZM435.7,97.2c-6.2,0-11-3.6-11-13.7v-13.1h-12v12.9c0,14.5,6.2,21.4,17,21.4s13-5.1,16.9-8.7l-1.5-2.5c-2.9,2.2-5.5,3.7-9.5,3.7h.1Z"/>
  <polygon class="st0" points="412.7 58.3 424.7 58.3 424.7 35.3 443.8 35.3 443.8 30.2 424.7 30.2 424.7 10 422.1 10 412.7 15.6 412.7 30.2 400.2 30.2 400.2 35.3 412.7 35.3 412.7 58.3"/>
  <path class="st0" d="M474.4,90.7v-20.2h-12.1v20.2c0,6.4-4.5,7.7-10.4,8.7v3.1h32.7v-3.1c-5.7-1-10.2-2.5-10.2-8.7ZM468.5,17.4c4.9,0,8.6-3.7,8.6-8.7s-3.7-8.6-8.6-8.6-9,3.7-9,8.6,3.7,8.7,9,8.7ZM462.3,46.2v12.1h12.1v-30.1h-2.6l-19.9,5.7v3h1.6c6.9.5,8.7,3.6,8.7,9.2h0ZM529.2,94.7c-14.4,0-22.9-9.9-25.1-24.4h-12.6c1.1,19.5,12.9,34.2,32.8,34.2s23.7-8.4,28.7-23.2l-2.6-1.1c-4.6,8.7-13.2,14.4-21.2,14.4h0ZM523.5,33.6c8.5,0,13.4,7.2,15.4,17l11.5-5.6c-1.9-8.6-11.2-16.7-25.1-16.7s-29.8,13.1-33.1,30.1h11.4c1.1-14.1,8.2-24.7,19.9-24.7h.1ZM627.9,70.3h-12.5c-.1,16.6-7.7,28.5-19.5,28.5s-20.2-14.9-22-28.5h-13.4c1,20,13.9,34.2,33.2,34.2s32-13.5,34.1-34.2h0ZM592.9,33.8c12.4,0,18.9,12.1,21.4,24.5h13.5c-2.5-17.7-15-30.1-33.1-30.1s-29.6,11.6-33.2,30.1h12.2c1.2-14.5,8.5-24.5,19.2-24.5h0ZM31.6,162.6c0,2.2-1.2,3.7-3.6,3.7s-3.7-1.5-3.7-3.7v-9.5h-3.5v9.6c0,3.9,2.2,6.6,7.1,6.6s7.1-2.7,7.1-6.6v-9.5h-3.5v9.5h.1Z"/>
  <polygon class="st0" points="75.4 163.5 68.1 153.2 64.6 153.2 64.6 169.1 67.9 169.1 67.9 158.3 75.5 169.1 78.8 169.1 78.8 153.2 75.4 153.2 75.4 163.5"/>
  <rect class="st0" x="108.4" y="153.2" width="3.4" height="15.9"/>
  <path class="st0" d="M148.7,153c-4.7,0-8.2,3.5-8.2,8.2s3.5,8.2,8.2,8.2,2.6-.2,3.7-.9l1.2,1.5,2.4-2-1.1-1.4c1.4-1.4,2.1-3.4,2.1-5.6,0-4.7-3.5-8.2-8.4-8.2h0ZM152.8,164.2l-1.7-2.1-2.4,1.9,1.7,2.1c-.5.2-1.1.2-1.6.2-2.9,0-4.9-2.2-4.9-5.2s1.9-5.2,4.9-5.2,4.9,2.2,4.9,5.2-.2,2.2-.9,3h0ZM196.7,162.6c0,2.2-1.2,3.7-3.6,3.7s-3.7-1.5-3.7-3.7v-9.5h-3.5v9.6c0,3.9,2.2,6.6,7.1,6.6s7.1-2.7,7.1-6.6v-9.5h-3.5v9.5h.1Z"/>
  <polygon class="st0" points="229.6 169.1 240.9 169.1 240.9 166.2 233 166.2 233 162.5 240.8 162.5 240.8 159.6 233 159.6 233 156.1 240.9 156.1 240.9 153.2 229.6 153.2 229.6 169.1"/>
  <polygon class="st0" points="273.2 153.2 269.9 153.2 269.9 169.1 280 169.1 280 166.1 273.2 166.1 273.2 153.2"/>
  <polygon class="st0" points="311.8 159.6 307.8 153.2 303.9 153.2 310.2 162.6 310.2 169.1 313.6 169.1 313.6 162.6 319.6 153.2 315.7 153.2 311.8 159.6"/>
  <rect class="st0" x="379.9" y="153.2" width="3.4" height="15.9"/>
  <polygon class="st0" points="411.8 156.2 416.5 156.2 416.5 169.1 420 169.1 420 156.2 424.6 156.2 424.6 153.2 411.8 153.2 411.8 156.2"/>
  <path class="st0" d="M456,153.2l-6.1,15.9h3.7l1-2.7h7.1l1,2.7h3.7l-6.1-15.9h-4.4ZM455.5,163.5l2.6-7.4,2.6,7.4h-5.2Z"/>
  <polygon class="st0" points="497.6 153.2 494.3 153.2 494.3 169.1 504.4 169.1 504.4 166.1 497.6 166.1 497.6 153.2"/>
  <rect class="st0" x="533.1" y="153.2" width="3.4" height="15.9"/>
  <path class="st0" d="M570.4,153.2l-6.1,15.9h3.7l1-2.7h7.1l1,2.7h3.7l-6.1-15.9h-4.4ZM569.9,163.5l2.6-7.4,2.6,7.4h-5.2,0Z"/>
  <polygon class="st0" points="619.5 163.5 612.1 153.2 608.6 153.2 608.6 169.1 612 169.1 612 158.3 619.6 169.1 622.9 169.1 622.9 153.2 619.5 153.2 619.5 163.5"/>
</svg>