<?xml version="1.0" encoding="UTF-8"?>
<svg id="uuid-ff3c17b6-9361-4f95-809e-e4cc49d4b2c8" xmlns="http://www.w3.org/2000/svg" version="1.1" viewBox="0 0 1056 170.1">
  <!-- Generator: Adobe Illustrator 30.5.0, SVG Export Plug-In . SVG Version: 2.1.4 Build 167)  -->
  <defs>
    <style>
      .st0 {
        fill: #e5e1e6;
      }
    </style>
  </defs>
  <g id="uuid-07eef926-23c4-4675-aef2-cb1be87c34c3">
    <path class="st0" d="M914.1.3c5.9.6,14,3.8,19,7.1,3,1.8,12.9,10.3,13.1,13.4,0,2.6-7.7,12.5-8.7,15.8-1,1.6-2,1.4-3,0-2.2-2.8-3.4-7.3-5.9-10.5-12.1-15.2-38.6-11.5-42.5,8.3-7.9,39.2,59.5,42.5,63.1,82.5,2.8,31.4-18.8,54.6-50.6,53-15.2-.8-30.6-9.3-38.4-22.3l8.9-21.2c1.2-.2.8.6,1.2,1.2,5.5,10.1,8.3,18.4,20.2,23.3,25.5,10.9,49.2-12.7,39-38.2-5.9-14.8-39.9-29.7-52-43.5-21.2-24.3-5.5-65.5,26.3-68.8,2.6-.2,7.9-.2,10.5,0v-.2Z"/>
    <path class="st0" d="M1020.9.3c8.7,1.6,16.2,4.5,23.1,10.3,1.8,1.4,7.9,7.5,8.5,9.3s.4,1.2,0,1.8l-9.1,15.8h-2.4c-3.4-9.9-10.7-19.4-21.9-20.6-19.6-2-31,13.1-26.1,31.6,5.5,21,44.9,32.2,56.9,52.2,3.2,5.3,4.5,11.1,5.9,17-.2,3.4.4,7.1,0,10.5-.2,2.4-1.4,6.7-2.2,9.1-11.7,39.3-65.6,43.1-87.2,10.5l8.3-21.6c1.2-.2,1.2.4,1.8,1,1.8,2.4,3.4,7.3,5.3,10.5,20,30.8,66.6,12.3,54.4-24.1-6.3-18.4-47.7-31.2-58.3-53.2-12.1-24.7,4.5-57.3,32.4-60.1h10.5,0Z"/>
    <path class="st0" d="M422.4.3c6.5.8,16.2,4.9,21.4,8.9,1.8,1.4,10.5,9.7,10.5,11.5s-7.7,14-9.1,16c-.2.4,0,1-1,.8-1.6-.2-4.7-7.5-5.9-9.3-13.2-19.6-43.9-13.4-44.7,10.9-1.2,33.2,53.6,38.8,62.5,71.8,12.7,47.3-43.9,77.3-79.1,46.9-2-1.6-8.7-8.3-8.7-10.5s6.7-17.8,7.5-19.4c.4-.6.8-1.2,1.4-1.6.8,0,4.4,8.5,5.3,9.9,17,28.5,60.1,20,56.9-15-2.4-26.9-50.4-36.2-61.1-63.5-9.5-24.5,6.5-54.6,33.4-57.5,2.6-.2,7.9-.2,10.5,0l.2.2Z"/>
    <path class="st0" d="M621.3,3.5l91.7,128.3,2.8,2V4.3l1-1h16.2v163.3h-15.6l-93.7-130.7c-1.2-.8-2.4.4-2.4,1.4v129.3h-16.6V3.5h16.6Z"/>
    <path class="st0" d="M.8,3.5h44.3s1,.6,1.8.6c32,3.4,44.7,41.1,23.9,64.3-1.4,1.6-8.5,7.1-8.3,8.1,3.2,2.8,7.1,4.2,10.7,6.5,31,22.3,16.6,74.2-21,82.3-10.7,2.4-39.2,2.8-50,1.6-1,0-1.6,0-2.2-1V4.3l1-1-.2.2ZM18.6,19.3l-1,1v48.8l1,1h16c19.6,0,28.9-14.2,26.7-32.6-1-8.5-8.9-18.2-18-18.2h-24.7ZM18.6,87.2l-1,1v61.7l1,1h24.5c3,0,9.7-2.6,12.5-4.2,24.3-14.2,18.4-59.3-12.5-59.3h-24.5v-.2Z"/>
    <path class="st0" d="M337.5,166.6l-55-133.9-35.4,91.2h32.6l5.5,15.8h-44.5l-11.1,26.9h-20l.4-2.4L276.2,3.7c.8-.4,10.7-.6,12.1-.2.6,0,1.2.2,1.4,1l67.4,161-.8,1.4h-18.8v-.2Z"/>
    <polygon class="st0" points="780.3 19.3 780.3 74.9 806.4 74.9 807.4 75.9 807.4 89.9 806.4 90.9 781.2 90.9 780.3 91.7 780.3 150.8 845.7 150.8 846.5 151.8 846.5 166.6 762.5 166.6 762.5 3.5 837.6 3.5 838.6 4.3 838.6 18.3 837.6 19.3 780.3 19.3"/>
    <polygon class="st0" points="582.5 3.5 582.5 18.3 581.5 19.3 519.6 19.3 518.7 20.3 518.7 166.6 500.9 166.6 500.9 19.3 470.4 19.3 469.6 18.3 469.6 4.3 470.4 3.5 582.5 3.5"/>
    <polygon class="st0" points="131.3 150.8 195.4 150.8 196.4 151.8 196.4 166.6 113.7 166.6 112.9 165.8 112.9 4.3 113.7 3.5 130.3 3.5 131.3 4.3 131.3 150.8"/>
    <polygon class="st0" points="310.4 123.9 316.4 138.6 315.8 139.7 295.8 139.7 289.9 125.1 290.7 123.9 310.4 123.9"/>
  </g>
</svg>