<?xml version="1.0" encoding="UTF-8"?>
<svg id="uuid-f8c89c07-ce79-4ad2-bc7f-cb73a328cdcb" xmlns="http://www.w3.org/2000/svg" version="1.1" viewBox="0 0 510.8 170.1">
  <!-- Generator: Adobe Illustrator 30.5.0, SVG Export Plug-In . SVG Version: 2.1.4 Build 167)  -->
  <defs>
    <style>
      .st0 {
        fill: #e5e1e6;
      }
    </style>
  </defs>
  <g id="uuid-5eac7325-6da5-4c00-882a-50f9d9f5161f">
    <path class="st0" d="M109,42.3c-.8,5.3-1.5,10.4-2.3,15.7h-23.7c-.4,1.8-.6,3.4-.9,5.1-2.2,12.3-4.2,24.6-6.2,37-2,12-3.9,24.1-6.1,36-1.6,9.1-5.3,17.2-12.3,23.4-5.8,5.2-12.7,8.1-20.4,9.1-2.9.4-6,.6-9.2,1,.4-5.8,1.6-11.3,2.5-16.8,2.2-.3,4.2-.3,6.2-.6,6.5-1,11.3-4.2,13.8-10.5,1.6-4.1,2.5-8.4,3.3-12.7,1.9-11.1,3.8-22.4,5.7-33.6.5-3.3,1.1-6.6,1.6-9.9v-1.6c-20.3-.8-40.5-.5-61.2-.1.9-5.4,1.6-10.5,2.4-15.8h61.7c.5-3.3,1.1-6.5,1.6-9.7H4.6c.5-5.4,1.3-10.5,2.4-15.8,20.4,0,40.6.3,61.2-.3.5-2.7.9-5.1,1.4-7.6,1-5.4,2.4-10.8,5.2-15.6,5.4-9.5,13.4-15.4,24.2-17.6,7.6-1.6,15.3-1.1,23.3-1.3-.4,5.2-1.4,10.1-2,15.3h-2.7c-4.4,0-8.7,0-13.2.3-6,.4-10.5,3.5-13.7,8.6-2.3,3.5-3.3,7.6-4.1,11.6-.4,2-.5,4.2-.9,6.5h23.4-.1Z"/>
    <path class="st0" d="M230.8,43h17.1c3.9,20.5,6.2,41.3,10.3,61.8.6-1.4,1.3-2.9,1.9-4.3,2.8-6.1,5.7-12,8.5-18.1,5.7-12.4,11.5-24.8,17.2-37.3.8-1.8,1.6-2.2,3.4-2.2h14.2c3.7,20.5,6.5,41.3,10.5,61.9,9.2-20.6,18.5-41.3,27.7-61.9h18c-4.3,10.3-9.1,20.1-13.5,30.1-4.4,10-9,20-13.4,30-4.6,10-9,20.1-13.7,30.4h-17.7c-3.2-20.6-6.5-41.3-9.6-61.9-.1,0-.3,0-.4-.1-.5,1-1,1.9-1.4,2.9-7.7,17.1-15.4,34.3-23.2,51.4-1,2.2-2,4.2-3,6.3-.5,1.1-1.3,1.6-2.7,1.5-4.3-.1-8.6,0-12.9,0s-1.6,0-2.7.1c-4.8-30.3-9.6-60.4-14.6-90.8h0Z"/>
    <path class="st0" d="M208.6,43h17c-.5,3.4-1,6.8-1.5,10.1-2,13.3-4.2,26.6-6.2,39.9-1.6,10.4-3.3,20.8-5.1,31.3-.8,4.8-1.6,9.6-2.8,14.3-1.6,7.1-5.1,13.3-9.7,18.9-3.4,4.2-8,7-12.9,8.9-15.7,6.1-30.9,4.7-45.2-4.1-2.8-1.8-5.2-4.1-7.3-6.8,3.2-3.9,6.3-7.7,9.6-11.5,1.4,1.3,2.5,2.4,3.9,3.7,7.8,7.1,17,9.1,27.2,7,6.7-1.4,11.6-5.4,14.9-11.4,2.9-5.2,4.7-11.8,5.3-18.9-1.9,1.4-3.5,2.7-5.3,3.9-9.4,6.5-19.6,8.7-30.8,6.2s-17.5-10.1-18.2-21.6c-.5-7.1.5-14.1,1.6-21,1.5-8.7,2.8-17.6,4.2-26.5,1.1-7.3,2.4-14.7,3.5-22.2h16.8c-.4,2.3-.6,4.6-1,6.7-2.2,14.2-4.4,28.4-6.6,42.5-.6,4.4-1.1,8.9-1.6,13.3,0,1.1,0,2.3.1,3.4,1.1,7,5.7,11,12.8,11.4,5.6.3,10.6-1.1,15.2-4.2,3.5-2.4,6.7-5.4,9.5-8.7,2.4-2.9,3-6.3,3.7-9.9,2.2-13.7,4.4-27.3,6.6-41,.6-3.8,1.1-7.7,1.8-11.5,0-.6.3-1.3.5-1.9v-.3Z"/>
    <path class="st0" d="M447.4,95.3c-.9,4.4-1.3,8.5-.3,12.7,1.5,7.2,5.8,10.8,12.5,11.8,6.6,1,13.2.3,19.2-2.9,5.7-2.9,9-7.5,10.4-13.7h15.4v1.8c-1.9,8-5.7,14.9-11.9,20.5-3.2,2.7-6.7,4.6-10.5,6.1-10.1,3.8-20.4,4.4-30.8,1.4-10.6-3.2-17-10.3-19.8-20.9-1.6-6.1-1.4-12-.3-18.1,1.1-6.7,2.4-13.4,3.8-20,1.4-6.6,3.8-12.9,7.6-18.5,3.7-5.3,8.5-9.5,14.6-11.6,11.3-4.2,22.8-5.2,34.3-1.4,10,3.3,16.6,10.3,18.5,20.6,1.9,10.5-2,20.9-12.2,26.7-4.8,2.7-10,4.2-15.4,4.9-7.7,1.1-15.6.8-23.3.8h-12ZM449.8,81.3h7.3c7.2,0,14.4-.1,21.6-.4,2.9,0,5.8-.9,8.5-2.2,4.6-2.3,6.6-6.1,6.7-11,0-4.8-2-8.6-6.5-10.9-8.2-4.1-16.6-3.7-24.4.9-8.7,5.1-12.3,13.5-13.3,23.4h0Z"/>
    <path class="st0" d="M107.9,133.1c7.1-44.6,14.2-88.8,21.1-132.9h17.2c-7.1,44.4-14.2,88.8-21.1,132.9h-17.2Z"/>
    <path class="st0" d="M393.1,42.7h16.8c-.9,5.1-2,10-3,15.2.4-.4.8-.6,1-1,1-1.3,1.9-2.7,2.9-3.9,6-7.5,14.1-10.6,23.3-11.4,2.2-.1,4.3,0,7,.1-.8,5.6-1.6,10.9-2.4,16.2h-3.5c-14.4-.8-26.8,8.9-30.4,22.8-1.4,5.6-2.2,11.3-3.2,17-1.5,8.7-2.8,17.6-4.2,26.5-.4,2.5-.8,4.9-1.1,7.5,0,.6-.3,1.3-.5,1.9h-16.7c.6-7.7,2.3-15.2,3.4-22.8,1.1-7.6,2.3-15.1,3.5-22.5,1.3-7.6,2.5-15.2,3.7-22.8,1.1-7.5,2.3-15.1,3.5-22.7h-.1Z"/>
    <path class="st0" d="M365.6,42.9h17.2c-4.8,30.3-9.6,60.3-14.3,90.7h-17.1c4.8-30.1,9.5-60.3,14.3-90.7h-.1Z"/>
    <path class="st0" d="M387,24.6c0,5.8-4.2,10-10,10s-9.6-5.2-9.5-10.5c.1-6.2,5.4-9.4,10-9.2,5.2,0,10,4.2,9.6,9.7h-.1Z"/>
  </g>
</svg>