<?xml version="1.0" encoding="UTF-8"?>
<svg id="uuid-ae759852-08f6-43d7-8c01-596698faa486" xmlns="http://www.w3.org/2000/svg" version="1.1" viewBox="0 0 316.4 170.1">
  <!-- Generator: Adobe Illustrator 30.5.0, SVG Export Plug-In . SVG Version: 2.1.4 Build 167)  -->
  <defs>
    <style>
      .st0 {
        fill: #e5e1e6;
      }
    </style>
  </defs>
  <path class="st0" d="M205.3,166h3.3v-1.5h-3.3v-2h6v-1.5h-7.4v8.7h7.6v-1.5h-6.1v-2.3ZM195.6,168l-3.5-6.9h-1.6l4.4,8.7h1.4l4.4-8.7h-1.6l-3.5,6.9ZM185.9,169.8h1.4v-8.7h-1.4v8.7ZM174.2,162.5h3.2v7.2h1.4v-7.2h3.2v-1.5h-7.9v1.5ZM167.4,168.6c-1.8,0-3.8-.9-3.8-3.1s1.8-3.2,3.6-3.2,2.4.5,3.6,1.4l.8-1.2c-1.3-1-2.7-1.6-4.4-1.6-2.7,0-5,1.7-5,4.7s2.5,4.6,5.2,4.6,2.9-.4,4.2-1.4l-.6-1.4c-1.1.8-2.3,1.2-3.6,1.2M153.1,166h3.3v-1.5h-3.3v-2h6v-1.5h-7.4v8.7h7.5v-1.5h-6.1v-2.3ZM143.3,161h-1.4v8.7h6.5v-1.5h-5.1v-7.3ZM133.6,161h-1.4v8.7h6.5v-1.5h-5.1v-7.3ZM122.6,168.6c-1.8,0-3.6-1-3.6-3.1s1.9-3.1,3.7-3.1,3.7,1,3.7,3.1-2,3.2-3.8,3.2M122.7,160.8c-2.6,0-5.2,1.5-5.2,4.4v.2c0,2.9,2.4,4.6,5.1,4.6s5.2-1.7,5.2-4.7-2.5-4.6-5.1-4.6M110.2,168.6c-1.8,0-3.8-.9-3.8-3.1s1.8-3.2,3.6-3.2,2.4.5,3.6,1.4l.8-1.2c-1.3-1-2.7-1.6-4.4-1.6-2.7,0-5,1.7-5,4.7s2.5,4.6,5.2,4.6,2.9-.4,4.2-1.4l-.6-1.4c-1.1.8-2.3,1.2-3.6,1.2M29.7,129.6c0,1.6-.1,3.1-.4,4.4-.3,1.3-.7,2.4-1.4,3.4-.7.9-1.7,1.7-3.1,2.2-1.4.5-3.2.8-5.4.8h-8.8v-36.7h5.1v-.8H0v.8h5.1v36.7H0v.8h30.6v-11.5h-.9ZM41.9,132.1l6-12.1,5.8,12.1h-11.8ZM63.9,140.3l-12.7-25.7h-1.4l-13,25.7h-3.2v.8h9.6v-.8h-5.3l3.7-7.4h12.6l3.5,7.4h-4.9v.8h14.2v-.8h-3.1ZM106.6,135.7c-.8,1.5-1.9,2.6-3.3,3.4-1.4.8-2.9,1.2-4.5,1.2h-6.5v-18.5h6.5c1.6,0,3.1.3,4.5.9,1.4.6,2.5,1.5,3.3,2.8.8,1.3,1.3,2.9,1.3,4.9s-.4,3.8-1.3,5.3M92.2,103.6h6c1.4,0,2.8.3,4.1,1,1.3.7,2.4,1.7,3.2,3.1.8,1.4,1.2,3.1,1.2,5.1s-.4,3.6-1.2,4.8c-.8,1.2-1.9,2.1-3.2,2.6-1.3.5-2.7.8-4.1.8h-6v-17.4ZM112.1,125.1c-1.4-1.3-3.1-2.3-5.4-2.9-1.6-.4-3.2-.7-5-.8,2.9-.3,5.3-.9,7-2,2.5-1.4,3.7-3.8,3.7-7.2s-1.3-5.7-3.9-7.2c-2.6-1.5-6-2.2-10.4-2.2h-16.5v.8h5.1v36.7h-5.1v.8h17.7c4.6,0,8.2-.8,10.8-2.5,2.6-1.7,4-4.4,4-8.2s-.7-4-2-5.3M143.1,133.2c-.3,1.6-.9,2.9-1.6,4.1-.7,1.2-1.6,2.1-2.8,2.7-1.1.6-2.5,1-4,1s-2.9-.3-4-1c-1.1-.6-2-1.5-2.7-2.7-.7-1.2-1.2-2.5-1.6-4.1-.3-1.6-.5-3.2-.5-5.1s.2-3.5.6-5.1c.4-1.6,1-2.9,1.7-4.1.7-1.2,1.7-2.1,2.8-2.7,1.1-.6,2.3-1,3.8-1s2.7.3,3.8,1c1.1.6,2,1.5,2.8,2.7.8,1.2,1.3,2.5,1.7,4.1.4,1.6.6,3.2.6,5.1s-.2,3.5-.5,5.1M148,120.9c-1.4-2-3.3-3.6-5.6-4.7-2.3-1.1-4.9-1.6-7.6-1.6s-5.2.5-7.6,1.6c-2.3,1.1-4.2,2.7-5.6,4.7-1.4,2-2.1,4.4-2.1,7.2s.7,5.2,2,7.2c1.4,2,3.2,3.6,5.5,4.7,2.3,1.1,4.9,1.6,7.8,1.6s5.5-.5,7.9-1.6c2.3-1.1,4.2-2.7,5.5-4.7,1.4-2,2-4.4,2-7.2s-.7-5.2-2.1-7.2M154.4,115.1v9.7h.9c0-1.9.2-3.5.7-4.9.5-1.3,1.2-2.3,2.3-3,1-.7,2.5-1,4.2-1h4.2v24.4h-4.8v.8h15.1v-.8h-4.8v-24.4h4.3c1.7,0,3.1.3,4.2,1,1,.7,1.8,1.7,2.3,3,.5,1.3.7,2.9.7,4.9h.9v-9.7h-30.1ZM188.5,115.1v9.7h.9c0-1.9.2-3.5.7-4.9.5-1.3,1.2-2.3,2.3-3,1.1-.7,2.5-1,4.2-1h4.2v24.4h-4.8v.8h15.1v-.8h-4.8v-24.4h4.3c1.8,0,3.1.3,4.2,1,1,.7,1.8,1.7,2.3,3,.5,1.3.7,2.9.7,4.9h.9v-9.7h-30.1ZM247.2,132.2c0,2.2-.4,3.8-1.1,5-.7,1.2-1.8,2-3.1,2.4-1.3.4-2.8.7-4.4.7h-6.5v-12.7h2c.8,0,1.6.1,2.4.4.8.3,1.5.7,2,1.3.5.6.8,1.3.8,2.2h.9v-8.4h-.9c0,.9-.3,1.6-.8,2.1-.6.5-1.2.9-2,1.2-.8.3-1.6.4-2.4.4h-2v-10.9h7.4c1.3,0,2.5.2,3.6.6,1.1.4,2,1.2,2.7,2.2.7,1,1,2.5,1,4.3h.9v-7.9h-24.9v.8h3.7v24.4h-3.7v.8h25.2v-9h-.9ZM269.8,129.7v.9h5.4v5.9c-.1.4-.3.8-.6,1.2-.2.5-.6.9-1,1.4-.4.5-1,.8-1.6,1.1-.7.3-1.5.4-2.5.4-1.6,0-3-.5-4.3-1.5-1.3-1-2.3-2.5-3.1-4.4-.8-1.9-1.2-4.2-1.2-6.8s.4-4.9,1.1-6.8c.7-1.9,1.8-3.3,3.1-4.3,1.3-1,2.9-1.5,4.7-1.5s2.3.2,3.3.7c1.1.5,2,1.1,2.9,1.9.9.8,1.6,1.6,2.1,2.6.6.9.9,1.9,1,2.8h.9v-8.4h-.8l-2.9,2.3c-.9-.8-2-1.4-3.2-2-1.3-.6-2.8-.9-4.3-.9s-3.1.2-4.8.7c-1.7.5-3.3,1.2-4.7,2.3-1.5,1.1-2.7,2.5-3.6,4.2-.9,1.7-1.4,3.8-1.4,6.4s.5,4.7,1.3,6.4c.9,1.7,2.1,3.1,3.5,4.2,1.5,1.1,3.1,1.8,4.8,2.3,1.7.5,3.4.7,5.1.7s4.1-.4,5.7-1.1c1.6-.7,2.9-1.7,3.9-2.8,1-1.1,1.8-2.2,2.4-3.3v-3.9h2.9v-.9h-14.3ZM291.3,132.1l6-12.1,5.8,12.1h-11.8ZM313.3,140.3l-12.7-25.7h-1.5l-13,25.7h-3.2v.8h9.6v-.8h-5.3l3.7-7.4h12.6l3.5,7.4h-4.9v.8h14.2v-.8h-3.1ZM158.9,0c-.2,0-.5,0-.7,0-.3,0-.5,0-.7,0-21.2,0-38.4,17.2-38.4,38.4s17.2,38.4,38.4,38.4.5,0,.7,0c.2,0,.5,0,.7,0,21.2,0,38.4-17.2,38.4-38.4S180.1,0,158.9,0ZM183.6,63.8c-6.7,6.8-15.6,10.8-25.2,11h-.4c-9.5-.2-18.5-4.1-25.2-11-6.7-6.9-10.4-15.9-10.4-25.5s3.7-18.6,10.4-25.5c6.7-6.8,15.6-10.8,25.1-11h.4c9.5.2,18.5,4.1,25.2,11,6.7,6.9,10.4,15.9,10.4,25.5s-3.7,18.6-10.4,25.5ZM185.8,48.4c-.6,8.6-9.4,18.3-23,19.7-.8,0-1.8.1-2.7.2h-.1s0-2,0-2h.5c.3,0,.5,0,.7,0,9.7-1,20.7-8.1,21.3-17.9,0-1.1,0-2.2-.3-3.1-.6-2.5-2.9-4.9-5.7-6-.5-.2-.9-.4-1.4-.5h-.2c-.4-.1-.8-.2-1.1-.2h-14.8c-1.1,0-2,.9-2,2v9.5h-.2c-.5-.2-1-.3-1.5-.4,0,0,0,0-.2,0-.5-.2-1-.4-1.5-.6h0v-21.2h0c.5-.3,1-.5,1.5-.7,0,0,0,0,0,0,0,0,0,0,0,0,.5-.2,1-.3,1.5-.4h.2s0,7.9,0,7.9c0,1.1.9,2,2,2h14.7c.4,0,.7,0,1.1,0,0,0,.1,0,.2,0,.5,0,.9-.2,1.4-.4.7-.3,1.4-.6,2-1.1h.1c4.2-3.3,3.1-8.9.7-13.1-1.6-2.8-3.9-5.3-6.6-7.2-3.7-2.6-8.5-4.1-13.7-4.3-1.1,0-1.9.9-1.9,2v8.3h-.1c-.5,0-1,0-1.4.2,0,0-.1,0-.2,0-.5,0-1,.2-1.5.3h-.2s0-7.8,0-7.8c0-.6-.3-1.2-.8-1.6-.5-.4-1.1-.5-1.7-.3-1.9.5-3.8,1.3-5.5,2.2l-1.1.6v-2.9h0c4.1-2,8.8-3,13.6-2.9,6.4-.2,12.4,1.5,16.9,4.6,3,2.1,5.5,4.8,7.2,7.8,2.6,4.6,3.9,11.5-1.2,15.5h-.1c-.5.5-1.1.9-1.8,1.2,3.1,1.5,5.6,4.2,6.3,7.1.3,1.2.4,2.4.3,3.7ZM156.8,56h.1v12.3h-2.4c0-.1,0-.1,0-.1h-.3s0,0,0,0c-9.7-1-18.3-6.7-23.1-15.3h0c0,0,0,0,0,0h0v-3.3l1.3,2.2c.6,1,1.2,1.9,1.8,2.8.1.2.3.2.4.1.1,0,.2-.1.2-.3v-31.9c0-.2-.1-.3-.2-.3-.1,0-.3,0-.4.1-.8,1.1-1.6,2.2-2.2,3.2-.2.3-.7,1.1-.7,1.1l-.2.4v-3.1s0,0,.5-.9c2.4-4,5.7-7.4,9.6-9.9h.2c0-.1,0,3.1,0,3.1h0c-.6.5-1.2.9-1.8,1.4-.8.6-1.2,1.5-1.2,2.5v37c0,1,.4,1.9,1.2,2.5,2.9,2.3,6.3,4.1,9.9,5.3.9.3,1.9.1,2.7-.4.8-.6,1.3-1.5,1.3-2.5v-6.4h.2c.5.2,1,.3,1.4.3h0c0,0,.1,0,.2,0,.6,0,1,.1,1.5.2ZM159.7,54.2c-.1,0-.3,0-.4,0,0,0-.2,0-.3,0,0,0-.2,0-.3,0-.1,0-.3,0-.5,0-9.3,0-16.9-7.1-16.9-15.8s7.6-15.8,16.9-15.8.3,0,.5,0c0,0,.2,0,.3,0,0,0,.2,0,.3,0,.1,0,.3,0,.4,0,7.5,0,14.2,4.7,16.3,11.5h0c0,.1-.1.2-.1.2-.1,0-.2,0-.3.1-.3.1-.6.2-.9.3h-.2c-.3,0-.6,0-.8,0h-.9c-1.7-5.9-7.3-9.9-13.7-10.2-8,.3-14.3,6.4-14.3,13.9s6.3,13.5,14.3,13.9c7.1-.3,13-5.2,14.1-11.7h0c0-.1.5-.1.5-.1.3,0,.6,0,.9.1h.1c.4.1.8.2,1.1.4.1,0,.2.1.4.2h.3c0,.1,0,.2,0,.2-1.5,7.5-8.5,12.9-16.6,12.9Z"/>
</svg>