<?xml version="1.0" encoding="UTF-8"?>
<svg id="uuid-ae759852-08f6-43d7-8c01-596698faa486" xmlns="http://www.w3.org/2000/svg" version="1.1" viewBox="0 0 754.3 170.1">
  <!-- Generator: Adobe Illustrator 30.5.0, SVG Export Plug-In . SVG Version: 2.1.4 Build 167)  -->
  <defs>
    <style>
      .st0 {
        fill: #e5e1e6;
      }
    </style>
  </defs>
  <g id="uuid-c2dea8cf-d45a-43d1-ad79-58cefaf51c8e">
    <g id="uuid-e1e13685-83b4-436e-b899-6654176cb411">
      <path class="st0" d="M581.4,87.4c0,5.2,4.9,32.8,9.6,34.5,1.4.4,24.3.7,25.4,0,2.6-10.3,3.3-20.8,6-31l18.5-33.2c1.1,0,1.4,1.1,1.6,2.1,4,9.4,5.2,21.6,9.7,31,1.1.5,2.2-3.1,2.6-4,1.1-2.5,6.4-16.3,7.2-16.8,1.1-.8,2.1,1,2.9,2.7,1.2,2.6,2.3,5.2,4-.3,3.3,3.3,9.7,24.2,12.4,25.2.4.1,1,.1,1.5,0,.7,0,1.2,0,1.8.1,2.3,1.2,9.2,19.7,13.3,21.9,2.1-16.3,3.4-32.7,5.7-49,.5-4.4,1.9-8.6,1.6-13,2.9.5,7.5.3,12.2,0,5.3-.4,10.7-.7,13.4.3,1.8.5,3.8,8.2,4.4,10.3,12.9,50.7-32.1,94.1-82.2,83.8-4-.8-15.6-6.3-16.5-6.3h-28.2c-.5,1.9.5,1.4,1.1,1.9,49.5,44,127.6,20.4,142.8-44.3,4.4-18.7,1.6-38.2-6.6-55.5h-48c-1.4.3-1.8,15-2.1,17.2-1,7.7-2.2,15.6-3.3,23.3,0,.8.3,1.8-1.2,1.2-.7-.3-4.4-1.9-4.5-2.2-1.5-1.6-6.3-15.6-7.8-18.9-1.1-2.3-2.2-4.8-3.3-7.2-1.9-4.2-3.8-8.6-6.3-12.4-1,.3-1.6,7.5-3.7,5.7-.3-.3-2.3-8.3-4.1-6.6-.4.4-3,9.6-4.2,10.9-1.1,1-1.8,5.9-3.6,5.5-1.1-.3-3.6-15.3-4.5-16.3-.5-.4-11.8-.3-13,.3-3,1.5-18.1,34.3-22.2,39-3,7.1-2.3,17.8-4.9,24.5-.5,1.6-3.8,2.2-4.8.8-1.1-1.5-3.8-10.3-4.2-12.7-10.9-50.3,35.1-92.3,84.4-81.1,3.7.8,14.9,6.3,15.7,6.3h27.4c.3-1.4-.4-1.6-1.2-2.5-16-15.6-36-22.6-55.8-22.6-45.1,0-90.1,35.8-88.9,87.4"/>
      <path class="st0" d="M363.7,145.5c5.2-25.4,9.7-51.4,15.9-76.6,1.9-7.9,2.6-16.4,11.2-19.7,6.6-2.5,30.5-2.1,38.6-1.5,25.8,1.8,25.8,24.2,20.8,44.6-8.3,34.3-29.5,29.5-59.5,29.7l-4.9,23.5h-22ZM394.7,105.6h19.1c1,0,6.3-3.1,7.4-4.1,5.7-5.6,13.1-31.6,4.2-36-4.1-2.1-21.2-3.7-23,2.6,0,0-7.8,37.5-7.8,37.5Z"/>
      <path class="st0" d="M310.7,75.5c1.4-3.1.7-11.4-3.7-11.4h-41.2c.7-4.2,1.2-11.1,2.6-14.9.4-1,.8-1.4,1.9-1.4,15.3,1.2,33.1-1.6,48,0,8.3,1,14.9,6.4,15.9,15,.8,7.5-5.9,37.6-8.5,46-1.6,5.6-4.8,11.4-10.9,12.7-7.4,1.5-40.3,1.2-48.6.4-20.8-2.3-17.6-37.9-1.2-44.4,1.1-.4,6.2-2.1,7-2.1h38.7ZM306.6,91h-25.7c-4.4,0-10.8,14.6-.8,15.6,3.3.3,20.9.3,22.7-.8,1.8-1.1,4.5-14.1,3.8-14.8"/>
      <path class="st0" d="M194.2,47.7l10.9,52.2,34.2-52.2h22.4l-.8,2.9-64.8,95.7h-22.4c.3-1.9,1.9-3.8,3.1-5.5,2.5-3.7,13.3-17.1,13.3-20.2l-17.9-73h22,0Z"/>
      <path class="st0" d="M534.1,47.7l-3.3,16.3h-42.8c-3.3,0-6,4-3.4,7.1,2.5,2.9,24.9,8.9,30.8,12,12,6.4,13.3,19.1,6.7,30.4-2.2,3.7-8.5,8.3-12.9,8.3h-57.4c-.1-2.6,1.9-15.6,3.8-16.1l45.1-.5c1.9-1.2,2.1-3.1,1.1-5.1-3.4-7.1-36.2-9.3-39.8-23-2.3-8.9,1.5-23,10.5-27.1,1.5-.7,7-2.3,8.3-2.3h53.3-.1Z"/>
      <path class="st0" d="M82.5,47.7l-3.3,16.3h-43.6c-2.6,0-4.9,4.4-2.6,7.1,4.7,5.5,29.8,7.7,37.6,17.4,6.7,8.2,3.1,25.7-5.9,30.9-.8.5-6.7,2.6-7.2,2.6H0l3.4-16.1,46.4-.5c1.6-1.6,1.8-2.7.7-4.8-4.1-7.4-30-9.3-37.3-18.9-6.7-8.6-2.2-26.8,7.8-31.3,1.8-.8,7.2-2.6,8.9-2.6h52.7Z"/>
      <polygon class="st0" points="377.6 24.1 357.2 122 334.4 122 355.6 24.1 377.6 24.1"/>
      <polygon class="st0" points="121.6 24.1 101.2 122 78.4 122 99.6 24.1 121.6 24.1"/>
      <path class="st0" d="M170.6,47.7c-7.5,8.1-15.3,15.9-23.3,23.7-5.2,5.1-15.9,10.4-10.3,19.1l21.2,31.3h-24.9l-18.7-28.4c-3.1-7.1-1.6-12.4,2.9-18.3,7.2-9.4,19.6-18.1,27.4-27.4h25.7,0Z"/>
    </g>
  </g>
</svg>