<?xml version="1.0" encoding="UTF-8"?>
<svg id="uuid-5871eb84-4c74-46f6-aa02-137e64d7103e" xmlns="http://www.w3.org/2000/svg" version="1.1" viewBox="0 0 232.9 161.8">
  <!-- Generator: Adobe Illustrator 30.5.0, SVG Export Plug-In . SVG Version: 2.1.4 Build 167)  -->
  <defs>
    <style>
      .st0 {
        fill: #e5e1e6;
      }
    </style>
  </defs>
  <path class="st0" d="M11,153.5c0,4.6-1.7,8-6.7,8H0v-16h4.3c5,0,6.7,3.4,6.7,8M2.5,147.8v11.3h1.8c3.1,0,4.2-2,4.2-5.6s-1-5.6-4.2-5.6h-1.8Z"/>
  <path class="st0" d="M16.4,153.5c0-5,1.9-8.3,6-8.3s6,3.3,6,8.3-1.9,8.3-6,8.3-6-3.3-6-8.3M25.9,153.5c0-3.7-1-5.9-3.5-5.9s-3.5,2.2-3.5,5.9,1.1,5.9,3.5,5.9,3.5-2.2,3.5-5.9"/>
  <polygon class="st0" points="37.1 159.1 43.4 159.1 43.4 161.5 34.6 161.5 34.6 145.5 37.1 145.5 37.1 159.1"/>
  <path class="st0" d="M47.8,153.5c0-5,1.9-8.3,6-8.3s6,3.3,6,8.3-1.9,8.3-6,8.3-6-3.3-6-8.3M57.2,153.5c0-3.7-1-5.9-3.5-5.9s-3.5,2.2-3.5,5.9,1.1,5.9,3.5,5.9,3.5-2.2,3.5-5.9"/>
  <path class="st0" d="M66,145.5h2.4l4.2,8.4,4.2-8.4h2.4v16h-2.5v-6.8c0-1.7,0-3.3.3-5l-3.9,7.8h-1.1l-3.9-7.8c.2,1.7.2,3.3.2,5v6.8h-2.5v-16Z"/>
  <rect class="st0" x="86.1" y="145.5" width="2.5" height="16"/>
  <polygon class="st0" points="98.3 147.8 94.2 147.8 94.2 145.5 104.8 145.5 104.8 147.8 100.8 147.8 100.8 161.5 98.3 161.5 98.3 147.8"/>
  <polygon class="st0" points="110.4 145.5 119.1 145.5 119.1 147.8 112.9 147.8 112.9 152.3 118.4 152.3 118.4 154.6 112.9 154.6 112.9 159.1 119.2 159.1 119.2 161.5 110.4 161.5 110.4 145.5"/>
  <path class="st0" d="M124.9,160.7v-2.4c1.3.8,2.8,1.2,4.3,1.2s2.8-.7,2.8-2.1c0-3.4-7.5-2.4-7.5-7.6s2.5-4.5,5.1-4.5,2.7.3,4,1.1v2.4c-1.3-.7-2.4-1.1-3.8-1.1s-2.7.6-2.7,2.1c0,3,7.6,2.4,7.6,7.6s-2.4,4.6-5.2,4.6-3.2-.3-4.6-1.1"/>
  <rect class="st0" x="169.8" y="145.5" width="2.5" height="16"/>
  <polygon class="st0" points="181.9 147.8 177.9 147.8 177.9 145.5 188.5 145.5 188.5 147.8 184.5 147.8 184.5 161.5 181.9 161.5 181.9 147.8"/>
  <path class="st0" d="M196.5,145.5h2.6l5.1,16h-2.6l-1-3.5h-5.6l-1.1,3.5h-2.6l5.1-16ZM200,155.8l-1.4-4.7c-.3-.9-.6-1.9-.8-2.9-.2,1-.5,2-.8,2.9l-1.4,4.7h4.3Z"/>
  <polygon class="st0" points="212.1 159.1 218.4 159.1 218.4 161.5 209.7 161.5 209.7 145.5 212.1 145.5 212.1 159.1"/>
  <polygon class="st0" points="225.5 154.8 220.5 145.5 223.3 145.5 226.7 152.4 230.2 145.5 232.9 145.5 228 154.8 228 161.5 225.5 161.5 225.5 154.8"/>
  <path class="st0" d="M152.2,153.7c0,.7-.6,1.3-1.3,1.3s-1.3-.6-1.3-1.3.6-1.3,1.3-1.3,1.3.6,1.3,1.3"/>
  <polygon class="st0" points="121.3 63.2 121.3 48.4 99.7 48.4 99.7 0 84.1 0 84.1 63.2 121.3 63.2"/>
  <polygon class="st0" points="129.9 14.8 129.9 63.2 145.4 63.2 145.4 14.8 159.9 14.8 159.9 0 115.5 0 115.5 14.8 129.9 14.8"/>
  <path class="st0" d="M46.5,111c0-8.6-5-13.5-9.2-15.5,3.3-2,7-6,7-13.6s-7.3-16.2-18.3-16.2H0v63.2h25.4c10.3,0,21.1-5,21.1-17.9M15.6,78.6h7.1c3.9,0,6.2,1.9,6.2,6.1s-2.3,6-5.9,6h-7.5v-12.2ZM15.6,115.8v-13h8c3.5,0,7,1.5,7,6.5s-3.5,6.5-7.2,6.5h-7.8Z"/>
  <polygon class="st0" points="155.7 63.2 171.1 63.2 183.7 23.5 197.2 65.9 177.2 128.9 192.6 128.9 204.9 90.1 217.2 128.9 232.5 128.9 212.6 65.9 212.6 65.9 212.6 65.9 191.6 0 175.8 0 155.7 63.2"/>
  <polygon class="st0" points="72.4 90.1 84.7 128.9 100.1 128.9 80.1 65.9 80.1 65.9 80.1 65.9 59.2 0 43.4 0 23.3 63.2 38.7 63.2 51.3 23.5 64.7 65.9 44.8 128.9 60.1 128.9 72.4 90.1"/>
  <path class="st0" d="M124.7,65.7h-20.7v63.2h20.7c19.8,0,26.9-13.9,26.9-31.6s-7.1-31.6-26.9-31.6M124.7,114.1h-5.1v-33.6h5.1c7.6,0,11.3,4.6,11.3,16.8s-3.7,16.8-11.3,16.8"/>
  <rect class="st0" x="155.4" y="65.7" width="15.6" height="63.2"/>
  <path class="st0" d="M206.8,2h2c1.1,0,2,.6,2,1.9s-.4,1.5-1.2,1.8l1.4,2.5h-1.1l-1.3-2.3h-.9v2.3h-1V2ZM208.8,5c.6,0,1-.3,1-1s-.5-1-1-1h-1.1v2.1h1.1Z"/>
  <path class="st0" d="M208.5,10.1c-2.8,0-5.1-2.3-5.1-5.1s2.3-5.1,5.1-5.1,5.1,2.3,5.1,5.1-2.3,5.1-5.1,5.1M208.5.7c-2.4,0-4.3,1.9-4.3,4.3s1.9,4.3,4.3,4.3,4.3-1.9,4.3-4.3-1.9-4.3-4.3-4.3"/>
</svg>