<?xml version="1.0" encoding="UTF-8"?>
<svg id="uuid-6a30eeb7-f8f7-433a-9f5b-f1601ea9a6db" xmlns="http://www.w3.org/2000/svg" version="1.1" viewBox="0 0 170.2 162.8">
  <!-- Generator: Adobe Illustrator 30.5.0, SVG Export Plug-In . SVG Version: 2.1.4 Build 167)  -->
  <defs>
    <style>
      .st0 {
        fill: #e5e1e6;
      }
    </style>
  </defs>
  <g>
    <path class="st0" d="M.1,130.8v-24h7.8c7.2,0,12,4.8,12,12s-4.8,12-11.9,12H.1ZM3.4,109.8v18h4.4c5.3,0,8.7-3.5,8.7-9s-3.4-9-8.9-9H3.4Z"/>
    <path class="st0" d="M39,130.8v-24h9.1c5.1,0,8.2,2.7,8.2,7.2s-1.7,5.7-4.6,6.7l4.9,10.1h-3.6l-4.5-9.5h-6.1v9.5h-3.3ZM42.3,118.4h5.8c3,0,4.7-1.6,4.7-4.4s-1.8-4.3-4.8-4.3h-5.8v8.7Z"/>
    <path class="st0" d="M75.7,130.8v-24h14.6v3h-11.4v7.5h10.3v2.9h-10.3v7.6h11.4v3h-14.6Z"/>
    <path class="st0" d="M107.6,130.8l8.8-24h3.6l8.8,24h-3.4l-2.2-6h-10.1l-2.1,6h-3.4ZM114.1,122h8.1l-3.7-10c-.2-.5-.3-1-.4-1.4,0,.3-.2.9-.4,1.4l-3.7,10Z"/>
    <path class="st0" d="M146.8,130.8v-24h3.2l8.3,20.2,8.3-20.2h3.3v24h-3.2v-9.5c0-4.5,0-6.1.2-7.8l-7,17.3h-3.1l-7-17.2c.2,1.2.2,3.6.2,7v10.3h-3.2Z"/>
    <path class="st0" d="M0,139.5h8.7c4.5,0,7.2,2.3,7.2,6s-1.1,4.4-3.4,5.3c2.5.8,3.8,2.7,3.8,5.4s-2.8,6.1-7.3,6.1H0v-22.9ZM3.1,142.3v7.3h5.6c2.6,0,4-1.4,4-3.8s-1.5-3.6-4.2-3.6H3.1ZM3.1,152.3v7.3h5.9c2.7,0,4.1-1.4,4.1-3.7s-1.5-3.6-4.1-3.6H3.1Z"/>
    <path class="st0" d="M29.7,162.4v-22.9h13.9v2.8h-10.8v7.1h9.8v2.7h-9.8v7.2h10.8v2.9h-13.9Z"/>
    <path class="st0" d="M55.2,139.5h3.5l5.1,9.1c.3.5.5,1,.8,1.5.3-.6.3-.8.8-1.5l5.1-9.1h3.4l-7.7,13.6v9.3h-3.1v-9.3l-7.7-13.6Z"/>
    <path class="st0" d="M94.2,162.8c-6.4,0-10.9-4.9-10.9-11.8s4.5-11.8,11-11.8,11,4.9,11,11.8-4.6,11.8-11,11.8ZM94.2,142.1c-4.6,0-7.7,3.5-7.7,8.8s3.1,8.9,7.7,8.9,7.7-3.6,7.7-8.9-3.1-8.8-7.7-8.8Z"/>
    <path class="st0" d="M118.6,162.4v-22.9h3.1l11.7,17.7v-17.7h3.1v22.9h-3.1l-11.7-17.7v17.7h-3.1Z"/>
    <path class="st0" d="M151.3,162.4v-22.9h7.4c6.8,0,11.4,4.6,11.4,11.4s-4.6,11.4-11.3,11.4h-7.6ZM154.4,142.4v17.1h4.2c5.1,0,8.3-3.3,8.3-8.5s-3.2-8.6-8.4-8.6h-4.1Z"/>
  </g>
  <g>
    <path class="st0" d="M26.3,56.8c-.1.2-.2.4,0,.6.1.2.3.4.6.4s.3,0,.4-.1l11.6-10.1,1.8,23.5c0,.3.3.5.6.5s.6-.2.6-.5l1.8-23.5,11.6,10.1c.1,0,.2.1.4.1.2,0,.5-.1.6-.4.1-.2,0-.5,0-.6l-10.5-12,12.1-1.3c.3,0,.5-.3.5-.6s-.2-.6-.5-.6l-12.1-1.3,10.5-12.1c.1-.2.2-.4,0-.6-.1-.2-.3-.4-.6-.4s-.3,0-.4.1l-11.6,10.1-1.8-23.5c0-.3-.3-.5-.6-.5s-.6.2-.6.5l-1.8,23.5-11.6-10.1c-.1,0-.2-.1-.4-.1-.2,0-.5.1-.6.4-.1.2,0,.5,0,.6l10.4,12-12.1,1.3c-.3,0-.5.3-.5.6,0,.3.2.6.5.6l12.1,1.3-10.5,12.1Z"/>
    <path class="st0" d="M111,41.1c10.3-3.7,16.4-10.9,16.4-19.7s-2.7-11.2-7.6-15.2c-4.9-4-11.6-6.2-18.8-6.2h-59.8v4c0,0,10.5-.1,11.5,0,4,.2,7.9.8,11.6,2.3,10.1,4.1,17.1,13.2,19.8,25,.1.8,1.6,8.6,1.1,15.5-.6,7.1-2.4,13.9-5.5,19.1-3.6,6.2-9,10.8-15.4,13.4-7.4,3-15.3,2.3-23.1,2.3v4h63.4c15.1,0,26.4-9.7,26.4-22.6s-7.8-18.7-20-21.9ZM71.7,3.8h26.3c10.2,0,16.9,7.1,16.9,18.1s-3.1,13.4-9.7,16.2c-2.2.9-4.7,1.5-7.3,1.8,0-1-.2-2.3-.4-3.6,0,0,0,0,0,0-.1-.8-.3-1.6-.4-2.4,0,0,0-.1,0-.2,0-.1,0-.2,0-.4-.5-2.4-1.3-4.9-2.4-7.4h0c-4.2-9.9-12.2-17.8-22.8-22.2ZM101.6,81.8h-29.9c15.9-6.6,26-21.3,26.2-38.3h1.8c9,0,18.7,5.2,18.7,19.6s-6.6,18.7-16.9,18.7Z"/>
  </g>
</svg>