<?xml version="1.0" encoding="UTF-8"?><svg id="uuid-2f02fb9b-6e26-4771-9340-7a9bf0a117a7" xmlns="http://www.w3.org/2000/svg" viewBox="0 0 750 162.5"><g id="uuid-06001c1a-3464-4a3e-b4ca-f1ca3f4d5ec4"><g id="uuid-c716daaf-9ff0-4677-ab6f-bbcc075dc44a"><path d="M390.5,6.7c-4.1-4.3-9.7-6.7-15.5-6.7h0c-5.7,0-11.4,2.5-15.5,6.7-4.4,4.5-6.6,10.5-6.3,16.8,0,1.6.3,3.2.7,4.7h0c.3,1.3.8,2.6,1.4,3.7.5.9,1,1.8,1.6,2.6h0c.1.2.2.3.3.5h0c.1.2.2.3.3.5h0s0,0,0,0c.4.4.7.8,1.1,1.1h.1c.1.2.2.3.3.4,0,0,.1,0,.2.1.1,0,.2.2.3.2h.2c0,.2.2.3.3.3,0,0,.1,0,.2,0h0c.2.1.3.2.5.3h0c0,0,.2.1.3.2,0,0,.1,0,.2,0h0c0,0,.2.1.3.2,0,0,.2,0,.3.1,0,0,.2,0,.3.1,0,0,.2,0,.3.1.1,0,.2,0,.4.1,0,0,.1,0,.2,0,.1,0,.3,0,.4.1h.1c.2,0,.4.1.6.2h.2c.1,0,.3,0,.4.1,0,0,.1,0,.2,0h0c.1,0,.3,0,.4,0,0,0,.1,0,.2,0,.1,0,.3,0,.4,0h.2c.2,0,.4,0,.6,0,.2,0,.4,0,.7,0,0,0,0,0,.1,0h0c.1,0,.3,0,.4,0,0,0,.1,0,.2,0h0c.1,0,.2,0,.4,0,0,0,.2,0,.3,0,.1,0,.2,0,.3,0,.1,0,.2,0,.3,0,0,0,.1,0,.2,0h.1c0,0,.2-.1.3-.1h0c.3-.2.6-.3.9-.5h0s0,0,0,0c.1,0,.3-.2.4-.3h0c.1-.2.3-.3.4-.4h0c.1-.2.3-.3.4-.4h0c.7-.7,1.2-1.5,1.7-2.4h0c.2-.4.3-.8.4-1.2,0,0,.1,0,.2,0,.1.4.3.7.4,1.1h0c0,.1,0,.1,0,.1.4.9,1,1.7,1.7,2.3h0c.1.2.2.3.4.4h0c.1.2.3.3.4.4h0c.1.2.3.2.4.3h0c.3.2.6.4.9.5h0s0,0,0,0c0,0,.2,0,.3.1h.1c0,0,.1,0,.2.1.1,0,.2,0,.3,0,.1,0,.2,0,.3,0,0,0,.2,0,.3,0,.1,0,.2,0,.4,0h0c0,0,.1,0,.2,0,.1,0,.3,0,.4,0h0s0,0,.1,0c.2,0,.4,0,.7,0,0,0,.2,0,.2,0,.1,0,.2,0,.4,0h.2c.1,0,.3,0,.4,0,0,0,.1,0,.2,0,.1,0,.3,0,.4,0h0c0,0,.1,0,.2,0,.1,0,.3,0,.4,0h.2c.2,0,.4-.1.6-.2h.1c.1,0,.3-.1.4-.2,0,0,.1,0,.2,0h0c.1,0,.2,0,.3-.1,0,0,.2,0,.3-.1,0,0,.2,0,.3-.1,0,0,.2,0,.3-.1,0,0,.2,0,.3-.1h0c0,0,.1-.1.2-.1,0,0,.2-.1.3-.2h0c.2-.1.3-.2.5-.3h0c0,0,.1-.1.2-.1.1,0,.2-.1.3-.2h0c0,0,.1,0,.2-.1.1,0,.2-.2.3-.2,0,0,.1,0,.2-.1.1,0,.2-.2.3-.3h.1c.4-.4.8-.8,1.1-1.2h0c.1-.2.2-.3.3-.4h0c.1-.2.2-.4.3-.5h0c.6-.8,1.1-1.7,1.6-2.6.6-1.1,1.1-2.4,1.4-3.7h0c.4-1.5.6-3.1.7-4.7.3-6.3-2-12.3-6.3-16.8h0ZM378,32.3c.7-1.3,2.7-3.1,5.1-2.3,1.3.4,1.9,1.7,1.8,2.8,0,1.2-.8,2.1-2,2.3-.3,0-.6,0-.7-.1-.4-.3-.4-1.3-.4-2.1,0-.7,0-1.1-.2-1.3,0,0-.2,0-.3,0-.9.3-1.4.9-1.5,1.7-.1.8.3,1.7,1,2.3.9.7,2.1.8,3.3.3,1.8-.7,2.7-2.4,2.3-4.1-.3-1.3-1.3-2.6-3.1-3,1.6-.3,3.2-.4,4.8-.4.1,0,.3,0,.4,0,.4,0,.8,0,1.1-.2.3-.2.5-.6.4-1,0-.3-.2-.4-.4-.5-2.2-.5-8,1.3-11.5,3.2.5-.4,1-.8,1.1-.9,2.9-2.2,6.9-3.9,10.7-4.3.2,0,.3,0,.5,0,.4,0,.9-.1,1.3-.5.3-.3.4-.8.3-1.2-.1-.3-.3-.4-.6-.4-.8,0-1.8.2-2.7.6h-.4c-1.4.6-6.2,2.4-10.5,6.3,2.8-3.2,6.2-5.5,8.7-7.3l.3-.2c1.7-1.2,3.3-2,4.9-2.5.5-.2.8-1,.7-1.6,0-.6-.5-1-1.1-1.1-.9-.1-3.1,1.2-5.8,3.5-2.8,2.3-5.5,5.2-7.9,8.2,3.9-7.6,9.5-12.9,11.2-14.4.7-.6.7-1.2.6-1.6-.1-.6-.6-1.2-1-1.3-2.6-.8-8.6,8.8-11.6,16.2,1.8-7.5,3.3-11.4,7.2-18.4.3-.5.2-1.1-.1-1.6-.5-.7-1.4-1.1-2.2-.9-.8.1-1.3.7-1.6,1.7,0,.1-2.8,10.8-4.2,18.7,0-.7,0-1.3,0-2v-1.4c.2-3,.4-6.1.6-9.1,0-.8.1-1.5.2-2.3.1-1.7.3-3.3.5-4.7,0-.2,0-.4,0-.7h0c0-.2,0-.4-.1-.6-.2-.6-.7-.9-1.5-1,0,0,0,0,0,0h0s-.4,0-.4,0h0c0,0-.1,0-.2,0-.8,0-1.3.4-1.5,1,0,.2,0,.3-.1.5,0,0,0,0,0,0,0,.2,0,.4,0,.6.2,1.4.3,3,.5,4.7,0,.8.1,1.6.2,2.3.2,3,.4,6.1.5,9.1v1.4c.1.7.1,1.3.2,2-1.4-7.9-4.1-18.6-4.2-18.7-.2-.9-.8-1.5-1.6-1.7-.8-.1-1.7.2-2.2.9-.4.5-.4,1.1-.1,1.6,3.9,6.9,5.4,10.8,7.2,18.4-3-7.4-9-17-11.6-16.2-.4.1-.9.7-1,1.3,0,.4,0,1,.6,1.6,1.7,1.5,7.3,6.8,11.2,14.4-2.4-3-5.2-5.9-7.9-8.2-2.7-2.2-4.9-3.6-5.8-3.5-.6,0-1,.5-1.1,1.1,0,.7.2,1.4.8,1.6,1.6.6,3.2,1.4,4.9,2.5l.3.2c2.5,1.7,5.9,4,8.7,7.3-4.3-3.9-9.1-5.7-10.5-6.1h-.4c-.9-.4-1.9-.8-2.7-.7-.3,0-.5.2-.6.5-.1.4,0,.9.3,1.2.4.3.8.4,1.3.5.2,0,.3,0,.5,0,3.8.5,7.8,2.1,10.7,4.3,0,0,.5.4,1.1.9-3.5-1.9-9.4-3.7-11.5-3.2-.2,0-.4.2-.5.5,0,.4.1.8.4,1,.4.2.8.2,1.1.2.1,0,.3,0,.4,0,1.5,0,3.2,0,4.7.4-1.8.3-2.8,1.7-3.1,3-.4,1.8.5,3.4,2.3,4.1,1.2.5,2.4.4,3.3-.3.7-.6,1.1-1.5,1-2.3-.1-.8-.6-1.3-1.5-1.7-.2,0-.3,0-.3,0-.2.2-.2.6-.2,1.3,0,.8,0,1.7-.4,2.1-.2.1-.4.2-.7.1-1.2-.3-1.9-1.1-2-2.3,0-1.1.6-2.5,1.8-2.8,2.4-.8,4.4,1,5.1,2.3.4.7.5,1.5.3,2.3-.4,1.4-1.5,2.5-2.9,3.2h0c-.1,0-.3.1-.4.2,0,0-.1,0-.2,0-.1,0-.2,0-.4,0,0,0-.2,0-.2,0-.1,0-.2,0-.3,0h0c0,0-.2,0-.2,0-.1,0-.2,0-.4,0h0c0,0-.1,0-.2,0-.1,0-.3,0-.4,0h0c0,0-.1,0-.2,0-.3,0-.5,0-.7,0-.2,0-.4,0-.7,0h-.1c-.2,0-.5-.1-.7-.2h-.1c-.2,0-.4-.2-.6-.2h0c-.2-.1-.4-.2-.7-.3h-.1c-.2-.2-.5-.3-.7-.4h0c-.2-.1-.4-.3-.6-.4h-.1c-.2-.2-.4-.4-.6-.5h-.1c-.4-.4-.9-.8-1.2-1.2h-.1c-.2-.3-.4-.5-.6-.8h0c-.2-.3-.4-.5-.5-.8h0c-.2-.3-.3-.5-.5-.8h0c-.2-.4-.3-.7-.5-1-.1-.3-.3-.6-.4-.9h0c-.1-.4-.3-.8-.4-1.1h0c-.1-.5-.2-.9-.3-1.2-.4-1.5-.7-3.1-.7-4.7-.2-6,1.9-11.6,6-15.9,3.9-4,9.2-6.3,14.5-6.3h0c5.4,0,10.7,2.3,14.5,6.3,4.1,4.3,6.2,9.9,6,15.9,0,1.7-.3,3.2-.7,4.7,0,.3-.2.7-.3,1h0c-.1.5-.2.8-.4,1.1h0c-.1.5-.3.8-.4,1-.1.3-.3.6-.5.9h0c-.2.4-.3.7-.5.9h0c-.2.3-.3.5-.5.8h0c-.2.3-.4.5-.6.7h-.1c-.4.5-.8.9-1.2,1.3h-.1c-.2.3-.4.4-.6.6h-.1c-.2.2-.4.3-.6.5h0c-.2.2-.4.3-.7.4h-.1c-.2.2-.5.3-.7.3h0c-.2.1-.4.2-.6.2h-.1c-.2,0-.4.1-.7.2h-.1c-.3,0-.5,0-.7.1-.2,0-.5,0-.7,0,0,0-.1,0-.2,0h0c-.2,0-.3,0-.4,0,0,0-.1,0-.2,0h0c-.1,0-.3,0-.4,0,0,0-.2,0-.3,0-.1,0-.2,0-.3,0,0,0-.2,0-.2,0-.1,0-.2,0-.4,0,0,0-.1,0-.2,0-.1,0-.3,0-.4-.1h0c-1.5-.6-2.6-1.8-2.9-3.2-.2-.8-.1-1.6.3-2.3h0ZM370.3,38.9h0s0,0,0,0Z" fill="#e5e1e6"/><path d="M248.4,121.4c-.9.4-2,.7-3.3.9-1.3.2-2.7.4-4.3.5-1.6.1-3.4.2-5.4.2h-10.7s0-12.5,0-12.5h12.1c1.3,0,2.5,0,3.4.2.9.1,1.8.3,2.4.5.6.2,1.5.8,1.5.8l.5.3v-7.4s-.5.3-.5.3c0,0-.9.6-1.5.8-.7.2-1.5.4-2.4.5-1,.1-2.1.2-3.4.2h-12.1v-10h11.1c.4,0,.8,0,1.1,0,1.5,0,2.9,0,4.1,0,1,0,1.9.2,2.9.4.9.2,1.8.5,2.7.9.8.4,1.6.9,2.4,1.6l1.3,1.1v-7.8h-31.2v.8c.1,1.5.2,3.2.3,4.9,0,1.7,0,3.6.1,5.4,0,1.9,0,3.8,0,5.7s0,3.8,0,5.7c0,1.9,0,3.7-.1,5.4,0,1.7-.1,3.4-.2,4.9v.8s14.4,0,14.4,0c1.3,0,2.5,0,3.8,0,1.3,0,2.6,0,3.9,0h9.3l2-8.3-1.8,1.6c-.6.5-1.3.9-2.2,1.3h0Z" fill="#e5e1e6"/><path d="M296.2,112.9h0c-.5-1-1.1-1.9-1.9-2.6-.8-.7-1.6-1.4-2.6-1.9-1-.5-2-.9-3.2-1.3-1.1-.3-2.3-.6-3.5-.7-1.2-.1-2.4-.2-3.6-.2h-.4c-.2,0-.3,0-.5,0-.1,0-.2,0-.3,0h-.3c-.9,0-1.8,0-2.7-.2-.9-.1-1.7-.3-2.5-.5-.8-.2-1.5-.5-2.2-.8-.6-.3-1.2-.7-1.7-1.1-.4-.4-.8-.9-1.1-1.4-.3-.5-.4-1.1-.4-1.7,0-.4,0-.8.2-1.2.2-.4.4-.8.8-1.2.3-.4.8-.8,1.3-1.1.5-.4,1.2-.7,1.8-1,.7-.3,1.5-.5,2.3-.7.9-.2,1.8-.3,2.8-.3,1.8-.1,3.4,0,5.1.5,1.3.3,2.5.8,3.7,1.5,1.2.7,2.3,1.5,3.5,2.5,1.1,1,2.2,2.3,3.3,3.7l1.4,1.8v-8.2s-.2-.2-.2-.2c-.9-.8-2-1.5-3.1-2.1-1.1-.6-2.4-1.2-3.7-1.6-1.3-.4-2.7-.8-4.1-1-1.9-.3-3.8-.4-5.9-.3-1.5,0-3,.3-4.3.6-1.3.3-2.5.7-3.6,1.2-1.1.5-2,1.1-2.8,1.7-.8.7-1.5,1.4-2.1,2.2-.6.8-1,1.6-1.2,2.4-.3.9-.4,1.7-.4,2.6,0,1,.2,1.9.5,2.6.3.8.7,1.5,1.2,2.2.5.6,1.1,1.2,1.8,1.7.7.5,1.4.9,2.2,1.3.8.4,1.6.7,2.5.9.9.2,1.8.5,2.7.6.9.2,1.8.3,2.8.3,2,.2,3.9,0,5.7.3,1,.1,1.9.3,2.7.5.8.2,1.6.5,2.3.8.7.3,1.2.7,1.7,1.2.5.4.8.9,1.1,1.5.3.6.4,1.2.4,1.9,0,.4,0,.9-.2,1.3-.2.4-.4.9-.8,1.3-.3.4-.8.8-1.3,1.2-.5.4-1.1.7-1.8,1-.7.3-1.5.5-2.3.7-.9.2-1.8.3-2.8.4-1.7,0-3.6,0-5.5-.5-1.5-.3-2.9-.8-4.3-1.5-1.4-.7-2.8-1.5-4-2.5-1.3-1-2.4-2.2-3.5-3.6l-1.4-1.8v8.2s.2.2.2.2c.6.5,1.4,1,2.2,1.5.8.4,1.7.9,2.6,1.2.9.4,1.9.7,2.9,1,1,.3,2,.5,3.1.7,1.1.2,2.1.4,3.2.5,1.1.1,2.2.2,3.3.2s.9,0,1.4,0c1.5,0,3-.3,4.3-.6,1.3-.3,2.5-.8,3.6-1.3,1.1-.5,2-1.1,2.8-1.8.8-.7,1.5-1.4,2.1-2.2.6-.8,1-1.7,1.2-2.5.3-.9.4-1.8.3-2.7,0-1.2-.3-2.4-.8-3.4h0Z" fill="#e5e1e6"/><path d="M341.3,112.9h0c-.5-1-1.1-1.9-1.9-2.6-.8-.7-1.6-1.4-2.6-1.9-1-.5-2-.9-3.2-1.3-1.1-.3-2.3-.6-3.5-.7-1.2-.1-2.4-.2-3.6-.2h-.5c-.2,0-.3,0-.5,0-.1,0-.2,0-.3,0h-.3c-.9,0-1.8,0-2.7-.2-.9-.1-1.7-.3-2.5-.5-.8-.2-1.5-.5-2.2-.8-.6-.3-1.2-.7-1.7-1.1-.4-.4-.8-.9-1.1-1.4-.3-.5-.4-1.1-.4-1.7,0-.4,0-.8.2-1.2.2-.4.4-.8.8-1.2.3-.4.8-.8,1.3-1.1.5-.4,1.2-.7,1.8-1,.7-.3,1.5-.5,2.3-.7.9-.2,1.8-.3,2.8-.3,1.8-.1,3.4,0,5.1.5,1.3.3,2.5.8,3.7,1.5,1.2.7,2.3,1.5,3.5,2.5,1.1,1,2.2,2.3,3.3,3.7l1.4,1.8v-8.2s-.2-.2-.2-.2c-.9-.8-2-1.5-3.1-2.1-1.1-.6-2.4-1.2-3.7-1.6-1.3-.4-2.7-.8-4.1-1-1.9-.3-3.8-.4-5.9-.3-1.5,0-3,.3-4.3.6-1.3.3-2.5.7-3.6,1.2-1.1.5-2,1.1-2.8,1.7-.8.7-1.5,1.4-2.1,2.2-.6.8-1,1.6-1.2,2.4-.3.9-.4,1.7-.4,2.6,0,1,.2,1.9.5,2.7.3.8.7,1.5,1.2,2.2.5.6,1.1,1.2,1.8,1.7.7.5,1.4.9,2.2,1.3.8.4,1.6.7,2.5.9.9.2,1.8.5,2.7.6.9.2,1.8.3,2.8.3,2,.2,3.9,0,5.7.3,1,.1,1.9.3,2.7.5.8.2,1.6.5,2.3.8.7.3,1.2.7,1.7,1.2.5.4.8.9,1.1,1.5.3.6.4,1.2.4,1.9,0,.4,0,.9-.2,1.3-.2.4-.4.9-.8,1.3-.3.4-.8.8-1.3,1.2-.5.4-1.1.7-1.8,1-.7.3-1.5.5-2.3.7-.9.2-1.8.3-2.8.4-1.8,0-3.7,0-5.5-.5-1.5-.3-2.9-.8-4.3-1.5-1.4-.7-2.8-1.5-4-2.5-1.3-1-2.4-2.2-3.5-3.6l-1.4-1.8v8.2s.2.2.2.2c.6.5,1.4,1,2.2,1.5.8.4,1.7.9,2.6,1.2.9.4,1.9.7,2.9,1,1,.3,2,.5,3.1.7,1.1.2,2.1.4,3.2.5,1.1.1,2.2.2,3.3.2s.9,0,1.4,0c1.5,0,3-.3,4.3-.6,1.3-.3,2.5-.8,3.6-1.3,1.1-.5,2-1.1,2.8-1.8.8-.7,1.5-1.4,2.1-2.2.5-.8,1-1.7,1.2-2.5.3-.9.4-1.8.3-2.7,0-1.2-.3-2.4-.8-3.4h0Z" fill="#e5e1e6"/><path d="M386.6,120.2c-.6.5-1.3.9-2.2,1.3-.9.4-2,.7-3.3.9-1.3.2-2.7.4-4.3.5-1.6.1-3.4.2-5.4.2h-10.7s0-12.5,0-12.5h12.1c1.3,0,2.5,0,3.4.2.9.1,1.8.3,2.4.5.6.2,1.5.8,1.5.8l.5.3v-7.4s-.5.3-.5.3c0,0-.9.6-1.5.8-.7.2-1.5.4-2.4.5-1,.1-2.1.2-3.4.2h-12.1v-10h11.1c.4,0,.8,0,1.1,0,1.5,0,2.9,0,4.1,0,1,0,1.9.2,2.9.4.9.2,1.8.5,2.7.9.8.4,1.6.9,2.4,1.6l1.3,1.1v-7.8h-31.2v.8c.1,1.5.2,3.2.3,4.9,0,1.7,0,3.6.1,5.4,0,1.9,0,3.8,0,5.7s0,3.8,0,5.7c0,1.9,0,3.7-.1,5.4,0,1.8-.1,3.4-.2,4.9v.8s14.4,0,14.4,0c1.3,0,2.5,0,3.8,0,1.3,0,2.6,0,3.9,0h9.3l2-8.2-1.8,1.6h0Z" fill="#e5e1e6"/><path d="M428.3,122.7c1.7,1.5,3.4,3.2,5.1,4.8l1.4,1.4-.2-2.9c0-1.5-.2-3.1-.2-4.9,0-1.7,0-3.6-.1-5.4,0-1.9,0-3.8,0-5.7s0-3.8,0-5.7c0-1.9,0-3.7.1-5.4,0-1.8.1-3.4.2-4.9v-.8s-5.1,0-5.1,0v.8c.1,1.2.2,2.5.2,3.8,0,1.4,0,2.7.1,4.2,0,1.4,0,2.9,0,4.4,0,1.5,0,3,0,4.5v5.7c-1.7-1.3-3.5-2.8-5.4-4.3-2.3-1.9-4.7-3.9-7.2-6-2.4-2.1-5-4.3-7.6-6.6-2.6-2.3-5.2-4.7-7.7-7.2l-1.4-1.3.2,2.8c0,1.5.2,3.2.2,4.9,0,1.7,0,3.6.1,5.4,0,1.9,0,3.8,0,5.7s0,3.8,0,5.7c0,1.9,0,3.7-.1,5.4,0,1.7-.1,3.4-.2,4.9v.8s5.1,0,5.1,0v-.8c-.1-1.2-.2-2.5-.2-3.8,0-1.3,0-2.7-.1-4.2,0-1.4,0-2.9,0-4.4,0-1.5,0-3,0-4.5v-5.7c1.2.9,2.4,1.9,3.6,2.8,1.6,1.3,3.2,2.6,4.8,3.9,1.6,1.3,3.2,2.6,4.7,4,1.6,1.3,3.2,2.8,4.8,4.2,1.6,1.4,3.3,2.9,4.9,4.5Z" fill="#e5e1e6"/><path d="M481.9,94.5c-1.1-.7-2.3-1.3-3.6-1.8-1.3-.5-2.7-.8-4.2-1.1-2.7-.4-5.7-.5-8.6,0-1.3.2-2.7.5-4,.8-1.3.4-2.5.8-3.7,1.4-1.2.6-2.3,1.2-3.4,2-1,.7-2,1.6-2.9,2.6-.9,1-1.6,2-2.2,3.2-.6,1.1-1.1,2.4-1.4,3.8-.3,1.3-.5,2.8-.5,4.3s.2,3,.5,4.3c.3,1.3.8,2.6,1.4,3.8.6,1.1,1.4,2.2,2.2,3.2.9.9,1.8,1.8,2.9,2.5,1,.7,2.2,1.4,3.4,2,1.2.6,2.4,1,3.7,1.4,1.3.4,2.6.6,3.9.8,1.3.2,2.7.3,4.1.3s3.1-.1,4.6-.4c1.5-.2,2.9-.6,4.2-1.1,1.3-.5,2.6-1.1,3.6-1.8,1.1-.7,2.1-1.5,2.8-2.5l.2-.2v-8.6l-1.4,2.5c-.5.9-1.1,1.7-1.7,2.5-.7.8-1.4,1.4-2.2,2-.8.6-1.7,1.1-2.6,1.6-.9.5-1.9.9-2.8,1.2-1,.3-2,.5-3,.7-1,.2-2,.2-3.1.2h-.2c-1.3,0-2.5-.2-3.8-.4-1.2-.3-2.4-.7-3.5-1.2-1.1-.5-2.1-1.2-3-2-.9-.8-1.7-1.7-2.4-2.8-.7-1.1-1.2-2.3-1.6-3.6-.4-1.4-.6-2.9-.6-4.5s.2-3.2.6-4.5c.4-1.3.9-2.6,1.6-3.6.7-1.1,1.5-2,2.4-2.8.9-.8,1.9-1.5,3-2,1.1-.5,2.3-.9,3.5-1.2,1.2-.3,2.5-.4,3.7-.4h.2c1,0,2,0,3,.2,1,.2,2,.4,3,.7,1,.3,1.9.7,2.8,1.2.9.5,1.8,1,2.6,1.6.8.6,1.5,1.3,2.2,2,.7.7,1.2,1.6,1.7,2.5l1.4,2.5v-8.6l-.2-.2c-.8-.9-1.7-1.8-2.8-2.5h0Z" fill="#e5e1e6"/><path d="M529.2,120.2c-.6.5-1.3.9-2.2,1.3-.9.4-2,.7-3.3.9-1.3.2-2.7.4-4.3.5-1.6.1-3.4.2-5.4.2h-10.7s0-12.5,0-12.5h12.1c1.3,0,2.5,0,3.4.2.9.1,1.8.3,2.4.5.6.2,1.5.8,1.5.8l.5.3v-7.4s-.5.3-.5.3c0,0-.9.6-1.5.8-.7.2-1.5.4-2.4.5-1,.1-2.1.2-3.4.2h-12.1v-10h11.1c.4,0,.8,0,1.1,0,1.5,0,2.9,0,4.1,0,1,0,1.9.2,2.9.4.9.2,1.8.5,2.7.9.8.4,1.6.9,2.4,1.6l1.3,1.1v-7.8h-31.2v.8c.1,1.6.2,3.2.3,4.9,0,1.7,0,3.6.1,5.4,0,1.9,0,3.8,0,5.7s0,3.8,0,5.7c0,1.9,0,3.7-.1,5.4,0,1.7-.1,3.4-.2,4.9v.8s14.4,0,14.4,0c1.3,0,2.5,0,3.8,0,1.3,0,2.6,0,3.9,0h9.3l2-8.3-1.8,1.6h0Z" fill="#e5e1e6"/><path d="M314.4,151h0c-.4-.6-.9-1-1.4-1.4-.6-.4-1.2-.7-1.9-1-.7-.3-1.4-.5-2.2-.6-1.6-.3-3.4-.3-5,0-.8.1-1.5.3-2.2.6-.7.3-1.3.6-1.9,1-.6.4-1,.9-1.4,1.4s-.7,1.2-.9,1.9c-.2.7-.3,1.4-.3,2.3,0,.8.1,1.6.3,2.3.2.7.5,1.3.9,1.9.4.6.9,1,1.4,1.4.6.4,1.2.7,1.9,1,.7.3,1.4.5,2.2.6.8.1,1.6.2,2.5.2s1.7,0,2.5-.2c.8-.1,1.5-.3,2.2-.6.7-.3,1.3-.6,1.9-1,.6-.4,1-.9,1.4-1.4.4-.6.7-1.2.9-1.9.2-.7.3-1.4.3-2.3,0-.8-.1-1.6-.3-2.3-.2-.7-.5-1.3-.9-1.9ZM312.5,155.1c0,.9-.1,1.7-.4,2.4-.2.6-.6,1.2-1,1.6-.5.4-1.1.7-1.9,1-.8.2-1.8.3-2.9.3s-2.1-.1-2.9-.3c-.8-.2-1.4-.5-1.9-1-.5-.4-.8-.9-1-1.6-.2-.7-.4-1.5-.4-2.4,0-.9.1-1.7.4-2.4.2-.6.6-1.2,1-1.6.5-.4,1.1-.7,1.9-1,.8-.2,1.8-.3,2.9-.3s2.1.1,2.9.3c.8.2,1.4.5,1.9,1,.5.4.8.9,1,1.6.2.7.4,1.5.4,2.4h0Z" fill="#e5e1e6"/><path d="M322.8,149c0,.5,0,1,0,1.5,0,.5,0,1.1,0,1.7,0,.6,0,1.2,0,1.8,0,.6,0,1.2,0,1.8,0,.5,0,1,0,1.5,0,.5,0,1,0,1.5,0,.5,0,.9,0,1.4,0,.4,0,.9,0,1.3v.7s3.3,0,3.3,0v-.7c0-.4,0-.8-.1-1.3,0-.4,0-.9,0-1.4,0-.5,0-1,0-1.5,0-.3,0-.3,0-.3,0,0,0,0,0-.2h4.6c.6,0,1,0,1.4,0,.4,0,.7.1,1,.2.2,0,.5.2.6.3l.5.3v-3.8s-.5.3-.5.3c0,0-.4.2-.6.3-.3,0-.6.1-1,.2-.4,0-.9,0-1.4,0h-4.6v-4.1s4.6,0,4.6,0c.5,0,1,0,1.5,0,.4,0,.8,0,1.1,0,.3,0,.6,0,.8.1.2,0,.4.1.6.2.2,0,.4.2.5.3.2,0,.3.2.5.3l1,.9v-4h-13.8v.7Z" fill="#e5e1e6"/><path d="M368.8,154.4h0c-.3-.3-.8-.6-1.2-.9-.4-.2-.9-.4-1.4-.6-.5-.1-1-.2-1.6-.3-.5,0-1.1,0-1.6,0h-.2c0,0-.2,0-.2,0h-.3c-.4,0-.8,0-1.1,0-.4,0-.7-.1-1-.2-.3,0-.6-.2-.9-.3-.2-.1-.5-.3-.6-.4-.2-.2-.3-.3-.4-.5,0-.2-.1-.4-.1-.6,0-.1,0-.3,0-.4,0-.1.1-.3.3-.4.1-.2.3-.3.5-.4.2-.1.5-.3.7-.4.3-.1.6-.2,1-.3.3,0,.7-.1,1.1-.1.7,0,1.4,0,2.1.2.5.1,1,.3,1.5.6.5.3,1,.6,1.4,1,.5.4.9.9,1.4,1.5l1.1,1.5v-4.6s-.2-.2-.2-.2c-.4-.3-.9-.7-1.4-.9-.5-.3-1-.5-1.6-.7-.6-.2-1.2-.3-1.8-.5-.8-.1-1.7-.2-2.6-.1-.7,0-1.3.1-1.9.3-.6.1-1.1.3-1.6.5-.5.2-.9.5-1.3.8-.4.3-.7.6-.9,1-.3.4-.5.7-.6,1.1-.1.4-.2.8-.2,1.2,0,.4,0,.9.2,1.2.1.4.3.7.6,1,.2.3.5.6.8.8.3.2.6.4,1,.6.4.2.7.3,1.1.4.4.1.8.2,1.2.3.4,0,.8.1,1.2.2.4,0,.8,0,1.2,0,.4,0,.9,0,1.3,0,.4,0,.8.1,1.1.2.3,0,.6.2.9.3.3.1.5.3.7.4.2.2.3.3.4.6,0,.2.1.4.2.7,0,.1,0,.3,0,.4,0,.2-.2.3-.3.5-.1.2-.3.3-.5.5-.2.2-.5.3-.7.4-.3.1-.6.2-.9.3-.3,0-.7.1-1.1.2-.7,0-1.5,0-2.3-.2-.6-.1-1.2-.3-1.8-.6-.6-.3-1.1-.6-1.7-1-.5-.4-1-.9-1.4-1.5l-1.1-1.5v4.6s.2.2.2.2c.3.2.6.5,1,.7.4.2.7.4,1.1.5.4.2.8.3,1.3.4.4.1.9.2,1.4.3.5,0,.9.2,1.4.2.5,0,1,0,1.4,0s.4,0,.6,0c.7,0,1.3-.1,1.9-.3.6-.1,1.1-.3,1.6-.6.5-.2.9-.5,1.3-.8.4-.3.7-.7.9-1,.3-.4.4-.8.6-1.2.1-.4.2-.8.1-1.3,0-.6-.2-1.1-.4-1.6-.2-.5-.5-.9-.9-1.2h0Z" fill="#e5e1e6"/><path d="M380.5,149.8h0c0-.7,0-1.4.1-2.1v-.7c0,0-3.4,0-3.4,0v.7c0,.7,0,1.4.1,2.1,0,.8,0,1.5,0,2.3,0,.8,0,1.6,0,2.4,0,.8,0,1.6,0,2.4,0,.8,0,1.6,0,2.3,0,.7,0,1.4-.1,2.1v.7c0,0,3.4,0,3.4,0v-.7c-.1-.7-.2-1.4-.2-2.1,0-.7,0-1.5,0-2.3,0-.8,0-1.6,0-2.4s0-1.6,0-2.4c0-.8,0-1.6,0-2.3h0Z" fill="#e5e1e6"/><path d="M403,147.6c-.5-.3-1-.6-1.6-.8-.6-.2-1.2-.4-1.9-.5-1.2-.2-2.5-.2-3.8,0-.6,0-1.2.2-1.7.4-.6.2-1.1.4-1.6.6-.5.2-1,.5-1.5.9-.5.3-.9.7-1.3,1.1-.4.4-.7.9-1,1.4-.3.5-.5,1.1-.6,1.7-.2.6-.2,1.3-.2,1.9s0,1.3.2,1.9c.1.6.4,1.2.6,1.7.3.5.6,1,1,1.4.4.4.8.8,1.3,1.1.5.3,1,.6,1.5.9.5.2,1.1.4,1.6.6.6.2,1.1.3,1.7.4.6,0,1.2.1,1.8.1s1.4,0,2-.2c.7-.1,1.3-.3,1.9-.5.6-.2,1.1-.5,1.6-.8.5-.3.9-.7,1.3-1.1v-.2c.1,0,.1-5,.1-5l-1.2,2.1c-.2.4-.4.7-.7,1-.3.3-.6.6-.9.8-.3.3-.7.5-1.1.7-.4.2-.8.4-1.2.5-.4.1-.8.2-1.2.3-.4,0-.8,0-1.3,0h0c-.5,0-1,0-1.5-.2-.5-.1-1-.3-1.4-.5-.4-.2-.9-.5-1.2-.8-.4-.3-.7-.7-1-1.1-.3-.4-.5-.9-.6-1.5-.2-.6-.2-1.2-.2-1.9s0-1.3.2-1.9c.2-.6.4-1,.6-1.5.3-.4.6-.8,1-1.1.4-.3.8-.6,1.2-.8.4-.2.9-.4,1.4-.5.5-.1,1-.2,1.5-.2h0c.4,0,.8,0,1.3,0,.4,0,.8.2,1.2.3.4.1.8.3,1.2.5.4.2.7.4,1.1.7.3.2.6.5.9.8.3.3.5.6.7,1l1.2,2.2v-5.2c-.5-.4-.9-.8-1.4-1.1h0Z" fill="#e5e1e6"/><path d="M414.8,149.8h0c0-.7,0-1.5.1-2.1v-.7c0,0-3.4,0-3.4,0v.7c0,.7,0,1.4.1,2.1,0,.8,0,1.5,0,2.3,0,.8,0,1.6,0,2.4,0,.8,0,1.6,0,2.4,0,.8,0,1.6,0,2.3,0,.7,0,1.4-.1,2.1v.7c0,0,3.4,0,3.4,0v-.7c-.1-.6-.2-1.4-.2-2.1,0-.7,0-1.5,0-2.3,0-.8,0-1.6,0-2.4s0-1.6,0-2.4c0-.8,0-1.6,0-2.3h0Z" fill="#e5e1e6"/><path d="M435.1,159.1c-.4.2-.8.3-1.4.4-.5,0-1.2.2-1.8.2-.7,0-1.5,0-2.3,0h-4s0-6,0-6c0-.6,0-1.1,0-1.7,0-.5,0-1.1,0-1.6s0-1,0-1.5c0-.5,0-1,0-1.4v-.7s-3.3,0-3.3,0v.7c0,.4,0,.9.1,1.4s0,1,0,1.5c0,.5,0,1.1,0,1.6,0,.6,0,1.1,0,1.7,0,.7,0,1.3,0,2,0,.7,0,1.3,0,2s0,1.3,0,1.9c0,.6,0,1.2,0,1.7v.7s13.8,0,13.8,0l1.1-4.8-1.5,1.4c-.2.2-.5.4-.8.5h0Z" fill="#e5e1e6"/><path d="M449.7,147.2c-.3.4-.7.8-1,1.3-.4.5-.7.9-1.1,1.4-.4.5-.8,1-1.2,1.5-.3.3-.5.6-.8.9-.3-.3-.5-.6-.8-.9-.4-.5-.8-1-1.2-1.5-.4-.5-.8-.9-1.2-1.4-.4-.4-.7-.9-1-1.3l-.2-.2h-4.1l1,1.1c.4.5.9,1,1.3,1.5.5.5.9,1.1,1.4,1.6.5.6,1,1.1,1.5,1.7.5.5.9,1,1.4,1.6,0,.6,0,1.1,0,1.7,0,.6,0,1.3,0,1.9,0,.6,0,1.2,0,1.8,0,.6,0,1.1-.1,1.6v.7c0,0,3.4,0,3.4,0v-.7c-.1-.5-.1-1-.2-1.6,0-.6,0-1.2,0-1.8,0-.6,0-1.2,0-1.9,0-.6,0-1.1,0-1.7h0c.5-.6,1-1.2,1.5-1.8.5-.6,1-1.1,1.4-1.7s.9-1.1,1.4-1.6c.5-.5.9-1,1.3-1.5l1-1.1h-3.2l-.2.2h0Z" fill="#e5e1e6"/><path d="M279.1,62.5h-2.9v-1.7h7.8v1.7h-2.9v8.2h-2.1v-8.2Z" fill="#e5e1e6"/><path d="M288,60.8h4.1c.7,0,1.4.1,1.9.4.5.3.9.6,1.2,1.1.3.5.4,1,.4,1.7h0c0,.7-.2,1.2-.5,1.7-.3.5-.8.9-1.3,1.1l2.1,3.9h-2.3l-1.8-3.6h-1.7v3.6h-2.1v-9.9h0ZM291.8,65.5c.5,0,.9-.1,1.2-.4.3-.3.4-.7.4-1.1h0c0-.5-.2-.9-.5-1.1-.3-.3-.7-.4-1.2-.4h-1.8v3.1h1.8Z" fill="#e5e1e6"/><path d="M302.5,60.8h1.8v1.9h-.6l-2.5,8h-2.2l3.4-9.9h0ZM301.5,66.7h4.6l.5,1.5h-5.6l.5-1.5ZM303.8,62.7v-1.9h1.2l3.4,9.9h-2.2l-2.5-8h0Z" fill="#e5e1e6"/><path d="M310.4,60.8h2.3l2.3,7.8h0l2.2-7.8h2.3l-3.3,9.9h-2.5l-3.3-9.9Z" fill="#e5e1e6"/><path d="M323.3,60.8h6.5v1.7h-4.5v2.4h4.2v1.6h-4.2v2.5h4.5v1.7h-6.5v-9.9Z" fill="#e5e1e6"/><path d="M334.2,60.8h2.1v8.2h4.3v1.7h-6.4v-9.9Z" fill="#e5e1e6"/><path d="M346.1,70.5c-.6-.2-1-.6-1.4-1-.3-.4-.5-.9-.6-1.6h0c0-.1,1.9-.1,1.9-.1h0c0,.3.2.6.3.7.2.2.4.3.7.4.3.1.6.2,1,.2s.7,0,1-.2c.3-.1.5-.2.6-.4.1-.2.2-.4.2-.7h0c0-.3-.1-.6-.4-.8-.3-.2-.7-.3-1.3-.5l-1-.2c-1-.2-1.7-.5-2.2-1-.5-.5-.7-1.1-.7-1.8h0c0-.6.2-1.1.5-1.6.3-.4.8-.8,1.3-1s1.2-.4,1.9-.4,1.4.1,2,.4c.6.2,1,.6,1.3,1,.3.4.5.9.5,1.5h0c0,.1-2,.1-2,.1h0c0-.3-.1-.6-.3-.7-.2-.2-.4-.3-.6-.4-.3-.1-.6-.2-.9-.2s-.7,0-.9.2c-.3.1-.5.2-.6.4-.1.2-.2.4-.2.6h0c0,.3.1.6.4.8.3.2.7.3,1.2.5l1,.2c1,.2,1.8.5,2.3,1,.5.4.7,1.1.7,1.8h0c0,.6-.2,1.2-.5,1.7-.3.5-.8.8-1.4,1.1-.6.3-1.3.4-2.1.4s-1.5-.1-2-.3h0Z" fill="#e5e1e6"/><path d="M364.6,60.8h1.8v1.9h-.6l-2.5,8h-2.2l3.4-9.9h0ZM363.5,66.7h4.6l.5,1.5h-5.6l.5-1.5ZM365.8,62.7v-1.9h1.2l3.4,9.9h-2.2l-2.5-8h0Z" fill="#e5e1e6"/><path d="M374.3,60.8h1.8l5.4,7.7-1.7-1.3h.9v-6.4h2.1v9.9h-1.8l-5.4-7.8,1.7,1.3h-.9v6.5h-2.1v-9.9Z" fill="#e5e1e6"/><path d="M387.1,60.8h3.8c1,0,1.8.2,2.5.6.7.4,1.2.9,1.6,1.7.4.7.6,1.6.6,2.7h0c0,1.1-.2,2-.6,2.7-.4.7-.9,1.3-1.6,1.7s-1.5.6-2.5.6h-3.8v-9.9ZM390.6,69c.6,0,1.1-.1,1.6-.4.4-.2.7-.6,1-1.1.2-.5.3-1.1.3-1.8h0c0-.7-.1-1.3-.3-1.8s-.5-.8-1-1.1-.9-.4-1.5-.4h-1.5v6.5h1.5Z" fill="#e5e1e6"/><path d="M405.3,60.8h2.1v9.9h-2.1v-9.9ZM406.3,69.1h2.8c.6,0,1-.1,1.4-.4.3-.2.5-.6.5-1h0c0-.3,0-.6-.2-.8-.1-.2-.4-.4-.6-.5-.3-.1-.6-.2-1.1-.2h-2.7v-1.4h2.5c.6,0,1-.1,1.3-.3.3-.2.5-.6.5-1h0c0-.4-.1-.7-.4-.9s-.6-.3-1.1-.3h-2.7v-1.5h3.3c.6,0,1.2.1,1.6.3s.8.5,1,.9c.2.4.4.8.4,1.3h0c0,.4,0,.7-.2,1-.2.3-.4.6-.7.8-.3.2-.6.3-1,.4h0c.5,0,.9.2,1.2.4.4.2.6.5.8.8.2.3.3.7.3,1.2h0c0,.6-.1,1.1-.4,1.5-.3.4-.7.7-1.2,1-.5.2-1.1.3-1.8.3h-3.3v-1.5h0Z" fill="#e5e1e6"/><path d="M417.1,60.8h6.5v1.7h-4.5v2.4h4.2v1.6h-4.2v2.5h4.5v1.7h-6.5v-9.9Z" fill="#e5e1e6"/><path d="M430.7,67l-3.4-6.2h2.2l2.2,4.2h0l2.2-4.2h2.2l-3.4,6.2v3.7h-2.1v-3.7h0Z" fill="#e5e1e6"/><path d="M441.1,70.2c-.7-.4-1.3-1-1.7-1.8-.4-.8-.6-1.7-.6-2.7h0c0-1.1.2-2,.6-2.7.4-.8.9-1.3,1.7-1.8.7-.4,1.6-.6,2.5-.6s1.8.2,2.5.6,1.3,1,1.6,1.8c.4.8.6,1.7.6,2.7h0c0,1.1-.2,2-.6,2.7s-.9,1.4-1.6,1.8c-.7.4-1.6.6-2.5.6s-1.8-.2-2.5-.6h0ZM445,68.7c.4-.3.7-.7.9-1.2.2-.5.3-1.1.3-1.8h0c0-.7-.1-1.3-.3-1.8-.2-.5-.5-.9-.9-1.2-.4-.3-.9-.4-1.4-.4s-1,.1-1.4.4c-.4.3-.7.7-.9,1.2-.2.5-.3,1.1-.3,1.8h0c0,.7.1,1.3.3,1.8.2.5.5.9.9,1.2.4.3.9.4,1.4.4s1-.1,1.4-.4h0Z" fill="#e5e1e6"/><path d="M452.5,60.8h1.8l5.4,7.7-1.7-1.3h.9v-6.4h2.1v9.9h-1.8l-5.4-7.8,1.7,1.3h-.9v6.5h-2.1v-9.9Z" fill="#e5e1e6"/><path d="M465.3,60.8h3.8c1,0,1.8.2,2.5.6.7.4,1.2.9,1.6,1.7.4.7.6,1.6.6,2.7h0c0,1.1-.2,2-.6,2.7-.4.7-.9,1.3-1.6,1.7s-1.5.6-2.5.6h-3.8v-9.9ZM468.8,69c.6,0,1.1-.1,1.6-.4.4-.2.7-.6,1-1.1.2-.5.3-1.1.3-1.8h0c0-.7-.1-1.3-.3-1.8s-.5-.8-1-1.1c-.4-.2-.9-.4-1.5-.4h-1.5v6.5h1.5Z" fill="#e5e1e6"/></g><rect width="750" height="162.5" fill="none"/></g></svg>