<?xml version="1.0" encoding="UTF-8"?><svg id="uuid-fb2b3a5e-1d11-41e7-98a8-6273ff335137" xmlns="http://www.w3.org/2000/svg" viewBox="0 0 750 162.5"><g id="uuid-d074abe2-a54e-4a04-937a-17e2a65c7790"><path d="M299.3,27.2c61.1-15.3,202.9-39.1,237.8,36.5,8.7,18.8,23.1-2.9,60.2,20.7-26.9,8.2-32,31.1-64.3,49.4-58.8,33.3-151.5,7.2-233.7,14.5v-1.3c34.9-3.5,60.3-3.3,63.6-12,2.3-6.3-16.8-9.5-35.6-9.9v-.7c58.9.5,106.1-4.9,140.2-21.7,24.9-12.2,20-26.5-26.5-45.3-12.5-18.8-32.6-31.3-141.8-28.6v-1.7Z" fill="#e5e1e6"/><path d="M252.5,71.4c-.3-1.9-1.4-3.4-3.3-4.5-1.9-1.1-4.2-1.7-6.9-1.7-5.9,0-9.4,2.1-10.4,6.3h20.6ZM270.2,78.1h-38.8c.1,5.4,4,8,11.5,8s9.1-1.3,11.1-4l13.5,3.6c-3.4,5.4-11.2,8.1-23.6,8.1s-16.3-1.7-21.6-5.1c-5.1-3.2-7.7-7.5-7.7-12.7s2.6-9.5,7.9-13.1c5.3-3.5,12.1-5.3,20.4-5.3s14.9,1.8,19.8,5.3c4.9,3.5,7.4,8.4,7.4,14.5v.5Z" fill="#e5e1e6"/><path d="M313.4,75.9c0-2.5-.9-4.5-2.8-5.9-1.9-1.4-4.5-2.2-7.8-2.2s-5.9.7-7.8,2.2c-1.9,1.4-2.8,3.4-2.8,5.9s.9,4.4,2.8,5.9c1.9,1.4,4.5,2.1,7.8,2.1s5.9-.7,7.8-2.1c1.9-1.4,2.8-3.4,2.8-5.9M331.3,75.8c0,5-2.8,9.3-8.3,12.8-5.5,3.5-12.2,5.3-20.2,5.3s-14.8-1.8-20.2-5.3c-5.4-3.5-8.1-7.8-8.1-12.8s2.7-9.3,8.2-12.8c5.5-3.5,12.2-5.3,20.2-5.3s14.7,1.8,20.2,5.3c5.5,3.5,8.3,7.8,8.3,12.8" fill="#e5e1e6"/><path d="M333.8,89.8l3.7-9.1c5.4,3.1,11.4,4.6,18.2,4.6s6.9-.9,6.9-2.8-1-2.1-2.9-2.6c-2.7-.5-5.3-.9-8-1.4-10.3-1.8-15.4-5.1-15.4-10s1.8-5.8,5.5-7.8c3.6-2,8.7-3,15.2-3s13.3,1,20.3,3.1l-3.7,8.2c-4.8-2.1-9.7-3.2-14.6-3.2s-6.2.8-6.2,2.5,1.1,1.8,3.2,2.3c2.8.5,5.6,1.1,8.5,1.6,5,1,8.6,2.2,10.8,3.8,2.4,1.6,3.6,3.8,3.6,6.4s-2,6.2-5.9,8.3c-4,2.1-9.3,3.2-15.9,3.2s-16.5-1.4-23.2-4.1" fill="#e5e1e6"/><path d="M191.9,75.2c-.1-2.2-1.2-4-2.9-5.3-1.9-1.4-4.5-2.2-7.8-2.2s-5.9.7-7.8,2.2c-1.7,1.3-3.1,3.3-3.3,5.5v17.6c-4.8,0-10.2,0-17.3,0,0-6.1,0-12.3,0-17.3s2.8-9.3,8.3-12.8c5.5-3.5,12.2-5.3,20.2-5.3s14.7,1.8,20.2,5.3c5.5,3.5,8.3,7.8,8.3,12.8v17.3h-17.8s0-17.6,0-17.8" fill="#e5e1e6"/><rect width="750" height="162.5" fill="none"/></g></svg>