<?xml version="1.0" encoding="UTF-8"?><svg id="uuid-6b42a59d-3700-4f59-bca0-9652b8a3c6a6" xmlns="http://www.w3.org/2000/svg" viewBox="0 0 750 162.5"><g id="uuid-833e7512-9bc9-4352-9b63-e7b6aeedc324"><rect width="750" height="162.5" fill="none"/><g id="uuid-f5900b21-6e3c-4578-85a0-7c4dfb75e286"><g id="uuid-d638be98-56a5-443e-be11-c55b896d2ee4"><polygon points="551.6 107.9 550.5 107.9 550.5 116.2 556.1 116.2 556.1 115.2 551.6 115.2 551.6 107.9" fill="#e5e1e6"/><path d="M496,110.8c0-1.8-1.3-2.9-3.4-2.9h-3.2v8.3h1.2v-2.5h2.6l1.7,2.5h1.3l-2-2.8c1.1-.4,1.8-1.4,1.8-2.6M492.5,112.7h-2v-3.7h2c1.5,0,2.3.7,2.3,1.8s-.8,1.9-2.3,1.9" fill="#e5e1e6"/><polygon points="503.3 112.5 507.5 112.5 507.5 111.5 503.3 111.5 503.3 109 508 109 508 107.9 502.1 107.9 502.1 116.2 508.1 116.2 508.1 115.2 503.3 115.2 503.3 112.5" fill="#e5e1e6"/><polygon points="520.2 114.1 515.2 107.9 514.3 107.9 514.3 116.2 515.5 116.2 515.5 110.1 520.4 116.2 521.4 116.2 521.4 107.9 520.2 107.9 520.2 114.1" fill="#e5e1e6"/><polygon points="526.9 109 529.7 109 529.7 116.2 530.9 116.2 530.9 109 533.7 109 533.7 107.9 526.9 107.9 526.9 109" fill="#e5e1e6"/><path d="M540.8,107.9l-3.7,8.3h1.2l.9-2h4.4l.9,2h1.2l-3.7-8.3h-1.2,0ZM539.6,113.2l1.7-4,1.7,4h-3.6,0Z" fill="#e5e1e6"/><polygon points="334.8 112.4 338.9 112.4 338.9 111.4 334.8 111.4 334.8 108.9 339.4 108.9 339.4 107.9 333.6 107.9 333.6 116.1 339.6 116.1 339.6 115.1 334.8 115.1 334.8 112.4" fill="#e5e1e6"/><polygon points="352 107.9 350.7 107.9 348.4 111 346.1 107.9 344.8 107.9 347.6 111.9 344.5 116.1 345.9 116.1 348.3 112.7 350.8 116.1 352.2 116.1 349.1 111.9 352 107.9" fill="#e5e1e6"/><path d="M361.3,108.8c.9,0,1.7.3,2.3,1l.8-.8c-.8-.8-1.9-1.3-3.1-1.3-2.5,0-4.4,1.7-4.4,4.2s1.9,4.2,4.4,4.2,2.4-.5,3.2-1.3l-.8-.8c-.6.7-1.4,1-2.3,1-1.9,0-3.3-1.4-3.3-3.2s1.4-3.2,3.3-3.2" fill="#e5e1e6"/><polygon points="371.4 107.9 370.3 107.9 370.3 116.1 375.9 116.1 375.9 115.1 371.4 115.1 371.4 107.9" fill="#e5e1e6"/><path d="M387.1,112.5c0,1.8-.8,2.7-2.3,2.7s-2.3-.8-2.3-2.7v-4.6h-1.2v4.7c0,2.4,1.3,3.6,3.5,3.6s3.5-1.3,3.5-3.6v-4.7h-1.1v4.6h0Z" fill="#e5e1e6"/><path d="M395.5,110.1c0-.7.6-1.3,2-1.3s1.5.2,2.3.7l.4-.9c-.7-.5-1.7-.8-2.7-.8-2.2,0-3.2,1.1-3.2,2.3,0,3,5,1.8,5,3.8s-.6,1.3-2,1.3-2.1-.4-2.7-1l-.5.9c.7.6,1.9,1.1,3.2,1.1,2.2,0,3.2-1.1,3.2-2.3,0-3-5-1.7-5-3.8" fill="#e5e1e6"/><rect x="406.5" y="107.9" width="1.2" height="8.3" fill="#e5e1e6"/><polygon points="417.3 114.6 414.3 107.9 413 107.9 416.7 116.1 417.8 116.1 421.4 107.9 420.3 107.9 417.3 114.6" fill="#e5e1e6"/><polygon points="427.9 112.4 432.1 112.4 432.1 111.4 427.9 111.4 427.9 108.9 432.6 108.9 432.6 107.9 426.7 107.9 426.7 116.1 432.7 116.1 432.7 115.1 427.9 115.1 427.9 112.4" fill="#e5e1e6"/><path d="M449,108.8c.9,0,1.7.3,2.3,1l.8-.8c-.8-.8-1.9-1.3-3.1-1.3-2.5,0-4.4,1.7-4.4,4.2s1.9,4.2,4.4,4.2,2.4-.5,3.2-1.3l-.8-.8c-.6.7-1.4,1-2.3,1-1.9,0-3.3-1.4-3.3-3.2s1.4-3.2,3.3-3.2" fill="#e5e1e6"/><path d="M460.3,107.9l-3.7,8.3h1.2l.9-2h4.4l.9,2h1.2l-3.7-8.3h-1.2,0ZM459.1,113.1l1.7-4,1.7,4h-3.6,0Z" fill="#e5e1e6"/><path d="M477.4,110.7c0-1.8-1.3-2.9-3.4-2.9h-3.2v8.3h1.2v-2.5h2.6l1.7,2.5h1.3l-2-2.8c1.1-.4,1.8-1.4,1.8-2.6M473.9,112.6h-2v-3.7h2c1.5,0,2.3.7,2.3,1.8s-.8,1.9-2.3,1.9" fill="#e5e1e6"/><path d="M322.6,54.5c-8.8,1-15.5,8.6-15.5,17.5v22.5h6.4v-20.8c0-4.2,1.1-7.6,3.4-9.9,2-2.1,5-3.1,9.5-3.1h2.2v-6.4h-1.3c-1.7,0-3.3,0-4.8.2" fill="#e5e1e6"/><path d="M408.2,54.3c-4,0-7.6.9-10.6,2.6-2.3,1.3-4.1,3-5.5,4.9-1.2-2.1-2.8-3.8-4.9-5.1-2.7-1.7-6.1-2.5-9.9-2.5s-7.2.8-10.1,2.3c-1.6.8-2.9,1.9-4,3.2v-5.2h-6.3v39.9h6.4v-21.2c0-4.1,1.1-7.3,3.6-9.7,2.4-2.4,5.6-3.6,9.8-3.6s6.4,1,8.3,3c2,2,3,4.8,3,8.7v22.8h6.4v-21.2c0-4.1,1.1-7.3,3.6-9.7,2.4-2.4,5.6-3.6,9.8-3.6s6.4,1,8.3,3c2,2,3,4.8,3,8.7v22.8h6.4v-23.1c0-5.5-1.6-9.7-4.7-12.7-3.1-3-7.3-4.5-12.7-4.5" fill="#e5e1e6"/><path d="M473.3,87.4l-4-4.2-.9,1.1c-1.4,1.6-3,2.7-5.1,3.6-2,.8-4.3,1.2-6.8,1.2s-5.7-.6-8-1.7c-2.3-1.1-4.2-2.7-5.5-4.8-1.1-1.7-1.8-3.6-2-5.8h34.3l.2-2.2h0c0-3.9-.9-7.4-2.7-10.5-1.7-3-4.2-5.5-7.3-7.2-3.1-1.7-6.6-2.6-10.5-2.6s-7.3.9-10.5,2.6c-3.1,1.7-5.6,4.2-7.3,7.3-1.7,3.1-2.7,6.6-2.7,10.4s1,7.4,2.9,10.5c1.9,3,4.5,5.5,7.9,7.2,3.3,1.7,7.1,2.6,11.3,2.6s6.3-.5,9-1.7c2.8-1.1,5.2-2.7,7-4.8l.8-.9h0ZM441,71.3c.3-1.9,1-3.6,2-5.2,1.2-1.9,2.9-3.4,4.9-4.5,2-1.1,4.4-1.6,7-1.6s4.9.5,7,1.7c2,1.1,3.7,2.6,5,4.5,1,1.5,1.7,3.3,2,5.2h-28,0Z" fill="#e5e1e6"/><path d="M543.5,84.2c-1.4,1.6-3,2.7-5.1,3.6-2,.8-4.3,1.2-6.8,1.2s-5.7-.6-8-1.7c-2.3-1.1-4.2-2.7-5.5-4.8-1.1-1.7-1.8-3.6-2-5.8h34.3l.2-2.2h0c0-3.9-.9-7.4-2.7-10.5-1.7-3-4.2-5.5-7.3-7.2-3.1-1.7-6.6-2.6-10.5-2.6s-7.3.9-10.5,2.6c-3.1,1.7-5.6,4.2-7.3,7.3-1.7,3.1-2.7,6.6-2.7,10.4s1,7.4,2.9,10.5c1.9,3,4.5,5.5,7.9,7.2,3.3,1.7,7.1,2.6,11.3,2.6s6.3-.5,9-1.7c2.8-1.1,5.2-2.7,7-4.8l.8-.9-4-4.2-.9,1.1h0ZM516.1,71.3c.3-1.9,1-3.6,2-5.2,1.2-1.9,2.9-3.4,4.9-4.5,2-1.1,4.4-1.6,7-1.6s4.9.5,7,1.7c2,1.1,3.7,2.6,5,4.5,1,1.5,1.7,3.3,2,5.2h-28,0Z" fill="#e5e1e6"/><path d="M580.8,54.3c-3.9,0-7.4.8-10.3,2.3-1.7.9-3.1,2-4.3,3.3v-5.4h-6.3v39.9h6.4v-21.2c0-4.1,1.2-7.3,3.7-9.7,2.4-2.3,5.9-3.6,10.2-3.6s6.7,1,8.7,3c2,2,3,4.8,3,8.6v22.8h6.4v-23.1c0-5.5-1.6-9.7-4.8-12.7-3.2-3-7.5-4.4-12.8-4.4" fill="#e5e1e6"/><path d="M631.5,86.4l-1.1.9c-1.4,1.2-3.2,1.7-5.4,1.7s-3.6-.5-4.7-1.5c-1-1-1.5-2.6-1.5-4.6v-22.7h12.8v-5.7h-12.8v-8.2h-6.4v8.2h-7.3v5.7h7.3v23.1c0,3.6,1.1,6.4,3.3,8.4,2.1,2,5.2,3,8.9,3s3.4-.2,4.9-.8c1.6-.5,3-1.3,4.1-2.2l.8-.8-3-4.7h.2Z" fill="#e5e1e6"/><path d="M287.5,56.9h0c-3.2-1.7-6.8-2.6-10.8-2.6s-7.6.8-10.8,2.6c-3.2,1.7-5.8,4.2-7.6,7.2-1.8,3-2.7,6.6-2.7,10.5v38.6h6.4v-23.7c1.2,1.1,2.5,2,3.9,2.7,3.2,1.7,6.8,2.6,10.8,2.6s7.6-.8,10.8-2.6c3.3-1.7,5.8-4.1,7.7-7.2,1.8-3.1,2.7-6.6,2.7-10.5s-.9-7.4-2.7-10.5-4.4-5.5-7.6-7.2M291.4,74.5c0,2.8-.7,5.3-2,7.5-1.3,2.2-3.1,3.9-5.3,5.1-2.2,1.2-4.7,1.8-7.4,1.8s-5.3-.7-7.5-1.8c-2.3-1.2-4-3-5.3-5.1-1.3-2.2-2-4.7-2-7.5s.7-5.3,2-7.5c1.3-2.2,3.1-3.9,5.3-5.1,2.2-1.2,4.7-1.8,7.4-1.8s5.3.7,7.5,1.8c2.3,1.2,4,3,5.3,5.1,1.3,2.2,2,4.7,2,7.5" fill="#e5e1e6"/><rect x="336.8" y="54.5" width="6.4" height="39.9" fill="#e5e1e6"/><path d="M506.3,60.7v-6.4h-1.3c-1.7,0-3.3,0-4.8.2-8.8,1-15.5,8.6-15.5,17.5v22.5h6.4v-20.8c0-4.2,1.1-7.6,3.4-9.9,2-2.1,5-3.1,9.5-3.1h2.2Z" fill="#e5e1e6"/><path d="M194.1,122v18.7h8.5v-18.7c0-6.1,5.3-11.1,11.7-11.1h7.6v-7.5h-7.6c-11.1,0-20.2,8.3-20.2,18.5h0Z" fill="#e5e1e6"/><path d="M202,81.6l1.4-3.6c4.5-11.3,3.8-21.9-2-32.5-7-12.7-20.3-21.7-34.5-23.3-13.9-1.6-27.5,2.5-37.4,11.4-8.9,8-13.9,18.6-13.9,30.1v53.3h8.6v-51.8c0-17.2,12.3-32,29.3-35.2,12.3-2.3,24.4.9,33.3,8.9,7.9,7,12,17,11.2,27.2-.6,8.3-5.5,16.4-13.5,22.7-14.2,11.1-25.5,9.9-33.7,7.6-3.6-1-6.9-2.4-9.8-4.2v24.9h8.3v-13.3l2.7.5c3.3.7,6.1,1.1,9.1,1.1s5.5-.2,8.5-.8l3.9-.7-1.4,3.6c-2,4.8-3,9.7-3,14.3v18.7h8.5v-18.7c0-18.9,16.6-34.3,37-34.3h7.6v-7.5h-7.6c-2.7,0-5.5.2-8.5.8l-3.9.7v.2h0Z" fill="#e5e1e6"/><path d="M152.3,80.3c2.9,1.3,5.8,2,8.9,2,11.1,0,20.2-8.3,20.2-18.5s-2.4-10.2-6.7-13.7c-3.8-3.1-8.6-4.8-13.6-4.8s-2.9.2-4.3.4c-7.5,1.4-13.7,7-15.4,13.9-2.1,8.6,2.3,17,10.8,20.8h0ZM161,52.6c6.4,0,11.7,4.9,11.7,11.1s-5.3,11.1-11.7,11.1-11.7-4.9-11.7-11.1,5.3-11.1,11.7-11.1Z" fill="#e5e1e6"/></g></g></g></svg>