<?xml version="1.0" encoding="UTF-8"?><svg id="uuid-cf89f1f6-d88f-464c-8b20-aca33c8f8cbf" xmlns="http://www.w3.org/2000/svg" viewBox="0 0 750 162.2"><g id="uuid-47e1ad27-8684-46d8-bac5-deae7b441787"><path id="uuid-b263541e-4eff-43f0-95a9-594b8e585e48" d="M421.8,38.3l-20.9,28.1,11.1,7.1v32.2l-26.7,18.8c.2.4-4.6-6.1-14.2-6.1s-10.5,2-12.3,4.4l-1,1.4-1.4-.8,22.6-30.5-13-8.3v-23.2l30.1-23.3c.2.2,5.1,5.1,12.2,5.1s9.9-3.4,10.7-4.5l1.2-1.4,1.4,1h0ZM395.3,111.7s0-26.7,0-26.7l-5.6-3.7-24.7,33.6c4.9-4.2,11.3-6.9,18-6.9s8.5,1.2,12.3,3.6h0ZM411.9,48.6c-4,3.7-9.1,5.7-14.8,5.7s-9.1-1.2-14.1-4.1v22.9l7.3,4.6,21.6-29.1ZM667.1,37.9l8.7,11.5,12.9-11.9c5,8.1,13.6,7.7,20.8,1-.8,4-6.9,16.6-19.6,16.6s-10.7-1.2-12.6-2.2v51.4l7.3,7.7,3.9-3.6,1.2,1.2-16,14.8-12.2-12.8-3.8,3.4-1.2-1.2,4-3.6v-51.8l-7.5-10.9,14-9.5h0ZM486.9,115l-1.2-1.2,4-3.6v-51.2l29.9-20.8,12.5,13.1,5.5-5,1.2,1.2-5.4,5.1v52.2c0,11.1,10.3,11.5,10.3,21s-8.5,11.8-13.8,11.8-8.7-.6-10.3-.6c-3.5,0-5.3,1-5.3,5.4v1.6c-.8,0-5.9-1.6-11.9-1.6s-7.7.6-11.3,2.2v-1.4c0-3.8,1-15.8,14-15.8s14.2,8.3,24,8.3,7.7-3,7.7-7.9c0-8.9-17.2-9.3-19.4-17.2-4.2,3.2-8.9,7.5-14.6,13.8l-12.1-12.8-3.8,3.4h0ZM506.3,104l7.1,7.3,3.4-2.8v-49.8l-9.5-9.9-1,.8v54.4ZM743.3,51.3l5.5-5,1.2,1.2-5.4,5v49.6c-8.7,3.4-16.8,6.9-30.5,22.2l-12.2-12.8-3.8,3.4-1.2-1.2,4.1-3.6v-51.2c8.7-3.4,16.4-6.6,27.3-20.8l15.2,13.1h0ZM727.7,59.3l-9.5-7.7-.6.4v52.2l6.9,7.1,3.2-2.6v-49.4h0ZM587.8,137.4c-4,0-8.7-.6-10.3-.6-3.4,0-5.3,1-5.3,5.4v1.6c-.8,0-5.9-1.6-11.9-1.6s-7.7.6-11.3,2.2v-1.4c0-3.8,1-15.8,13.9-15.8s14.2,8.3,24.1,8.3,7.7-3,7.7-7.9c0-8.9-17.2-9.3-19.4-17.2-4.2,3.2-8.9,7.5-14.6,13.8l-12.2-12.8-3.8,3.4-1.2-1.2,4-3.6v-51.2l30-20.8,12.5,13.1,5.5-5,1.2,1.2-5.4,5v52.2c0,11.1,10.3,11.5,10.3,21s-8.5,11.7-13.8,11.7h0ZM574.7,58.7l-9.5-9.9-1,.8v54.4l7.1,7.3,3.4-2.8v-49.8h0ZM602.6,113.8l4-4.1v-50.7l30.3-20.8,15.2,22.8-28.7,23.3v20l7.3,7.7,10.5-9.7,1.2,1.2-22.6,20.8-12.3-13-3.7,3.7-1.2-1.2h0ZM623.4,82l14.6-11.8-14-21.2-.6.4v32.5h0ZM315.9,118.4c-7.3,0-10.5,2-12.3,4.5l-1,1.4-1.4-.8,22.6-30.5-12.9-8.3v-23.2l30.1-23.3c.2.2,5,5.1,12.1,5.1s9.9-3.4,10.7-4.5l1.2-1.4,1.4,1-20.8,28.1,11.1,7.1v32.2l-26.7,18.8c.2.4-4.6-6.1-14.2-6.1h0ZM327.6,73.1l7.3,4.7,21.6-29.1c-4.1,3.7-9.1,5.7-14.8,5.7s-9.1-1.2-14.2-4v22.8h0ZM327.6,108.1c4.2,0,8.5,1.2,12.3,3.6v-26.7l-5.7-3.7-24.7,33.6c4.9-4.2,11.3-6.9,18-6.9h0ZM296.5,102.2l1.2,1.2-22.6,20.8-12.3-13-3.7,3.7-1.2-1.2,4-4v-50.8l30.4-20.8,15.2,22.8-28.7,23.3v20l7.3,7.7,10.5-9.7h0ZM278.6,82l14.6-11.8-13.9-21.2-.6.4v32.5h0ZM241.2,124.2l-12.1-12.7-3.8,3.4-1.2-1.2,4-3.6V33.2l-6.7-8.3v87.9l-11.1,11.3-12.1-12.7-3.8,3.4-1.2-1.2,4.1-3.6v-32.7h-6.3v23.7c0,20.4-11.7,24.1-22.1,24.1s-11.5-1.2-13.9-1.2c-4.9,0-7.9,2.2-7.9,5.7s.6,3.2,1.8,5c0,0-14,0-14-13.8s5.3-14.3,16.2-14.3,16.6,8.5,28.9,8.5,9.1-3.7,9.1-12.6V24.1l-6.1,5.5v57.2c0,12.9-9.5,16.4-16,16.4s-1.6,0-2.4-.2c0,0,2.4-2,2.4-12.8v-12.9h-7.5c-7.1,0-8.9,3.6-9.1,4.4-.2-1.4-.6-3.4-.6-5.7,0-6.5,2.4-14.6,15.8-14.6h1.4v-20l32.8-29.5,13.1,15,17.2-15,13.1,15,3.7-3.5,1.2,1.2-4.1,3.8v75.6l7.3,7.7,3.7-3.4,1.2,1.2-15,14.5h0ZM197.1,32.4l-6.3-7.7v36.8h6.3v-29.1ZM219.6,77.3h-6.5v26.9l6.5,6.9v-33.8ZM219.6,23.5l-6.5,5.7v32.4h6.5V23.5ZM421.2,100c0-14,8.5-21.9,22.5-21.9s8.1.6,10.3,1l-24.5-24.5c-1.8-1.8-3.3-4-3.3-6.8,0-5,3.7-9.1,8.7-9.1s8.7,4,8.7,9.1-1.2,5-3,6.6c4.6-1,14.4-4.8,20-16.2l11.1,12.4,5.3-4.9,1.2,1.2-5.5,5v53l6.5,6.9,3.3-3,1.2,1.4-15.4,13.9-11.7-12.3-21,13.2c0,0-14.4-11.2-14.4-25.1h0ZM455.9,78.5v-30.6c-2.4,2.6-11.7,9.9-22.1,8.5l22.1,22.1ZM439.8,95.9c0,10.9,9.7,17.8,9.7,17.8l6.5-4v-27.7c-1,0-2-.2-3.2-.2-3.4,0-12.9,1-13,14.2h0ZM145.2,35.6c0,1.4.4,3,1.2,5-6.1-1.2-9.5-7.3-9.5-13.1s4.9-14.6,15-14.6,12.6,3.8,21.7,3.8,7.5-1.6,10.7-5.7c.4,1.4.6,2.9.6,4.2,0,8.7-8.1,15.6-17,15.6s-10.3-1-15.2-1-7.5,1.8-7.5,5.7h0ZM79.3,15c1.2,0,2.4,0,3.2.2-.4.2-7.7,4.1-7.7,15.6v82.3c0,9.9-10.3,18.6-23.8,18.6s-23.5-6.7-32.8-6.7-7.7,1.8-7.7,5.3.4,2.6,1.6,4.2c0,0-12.1-3.8-12.1-16s2-13.4,13.1-13.4,21.2,23.9,37,23.9,7.9-3,7.9-14.6V37.5c0-18.8,13.8-22.5,21.3-22.5h0ZM115.5,108.5l1.2,1.2-15.8,14.6-12.1-12.8-3.8,3.4-1.2-1.2,4.1-3.6V42.5c0-7.3-1.6-9.5-1.6-9.5,0,0,3-.2,5,2.2,6.1-12.6,17-13,17-13,0,0-3.7,4.2-3.7,15.2v66.7l7.3,7.7,3.7-3.4h0ZM58.4,12.6c0,16.2-11.9,19.6-18.2,19.6s-12.3-3.4-16.8-3.4-5.8,2.4-5.8,4.5.6,2.8,1.4,4.2c0,0-11.3-1.6-11.3-12.3s2.2-13.2,16.2-13.2,16.8,6.1,23.3,6.1c3.8,0,7.3-1,11.3-5.5h0ZM34,94.9v-17.6h-4.8c-7.9,0-9.1,4.4-9.1,4.4-1-5.4-2.6-19.6,13.9-20.2v-5.9c0-19.8,15.2-22.6,20.6-21.6-.2.2-4.2,3-4.2,15v42.5c0,14.7-13,17.2-18.8,16.2,0,0,2.4-2,2.4-12.7h0Z" fill="#e5e1e6" fill-rule="evenodd"/><rect width="750" height="162.2" fill="none"/></g></svg>