<?xml version="1.0" encoding="UTF-8"?><svg id="uuid-30cddec3-6708-4f73-bf56-18554ae7322f" xmlns="http://www.w3.org/2000/svg" viewBox="0 0 750 162.2"><g id="uuid-80e1190a-23cf-45ca-84c1-b3b0d20426d2"><g id="uuid-8ac8ec99-8c4f-445a-b0f3-d0e0dd9c265d"><path id="uuid-2e7e8c94-cee2-49c2-bcd0-a679a2274080" d="M311.3,162.2v-24.3h2.3v24.3h-2.3Z" fill="#e5e1e6"/><path id="uuid-b7651791-2fc2-4db4-8d7d-e3ac8881ad1f" d="M327.3,137.9h17.3v1.9h-7.5v22.3h-2.3v-22.3h-7.5v-1.9Z" fill="#e5e1e6"/><path id="uuid-68fccd14-eaa7-4a39-a202-dcc60abe88a9" d="M352.5,162.2l9.3-24.3h2.5l9.1,24.3h-2.3l-2.7-7.6h-10.8l-2.8,7.6h-2.3ZM358.4,152.6h9.3l-4.6-12.8-4.6,12.8h0Z" fill="#e5e1e6"/><path id="uuid-9d9c5f05-6e16-477e-b993-570c48be8f5f" d="M386.8,162.2v-24.3h2.3v22.3h12.7v1.9h-15Z" fill="#e5e1e6"/><path id="uuid-0360d298-c4a6-42c7-8443-bff26bf38b28" d="M415.9,162.2v-24.3h2.3v24.3h-2.3Z" fill="#e5e1e6"/><path id="uuid-46738ca5-2c48-49f7-bce0-0d3d34f269d7" d="M431.9,162.2l9.3-24.3h2.5l9.1,24.3h-2.3l-2.7-7.6h-10.8l-2.8,7.6h-2.3ZM437.8,152.6h9.3l-4.6-12.8-4.6,12.8h0Z" fill="#e5e1e6"/></g><path id="uuid-b15fc3ba-970e-4dda-9825-52fc15609384" d="M428.6,34.9c-7.8,0-14,2.1-20.5,5.2,0-18.3.3-34.2.7-40.2l-37.7,7.2v3.4l3.7.5c5.3.7,7.3,3.8,7.9,10.8,1.2,13.4,1,85.2,0,96.7,10.2,2.3,21.2,4,32.2,4,30,0,48-18.4,48-47.5s-14.6-40.1-34.2-40.1h0ZM415.4,116.6c-2.1,0-4.9-.3-6.4-.6-.6-8.1-1-41.3-.9-70.3,3.5-1.2,5.8-1.4,8.8-1.4,12.4,0,19.4,14.2,19.4,32.2,0,22.9-8.6,40.2-20.8,40.2ZM229.2,35.8l-5.9,1.6c-5.1-17-13.3-26.7-28.6-26.7h-19.6c-.9,10.9-1.3,29-1.2,47.8l13.2-.4c8.8-.3,12.4-6.7,14.6-16.3h4.9v39.9h-4.9c-2.1-9.6-5.8-16-14.6-16.3l-13.1-.4c.1,14.3.5,26.5,1.1,33.7.9,10.6,3.8,15.3,11.4,16.4l6.7.7v4.7h-63.8v-4.7l5.3-.7c7.6-1.1,10.5-5.7,11.4-16.4,1.5-17.5,1.7-53.9,0-74.2-.9-10.6-3.8-15.3-11.4-16.4l-5.3-.7V2.6h99.3l.5,33.2h0ZM260.9,34c28.2,0,42.2,19,42.2,44.1s-15.8,44.5-44,44.5-42.2-19-42.2-44.1,15.8-44.5,44-44.5ZM259.5,39.4c-12.5,0-16,16.8-16,38.9s5.5,38.9,17.1,38.9,16-16.8,16-38.9-5.5-38.9-17.1-38.9ZM469.7,79c0-23.2,14.7-45,43.8-45s34.9,17.4,35.1,40.2h-52.8c-.6,20.7,10,35.9,30.1,35.9s13.7-2.2,19-6.3l2.5,3c-5.8,8.1-18.1,15.7-34.3,15.7-25.4,0-43.4-17.9-43.4-43.5ZM496,68.4l26.5-.6c.1-11.6-1.7-28.3-11.3-28.3s-15,15.7-15.2,28.8h0ZM616.4,60.1l-4.3,1.1c-4.6-14.8-11.6-21.1-21.8-21.1s-11.7,5.1-11.7,12.5,5.5,11.2,21.5,17.3c14.7,5.7,20.6,12.2,20.6,24.1,0,17.7-13.7,28.6-36.1,28.6s-22.8-2.4-29.8-5.2l-.8-24.5,4.3-1.1c6.2,17.1,14.2,23.4,24.9,23.4s14.1-6.4,14.1-13.2-3.8-10.6-18.2-15.7c-13.4-4.7-23-10.6-23-25.4s12.9-26.8,34.1-26.8,19.2,1.7,25.5,4.6l1,21.5h0ZM367.5,59.4c-11.4-7.6-23.7-4.3-26.3-.1-.9,13.7-.7,34.8.3,45.3.6,7,2.6,10,7.9,10.8l6.8.5v4.7h-52.4v-4.7l3.7-.5c5.3-.7,7.3-3.8,7.9-10.8,1-11.5,1.2-35.4,0-48.8-.6-7-2.6-10.1-7.9-10.8l-3.7-.5v-3.4l37.6-7.2-.4,19.5c8.8-20.1,26.1-22.8,35.7-17.1l-9.2,23h0Z" fill="#e5e1e6"/><rect width="750" height="162.2" fill="none"/></g></svg>