<?xml version="1.0" encoding="UTF-8"?><svg id="uuid-b1c5d782-b5b6-41a6-a4f4-20e3808b39ee" xmlns="http://www.w3.org/2000/svg" viewBox="0 0 750 162.2"><g id="uuid-03e6b7c4-d154-43f7-b7a4-20a931867b8e"><path d="M94.4,4.6c5.4.6,12.3-.8,17.5,0s1.2.3,1.6.8c.5.7-.2,1.2-.2,1.4v45.6l.6.6h80.2l.2-47.6c0-.2.7-.8.8-.8h17.7l.6.6v32.6c0,.2.6.9,1,.2s.2-1.3.5-1.9c14.5-30.9,48.8-43.9,80.6-31.6h238.7c.9.3,1,.9,1.1,1.7.5,3.4.4,14.3,0,17.7-.1,1.3-.6,1.5-1.8,1.7-53.3.4-106.7-.5-160,0-.7,0-3.3-.7-3.3.6v95.6l-.6.6h-17.3c0,0-1-.9-1-1V26.4l-.6-.6h-28.2c.5,2.5,2.5,4.8,3.7,7.1,24.2,47.6-17.1,100.9-69.2,89.1-18.6-4.2-36-18.5-42.7-36.5-.3-.7-1,0-1,.2v35.8c0,0-.6.7-.8.8-.9.4-14.1.4-16,.2s-2.5-.2-2.5-1.4v-46.4l-.6-.6h-79.8l-.3,47.5-.4.5-18.7.4V4.6ZM269.7,20.1c-40.9,2.1-55.2,55.6-20.4,77.1,28.7,17.7,64.6-3.7,63.8-37-.5-22.5-20.9-41.3-43.4-40.2Z" fill="#e5e1e6"/><path d="M447.5,36.8l.4,16.1h86.5c.5,0,.9,1.2,1,1.8.4,3.3.4,14.4,0,17.7s0,.7-.2,1c-.1.2-1.1.8-1.2.8h-86.1v26.9l.6.6h85.9c.5,0,.9,1.2,1,1.8.4,3.1.4,14.2,0,17.3s-.3,1.5-1.4,1.7l-104.2-.2c-.2,0-.8-.7-.8-.8V37.4l.6-.6h17.9Z" fill="#e5e1e6"/><path d="M568.1,5v96.2l.6.6h86.9v20.8h-105.4c-.1,0-.6-.5-1-.4V5.2l.6-.6h17.3c.1,0,.6.5,1,.4Z" fill="#e5e1e6"/><path d="M326.5,141.1c.7.1.8-.1,1.1-.7,1.4-2.8,1.7-7,3.1-9.9,1.3-2,5.9-1.9,6,1.1l2.3,17.8c-1,.6-3.5.7-4.1-.2s-1.1-11.2-1.8-11.2-.7.5-1,1c-.7,1.7-2.5,10-3.5,10.6s-3,.3-3.7-.6-3-10.6-3.6-10.6c-2.2,2-1,8.9-2.1,10.7s-3,.7-3.9.6c-.7-.4-.1-3.9,0-4.8.5-4.1,1.1-9.8,2-13.7s.3-1.4.7-1.7l5,.2,3.7,11.4Z" fill="#e5e1e6"/><path d="M551.9,140.3v-10.6c1.4-.3,3.2-1,4.3.2v19.3c-.6.9-3.6.8-4.3.4-1.5-.9-5.6-9-7.3-10.8l-1.4-.4v10.8l-.7.5c-.5.1-1,0-1.5,0-.8,0-1.7.1-2.2-.6v-19.3c.9-.9,3.5-.8,4.6-.2,2.4,2.3,4.8,8.3,7.1,10.2s.7.5,1.4.4Z" fill="#e5e1e6"/><path d="M213.8,129c8.6-.3,13.3,8.1,9.7,15.6-3.5,7.3-15.3,7.1-18.7-.2-3.1-7,1-15.1,8.9-15.4ZM213.8,133.3c-8.6.7-5.4,16.2,3.1,11.8s3.4-12.3-3.1-11.8Z" fill="#e5e1e6"/><path d="M96.4,130.7c0-.2.6-1.1.8-1.2,6.4-1.2,15.9.8,16.4,8.7.5,6.5-3.6,10.9-9.9,11.6-1.2.1-7.3.4-7.3-1v-18.1ZM101.1,145c10.2,2.3,10.3-13.2,0-11v11Z" fill="#e5e1e6"/><path d="M443.7,149.2c-1-1-.6-4.4-3-4.7s-4.6-.1-5.5.5c-1.4.9-1.1,3.9-2.3,4.4s-3.9.6-4.2-.4c-.4-1.5,6.3-15.7,6.6-18.5,1-1.9,5.2-1.9,6.3.1,1.9,3.3,4.6,11.5,5.9,15.4s1.9,4-2.1,3.6-1.3-.1-1.7-.5ZM437.7,136c.3,1.5-2.6,4.7-.2,5.1s3-.3,2.9-1.3-1.5-4.8-2.7-3.8Z" fill="#e5e1e6"/><path d="M648.9,149.7c-1-.6-.2-16.6-.4-19,.2-1.9,3.9-1.9,4.7-.8,1.3,1.9-.1,15.3.4,18.4-.4,2-3.1,1.3-4.7,1.3Z" fill="#e5e1e6"/><rect y="0" width="750" height="162.2" fill="none"/></g></svg>