<?xml version="1.0" encoding="UTF-8"?>
<svg id="uuid-5871eb84-4c74-46f6-aa02-137e64d7103e" xmlns="http://www.w3.org/2000/svg" version="1.1" viewBox="0 0 244.3 170.1">
  <!-- Generator: Adobe Illustrator 30.5.0, SVG Export Plug-In . SVG Version: 2.1.4 Build 167)  -->
  <defs>
    <style>
      .st0 {
        fill: #e5e1e6;
      }
    </style>
  </defs>
  <path class="st0" d="M11.5,161.1c0,4.8-1.8,8.4-7,8.4H0v-16.8h4.5c5.2,0,7,3.6,7,8.4M2.6,155.2v11.9h1.9c3.3,0,4.4-2.1,4.4-5.9s-1-5.9-4.4-5.9h-1.9Z"/>
  <path class="st0" d="M17.2,161.1c0-5.2,2-8.7,6.3-8.7s6.3,3.5,6.3,8.7-2,8.7-6.3,8.7-6.3-3.5-6.3-8.7M27.2,161.1c0-3.9-1-6.2-3.7-6.2s-3.7,2.3-3.7,6.2,1.2,6.2,3.7,6.2,3.7-2.3,3.7-6.2"/>
  <polygon class="st0" points="38.9 167 45.5 167 45.5 169.5 36.3 169.5 36.3 152.7 38.9 152.7 38.9 167"/>
  <path class="st0" d="M50.1,161.1c0-5.2,2-8.7,6.3-8.7s6.3,3.5,6.3,8.7-2,8.7-6.3,8.7-6.3-3.5-6.3-8.7M60,161.1c0-3.9-1-6.2-3.7-6.2s-3.7,2.3-3.7,6.2,1.2,6.2,3.7,6.2,3.7-2.3,3.7-6.2"/>
  <path class="st0" d="M69.2,152.7h2.5l4.4,8.8,4.4-8.8h2.5v16.8h-2.6v-7.1c0-1.8,0-3.5.3-5.2l-4.1,8.2h-1.2l-4.1-8.2c.2,1.8.2,3.5.2,5.2v7.1h-2.6v-16.8h.2Z"/>
  <rect class="st0" x="90.3" y="152.7" width="2.6" height="16.8"/>
  <polygon class="st0" points="103.1 155.2 98.8 155.2 98.8 152.7 109.9 152.7 109.9 155.2 105.7 155.2 105.7 169.5 103.1 169.5 103.1 155.2"/>
  <polygon class="st0" points="115.8 152.7 124.9 152.7 124.9 155.2 118.4 155.2 118.4 159.9 124.2 159.9 124.2 162.3 118.4 162.3 118.4 167 125.1 167 125.1 169.5 115.8 169.5 115.8 152.7"/>
  <path class="st0" d="M131,168.7v-2.5c1.4.8,2.9,1.3,4.5,1.3s2.9-.7,2.9-2.2c0-3.6-7.9-2.5-7.9-8s2.6-4.7,5.4-4.7,2.8.3,4.2,1.2v2.5c-1.4-.7-2.5-1.2-4-1.2s-2.8.6-2.8,2.2c0,3.1,8,2.5,8,8s-2.5,4.8-5.5,4.8-3.4-.3-4.8-1.2"/>
  <rect class="st0" x="178.1" y="152.7" width="2.6" height="16.8"/>
  <polygon class="st0" points="190.8 155.2 186.6 155.2 186.6 152.7 197.8 152.7 197.8 155.2 193.6 155.2 193.6 169.5 190.8 169.5 190.8 155.2"/>
  <path class="st0" d="M206.1,152.7h2.7l5.4,16.8h-2.7l-1-3.7h-5.9l-1.2,3.7h-2.7l5.4-16.8h.1ZM209.8,163.6l-1.5-4.9c-.3-.9-.6-2-.8-3-.2,1-.5,2.1-.8,3l-1.5,4.9h4.6Z"/>
  <polygon class="st0" points="222.5 167 229.1 167 229.1 169.5 220 169.5 220 152.7 222.5 152.7 222.5 167"/>
  <polygon class="st0" points="236.6 162.5 231.3 152.7 234.3 152.7 237.8 160 241.5 152.7 244.3 152.7 239.2 162.5 239.2 169.5 236.6 169.5 236.6 162.5"/>
  <path class="st0" d="M159.7,161.3c0,.7-.6,1.4-1.4,1.4s-1.4-.6-1.4-1.4.6-1.4,1.4-1.4,1.4.6,1.4,1.4"/>
  <polygon class="st0" points="127.3 66.4 127.3 50.9 104.6 50.9 104.6 .1 88.2 .1 88.2 66.4 127.3 66.4"/>
  <polygon class="st0" points="136.3 15.6 136.3 66.4 152.5 66.4 152.5 15.6 167.7 15.6 167.7 .1 121.2 .1 121.2 15.6 136.3 15.6"/>
  <path class="st0" d="M48.8,116.6c0-9-5.2-14.2-9.7-16.3,3.5-2.1,7.3-6.3,7.3-14.3s-7.7-17-19.2-17H0v66.3h26.6c10.8,0,22.1-5.2,22.1-18.8M16.4,82.6h7.4c4.1,0,6.5,2,6.5,6.4s-2.4,6.3-6.2,6.3h-7.9v-12.8h.1ZM16.4,121.6v-13.6h8.4c3.7,0,7.3,1.6,7.3,6.8s-3.7,6.8-7.6,6.8h-8.2Z"/>
  <polygon class="st0" points="163.3 66.4 179.5 66.4 192.7 24.8 206.9 69.2 185.9 135.3 202.1 135.3 215 94.6 227.9 135.3 243.9 135.3 223 69.2 223 69.2 223 69.2 201 .1 184.4 .1 163.3 66.4"/>
  <polygon class="st0" points="76 94.6 88.9 135.3 105 135.3 84 69.2 84 69.2 84 69.2 62.1 .1 45.5 .1 24.4 66.4 40.6 66.4 53.8 24.8 67.9 69.2 47 135.3 63 135.3 76 94.6"/>
  <path class="st0" d="M130.8,69h-21.7v66.3h21.7c20.8,0,28.2-14.6,28.2-33.2s-7.4-33.2-28.2-33.2M130.8,119.8h-5.4v-35.2h5.4c8,0,11.9,4.8,11.9,17.6s-3.9,17.6-11.9,17.6"/>
  <rect class="st0" x="163" y="69" width="16.4" height="66.3"/>
  <path class="st0" d="M217,2.2h2.1c1.2,0,2.1.6,2.1,2s-.4,1.6-1.3,1.9l1.5,2.6h-1.2l-1.4-2.4h-.9v2.4h-1V2.2h.1ZM219,5.4c.6,0,1-.3,1-1s-.5-1-1-1h-1.2v2.2h1.2Z"/>
  <path class="st0" d="M218.7,10.7c-2.9,0-5.4-2.4-5.4-5.4s2.4-5.4,5.4-5.4,5.4,2.4,5.4,5.4-2.4,5.4-5.4,5.4M218.7.8c-2.5,0-4.5,2-4.5,4.5s2,4.5,4.5,4.5,4.5-2,4.5-4.5-2-4.5-4.5-4.5"/>
</svg>