<?xml version="1.0" encoding="UTF-8"?>
<svg id="uuid-3d2c53d8-586a-45e5-a6de-63260553604a" xmlns="http://www.w3.org/2000/svg" version="1.1" viewBox="0 0 404.8 418.6">
  <!-- Generator: Adobe Illustrator 30.5.0, SVG Export Plug-In . SVG Version: 2.1.4 Build 167)  -->
  <defs>
    <style>
      .st0 {
        fill: #e5e1e6;
      }
    </style>
  </defs>
  <path class="st0" d="M390.1,418.5c.3,0,.6-.2.7-.2v-2.1h-.6c-.7,0-1,.5-1,1.2s.4,1.2.9,1.2"/>
  <polygon class="st0" points="390.9 399.8 390.9 393.9 390.3 393.9 390.3 398.4 386.3 393.9 386.2 393.9 386.2 399.8 386.8 399.8 386.8 395.3 390.7 399.8 390.9 399.8"/>
  <polygon class="st0" points="392.3 393.9 392.3 399.8 395.7 399.8 395.7 399.2 392.9 399.2 392.9 396.9 395.7 396.9 395.7 396.3 392.9 396.3 392.9 394.5 395.7 394.5 395.7 393.9 392.3 393.9"/>
  <path class="st0" d="M385.7,404.7v-1.9h-.3v1c0,.4-.2.7-.7.7s-.6-.2-.6-.5v-1.2h-.3v1.2c0,.4.2.7.8.7s.6-.1.7-.4h0v.3h.4Z"/>
  <path class="st0" d="M386.2,402.8v1.9h.3v-1c0-.4.3-.7.8-.7v-.2c-.4,0-.7.2-.8.5h0v-.4h-.3Z"/>
  <rect class="st0" x="387.5" y="402.8" width=".3" height="1.9"/>
  <rect class="st0" x="387.5" y="402.1" width=".3" height=".4"/>
  <path class="st0" d="M389.1,404.6c-.4,0-.6-.2-.6-.5h-.3c0,.5.4.7.9.7s.9-.2.9-.6-.3-.5-.6-.5h-.4c-.2-.1-.4-.2-.4-.4s.3-.3.5-.3.6.1.6.4h.3c0-.4-.4-.6-.8-.6s-.8.1-.8.5.3.4.6.5h.3c.2.1.5.2.5.4s-.3.4-.6.4"/>
  <path class="st0" d="M393.3,404.7v-1.3c0-.4-.2-.6-.7-.6s-.6.1-.7.4c0-.2-.3-.4-.6-.4s-.6.1-.7.4h0v-.3h-.2v1.9h.3v-1c0-.4.2-.7.6-.7s.5.2.5.5v1.3h.3v-1.1c0-.3.1-.7.6-.7s.5.2.5.5v1.2h.3-.2Z"/>
  <path class="st0" d="M395.7,403.8c0-.5-.4-1-1-1s-1,.5-1,1,.4,1,1,1,1-.5,1-1M393.9,403.8c0-.4.3-.8.8-.8s.8.4.8.8-.2.8-.8.8-.8-.4-.8-.8"/>
  <g>
    <path class="st0" d="M151.1,170.1h253.7v-11.2h-253.7v11.2h0ZM399,163.1h.6v-1.5h1v5.5h-1v-.3c-.2.2-.5.4-.9.4-.8,0-1.7-.3-1.7-2.1s.9-2,2-2M392.5,163.2h1v.4c.3-.2.8-.5,1.3-.5,1.2,0,1.3.7,1.3,1.6v2.5h-1v-2.4c0-.6,0-.8-.6-.8s-.8.2-1,.3v2.9h-1v-4h0ZM387.8,163.2h1v2.4c0,.6,0,.8.6.8s.8-.2,1-.3v-2.9h1v4h-1v-.4c-.3.2-.8.5-1.3.5-1.2,0-1.3-.7-1.3-1.6v-2.5h0ZM383.6,162h3.4v.8h-2.4v1.5h2.2v.7h-2.2v2.1h-1v-5.1h0ZM377.1,163.2h1v.4c.3-.2.8-.5,1.3-.5,1.2,0,1.3.7,1.3,1.6v2.5h-1v-2.4c0-.6,0-.8-.6-.8s-.8.2-1,.3v2.9h-1v-4h0ZM374.3,163.1c1.3,0,1.9.8,1.9,2.1s-.8,2.1-2,2.1-1.9-.8-1.9-2,.8-2.1,2-2.1M371.4,167.2h-1v-4h1v4ZM370.4,161.5h1v.9h-1v-.9ZM366.8,163.2h.6v-.8h1v.8h1.2v.7h-1.2v2c0,.4,0,.5.6.5h.8v.8c0,0-.5,0-.8,0-.8,0-1.5,0-1.5-1.3v-2h-.6v-.7h0ZM364.1,163.9c-.4,0-.8,0-1.1.2l-.2-.7c.4,0,.9-.3,1.5-.3,1.1,0,1.6.3,1.6,1.2v1.9c0,.2.2.2.4.2v.7h-.3c-.4,0-.9,0-1-.4-.3.2-.7.5-1.2.5s-1.3-.4-1.3-1.2.9-1.2,1.6-1.2h.8v-.4c0-.5-.3-.6-.8-.6M359.1,163.2h.6v-.8h1v.8h1.2v.7h-1.2v2c0,.4,0,.5.6.5h.8v.8c0,0-.5,0-.8,0-.8,0-1.5,0-1.5-1.3v-2h-.6v-.7h0ZM356.7,163.1c1.3,0,1.9.8,1.9,2.1s-.8,2.1-2,2.1-1.9-.8-1.9-2,.8-2.1,2-2.1M349.8,162h1.9c1.1,0,1.9.5,1.9,1.6s-.3,1.1-.9,1.4l1.6,2.1h-1.3l-1.4-1.9h-.9v1.9h-1v-5.1h0ZM343.9,163.2h3.3v.7l-2.3,4.6-.8-.3,2.1-4.1h-2.4v-.9h0ZM340.3,166.4c.5-.4,2.1-1.3,2.1-1.9s-.3-.6-.8-.6-.8,0-1,.2l-.2-.7c.2,0,.7-.3,1.3-.3,1.3,0,1.7.7,1.7,1.3s-1.2,1.6-1.8,1.9h2v.8h-3.2v-.8h0ZM337.5,163.1c1.4,0,2.1.8,2.1,2s-.9,2.1-2.2,2.1-2.1-.7-2.1-2,.8-2.1,2.2-2.1M331.4,166.4c.5-.4,2.1-1.3,2.1-1.9s-.3-.6-.8-.6-.8,0-1,.2l-.2-.7c.2,0,.7-.3,1.3-.3,1.3,0,1.7.7,1.7,1.3s-1.2,1.6-1.8,1.9h2v.8h-3.2v-.8h0ZM327,164.7h3.7v.7h-3.7v-.7ZM324,163.2h2v4h-1v-3.2h-1v-.8h0ZM320.5,166.4c.5-.4,2.1-1.3,2.1-1.9s-.3-.6-.8-.6-.8,0-1,.2l-.2-.7c.2,0,.7-.3,1.3-.3,1.3,0,1.7.7,1.7,1.3s-1.2,1.6-1.8,1.9h2v.8h-3.2v-.8h0ZM317.8,163.1c1.4,0,2.1.8,2.1,2s-.9,2.1-2.2,2.1-2.1-.7-2.1-2,.8-2.1,2.2-2.1M311.6,166.4c.5-.4,2.1-1.3,2.1-1.9s-.3-.6-.8-.6-.8,0-1,.2l-.2-.7c.2,0,.7-.3,1.3-.3,1.3,0,1.7.7,1.7,1.3s-1.2,1.6-1.8,1.9h2v.8h-3.2v-.8h0ZM307.8,162c.8,0,1.3.2,1.6.3l-.3.7c-.4,0-.7-.2-1.3-.2-1,0-1.7.5-1.7,1.8s.8,1.9,1.9,1.9.8,0,1.2-.2l.2.8c-.4,0-.8.2-1.5.2-1.8,0-2.8-1-2.8-2.6s1-2.7,2.7-2.7M301.8,162c1.8,0,2.6,1.1,2.6,2.6s-1,2.7-2.7,2.7-2.6-1-2.6-2.7,1.1-2.6,2.8-2.6M294.8,162h1.9c1.1,0,1.9.6,1.9,1.7s-.8,1.8-2.2,1.8h-.5v1.6h-1v-5.1h0ZM290.5,163.1c1.1,0,1.6.8,1.6,2v.3h-2.6c0,.9.5,1,1.2,1s.7,0,1.1-.2l.2.7c-.3,0-.9.2-1.4.2-1.2,0-2-.4-2-2s.8-2.1,1.9-2.1M284.1,161.7h1v1.9c.3-.2.8-.5,1.3-.5,1.2,0,1.3.7,1.3,1.6v2.5h-.9v-2.4c0-.6,0-.8-.6-.8s-.8.2-1,.3v2.9h-1v-5.5h0ZM280.5,163.2h.6v-.8h1v.8h1.2v.7h-1.2v2c0,.4,0,.5.6.5h.8v.8c0,0-.5,0-.8,0-.8,0-1.5,0-1.5-1.3v-2h-.6v-.7h0ZM272.1,163.2h1v.4c.3-.3.8-.5,1.3-.5s.9.2,1.1.6c.3-.3.8-.6,1.4-.6,1.2,0,1.3.9,1.3,1.6v2.5h-1v-2.4c0-.5,0-.8-.6-.8s-.7.2-1,.3v2.9h-1v-2.4c0-.6,0-.8-.6-.8s-.7.2-.9.3v2.9h-1v-4h0ZM269.3,163.1c1.3,0,1.9.8,1.9,2.1s-.8,2.1-2,2.1-1.9-.8-1.9-2,.8-2.1,2-2.1M264.6,163.2h1v.5c.2-.3.6-.6,1.1-.6h.5v.8h-.6c-.4,0-.8.2-.9.5v2.8h-1v-4h0ZM261.5,163.2h.6v-.3c0-1.1.7-1.4,1.5-1.4s.5,0,.7,0l-.2.8h-.5c-.4,0-.5.2-.5.6v.2h.9v.7h-.9v3.3h-1v-3.3h-.6v-.7h0ZM256.4,164.3c0-.8.7-1.2,1.6-1.2s.9,0,1.2.2l-.2.7c-.3,0-.6,0-1,0s-.6.2-.6.4c0,.6,2,.5,2,1.8s-1,1.2-1.7,1.2-1,0-1.3-.2v-.7c.5,0,.9,0,1.2,0,.6,0,.8-.2.8-.4,0-.6-2-.4-2-1.8M254.2,163.1c1.1,0,1.6.8,1.6,2v.3h-2.6c0,.9.5,1,1.2,1s.7,0,1.1-.2l.2.7c-.3,0-.9.2-1.4.2-1.2,0-2-.4-2-2s.8-2.1,1.9-2.1M250.5,163.1c.6,0,.9,0,1.2.3l-.3.7c-.3,0-.5-.2-.9-.2-.6,0-1.1.4-1.1,1.3s.2,1.3,1.3,1.3.6,0,.8,0v.7c-.2,0-.4,0-.9,0-1.6,0-2.2-.6-2.2-2.1s.8-2.1,2-2.1M245.7,163.2h1v.5c.2-.3.6-.6,1.1-.6h.5v.8h-.6c-.4,0-.8.2-.9.5v2.8h-1v-4h0ZM241,163.2h1v2.4c0,.6,0,.8.6.8s.8-.2,1-.3v-2.9h1v4h-1v-.4c-.3.2-.8.5-1.3.5-1.2,0-1.3-.7-1.3-1.6v-2.5h0ZM238.2,163.1c1.3,0,1.9.8,1.9,2.1s-.8,2.1-2,2.1-1.9-.8-1.9-2,.8-2.1,2-2.1M232.6,164.3c0-.8.7-1.2,1.6-1.2s.9,0,1.2.2l-.2.7c-.3,0-.6,0-1,0s-.6.2-.6.4c0,.6,2,.5,2,1.8s-1,1.2-1.7,1.2-1,0-1.3-.2v-.7c.5,0,.9,0,1.2,0,.6,0,.8-.2.8-.4,0-.6-2-.4-2-1.8M230.4,163.1c1.1,0,1.6.8,1.6,2v.3h-2.6c0,.9.5,1,1.2,1s.7,0,1.1-.2l.2.7c-.3,0-.9.2-1.4.2-1.2,0-2-.4-2-2s.8-2.1,1.9-2.1M225.7,163.2h1v.5c.2-.3.6-.6,1.1-.6h.5v.8h-.6c-.4,0-.8.2-.9.5v2.8h-1v-4h0ZM219.3,161.7h1v1.9c.3-.2.8-.5,1.3-.5,1.2,0,1.3.7,1.3,1.6v2.5h-1v-2.4c0-.6,0-.8-.6-.8s-.8.2-1,.3v2.9h-1v-5.5ZM215.6,163.2h.6v-.8h1v.8h1.2v.7h-1.2v2c0,.4,0,.5.6.5h.8v.8c0,0-.5,0-.8,0-.8,0-1.5,0-1.5-1.3v-2h-.6v-.7h0ZM214.9,167.2h-1v-4h1v4ZM214,161.5h1v.9h-1v-.9ZM208,163.2l.7,3.2.9-3.2h1.2l.7,3.2.8-3.2h1l-1.2,4h-1.2l-.6-2.4v-.6c0,0-.3.6-.3.6l-.7,2.4h-1.2l-1.1-4h1ZM203.1,163.1h.6v-1.5h1v5.5h-1v-.3c-.2.2-.5.4-.9.4-.8,0-1.7-.3-1.7-2.1s.9-2,2-2M198.8,163.1c1.1,0,1.6.8,1.6,2v.3h-2.6c0,.9.5,1,1.2,1s.7,0,1.1-.2l.2.7c-.3,0-.9.2-1.4.2-1.2,0-2-.4-2-2s.8-2.1,1.9-2.1M194.4,163.1h.6v-1.5h1v5.5h-1v-.3c-.2.2-.5.4-.9.4-.8,0-1.7-.3-1.7-2.1s.9-2,2-2M187.9,163.2h1v.4c.3-.2.8-.5,1.3-.5,1.2,0,1.3.7,1.3,1.6v2.5h-1v-2.4c0-.6,0-.8-.6-.8s-.8.2-1,.3v2.9h-1v-4h0ZM183.2,163.2h1v2.4c0,.6,0,.8.6.8s.8-.2,1-.3v-2.9h1v4h-1v-.4c-.3.2-.8.5-1.3.5-1.2,0-1.3-.7-1.3-1.6v-2.5h0ZM180.1,163.2h.6v-.3c0-1.1.7-1.4,1.5-1.4s.5,0,.7,0l-.2.8h-.5c-.4,0-.5.2-.5.6v.2h.9v.7h-.9v3.3h-1v-3.3h-.6v-.7h0ZM174.2,163.2h1v.4c.3-.2.8-.5,1.3-.5,1.2,0,1.3.7,1.3,1.6v2.5h-1v-2.4c0-.6,0-.8-.6-.8s-.8.2-1,.3v2.9h-1v-4h0ZM171.4,163.1c1.3,0,1.9.8,1.9,2.1s-.8,2.1-2,2.1-1.9-.8-1.9-2,.8-2.1,2-2.1M168.5,167.2h-1v-4h1v4ZM167.5,161.5h1v.9h-1v-.9ZM163.9,163.2h.6v-.8h1v.8h1.2v.7h-1.2v2c0,.4,0,.5.6.5h.8v.8c0,0-.5,0-.8,0-.8,0-1.5,0-1.5-1.3v-2h-.6v-.7h0ZM162.3,163.1c.6,0,.9,0,1.2.3l-.3.7c-.3,0-.5-.2-.9-.2-.6,0-1.1.4-1.1,1.3s.2,1.3,1.3,1.3.6,0,.8,0v.7c-.2,0-.4,0-.9,0-1.6,0-2.2-.6-2.2-2.1s.8-2.1,2-2.1M156.8,162h1.3l1.8,5.1h-1l-.6-1.7h-1.8l-.6,1.7h-1l2-5.1h0Z"/>
    <path class="st0" d="M374.3,166.5c.8,0,1-.6,1-1.3s-.2-1.3-1-1.3-1,.6-1,1.3.2,1.3,1,1.3"/>
    <polygon class="st0" points="157.4 162.7 156.7 164.8 158 164.8 157.4 162.7"/>
    <path class="st0" d="M301.7,166.5c1.2,0,1.7-.8,1.7-1.9s-.5-1.9-1.7-1.9-1.7.8-1.7,1.8.5,1.9,1.6,1.9"/>
    <path class="st0" d="M269.3,166.5c.8,0,1-.6,1-1.3s-.2-1.3-1-1.3-1,.6-1,1.3.2,1.3,1,1.3"/>
    <path class="st0" d="M171.4,166.5c.8,0,1-.6,1-1.3s-.2-1.3-1-1.3-1,.6-1,1.3.2,1.3,1,1.3"/>
    <path class="st0" d="M230.3,163.8c-.5,0-.8.4-.9,1h1.6c0-.6-.2-1-.7-1"/>
    <path class="st0" d="M254.1,163.8c-.5,0-.8.4-.9,1h1.6c0-.6-.2-1-.7-1"/>
    <path class="st0" d="M238.2,166.5c.8,0,1-.6,1-1.3s-.2-1.3-1-1.3-1,.6-1,1.3.2,1.3,1,1.3"/>
    <path class="st0" d="M202.9,166.4c.3,0,.6-.2.8-.3v-2.2h-.6c-.8,0-1.1.6-1.1,1.3s.4,1.3.9,1.3"/>
    <path class="st0" d="M194.2,166.4c.3,0,.6-.2.8-.3v-2.2h-.6c-.8,0-1.1.6-1.1,1.3s.4,1.3.9,1.3"/>
    <path class="st0" d="M198.7,163.8c-.5,0-.8.4-.9,1h1.6c0-.6-.2-1-.7-1"/>
    <path class="st0" d="M356.7,166.5c.8,0,1-.6,1-1.3s-.2-1.3-1-1.3-1,.6-1,1.3.2,1.3,1,1.3"/>
    <path class="st0" d="M337.5,166.5c.7,0,1.2-.4,1.2-1.3s-.4-1.2-1.1-1.2-1.2.4-1.2,1.3.5,1.2,1.1,1.2"/>
    <path class="st0" d="M317.7,166.5c.7,0,1.2-.4,1.2-1.3s-.4-1.2-1.1-1.2-1.2.4-1.2,1.3.5,1.2,1.1,1.2"/>
    <path class="st0" d="M363.5,166c0,.3.2.5.6.5s.7-.2.9-.2v-.8h-.7c-.5,0-.7.2-.7.6"/>
    <path class="st0" d="M297.5,163.8c0-.6-.3-1-1-1h-.7v2h.5c.8,0,1.2-.4,1.2-1"/>
    <path class="st0" d="M352.5,163.7c0-.6-.3-.9-1-.9h-.7v1.8h.5c.8,0,1.2-.3,1.2-.9"/>
    <path class="st0" d="M290.4,163.8c-.5,0-.8.4-.9,1h1.6c0-.6-.2-1-.7-1"/>
    <path class="st0" d="M284.8,147.1h.6l.9,1.9h1l-1-2.1c.4-.2.8-.6.8-1.3s-.6-1.5-1.5-1.5h-1.8v4.8h.9v-1.9h0ZM284.8,145h.8c.4,0,.6.3.6.6s-.3.6-.6.6h-.8v-1.3h0Z"/>
    <polygon class="st0" points="291 148.2 288.9 148.2 288.9 147 290.7 147 290.7 146.2 288.9 146.2 288.9 145 291 145 291 144.2 288 144.2 288 149 291 149 291 148.2"/>
    <path class="st0" d="M293.3,149.1c.5,0,.9-.2,1.3-.6.3-.3.4-.8.4-1.5v-.7h-1.7v.8h.8v.2c0,.2,0,.5-.2.6,0,.2-.4.3-.6.3s-.4,0-.6-.3c-.2-.2-.2-.4-.2-1.4s0-1.2.2-1.4c0-.2.3-.3.6-.3.5,0,.7.3.8.7h.9c0-.8-.7-1.5-1.7-1.5s-.9.2-1.2.5c-.5.5-.5,1.1-.5,1.9s0,1.4.5,1.9c.3.3.7.5,1.2.5"/>
    <rect class="st0" x="295.8" y="144.2" width=".9" height="4.8"/>
    <path class="st0" d="M297.9,144.7c-.5.5-.4,1.1-.4,1.9s0,1.4.4,1.9c.3.3.7.5,1.2.5s.9-.2,1.2-.5c.5-.5.5-1.1.5-1.9s0-1.4-.5-1.9c-.3-.3-.7-.5-1.2-.5s-.9.2-1.2.5M300,146.6c0,.9,0,1.2-.2,1.4,0,.2-.3.3-.6.3s-.5,0-.6-.3c-.2-.2-.2-.4-.2-1.4s0-1.2.2-1.4c0-.2.3-.3.6-.3s.4,0,.6.3.2.4.2,1.4"/>
    <polygon class="st0" points="304.3 147.1 302.5 144.2 301.7 144.2 301.7 149 302.6 149 302.6 146.1 304.4 149 305.2 149 305.2 144.2 304.3 144.2 304.3 147.1"/>
    <polygon class="st0" points="309.1 145 309.1 144.2 306.1 144.2 306.1 149 309.1 149 309.1 148.2 307 148.2 307 147 308.8 147 308.8 146.2 307 146.2 307 145 309.1 145"/>
    <path class="st0" d="M311.3,144.2v4.8h.9v-1.8h.9c.9,0,1.5-.7,1.5-1.5s-.6-1.5-1.5-1.5h-1.8ZM313.7,145.7c0,.4-.3.7-.7.7h-.8v-1.3h.8c.4,0,.7.3.7.7"/>
    <path class="st0" d="M315.1,144.2v3.2c0,1,.8,1.7,1.7,1.7s1.7-.7,1.7-1.7v-3.2h-.9v3.1c0,.6-.3.9-.8.9s-.8-.3-.8-.9v-3.1h-.9Z"/>
    <path class="st0" d="M319.7,144.7c-.5.5-.5,1.1-.5,1.9s0,1.4.5,1.9c.3.3.7.5,1.2.5s.9-.2,1.3-.6c.3-.3.4-.8.4-1.5v-.7h-1.7v.8h.8v.2c0,.2,0,.5-.2.6,0,.2-.4.3-.6.3s-.4,0-.6-.3c-.2-.2-.2-.4-.2-1.4s0-1.2.2-1.4c0-.2.3-.3.6-.3.5,0,.7.3.8.7h.9c0-.8-.7-1.5-1.7-1.5s-.9.2-1.2.5"/>
    <polygon class="st0" points="326.4 148.2 324.3 148.2 324.3 144.2 323.4 144.2 323.4 149 326.4 149 326.4 148.2"/>
    <rect class="st0" x="327" y="144.2" width=".9" height="4.8"/>
    <path class="st0" d="M329.5,148.2h1.6l.3.9h.9l-1.7-4.8h-.7l-1.7,4.8h.9l.3-.9h.1ZM330.4,145.6l.6,1.8h-1.1l.6-1.8h0Z"/>
    <path class="st0" d="M348,151.2h1.4l.4.8h.3l-1.2-2.7h-.3l-1.3,2.7h.3l.4-.8h0ZM348.7,149.6l.6,1.4h-1.2l.6-1.4Z"/>
    <path class="st0" d="M351.2,152.6c-.3,0-.6,0-.7-.4h-.3c0,.4.5.6.9.6.7,0,1-.4,1-.9v-1.8h-.3v.3h0c0-.2-.4-.4-.7-.4-.7,0-1,.4-1,1s.3,1,1,1,.6-.2.7-.4h0v.3c0,.5-.2.7-.7.7M351.2,151.8c-.5,0-.7-.4-.7-.8s.2-.8.7-.8.7.4.7.8-.3.8-.7.8"/>
    <path class="st0" d="M353.7,150c-.7,0-1,.5-1,1s.3,1,1,1,.9-.3,1-.7h-.3c0,.3-.3.5-.7.5s-.7-.4-.7-.8h1.7c0-.5-.3-1.1-1-1.1M353.7,150.2c.5,0,.7.3.7.7h-1.5c0-.4.3-.7.7-.7"/>
    <path class="st0" d="M356.9,152v-1.2c0-.5-.2-.7-.8-.7s-.6.2-.7.4h0v-.3h-.3v1.9h.3v-1.1c0-.4.3-.7.7-.7s.6.3.6.6v1.2h.3,0Z"/>
    <polygon class="st0" points="357.2 152 359.1 152 359.1 151.8 357.5 151.8 359 150.2 359 150 357.3 150 357.3 150.3 358.7 150.3 357.2 151.8 357.2 152"/>
    <rect class="st0" x="359.4" y="150" width=".3" height="1.9"/>
    <rect class="st0" x="359.4" y="149.3" width=".3" height=".4"/>
    <path class="st0" d="M361.3,150.9c-.6,0-1.2,0-1.2.6s.3.6.8.6.6,0,.8-.4h0c0,.2,0,.3.3.3s0,0,.2,0v-.2h0c0,0-.2,0-.2,0v-1c0-.5-.4-.6-.8-.6s-.9.2-.9.7h.3c0-.3.3-.4.6-.4s.6,0,.6.4,0,.2-.4.3M361.7,150.9v.3c0,.4-.4.6-.8.6s-.5,0-.5-.4.6-.4,1.1-.4h.2,0Z"/>
    <path class="st0" d="M364.1,150.8h1.1c.6,0,.6.4.6.8v.4h.3c0,0,0-.5,0-.7,0-.3,0-.6-.6-.6h0c.4,0,.6-.4.6-.7,0-.5-.4-.7-1-.7h-1.4v2.7h.3v-1.2h.2ZM364.1,149.5h1.1c.5,0,.7.2.7.5s-.3.5-.7.5h-1.1v-1.1h0Z"/>
    <path class="st0" d="M367.6,150c-.7,0-1,.5-1,1s.3,1,1,1,.9-.3,1-.7h-.3c0,.3-.3.5-.7.5s-.7-.4-.7-.8h1.7c0-.5-.3-1.1-1-1.1M367.6,150.2c.4,0,.7.3.7.7h-1.5c0-.4.3-.7.7-.7"/>
    <path class="st0" d="M369.8,152.6c-.3,0-.6,0-.7-.4h-.3c0,.4.5.6.9.6.7,0,1-.4,1-.9v-1.8h-.3v.3h0c0-.2-.4-.4-.7-.4-.7,0-1,.4-1,1s.3,1,1,1,.6-.2.7-.4h0v.3c0,.5-.2.7-.7.7M369.8,151.8c-.5,0-.7-.4-.7-.8s.2-.8.7-.8.7.4.7.8-.3.8-.7.8"/>
    <rect class="st0" x="371.4" y="149.3" width=".3" height=".4"/>
    <rect class="st0" x="371.4" y="150" width=".3" height="1.9"/>
    <path class="st0" d="M372.1,151c0,.6.4,1,1.1,1s1.1-.5,1.1-1-.4-1-1.1-1-1.1.5-1.1,1M373.9,151c0,.4-.3.8-.8.8s-.8-.4-.8-.8.3-.8.8-.8.8.4.8.8"/>
    <path class="st0" d="M376.4,152v-1.2c0-.5-.2-.7-.8-.7s-.6.2-.7.4h0v-.3h-.3v1.9h.3v-1.1c0-.4.3-.7.7-.7s.6.3.6.6v1.2h.3,0Z"/>
    <path class="st0" d="M378.1,150.9c-.6,0-1.2,0-1.2.6s.3.6.8.6.6,0,.8-.4h0c0,.2,0,.3.3.3s0,0,.2,0v-.2h0c0,0-.2,0-.2,0v-1c0-.5-.4-.6-.8-.6s-.9.2-.9.7h.3c0-.3.3-.4.6-.4s.6,0,.6.4,0,.2-.4.3M378.4,150.9v.3c0,.4-.4.6-.8.6s-.5,0-.5-.4.6-.4,1.1-.4h.2,0Z"/>
    <rect class="st0" x="379.2" y="149.3" width=".3" height="2.7"/>
    <path class="st0" d="M381,150c-.7,0-1,.5-1,1s.3,1,1,1,.9-.3,1-.7h-.3c0,.3-.3.5-.7.5s-.7-.4-.7-.8h1.7c0-.5-.3-1.1-1-1.1M381,150.2c.4,0,.7.3.7.7h-1.5c0-.4.3-.7.7-.7"/>
    <path class="st0" d="M385.5,152v-2.7h-.3v1.1h0c0-.3-.4-.4-.8-.4-.7,0-1,.5-1,1s.3,1,1,1,.7-.2.8-.4h0v.4h.3ZM384.5,151.8c-.5,0-.7-.4-.7-.8s.2-.8.7-.8.8.4.8.8-.2.8-.8.8"/>
    <path class="st0" d="M387,150c-.7,0-1,.5-1,1s.3,1,1,1,.9-.3,1-.7h-.3c0,.3-.3.5-.7.5s-.7-.4-.7-.8h1.7c0-.5-.3-1.1-1-1.1M387,150.2c.4,0,.7.3.7.7h-1.5c0-.4.3-.7.7-.7"/>
    <g>
      <path class="st0" d="M29.4,2.2H0v74.9h18.3v-21.2h5.6c22.5,0,34.7-12.4,34.7-27.1S46.3,2.2,29.4,2.2M24.4,42h-6.2v-25.8h8.8c9.7,0,12.8,5.4,12.8,12.9s-4,12.8-15.4,12.8"/>
      <path class="st0" d="M104.5,77c-17.5,0-35.2-7.7-35.2-31.9V.8h18.4v43.7c0,11.4,5.2,17.8,16.8,17.8s16.8-6.7,16.8-20V.8h17.8v41.9c0,26.1-17.7,34.4-34.6,34.4"/>
      <path class="st0" d="M194,77c-25.1,0-41.5-12.1-41.5-38S167.5-.7,194.8,0c16.2.5,22.7,4.6,22.7,4.6l-4.8,13c-7.2-1.8-10.5-2.8-18.1-2.8-13.5,0-23.5,6.6-23.5,23.1s11.2,24,24.9,24,3.3,0,4.8,0v-23h18.1v33.8c-8.5,3.3-15.7,4.3-24.9,4.3"/>
      <polygon class="st0" points="235.7 77 235.7 2.2 254 2.2 254 62.8 286.7 62.8 286.7 77 235.7 77"/>
      <rect class="st0" x="298" y="2.1" width="18.2" height="74.9"/>
      <path class="st0" d="M379.3,2.2h-23.4l-29.1,74.9h18.2l8.2-21.9h25.5l7.1,21.9h18.8L379.3,2.2h0ZM358,42.1l8.9-28.8,7.5,28.8h-16.4Z"/>
      <path class="st0" d="M174.8,130.2c.4-.3.6-.8.6-1.4s0-.7-.2-.9c-.2-.3-.4-.4-.6-.6-.2,0-.5-.2-.8-.4s-.6-.2-.8-.3-.5-.2-.6-.3c-.2,0-.2-.3-.2-.5s0-.4.3-.5c.2,0,.4-.2.7-.2.6,0,1.1.2,1.4.6l.8-.8c-.2-.3-.5-.5-.9-.6-.4-.2-.8-.2-1.2-.2-.7,0-1.2.2-1.6.5-.4.3-.6.8-.6,1.3s0,.8.3,1c.2.3.5.5.8.6s.7.2,1,.3c.3,0,.6.2.8.4.2,0,.3.3.3.5s0,.4-.3.6c-.2,0-.5.2-.9.2-.6,0-1.1-.2-1.6-.6l-.8.8c.6.6,1.3.9,2.3.9s1.3-.2,1.7-.5"/>
      <rect class="st0" x="176.6" y="124.3" width="1.1" height="6.4"/>
      <polygon class="st0" points="186.4 124.3 186.4 130.6 187.5 130.6 187.5 126.1 190.8 130.6 191.9 130.6 191.9 124.3 190.8 124.3 190.8 128.8 187.5 124.3 186.4 124.3"/>
      <rect class="st0" x="151.7" y="132.5" width="1.1" height="6.4"/>
      <polygon class="st0" points="157 138.9 157 133.5 159.1 133.5 159.1 132.5 153.8 132.5 153.8 133.5 155.9 133.5 155.9 138.9 157 138.9"/>
      <path class="st0" d="M160.6,137.5h2.9l.5,1.4h1.1l-2.5-6.4h-1.3l-2.5,6.4h1.1l.5-1.4h.2ZM162,133.8l1,2.7h-2.1l1-2.7h0Z"/>
      <polygon class="st0" points="170.5 137.9 167.3 137.9 167.3 132.5 166.1 132.5 166.1 138.9 170.5 138.9 170.5 137.9"/>
      <rect class="st0" x="171.6" y="132.5" width="1.1" height="6.4"/>
      <path class="st0" d="M175.4,137.5h2.9l.5,1.4h1.1l-2.5-6.4h-1.3l-2.5,6.4h1.1l.5-1.4h.2ZM176.9,133.8l1,2.7h-2.1l1-2.7h0Z"/>
      <polygon class="st0" points="169.9 130.6 169.9 129.6 166.5 129.6 166.5 127.9 168.8 127.9 169.2 127.9 169.2 126.9 168.8 126.9 168.8 126.9 166.5 126.9 166.5 125.3 169.9 125.3 169.9 124.3 165.4 124.3 165.4 126.9 164.8 126.9 164.8 127.9 165.4 127.9 165.4 130.6 169.9 130.6"/>
      <path class="st0" d="M160.6,130.7c1.8,0,3.3-1.5,3.3-3.3s-1.5-3.3-3.3-3.3-3.3,1.5-3.3,3.3,1.5,3.3,3.3,3.3M160.6,125.2c1.2,0,2.2,1,2.2,2.2s-1,2.2-2.2,2.2-2.2-1-2.2-2.2,1-2.2,2.2-2.2"/>
      <path class="st0" d="M185.3,127.4c0-1.8-1.5-3.3-3.3-3.3s-3.3,1.5-3.3,3.3,1.5,3.3,3.3,3.3,3.3-1.5,3.3-3.3M179.9,127.4c0-1.2,1-2.2,2.2-2.2s2.2,1,2.2,2.2-1,2.2-2.2,2.2-2.2-1-2.2-2.2"/>
      <path class="st0" d="M154.5,130.7c.9,0,1.7-.4,2.3-.9l-.8-.8c-.4.4-.9.6-1.5.6-1.2,0-2.2-1-2.2-2.2s1-2.2,2.2-2.2,1.1.2,1.5.6l.8-.8c-.6-.6-1.4-1-2.3-1-1.8,0-3.3,1.5-3.3,3.3s1.5,3.3,3.3,3.3"/>
      <polygon class="st0" points="193.5 130.6 198.1 130.6 198.1 129.6 194.6 129.6 194.6 127.9 197 127.9 197.3 127.9 197.3 126.9 197 126.9 197 126.9 194.6 126.9 194.6 125.3 198.1 125.3 198.1 124.3 193.5 124.3 193.5 126.9 193 126.9 193 127.9 193.5 127.9 193.5 130.6"/>
      <path class="st0" d="M185.4,134.1c0-.4-.2-.8-.5-1.1s-.7-.5-1.1-.5-.8.2-1.1.5-.5.7-.5,1.1h.8c0-.3,0-.4.2-.6,0,0,.3-.2.5-.2s.4,0,.5.2c0,0,.2.3.2.5s0,.4-.2.5l-2.1,2v.6h3.1v-.8h-1.7l1.3-1.3c.3-.3.4-.7.4-1.1"/>
      <polygon class="st0" points="187.7 137.2 187.7 132.6 187 132.6 186.1 134.1 186.9 134.5 186.9 134.5 186.9 137.2 187.7 137.2"/>
      <rect class="st0" x="189.2" y="134.6" width="1.7" height=".8"/>
      <path class="st0" d="M191.4,134.1h.8c0-.3,0-.4.2-.6,0,0,.3-.2.5-.2s.4,0,.5.2c0,0,.2.3.2.5s0,.4-.2.5l-2.1,2v.6h3.1v-.8h-1.7l1.3-1.3c.3-.3.5-.7.5-1.1s-.2-.8-.5-1.1-.7-.5-1.1-.5-.8.2-1.1.5-.5.7-.5,1.1"/>
      <polygon class="st0" points="196.6 137.2 198 133.2 198 132.6 195.4 132.6 195.4 133.4 197.1 133.4 195.7 137.2 196.6 137.2"/>
      <path class="st0" d="M167.5,95.9l12.8,7.4s0,0,0,.2v14.5c0,.4.3.7.7.7s.2,0,.3,0l5.9-3.4c.7-.4,1.1-1.1,1.1-1.9v-14.2c0-.2,0-.5-.3-.6l-12.3-7.1c-.3-.2-.7-.3-1.1-.3s-.8,0-1.1.3l-6,3.5c-.2,0-.3.3-.3.6s0,.4.3.6"/>
      <path class="st0" d="M161.6,104l8.8,5.1s.2.2.2.3v10c0,.4.3.7.7.7s.3,0,.4,0l5.3-3.1c.5-.3.9-.9.9-1.5v-10.2c0-.3,0-.5-.4-.6l-8.8-5.1c-.3-.2-.6-.2-.9-.2s-.6,0-.9.2l-5.4,3.1c-.2,0-.4.4-.4.6s0,.5.4.6"/>
      <path class="st0" d="M161.3,115l5.9,3.4h.3c0,0,.3,0,.4-.2,0,0,.2-.3.2-.4v-6.8c0-.3-.3-.6-.6-.6h-.3l-5.9,3.4c-.2,0-.3.3-.3.5s0,.4.3.5"/>
      <path class="st0" d="M151.2,149.1c0,0,0,.2,0,.2,0,0,0,.2.2.2h46.9v-8.6h-46.9c0,0-.2,0-.2,0v.2l2.8,3.4c.3.3.3.8,0,1.2l-2.8,3.4h0ZM193.8,143.3h1.2l.9,3.7h-.6l-.2-.8h-1.4l-.2.8h-.6l.9-3.7h0ZM191.8,143.3h.6v3.7h-.6v-3.7ZM189.2,143.3h.6v3.1h1.5v.5h-2.1v-3.7h0ZM187.2,143.2c.6,0,1.3,0,1.3,0v.5h-1.2c-.7,0-.9.3-.9,1.4s.2,1.4.9,1.4.5,0,.6,0v-.9h-.5v-.5h1v1.9s-.8,0-1.2,0c-1.2,0-1.5-.7-1.5-1.9s.4-1.9,1.4-1.9M182.4,143.3h.6v2.5c0,.5.3.7.7.7s.8-.2.8-.7v-2.5h.6v2.5c0,.9-.5,1.2-1.4,1.2s-1.3-.4-1.3-1.2v-2.5h0ZM179.4,143.3h1.3c.8,0,1.3.4,1.3,1.2s-.4,1.3-1.3,1.3h-.8v1.1h-.6v-3.7h0Z"/>
      <path class="st0" d="M181.3,144.5c0-.5-.2-.7-.6-.7h-.7v1.5h.7c.4,0,.6-.3.6-.8"/>
      <polygon class="st0" points="194.5 143.8 194.3 143.8 193.8 145.6 195 145.6 194.5 143.8"/>
      <path class="st0" d="M257.9,146.9v.2l1-.7h0c-.2,0-.3,0-.3-.2v-.5c0,0,.8-.6.8-.6l.4.3v.2l.2.3,1-.7-.2-.2h-.3l-2.7-1.7.5,3.2c0,.2,0,.3-.2.4M258.9,145l-.6.4-.2-1,.8.6h0Z"/>
      <path class="st0" d="M259.6,142.7l1.2,1.9c0,0,0,.2,0,.3v.2c0,0,.9-.5.9-.5v-.2h-.5l-.9-1.5,3,.7-1.6-2.3c0-.2,0-.4,0-.6l-.2-.2-.8.5v.2h.6l.6,1-2.3-.6-.6.5v.2c.3,0,.5,0,.6,0"/>
      <path class="st0" d="M245.9,142.8c0,0,.2.2,0,.3l-.3,2.2c0,0-.2.2-.3.2v.3l1.1.2v-.3c0,0-.2,0-.2-.2l.3-2.2c0-.2,0-.3.3-.2v-.2l-1-.2v.2h0Z"/>
      <path class="st0" d="M249.7,144h.2v-.8c-.8,0-1.6-.2-2.4-.4l-.2.7h.2c0,0,.4-.2.9,0l-.4,2.3c0,.2-.2.2-.4.2v.2l1.1.2v-.2c0,0-.2,0-.2-.3l.4-2.3c.5,0,.7.2.8.5"/>
      <path class="st0" d="M256.8,147.1c0,0-.2,0-.2-.2v-2.2c0-.2.2-.2.4-.3v-.3h-1.1v.3c0,0,.2,0,.2.3v2.2c0,0-.3.2-.4.2v.3h1.1c0,0,0-.2,0-.2h0Z"/>
      <path class="st0" d="M263.3,143.2v.2l1-.6h0c-.2,0-.3,0-.3,0v-.5c0,0,.8-.6.8-.6l.5.3v.4c0,0,1.2-.7,1.2-.7l-.2-.2h-.4l-2.7-1.7.5,3.2c0,0,0,.2-.2.3M264.4,141.3l-.6.4-.2-1,.8.5h0Z"/>
      <path class="st0" d="M236.8,144.5c0,.4,0,.7-.4.8-.8.2-1.3,0-1.5-1.1,0-1,0-1.6.8-1.8.4,0,.8,0,1,.6h0v-.7c-1-.2-1.7,0-2.2.4-.4.5-.5,1.2-.2,2.1.3.8.8,1.1,1.7,1,.4,0,.8-.3,1-.5v-.8c0,0-.3,0-.3,0h0Z"/>
      <path class="st0" d="M230.5,144.8c.2-.2.3-.5.3-.8,0-.5-.5-.7-1-.6l-1.3.2v.2q.2,0,.3.2l.3,2.5q0,.2-.2.3v.2l1.1-.2c1,0,1.4-.5,1.2-1.3,0-.4-.3-.6-.6-.7M229.2,143.7h.4c.3,0,.4,0,.5.5,0,.3,0,.5-.3.6h-.5v-1h0,0ZM230,146.4h-.4l-.2-1.3h.5c.3,0,.4,0,.5.5,0,.5,0,.8-.4.8"/>
      <path class="st0" d="M228,145.2c.2-.2.3-.5.3-.8-.2-.5-.5-.7-1-.6l-1.3.2v.2q.2,0,.3.2l.2,2.5q0,.2-.2.3v.2l1.1-.2c1,0,1.4-.5,1.3-1.3,0-.4-.3-.6-.6-.6M226.8,144.1h.4c.3,0,.4,0,.5.5,0,.3,0,.5-.4.6h-.4v-1h0ZM227.6,146.7h-.5l-.2-1.3h.4c.3,0,.4,0,.5.5,0,.5,0,.8-.3.9"/>
      <path class="st0" d="M232.2,146l-.4-2.5c0,0,0-.2.2-.2v-.2l-1.2.2v.2c.2,0,.3,0,.3,0l.4,2.4c0,.2,0,.3-.2.3v.2l1.8-.3.2-.8h-.2c0,.3-.4.5-.9.6"/>
      <path class="st0" d="M225.1,143.9c0,0,0,.2,0,.3l-1.4,1.3.3-2c0,0,0,0,.3,0h0c0,0-1-.8-1-.8h0c0,.2,0,.4,0,.5l-.5,3.4,2.6-2.2h.4c0,0-.7-.6-.7-.6h0c0,0-.1,0-.1,0Z"/>
      <path class="st0" d="M217.3,141.4c.3.2.6.3,1,0,.3-.2.5-.5.6-.9,0-.4,0-.8-.5-1.1l-1.2-.8-.2.2c0,0,0,.2,0,.3l-1.4,2.2h-.3l-.2.2.9.6.2-.2s0,0,0-.2l.5-.8h0v1.5c0,.4.3.7.7,1v-.2c-.2-.2-.3-.6-.3-1.2v-.8M216.9,140.7l.8-1.2c.3.2.5.3.6.5s0,.4,0,.7-.3.4-.6.4-.5,0-.7-.4"/>
      <path class="st0" d="M222.8,142.3l-1.2-.7v.5l-1.5,2.2s-.2,0-.3,0v.2c0,0,.8.6.8.6v-.5l.5-.8.2.2c.4.4.8.4,1.2.3.4-.2.6-.5.7-.9,0-.4,0-.8-.5-1.1M222.6,143.5c0,.2-.3.4-.5.4s-.4,0-.7-.3l.8-1.3c.3.2.5.3.5.5s0,.4,0,.7"/>
      <path class="st0" d="M213.3,122.6c.7,3,1.8,5.4,3.4,7.4l2.4,2.9c.5.5,1,.8,1.4,1.1.4.2.9.3,1.2.2.6.9,1.3,1.8,2.1,2.8.5.8,1.1,1.2,1.7,1.2.2.5.6.8,1.1.8h.5c.7.6,1.3,1.1,1.9,1.5l-.6,1.8c-1.1.2-2.1.2-3.1.3-.9-.6-2.1-1.5-3.7-2.5v-2c0-.7,0-1.3.3-1.7,0-.4,0-.7-.6-1-.7-.4-1.3-.5-1.6-.4,0,0-.2.2-.2.4v1.1h-3.2c-.3,0-.5.2-.7.4s-.2.7,0,1.3v.6c-.2.7-.6,1.6-1.2,2.6,0,.2,0,.4,0,.7.2.3.6.8,1.3,1.5s.7.6,1.3,1.1c.6.4,1.6,1.1,3.1,1.9,1.8,1,3.4,1.9,5,2.6.3,0,2.6-.3,6.7-.9v.4c-1.1.9-1.9,1.3-2.2,1.1-.5,0-.6.4-.4,1s.4.5.7.6l.4.5,1.2.7c.5,0,.9,0,1.3,0,.4-.2.7-.5.8-1l1.1-.5c.2-.2.4-.5.4-1l1-.7c.8,0,1.2-.4,1.5-.8,0-.4,0-.6.3-.7l1.2-.8c0,0,.5,0,1.4.6.4,0,.8,0,1.2,0l.9-.5c.8.2,2.1,1.1,4.1,2.9,0,.2,0,.4.4.7.2.2.6.4,1.3.5l.5.9.5.2c.7,0,1.3-.2,1.9-.7l.7-.2c.4-.3.5-.6.5-.9l-.3-.3-.6-.2c-.8-.4-1.6-.9-2.4-1.5l-.5-.4c2.4.4,5.4.8,9,1,.4,0,1,0,1.8-.7.7-.5,3-2.2,6.8-4.8.6-.6,1-1.3,1.3-2.1-.3-.3-.6-.8-.9-1.3-.3-.6-.4-1.1-.5-1.5,0-.4,0-.7,0-1,0-.3,0-.6-.3-.9,0-.2-.4-.3-.8-.3h-2.4c-.4,0-.7,0-.7-.3v-.8c0-.4,0-.5-.3-.5-1,.2-1.6.5-1.8.7-.3.3-.3.6,0,1,.2.2.4.5.4.8,0,1.5-.3,2.5-.4,3-1.6,1.3-2.7,2.1-3.3,2.4-.5.2-1.5,0-3.1-.2-.4-.3-.6-.8-.8-1.6.6-.3,1.1-.7,1.8-1.2.4,0,.8-.2,1.1-.3.3,0,.4-.4.4-.8.3,0,.5-.4.6-.7l1.9-2.3c.6-.5,1.3-.8,2-.9.9,0,2-.6,3.5-1.5.2-.2.2-.6,0-1,.4-.2,1.1-.9,2.1-2.1.4-.5.5-1.1.3-1.8.9-1.1,1.4-1.9,1.5-2.5v-1.8c.4-.3.7-.5.9-.7.2-.2.2-.5.2-.8s0-.6-.4-.8c.6-.9.7-1.7.2-2.5.2-1.2,0-2-.4-2.3s-1-.2-1.6.3c-.4-.2-.9,0-1.5.6,0-.3,0-.5,0-.8.6-.3,1-.6,1.1-.9.2-.3.2-.8.2-1.5s.5-1.2,1.2-2.3c.5-1.1,0-1.5-1-1.1.6-.6,1-1.1,1-1.5s0-.9-.5-1.5c-.2-.4-.4-.4-.7-.2,0-.2.2-.5.2-.8s-.2-1-.6-2c0-1.3-.4-1.9-.9-1.6,0-.7-.3-1.3-.7-2-.5-.8-1-1-1.3-.6-.9-1.3-1.7-1.8-2.4-1.6,0-.6-.2-1.1-.6-1.5-.2-.8-.4-1.4-.7-1.8-.4-.2-.7,0-.8.7,0-.5-.2-1-.5-1.5-.2-.5-.6-.8-1.2-.8h-.6c-.4-.2-.7-.3-.9-.3-.8-.8-1.4-.9-2.1-.2v-.7c-.3-.8-.8-1-1.4-.5-1.1-1.1-2-1.9-2.8-2.2-.6-.2-1.1-.2-1.3.2-.3-.3-.7-.5-1.1-.6-.4,0-.7-.2-1.1-.3-.5,0-.7.3-.7.8-.8,0-1.4.2-1.7.4-.3.2-.4.6-.2,1,0,.4.5.8,1,1,0,.2-.2.4-.2.7s.4.6,1.1.8c.5,0,1,0,1.5,0,0,.5,0,.8.5,1,.6.7,1.4.8,2.4.5v.6c0,0,1.2.5,1.2.5,0,.6.3,1.1.9,1.3h0c0,0,0,.2-.2.2l-1.1,1.2h-.3c-.6-.4-1.2-.6-1.7-.8,0,0-.2-.2-.2-.3l.2-1.5c0-.2,0-.3-.2-.4-.7-.3-1.4-.6-2.2-.7-.2,0-.4,0-.5.2l-.7,1.4c0,0-.2.2-.3.2-.6,0-1.2-.2-1.9-.2s-.2,0-.2-.2l-.2-1.5c0-.2,0-.3-.4-.3h-2.3c-.2,0-.3,0-.3.3l-.2,1.6c0,0,0,.2-.2.2-.7,0-1.3,0-1.9.2h-.3l-.7-1.5c0,0-.2-.2-.5-.2s-.6,0-1.1.3h0c.9-.5,1.8-1.1,2.7-1.8.9-.8,1.4-1.6,1.4-2.4-.2-.2-.6-.3-1.4-.3.4-.4.6-.9.6-1.4-.3-.4-1.2-.5-2.6-.2-1.5.4-2.8,1-4,1.8-1.2.7-2.2,1.6-3.1,2.7-.9,1.1-1.7,2.2-2.2,3.3l.7-1.5c.3-.7.7-1.6,1.1-2.6,0-.5,0-.8,0-1s-.3-.3-.6-.2c-.4,0-1,.6-1.9,1.4-1,1-1.9,2.3-2.7,3.9-.8,1.5-1.3,2.7-1.6,3.6.2-1,0-1.9,0-2.6,0-.3-.4-.4-.7-.2-.4.2-.7.6-1.1,1.1-.4.5-.7,1-1,1.4-.3.5-.7,1.1-1.2,2-.5.8-.9,1.8-1.2,3s-.6,2.7-.8,4.6c0,1.2,0,2.5.3,3.9.4,1.4.7,2.4,1.1,3.1.4.7.7,1.1,1,1.2.2.5.5,1.3.8,2.4.2.5.3.9.2,1.2,0,.3,0,.5.2.6s.3.3.4.7c.3,1.1.7,2.1,1.2,3,0,.5,0,1,0,1.5-1.1-3.1-1.9-5.4-2.6-7-1.3-2.9-2.3-4.2-3-3.9-.4,0-.6.5-.7,1v1.5c0,.8,0,1.7.2,2.6M234.3,150.7l-.3.2-.3-.2h0c0,0,.6-.5.6-.5h.2c0,0-.3.5-.3.5h0ZM235.9,148.1c-.9.9-2,1.8-3.2,2.6h-.4c.7-.6,1.7-1.2,2.9-2.2l.6-.6h-.3c-.4.3-.9.7-1.5,1.1-.5.4-1.2.8-1.9,1.1l-1,.5.2.2h.7c.4.4.6.6.5.9-.2.3-.6.4-1.1,0l-.8-.4c-.3-.3-.6-.5-.9-.6l-.3-.3v-.3c0,0,1.1.4,1.1.4h.3l-.2-.6,1.2-.7c.3,0,.4-.3.4-.6v-.6c.6,0,1.2,0,1.8-.2.6-.3,1.2-.4,1.7-.5.3.2.3.5,0,.8M235.1,146.7c-1.2.3-2.2.5-3.1.7-2.3.4-4.6.8-6.9,1-.6-.2-2.2-1-5-2.6-2-1.2-3.3-2.1-4.1-2.9-.9-1-1.2-1.5-1.1-1.7.6-1,1-1.8,1.2-2.5,0-.3,0-.6,0-.7-.2-.8,0-1.1.5-1.2,1.5,0,2.5,0,3,0,.2,0,.4,0,.4-.2l.5-1h-.3c0,0-.4.5-.4.5v-.8q0,0,.2,0c.9.2,1.4.6,1.3.9-.3.5-.4,1-.4,1.7v1.7c-1.1-.8-2.4-1.5-3.8-2.1h.5c.2,0,.3,0,.4-.2,0,0,0-.2-.4-.2-.7,0-1.1,0-1.3.2s0,.4,0,.6c1.6.8,3,1.6,4.2,2.4,1.9,1.2,3.4,2.2,4.5,3,1,0,2.5-.2,4.4-.4l2.9-.5c1.2-.2,2.4-.4,3.7-.6.5,0,1.1,0,1.8,0s1.4,0,2-.2c.6,1.1.9,2,1.1,2.9,0,.4,0,.7-.2.7-2.6,1-4.5,1.6-5.7,1.8M229.1,142.2l.5-1.3,1.5,1-2,.3h0ZM231.6,137.9c-.4-.2-.6-.3-.9-.2-.2,0-.3.3-.5.7h0c0-.4.2-.7.4-.8h.7l1.6.8,2.7,1c.7.7,1.1,1.2,1.2,1.5-.6,0-1.2,0-1.8,0l-1.4-1c-.6-.7-1-1.2-1.3-1.5s-.5-.5-.8-.7M232.1,139.1c-.3.2-.6.2-.9,0l-.5-.4c.2-.4.4-.6.7-.4l.5.5.2.4h0ZM226.2,131.8c-.2-.3-.5-.4-.7-.5l.5-.3h.3c.4.4.9.9,1.4,1.2,0,0,0,.2,0,.3l-.7,1.4c0,.2,0,.3,0,.4.6.5,1.3.9,2,1.2.2,0,.3,0,.4,0l1-1.2c0,0,.2,0,.3,0,.6.3,1.1.6,1.7.8,0,0,.2.2.2.3l-.2,1.6c0,.2,0,.3.3.4.7.3,1.4.5,2.1.7.2,0,.4,0,.5-.2l.7-1.5c0,0,.2-.2.3,0,.6,0,1.2.2,1.9.2s.2,0,.2.2l.2,1.6c0,.2.2.3.3.3h2.3c.2,0,.3,0,.4-.3l.2-1.5c0,0,0-.2.2-.2.7,0,1.3,0,1.9-.2.2,0,.3,0,.3.2l.7,1.4c0,.2.2.3.5.2.7-.2,1.5-.4,2.2-.7.2,0,.3-.2.2-.4l-.2-1.5c0-.2,0-.3.2-.3.5-.2,1-.5,1.7-.8h.3l1.1,1.2c0,0,.3,0,.4,0,.7-.4,1.3-.9,2-1.3.2,0,.2-.3,0-.4l-.6-1.4v-.3c.6-.4,1-.8,1.4-1.2s.2,0,.4,0h.2c0,.2-.3.4-.5.8v1.2c.2.5,0,1.1-.7,1.7-.6.6-1,1.2-1.3,1.7,0,.4-.5.8-1.3,1.3,0,0-.2-.3-.5-.6,0,0,0,0-.3,0-.8.2-2.3.9-4.6,2-.4.2-1,.8-1.7,1.8h-1.3c-.4-.2-.7-.5-1.1-.8-.3-.2-.8,0-1.5.2-.7-.2-1.4,0-2.1.4-.4.2-.7.2-.9,0l-1.6-1.8c-3.4-1.4-5.2-2.1-5.5-1.9-.3.2-.6.5-.7.9-.3-.2-.8-.6-1.5-1.3l-1-1.2c-.8-.8-1.1-1.6-.9-2.4l.2-1v-.4M223.9,130.3l.2-.3h7.2v.2l.2-.2h3.1l-.2.3h-10.5ZM225.3,130.9l-.4.3h-.4l-.2-.3h1.1,0ZM224.1,117.9c-.4,1.8-.6,4.2-.6,7.1v4.5l-.4-.5c-.3-1.6-.4-3.2-.4-4.9s.3-2.6.6-4.1c.5-1.8.9-2.8,1.3-2.9.2.6.4,1.8.6,3.6.2,1.7.2,3.3,0,4.7-.2,1.8-.5,3-.9,3.6l-.4.9v-3.4c0-.9,0-2,0-3.5,0-1.4,0-3.1.3-4.9,0-.4,0-.5,0-.3M222.4,122.6c-1,1.7-1.7,3.4-2.3,5,0,.5-.2,1.1-.3,1.8,0-.9,0-2.2.5-3.8.4-1.6,1.2-3.3,2.5-5.1-.2.9-.3,1.6-.4,2M222.4,128.4l-.7-.9.5-1.3c0,.7,0,1.5.2,2.3M219.1,122.1c-.2-.2-.5-1.2-.9-3,0-.5.2-1.2.6-2.1.4-.9.9-2.1,1.7-3.4l.6.3c0,0,.2.2,0,.3,0,.6-.2,1.2-.2,1.9s0,.2-.2.2l-1.6.2c-.2,0-.3.2-.3.3v2.3c0,.2,0,.3.3.4l1.5.2c0,0,.2,0,.2.2,0,.7,0,1.3.2,1.9,0,.2,0,.3-.2.3l-1.4.7c-.2,0-.3.2-.2.5.2.7.4,1.4.6,2h0c-.2-.2-.4-.6-.6-1.2-.2-.6-.2-1-.2-1.2.2-.3,0-.6-.2-.9M253.7,100.7c0,.2.3.5.7.9s.9.8,1.5,1l-.8.7h-.4c-.4-.4-.9-.8-1.4-1.2,0,0,0,0,0-.3l.5-1.1h0ZM253.6,99.8c-1.2,0-1.8,0-1.7-.3,0,0,0-.3.6-.6h.9c0,0,.6.6.6.6-.2,0-.3,0-.3.3M262.3,122.7c-.3-.2-.7-.2-1.1,0l-1-.5c0,0-.2-.2-.2-.3,0-.6.2-1.2.3-1.9,0,0,0-.2.2-.2l1.5-.2c.2,0,.3-.2.3-.4v-.7l.6,1c0,1.2-.3,2.2-.6,3.2M263.6,119h.6c-.3,1.7-.6,3.1-.9,4.3l-.5-.3c.4-1.6.6-2.9.7-3.9M259.7,124.9c0,.3-.3.5-.3.7,0,.2-.2.4-.4.6,0-.4-.2-1-.4-1.9-.2-.6-.3-.6-.2,0,.2,1,.3,2.1.4,3-.4-.4-.8-.7-1.1-1-.4-.3-.7-.6-1-.9-.2-.2-.3,0,0,0,.3.4.7.8,1.2,1.3s.8.8,1,.9c0,.2.2.3.2.4-.2.3-.4.5-.7.8-.2,0-.2-.2-.3-.4,0-.2,0-.4-.2-.5,0,0-.5-.4-1.1-.9s-.7-.9-.5-1.3c-.2-.2-.3-.4-.4-.7,0-.3,0-.5,0-.8.2-.3.6,0,1.2.4,0-.4,0-.7,0-1.1,0-.3-.2-.7-.4-1-.3-.5-.6-1-.8-1.4-.2-.5-.3-.8-.2-.9,0,0,.3,0,.6.3.6-.6.9-.8,1.1-.5s.3.7.4,1.3c0,.6,0,1.2,0,1.9h0c0,0,0,.3,0,.3,0,0,0,.6-.2,1.5,0,.2,0,.4.2.5v-.6c0,0,0-.4.2-.8s.2-.6.2-.7,0,0-.3,0c.2,0,.3-.2.4-.3v-1.5c0-.6,0-1-.2-1.3,0-.3-.2-.5-.2-.7s-.2-.3-.4-.3-.6.2-1,.7c.2-1,.4-1.6.6-1.9s.4-.4.6-.3.4.3.4.4.2,0,.3,0c0-.2.2-.3.3-.2,0,0,.2.2.3.4,0,.2.2.4.2.6s0,.6,0,1.2c0,.6,0,1-.2,1.2s-.3.4-.3.7c0,1.2,0,1.7.3,1.7s.3,0,.5-.3c.2-.2.4-.2.5-.2s.2.4.2,1,0,.7.2.2c0-.5.3-.7.5-.7s.3.6,0,1.9c-.9.8-1.5,1.4-1.9,1.9,0-.6,0-.9,0-1.2,0-.2.2-.5.3-.8,0-.3.2-.5.3-.8.2-.5,0-.6,0,0M257.7,129.2l-.3.6v-1.3c.2.3.2.6.3.7M256.2,131.2l-.6-.3h1.1l-.2.3h-.3ZM256.3,131.7l-.3.3c0,.2-.3.2-.5,0s-.2-.4.2-.6l.6.3ZM246.7,130.3l-.2-.3h3.1l.2.2v-.2h7.2v.3h-10.3ZM250.8,134.7l-.3-.3h3l-.5.3h-2.2ZM252.1,135.2h-.2c-.2.2-.3.2-.4,0h0c0,0,.7,0,.7,0h0ZM227.7,133.8l.2-.3h25.3v.3c0,0-25.5,0-25.5,0h0ZM245.4,137.3v-.3c0,0,2.6,0,2.6,0v.3h-2.6ZM246.5,137.8h-.4c-.2.2-.3,0-.4,0h.8,0ZM245,136.4c0-.2,0-.3-.2-.3h3v.3h-2.8ZM247.7,135.5h-14.4c0,0,0-.2-.2-.3h15c-.2,0-.4.2-.4.3M239.2,137.3v-.3h2.8v.3h-2.8ZM241.9,137.8v.3h-2.6v-.3h2.6ZM238.2,136.4c-.5,0-1.1,0-1.9-.3h8.1c-.7.2-1.3.3-1.8.3h-4.4ZM233.1,137.3v-.3h2.7v.3h-2.7ZM235.4,137.8c0,0-.2.2-.4,0h-.4c0,0,.8,0,.8,0h0ZM233.2,136.4v-.3h3.1s-.2,0-.2.3h-2.9ZM232.1,134.7l-.6-.3h18.2l-.5.3h-17.1,0ZM228.1,134.7l-.5-.3h3l-.3.3h-2.2ZM229.8,135.2h0c0,.2-.2.2-.4,0h-.2c0,0,.7,0,.7,0ZM234.1,131.8l.6.3h-6.7l-.4-.3h6.5,0ZM226.9,131.2l-.3-.3h7.2l-.2.3h-6.7ZM224.8,128.6l.2-.3h7v.3h-7.2ZM231.6,129.2v.3h-7.2l.2-.3h7ZM221.4,120.8v-.3h.9l-.2.3h-.7ZM221.7,121.4l-.2.3v-.3h.2ZM221.4,119.9c0-.2,0-.3-.2-.3h1.6v.3h-1.4ZM219.3,119.1v-.3h3.8v.3h-3.8ZM219.3,118.2v-.3h4.2v.3h-4.2ZM219.3,117.3v-.3h4.7l-.3.3h-4.5,0ZM220.9,116.5c.3,0,.5,0,.6-.3h3.1v.3h-3.7ZM237.4,109.5v-.3h.5v.3h-.5ZM237.6,110.1v.3h-.3v-.3h.3ZM237.4,108.7v-.3h.8v.3h-.8ZM237.4,103.2h-4.7c.3-.2.7-.3,1.2-.6h3.5v.6ZM237.4,103.5v.6h-6.1c.3-.2.6-.3.9-.6h5.2ZM237.4,104.3v.6h-7.1c.2-.2.4-.4.7-.6h6.4ZM237.3,105.2v.6h-7.9l.6-.6h7.4,0ZM237.3,106.1v.6h-8.6l.5-.6h8.2,0ZM237.2,106.9v.6h-9.3l.4-.6h8.9ZM237.2,107.8v.6h-9.8l.4-.6h9.4ZM237.1,108.7v.6h-10.2l.3-.6h9.9ZM237.1,109.5v.6h-7.8l-2.2-.6h10ZM237.1,110.4v.6h-4.5l-2.1-.6h6.6ZM237,111.3v.6h-1.2l-2.1-.6h3.3ZM237.5,112.9l3-9.1,3,9.1h9.9l-8.1,5.9,3,9.4-7.8-5.9-7.8,5.9,3-9.4-8.1-5.9h9.9ZM255.2,106.1h-2.7l-.3-.3h3.1v.3M244,111v-.6h6.6l-2.1.6h-4.5ZM247.3,111.3l-2.1.6h-1.1v-.6h3.2ZM244,110.1v-.6h9.9l-2.2.6h-7.7ZM244,109.2v-.6h9.9l.3.6h-10.2ZM243.9,108.4v-.6h9.4l.4.6h-9.8,0ZM243.9,107.5v-.6h8.8l.4.6h-9.2ZM252.4,106.6h-8.6v-.6h8.1l.5.6h0ZM243.8,105.8v-.6h7.3l.6.6h-7.9ZM243.7,104.3h6.4c.2.2.4.4.7.6h-7v-.6h0ZM250.7,104.3l-.4-.3h5.4v.3h-5ZM249.4,103.5l-.5-.3h5.3l.3.3h-5.1ZM249.7,104h-6v-.6h5.1c.3.2.6.4.9.6M243.7,110.4h-.2v-.3c0,0,0,0,0,0v.3h0ZM243.6,103.2v-.6h3.5c.5.2.9.4,1.2.6h-4.7ZM243.6,109.2v.3h-.4v-.3c0,0,.4,0,.4,0ZM253.8,113.6h5.5v.3h-5.9l.4-.3h0ZM251.7,127.4l-.4-.6h1.6l-.5.6h-.7ZM252.1,127.7h0c0,0,0,0,0,0h.2ZM241.4,124.3l.5.6h-2.6l.4-.6h1.7ZM239.9,124l.4-.6h.3l.5.6h-1.2ZM241.5,124l.4.3h-.2l-.2-.3ZM239.3,124.3h-.2l.4-.3-.2.3ZM242.1,125.1l.5.6h-4.1l.5-.6h3.1ZM243.5,126.9l.5.6h-6.8l.4-.6h5.9ZM237.8,126.6l.4-.6h4.5l.5.6h-5.4ZM244.2,127.7l.5.6h-8.2l.4-.6s7.3,0,7.3,0ZM244.9,128.6l.5.6h-9.7l.5-.6h8.7ZM245.3,128.6l-.2-.3h2.2l.4.3h-2.4ZM244.6,127.7l-.2-.3h1.8l.4.3h-2ZM243.9,126.9l-.2-.3h1.3l.4.3h-1.5ZM243.2,126l-.2-.3h.9l.4.3h-1.1,0ZM242.5,125.1l-.2-.3h.5l.4.3h-.7ZM238.6,125.1h-.6l.4-.3h.5l-.2.3h0ZM238.1,125.7l-.2.3h-1.1l.4-.3h.9ZM237.4,126.6l-.2.3h-1.5l.4-.3h1.3ZM236.7,127.4l-.2.3h-1.9l.4-.3h1.8,0ZM236,128.3l-.2.3h-2.4l.4-.3h2.2ZM245.6,129.5l.5.6h-11.1l.5-.6h10.1ZM246,129.5l-.2-.3h2.7l.4.3h-2.9ZM254.9,120.5h-7.8l-.4-.6h8.3c0,0-.2.3,0,.6M255.2,121.4h-7.5l-.4-.6h7.6c0,.2,0,.4.2.6M246.9,120.5l.2.3h-.3v-.3c0,0,0,0,0,0h0ZM247.4,121.4l.2.3h-.6v-.3c0,0,.4,0,.4,0h0ZM248,122.2l.2.3h-.9v-.3c0,0,.7,0,.7,0h0ZM248.5,123.1l.2.3h-1.1v-.3c0,0,.9,0,.9,0h0ZM250.5,125.7l-.4-.6h3.8l-.3.6h-3.1ZM253.5,126l-.4.6h-2l-.3-.6h2.8,0ZM250,124.8l-.4-.6h4.8l-.3.6h-4.2,0ZM249.4,124l-.4-.6h5.8l-.2.6h-5.2ZM254.4,124.8h.7v.3h-.8v-.3h0ZM254.7,124.3l.2-.3h.6l-.2.3h-.6ZM248.8,123.1l-.4-.6h6.7l-.2.6h-6.1ZM249.1,124l.2.3h-1.4v-.3c0,0,1.2,0,1.2,0ZM249.7,124.8l.2.3h-1.7v-.3c0,0,1.5,0,1.5,0h0ZM250.2,125.7l.2.3h-2v-.3c0,0,1.8,0,1.8,0ZM248.7,126.9v-.3c0,0,2.1,0,2.1,0l.2.3h-2.3ZM251.4,127.4l.2.3h-2.6v-.3c0,0,2.4,0,2.4,0h0ZM252.7,127.4h3.6l.4.3h-4.3l.3-.3h0ZM253.2,126.9l.2-.3h2.1l.2.3h-2.6,0ZM255.4,126h-1.6l.2-.3h1.5v.3h0ZM255.1,123.4v-.3h1.1v.3c0,0-1.1,0-1.1,0h0ZM255.4,122.5v-.3h.4l.2.3h-.6ZM255.2,122.2h-7l-.4-.6h7.5l-.2.6h0ZM246.6,119.6l-.4-.6h9.8v.6h-9.5,0ZM247,118.8l1.5-.6h7.7v.6h-9.2ZM247.4,118.2l.4-.3h.6l-.7.3h-.3ZM250.6,117l-.7.3h-1.3l.4-.3h1.6ZM249.8,116.5l.4-.3h2.7l-.7.3h-2.4ZM249.2,117.9l1.5-.6h5.4v.6h-6.9ZM251.5,117l1.5-.6h3.1v.6h-4.6ZM253.7,116.2l1.5-.6h.8v.6h-2.3ZM254.4,115.6h-3.4l.4-.3h3.7l-.7.3h0ZM228.7,127.4l-.5-.6h1.6l-.4.6h-.7ZM229.2,127.7h0c0,0,0,0,0,0h.2ZM227.9,126.6l-.4-.6h2.9l-.3.6h-2.2ZM227.3,125.7l-.3-.6h4l-.4.6h-3.3ZM226.3,118.2h6.3l1.5.6h-7.8c0-.3,0-.5,0-.6M227.3,116.2h-2.4v-.6h.9l1.5.6h0ZM226,115.3h3.7l.4.3h-3.4l-.7-.3ZM228.1,116.5l1.5.6h-4.7v-.6h3.2ZM228.9,116.5l-.7-.3h2.7l.4.3h-2.4ZM232.1,117l.4.3h-1.3l-.7-.3h1.6ZM232.7,117.9h.6l.4.3h-.2l-.7-.3h0ZM234.9,119.1l-.4.6h-7.8c0-.4-.2-.5-.2-.6h-.3,8.7ZM233.7,120.8l-.4.6h-6.8v-.6h7.2ZM226.7,120.5v-.6h7.6l-.4.6h-7.3,0ZM233.2,121.7l-.4.6h-6.3v-.6h6.7ZM232.6,122.5l-.4.6h-6v-.6h6.4ZM232,123.4l-.4.6h-5.3l-.2-.5h5.9ZM226.3,124.3h-.4l.2-.3h.2v.3ZM226.5,124.8v.3c0,0-.9,0-.9,0v-.3h.9ZM226.5,124.3h5l-.4.6h-4.3l-.3-.6ZM231.4,124.8h1.6v.3h-1.8l.2-.3h0ZM231.8,124.3l.2-.3h1.3v.3h-1.5ZM232.3,123.4l.2-.3h1v.3h-1.2ZM232.9,122.5l.2-.3h.8v.3h-1ZM233.4,121.7l.2-.3h.5v.3h-.7ZM234,120.8l.2-.3h.2v.3h-.4ZM226.3,120.3c0,1-.3,2.2-.7,3.7,0-1.2,0-2-.2-2.5l.3-.8q0-.3-.2,0l-.2.4v-.7l.5-.6c.3-.3.5-.2.4.5M225.5,125.7h1.5l.2.3h-1.8v-.3h0ZM230.8,125.7h1.9v.3h-2.1l.2-.3h0ZM227.7,113.9h-5.7l-.7-.3h6l.4.3ZM221.4,115.6v-.3h3.4v.3h-3.4ZM221.5,114.7v-.3h6.9l.4.3h-7.4,0ZM224.9,117.3h5.4l1.5.6h-6.9v-.6ZM225.8,118.5q.3,0,.2.4l-.6.9c0-.4,0-.7-.2-1,.2-.2.4-.3.6-.4M225.3,126.6h2.3l.2.3h-2.6v-.3h0ZM228.4,127.4l.3.3h-3.6v-.3h3.3ZM229.5,127.7l.2-.3h2.5v.3h-2.7ZM230.1,126.9l.2-.3h2.2v.3h-2.4ZM232.7,129.2h2.7l-.2.3h-2.8l.4-.3h0ZM246.3,130.3l.4.6h-12.4l.5-.6h11.5ZM247,131.2v.2c0,0-.6.4-.6.4h-11.6l-.8-.4.2-.2h12.9,0ZM238,132.6c-.7,0-1.5-.3-2.5-.6h10.1c-.8.2-1.6.4-2.4.6h-5.2ZM238.2,132.9h-10.1l.2-.3h8.2c.3,0,.9.2,1.7.3M244.6,132.6h8.2l.2.3h-10.1c.8,0,1.4-.2,1.7-.3M246.4,132.1l.6-.3h6.5l-.4.3h-6.7ZM247.5,131.2l-.2-.3h7.2l-.3.3h-6.7ZM249.4,129.2h7.6v.3h-7.5v-.3h0ZM249.3,128.6v-.3c0,0,7.8,0,7.8,0v.3h-7.8,0ZM256.4,124h0-.2,0ZM259.5,122.2l.5.3h-.7v-.3h.3,0ZM259.3,121.7l.2-.3v.3h-.2ZM259.8,119.6s0,0-.2.3v-.3h.2ZM259.6,118.8h2.2v.3h-2.1v-.3h0ZM259.7,120.5v.3-.3h0,0ZM259.7,123.1l-.4.3-.2-.3h.6ZM260.5,123.1h.6v.3h-.5l-.2-.3h0ZM261.8,118.2h-2.4l-.2-.3h2.6v.3ZM261.8,117.3h-5.2v-.3h5.2v.3ZM260.4,116.3c0,0-.2,0-.2-.3,0-.4,0-.9,0-1.3h.6c.3.7.6,1.2,1,1.8l-1.3-.2h0ZM260.1,114.3c0,0-.2,0-.3-.3,0,0,0-.4,0-.9,0,.4.3.8.5,1.2h-.4M259.9,116.5h-3.4v-.3h3.2c0,.2,0,.3.2.3M256.4,115.6v-.3h3.3v.3h-3.3ZM252.2,114.7l.4-.3h6.7l.2.3h-7.4,0ZM259.3,113h-4.7l.4-.3h4.4v.3h0ZM245.2,112.1l1.1-.3h12.5l.2.3h-13.8ZM248.4,111.3l1.1-.3h8.5l.3.3h-10,0ZM251.7,110.4l1.1-.3h4.5l.4.3h-6.1,0ZM254.2,108.4h1.1v.3c0,0-.9,0-.9,0l-.2-.3h0ZM254.7,109.5l-.2-.3h1.6l.5.3h-1.9ZM255.4,107.8h-1.6l-.2-.3h2.2c-.2,0-.4.2-.4.3M253.2,106.9l-.2-.3h2.3l.2.3h-2.3ZM251.6,105.2l-.4-.3h4.4v.3c0,0-4,0-4,0h0ZM253.5,102.6h-5.6l-.7-.3h6l.4.3h0ZM252.9,101.7h-7.5c-.5,0-.9-.2-1.3-.3h9l-.2.3h0ZM246.3,102.3h-2.7v-.6h.5c.9.2,1.6.3,2.3.6M243.6,108.4v.3h-.7v-.3h.7ZM242.7,107.8v-.3c0,0,.9,0,.9,0v.3h-.9ZM242.4,106.9v-.3c0,0,1.1,0,1.1,0v.3h-1.1ZM243.5,106.1h-1.4v-.3c0,0,1.4,0,1.4,0v.3h0ZM241.8,105.2v-.3c0,0,1.6,0,1.6,0v.3h-1.6ZM241.5,104.3v-.3c0,0,1.9,0,1.9,0v.3h-1.9ZM243.3,103.5h-2.1v-.3h2.1v.3h0ZM240.9,102.6v-.3h2.3v.3h-2.3ZM240.6,101.7v-.3c0,0-.2.3-.2.3h-2.6v-.3h5.4v.3h-2.6,0ZM240.2,102.3v.3h-2.5v-.3h2.5ZM239.9,103.2v.3h-2.2v-.3h2.2ZM239.7,104v.3h-2v-.3h2ZM239.4,104.9v.3h-1.7v-.3h1.7ZM239.1,105.8v.3h-1.5v-.3h1.5ZM238.8,106.6v.3h-1.3v-.3h1.3ZM238.5,107.5v.3h-1v-.3h1ZM237.5,102.3h-2.7c.6-.2,1.4-.4,2.3-.6h.5v.6h0ZM235.5,101.7h-8l.2-.3h9c-.3,0-.7.2-1.2.3M233.8,102.3l-.7.3h-6l.2-.3h6.5ZM232,103.2l-.5.3h-4.7v-.3h5.2ZM230.8,104l-.4.3h-3.7v-.3h4.1,0ZM229.8,104.9l-.3.3h-3v-.3h3.3ZM228.9,105.8l-.2.3h-2.5v-.3h2.8,0ZM228.1,106.6l-.3.3h-2.2l.2-.3h2.3ZM227.5,107.5l-.2.3h-2.1l.2-.3h2.1ZM226.9,108.4l-.2.3h-2l.2-.3h2ZM226.6,109.2l-.2.3h-2.2l.2-.3h2.2ZM228.3,110.1l1.1.3h-5.8l.2-.3h4.5ZM231.6,111l1.1.3h-9.8l.3-.3h8.4ZM234.9,111.8l1.1.3h-13.7l.3-.3h12.4,0ZM226.1,112.7l.4.3h-5.3l.5-.3h4.4ZM219.8,123.4v-.3h.9l-.2.3h-.8,0ZM220.4,124v.3h-.3v-.3h.3ZM249.8,138.6c-.3,0-.7,0-1.2.3-.5.2-.8.5-.8.9s-.2.4-.4.5c-.5.3-.9.5-1.3.7h-1l.5-.8c.3-.3.6-.6,1-.8,1.9-.9,3.1-1.5,3.8-1.6h.3l.3.3-.4.2c-.2.2-.5.3-.8.2M251,140.1l-.6.3c0-.2,0-.6.2-1.1l.5.9h0ZM248.3,140.4c0-.4,0-.7.4-.9.4-.3.7-.4,1.2-.3.2,0,.2.3,0,1,0,.3-.8.7-2,1.1h-1.1c0,0,1.2-.8,1.2-.8l.3.5h.2l-.2-.5h0ZM242.3,140.9l-.7-.4h.4l.3.4h0ZM243.6,145.6l-.2-.5-.9,1.1-.7.5c-.3.3-.7.4-1,.3l-1.2-.6.6-.3h.2c0,.5,0,.4.4,0l1-1c0-.6,0-1.4-.4-2.3-.4-.9-.6-1.5-.8-1.8,0-.2-.6-.2-1.5,0,.6-.3,1.3-.3,2,0l.8.3.4-.2.2.2c1.1,1.2,1.8,2.1,1.9,2.5s.2.9,0,1.3c-.4.6-.7.8-.9.6M247.3,150.3c-.2-.2-.3-.3-.2-.5l.7.6c0,0-.3,0-.5,0M251.6,150.4h.4v.2c0,0-1,.3-1,.3-.4.3-.8.6-1.3.7h-.6v-.5c0-.2.2-.3.4-.4.2,0,.5-.2.8-.2h.8c0,0,.5,0,.5,0h0ZM250.4,150c-.6,0-1,0-1.1.2h-.5c-.6-.4-1.2-.9-1.5-1.2l-1.6-1.2c.3-.2.9,0,1.9.2l2.8,2.1h0ZM255.1,143.2h1.5c.6-.2,1.8-1.2,3.7-2.7,1.8-1.4,3.3-2.3,4.6-2.8.4-.2.4-.4,0-.5-.3,0-.9,0-1.6,0-.2.2-.2.3,0,.4h.7c-1.5.8-2.7,1.6-3.7,2.3,0-.5.2-1.4.2-2.6s-.2-.8-.4-1.1c-.2-.2,0-.4.6-.6h.5c0,0,0,.6,0,.6l-.6-.2v.3c.2.2.4.4.8.5h1.8c0,0,.8,0,.8,0,.9,0,1.4.3,1.4.7s0,.8,0,1.2c.2,1,.5,1.9,1.1,2.7,0,.4-.4.9-.9,1.4l-1.7,1.1c-1.5,1.1-3.5,2.5-6.1,4.2-1.8,0-4,0-6.6-.4-1.8-.2-4-.7-6.4-1.4h-.5c0,0,.2-.4.2-.4.4-.5.6-.8.6-1s0-.5-.2-1.1c0-.6-.6-1.3-1.2-2.1v-.2h.5c1.4,0,2.6.2,3.7.5,1.1.3,2.4.5,3.9.7,1.4.3,2.5.4,3.1.5M252.6,142.4c-.6,0-1.5-.3-2.8-.5l1.2-.4c.6,0,1,0,1.1-.4,0,.5.3.9.6,1.3M260.2,133.2c-.3.3-.4.3-.4,0l.5-.5v.6h0ZM259.6,132.5c-.4.5-.6,1-.4,1.5-.6.3-1.2.8-1.8,1.5-.6.6-1,1.2-1.3,1.6-.3.4-.6.7-1,.8-.4.2-.8,0-1.3-.3v.8c0,0-2.4,1.4-2.4,1.4l-.5-1c1.5-.8,2.4-1.5,2.7-2.2.3-.6.6-1,1-1.4s.6-.8.8-1.4v-1.6c.4.4.7.5,1,.3.5-.9,1-1.7,1.5-2.4s1.1-1.4,1.7-2.1,1.1-1.2,1.5-1.6v.8c-1.4,1.6-2.2,2.8-2.5,3.4-1.1,1.7-1.9,3.1-2.3,4.1-.2.6-.6,1-1.1,1.3-.4.2-.6.4-.8.6-.2.3,0,.4.3.2.2-.2.5-.4.7-.5.5-.2,1.5-1.4,3.1-3.5v-1.2l.3-.6c0,.6,0,1,.2,1.1,0,0,.3,0,.5-.5s.8-1.6,1.7-3.6c-.2.6-.2,1.1,0,1.6-.5.4-.7,1-.4,1.9l-1.1,1h-.1ZM258,132.2v.6l-.8.9.8-1.5ZM267.1,125.1c0,.6-.3,1-.6,1.4-.9,1-1.3,1.7-1.1,1.9.2.4.2.9,0,1.4-.5.6-1.1,1.3-1.9,2,.2.4,0,.8-.5,1.1-.6.4-1.4.7-2.1.9,1.4-1.1,2.3-2.3,2.7-3.5.5-.4.9-.7,1.2-.8.3-.2.4-.3.2-.3-.4.2-.8.4-1.3.7.4-.8.7-1.8.9-2.7.9-.8,1.4-1.5,1.6-2,.3-.5.3-.6,0-.3-.3.6-.8,1.1-1.5,1.8.3-1,.6-2,.8-3.2,0-.7,0-.8,0-.4l-.3,1.2c-.2-.5-.3-.8-.5-1.1l.4,1.4c0,.6-.3,1.3-.6,2.4-.3-.9-.7-1.7-1.2-2.4q-.5-.6-.2,0c.5.7.9,1.7,1.3,2.9-.3,1.1-.6,2-.9,2.7-.3-.4-.5-.7-.8-.8-.2,0-.2,0,0,.2.3.3.5.6.7.9-.3.6-.6,1.2-1.1,1.7-.4.5-.9.9-1.3,1.2.5-.8.7-1.7.5-2.7,0-.2,0-.3.4-.4.3,0,.4-.2.3-.4-.2-.5-.4-.9-.4-1.2h.8c.3-.2.3-.5,0-.9s-.6-.9-.6-1.6.3-.5.8-.4c.2,0,.3-.3,0-.9l-.6-.8c-.4-.9-.2-1.2.5-1l.9.5c.6.2.9-.2.8-1.2,0-.2.2-.3.5,0,.3,0,.7,0,.9-.8.3-.3.5,0,.7.9,0,1.2.2,1.7.9,1.7s0,.4,0,.9M266.4,117.8c.5-.4,1-.5,1.4-.2.2.3.3.7.3,1s0,.7-.3,1.1c.4,0,.6.2.7.5-.2.8-.5,1.3-1.1,1.6.5,0,.8.2.8.5s0,.4-.2.5c0,0-.4.3-.8.4l-.4-.7c0-.5-.2-1-.5-1.5.2,0,.4-.3.7-.4q.2,0,0,0c-.4,0-.6.2-.8.3h0c.2-.7.5-1.4,1-2,0-.3,0-.3-.2,0-.4.5-.7,1.1-1,1.7,0,0-.2-.4-.3-.7,0-.4-.2-.4-.2,0s.2.9.3,1.1c-.5.8-.9,1.1-1.2.9.2-1.1.4-2.2.7-3.4.5-.5,1-.7,1.3-.5M260.4,100.8c.2-.3.3-.6.3-.8s.3-.2.6,0c.3.2.9.7,1.6,1.8.4-.4.7-.3,1,.4.4.6.6,1.4.5,2.2.8-.4,1.1,0,.9.9.4.7.6,1.3.6,1.7s0,.8-.2,1.2c-.2.4-.3.6-.3.8s0,.2.2,0,.4-.4.9-.5c.3.6.4,1,.4,1.2s-.2.5-.5.8-.5.6-.5,1,0,.3.3.3l.6-.2c.3,0,.3.2,0,.7-.3.6-.5,1.1-.7,1.5s-.2.7-.2,1c0,.5,0,.8-.3.9v-2c0-.7-.2-1.5-.4-2.4.2-.2.4-.7.7-1.6.2-.4,0-.5,0-.2-.2.7-.5,1.1-.7,1.2-.2-.8-.5-1.8-.8-3,.3-.6.5-1.3.6-2.1,0-.7,0-.8,0-.2,0,.8-.4,1.5-.7,2-.3-.9-.6-1.8-.9-2.6,0-.5.2-1,0-1.6q0-.6-.2,0c0,.5,0,.9-.2,1.2l-.7-1.9-.5-1.1q-.2-.4-.2,0l.4,1.4c-.3-.4-.6-.7-.9-.8q-.3-.2-.2,0c.5.4.9.9,1.3,1.4.3.7.6,1.4.9,2.2-.8-.7-1.4-1.1-1.8-1.2-.4-.2-.4,0,0,.2.6.4,1.3,1,2.1,2,.3.8.5,1.5.8,2.3-.4-.2-.9-.7-1.5-1.5-.3-.3-.3-.2,0,0,.5.7,1.1,1.4,1.7,1.9l.5,2c-.5-.5-1.2-1-2-1.6q-.4-.2,0,0c.7.5,1.5,1.3,2.2,2.3.2.6.3,1.8.3,3.4s-.3.7-.9.9v1.6h-1c-.4-.6-.8-1.1-1-1.5-.2-.3-.6-.9-1-1.6s-.8-1.3-1-1.7c-.2-.4-.2-.9,0-1.4s.2-.8.3-1.1c0-.2,0-.3,0,0-.3.5-.5.9-.6,1.4l-.7-1.9c0-.8.5-1.7,1.2-2.9q.2-.4,0,0c-.7.9-1.1,1.8-1.3,2.7l-1-2.3c0-.4.2-1.2.8-2.4.3-.6.2-.6-.2,0-.4.7-.6,1.3-.8,1.9-.3-1.3-.6-2.3-.9-3.2h-.2v.3c.3,1.1.5,2.1.8,2.9-.4-.4-.9-.7-1.4-.9-.3-.2-.3,0,0,0,.6.4,1.1.8,1.5,1.1.3.6.5,1.2.7,1.7-.4-.3-1.1-.6-2-1q-.4,0,0,0c1.2.5,1.9,1,2.2,1.4l.7,1.8c-.2,0-.6-.4-1-1.1-.3-.6-1.2-1.2-2.5-1.8-.3,0-.4-.3-.4-.7s.3-.3.8-.3c0-.4-.3-.7-.5-.9l-.3-.4c-.4-.7,0-1.1.6-1.1-.3-.4-.4-.8-.3-1,0-.4,0-.8.3-1.2,0-.3.2-.5.3-.8.4.2.8.5,1.2.6.3.2.5.5.6.9l-.2,1c0,.2.2,0,.5-.2.3-.4.5-.6.7-.7.2,0,.5.3.7.6.2.4,0,1.2-.2,2.3l-.4.9c.8-1,1.4-1.5,1.8-1.4.2,0,.2.3,0,.7s0,.7,0,1.1,0,.7-.4,1c-.3.3-.5.7-.6,1.3.7-.5,1-.4.9.3l-.4,1.4c0,.7,0,1,.3,1s.5,0,.6,0v.7c-.2.5-.3.8-.3.9s0,.3.2.4c0,0,.3,0,.7,0,.3,0,.5,0,.5.3v1c0,.3,0,.6.3,1,.2.2.4.4.6.4l.3-.4c-.4,0-.7-.3-.6-.9v-1.4c-.2-.4-.4-.7-.5-.7-.2,0-.6-1.2-1.2-3.3h.7c.5,1.9.9,2.9,1.2,3.1.3,0,.5.3.4.5,0,.2,0,.6.2,1.2.4,0,.6-.5.7-1.1s0-1-.5-1.3-.7-.5-.8-.7c0-.4,0-.6.4-.7.2,0-.3-.7-1.8-1.6-.7-.5-1-1-.7-1.4,0-.2.3-.2.6,0,.3.2.5.3.6.2.2-.3,0-.5-.4-.7-.4,0-.6-.3-.6-.4v-2.3c-.2-.4-.7-.3-1.4,0,.2-.4.2-.7,0-1.1,0-.4-.2-.7-.5-1l-.3-1c0-.4,0-.6.6-.7-.2-.7-.2-1.2,0-1.5M263.8,113.6l.5.5c-.4,0-.5-.3-.5-.5M256.4,95.2c0-.3.2-.4.6-.3s.8,1,1.1,2.5l.5.2c.2-.4.3-.6.4-.6.2,0,.4.4.5,1.1.4.4.7,1.1.6,2-.3.4-.4.8-.5,1.4l-.3-.6c-.2-.7-.2-1.4-.2-2.1s0-.3,0,0v1.6c-.6-.8-1.2-1.5-1.9-2.1,0-.5-.2-1,0-1.7,0-.5,0-.7-.2-.4v1.9c-.5-.5-1.1-1.3-1.8-2.2-.2-.3-.3-.4-.2-.2.4.8.9,1.5,1.3,2,.5.5.8,1,1.1,1.3-.6-.2-1.1-.3-1.5-.3s-.8-.2-1.2-.4q-.3,0,0,.2c.2,0,.6.3,1.2.4.6,0,1.2.3,1.7.6.3.2.7.6,1.2,1.4l.4.9c-.6-.3-1.3-.6-2.1-.7-.8,0-1.2-.3-1.3-.4q-.6-.2-.2,0c0,0,.6.3,1.4.5s1.6.5,2.4.9v.2c0,.2,0,.4,0,.7l.2.7c-.2-.2-.5,0-.8.3,0-.3,0-.6,0-.8-.3-.5-1.1-1-2.3-1.5l-.2.4c-1-.3-1.6-.9-1.8-1.7,0-.3.2-.4.7-.4s.6-.2.2-.4c-.6-.2-1.2-.6-1.6-1.1-.3-.4-.3-.6,0-.8h.5c0,0,.2-.4.2-.4l-.3-1.2c0-.6,0-1,.5-1.3.6,0,1.2,0,1.8.5M249.8,96.1v-.8h-.6c-.6.3-1.2,0-1.8-.4-.4,0-.6,0-.5-.5.2-.3,0-.5,0-.5h-1c-.6,0-1-.2-1.2-.4,0-.2,0-.5.3-.8-.6-.2-1-.5-1.1-.8s0-.5.3-.7.9-.2,1.8,0c-.2-.2-.3-.5-.2-.8,0-.3.6,0,1.7.4l.7.4c.2-.3.5-.4.9-.3.5.2,1,.5,1.4.9.4.3.9.8,1.5,1.5.5-.3.8-.2,1,.2v.8c-.4-.5-1-.5-1.7,0l-.5-.2c-.6-.8-1-1.4-1.2-1.8,0-.5-.2-.6-.2,0s.3,1,.8,1.7c-1-.3-1.7-.7-2.2-1.2s-.8-.9-1.1-1.2c-.2-.4-.3-.4-.3,0,.3.5.6.9,1.1,1.4-.4-.2-.7-.3-1-.5-.8-.3-1.4-.5-1.9-.5s-.3,0,0,0c.9.2,1.5.4,1.9.6s.7.4.8.5c-.6.3-1.3.4-1.9.4h-.6s.2,0,.4,0c.8,0,1.6,0,2.4-.3.6.3,1.3.6,2.1.9-.5,0-1,.3-1.4.7s0,.2.3,0c.4-.3.9-.4,1.6-.5l.6.2c0,.6,0,1.2.4,1.8h-.4c0,0-1.1-.2-1.1-.2h0ZM251.2,96.9l.6-.2c.3-.3.3-.5,0-.7s-.4-.6-.4-1.2c.2-.5.8-.5,1.8,0,.4-.8.9-1.1,1.5-.7-.6,0-1,.3-1.1.8v1.3c-.2-.3-.5-.6-.8-.8-.6-.3-.7-.3-.3,0,.4.4.7.8,1,1.2-.5.4-1,.6-1.6.5-.2,0-.2,0,0,.2h.9c0,.4,0,.7.2,1.1-.3,0-.7,0-1.1,0-.5-.3-.7-.7-.8-1.3M251.7,98.8h0l-.2.3h0l.3-.3h0ZM251,99.7h.4c0,.2,0,.3.4.3h-1.1l.2-.3h0ZM253.4,100.6l-.2.3h-25.3l.2-.3h25.3ZM233,98.8c0,.2,0,.3-.2.3-.6.2-1.1.5-1.7.8h-.3l-1-1.2-.3-.3h.3c1.1-.6,2.1-1,3-1.4h0c0,0,.2,1.7.2,1.7h0ZM229.6,99.1h-.7v-.3h.4l.3.3h0ZM230.1,99.7l.3.3h-1.8v-.3h1.6,0ZM248.9,99.7c.2,0,.4.2.5.3h-17.7l.6-.3h16.6,0ZM245.9,96.4s.2,0,.4,0h-.6s0,0,.2,0M245.4,97.1h2.6v.3h-2.7v-.3h0ZM245,97.9h2.8v.3h-3s0-.2.2-.3M239.4,96.2h2.3v.3h-2.4v-.3h0ZM239.3,97.1h2.5v.3h-2.6v-.3h0ZM238.5,98h4c.7,0,1.4,0,2.2.3h-8.3c.7-.2,1.4-.3,2.1-.3M247.6,98.8s0,.2.3.3h-14.6c0,0,.2-.2,0-.3h14.3,0ZM236.2,98.3h-2.9v-.3h2.7c0,.2.2.3.2.3M235.2,96.4s.2,0,.2,0h-.6c.2,0,.3,0,.4,0M235.7,97.1v.3c0,0-2.6,0-2.6,0v-.3h2.6ZM237.6,92.4c0,.4-.3.9-.8,1.4-.8.7-1.8,1.4-2.9,2-1.2.6-2.7,1.3-4.5,2.1v-.2c2.3-1.7,4.4-3.1,6.3-4.1.5-.3.5-.4,0-.3-.7.3-1.4.7-2.2,1.2-1.3.9-2.6,1.7-3.9,2.6v-.4c2.6-2.2,4.6-3.7,6.3-4.3.8-.2,1.4-.2,1.9,0M230,93.2c1.2-1,2.7-1.8,4.3-2.3.8-.2,1.5-.3,2.1-.3s.4.2.2.5l-.7,1c-.6,0-1.5.5-2.7,1.1-1.1.6-2.3,1.5-3.6,2.6l-.5.3c-.2-.2-.7,0-1.3.2,2-1.7,3.8-3,5.3-3.9,1-.5,1.5-.8,1.7-1-.5,0-1.2.4-2.1.9-.9.5-2.4,1.5-4.4,3l-2,1.8c1.1-1.5,2.3-2.8,3.5-3.8M228,96.9c.4-.2.6-.3.7-.2,0,.2,0,.5,0,.9,0,.4-.3,1.2-.9,2.5l-1.2,2.4c-.9,0-1.7.5-2.5,1.2.4-.7.9-1.5,1.5-2.4s1.5-2.2,2.7-4c.2-.3.2-.4,0-.3s-.7.8-1.5,1.9-1.9,2.8-3.3,5.2c-.4.6-1.3,2-2.8,4.3,0,0-.4.2-1,.2l-1.1,3.2c0,0,.4,0,.8,0-.2.4-.6.7-1,.7l-.3-.2v-.5c0,0,0-.3,0-.3h.3l1.2-2.9-.7-.9.2-.5c.2.5.4.7.6.8.3-.6.8-1.4,1.4-2.5.6-1,1.3-2.1,2.1-3.2v-.3q0-.2.2,0l1.7-2.4-1.4,2.4c.2.2,0,.4-.3.5-1.4,1.9-2.5,3.8-3.3,5.6h.3c.2.2.4,0,.6-.2l2-3.6,1.9-3.6c.9-1.6,2-2.9,3.1-3.8M220.7,108.9c-.5.9-.8,1.6-1.1,2.3h-.3l.7-2.2h.6c0,0,0,0,0,0ZM219.2,112.6l-.7,1.8-.5,1.6.2-1.3.2-1,.2-1h.5c0,0,0,0,0,0h0ZM218.1,111c.2-1,.4-1.9.6-2.7l.3.3-.9,2.4h0ZM219.8,105.1c.9-1.4,2-3.5,3.2-6.1.4-.8.9-1.7,1.7-2.6.2-.5,0-.5-.4,0-1.1,1.4-2.4,3.5-3.8,6.4l.6-1.6c0-.4.5-1.2,1.1-2.4.6-1.3,1.2-2.3,1.8-3s1-1.2,1.2-1.4c.8-.7,1.3-1,1.4-1s0,.2,0,.4l-1.6,4.2c-1.1,2.1-2.5,4.2-4.2,6.5-.7.8-1.2,1.3-1.4,1.5s-.3.4-.4.6v-.6c0,0,.8-1,.8-1h0ZM218.5,123.3c0-.4,0-.7-.2-.8,0,0-.2-.3-.3-.6,0-.3-.3-.7-.5-1.3s-.3-1.1-.4-1.6c-.6-.3-1-.7-1.3-1.4-.3-.6-.5-1.5-.8-2.5-.2-1-.3-2.2-.3-3.7,0-1.7.4-3.3.7-4.9.6-2.2,1.7-4.3,3.4-6.3.4-.4.6-.5.7-.3v2.6c0,.8-.3,1.8-.6,2.8-.9,2.9-1.4,4.8-1.6,5.8-.3,1.2-.7,2.7-1.1,4.6-.2-.9,0-2.8.3-5.8.4-2.9.9-5,1.5-6.3.3-.6.3-.7,0-.3-1.4,2.3-2.1,5.7-2.4,10.2,0,1.6,0,2.7.3,3.4.2.7.5,1.1.8,1.2h.5c0-.8.2-1.5.3-2.1,0-.5,0-1.1.2-1.8,0-.7.2-1.3.4-1.8h0c-.2,1.2-.3,1.9-.3,2.3v1.2c0,.4,0,1.2,0,2.3.3-.9.6-1.8.9-2.6l1-3,1.3-3.2c.7-1.4,1.8-3,3.1-4.9.8-.9,1.5-1.4,2.1-1.5.2.2.2.7,0,1.4-.2.7-.4,1.4-.8,2.2-1.4,2.7-2.8,4.6-4.2,5.8l2.3-3.7,1.1-2c.4-.8.5-1,.2-.8-2.2,3.4-3.6,5.5-4,6.4s-.9,1.7-1.3,2.4c-.4.8-.7,1.3-.8,1.8,0,.4-.4,1.2-.8,2.3,0,.2,0,.8.4,1.7.3,1,.5,1.5.7,1.7s.2.4,0,.6c0,.2,0,.5,0,1s.4,1.3.8,2.2v.3c-.5-.9-.9-2-1.2-3.1M217.4,113.4c-.2,1.8-.4,3.2-.6,4.2v-.3c-.3-.2,0-1.5.6-3.9M213.6,118.8c0-.3.3-.5.5-.4,0,0,.4.3.9,1,.5.6,1.1,2.1,2,4.3.8,2.2,1.3,3.7,1.5,4.3.2.7.4,1.3.6,1.8.2.5.4,1,.7,1.6.4.8.8,1.3,1.2,1.6.5.4.9.4,1.2.2l-.9-1.8c-.2-.3-.4-.5-.7-.4-.5,0-.7-.3-.6-.9,0-.4.2-1.1.4-2.1.5-1.6,1.2-3.3,2.1-4.9,0,.7-.2,1.3-.2,1.8-.8,1.8-1.4,3.3-1.8,4.5-.2.8-.2,1.2,0,1.2h.3c0,0-.2-.6-.2-.6v-.4c0,0,.5.7.5.7l.2-.2.2.3-.2.3,1.5,2.2.4-.3.3.3c-.4.4-.6.7-.5.9.4.7.8,1.3,1.1,1.8.7,1,1.2,1.3,1.6.8,0,0,.3,0,.5,0,.2.2.4.5.7,1v-.8l-1.3-1.2-.7-1.4c-.6-.8-1-1.5-1.2-1.9s-.5-1-.9-1.6-.8-1.3-1.4-2.1v-.4c0,0,1.2,1.3,1.2,1.3,1,1.2,1.6,2.2,2,2.8s.6.8.7.5l.2-.6.3.2-.2,1.3v.4c0,.3,0,.5,0,.5s.3.3.4.6c0,.2.4.7,1.1,1.4.6.7,1.3,1.3,2,1.8s1.3.9,1.7,1.2c.5.3.7.6.6.9h.6c0,0-.2-.7-.2-.7h.4c.2,0,.4.3.5.6.6.4,1.1.8,1.5,1.1l-1.5.3-2.5-1.5-2.3-1.5-.4-.6c0-.2-.3-.2-.5,0-.2,0-.4,0-.6-.4-.6.4-1.2.2-1.8-.4l-1.1-1.3-1-1.8-.4-.3c-.6.4-1.3,0-2.1-.7s-1-1.4-2-3.4c-1.4-2.6-2.3-4.5-2.8-5.8-.4-1.1-.6-1.8-.7-2.1,0-.3-.2-.3,0,0s.2.9.5,1.9.9,2.4,1.7,4.3c.7,1.5,1.5,2.9,2.2,4.1-1.6-1.8-2.8-3.4-3.6-5-.7-1.5-1.2-3-1.5-4.3,0-.5-.2-1.2-.2-2.2v-1.6M221.9,130.7l.2-.2.9,1.6v.2c0,0-1.1-1.6-1.1-1.6h0ZM223.4,133.8l.4-.5.9,1.2.5.9.2.5c-.3-.2-.6-.4-.8-.7l-.5-.7-.6-.8h0Z"/>
      <path class="st0" d="M219.9,143.8c-.3,0-.7,0-1.2-.4l.7-1,.3.2c0,0,0,.2,0,.3h.2c0,0,.5-.6.5-.6h-.2c0,0-.2,0-.3,0l-.3-.2.7-1.1c.4.2.6.5.7.7h.2v-.5c0,0-1.5-1-1.5-1v.5l-1.4,2.2c0,0-.2.2-.3,0v.2c0,0,1.6,1.1,1.6,1.1l.6-.3v-.2c0,0,0,0,0,0h-.3Z"/>
      <path class="st0" d="M234.2,145.5l-.4-2.4c0,0,0-.2.2-.2v-.3l-1.2.2v.3c.2,0,.3,0,.3,0l.4,2.4c0,0,0,.2-.2.3v.3l1.1-.2v-.3c-.2,0-.3,0-.3-.2"/>
      <path class="st0" d="M249.5,146.2c0,0-.2.2-.3.2v.2l1,.2v-.3c-.2,0-.3,0-.2-.3l.2-.3,1.2.2v.4c0,0,0,.2-.2.2v.2h1.3c0,0,0,0,0,0,0,0-.2,0-.3-.2l-1-3.2-1.7,2.8h0ZM250.3,145.7l.6-1.1.3,1.2h-1c0,0,0,0,0,0Z"/>
      <path class="st0" d="M255.3,146.5h-.2c-.3.3-.7.4-1.4.4l.2-2.5c0-.2,0-.2.2-.2v-.3h-1.1v.3q.2,0,.2.3v2.3c-.2.2-.3.3-.4.3v.2l2.3.2.2-.8h0v-.2Z"/>
      <path class="st0" d="M238.4,141.6l-.9,3.2c0,.2-.2.2-.3.3v.2l1-.2v-.2h-.2l.2-.7,1-.2.3.5c0,.2,0,.3-.2.3v.2l1.2-.3v-.2c-.2,0-.3,0-.4-.2l-1.7-2.6h0ZM238.3,143.7l.3-1,.5.8-.7.2h0Z"/>
      <path class="st0" d="M296,137.8h8.6s1.1.2,1.5.9c.4.8.5,1.3.5,1.3h.6c0-.4.5-1.4.9-1.7h.2q.5-.5.8-.5h9.2c1,0,2.9-.9,2.9-2.9v-31.5h-28.5v31.2s0,1.4.9,2.4c.6.6,1.3.9,2.3.9M308,137.6h-.2c-.4.4-.7.9-.9,1.3,0-.2,0-.3-.2-.5-.2-.4-.6-.7-1-.9h2.5s0,0-.2,0M302.6,134.3l-6.3-6.3v-8.7l6.3-6.3h8.8l6.2,6.1v8.9l-6.3,6.2h-8.7ZM320.6,134.9c0,1.9-2.2,2.2-2.3,2.3h-5.3l7.5-7.5v5.2h0ZM320.6,117.4l-7.4-7.2h7.4v7.2ZM293.4,104h27.2v5.5h-27.2v-5.5ZM293.4,110.2h7.5l-7.5,7.5v-7.5ZM293.4,129.6l7.5,7.5h-5c-.8,0-1.4-.2-1.8-.7-.7-.7-.7-1.9-.7-1.9v-4.9h0Z"/>
      <path class="st0" d="M297.1,105.3c-.8,0-1.5.7-1.5,1.5s.7,1.5,1.5,1.5,1.5-.7,1.5-1.5-.7-1.5-1.5-1.5"/>
      <path class="st0" d="M301.1,105.3c-.8,0-1.5.7-1.5,1.5s.7,1.5,1.5,1.5,1.5-.7,1.5-1.5-.7-1.5-1.5-1.5"/>
      <path class="st0" d="M305,105.3c-.8,0-1.5.7-1.5,1.5s.7,1.5,1.5,1.5,1.5-.7,1.5-1.5-.7-1.5-1.5-1.5"/>
      <path class="st0" d="M309,105.3c-.8,0-1.5.7-1.5,1.5s.7,1.5,1.5,1.5,1.5-.7,1.5-1.5-.7-1.5-1.5-1.5"/>
      <path class="st0" d="M317,105.3c-.8,0-1.5.7-1.5,1.5s.7,1.5,1.5,1.5,1.5-.7,1.5-1.5-.7-1.5-1.5-1.5"/>
      <path class="st0" d="M311.7,120.1c0,0-.2.3-.2.4h0s-.3.3-.5.4h0s.2-.2.3-.4c0-.2.2-.4.2-.4v-.2c0,0,0,0,0,0,0,0-.3.2-.4.3,0,0,0,.3-.2.5h-.3v-.5h0s-.2.2-.3.4c0,.2,0,.3,0,.3h0v-1.1h0c0,0-.3.4-.3.6s.2.5.2.5h0l-.4.3h0v-.7.2c0,0-.3.2-.3.4v.4s0,0-.2.2h0c-.2.3-.4.5-.6.6h-.3v-.3c0,0,0-.3.2-.5h0c0,0,.3,0,.5-.3s.3-.4.3-.4h0c0,0,0,0,0,0h-.4c0,0,0-.2.2-.3h0s.2-.2.4-.5h.4c0,0,0,0,0,0h-.4c0-.2,0-.3,0-.3h0c0,0,.4,0,.6,0h0c.4-.3.5-.4.5-.5h0c-.2,0-.8.2-.8.2h0v.2c0,0,0-.3,0-.4,0,0,0,0,.3-.2,0,0,0,.2.4.2h0c.3,0,.5,0,.5-.2h0c0,0-.3-.3-.5-.3h-.4s.2-.2.2-.3c0-.2.2-.2.3-.3,0,0,.2,0,.3-.3h0c0,0,.3-.2.5-.4.2-.2.2-.4.2-.4h0c0,0,0,0,0,0,0,0-.3,0-.5.3-.2.2-.2.5-.2.5h0s0,0,0,0c0,0,0-.2.2-.4v-.3h-.3c0,.2-.2.8-.2.8h-.2c-.2.3-.4.5-.5.6,0-.4,0-.9,0-1.2v-.3h0v-.6c0-.3-.2-.3-.2-.3h0v.5l.2.3h0s-.2,0-.3,0h0c0,0-.2,0-.2,0s0,.2.2.4c0,0,.2,0,.3,0h.3v.9-.2c0-.3-.5-.4-.5-.4h0s0,.3.2.6c0,.2.2.4.3.4h0v.3l-.3-.2h0c0,0,.4.4.4.4h0c0,.3-.2.5-.3.6v-.3h-.2c-.3,0-.4.4-.4.4h0l.4.2c0,0-.2.2-.2.3h0v-.7h0c0,0-.4.3-.3.6,0,.2,0,.3.2.3,0,0,0,.2-.2.2v-1.1.2c0,0-.3.5-.3.7s.2.5.2.5h0s0,.2-.2.5h0v-1.9c0,0,.4-.2.7-.5.4-.4.7-.7.7-.9h0c0,0,.2-.5.2-.7,0,0,0,0,0,0h-.2c0-.2,0-.4,0-.4v-.2l-.4.3-.2.2v-.8h0s.3,0,.5-.3c.3-.3.3-.6.3-.6v-.2l-.6.3-.3.5h0v-.3c0-.2,0-.4,0-.6v-.2s.3,0,.5,0c.3,0,.5-.5.5-.5v-.2c0,0,0,0,0,0,0,0-.3,0-.6.2h-.2c0-.2.2-.3.2-.4,0,0,.2,0,.3-.4,0-.3,0-.6,0-.6h0s-.3.2-.3.4v.5s0,.2-.2.4v-.2h-.2v.6h0v.2c0,.2,0,.4,0,.6l-.4-.6s.4,0,.4-.4v-.9h0c0,0,0,.3-.2.5h0c0-.2-.3-.3-.3-.3h0s0,.5,0,.7h-.2c0,0-.3,0-.3,0,0,0,0,.3.3.4h.4l.6.8h0v.4h0c0-.5,0-.5-.2-.5,0,0,0,0-.2.3v.2c0-.2,0-.4,0-.4h0c0,0-.2.4-.2.4v.2c0,0,0-.2,0-.3h0s0-.2,0-.5-.2-.5-.2-.5h0s-.2.2-.2.5,0,0,0,0h0c0,0-.2-.2-.3-.3h0c0-.4-.2-.6-.3-.8,0,0,0-.4,0-.7,0-.2-.4-.4-.4-.4h0s0,.3,0,.5c0,0,0,.2,0,.3,0,0-.2,0-.3,0h-.2c0,0-.2,0-.2,0,0,0,0,.2.2.3.3.3.5.3.7.3s0,0,0,0c0,0,0,.2.2.3h0c0,0-.3,0-.5,0h-.3s0,.2,0,.4v-.5c0-.3,0-.6,0-.6v-.2h0c0,0-.2.4-.2.8s.4.7.5.7v.9h0v.4c0,0-.3-.3-.5-.5v-.5c0,0,0,0,0,0v.4h0v-.8c0-.3-.2-.7-.2-.7h0c0,0,0,0,0,0,0,0-.2.4-.2.5s0,0,0,0v-.2h0v-.6c-.2-.5-.3-.5-.3-.5h0v.2c0,.3.4.8.4.8h-.3c-.2,0-.2,0-.2.2,0,0,0,.2.3.2s0,0,0,0c.2,0,.3,0,.4-.2h0c0,.2.2.4.3.5,0,0-.2,0-.4,0,0,0-.4-.2-.5-.2h-.2v.2c0,.2.3.3.6.3s.5,0,.5,0h0s0,0,.2,0l.2.2h0c0,0,.2.2.3.3h0l-.3.2c-.2,0-.2.3-.2.4h0v1.1s0,0-.2,0v-.5s0-.2,0-.2-.2,0-.2.3h0s.2-.4,0-.7c0-.3-.2-.5-.2-.5h0s0,.3,0,.6,0,.3,0,.5c0,0-.2,0-.2-.2v-.4h-.2v.2h0l-.2-.2h0s.2-.3.2-.5c0-.3,0-.5,0-.6h0c0,0,0,0,0,0,0,0,0,.2,0,.5v.5c0,0-.2-.2-.3-.3v-.4c0-.3-.5-.5-.5-.6h0s0,.5.2.7.4.3.4.3h-.4v.2h.6c0,0,.3.3.4.4,0,0-.3,0-.5,0h-.9c0,0,.2.3.6.3h0c.3,0,.6,0,.6,0h0s.2,0,.4.3h-.5c0,0,.7,0,.7,0h0s.2,0,.3.2h-.5c-.4,0-.5,0-.6.2,0,0,0,.2.3.2h.4c.4,0,.5-.2.5-.2h0c0,0,.3.2.4.3h-.4v.2h.5s0,0,0,0v.2c.2.3.4.6.5.8,0,0-.2,0-.4,0h-.7,0v.5h0s-.2-.2-.3-.3h0v-.6c0-.4-.4-.4-.4-.4h0v.7s0,0-.2,0h0c0,0-.2-.2-.4-.2h-.2c0,0,0-.3-.2-.5-.3-.5-.4-.5-.4-.5h0v.3c0,.2.3.5.5.6h-.4c0,0,0-.5-.2-.6h-.3v.2c0,0,.2.2.3.3h-.2s-.2-.3-.3-.5c0-.2-.2-.2-.3-.2h-.4c0,0,0,.3.2.4.2.2.5.3.6.4h0s0,.2-.3,0h-.4v.2c0,0,.3.2.4.2h.3c0,0,.2-.3.2-.4,0,0,.2,0,.3,0,.2,0,.4,0,.5,0,0,0,.2,0,.4,0h.2c0,0-.3,0-.5,0-.4,0-.6.3-.6.3h0c0,0,.2.2.4.2s0,0,0,0h0s0,0,0,.2h-.9s-.2,0-.3,0c-.2,0-.3.3-.3.3h.3c.2,0,.2-.2.2-.3h1.6c0,0-.3.3-.2.4h0c.3,0,.6-.4.6-.4h0c0,0,.3.2.4.3h0-.6v.2s0,.2.3.2,0,0,0,0c.3,0,.4,0,.5-.2.2.2.4.3.5.6,0,.3.2.6.3.9v.2c0,.7,0,1.9,0,2.6v.5c0,.5,0,.9-.2,1.3-.2.5-.7.8-1.2,1-.5.3-.9.5-1.1.8,0,0-.6.8-.5.9h0s.2,0,.3-.4c0,0,.2-.3.4-.4h0c.2-.2.3-.3.6-.4,0,0,.2,0,.3-.2h0v.3h0s0,0,.3-.2c.2-.2.4-.3.4-.4h0c0,.2-.2.4-.3.6,0,.3,0,.3-.3.5,0,.2-.2.5-.2.7s.2.5.2.5h0s0-.4,0-.7h0c0-.2,0-.4.3-.5,0,0,.2-.2.3-.3v.4c0,0,.2,0,.2,0,0,0,0-.2.3-.4.2-.3.2-.5.2-.5v-.2c0,0,.2,0,.2.2,0,0,.2.2.3.2s.2.2.3.3c0,.2.3.8.3.8v.2l.3-.5s0,0,.3.2c.2,0,.2.2.3.3,0,0,0,0,.2.2h.2s0-.2-.2-.5c0,0-.2-.3-.4-.5,0,0-.2-.2-.3-.3,0,0-.3-.4-.5-.6h.5c.2,0,.3,0,.4.2s.2.3.2.3c0,.4.2.4.3.4s0-.2,0-.4h0c.3.2.6.3.7.3h0c0,0-.4-.3-.6-.6h0c-.2-.4-.4-.7-.8-.8h0c-.4,0-.8-.3-1-1.1-.2-.9,0-2.7,0-3.5,0-.9.2-1.5.5-1.8.3-.4.4-.5.7-.7h.2s.2,0,.4.2c.3,0,.5,0,.5,0h0c0-.2-.2-.4-.3-.5h.3v.2s.2,0,.3,0q.6,0,.6,0s0,0,0,0-.4,0-.5-.2c.2,0,.4,0,.4-.2h0s0,0,.4.2h0c.2,0,.4-.2.4-.2h0c0,0-.3-.2-.4-.3h0c0,0-.2-.3-.3-.4-.2,0-.4-.2-.4-.2h.7c.2,0,.4-.3.5-.4h0c0,0,.2,0,.4-.2.2-.2.3-.6.3-.6h0c0,0,0,0,0,0,0,0-.3.2-.5.3M310.9,120.5h.2c0,0,0,0,0,0,0,0,0,0,0,.2v-.2M309.6,119.7c0,0,.5,0,.7-.2,0,0-.3.2-.4.2h0c0,0-.3,0-.5,0l.2-.2h0ZM310.3,119h.3-.6.4M310.9,117.7s.2-.2.3-.2c0,0,0,0,0,.2,0,0-.2.2-.3.3,0,0,0-.2,0-.3M308.9,117.5c0,0-.2-.2,0-.2h0c.2,0,.3.2.3.3h-.3M309.1,118.5c0,0,0-.3,0-.4,0,0,.2,0,.3.2v.5s0-.2-.2-.3M308.6,121.3l-.2.2c0,0-.3,0-.4.2,0,0,0-.2,0-.2,0,0,.2,0,.4,0M308,120.7c0-.2,0-.3,0-.4v.6h0v-.2M308.4,116.8h.3s0,0-.2.2c0,0-.2.2-.3.2l.2-.4h0ZM308.7,114.3s0,.2,0,.4c0,0,0,.2-.2.2v-.4c0,0,0-.2,0-.2M308.3,115.7s0,0,.3-.2c0,0,.2,0,.3,0,0,0-.2.2-.3.3,0,0-.3,0-.4,0h0s0,0,0,0h0ZM307.5,115.4s0-.2,0-.3v.5c0,.2,0,.2-.2.2v-.5M306.9,115.9c-.2,0-.2-.2-.2-.2h0c0,0,.3,0,.4.2h-.3M307.3,115.8h0s0,0,0-.2v-.5l.2.2v.5M305.2,115.7c0,0,0,0,0,0h.2c.2,0,.4.2.5.2h0v.2c0,0-.3,0-.6-.3M305.9,115.5s0-.2,0-.3v-.3l.2.2v.4M304.8,116.4v-.5.9c0,0-.2-.3-.2-.4M303.5,117h-.2.2-.2M303.8,116.5c0-.2-.3-.5-.3-.7h0c0,0,0,0,.2.3,0,.3,0,.4,0,.4M303.8,117.6c-.2,0-.3,0-.5-.2h0c0,0,.3,0,.4,0,0,0,0,0,.2,0h-.2M304.2,117.2c0,0,0-.4,0-.5s0-.2,0-.3v.8h0ZM302.2,118s0-.3,0-.4c0,0,.3.3.3.4v.2l-.2-.2M302.9,118.1v-.2.6-.4M302.3,119.1c0,0-.3,0-.3,0h.8-.4M303.8,119.2c0,0,0-.3,0-.4v-.4.8M303.7,120h-.5.7-.3M304.7,118.6s0,0,.2,0c0,0,0,.2-.2.3h0s0,0,0-.2M304.6,119.9v-.7c0,0,0,.3,0,.4v.3M304.6,119h.2c.2,0,.3-.4.3-.5,0,0,.2.2.2.2v.2h0v.9s-.2,0-.2-.2c0,0,0-.2-.2-.2h0c0,0,0-.3,0-.3M305.2,119.7h0s-.2,0-.3-.2v-.2h0c0,.2.2.3.3.4M305,120.4s0,0-.3-.2v-.5c0-.2,0,0,0,0h0c.2.5.5.5.5.6h0v.5s-.2-.2-.3-.2M301.2,120.1s0,0,0-.2h.2c0,0,.2,0,.2.2,0,0,0,.2,0,.3,0,0-.3-.2-.4-.3M301.7,121h-.4.5M302.9,120.8c0,0-.4-.5-.5-.6h0c0,0,0,0,.3.3.2.3.2.4.2.4M304,121.1v.4h0v-.6s0,0,0,.3M302.9,121.6h-.3s.2,0,.4-.2c.2,0,.4,0,.5,0h0c0,0-.3.2-.4.2h0M303.2,122s0,0,0-.2h0c0,0,.3,0,.4,0h0-.3M303.6,122.5s.2-.2.3-.3h0c0,0-.3.3-.4.3M304,122h0s0,0-.3-.3h-.2.2v-.2c.2,0,.3.3.3.3h0c0,0,.2.2.2.3h-.2M308.2,119.1h0s0,0,0,.2v-.4h0s-.3,0-.3.4,0,.2.2.2l-.2.2c-.2.2-.5.4-.6.4,0,0,.3-.6.3-1h0s.2,0,.2-.2c0,0,.4-.2.6-.4h0c0,.3,0,.7,0,.7M308.5,118.5c0,0,0-.2,0-.2h0s0,.3-.2.6h0v-.3M307.9,118.3l.3-.3h.2s0,.3-.2.4c0,0-.2.2-.4.2,0-.2,0-.3,0-.3M307.7,117.2h0v.7c0,0,0-.3,0-.6M307.4,117.9v-.2c0,.3.3.4.4.4v.2h0l-.2.5s0,0,0,0v-.2h0c0-.2,0-.4,0-.7h0ZM306.9,116.4v.7s0-.3,0-.4,0-.2,0-.3M306.8,117.4h0s0,.2.2.3c0,0-.3-.2-.5-.3h.2M307,117.8h-.2c-.2,0-.4,0-.5-.2h0c0,0,0-.2-.2-.3h0c.2,0,.5.3.7.4M306.4,116.8h-.2M306.6,117.2c-.3,0-.6,0-.6-.2h0c0,0,.3.2.5.2M305.7,116.5c.2,0,.4.2.5.2-.2,0-.4,0-.5-.2h0M305.4,116.6v.5-.5M304.9,121.5h.2c.2,0,.4,0,.5,0h-.3s-.2,0-.3-.2h0M305.8,120.1s-.2.2-.2.4v.3h0v-.6h.3,0ZM305.8,120.7s0,0,0,.2v-.3s0,0,0-.2v.4M305.8,119.8h0s-.2,0-.3,0h0s.2,0,.2-.2h0c0,0,0,0,0,0M306.1,122.9c-.3,0-.7-.3-.9-.6,0,0-.2,0-.2-.2v-.3h.7s0,0,0,.2c0,0,0,.2.2.2v.2s0,.3,0,.4h0ZM306.1,121.7c0,0,0-.4,0-.5v-.3.8M306.2,120.6s.2.2.3.3v.3-.2s0-.2,0-.3v-.2M306.4,122.2c0,0-.2-.2-.2-.3,0,0,.2-.3,0-.5v-.2c0,0,.2.2.2.2v.6h0v.3l-.2-.2M306.6,120.9h0c0-.2-.3-.5-.5-.5s0,0,0,0v.3h0s-.2.2-.2.5v.3s0,0,0-.2c0,0,0-.2-.2-.3h0s.2,0,.3-.3c0-.3,0-.6,0-.6h.2c.3,0,.5,0,.6,0s0,0,0,0h0c0,0-.2.3-.2.5M306,119.3h0c0,0,.4,0,.5,0s0,0,0,0v.3h-.7v-.4h0ZM305.9,119c0,0,.3,0,.4,0,0,0,.2.2.3.2h-.4s-.2-.2-.3-.3M306.2,119.9h.4v.2s-.2,0-.5,0h-.2.3M306.9,120.2h0s0,0,0-.4c0-.3.2-.5.2-.5h0s-.2-.3-.4-.4c-.2,0-.6,0-.6,0h0c0,0,0,.3.3.5h0s0,0-.3.4h0c0,0,0,0,0,0v-.8h0c0,0,.2-.3.3-.5,0-.3,0-.7,0-.8h0l-.2.4v-.6s.2,0,.2-.4v-.3c0,0,.2.2.3.2h0v.2s0,0,.2,0h0s0,.2.2.4h0c0,.2.3.3.6.3h.4v.2h-.3c0,0,0,0,0,0h.4v.4c0,0-.3,0-.4-.2h-.6,0c0,0,.3.3.4.4.2,0,.4.2.4.2h0v.2c0,.4-.3.9-.3,1h0M305.4,118.1h0l.2-.3v.4s0,0,0,.2v-.3M307.3,118.7h0c0,0-.2,0-.3,0,0,0-.2,0-.3-.2h.2c.2,0,.3,0,.4.2M307.5,121.1v-.4.7h0s0,0,0-.3M309.5,120.9s0-.2,0-.3v.6-.3M309.6,122.8s-.2,0-.3,0h0,.3s0,0,.2.2M309.4,122h.5-.6M310.3,122.5h-.4s.3,0,.4,0M310.9,122s.2,0,.3,0h-.3c0,0-.2,0-.3,0h.2M310.1,121.6c.2,0,.6.2.7.2h-.4s-.2,0-.5,0h-.5l.5-.3h.3q0-.2,0-.2h0s0,0,.2.2M311.8,120.4s-.2,0-.2,0c0,0,0-.2,0-.3,0,0,.2,0,.3-.2,0,0,0,.2-.2.3"/>
      <path class="st0" d="M299.3,96c.2,0,.4-.2.4-.4s-.2-.4-.4-.4-.4.2-.4.4.2.4.4.4"/>
      <path class="st0" d="M303.7,95.1c.2,0,.4-.2.4-.4s-.2-.4-.4-.4-.4.2-.4.4.2.4.4.4"/>
      <path class="st0" d="M303.5,96.2c0,.2.2.4.4.4s.4-.2.4-.4-.2-.4-.4-.4-.4.2-.4.4"/>
      <path class="st0" d="M310.6,95.1c.2,0,.4-.2.4-.4s-.2-.4-.4-.4-.4.2-.4.4.2.4.4.4"/>
      <path class="st0" d="M310.7,95.8c-.2,0-.4.2-.4.4s.2.4.4.4.4-.2.4-.4-.2-.4-.4-.4"/>
      <path class="st0" d="M315,97.3c.2,0,.4-.2.4-.4s-.2-.4-.4-.4-.4.2-.4.4.2.4.4.4"/>
      <path class="st0" d="M315.3,96c.2,0,.4-.2.4-.4s-.2-.4-.4-.4-.4.2-.4.4.2.4.4.4"/>
      <path class="st0" d="M301.5,96.6h.2c.7,0,1.3-.5,1.2-.9,0-.4-.6-.7-1.4-.6-.7,0-1.3.5-1.2.9,0,.4.5.6,1.1.6M301,95.8c0,0,.4-.3.7-.3h.2c.4,0,.7,0,.7.3h0c0,.3-.4.4-.7.4-.5,0-.8,0-.9-.3h0"/>
      <path class="st0" d="M312.6,96.5h.3c.6,0,1-.2,1.1-.6,0-.4-.5-.8-1.2-1-.7,0-1.3.2-1.4.6,0,.4.5.9,1.2,1M312.5,95.4h.2c.3,0,.6.2.7.3h0c0,.2-.4.4-.9.3-.2,0-.4,0-.6-.2,0,0-.2-.2-.2-.2,0,0,.3-.2.6-.2"/>
      <path class="st0" d="M296.3,97.5l.6.5c0,0,.2.3.2.3h0c0,0-.4.3-.3.6,0,.4,1.1.7,1.3.7,0,0,3.8,1.2,9.2,1.2s9.2-1.1,9.9-1.4c.7-.3.5-.8.4-1h0v-.5l.7-.4-.4-.9s0,0,.2-.2c.2-.2.5-.9,0-1.4-1.6-1.4-6.6-2-10.7-2.2-4.2-.2-9.4,1.3-10.3,2-.3.3-.5.5-.5.8s.2.4.3.5v.5l-.3.8h0-.2ZM299,99.4c-.4,0-.9-.2-.9-.3,0,0,0,0,.8-.3h.6c1.9-.6,3.7-1,7.7-1s8.2,1.1,8.3,1.1c.4,0,.7,0,.8.2,0,0-.2,0-.8.3-2.8.7-5.6,1.1-8.3,1.1s-8.2-.9-8.2-1M317,99.2c-.6.3-3.6,1.1-7.4,1.3,2,0,4-.5,6-1,.7-.2,1-.3,1-.6s-.6-.4-1.1-.5c0,0-3.9-1.1-8.3-1.1s-5.9.4-7.8.9h-.6c-.7.3-1,.5-1,.7,0,.3.7.5,1.1.6,0,0,4.2.8,7.4.9-5,0-8.3-1.1-8.3-1.1-.5-.2-1-.4-1.1-.6h0c.2,0,3.7-1.7,10.2-1.7h.2c6,0,9.9,1.7,9.9,1.7h0c0,0,0,.3-.3.5M307.6,94.8l.9.6-1.4.7h-.3c0,0,.4,0,.4,0v-.3h0v-.2h.2s0,0,.2-.2v-.4M307.1,94.6h-.2.2c0,0,.2,0,.2,0h-.2M304.8,95.3l2.3,1.1h0l2.2-1.1-2.2-1.4c7.1,0,10,1.9,10.5,2.2h0l-1.7.5,1.3,1.3h0c-.9-.2-4.5-1.5-9.9-1.5s0,0-.2,0c-3.3,0-5.8.4-7.5.8,0,0,.2-.2.2-.3,0-.2-.2-.4-.4-.4s-.4.2-.4.4.2.4.4.4c-1.2.3-2,.6-2.3.7h0c0,0,1.6-1.7,1.6-1.7h-1.9v-.2c.3-.3,2.8-2.2,10.1-2.2l-2.2,1.3h0ZM306.6,94.9h0v.7h0c0,0-.8-.3-.8-.3l.8-.5h0ZM317.9,97.3l-.4.3-.6-.7.7-.2.3.6h0ZM296.6,95.5c0-.2,0-.4.4-.6.9-.7,6-2.1,10.2-2,3.9,0,9,.8,10.5,2.1.3.2.3.5.3.7-.6-.5-3.6-2.3-10.8-2.3s-9.9,1.9-10.4,2.3c0,0-.2,0-.2-.3M296.9,96.8h.9l-.8.9-.4-.3.4-.6h0Z"/>
      <path class="st0" d="M313,105.3c-.8,0-1.5.7-1.5,1.5s.7,1.5,1.5,1.5,1.5-.7,1.5-1.5-.7-1.5-1.5-1.5"/>
      <path class="st0" d="M351.2,142.3c0-.4,0-.7-.3-1-.2-.3-.5-.5-.9-.5h-2.6v6.2h.6v-2.9h.4c.8,0,1.3,0,1.6,0,.4,0,.7-.3.9-.5.2-.3.3-.6.3-1M350.4,142.9c0,.2-.3.3-.5.4-.2,0-.5,0-.9,0h-1.1v-2.1h1.1c.4,0,.7,0,.9,0,.2,0,.3.2.4.4s.2.4.2.6,0,.4-.2.6"/>
      <path class="st0" d="M356.5,146.8l-2.3-2.9c.5,0,.9,0,1.2-.2.3,0,.5-.3.7-.6s.2-.5.2-.9,0-.7-.4-1c-.2-.3-.5-.5-.9-.5h-2.6v6.2h.6v-2.9h.3l2.2,2.9h1ZM353.1,143.4v-2.1h1.1c.4,0,.7,0,.9,0,.2,0,.3.2.4.4s.2.4.2.6,0,.4-.2.6c0,.2-.3.3-.5.4-.2,0-.5,0-.9,0h-1.1,0Z"/>
      <path class="st0" d="M363.9,143.7c0-.9-.3-1.7-1-2.3-.6-.6-1.4-.9-2.4-.9s-1.1,0-1.6.4c-.5.3-.9.7-1.2,1.2-.3.5-.4,1.1-.4,1.6,0,.9.3,1.6,1,2.3.6.6,1.4.9,2.3.9s1.7-.3,2.3-.9c.6-.6,1-1.4,1-2.3M361.9,146c-.4.2-.9.3-1.4.3s-1.3-.3-1.9-.8c-.5-.5-.8-1.1-.8-1.9s0-.9.4-1.3c.2-.4.6-.7,1-1,.4-.2.9-.4,1.3-.4s.9,0,1.3.4c.4.2.7.5,1,.9.2.4.4.8.4,1.3s0,.9-.4,1.3c-.2.4-.6.7-1,1"/>
      <polygon class="st0" points="370.8 140.7 370.7 140.7 368.2 145.7 365.7 140.7 365.5 140.7 364.7 146.8 365.3 146.8 365.9 142.4 368.1 146.8 368.3 146.8 370.5 142.4 371.1 146.8 371.7 146.8 370.8 140.7"/>
      <path class="st0" d="M378.1,141.4c-.6-.6-1.4-.9-2.4-.9s-1.1,0-1.6.4c-.5.3-.9.7-1.2,1.2-.3.5-.4,1.1-.4,1.6,0,.9.3,1.7,1,2.3.6.6,1.4.9,2.3.9s1.7-.3,2.3-.9c.6-.6,1-1.4,1-2.3s-.3-1.7-1-2.3M378.1,145.1c-.2.4-.6.7-1,1-.4.2-.9.3-1.3.3-.7,0-1.3-.3-1.9-.8-.5-.5-.8-1.1-.8-1.9s0-.9.3-1.3.6-.7,1-1c.4-.2.9-.4,1.3-.4s.9,0,1.3.4c.4.2.8.5,1,.9s.3.8.3,1.3,0,.9-.3,1.3"/>
      <polygon class="st0" points="380.1 140.7 380.1 141.3 382.4 141.3 379.8 146.8 383.2 146.8 383.2 146.2 380.8 146.2 383.4 140.7 380.1 140.7"/>
      <rect class="st0" x="384.9" y="140.7" width=".6" height="6.2"/>
      <path class="st0" d="M356.6,112.1c.2,0,.4-.2.6-.2s.8,0,.9,0c.9,0,4.9-2.3,5.1-3.2.3-1,.4-2.8.4-3,0-1.4-.9-2.5-2.6-2.5s-1.3,0-1.9.2c-.4,0-3.3,1.8-3.3,2.9s0,.2,0,.4v3.1c0,.2-.2.5-.2.6s.7,1.8.9,1.8"/>
      <path class="st0" d="M404.7,92.6h-57.5v45.5h57.5v-45.5ZM380.7,102.9h.5v.3c0,.2,0,.3-.3.3h-.3v-.6M380.1,103c.2,0,.5.2.5.4,0,.3-.6.7-.7.7-.3,0-.4-.5-.4-.5,0,0,.2-.6.6-.6M356.4,115c0,.5-.7,1.4-.7,2s0,0,0,.2h0v1.5c0,.4.3,1.2.5,1.9.2.6,1,2.1,1,2.3s-.5.9-.8.9c-1,0-1.6-2.5-1.8-2.8-.4-.7-1-1.3-1.2-2.1,0-.4-.3-1-.3-1.5h0c0-1-.2-1.7-.2-1.9s.3-1.3.3-1.5-.3-1.3-.3-1.5.3-1.5.3-1.7v-1.2c0-.2,0,0,0-.2v-.9c0-.9.6-3.5,1.1-4.3.7-1.3,2.2-1.4,3.3-2.1,1.2-.8,2.6-1.4,3.8-1.4s4.8,2.5,4.8,3.7-.3,1.3-.5,1.8c-.5,1.2-.9,2.7-.8,4,0,0,0,.4,0,.4-.9.8-6,3.4-6.4,3.4s-1.1-.3-1.3-.3c-.4,0-1,.3-1,.6s.3.5.3.7M361.1,113.4c0-.3.7-1,1-1h.9c1.5,0,1.5,5.1,2.8,5.1,2.6,0,2.9-5.3,4.7-5.3s1.1.5,1.1,1-.5,1-.5,1.5c0,1.1-.8,2.6-1.4,3.8-.2.4-.8.3-1.1.6-.7.4-2.1,1.2-2.9,1.2-2.1,0-4.6-5.8-4.6-6.9M378.5,124c0,2.2-3.1,4.4-4.8,5.2-.6.3-1.3,1.2-1.8,1.2h-1.3c-.2,0-.6,0-.9.3,0,0,0,0,0,.3h-.5s.2,0,.2,0h0c0,0-1.9.9-2.6.9s-1.8,0-1.8-.8c0-2.3,11.6,0,11.6-7.1s-1.3-5.1-1.4-5.3c-.8.2-1,.9-1.7.9s-1.9-1-1.9-1.6,0-.2,0-.2v-.2c.3-1.3,1.7-1.8,2.6-1.8s2.6.7,3.2,1.7v.2c.2.2.2.4.2.6v1.3c0,1.3,1.4,2.3,1.4,3.3s-.7.6-.7,1.3M380.7,109.9c0,0,.3-.3.5-.3h.3v.8c0,.2-.4.5-.6.7h.4v.3c0,.3-.5.4-.5.6,0,.4.6,1.9.6,2s-.7,3.1-.7,3.5v.9c0,.5-.5.7-.8.7-.6,0-1.3-.8-1.4-1.3v-2.1c0-.2-.2-.6-.2-.8v-5.3c0-.2.3-1.7.5-2.4,0-.2.3-.6.3-.7s0-.4,0-.6c0-.7,1.1-1.9,1.8-1.9s1,1.1,1,1.4c0,.6-1,4.1-1.1,4.3h0c0,0,0,.2,0,.2ZM384.7,116.6v1.7c-.2.3-.6.7-.8.7-.4,0-1-.6-1-1s.2-.9.2-1.5.5-2.8.7-3c.3-.4.6-.5.9-.5s1.1.8,1.1,1.2-1.1,2.4-1.1,2.6M386.3,104.1c0,.5-.4,1.9-.4,2.2s.2.4.2.6c0,1.4-.7,2.1-2.1,2.1s-1.7-.9-1.7-1.9,1.8-4.7,3.1-4.7.9.4.9.7v1h0ZM399.2,116.6c0,.2-.2.5-.4.7h0c-.2.2-.4.4-.6.4h-1.1c-.3,0-.6,0-.8-.4h0c-1-1-1.8-3.5-1.8-3.7-2.1.9-1.9,3.4-4,3.4s-3.5-1.9-3.5-3.4,2.8-3,3.5-3h2.7c.8,0,1.7-.8,2.6-.8s.5,0,.9.4c.3.5.4,1,.6,1.5.5,1.2,2,3,2,3.3v1.6h-.1Z"/>
      <path class="st0" d="M374.3,117c-.3,0-.4,0-.5.3,0,0,.2.4.6.2.3-.2,0-.4,0-.5"/>
    </g>
  </g>
</svg>