<?xml version="1.0" encoding="UTF-8"?>
<svg id="uuid-36a1322e-2c16-4388-afc3-7b55ab20081d" xmlns="http://www.w3.org/2000/svg" version="1.1" viewBox="0 0 174.9 170.1">
  <!-- Generator: Adobe Illustrator 30.5.0, SVG Export Plug-In . SVG Version: 2.1.4 Build 167)  -->
  <defs>
    <style>
      .st0 {
        fill: #e5e1e6;
      }
    </style>
  </defs>
  <g id="uuid-a5f90bc4-52a5-4409-8f5b-a2ab4b01f66c">
    <path class="st0" d="M152.8,156.8c-1,.4-1.7,1.3-2.6,1.9-1.8-2.8-5.2-2.7-7.3-.4-.2-.2,0-1.5,0-1.6,0,0-2.7,0-2.7.3v12.7h2.7v-9.4c0-.2,1.6-1.3,1.9-1.4.7-.2,2.1-.2,2.6.3.2.2.8,1.5.8,1.8v8.6h2.7v-9.4c0-.6,2.4-1.5,3-1.5s2.2,1,2.2,1.9v9h2.7v-9.6s-.4-1.3-.5-1.4c-1-2-3.5-2.7-5.4-1.9h-.1Z"/>
    <path class="st0" d="M3.1,160.7c-.5-6.8,5.9-9.4,11.7-7.4,1,.3,1.9.8,2.8,1.3v-3c-8-4.7-19.6.5-17.4,10.6,1.7,8,11.2,9.5,17.6,6.2v-3.1c-.8.1-1.6.7-2.5,1.2-5,2-11.8.7-12.2-5.7h0Z"/>
    <path class="st0" d="M97.1,152.3c-.6-.8-2.6-2.2-3.7-2.2h-7.6v19.6h2.9v-8.4h3.8c4.7,0,7.4-5.3,4.6-9.1h0ZM93.8,158.1c-.1,0-.9.5-1,.5h-4.2v-6h3.6s1,.3,1.3.3c2.1.8,2.3,4,.4,5.1Z"/>
    <path class="st0" d="M70.2,150.4v6.5c-6.2-2.2-11,3.8-8.3,9.5.6,1.3,2.7,3.2,4.2,3.2h6.9v-19.6c-.4,0-2.7-.2-2.7.3h-.1ZM70.4,167.6h-3.3c-.3,0-1.6-.5-1.9-.8-2.4-2-1.4-7.2,2-7.8.5,0,3.3,0,3.3.6v8.1h-.1Z"/>
    <path class="st0" d="M166.7,156.6c-8.1,1.2-7.2,13.4,1.2,13.5,9.8.1,9.4-15-1.2-13.5ZM166.7,167.5c-3.1-.6-3.9-5.3-1.9-7.4,1.3-1.3,3.1-1.5,4.7-.8,4.4,1.6,3.3,9.5-2.8,8.3h0Z"/>
    <path class="st0" d="M115.7,164.3c.5,5,5.5,6.7,9.8,5,2.1-.8,1.6-1.2,1.6-3.3-2,.9-3.7,1.8-6.1,1.3-1.4-.3-2.8-2.2-2.7-3.6h8.9c.6-9.9-12.7-9.6-11.6.6h.1ZM118.4,161.9c.1-4.1,6.4-4.3,6.2,0h-6.2Z"/>
    <path class="st0" d="M107.4,167.7v-8s-.5-1.2-.6-1.4c-1.6-2.3-5.7-2.4-7.7-.8-1.3,1-.7,1.9-.8,3.3.8-.4,1.5-1.2,2.4-1.6,2.1-.8,4.6-.3,4,2.4,0,.2-3.8,1.4-4.4,1.7-4.3,2.2-2,7.8,2.7,6.2.4-.2,1.5-.8,1.7-.8s.2.5.5.7c1.5,1.2,4.7,0,4.1-2.2-.1-.1-1.7,1.2-2,.3h.2ZM104.9,167c0,.4-2.6,1.9-3.7.4-1.7-2.2,2-3.9,3.7-4v3.6h0Z"/>
    <path class="st0" d="M54.2,167.7v-8s-.5-1.2-.6-1.4c-1.6-2.3-5.7-2.4-7.7-.8-1.3,1-.7,1.9-.8,3.3.8-.4,1.5-1.2,2.4-1.6,2.1-.8,4.6-.3,4,2.4-.1.4-5.3,1.3-6.3,3.7-.8,2.2.6,4.6,2.9,4.6s3.3-1.3,3.6-1.2c0,0,.1.4.4.6,1.5,1.2,4.7,0,4.1-2.2-.1-.1-1.7,1.2-2,.3h.1ZM51.6,167c0,.4-2.5,1.9-3.7.4-1.7-2.2,2-3.8,3.7-4v3.6h0Z"/>
    <path class="st0" d="M33.8,166.7c-1.4.1-2.6,1.4-4.1.5-.2-.1-.7-.8-.7-.9v-7.1h4.1v-2.5h-4.1v-2.5h-.4c-.6,1-4.2,3.7-4.4,4.5v.4h2.1v7.4c0,1.2,1.5,2.7,2.5,3.1,1,.3,4.1.2,4.8-.5.4-.4.2-1.9.2-2.5h0Z"/>
    <path class="st0" d="M43.5,166.7c-.2-.2-2.6,1.5-4.1.5-.1,0-.6-.6-.6-.7v-7.2h3.8c.4,0,.4-2.5,0-2.5h-3.8v-2.5h-.4l-4.6,4.7c0,.4.2.3.5.3h1.9v7.8c0,.1.4.9.5,1.2,1.3,2,3.8,2.1,5.9,1.4,1.6-.6.8-1.4.9-2.8h0Z"/>
    <path class="st0" d="M110.7,150.6v18.9c.3.4,2.2,0,2.7.2v-19.6c-.7.1-2.5-.4-2.7.5h0Z"/>
    <path class="st0" d="M137.8,157c-2.8-1.5-4,.5-5.5,2.4v-2.7h-2.5v13h2.5v-7.2c0-.9.9-2.4,1.7-2.9,2.1-1.3,3.3.8,3.8.7.9-1.5,2.1-2.1,0-3.1h.1Z"/>
    <rect class="st0" x="75.6" y="156.7" width="2.7" height="13"/>
    <path class="st0" d="M19.8,157v12.7h2.7v-13c-.4,0-2.7-.2-2.7.3h0Z"/>
    <path class="st0" d="M51.5,155c-.1-1.3-1.5-2.8-1.8-4.2h-2.9c.2.7,2.9,4.3,3.2,4.4.2,0,1.5.2,1.5-.2Z"/>
    <path class="st0" d="M20.9,151.2c-1.9.3-1.6,3.3.3,3.2,2.2,0,1.9-3.7-.3-3.2Z"/>
    <path class="st0" d="M76.8,151.2c-1.9.3-1.6,3.3.3,3.2,2.2,0,1.9-3.7-.3-3.2Z"/>
    <path class="st0" d="M54.5,83.3c1.4,1.6,3.5,2.8,3.9,4.9,1.7-.7,2.3-2.8,1.7-4.5-.4-1.2-1.8-2-2.5-2.9-9.4-11.3-13.5-29.1-6.4-42.6.5-1,1.3-2,1.8-.3-5.8,11.8-4.8,26.1,2.1,37.2,1.2,1.9,3.3,3.8,3.3,6.1.8-.2,1.7-1,2-1.8,1.3-2.8-.7-4.1-2.1-6.2-5.3-8.6-6.9-18.7-4-28.5.1-.4,1-2.9,1.2-3,.6-.4,1.2,0,1.2.8s-1.2,3.6-1.5,4.9c-1.7,7.7-.5,15.2,2.8,22.2.7,1.6,2.3,3,1.8,4.9,1.6-.3,2.9-2.2,2.9-3.8s-2.3-5-2.8-6.7c-1.8-5.2-2.1-11.1-.7-16.5.2-.8.4-2.4,1.5-2.2s-.1,3.1-.3,4c-.7,4.4-.6,8.5.5,12.9.6,2.2,1.9,4.1,1.7,6.4.9,0,2.2-.8,2.7-1.7,1.2-2-.2-3.8-.7-5.7-.8-2.9-1-6.1-.8-9,0-.6.4-3.5.9-3.6,1.8-.6.7,2.3.6,3.1-.2,2.6-.2,4.6.2,7.1.3,1.7,1.2,3.1.5,5,2.1,0,3.9-1.9,3.7-4-.2-2.4-1-4.1-.7-6.8,0-.6.1-1.8.7-2,1.5-.5.8,1,.8,1.8,0,1.8.4,4.4.2,6.1,0,.5-.4.9-.4,1.5,1.3,0,2.5-.4,3.2-1.5,1.7-2,0-3.9.8-5.5.3-.6.6-.7,1.2-.2.3,1.9.2,4,.4,6.1.2,2.1.7,4.3,1.2,6.4-3.2,2-5.9,4.9-7.5,8.4-1.2,2.4-1,6.1-4.5,5.9-.2,1.7,1.7,2.6,3,2.7.7,0,1.3-.2,2-.3.2,0,.3,0,.2.2l-7.2,12.6c-1.4,1.4-2.9.3-4.2,1-1.2.7-.5,1.8-.8,2.4,0,.2-2.8,2-3.2,2.3-.8.6-1.6,1.5-2.4,2,0,.2,1,1.5,1.3,1.7.2.3.6.3.7.4l3.9-3,1.7-1.4h0l2.1.3s0-.3-.1-.6v-.6.6c0,.3.2.6.1.6h0l-2.1-.3-1.7,1.4-3.9,3c1.5,2,2.5,3.2,4.1,5,8-7.6,18.6-11.4,29.4-11.4s10.7.9,15.7,2.8c-5-1.9-10.4-2.8-15.7-2.8-10.7,0-21.5,3.8-29.4,11.4.4.4,1,2.1,1.9,2.1s2.2-.4,2.9-.5c1.8-.2,3.7-.2,5.5-.4l-.4-2.7c-1,.1-2.1.3-3.2.4,0,0-1.4.3-.8,0,5.4-3.8,11.9-6.3,18.6-7.1-.3,3.8-1,7.5-1.9,11.2-.2.7-1.6,5.4-1.5,5.7,5.5,1.3,11.1,1.2,16.6,0-1.9-5.4-3-11.1-3.5-16.9,4.7.5,9.3,2,13.6,4.1,1.7.8,3.5,1.8,4.8,3l-4.1-.2-.2,2.5c1.8.2,3.7.2,5.5.4.7,0,2.3.6,2.9.5.6,0,1.5-1.7,1.9-2.1h0c-1.4-1.4-2.9-2.5-4.5-3.7-1.8-1.3-3.6-2.4-5.4-3.3,1.9.9,3.8,2.1,5.4,3.3,1.6,1.2,3,2.3,4.5,3.7,1.5-1.7,2.7-3.2,4.1-5l-2.8-2.2-2.8-2.2-2.3.3,2.3-.3,2.8,2.2,2.8,2.2s.3,0,.5-.2c.4-.4,1.4-1.5,1.2-2-.2-.4-2.2-1.9-2.7-2.3-.4-.3-2.6-1.8-2.7-2-.3-.5,0-1.5-.7-2.2-1.2-1-3,.2-4.5-1.5l-7.2-12.6c2.1.5,5.3.3,5.4-2.4-3.3,0-3.2-2.8-4.2-5.1-1.3-3-3.5-5.9-6.1-7.8-.4-.3-1.7-.9-1.8-1.4.4-2.2.9-4.4,1.2-6.6,0-.8,0-5.4.2-5.7.2-.3,1.2-.3,1.3.3.3,1-.1,3,0,4.2.2,1.6,2.5,3,4.1,2.8-.8-2.2-.1-4.5-.2-6.9,0-.8-.8-2.9.8-2.4.7.2.7,3.8.7,4.5,0,1.8-1,4.1-.6,5.7.3,1.4,2.1,2.6,3.6,2.5-.6-2.4.6-4.7.7-7.1v-4.6c0-.8-.9-3.1-.2-3.5,1-.5,1,.3,1.3,1,.7,3,.6,6.9,0,9.9-.3,1.4-1.7,4.5-1.7,5.5,0,1.7,1.7,3.2,3.2,3.6-.4-2.2,1-4.4,1.7-6.6,1.2-4.1,1.4-8.3.6-12.5-.1-.8-1.3-3.8-.6-4.2,1.2-.7,1.6,1.8,1.8,2.5,1.5,6.3.7,12.9-1.9,18.7-.9,2.3-2.8,3.9-1,6.4.2.3,1.6,1.7,2,1.3,0-2.2,1.6-4,2.5-6,3-6.8,3.8-14.4,2-21.8-.2-.8-1.5-4.1-1.4-4.4,0-.9,1.2-.9,1.7.1,4.1,8.3,2.2,21.4-2.2,29.2-.6,1-3.1,4.3-3.2,5-.4,1.9.3,4,2.3,4.5v-1c.4-1.6,3.5-5.1,4.4-7,4.9-9,6.1-19.7,3.1-29.5-.3-.9-2.2-5.4-2.2-5.8,0-.5.6-.8,1.2-.6.4.2,1.9,4,2.1,4.7,4.3,13,1.7,27.4-6.9,37.9-1.8,2.2-4.9,4-3.1,7.2,0,.2.7,1,.8,1,.7.4.5-.2.7-.6.7-1.6,2-2.3,3-3.6,9-10.5,12.9-22.9,10.7-36.7-1-6.7-4-13.1-8-18.6,0-.2,1.7-.7,1.6-1.5-3.7.8-4.9-3.6-8.1-5-7.7-3.5-15,4.9-10.5,12,.4.6,1.2,1.3,1.5,1.8,2.5,4-1,8.6-5.5,6.9-2.9-1.2-3.1-4.5-3.6-7.2,2.8,0,1.5-.2.6-1.3-1.3-1.6-.8-4.5-.9-6.4-.3-4-1.4-8.6-3.2-12-.2-.3-1.2-1.7-1.2-1.7-.1-.5,1.5-.7,1.4-1.5-3.1.2-4.9-2.4-7.7-3.5-2.2-.8-6.3-1.6-8.1.1-.4.4-.9,1.4-1,1.5-.3.2-1.3,0-1.8.1-2,.3-3.3,2.5-2.5,4.4l.5-1.4c.8-1.2,4.5-.6,5.1.7-1.6.3-2.7.2-4.1-.6,2.2,5.1,9.1,0,12.3,4.5,1.6,2.1,1,8-.8,9.6-1.2,1-3.1.8-.2,1.8.1.6-2,5.3-2.5,6.2-1,2.1-2.4,5-5.2,4.5l.3.6,1.3.8c-1.3,1.3-2.1,3.1-4,3.8-5,1.9-9.4-3.7-6.4-8,1.4-2,2.3-2.3,3.1-5,0-.3.1-1.5.3-1.6,0,0,2.2,0,1.7-.6,0,0-.3,0-.5-.2-1.8-1.7-1.6-3.3-2.8-5.3-3.2-5.1-10.3-6.3-14.9-2.2-1.8,1.6-2.8,4.2-5.9,3.6,0,.9,1.6.9,1.4,1.6-12.1,16.6-11.1,39,2.2,54.7l-.2.4ZM83.7,116.2c-.3,0-1.6-3-.3-3.5,2-.5,1.2,2.6.3,3.5ZM85.4,110.7c-.2-.8-1.4-3.6.5-3.3,1.6.2,0,3.8-.5,3.3ZM87.6,116.4c-.6-.5-1.5-3.1-.3-3.5.3,0,.8,0,.9.2.6.6,0,2.6-.6,3.2ZM87.9,105.1c-.6.4-2-3-.5-3.3,1.8-.3.8,3,.5,3.3ZM89.8,110.7c-.5.4-2-3-.4-3.3,1.9-.2.7,3.1.4,3.3ZM91.7,116c-.6.4-1-1.5-1.2-2-.1-1.7,1.6-1.6,1.8-.5,0,.4-.3,2.4-.6,2.6h0ZM80.8,13.1c-.5-.8.7-1.7,1.3-.7.3.7-.9,1.3-1.3.7ZM66.5,96.6c-.4.2-.8.4-1.4.6-1.3.6-2.6,1.3-3.1,1.7l-.2.2s.1-.2.2-.2c.5-.4,1.9-1.2,3.1-1.7.5-.2.9-.4,1.4-.6s.3-.2.5-.2c4.7-2.1,9.6-3.5,14.8-4.1-5,.6-10,2-14.8,4.1-.1,0-.3.1-.5.2ZM83.1,74.3c1.7-.1.7,3.1.3,3.5s-.3,0-.4-.2c-.4-.7-1.3-3.1.1-3.2ZM80.8,71.1c-.2-1.2.4-2.6,1.5-1.6.8.8-.9,5.1-1.5,1.6ZM74.3,99c-.3,1.3-3.2,2-3,0,.3.3,2.1.1,1.6-.4-.3-.3-2.5.1-2.1-1.8.2-1,2.2-1.5,2.6-1,0,0,.3,1,.2,1.2-.5-.1-1.4-.5-1.4.4,1.2,0,2.4.3,2.1,1.8h0ZM81.9,96.4c-.1.2,0,1.5,0,1.6,0,0-1.3,0-1.6.2l-.6-4.5c1.3-.1,4.3-.9,4.3,1s-2,1.4-2.1,1.7ZM94.7,98c-1.2.5-1.5,0-2.3-.3-1-.3-2.1-.1-2.5-1.6-1-3.9,5.2-4.2,4.7-.3,0,.8-.7,1.3-.7,1.4,0,.2.9.4.7.8h.1ZM102.2,98.4c-.4.4.5,2-2,.9l1.4-4.3c1.3.4,4.3.9,3.3,2.9-.6,1.5-2.7.3-2.8.4h.1ZM113.2,99.1s0,.1.1.2c0,.1.1.3.1.4,0-.1,0-.2-.1-.4v-.2c-.2-.1-.4-.2-.6-.4.2.1.4.3.5.4ZM111.8,98.3c-.3-.2-.6-.3-1-.5.3.2.7.4,1,.5ZM106.6,95.8c-5.5-2.3-11.5-3.6-17.4-3.8h-5c1.7-.1,3.3-.1,5,0,5.9.2,11.8,1.5,17.4,3.8.3.1,1,.4,2,.8-.8-.4-1.6-.7-2-.8ZM85.6,73c-.6-.6-1.5-3.1-.3-3.5,2-.6,1,2.6.3,3.5ZM86.3,80.2c0,.4-.4,2.5-.6,2.6-.5.4-1.2-2-1.2-2.3-.1-1.6,1.6-1.7,1.8-.3ZM85.6,62.9c-.3.3-.3,0-.4-.2-.4-.7-1-3.1.1-3.2,1.7-.1.7,3,.3,3.5ZM87.9,58c-.6.4-1-1.4-1.2-1.9-.2-1.9,1.6-1.8,1.8-.7,0,.4-.4,2.5-.6,2.6ZM87.6,67.7c-.3,0-1.6-2.9-.3-3.2,1.9-.5,1.2,2.5.3,3.2ZM87.8,74.5c1.5.2.1,3.8-.5,3.3-.4-.3-1.4-3.6.5-3.3ZM88.4,85.4c0,.3-.6,2.8-1.2,2.4-.2-.2-.6-2.4-.6-2.8.2-1,1.7-.8,1.8.4ZM89.5,59.5c1.8-.2.9,2.7.1,3.5-.3,0-1.8-3.2-.1-3.5ZM89.7,49.5c1.8-.2.8,3,.4,3.3-.5.4-2-3-.4-3.3ZM90.4,70.1c0,.3-.4,2.5-.6,2.6-.6.4-1-1.4-1.2-1.9-.2-2,1.6-1.7,1.8-.7ZM89.8,82.9c-.3.3-.3,0-.4-.2-.4-.7-1.2-3.1.1-3.2,1.6-.1.7,3,.3,3.5ZM94.3,52.6s-.5-1.4-.5-1.5c-.4-2.4,1.7-2.3,1.7-.8s-.6,2.7-1.2,2.3ZM96.8,54.8c0,.4-.4,2.5-.6,2.6-.6.4-1-1.4-1.2-1.9-.2-1.9,1.6-1.8,1.8-.7ZM93.8,59.2c1.9-.1.7,3.2.4,3.5-.6.4-2-3.3-.4-3.5ZM92.7,67.5c-.5.4-1.9-3-.5-3.3,2-.3.8,3,.5,3.3ZM92.1,77.7c-.5.4-2-3-.4-3.3,1.8-.2.8,3,.4,3.3ZM93.2,69.3c2-.5,1.2,2.6.3,3.5-.3,0-1.6-3-.3-3.5ZM92.3,47.7c-.4-.3-1.4-3.6.5-3.3,1.4.2,0,3.8-.5,3.3ZM91.8,58c-.3,0-1.6-3.1-.3-3.5,2-.5,1.2,2.6.3,3.5ZM98.7,86.1c.1.1,1.9-.7,2.1-.8.4-.3,1.7-1.9,1.9-1.8l4.1,7c.4,1.4-.2,2.1-1.6,1.6-1.5-.5-2.1-2.9-3.9-2-.4.2-.4.6-.6.7-.4.3-4-.6-4.8-.8-1.2-.2-2.4-.2-3.6-.4l1.6-11.2c.7.9,1,2,1.8,3,1.3,1.7,3.7,2.3,3.1,4.9v-.2ZM97.1,44.3c1.5.2.1,3.8-.5,3.3-.4-.3-1.4-3.6.5-3.3ZM95.3,39.3c1.6.2,0,3.8-.4,3.3-.3-.2-1.4-3.6.4-3.3ZM94,34.4c.6.6,0,2.6-.7,3.2-.5-.6-1.3-2.6-.6-3.2.3-.3,1-.3,1.4,0h0ZM91.1,29.2c.3-.3,1-.3,1.4,0,.6.6,0,2.6-.6,3.2-.6-.6-1.3-2.5-.7-3.2h0ZM91,39.5c1.5.2,0,3.8-.5,3.3-.4-.3-1.4-3.6.5-3.3ZM88.2,34.9c.2-1,1.7-.8,1.8.4,0,.3-.6,2.8-1.2,2.4-.2-.2-.6-2.4-.6-2.8ZM88,44.5c1.8-.3.8,3,.5,3.3-.5.4-1.9-3-.5-3.3ZM86.2,39.5c1.8-.3.8,3,.5,3.3-.5.4-1.9-3-.5-3.3ZM85.8,49.5c1.6.2,0,3.8-.4,3.3-.2-.2-1.4-3.6.4-3.3ZM84.7,45c0,.4-.4,2.5-.6,2.6-.6.4-1-1.4-1.2-1.9-.2-1.9,1.6-1.8,1.8-.7ZM83.5,54.5c1.5.2.1,3.8-.5,3.3-.4-.3-1.4-3.6.5-3.3ZM83.5,64.9c0,.3-.6,2.5-.7,2.6-.5.4-1.2-2.1-1.2-2.4,0-1.3,1.7-1.4,1.9-.2h0ZM80.2,49.6c0-.4,1.2-.4,1.5,0,.4.4-.2,2.3-.5,2.8,0,.2-.1.5-.4.2s-.7-2.4-.6-2.9h.1ZM81,59.2c1.6-.1.7,3,.3,3.5-.3.3-.3,0-.4-.2-.5-.7-1.3-3.1.1-3.2ZM78.3,54.6c.2-.6,1-.6,1.5-.3.6.7-.4,3.5-.9,3-.3-.2-.7-2.3-.5-2.7ZM79.3,81.4c.7-.9,1-1.9,1.6-2.9,0-.2,0-.3.4-.3l1.6,11.2c-1.6.2-3.1.4-4.7.6-.8.1-2.7.7-3.3.7s-.7-1.3-2.1-.9c-.9.2-1.9,2.4-3.5,2.3-.7,0-1.2-.7-.9-1.4l4.2-7.2q.2-.2.4,0c.9,1.2,1.9,2.4,3.5,2.4-.2-2.4,1.9-3,3.1-4.6h-.2Z"/>
    <path class="st0" d="M62,127.1c-1-2.7.1-6.2-2.5-8.3l-2-1.5v3.6c0,2,2.5,4,3.8,5.2.3.2.4.8.4.9h.3Z"/>
    <path class="st0" d="M55.1,123s.2,0,.4.2h0l.2.2h0s.4.2.6.4h0s.2,0,.4.2c.2,0,.6.3.7,0l-1.3-1.9c.4.6.9,1.2,1.5,1.7,0,0,.5.9.6.4,0-.3-1.2-4.1-1.4-4.5-.6-1.5-2.4-2.6-3.9-3.2-.2,0-.5-.2-.5,0,.3,1.7.4,3.3,1.4,4.8.1.2,1,1.4,1.2,1.5h0v.2ZM55.7,121.6l.5.5h0l-.5-.4h0ZM55.5,121.2c.1,0,.1.1,0,.2v-.2Z"/>
    <path class="st0" d="M137.7,103.2s.1-.7-.5-.7-.6.7-.9.9c-1.4-2-1.7.8-1.9.9-.2.2-.8-.4-1.3-.4-.5.1-.5.8-.9.9,0-.8,0-4,1-4s1.5.6,2.2.2c.4-.3,0-.8,0-.8.2-.2,1.8.4.9-1.2,1.8.2,1-.8,1.3-1.4s1.2-.4.8-1.3c-.2-.6-.8,0-1.3,0s-.5-1.6-1.4.4c-.9-1.9-1.5,1.2-1.8,1.2s-.3-.6-.9-.2c-1.2.8.3,2.6-.7,3.5-.5-1.2,0-2.4-.6-3.5-.1-.3,0-.5-.5-.4.2,2.1.7,4.3.2,6.4-1.3-.9.3-1.9,0-2.9-.2-.5-.8-.2-.9-.3-.1-.1.1-2.3-1.2-1.2,0-1.4-1.2-.4-2.1-.7-.2.5.3.9.4,1.3,0,.2-.2.5-.2.7,0,.3.9.3.9.6s-1.2.8.6.8l-.4.6c.3.7,2,.2,2.1.3,0,0,.7,1.6.7,1.7,0,.4-.6,3.7-.9,3.9-.1,0-.3,0-.4-.1.2.8-.3,2.6-.8,3.2-.3.3-.5-.3-1-.2.5-.7,1.2-2-.2-1.8.7-1.8-.7-.3-.9-1.6.5.2,2.6-.2,2.9,0-.1-.7.9-1.7.7-2.7,0-.3-.4-.8-.6-.9-.4,0-.7.6-.9.2-.2-1.6,0-2.3-1.9-1.6,0-2-.9-.5-1.3-.4-.3,0-.8-.6-1.3-.3-.7.5.5,1.3.5,1.6.2.8-.9,1.4,1.2,1.6,0,0-1.6,1.3.7,1.4,0,.7-.9,1-.9,1,0,.3.1,1.3,0,1.4,0,0-.6,0-.7.3-.1.5.5.7.6.9,0,0-1.4.4,0,1.4h-.6c-.5,1.2,1.5,1.5,1.6,1.8.4,1.6-1.6,3.8-2.7,4.7-.6-1.7.5-1.5,1.3-2.5s.6-2.2-.8-1.8c-.1-.1,1.7-3.1-.7-2.3.5-2.2-.5-.9-1.3-1.2-.3,0-.5-1.2-1.3-.6-.5.3.3,1.4.2,2,0,.1-.8,0-.7.8,0,.5,1,.5.9,1.3-2,.2.3,1.5.2,1.6-.7,0-.4.6-.6.9,0,.1-.3.1-.5.4-.1.2-.1.7-.2.8-.2.1-.7,0-.7,0,0,0,.1.9,0,1.2-.2.2-1.3-.1-.3,1.2-1.7,0,0,1.4.2,2.1l.4-.7c.3,0,0,.3.3.4.3,0,.6-.2.8-.1-.2.3-1.4,1.3-1.6,1,0,0,.1-.4-.2-.4,0,.4-.4.8-.7,1.2-.9.8-2.3,1.5-3.3,2.2,0-1.3,2-.8,2.5-2,.4-.9.3-.8-.3-1.3-.7-.4.2-.5.5-.9.5-.7.3-1.7-.7-1.5,1.5-1.7-.1-1-.5-1.4-.1,0,0-1.3-.8-1.2-.4,0-.3,1.5-.5,1.7-.3.3-1.3-.2-.8,1,0,.3.4.4.3.7-1.4,0-1.2.8-.4,1.6-2.3.5.7,2.1.8,2.3.2,1-1.8,2.4-2.6,2.2-.9-.2.9-.8,1-1,.2-.5-.7-.4-.4-.8.1-.1.7,0,.6-.7,0,0-.3,0-.4-.2,0-.3.1-.7-.3-1-.4,0-.4.6-.8.7h-1v.9s-1.3-.7-.9.9l-.7-.2c-.3.5.3,1.7.3,1.9s-1.4,1.4-1.6,1.7c-.5-.6.4-1-.6-1.5.6-.6,1.9-.5,1.6-1.7,0-.2-.8-.3-.6-.7,0,0,.8-.2.7-.6,0-.4-.8-.4-.9-.5-.1-.2.3-1.6-.7-1.3-.4,0-.5,1.3-.9,1.5-.3.2-1.8-.7-.9,1.5-2.1-.4-1,1.3-1.2,1.4,0,0-.8-.1-.9.3s.6,1.9.9,2.1l1.9.3c-.5,0-.9.4-1.5.5-.3,0-.6-.1-.8-.1-.3,0-1.2.7-1.8.8-.3,0-1.2.3-1-.3.4,0,1.3.1,1.5-.2-.1-1.3,0-.5.4-.8.3-.2,0-1.4.2-1.9-.5-.2-1.2.5-1.5.5s-.4-.7-.9,0c-.1.2,0,.5-.1.5-.3.3-.4-.3-.4-.3-.8-.4-.6.7-.7.9,0,0-.6-.4-.8,0,0,1.7-.4,2.2-2,2.4.8-.4-.1-1.3,0-1.5.1-.2,3.1-.4,1.2-1.7,2.1-.9.2-1.4.2-1.6s.3-.8.2-1.3c-.9-.3-1,.8-1.5.9-.9.3-1.7-.5-1.5,1.4h-1.2c-.3.1-.1.9-.2.9-.2.2-1.4-.8-.9,1.5.2.9.7,1.4,1.5.5l-.3.7.7.4c-1.2-.4-6.2.7-6.7.3,0,0-.1-.4-.4-.6-1.2-.8-1.6.6-2.2.6s-2.2-.2-2.5-.2c-2.8-.5-2.9-3.6-4.5-5.3-1.2-1.4-2.8-1.5-4.4-2.1l1.2,3.2c-.6,0-1-.5-1.7-.7-.9-.3-2.1-.2-3.1-.3-.4-3-2.3-4.4-4.8-5.7-.2,3.5,2.1,6.8,5.3,7.8l.3.5c-.1-.8-.9-1.7-.6-2.5,1.2,1.9,2.4,3.3,4.7,3.9.8.2,1.8.1,2.6.2v-.3c-.4-.4-1.6-.9-1.4-1.6,1.4,1.4,3.6,1.4,4.9,2.7-1,0-2.2-.2-3.1-.6,0,0,.3.4,0,.4-1.8-.3-3.7-.5-5.4-.9-.3,0-.6-.4-.8-.5-.5-.1-1.2,0-1.9-.2-.7-.3-.8-.8-1.8-.4l.4-.5c-1.8-1.6-2.4-4.6-4.9-5.3-.5-.2-1.8-.4-2.4-.5-.3,0-.4,0-.3.3.4,1.4,1.8,3.2,2.9,4.2-.6,0-1.4-.4-1.9-.7,0,0-.7-.6-.8-.6h0v.2c-.2,0-.2-.2-.2-.2-1.6-.4-2.4-1-3.3-2.3l.2.7c-.7-.2-1.3-.9-1.9-1.4-.2,0-.2-.1-.4-.2h0c-.3-.2-.4-.3-.6-.4h0l-.2-.2h0s-.2,0-.4-.2h0s-.3,0-.5-.2c-.4-.4-2.9-2.6-3-3-.6-3,2.4-5.1,1.9-8.5-.1-.9-1-2-.9-3-.3-.3-1.3,1.4-1.4,1.6-1.5,2.5-1.6,5-.3,7.6l.6-4.1-.2,6c-4-2.4-.2-6.5-2.4-9.7-.2-.2-1.5-1.9-1.7-1.7-.6,2.4-.8,4.3.2,6.6-.6-.6-1.2-1.6-1.6-2.4-.3-.5-.9-2-.8-2.4.5-2,3.7-2.9,4.8-4.7.7-1,.7-2.4,1-3.7-2.2.4-4.2,2.3-5,4.4s-.3,2.3-.9,3.2c0,.1-.1.5-.4.2-.1-.1-.5-2.2-.4-2.6.6-2.4,3.5-3.9,3.9-6.1.1-.7,0-1.7-.1-2.5,0-.2.1-.6-.3-.5-.7.3-2.7,2.9-3,3.8-.6,1.8,0,2.6-.2,3.9,0,.1-.3,1-.5,1.2-.1-1.9-1.2-5.9,0-7.4.9-1.4,4.7-1.9,6.2-3.1.9-.8,1.2-2.2,2-3.1,0-.4-.1-.2-.4-.2-1.9.2-4.2,1.2-5.4,2.5-1,1.2-1.5,2.9-2.7,4,.3-1.3.7-2.9,1.5-4.1.8-1.3,4.5-3.5,4.5-4.7v-2.8c-2.2.8-4.6,2.6-5,5.2-.1.7.1,1.7,0,2.1,0,.3-.8,1.6-1,2.1-.2.7-.5,1.6-.5,2.3-.3,0-.2-1-.2-1.3.2-3.1.3-4.7-1.8-7.3-.2-.2-1.5-2-1.8-1.7.3,1-.2,2.2-.2,3.2,0,2.9,3.5,5.7,3.5,7.3v3.2c0,.1.5.9,0,1-.4-4-2.7-6.9-6.6-8,.4,1.4.4,2.8,1.3,4.1,1.4,2,4.4,2.7,5.3,4.5.7,1.5.6,3.3,1.4,4.9-.1.8-.5-.8-.6-.9-1.6-3.5-3.7-5.3-7.5-6,.5,1.4.8,2.9,1.9,4.1,1.6,1.7,4.3,2.1,6.2,3.5l2.5,4.4c-1.3,0-1.4-1-2-1.7-1.2-1.2-3.3-2.7-5-2.7h-3.3l1.6,1.9c2.2,3.1,6.7,1.2,9.4,3.5,1.3,1,1.9,3.1,3.5,4.1,0,.4-.8,0-.9-.1-2.1-1.4-2.8-2.8-5.7-3.3-.8-.1-5-.1-5.4.3-.3.3.1.3.2.4.7.6,2.3,2,3,2.4,2.6,1.2,5.8-.1,8.5.8,1.7.6,2.7,2.2,4.2,3.2-.7.1-1.7.1-2.4,0-.9,0-2.4-.1-3.2-.2-.2,0-.6,0-.5-.3,1.7-.1,3.2.2,4.8.4-2.9-2.3-6.9-2.2-10.3-.6-.2,0-1.5.5-1.2.8,1.6.2,2.7,1.6,4.4,1.8,3.2.4,6.3-1.7,9.1-1.2,1.2.2,3.7,2.7,5,3.1-1.5.2-2.8-.7-4.3-.9-2.8-.5-6.4.2-8.6,2.1-.2.2-.4.2-.3.5,2.1.3,3.3,1.4,5.5,1.2,2.9-.2,5.8-3,8.8-2.2.7.2,2.1,1.2,2.9,1.5.2,0,1.8.3,1.3.7l-5.9.7c0-.4.4-.3.6-.4.9-.3,2.1-.3,3-.4.2,0,.9,0,.9-.3-4.1-1.5-7.4,0-10.7,2.3v.4c1.9,0,3.2.9,5.1.7,2.6-.3,5.7-3.2,7.8-2.8,1,.2,2.2,1,3.2,1,0,.3-.6.2-.8.2-4.8-.2-6.4-.1-9.8,3.2-.2.2-.4.2-.3.6,1.2-.2,2.5.4,3.6.4,3.3,0,5.3-3.3,8.4-4.1l3.3.9h-3c-.3,0-2,.7-2.4.8-1.2.6-2.2,1.8-3.1,2.8,1.7,0,2.9.5,4.6,0,2.1-.6,4.1-3.1,5.8-3.3.9-.1,2.3.2,3.2.4.2,0,.8-.2.7.3,0,.2-3,.2-3.7.4-2.3.5-4.1,2.2-5.2,4.2h2.8c2.9,0,4.7-4.6,7.7-4.6.6.3,4.2.2,4.4.4.4.3-.1.3-.3.4-2.3,1.2-4.6,2.1-6.1,4.4-.8,1.4-1.9,3.7.5,3.8,0-1.4.6-2.8,1.4-4,.3-.4,2.9-2.9,3.2-2.6.3.3-1.2.9-1.4,1-.8.7-2,2.6-2.2,3.8-.4,1.9-.6,2.6,1.5,3.1-.5-2.2.6-4.7,2.1-6.3.2-.3,1.9-1.6,2.1-1.6.3,0,.6.3.9.3s.7-.4,1.2-.3c.7,0,2.9,2.5,3.3,3.2,1,1.8.7,2.6,1,4.4,0,.2,0,.4.3.3,1.9-.6,1.4-2.7.7-4.2s-.9-1.3-1.2-2c.2-.2.8.5.9.6,1,1.2,1.6,2.6,1.8,4.2,0,0,1.5-.5,1.6-.6s-.3-1.5-.4-1.8c-1.2-2.9-3.9-4.4-6.5-5.8-.3-.1-.5.1-.4-.4.9.1,1.9-.2,2.8-.2s2,.2,2.8.2c0-.2-.7-.3-.2-.5s1,0,1.6,0c-.2.4-.9.6-1.4.6.1.9-.3,3.5,1.4,2.3l.5,1.2c1.7-.9.8.3,1.6.5.5.2.8-.4,1-.3.3,0,1.4,1.4,1.7.4.1-.5-.3-.7-.3-.9,0-.4,1-1.4-.6-1.3,0-.4.5-.5.3-.9-.3-.6-1.5-.3-2.1-.4.6-1.2-.5-.9-.3-1.6.5.1,1-.2,1.6-.2,2,0,1.3.9,1.5,2.2.3,1.3,1.5.4,1.5.5,0,0-.1.9.5,1.2.4,0,.8-.5,1-.4,0,0,0,1,.5,1.2.5.2.8-.4,1.3-.3.5,0,.8.9,1.6.7s0-1,0-1.5,1.3-1.4-.7-1.3c.3-1.3.5-.7,1-.8.2,0,.6-.6.7-.5,0,.5.5,1.5,1.2,1,.2-.1,0-.6.6-.5.2,0,.1.9.7.9s.7-.6,1.2-.6,1.3.6,1.9.4c.2-.6-.5-.9-.5-1.3s.5-1.3-.1-1.4c-.1,0-1,.4-1-.1s1.3-.6,1.5-1c.3.9,1.3,1.8,1.6.4.6,0,.6,1.3,1.7.9.2,0,.1-.5.6-.6.5,0,1.2.6,1.9.4.3-.9-.5-1-.5-1.3-.2-.6.9-1.9-1.2-1.3.7-2-1-1.3-2.3-1.2,0-.8,0-1.3-.9-1.2.8-.9,2.2-1.2,3.3-1.4.3.7,1.9,3.7,2.3,1.6.3-.3.8,1.2,1.5.9.3,0,.3-.8.6-.9.3.4,1.2,1,1.7.7.2-.2,0-.6.3-.7.5-.1,1.6.3,1.8.1.8-1-.6-1.2-.7-1.3-.1-.2,1-1.8-1.4-1.2.7-2.4-2.4-.2-2.5-.4.1-2.4-2.2-.4-2.9.5,0,.4.2.2.5.3.7,0,1.4.1,2.1.3.2,0,.9,0,.9.3l-4.8-.5c1-.7,5-4.1,6.2-3.3.2.2.6,1.9,1.7,2.1.7.1.3-.4.7-.7,0,0,.4.9.9.9s.4-.7.5-.7c.3-.3.8.4,1.2.5,1.2.3.9-.7,1.2-.7.4-.1,2.8.6,1.9-.7-.3-.6-1.2.2-.7-1.6l-1.6.2v-1.2c-.5-.4-2.4.7-2.5.6-.2-.2.4-1.2-1-.9-.6,0-2.2,1.6-1.9,1.9h2l2.1.6-5.9-.5c1.7-1.2,2.7-3.1,4.8-3.8h.2c.3,1,2.6,2.9,2.5.7.5.4,1,.7,1.8.6v-.9c.4,0,.6.3.9.3,1.3.3.8-.7,1.4-1,.2-.1,2.4,0,1.6-.9-.5-.5-1.5,0-1.2-1.5-.4-.3-1.5.5-1.6.4,0,0,0-.9-.7-.9s-1.3,1-1.8,1.2c-.4.1-.3-.5-.5-.8-.4-.3-1.2,0-1.5.3-.2.2-.8,1.5-.7.7.8-.9,1.3-2.5,2.5-2.9.9-.3,1.2.6,2,.9,1.9.9,1.3-.6,1.4-.6.2-.1,2.4,1.4,1.8-.7.4,0,.6.3.9.3,1.5.3.8-.7,1-1.2.2-.3,2.4-.2,1.8-1.2-.2-.4-1-.3-1.3-.4-.3-.2,0-2-1.7-.3-1-2.4-1.9.1-2.5.4-.4.1-.3-.6-.8-.7-1.7-.5-1.9,2.8-2,3,0,0-1.2.5-.9,0,.1-.4.6-1,.8-1.6.4-1,.9-3.2,2-3.9.8-.4,1.8.8,2.8.3v-.9c1,.2,1.9.2,1.4-1,2.1.2,1.3-.4,1.7-1.4.3-.5,1.3-.3,1-1-.2-.9-1.3,0-1.6-.3l-.5-.3ZM120.6,121.4c0,.1-.3-.1-.2-.4,0-.1.3.1.2.4ZM120.8,120.8c0,.1-.3-.1-.2-.4,0-.1.3.1.2.4ZM120.8,120.3c0-.8.3-.8.2,0h-.2ZM76.4,129.4c-.2-.2-.3-.3-.3-.6s.4.4.3.6ZM39.8,100l1.4,1.9c-.4-.6-1.2-1.2-1.4-1.9ZM41.4,102c.2.2.5.4.5.7s-.5-.5-.5-.7ZM47.7,115.6c-.2-.2.2-.6.4-.4s-.2.6-.4.4ZM48.1,115.8c.3-.3,1,1,.9,1.4-.2,0-1.2-1.3-.9-1.4ZM84.5,135.6c.2-.2.3-.3.6-.3s-.4.4-.6.3ZM92.1,136.9l-2.3-1.6c.3,0,2.7,1.2,2.3,1.6ZM95.1,131.2h0l.5-.5h0l-.5.5ZM96,134c.2-.1.6.3.6.4-.2.1-.6-.3-.6-.4ZM96.8,133.2c-.1,0,.1-.3.4-.2.1,0-.1.3-.4.2ZM116.5,130.1c.1,0-.1.3-.4.2-.1,0,.1-.3.4-.2ZM115.9,130.1c-.3,0-.6,0-.7-.4.3,0,.6,0,.7.4ZM113,128.2c.1,0,.1.1,0,.2v-.2ZM111.1,128c.2.1-.9.7-1.2.6.2-.5.6-.6,1.2-.6ZM102.5,133l2,1.5c-.6-.3-1.7-.8-2-1.5ZM104.8,134.8v-.2c.1,0,.1.1,0,.2ZM107.7,131.7c-.1,0,.1-.3.4-.2.1,0-.1.3-.4.2ZM107.3,131.1c-.2.3.5.3-.5.4,0,.7.1,1.4.4,2.1l-2.1-.2c-.1-.1.7-1.3-.5-1.5-.5,0-2.6.4-2.5,1.2-.3-.2-1.8-.5-.7-.7,2.2-.5,3.2-.6,5.5-.7,0-.5-1.2.2-.9-.6l2.7-.7c-.2.4-1,.6-1.3.9h-.1ZM109.4,132.3c-.3-.1-1-.3-1.3-.6l1.8.6c0,.4-.3,0-.5,0ZM110.3,132.6v-.2c.1,0,.1.1,0,.2ZM110.6,132.8v-.2c.1,0,.1.1,0,.2ZM115,129.8l-2.8-.7c0,.7.2,1.5.5,2.1-.4-.2-2.2.3-2.3.2,0,0,.3-.6.1-.9-.3-.5-.9-.2-1-.6.5,0,3.1-1.5,3.2-1.4,0,0,0,.3.2.4.5.3,1.8.2,2.1.8h0ZM121.8,120.4c.4-.2,1.4-1,.9-1.5,0-.1-.9.2-.4-.4,0,0,.4,0,.3-.6,0-.2-1,0-.8-.8.3.2,2.2.6,2.2.7.6.9-1.2,4-2.2,2.6ZM126.1,118.2c.2-.1,1-1.6,1.4-1.3,0,.9-.4,1.3-1.4,1.3ZM127.4,115.2v-2.8c0-.1-.2-.4-.2-.7s-.1-1,.2-1l.2,3.1,1.2-.5-1.4,2h0ZM131.6,107.7l.4-2.5.3,2.1s-.6.3-.7.4h0Z"/>
    <path class="st0" d="M77.2,3.5c0,.2.6,3.8.8,4,3.2-.5,6.6-.6,9.7,0,.1-.7.9-3.6.6-4.1-1.5-.9-2,1.6-2.9,1.7-1.4.1-1.3-2.2-2.3-2.3-1.4-.2-1.3,1.4-2,2.1-1.3,1.2-1.9-1.3-2.6-1.6-.3-.1-1.3-.1-1.4.2Z"/>
    <path class="st0" d="M131.2,93.9c.2.7.8,1.2.5,1.9l-1-2v.9c-.5-.6-1.3.2-1.4.2-.3,0-.2-1.5-1.2-1.4-.6,0-.5.7-1.6-.2-.6.9-.5.6-1.4.7-1.5.3.5,1,.6,1.2.4.7-.6,1.2,1.5.9l-.2.9,1.3-.2c-.4,1.9,1.7.5,2.6.2l-.6-.6c.9.2.5-.7.6-1.4.4,0,.2,1.3.6.9.3-.2.4-.8.5-.9.2-.1,1.7,0,1.9-.2.2-.3-.2-.9-.2-.9.2-.2,1.5.1.4-1.2,1.7-.3.5-1,.6-1.5,0-.3.7-.6.5-1.2-.2-.6-.8,0-1,0-.3,0-.5-.4-.8-.4-.1,1.7-.7.4-1.2.8-.3.2,0,1.4,0,1.7s-1.6-.9-1,1.2v.4Z"/>
    <path class="st0" d="M128.3,87.4c-.2-.7-.7,0-1,0s-1.3-.8-1.3.1.6.8.6,1.4c0,0-1.4.9.5,1l-.4,1.2.9.2c-1,1.4.9,1.2,2,1.2l-.2-.7c.7.4,1,0,1.2-.8.3-2.2-1-1.2-1.2-1.3.6-2.4-1-1.5-1.2-1.6v-.6h0ZM127.9,89.3v-.2c.1,0,.1.1,0,.2ZM129.3,90.7v.7c-.6-.3-.5-1.2,0-.7ZM128.9,90.2c.2.2-.2.6-.4.4-.2-.2.2-.6.4-.4ZM128.6,89.9h0l-.5-.4h0l.5.4Z"/>
    <path class="st0" d="M77.7.9c-.8-.9-2.6,0-2,1.3.7,1.6,3.1-.1,2-1.3Z"/>
    <path class="st0" d="M89.8,2.5c.8-1.2-.7-2.5-1.7-1.6-1.3,1.2.8,2.8,1.7,1.6Z"/>
    <path class="st0" d="M83.7.3c-1-1-2.9.7-1.6,1.7,1.3.9,2.5-.8,1.6-1.7Z"/>
    <path class="st0" d="M102.7,96.4l-.2,1.2c1.5.3,1.6-1.2.2-1.2Z"/>
    <path class="st0" d="M81.5,94.3v1.2c.2.2,1.3,0,.9-.8,0-.3-.8-.4-.9-.3Z"/>
    <path class="st0" d="M91.5,94.5c-.7.7.2,2.3,1.3,1.6.9-.8-.3-2.4-1.3-1.6Z"/>
  </g>
</svg>