<?xml version="1.0" encoding="UTF-8"?><svg id="uuid-070636a9-fec5-43b2-bdf9-60bf359cfff1" xmlns="http://www.w3.org/2000/svg" viewBox="0 0 750 162.2"><g id="uuid-4fc1335a-e3f7-4975-906a-f10281dc66eb"><path d="M602.7,87.7c-7.2-3.5-7.4-6.5-7.3-8.1,0-1.5,1.1-5,5.9-5s6.6,5.6,6.8,6.9c.2,1.4.3,4.7.3,4.7h8.6l4.5-19.5h-8c-1,0-1.9.6-2.2,1.6l-.4,1.4c0,0,0,0,0,0,0,0-3.6-3.6-10.3-3.5-2.1,0-6-.4-11.4,3.5-5.8,4.3-6.6,10.1-6.7,12.3-.1,2.2-.5,6.1,3.6,11.7,4.1,5.6,16.8,8.6,16.5,15.2-.3,5.9-4.9,6.3-6,6.3s-4.6,0-6.8-3.8c-1.2-2.1-2.1-5.7-2.3-7.8-.2-1.6-.1-2.3-1.8-2.3h-7.2l-6.1,21.4h11.1l.6-2.9c3.4,3.7,11.2,3.8,11.2,3.8,11.5,0,20-7.2,21.4-17.3,1.5-10.1-7-15.2-14.2-18.7Z" fill="#e5e1e6"/><path d="M66.7,66.8c-9.2-2.2-18.8,3.7-21,13.2l-5.4,23.8c-1.8,9.2,3.8,17.3,12.8,19.5,9,2.2,18.7-2.1,21.1-11.2,0,0,5.3-23.1,5.4-23.3,2.6-12.1-3.5-19.7-12.9-21.9ZM67.7,84.6l-5.4,23.7v.3c-.6,2.3-2.5,3.8-4.7,3.8s-.7,0-1.1-.1c-2.5-.6-4.1-3.3-3.5-6v-.2s5.5-23.9,5.5-23.9c.5-2.3,2.5-3.9,4.7-3.9s.7,0,1.1.1c2.6.6,4.1,3.3,3.5,6.1Z" fill="#e5e1e6"/><path d="M26.9,89.3h12.5l5.2-22.5h-9.3c-1.7,0-2.7,3-2.7,3-1.8-1.3-3.7-2.4-5.9-3-9.2-2.3-18.5,3.7-20.9,13.2L.4,103.8c-1.9,9.3,3.7,17.3,12.7,19.5,9,2.2,18.9-2.2,21.2-11.2l3-12.7s-9.3,0-9.9,0c-1.7,0-3,1.7-3.3,3l-1.5,6.4c-.7,2.9-3.5,4.7-6.2,4-2.8-.7-4.5-3.5-3.8-6.4h0s5.5-24.1,5.5-24.1c.7-2.9,3.5-4.7,6.2-4.1,2.8.7,4.5,3.6,3.8,6.5,0,0-1.1,4.7-1.1,4.7Z" fill="#e5e1e6"/><path d="M119.1,112.7c-1.9-.6-3-2.5-2.2-5,.5-1.6.6-2.1,1-3.7.4-1.6.9-7.1-2.3-10.1,4.4-2.1,7.3-7.3,7.8-12.6.7-7.8-3.7-14.4-14.9-14.4h-20.1c-1,0-2,.8-2.2,1.9l-2.1,9.3c.1,0,4.9-.4,3.5,6-.7,3.2-3.6,15.8-5.7,24.9-.3.7-.6,1.4-1,2-1.1,1.5-2.8,1.9-3.8,2h-.1s0,0,0,0l-2.3,10h22.3l2.3-10.1h-.3c-1.8,0-3-.4-3.7-1.2-.6-.8-.7-1.9-.5-3.5,0-.2,2.3-10.3,2.3-10.3.4-1.8,1.2-1.7,2.2-1.7h4.3c1.6,0,1.8,1.1,1.3,3.3-.6,2.6-2.6,11.7-2.8,12.7-1.2,6,1.8,10.8,8.2,10.8h6.3l2.4-10.3ZM108.9,82.2c-.3,1.7-.8,3.8-1.1,5.1-.2.9-.9,1.2-1.6,1.2h-7l2.3-9.9c.3-1.2,1.3-1.6,3.6-1.6,3.7,0,4.4,2.5,3.8,5.2Z" fill="#e5e1e6"/><path d="M163.2,112.7c-1.9-.6-3-2.5-2.2-5,.5-1.6.6-2.1,1-3.7.4-1.6.9-7.1-2.3-10.1,4.4-2.1,7.3-7.3,7.8-12.6.7-7.8-3.7-14.4-14.9-14.4h-20.1c-1,0-2,.8-2.2,1.9l-2.1,9.3c.1,0,4.9-.4,3.5,6-.7,3.2-3.6,15.8-5.7,24.9-.3.7-.6,1.4-1,2-1.1,1.5-2.8,1.9-3.8,2h-.1s0,0,0,0l-2.3,10h22.3l2.3-10.1h-.3c-1.8,0-3-.4-3.7-1.2-.6-.8-.7-1.9-.5-3.5,0-.2,2.3-10.3,2.3-10.3.4-1.8,1.2-1.7,2.2-1.7h4.3c1.6,0,1.8,1.1,1.3,3.3-.6,2.6-2.6,11.7-2.8,12.7-1.2,6,1.8,10.8,8.2,10.8h6.3l2.4-10.3ZM153,82.2c-.3,1.7-.8,3.8-1.1,5.1-.2.9-.9,1.2-1.6,1.2h-7l2.3-9.9c.3-1.2,1.3-1.6,3.6-1.6,3.7,0,4.4,2.5,3.8,5.2Z" fill="#e5e1e6"/><path d="M274.2,112.7c-1.9-.6-3-2.5-2.2-5,.5-1.6.6-2.1,1-3.7.4-1.6.9-7.1-2.3-10.1,4.4-2.1,7.3-7.3,7.8-12.6.7-7.8-3.7-14.4-14.9-14.4h-20.1c-1,0-2,.8-2.2,1.9l-2.1,9.3c.1,0,4.9-.4,3.5,6-.7,3.2-3.6,15.8-5.7,24.9-.3.7-.6,1.4-1,2-1.1,1.5-2.8,1.9-3.8,2h-.1s0,0,0,0l-2.3,10h22.3l2.3-10.1h-.3c-1.8,0-3-.4-3.7-1.2-.6-.8-.7-1.9-.5-3.5,0-.2,2.3-10.3,2.3-10.3.4-1.8,1.2-1.7,2.2-1.7h4.3c1.6,0,1.8,1.1,1.3,3.3-.6,2.6-2.6,11.7-2.8,12.7-1.2,6,1.8,10.8,8.2,10.8h6.3l2.4-10.3ZM264,82.2c-.3,1.7-.8,3.8-1.1,5.1-.2.9-.9,1.2-1.6,1.2h-7l2.3-9.9c.3-1.2,1.3-1.6,3.6-1.6,3.7,0,4.4,2.5,3.8,5.2Z" fill="#e5e1e6"/><path d="M699.8,112.7c-1.9-.6-3-2.5-2.2-5,.5-1.6.6-2.1,1-3.7.4-1.6.9-7.1-2.3-10.1,4.4-2.1,7.3-7.3,7.8-12.6.7-7.8-3.7-14.4-14.9-14.4h-20.1c-1,0-2,.8-2.2,1.9l-2.1,9.3c.1,0,4.9-.4,3.5,6-.7,3.2-3.6,15.8-5.7,24.9-.3.7-.6,1.4-1,2-1.1,1.5-2.8,1.9-3.8,2h-.1s0,0,0,0l-2.3,10h22.3l2.3-10.1h-.3c-1.8,0-3-.4-3.7-1.2-.6-.8-.7-1.9-.5-3.5,0-.2,2.3-10.3,2.3-10.3.4-1.8,1.2-1.7,2.2-1.7h4.3c1.6,0,1.8,1.1,1.3,3.3-.6,2.6-2.6,11.7-2.8,12.7-1.2,6,1.8,10.8,8.2,10.8h6.3l2.4-10.3ZM689.6,82.2c-.3,1.7-.8,3.8-1.1,5.1-.2.9-.9,1.2-1.6,1.2h-7l2.3-9.9c.3-1.2,1.3-1.6,3.6-1.6,3.7,0,4.4,2.5,3.8,5.2Z" fill="#e5e1e6"/><path d="M460.3,101.6c-1,4.2-1.5,6.6-2.4,8.8-.8,2-2.8,2.8-5.2,2.7-.8,0-1.6,0-2.4,0-1.4-.2-2.8-.7-3.3-1.4-.6-.8-1.1-1.8-.7-3.6.9-3.9,6-25.8,6.1-26.5.6-1.9,2-3.8,6.1-3.8l2.7-11.2h-21.2c-1,0-2,.8-2.3,1.9l-2.1,9.3c.1,0,4.8,0,3.4,6-.3,1.5-1.2,5.2-2.2,9.7,0,0,0,0,0,0-1.1,4.8-2.5,10.5-3.6,15.3-.3.7-.6,1.4-1,2-1.1,1.5-2.7,1.9-3.8,2l-2.3,10h37.8l4.9-21.3h-8.7Z" fill="#e5e1e6"/><path d="M499.9,101.6c-1,4.2-1.5,6.6-2.4,8.8-.8,2-2.8,2.8-5.2,2.7-.8,0-1.7,0-2.4,0-1.4-.2-2.8-.7-3.3-1.4-.6-.8-1.1-1.8-.7-3.6.9-3.9,6-25.8,6.1-26.5.6-1.9,2-3.8,6.1-3.8l2.7-11.2h-21.2c-1,0-2,.8-2.2,1.9l-2.1,9.3c.1,0,4.8,0,3.4,6-.3,1.5-1.2,5.2-2.2,9.7,0,0,0,0,0,0-1.1,4.8-2.5,10.5-3.6,15.3-.3.7-.6,1.4-1,2-1.1,1.5-2.7,1.9-3.8,2l-2.3,10h37.8l4.9-21.3h-8.7Z" fill="#e5e1e6"/><path d="M375.8,66.8c-1.2,0-18.8,0-18.8,0-1,0-2,.8-2.2,1.9l-2.1,9.3c.1,0,4.8,0,3.5,6-.7,3.2-3.6,15.7-5.6,24.9-.3.7-.6,1.4-1,2-1.2,1.5-2.8,1.9-3.9,2l-2.3,10c4.8,0,26.6,0,27.7,0,5.7,0,12.3-2.5,15-14,2.4-11.3,5-21.7,5-21.7,2.1-10.6-5.6-20.3-15.3-20.3ZM378.6,85.6c-.3,1.4-1,4.2-1.7,7.4-1.3,5.7-2.9,12.8-3.3,14.4-.9,3.7-2.2,4.9-5.3,4.9s-4.9,0-5.5,0l7.7-34h3.8c1.4,0,2.7.6,3.5,1.8,1,1.3,1.3,3.3.8,5.4Z" fill="#e5e1e6"/><path d="M555.9,112.9c-1.5,0-3.3,0-4.7-4.7-3.2-11.2-10.4-41.3-10.4-41.3h-9.1c-1,0-2.1.9-2.4,1.9l-16.8,41.3c-1.1,2.3-3.3,2.7-4.8,2.8l-2.3,10h19.3l2.4-10.4h-3.4c-.4,0-.6-.3-.8-.5-.4-.6-.6-1.7-.2-2.8.4-1,.5-1.3.7-1.7h0s13.9,0,13.9,0h0c0,.5.2,1.1.5,2.4.2.7,0,1.5-.2,1.9-.4.5-.9.8-1.6.8h-2l-2.4,10.4h22.2s2.3-10,2.3-10c-.1,0,0,0-.4,0ZM526,101l6-14.6,4,14.6h-10Z" fill="#e5e1e6"/><path d="M749.6,112.9c-1.5,0-3.3,0-4.7-4.7-3.2-11.2-10.4-41.3-10.4-41.3h-9.1c-1,0-2.1.9-2.4,1.9l-16.8,41.3c-1.1,2.3-3.3,2.7-4.8,2.8l-2.3,10h19.3l2.4-10.4h-3.4c-.4,0-.6-.3-.8-.5-.4-.6-.6-1.7-.2-2.8.4-1,.5-1.3.7-1.7h0s13.9,0,13.9,0h0c0,.5.2,1.1.5,2.4.2.7,0,1.5-.2,1.9-.4.5-.9.8-1.6.8h-2l-2.4,10.4h22.2s2.3-10,2.3-10c-.1,0,0,0-.4,0ZM719.6,101l6-14.6,4,14.6h-10Z" fill="#e5e1e6"/><path d="M176.6,66.8c-1,0-2,.8-2.2,1.9l-2.2,9.3c.1,0,4.9-.4,3.7,5.2-.1.6-.8,3.6-.8,3.6-1.2,5.2-3.2,14.6-5.2,22.2-.2.8-.6,1.4-1,2-1.7,2.2-3.9,2-3.9,2l-2.3,10h22.2l2.3-10c-1.4,0-5.4.3-4.1-5.4.5-2,4.9-21.4,5.6-24.3.5-2.2,1.2-5.3,6.6-5.3l2.6-11.1h-21.3Z" fill="#e5e1e6"/><path d="M202.3,66.8c-1,0-2,.8-2.2,1.9l-2.1,9.3c0,0,4.8,0,3.5,6-.7,3.2-3.6,15.8-5.7,24.9-.3.7-.6,1.4-1,2-1.8,2.4-4.8,2-4.8,2l-2.3,10h38.9l4.4-19.5h-8.7c-.7,3.1-1.1,5.2-2,7-1,1.9-2.7,2.8-5.2,2.8s-3.6-1-4.7-2.3c-1.1-1.3-1.4-3.2-1-5,.4-2,1-4.3,1.3-5.6.5-2.3,1.1-3.5,3.1-3.4,1,0,2.3,1.2,1.9,3.2-.1.6-.7,3.4-.7,3.4h4.5l4.1-17.4h-4.6s-.3,1.5-.8,3.6c-.3,1.2-1.5,2.1-2.7,2-1.8-.1-2.3-1.8-1.9-3.3.2-1.1.7-3.3,1-5,1-4.9,3.9-5.9,7.1-5.8,2.6,0,3.9,1.7,4.5,3,.5,1.1.9,2.8.2,5.7h8l4.4-19.5h-36.3Z" fill="#e5e1e6"/><path d="M319.6,86.3l4.4-19.5h-36.3c-1,0-2,.8-2.2,1.9l-2.1,9.3c.1,0,4.8,0,3.5,6-.7,3.2-3.6,15.8-5.7,24.9-.3.7-.6,1.4-1,2-1.1,1.5-2.7,1.9-3.8,2l-2.3,10h37.9l4.4-19.5h-8.7c-.7,3.1-1.1,5.2-2,7-1,1.9-2.7,2.8-5.2,2.8s-3.6-1-4.7-2.3c-1.1-1.3-1.4-3.2-1-5,.4-2,1-4.3,1.3-5.6.5-2.3,1.1-3.5,3.1-3.4,1,0,2.3,1.2,1.9,3.2-.1.6-.7,3.4-.7,3.4h4.5l4.1-17.4h-4.6s-.3,1.5-.8,3.6c-.3,1.2-1.5,2.1-2.7,2-1.8-.1-2.3-1.8-1.9-3.3.2-1.1.7-3.3,1-5,1-4.9,3.9-5.9,7.1-5.8,2.6,0,3.9,1.7,4.5,3,.5,1.1.9,2.8.2,5.7,0,0,8,0,8,0Z" fill="#e5e1e6"/><path d="M430.8,86.3l4.4-19.5h-36.3c-1,0-2,.8-2.2,1.9l-2.1,9.3c0,0,4.8,0,3.5,6-.7,3.2-3.6,15.8-5.7,24.9-.3.7-.6,1.4-1,2-1.1,1.5-2.7,1.9-3.8,2l-2.3,10h37.9l4.4-19.5h-8.7c-.7,3.1-1.1,5.2-2,7-1,1.9-2.7,2.8-5.2,2.8s-3.6-1-4.7-2.3c-1.1-1.3-1.4-3.2-1-5,.5-2,1-4.3,1.3-5.6.5-2.3,1.1-3.5,3.1-3.4,1,0,2.3,1.2,1.9,3.2-.1.6-.7,3.4-.7,3.4h4.5l4.1-17.4h-4.6s-.3,1.5-.8,3.6c-.3,1.2-1.5,2.1-2.7,2-1.8-.1-2.3-1.8-1.9-3.3.2-1.1.7-3.3,1-5,1-4.9,3.9-5.9,7.1-5.8,2.6,0,3.9,1.7,4.5,3,.5,1.1.9,2.8.2,5.7,0,0,8.1,0,8.1,0Z" fill="#e5e1e6"/><path d="M659.9,86.3l4.4-19.5h-36.3c-1,0-2,.8-2.2,1.9l-2.1,9.3c0,0,4.8,0,3.5,6-.7,3.2-3.6,15.8-5.7,24.9-.3.7-.6,1.4-1,2-1.1,1.5-2.7,1.9-3.8,2l-2.3,10h37.9l4.4-19.5h-8.7c-.7,3.1-1.1,5.2-2,7-1,1.9-2.7,2.8-5.2,2.8s-3.6-1-4.7-2.3c-1.1-1.3-1.4-3.2-1-5,.4-2,1-4.3,1.3-5.6.5-2.3,1.1-3.5,3.1-3.4,1,0,2.3,1.2,1.9,3.2-.1.6-.7,3.4-.7,3.4h4.5l4.1-17.4h-4.6s-.3,1.5-.8,3.6c-.3,1.2-1.5,2.1-2.7,2-1.8-.1-2.3-1.8-1.9-3.3.2-1.1.7-3.3,1-5,1-4.9,3.9-5.9,7.1-5.8,2.6,0,3.9,1.7,4.5,3,.5,1.1.9,2.8.2,5.7,0,0,8,0,8,0Z" fill="#e5e1e6"/><rect x="0" width="750" height="162.2" fill="none"/></g></svg>