<?xml version="1.0" encoding="UTF-8"?>
<svg id="Livello_2" xmlns="http://www.w3.org/2000/svg" version="1.1" viewBox="0 0 616.9 262.9">
  <!-- Generator: Adobe Illustrator 30.5.0, SVG Export Plug-In . SVG Version: 2.1.4 Build 167)  -->
  <defs>
    <style>
      .st0 {
        fill: none;
      }

      .st1 {
        fill: #1d1d1b;
      }

      .st2 {
        fill: #bdbec0;
      }
    </style>
  </defs>
  <path class="st1" d="M268.2,34.6h0s0,0,0,0h0Z"/>
  <g>
    <path class="st1" d="M366,117.4h-12.4v-8.2h33.7v8.2h-12.4v32.4h-8.9v-32.4Z"/>
    <path class="st1" d="M400,109.2h18.6c5.2,0,9.2,1.5,11.8,4.1,2.3,2.3,3.5,5.5,3.5,9.3h0c0,6.7-3.5,10.8-8.7,12.7l9.9,14.5h-10.4l-8.7-13h-7v13h-8.9v-40.6h0ZM418,128.9c4.4,0,6.8-2.3,6.8-5.7h0c0-3.9-2.7-5.9-7-5.9h-8.9v11.7h9.1Z"/>
    <path class="st1" d="M461.7,108.9h8.2l17.4,40.9h-9.3l-3.7-9.1h-17.2l-3.7,9.1h-9.1l17.4-40.9ZM471.1,132.8l-5.4-13.2-5.4,13.2h10.8Z"/>
    <path class="st1" d="M490.2,109.2h9.9l10.6,28.6,10.6-28.6h9.6l-16.4,40.9h-7.9l-16.4-40.9Z"/>
    <path class="st1" d="M543,109.2h30.6v8h-21.8v8.2h19.2v8h-19.2v8.5h22.1v8h-30.9v-40.6Z"/>
    <path class="st1" d="M587.7,109.2h8.9v32.5h20.3v8.1h-29.2v-40.6h0Z"/>
  </g>
  <g>
    <path class="st1" d="M0,109.2h9.9l10.6,28.6,10.6-28.6h9.6l-16.4,40.9h-7.9L0,109.2Z"/>
    <path class="st1" d="M55,109.2h8.9v40.6h-8.9v-40.6Z"/>
    <path class="st1" d="M79.8,129.6h0c0-11.7,8.7-21.1,21.2-21.1s12.3,2.6,16,6.3l-5.7,6.6c-3.1-2.8-6.3-4.6-10.4-4.6-6.9,0-11.8,5.7-11.8,12.7h0c0,7.1,4.8,12.9,11.8,12.9s7.5-1.9,10.7-4.8l5.7,5.7c-4.2,4.5-8.8,7.3-16.7,7.3-12,0-20.8-9.2-20.8-20.9Z"/>
    <path class="st1" d="M129.1,129.6h0c0-11.7,9.1-21.1,21.7-21.1s21.5,9.3,21.5,20.9h0c0,11.7-9.1,21.1-21.7,21.1-12.5,0-21.5-9.3-21.5-20.9ZM162.9,129.6h0c0-7.1-5.1-12.9-12.3-12.9s-12.2,5.7-12.2,12.7h0c0,7.1,5.1,12.9,12.3,12.9s12.2-5.7,12.2-12.7Z"/>
  </g>
  <g>
    <g>
      <g>
        <polygon class="st2" points="264.1 130.3 300.4 94 264.1 120.8 264.1 130.3"/>
        <polygon class="st1" points="264.1 130.3 300.4 94 273.6 130.3 264.1 130.3"/>
      </g>
      <g>
        <polygon class="st2" points="264.1 130.3 227.9 166.5 264.1 139.7 264.1 130.3"/>
        <polygon class="st1" points="264.1 130.3 227.9 166.5 254.7 130.3 264.1 130.3"/>
      </g>
      <g>
        <polygon class="st2" points="264.1 130.3 300.4 166.5 273.6 130.3 264.1 130.3"/>
        <polygon class="st1" points="264.1 130.3 300.4 166.5 264.1 139.7 264.1 130.3"/>
      </g>
      <g>
        <polygon class="st2" points="264.1 130.3 227.9 94 254.7 130.3 264.1 130.3"/>
        <polygon class="st1" points="264.1 130.3 227.9 94 264.1 120.8 264.1 130.3"/>
      </g>
    </g>
    <g>
      <g>
        <polygon class="st2" points="264.1 130.3 264.1 57.7 254.7 120.8 264.1 130.3"/>
        <polygon class="st1" points="264.1 130.3 264.1 57.7 273.6 120.8 264.1 130.3"/>
      </g>
      <g>
        <polygon class="st2" points="264.1 130.3 264.1 202.8 273.6 139.7 264.1 130.3"/>
        <polygon class="st1" points="264.1 130.3 264.1 202.8 254.7 139.7 264.1 130.3"/>
      </g>
      <g>
        <polygon class="st2" points="264.1 130.3 336.7 130.3 273.6 120.8 264.1 130.3"/>
        <polygon class="st1" points="264.1 130.3 336.7 130.3 273.6 139.7 264.1 130.3"/>
      </g>
      <g>
        <polygon class="st2" points="264.1 130.3 191.6 130.3 254.7 139.7 264.1 130.3"/>
        <polygon class="st1" points="264.1 130.3 191.6 130.3 254.7 120.8 264.1 130.3"/>
      </g>
    </g>
  </g>
  <polygon class="st0" points="264.2 129.8 264.2 129.7 264.2 129.9 264.2 129.8"/>
  <path class="st1" d="M264.1,216.6c-.1,0-.2,0-.3,0v9.3c.1,0,.2,0,.3,0,12.9,0,25.3-2.6,36.5-7.2l-3.5-8.6c-10.2,4.2-21.3,6.5-33,6.5Z"/>
  <path class="st2" d="M230.6,209.9l-3.5,8.6c11.3,4.7,23.7,7.4,36.7,7.4v-9.3c-11.7,0-22.9-2.4-33.1-6.7Z"/>
  <g>
    <path class="st2" d="M201.9,15.9l4.3-2.3,8.1,15.5-4.3,2.3-8.1-15.5Z"/>
    <path class="st2" d="M218.4,12.9l-4.9,1.8-1.5-4,14.4-5.3,1.5,4-4.9,1.8,4.6,12.4-4.5,1.7-4.6-12.4Z"/>
    <path class="st2" d="M236.6,2.8l4.6-.9,10.8,15.8-5.1,1-1.8-2.8-6.6,1.3-.6,3.3-5,1,3.8-18.7ZM242.8,12.5l-2.9-4.5-1,5.2,3.8-.8Z"/>
    <path class="st2" d="M255,.1h4.9c0-.1.3,13.1.3,13.1l8.5-.2v4.3c.1,0-13.2.3-13.2.3l-.4-17.5Z"/>
    <path class="st2" d="M274.7.3l4.8.5-1.7,17.4-4.8-.5,1.7-17.4Z"/>
    <path class="st2" d="M293,2.9l4.5,1.1,3.1,18.9-5.1-1.2-.5-3.4-6.6-1.6-2,2.8-4.9-1.2,11.4-15.4ZM294.6,14.3l-.7-5.3-3.1,4.3,3.8.9Z"/>
    <path class="st2" d="M311.1,8.2l4.1,1.9,2.7,11.4,3.8-8.4,4.4,2-7.3,15.9-3.8-1.8-2.8-11.9-4,8.7-4.4-2,7.3-15.9Z"/>
  </g>
  <path class="st1" d="M263.7,43.9v-9.3c-12.9,0-25.2,2.6-36.4,7.3l3.5,8.6c10.1-4.2,21.2-6.6,32.8-6.6Z"/>
  <path class="st2" d="M264.1,43.9c11.5,0,22.6,2.3,32.6,6.4l3.5-8.6c-11.2-4.6-23.4-7.1-36.2-7.1s-.2,0-.3,0v9.3c.1,0,.2,0,.3,0Z"/>
  <g>
    <path class="st2" d="M190.6,218.5l5.5,4c5,3.7,5.9,8.7,2.9,12.8h0c-3,4.1-8.2,5-13.2,1.3l-5.4-3.9,10.3-14.2ZM192,224.8l-5.3,7.2,1.6,1.2c2.4,1.7,4.9,1.6,6.5-.7h0c1.7-2.3,1.1-4.8-1.3-6.5l-1.6-1.2Z"/>
    <path class="st2" d="M203,237.9h0c2.2-4.6,7.6-6.5,12.5-4.2,4.9,2.3,6.8,7.7,4.6,12.2h0c-2.2,4.6-7.6,6.5-12.5,4.2-4.9-2.3-6.8-7.7-4.6-12.2ZM215.5,243.9h0c1.1-2.3.4-5.1-2-6.2-2.4-1.2-4.9,0-6,2.3h0c-1.1,2.3-.4,5.1,2,6.3,2.4,1.1,4.9,0,6-2.3Z"/>
    <path class="st2" d="M227.4,239.1l4.7,1.3-3.6,12.8,8.2,2.3-1.2,4.1-12.8-3.6,4.7-16.8Z"/>
    <path class="st2" d="M241.2,252h0c.6-5.1,5-8.7,10.4-8.1,5.4.6,8.9,5.1,8.3,10h0c-.6,5.1-5,8.7-10.4,8.1-5.4-.6-8.9-5-8.3-10ZM255,253.6h0c.3-2.6-1.3-5-3.9-5.2-2.7-.3-4.7,1.6-4.9,4.2h0c-.3,2.6,1.3,5,4,5.3,2.6.3,4.6-1.6,4.9-4.2Z"/>
    <path class="st2" d="M264.6,245.5l5.1-.4,4.7,6.4,3.6-7.1,5.1-.4,1.4,17.4-4.8.4-.8-10-3.9,7.2h-.1s-5-6.4-5-6.4l.8,10-4.7.4-1.4-17.4Z"/>
    <path class="st2" d="M287.7,242.8l4.7-1.1,3.9,17.1-4.7,1.1-3.9-17.1Z"/>
    <path class="st2" d="M302.6,243.1l-4.9,1.8-1.4-4,14.4-5.2,1.4,4-4.9,1.8,4.5,12.5-4.6,1.6-4.5-12.5Z"/>
    <path class="st2" d="M313.9,234.2l12.3-6.8,2,3.6-8.1,4.5,1.3,2.3,7.4-4.1,1.8,3.4-7.4,4.1,1.3,2.4,8.2-4.5,2,3.6-12.4,6.9-8.5-15.3Z"/>
    <path class="st2" d="M337.7,237.7l.2-4.2c2.2,0,4.2-.6,5.8-1.8,1-.8,1.3-1.6.9-2.2h0c-.5-.6-1.1-.6-3.4.4-3.5,1.6-6.4,2.5-8.6-.3h0c-2-2.6-1.4-6,1.9-8.6,2.4-1.8,4.7-2.6,7.1-2.6l.2,4.2c-2,0-3.7.7-4.9,1.6-.9.7-1.1,1.4-.7,2h0c.5.7,1.2.6,3.5-.5,3.7-1.8,6.5-2.3,8.5.3h0c2.2,2.9,1.3,6.3-2.1,8.9-2.5,1.9-5.4,2.9-8.3,2.7Z"/>
  </g>
</svg>