<?xml version="1.0" encoding="UTF-8"?><svg id="uuid-5c8691e7-5b06-49ca-91e4-73e29e50caf1" xmlns="http://www.w3.org/2000/svg" viewBox="0 0 426.3 71.9"><g id="uuid-fc7f24df-e557-48d3-b807-1584a3b8b807"><g id="uuid-3e7509f6-3abe-46cf-b23c-11e4356ae8a9"><path d="M213.3,7c.5-.6.9-1.1,1.3-1.6,3.4-4.4,7.9-5.9,13.1-4.9,5.1,1,8.6,4.2,10,9.3.5,1.6.7,3.4.7,5,0,18.2,0,36.4,0,54.6,0,.4,0,.8,0,1.2-.2.9-.7,1.3-1.6,1.3-.9,0-1.4-.4-1.4-1.4,0-1.2,0-2.5,0-3.7,0-16.7,0-33.3,0-50,0-1.6,0-3.3-.3-4.9-.9-6.4-7.5-10.2-13.5-7.8-4.1,1.6-6.5,4.6-6.6,9.1,0,2.6,0,5.2,0,7.7,0,16.1,0,32.2,0,48.3v.5c0,2.2-.3,2.4-2.9,2,0-.7-.2-1.5-.3-2.3,0-3.6,0-7.2,0-10.7,0-14.4,0-28.9,0-43.3,0-.9,0-1.9,0-2.8-.4-4.1-2.5-7-6.3-8.6-3.9-1.6-7.5-.8-10.7,1.9-1.8,1.5-3,3.6-3.1,6.1,0,1.5-.2,3-.2,4.6,0,17.5,0,35,0,52.5,0,.5,0,.9,0,1.4,0,1-.6,1.5-1.6,1.5-.9,0-1.2-.3-1.4-1.4,0-.7,0-1.4,0-2.1,0-16.4,0-32.8,0-49.1,0-2.4.1-4.8.1-7.2,0-4.7,4.1-10.3,9.8-11.5,5.1-1.1,9.7,0,13.3,4.1.6.7,1.2,1.6,1.9,2.5h0Z" fill="#1d1d1b"/><path d="M23.6,38.4H3.2v2.3c0,9.4,0,18.8,0,28.2,0,.5,0,.9,0,1.4,0,1-.5,1.4-1.4,1.4-.9,0-1.5-.3-1.6-1.2C0,70.1,0,69.6,0,69.1c0-18.2,0-36.4,0-54.6s.5-6.1,2.4-8.7C5.2,1.9,9.1-.1,14,0c7.1.3,12.4,5.5,12.7,12.6.2,5.6.1,11.3.1,16.9,0,13.1,0,26.2,0,39.3,0,.6,0,1.2,0,1.8-.1.8-.6,1.2-1.4,1.2-.8,0-1.4-.4-1.5-1.2-.1-.5,0-1.1,0-1.6,0-9.6,0-19.1,0-28.7v-1.9h0ZM3.2,35.3h20.3v-3.8c0-6.2,0-12.3,0-18.5,0-3.2-1.4-5.8-3.9-7.7-4.2-3.2-9.5-2.7-13.5,1-1.4,1.3-2.2,2.9-2.5,4.7-.2.9-.2,1.9-.2,2.8,0,6.6-.1,13.3-.2,19.9,0,.5,0,.9,0,1.6h0Z" fill="#1d1d1b"/><path d="M167.8,31c0,8.1,0,16.2,0,24.3,0,1.6,0,3.2-.2,4.7-.5,5.4-3.5,9-8.4,10.9-4.9,1.9-9.5,1-13.4-2.5-3.1-2.8-4.6-6.3-4.6-10.5,0-12.2,0-24.4,0-36.6,0-5.9,0-11.9,0-17.8,0-.6,0-1.3,0-1.9.1-1.3.7-1.8,2-1.6.6,0,1,.4,1,1,0,.8,0,1.6,0,2.5,0,17.4,0,34.9,0,52.3,0,1.6,0,3.2.3,4.7.6,3.9,3.1,6.4,6.8,7.6,3.6,1.2,6.9.4,9.9-2,2.4-2,3.4-4.7,3.5-7.8,0-2.7,0-5.4,0-8.1,0-15.8,0-31.6,0-47.4,0-.4,0-.8,0-1.2,0-1.3.5-1.6,1.8-1.6.8,0,1.2.3,1.3,1.1,0,.7,0,1.4,0,2.1v27.6h0Z" fill="#1d1d1b"/><path d="M309.2.4c0,1.3.1,2.5.1,3.7,0,15,0,29.9,0,44.9,0,3.4,0,6.8.2,10.2,0,1.7.5,3.4,1.5,4.8,2.3,3.6,6.8,5.3,11.1,4.3,4.3-1.1,7.4-4.6,7.6-9,.1-1.6.1-3.3.1-4.9,0-17.3,0-34.6,0-51.9,0-.4,0-.7,0-1.1.1-1,.6-1.4,1.7-1.3,1,0,1.2.3,1.3,1.5,0,.5,0,.9,0,1.4,0,17.7,0,35.3,0,53,0,1.3,0,2.6-.1,3.9-.3,7.6-7.7,13.1-15.3,11.8-5.9-1-10.4-5.8-10.9-11.7-.2-1.8-.2-3.6-.2-5.5,0-16.7,0-33.3,0-50s0-1.5,0-2.3c.1-2.1.6-2.4,3-1.7h0Z" fill="#1d1d1b"/><path d="M378.6,20.7h-2.7c0-.8-.1-1.6-.1-2.3,0-1.9,0-3.9-.2-5.8-1-7.7-10-11.3-16.2-6.6-2.2,1.7-3.7,3.8-3.8,6.6-.1,4.6-.3,9.3,0,13.9.3,4.6,3.5,7.7,8.1,8.5,1.1.2,2.2.3,3.3.5,6.5.7,11.1,5.2,11.7,11.8.4,4.5.4,8.9,0,13.4-.6,5.4-4.9,9.9-10.4,11-8.4,1.6-14-4.2-15.3-9.1-.8-3-.7-6.2-.6-9.3,0-1,.6-1.5,1.6-1.5,1,0,1.4.3,1.5,1.5,0,.8,0,1.6,0,2.5,0,1.3,0,2.7.1,4,.4,5.8,6.1,9.9,11.9,8.8,3.6-.7,8-3.7,8.2-8.9.1-3.9.3-7.9,0-11.8-.3-5.4-3.7-8.8-9.1-9.5-1.3-.2-2.6-.2-3.8-.5-5.3-1.1-8.6-4.5-10.1-9.7-.2-.8-.4-1.6-.4-2.4,0-4.2-.2-8.5,0-12.7.4-8,7.8-13.5,15.4-12.3,5.4.8,10,5,10.8,10.6.4,2.8.3,5.6.4,8.4,0,.2-.1.4-.2.8h0Z" fill="#1d1d1b"/><path d="M261.6,35.4h23.4c0,.4.2.6.2.8,0,1.9-.1,2.2-2,2.2-6.4,0-12.8,0-19.2,0h-2.3c0,.7-.2,1.2-.2,1.8,0,5.7,0,11.4,0,17.1,0,.7,0,1.4,0,2.1.5,5.3,4.3,9,9.6,9.3,3.4.2,6.8,0,10.2.1.4,0,.8,0,1.2,0,2.4,0,2.6.2,2,2.9-.4,0-.8.2-1.3.2-3.9,0-7.7,0-11.6,0-3,0-5.8-.9-8.2-2.8-3.2-2.5-4.8-5.8-5.1-9.8,0-.8,0-1.5,0-2.3,0-13.8,0-27.6,0-41.4,0-1.1,0-2.1,0-3.2.6-6.7,5.7-11.8,12.5-12.1,4.1-.2,8.2-.1,12.3-.1.5,0,.9.1,1.5.2v2.8c-.7,0-1.4.1-2.1.1-3.6,0-7.2,0-10.7,0-2.5,0-4.7.7-6.7,2.3-2.4,2-3.6,4.5-3.7,7.5,0,2.3,0,4.6,0,6.9,0,4.5,0,8.9,0,13.4s0,1.3,0,2.2h0Z" fill="#1d1d1b"/><path d="M426,71.6c-.4,0-.8.1-1.2.1-3.9,0-7.9,0-11.8,0-5.2,0-9-2.5-11.7-6.9-1.1-1.8-1.5-3.8-1.5-5.9,0-1.6,0-3.3,0-4.9V13.6c0-4,1.4-7.4,4.4-10.2,2-1.8,4.2-3.1,6.9-3.2,4.6-.2,9.3-.2,13.9-.2.4,0,.8.2,1.2.3,0,.5.1.9.1,1.3,0,1.3-.3,1.5-1.6,1.5-3,0-6,0-9,0-1.2,0-2.3,0-3.5.1-5,.2-9.3,4.9-9.3,9.8,0,6,0,12.1,0,18.1,0,1.3,0,2.7,0,4.3h22.2v2.9h-22c-.1.6-.3.9-.2,1.3,0,6.3,0,12.7.1,19,0,2.2.6,4.3,2,6.1,2,2.5,4.6,3.9,7.7,3.9,3.2,0,6.5,0,9.7,0,.6,0,1.2,0,1.8,0,2.3,0,2.6.5,1.8,2.9h0Z" fill="#1d1d1b"/><path d="M50.3.5c0,1.2.1,2.4.1,3.5,0,16,0,31.9,0,47.9s.2,4.8.1,7.2c0,4.5,3.7,9.1,9.1,9.5,1.9.1,3.8.1,5.6.1,2.1,0,4.2,0,6.3,0,2.3,0,2.6.4,1.9,2.9-.4,0-.9.1-1.3.1-3.8,0-7.6,0-11.4,0-5.7,0-9.8-2.8-12.3-7.9-.5-1.1-.8-2.3-.9-3.5-.2-2.3-.3-4.7-.3-7,0-16.6,0-33.2,0-49.8,0-.4,0-.7,0-1.1,0-2.3.5-2.6,3.1-1.9h0Z" fill="#1d1d1b"/><path d="M93.6.2h2.7c.7,1,.4,2,.4,3,0,12.8,0,25.6,0,38.4,0,5,0,10,0,15,0,.9,0,1.9,0,2.8.4,5.2,4.2,9,9.5,9.3,3.2.2,6.3,0,9.5,0,.6,0,1.3,0,1.9,0,2.4,0,2.7.5,1.9,3-.5,0-1.1.1-1.7.1-3.6,0-7.2,0-10.7,0-4.8,0-8.6-2-11.4-5.8-1.4-2-2.1-4.2-2.2-6.6,0-1.1,0-2.1-.1-3.2,0-17.7,0-35.3,0-53V.2h0Z" fill="#1d1d1b"/></g></g></svg>