<?xml version="1.0" encoding="UTF-8"?><svg id="uuid-fd7821be-05d3-450f-bcbf-f5395c051969" xmlns="http://www.w3.org/2000/svg" viewBox="0 0 87.8 16.3"><g id="uuid-d766a1a9-1f9b-4ffa-b5fa-49c27778dde6"><path d="M85.4,13c1.1,0,1.8-.6,2.5-1.7l-.3-.2c-.5.7-1,1.1-1.5,1.1-.7,0-1.1-.4-1.1-1.5v-5.5h2.6v-.7h-2.6V1.5l-1.5.7v2.3l-1.7.4v.3h1.6v5.5c0,1.5.6,2.3,1.9,2.3M75.2,12.9h4.4v-.4c-1.2,0-1.5-.1-1.5-.7v-5.1c.5-.8,1-1.3,1.8-1.4,0,.1,0,.3,0,.4,0,.6.5,1,1,1s.9-.4.9-1-.4-1.2-1.3-1.2-1.8.7-2.4,1.7v-1.6h-2.8v.5c1.1,0,1.3.4,1.3.9v5.9c0,.5-.3.7-1.3.7v.4ZM71.1,12.5c-1.5,0-2.5-1.1-2.5-3.9s.9-3.9,2.3-3.9,2.5,1.1,2.5,3.9-.9,3.9-2.3,3.9M71.1,13c2.3,0,4.1-1.8,4.1-4.4s-1.7-4.3-4.1-4.3-4.1,1.8-4.1,4.3,1.7,4.3,4.1,4.3M62.3,12.5c-1,0-1.7-.5-2-1.6v-4.8c.5-.6,1.2-1,2.1-1,1.4,0,2.3,1.5,2.3,3.5s-.9,3.9-2.3,3.9M57.4,16.3h4.6v-.4c-1.3,0-1.7-.1-1.7-.7v-2.9c.7.4,1.3.6,2.3.6,2.3,0,3.8-2,3.8-4.5s-1.2-4.1-3.3-4.1-2,.5-2.8,1.3v-1.2h-2.8v.5c1.1,0,1.3.4,1.3.9v9.4c0,.5-.3.7-1.3.7v.4ZM53.9,4.8c1.4,0,2,1.2,1.8,3h-3.9c.1-2.1,1-3,2.1-3M54,13c1.8,0,2.8-1,3.5-2.2l-.3-.2c-.7.9-1.5,1.6-2.6,1.6-1.9,0-2.9-1.6-2.9-3.6h0v-.3h5.6c.1-2-1-3.9-3.4-3.9s-3.9,1.9-3.9,4.4,1.5,4.2,3.9,4.2M42.4,6.9h1.5c2,0,2.6.4,2.8,2.2v1.6c.3,1.7.7,2.3,2.8,2.3s.9,0,1.2-.1v-.4c-1.4,0-1.8-.3-2-1.7l-.2-1.2c-.3-1.6-.7-2.7-3.1-2.8h0c2.5-.5,3.4-1.7,3.4-3.2s-1.3-3-4.9-3h-5.2v.4c1.6,0,2,.4,2,1.1v9.4c0,.7-.4,1-2,1v.4h5.6v-.4c-1.7,0-1.9-.3-1.9-1v-4.5ZM42.4,6.4V1h1.4c2.4,0,3.2.9,3.2,2.5s-.5,2.9-3,2.9h-1.6ZM32.5,12.5c-.9,0-1.7-.5-2.1-1.6v-4.9c.5-.6,1.2-.9,2-.9,1.4,0,2.4,1.4,2.4,3.4s-.7,4-2.3,4M28.8,13.1h.3l.8-1c.9.6,1.8.9,2.7.9,2.4,0,3.9-2.1,3.9-4.6s-1.3-4.1-3.4-4.1-1.9.4-2.7,1.2V0h-3v.5c1.2,0,1.5.3,1.5.9v11.7ZM24,12.5c-.9,0-1.7-.5-2.1-1.6v-4.9c.5-.6,1.2-.9,2-.9,1.4,0,2.4,1.4,2.4,3.4s-.7,4-2.3,4M20.3,13.1h.3l.8-1c.9.6,1.8.9,2.7.9,2.4,0,3.9-2.1,3.9-4.6s-1.3-4.1-3.4-4.1-1.9.4-2.7,1.2V0h-3v.5c1.2,0,1.5.3,1.5.9v11.7ZM15.5,12.5c-1.5,0-2.5-1.1-2.5-3.9s.9-3.9,2.3-3.9,2.5,1.1,2.5,3.9-.9,3.9-2.3,3.9M15.4,13c2.3,0,4.1-1.8,4.1-4.4s-1.7-4.3-4.1-4.3-4.1,1.8-4.1,4.3,1.7,4.3,4.1,4.3M3.7,6.9h1.5c2,0,2.6.4,2.8,2.2v1.6c.3,1.7.7,2.3,2.8,2.3s.9,0,1.2-.1v-.4c-1.4,0-1.8-.3-2-1.7l-.2-1.2c-.3-1.6-.7-2.7-3.1-2.8h0c2.5-.5,3.4-1.7,3.4-3.2S8.9.5,5.2.5H0v.4c1.6,0,2,.4,2,1.1v9.4c0,.7-.4,1-2,1v.4h5.6v-.4c-1.7,0-1.9-.3-1.9-1v-4.5ZM3.7,6.4V1h1.4c2.4,0,3.2.9,3.2,2.5s-.5,2.9-3,2.9h-1.6Z"/></g></svg>